<svg width="69" height="41" viewBox="0 0 69 41" fill="none" xmlns="http://www.w3.org/2000/svg">
<g clip-path="url(#clip0_22_735)">
<path d="M19.4466 14.7997C19.4466 15.6229 19.5355 16.2903 19.6911 16.7797C19.869 17.2691 20.0914 17.8031 20.4026 18.3815C20.5138 18.5595 20.5583 18.7374 20.5583 18.8932C20.5583 19.1156 20.4249 19.3381 20.1358 19.5606L18.7351 20.4949C18.5349 20.6284 18.3348 20.6952 18.157 20.6952C17.9346 20.6952 17.7123 20.5839 17.4899 20.3837C17.1786 20.05 16.9118 19.694 16.6895 19.3381C16.4671 18.9599 16.2448 18.5372 16.0002 18.0255C14.2659 20.0722 12.087 21.0956 9.46332 21.0956C7.59563 21.0956 6.10592 20.5617 5.01644 19.4938C3.92695 18.426 3.37109 17.0022 3.37109 15.2224C3.37109 13.3314 4.03813 11.7964 5.39442 10.6395C6.75072 9.4827 8.55171 8.90428 10.8418 8.90428C11.5978 8.90428 12.376 8.97102 13.1987 9.08225C14.0214 9.19349 14.8663 9.37146 15.7556 9.57168V7.94766C15.7556 6.25689 15.3999 5.0778 14.7106 4.38815C13.9991 3.69849 12.7985 3.36479 11.0864 3.36479C10.3082 3.36479 9.50779 3.45377 8.68511 3.654C7.86244 3.85422 7.062 4.09894 6.2838 4.41039C5.92805 4.56612 5.66124 4.65511 5.5056 4.6996C5.34995 4.7441 5.23878 4.76634 5.14984 4.76634C4.83856 4.76634 4.68292 4.54387 4.68292 4.07669V2.98659C4.68292 2.63064 4.72739 2.36367 4.83856 2.20795C4.94974 2.05222 5.14984 1.89649 5.46113 1.74076C6.23933 1.34031 7.17317 1.00661 8.26266 0.739647C9.35214 0.450436 10.5083 0.316955 11.7312 0.316955C14.3771 0.316955 16.3115 0.917622 17.5566 2.11896C18.7795 3.32029 19.4021 5.14454 19.4021 7.59171V14.7997H19.4466ZM10.4194 18.1813C11.1531 18.1813 11.9091 18.0478 12.7095 17.7808C13.51 17.5138 14.2215 17.0244 14.8218 16.357C15.1776 15.9343 15.4444 15.4671 15.5778 14.9332C15.7112 14.3993 15.8001 13.7541 15.8001 12.9977V12.0633C15.1553 11.9076 14.4661 11.7741 13.7546 11.6851C13.0431 11.5962 12.3538 11.5517 11.6645 11.5517C10.1748 11.5517 9.08533 11.8409 8.3516 12.4415C7.61786 13.0422 7.26211 13.8876 7.26211 14.9999C7.26211 16.0455 7.52892 16.8242 8.08478 17.3581C8.61841 17.9143 9.39661 18.1813 10.4194 18.1813ZM28.2736 20.5839C27.8734 20.5839 27.6066 20.5172 27.4287 20.3615C27.2508 20.228 27.0952 19.9165 26.9618 19.4938L21.7367 2.29693C21.6033 1.85199 21.5366 1.56278 21.5366 1.40706C21.5366 1.0511 21.7145 0.850881 22.0702 0.850881H24.2492C24.6716 0.850881 24.9607 0.917622 25.1163 1.07335C25.2942 1.20683 25.4276 1.51829 25.561 1.94098L29.2964 16.6685L32.765 1.94098C32.8761 1.49604 33.0095 1.20683 33.1874 1.07335C33.3653 0.939869 33.6766 0.850881 34.0768 0.850881H35.8555C36.278 0.850881 36.567 0.917622 36.7449 1.07335C36.9228 1.20683 37.0784 1.51829 37.1674 1.94098L40.6804 16.8464L44.5269 1.94098C44.6604 1.49604 44.816 1.20683 44.9716 1.07335C45.1495 0.939869 45.4386 0.850881 45.8388 0.850881H47.9066C48.2623 0.850881 48.4624 1.02886 48.4624 1.40706C48.4624 1.51829 48.4402 1.62952 48.418 1.76301C48.3957 1.89649 48.3513 2.07446 48.2623 2.31918L42.9038 19.5161C42.7704 19.961 42.6148 20.2502 42.4369 20.3837C42.259 20.5172 41.97 20.6062 41.592 20.6062H39.6798C39.2574 20.6062 38.9683 20.5394 38.7905 20.3837C38.6126 20.228 38.457 19.9388 38.368 19.4938L34.9217 5.14454L31.4976 19.4716C31.3864 19.9165 31.253 20.2057 31.0751 20.3615C30.8973 20.5172 30.586 20.5839 30.1858 20.5839H28.2736ZM56.8448 21.1846C55.6886 21.1846 54.5324 21.0511 53.4207 20.7841C52.309 20.5172 51.4418 20.228 50.8637 19.8943C50.508 19.694 50.2634 19.4716 50.1745 19.2714C50.0855 19.0711 50.0411 18.8487 50.0411 18.6484V17.5138C50.0411 17.0467 50.219 16.8242 50.5525 16.8242C50.6859 16.8242 50.8193 16.8464 50.9527 16.8909C51.0861 16.9354 51.2862 17.0244 51.5085 17.1134C52.2645 17.4471 53.0872 17.7141 53.9543 17.892C54.8437 18.07 55.7108 18.159 56.6002 18.159C58.001 18.159 59.0905 17.9143 59.8464 17.4249C60.6024 16.9354 61.0026 16.2235 61.0026 15.3114C61.0026 14.6885 60.8025 14.1768 60.4023 13.7541C60.0021 13.3314 59.2461 12.9532 58.1566 12.5973L54.9326 11.5962C53.3095 11.0845 52.1089 10.3281 51.3751 9.32697C50.6414 8.3481 50.2634 7.258 50.2634 6.10116C50.2634 5.16679 50.4635 4.34365 50.8637 3.63175C51.264 2.91985 51.7976 2.29693 52.4646 1.8075C53.1317 1.29582 53.8876 0.917622 54.777 0.650659C55.6664 0.383696 56.6002 0.272461 57.5785 0.272461C58.0677 0.272461 58.5791 0.294708 59.0682 0.361449C59.5796 0.42819 60.0466 0.517177 60.5135 0.606165C60.9582 0.7174 61.3806 0.828635 61.7808 0.962116C62.181 1.0956 62.4923 1.22908 62.7147 1.36256C63.026 1.54054 63.2483 1.71851 63.3817 1.91873C63.5151 2.09671 63.5818 2.34143 63.5818 2.65288V3.69849C63.5818 4.16568 63.4039 4.41039 63.0704 4.41039C62.8926 4.41039 62.6035 4.3214 62.2255 4.14343C60.9582 3.56501 59.5352 3.2758 57.9565 3.2758C56.6892 3.2758 55.6886 3.47602 54.9993 3.89871C54.3101 4.3214 53.9543 4.96657 53.9543 5.87869C53.9543 6.50161 54.1767 7.03553 54.6214 7.45822C55.066 7.88092 55.8887 8.30361 57.0671 8.68181L60.2244 9.68292C61.8253 10.1946 62.9815 10.9065 63.6708 11.8186C64.36 12.7308 64.6935 13.7764 64.6935 14.9332C64.6935 15.8898 64.4934 16.7574 64.1154 17.5138C63.7152 18.2702 63.1816 18.9376 62.4923 19.4716C61.8031 20.0277 60.9804 20.4282 60.0243 20.7174C59.0238 21.0289 57.9788 21.1846 56.8448 21.1846Z" fill="#252F3E"/>
<path fill-rule="evenodd" clip-rule="evenodd" d="M61.0476 31.9966C53.7325 37.4026 43.1044 40.2724 33.9661 40.2724C21.1591 40.2724 9.61946 35.5338 0.903587 27.6584C0.214322 27.0355 0.836884 26.1901 1.65956 26.6796C11.0869 32.1523 22.7155 35.4671 34.7443 35.4671C42.8598 35.4671 51.7758 33.7763 59.9803 30.3058C61.2032 29.7496 62.2482 31.1067 61.0476 31.9966Z" fill="#FF9900"/>
<path fill-rule="evenodd" clip-rule="evenodd" d="M64.0941 28.5261C63.1603 27.3247 57.913 27.9476 55.534 28.2368C54.8225 28.3258 54.7113 27.7029 55.3561 27.2357C59.5361 24.2991 66.4065 25.1445 67.2069 26.1234C68.0074 27.1245 66.9846 33.9988 63.0714 37.2914C62.471 37.803 61.893 37.5361 62.1598 36.8687C63.0491 34.6662 65.028 29.7051 64.0941 28.5261Z" fill="#FF9900"/>
</g>
<defs>
<clipPath id="clip0_22_735">
<rect width="68.2209" height="40" fill="white" transform="translate(0 0.272461)"/>
</clipPath>
</defs>
</svg>
