<svg width="104" height="37" viewBox="0 0 104 37" fill="none" xmlns="http://www.w3.org/2000/svg">
<g clip-path="url(#clip0_39_291)">
<path d="M24.0402 0.274109L11.0665 11.807L0 32.1772H9.97988L24.0402 0.274109ZM25.7656 2.9721L20.2294 18.9697L30.8435 32.6432L10.2495 36.271H44L25.7656 2.9721Z" fill="#0072C6"/>
</g>
<path d="M50.22 27.2725L56.5 13.1725H58.22L64.52 27.2725H62.4L60.92 23.8325H53.78L52.32 27.2725H50.22ZM57.34 15.4725L54.52 22.1525H60.22L57.38 15.4725H57.34ZM65.747 27.2725V25.9525L71.067 19.0725H65.747V17.5125H73.287V18.8525L67.967 25.7325H73.507V27.2725H65.747ZM78.9625 27.4525C76.6025 27.4525 75.4225 26.1391 75.4225 23.5125V17.5125H77.4425V23.5325C77.4425 24.3191 77.6025 24.8991 77.9225 25.2725C78.2425 25.6458 78.7492 25.8325 79.4425 25.8325C80.2025 25.8325 80.8158 25.5791 81.2825 25.0725C81.7625 24.5658 82.0025 23.8858 82.0025 23.0325V17.5125H84.0225V27.2725H82.0625V25.7125C81.7425 26.2858 81.3158 26.7191 80.7825 27.0125C80.2492 27.3058 79.6425 27.4525 78.9625 27.4525ZM86.8692 27.2725V17.5125H88.8292V19.2525C89.3359 18.0925 90.3892 17.4458 91.9892 17.3125L92.6492 17.2725L92.7892 18.9925L91.5692 19.1125C89.7959 19.2858 88.9092 20.1991 88.9092 21.8525V27.2725H86.8692ZM98.7734 27.4525C97.1734 27.4525 95.9134 27.0058 94.9934 26.1125C94.0734 25.2058 93.6134 23.9725 93.6134 22.4125C93.6134 21.4125 93.8134 20.5325 94.2134 19.7725C94.6268 18.9991 95.1934 18.3991 95.9134 17.9725C96.6334 17.5458 97.4601 17.3325 98.3934 17.3325C99.7401 17.3325 100.8 17.7658 101.573 18.6325C102.347 19.4858 102.733 20.6658 102.733 22.1725V22.8525H95.5734C95.7201 24.8791 96.7934 25.8925 98.7934 25.8925C99.3534 25.8925 99.9001 25.8058 100.433 25.6325C100.98 25.4591 101.493 25.1725 101.973 24.7725L102.573 26.1725C102.133 26.5725 101.567 26.8858 100.873 27.1125C100.18 27.3391 99.4801 27.4525 98.7734 27.4525ZM98.4734 18.7525C97.6334 18.7525 96.9668 19.0125 96.4734 19.5325C95.9801 20.0525 95.6801 20.7458 95.5734 21.6125H101.033C100.993 20.7058 100.753 20.0058 100.313 19.5125C99.8734 19.0058 99.2601 18.7525 98.4734 18.7525Z" fill="#0072C6"/>
<defs>
<clipPath id="clip0_39_291">
<rect width="44" height="36" fill="white" transform="translate(0 0.272461)"/>
</clipPath>
</defs>
</svg>
