<svg width="137" height="41" viewBox="0 0 137 41" fill="none" xmlns="http://www.w3.org/2000/svg">
<g clip-path="url(#clip0_22_828)">
<path fill-rule="evenodd" clip-rule="evenodd" d="M21.1043 4.85221L29.2853 9.59479C29.5215 9.34388 29.7926 9.12853 30.0901 8.95541C31.7867 7.97607 33.9509 8.55754 34.9364 10.2611C35.9118 11.9647 35.3327 14.1374 33.6359 15.1269C33.3406 15.2976 33.0224 15.4248 32.691 15.5046V24.9933C33.0188 25.0732 33.3335 25.1995 33.6258 25.3685C35.3327 26.358 35.9118 28.5308 34.9263 30.2344C33.9509 31.9378 31.7766 32.5193 30.0798 31.5401C29.7511 31.3508 29.455 31.1094 29.2029 30.8253L21.0716 35.5387C21.1907 35.9007 21.2512 36.2796 21.2508 36.6608C21.2508 38.6194 19.6659 40.221 17.7049 40.221C15.744 40.221 14.1591 38.6295 14.1591 36.6608C14.1591 36.3109 14.2092 35.9729 14.3026 35.6536L6.12372 30.9124C5.89012 31.1583 5.62289 31.3697 5.33004 31.5401C3.62318 32.5193 1.45903 31.9378 0.483601 30.2344C-0.49169 28.5308 0.0874537 26.358 1.78408 25.3685C2.07636 25.1995 2.3911 25.0731 2.71885 24.9931V15.5046C2.38749 15.4248 2.06928 15.2976 1.77398 15.1269C0.077218 14.1477 -0.501926 11.9647 0.473504 10.2611C1.44893 8.55754 3.62304 7.97607 5.31981 8.95541C5.61569 9.12761 5.8854 9.34158 6.12068 9.59077L14.3041 4.84694C14.2076 4.5182 14.1588 4.17724 14.1591 3.83454C14.1591 1.86598 15.744 0.274475 17.7049 0.274475C19.6659 0.274475 21.2508 1.86584 21.2508 3.83454C21.2508 4.18839 21.1996 4.52988 21.1043 4.85221ZM20.252 6.31346L28.4525 11.0671C28.3219 11.5254 28.2845 12.0054 28.3424 12.4785C28.4003 12.9517 28.5524 13.4083 28.7896 13.8212C29.2888 14.693 30.102 15.271 31.0045 15.4963V24.9967C30.9585 25.008 30.9127 25.0203 30.8672 25.0334L20.1567 6.40858C20.189 6.37748 20.2208 6.34581 20.252 6.31359V6.31346ZM15.2554 6.41067L4.54508 25.0352C4.49877 25.0218 4.45219 25.0093 4.40538 24.9977V15.4963C5.30791 15.271 6.12109 14.693 6.62029 13.8212C6.85798 13.4075 7.0102 12.9499 7.06788 12.4758C7.12556 12.0018 7.0875 11.5209 6.95599 11.0619L15.1542 6.30957C15.1873 6.34387 15.221 6.37762 15.2554 6.41053V6.41067ZM18.6957 7.25433L29.4036 25.8747C29.1583 26.1097 28.9481 26.379 28.7794 26.6742C28.6111 26.9677 28.4852 27.2837 28.4056 27.6127H7.00454C6.92483 27.2837 6.7989 26.9676 6.63052 26.6742C6.46122 26.381 6.25138 26.1134 6.00726 25.8793L16.7172 7.25517C17.0383 7.34799 17.3708 7.39493 17.7049 7.3946C18.0489 7.3946 18.3813 7.34571 18.6957 7.25433ZM20.3272 34.2625L28.4745 29.5396C28.4501 29.4625 28.4283 29.3846 28.4091 29.306H6.99998C6.98863 29.3523 6.97632 29.3981 6.96318 29.4438L15.1503 34.1898C15.4809 33.8447 15.8777 33.5702 16.3167 33.3831C16.7558 33.1959 17.228 33.0999 17.7049 33.1008C18.1986 33.0999 18.6869 33.2028 19.1386 33.4029C19.5902 33.603 19.9951 33.8958 20.3272 34.2625Z" fill="#E535AB"/>
</g>
<path d="M55.08 20.7925V27.4325C54.48 27.7391 53.7267 27.9858 52.82 28.1725C51.9133 28.3458 50.9933 28.4325 50.06 28.4325C48.6333 28.4325 47.4 28.1458 46.36 27.5725C45.32 26.9991 44.5267 26.1725 43.98 25.0925C43.4333 24.0125 43.16 22.7191 43.16 21.2125C43.16 19.7325 43.4333 18.4525 43.98 17.3725C44.5267 16.2791 45.3067 15.4458 46.32 14.8725C47.3467 14.2991 48.5533 14.0125 49.94 14.0125C50.94 14.0125 51.86 14.1591 52.7 14.4525C53.54 14.7458 54.2533 15.1725 54.84 15.7325L54.1 17.2525C53.4333 16.7058 52.7733 16.3125 52.12 16.0725C51.4667 15.8325 50.7467 15.7125 49.96 15.7125C48.44 15.7125 47.2733 16.1858 46.46 17.1325C45.66 18.0658 45.26 19.4258 45.26 21.2125C45.26 23.0391 45.6733 24.4258 46.5 25.3725C47.3267 26.3058 48.5333 26.7725 50.12 26.7725C51.16 26.7725 52.1867 26.6191 53.2 26.3125V22.3525H49.92V20.7925H55.08ZM63.8908 19.9725L62.6708 20.0925C61.7108 20.1858 61.0174 20.4791 60.5908 20.9725C60.1774 21.4658 59.9708 22.0925 59.9708 22.8525V28.2725H57.9508V18.5125H59.9108V20.2125C60.4308 19.0658 61.4908 18.4325 63.0908 18.3125L63.7508 18.2725L63.8908 19.9725ZM69.2964 18.2725C70.6031 18.2725 71.5697 18.5991 72.1964 19.2525C72.8364 19.9058 73.1564 20.8991 73.1564 22.2325V28.2725H71.2164V26.6525C70.9631 27.2258 70.5831 27.6658 70.0764 27.9725C69.5831 28.2658 69.0031 28.4125 68.3364 28.4125C67.6964 28.4125 67.1097 28.2858 66.5764 28.0325C66.0431 27.7658 65.6231 27.3991 65.3164 26.9325C65.0231 26.4658 64.8764 25.9458 64.8764 25.3725C64.8764 24.6658 65.0564 24.1125 65.4164 23.7125C65.7897 23.2991 66.3964 23.0058 67.2364 22.8325C68.0897 22.6591 69.2564 22.5725 70.7364 22.5725H71.1964V21.9925C71.1964 21.2458 71.0364 20.7058 70.7164 20.3725C70.4097 20.0391 69.9031 19.8725 69.1964 19.8725C68.0897 19.8725 66.9831 20.2125 65.8764 20.8925L65.2764 19.4725C65.7964 19.1125 66.4231 18.8258 67.1564 18.6125C67.9031 18.3858 68.6164 18.2725 69.2964 18.2725ZM68.6964 26.9125C69.4297 26.9125 70.0297 26.6658 70.4964 26.1725C70.9631 25.6658 71.1964 25.0191 71.1964 24.2325V23.7125H70.8364C69.7964 23.7125 68.9964 23.7591 68.4364 23.8525C67.8764 23.9458 67.4764 24.1058 67.2364 24.3325C66.9964 24.5458 66.8764 24.8591 66.8764 25.2725C66.8764 25.7391 67.0431 26.1325 67.3764 26.4525C67.7231 26.7591 68.1631 26.9125 68.6964 26.9125ZM81.1595 18.2725C81.9995 18.2725 82.7462 18.4858 83.3995 18.9125C84.0662 19.3391 84.5795 19.9391 84.9395 20.7125C85.3129 21.4858 85.4995 22.3791 85.4995 23.3925C85.4995 24.3925 85.3195 25.2725 84.9595 26.0325C84.5995 26.7925 84.0862 27.3791 83.4195 27.7925C82.7662 28.2058 82.0129 28.4125 81.1595 28.4125C80.4262 28.4125 79.7795 28.2591 79.2195 27.9525C78.6595 27.6325 78.2329 27.1791 77.9395 26.5925V31.8725H75.9195V18.5125H77.9395V20.1125C78.2329 19.5258 78.6595 19.0725 79.2195 18.7525C79.7795 18.4325 80.4262 18.2725 81.1595 18.2725ZM80.6795 26.8125C81.5595 26.8125 82.2395 26.5191 82.7195 25.9325C83.1995 25.3325 83.4395 24.4858 83.4395 23.3925C83.4395 22.2858 83.1929 21.4258 82.6995 20.8125C82.2195 20.1991 81.5462 19.8925 80.6795 19.8925C79.7995 19.8925 79.1195 20.1925 78.6395 20.7925C78.1729 21.3925 77.9395 22.2458 77.9395 23.3525C77.9395 24.4591 78.1729 25.3125 78.6395 25.9125C79.1195 26.5125 79.7995 26.8125 80.6795 26.8125ZM92.9959 18.2725C95.3293 18.2725 96.4959 19.5858 96.4959 22.2125V28.2725H94.4759V22.3125C94.4759 21.4858 94.3093 20.8791 93.9759 20.4925C93.6559 20.1058 93.1493 19.9125 92.4559 19.9125C91.6426 19.9125 90.9893 20.1658 90.4959 20.6725C90.0026 21.1791 89.7559 21.8591 89.7559 22.7125V28.2725H87.7359V14.1725H89.7559V19.9925C90.0893 19.4325 90.5359 19.0058 91.0959 18.7125C91.6559 18.4191 92.2893 18.2725 92.9959 18.2725ZM104.119 28.4325C103.026 28.4325 102.019 28.2858 101.099 27.9925C100.193 27.6991 99.4127 27.2658 98.7594 26.6925L99.4994 25.1725C100.193 25.7325 100.906 26.1391 101.639 26.3925C102.386 26.6325 103.219 26.7525 104.139 26.7525C105.193 26.7525 106.006 26.5591 106.579 26.1725C107.153 25.7725 107.439 25.2125 107.439 24.4925C107.439 23.8791 107.173 23.4258 106.639 23.1325C106.106 22.8258 105.253 22.5391 104.079 22.2725C102.959 22.0325 102.039 21.7591 101.319 21.4525C100.599 21.1458 100.033 20.7325 99.6194 20.2125C99.2194 19.6791 99.0194 19.0058 99.0194 18.1925C99.0194 17.3658 99.2327 16.6391 99.6594 16.0125C100.099 15.3858 100.719 14.8991 101.519 14.5525C102.319 14.1925 103.246 14.0125 104.299 14.0125C105.286 14.0125 106.213 14.1658 107.079 14.4725C107.959 14.7658 108.679 15.1925 109.239 15.7525L108.519 17.2725C107.866 16.7391 107.193 16.3458 106.499 16.0925C105.819 15.8258 105.093 15.6925 104.319 15.6925C103.306 15.6925 102.506 15.9058 101.919 16.3325C101.346 16.7458 101.059 17.3258 101.059 18.0725C101.059 18.7125 101.313 19.1991 101.819 19.5325C102.326 19.8525 103.139 20.1458 104.259 20.4125C105.433 20.6791 106.379 20.9591 107.099 21.2525C107.833 21.5325 108.413 21.9258 108.839 22.4325C109.279 22.9258 109.499 23.5725 109.499 24.3725C109.499 25.1858 109.279 25.8991 108.839 26.5125C108.413 27.1258 107.793 27.5991 106.979 27.9325C106.179 28.2658 105.226 28.4325 104.119 28.4325ZM120.838 27.9125C121.132 28.0058 121.392 28.1591 121.618 28.3725C121.858 28.5991 122.098 28.8991 122.338 29.2725L123.718 31.5125L121.978 32.3725L120.198 29.4725C119.772 28.7791 119.072 28.4325 118.098 28.4325C116.765 28.4325 115.605 28.1391 114.618 27.5525C113.645 26.9658 112.892 26.1325 112.358 25.0525C111.825 23.9725 111.558 22.6991 111.558 21.2325C111.558 19.7525 111.818 18.4725 112.338 17.3925C112.872 16.2991 113.632 15.4658 114.618 14.8925C115.605 14.3058 116.765 14.0125 118.098 14.0125C119.445 14.0125 120.612 14.3058 121.598 14.8925C122.585 15.4658 123.338 16.2991 123.858 17.3925C124.392 18.4725 124.658 19.7458 124.658 21.2125C124.658 22.8525 124.325 24.2591 123.658 25.4325C122.992 26.5925 122.052 27.4191 120.838 27.9125ZM113.658 21.2125C113.658 22.9858 114.045 24.3525 114.818 25.3125C115.605 26.2725 116.698 26.7525 118.098 26.7525C119.512 26.7525 120.612 26.2725 121.398 25.3125C122.185 24.3525 122.578 22.9858 122.578 21.2125C122.578 19.4391 122.185 18.0791 121.398 17.1325C120.625 16.1725 119.525 15.6925 118.098 15.6925C116.698 15.6925 115.605 16.1725 114.818 17.1325C114.045 18.0791 113.658 19.4391 113.658 21.2125ZM127.468 14.1725H129.528V26.5525H136.368V28.2725H127.468V14.1725Z" fill="#363636"/>
<defs>
<clipPath id="clip0_22_828">
<rect width="35.4098" height="40" fill="white" transform="translate(0 0.272461)"/>
</clipPath>
</defs>
</svg>
