<svg width="146" height="33" viewBox="0 0 146 33" fill="none" xmlns="http://www.w3.org/2000/svg">
<path d="M62.9458 12.612C63.0397 12.7064 63.1131 12.8179 63.1616 12.94C63.2101 13.0621 63.2328 13.1923 63.2283 13.323V26.9907C63.2322 27.1356 63.2063 27.2798 63.1521 27.415C63.0979 27.5502 63.0165 27.6738 62.9126 27.7785C62.8088 27.8834 62.6833 27.9662 62.5442 28.0214C62.4051 28.0765 62.2555 28.1029 62.1052 28.0988C61.9348 28.099 61.7654 28.0731 61.6035 28.0219C61.4551 27.9779 61.3219 27.896 61.2179 27.7849L52.0308 16.2564V27.1092C52.0388 27.3639 51.9415 27.6112 51.7604 27.7968C51.5792 27.9824 51.329 28.091 51.0647 28.0988C51.0445 28.0994 51.0243 28.0994 51.004 28.0988C50.8695 28.1037 50.7354 28.0812 50.6105 28.0326C50.4857 27.984 50.3729 27.9105 50.2797 27.817C50.1868 27.7227 50.1142 27.6116 50.0663 27.4901C50.0184 27.3686 49.9961 27.2391 50.0006 27.1092V13.4126C49.9972 13.2683 50.0249 13.1249 50.0821 12.9915C50.1393 12.8581 50.2247 12.7376 50.3328 12.6377C50.434 12.5376 50.5557 12.4589 50.6901 12.4066C50.8245 12.3542 50.9688 12.3293 51.1137 12.3334C51.2981 12.3326 51.4809 12.3663 51.6519 12.4327C51.8076 12.4908 51.9442 12.5881 52.0474 12.7145L61.1948 24.2687V13.323C61.1908 13.1969 61.2126 13.0713 61.259 12.9533C61.3054 12.8353 61.3754 12.7273 61.4651 12.6354C61.5549 12.5435 61.6625 12.4695 61.7818 12.4177C61.9012 12.3659 62.03 12.3373 62.1609 12.3334C62.1811 12.3329 62.2014 12.3329 62.2216 12.3334C62.3558 12.3287 62.4896 12.351 62.6143 12.399C62.7391 12.447 62.852 12.5195 62.946 12.612H62.9458ZM81.8188 12.612C82.0175 12.8249 82.1224 13.1041 82.1112 13.3902V22.0367C82.1302 23.1543 81.8486 24.2575 81.2938 25.239C80.7684 26.1651 79.9876 26.9331 79.0377 27.4583C78.0534 28.0026 76.936 28.2834 75.8012 28.2717C74.6563 28.2891 73.5271 28.014 72.5284 27.4743C71.5742 26.9513 70.7896 26.183 70.2623 25.2551C69.7075 24.2735 69.4259 23.1702 69.4449 22.0526V13.4062C69.4406 13.2613 69.468 13.1172 69.5252 12.9831C69.5825 12.8491 69.6683 12.7281 69.7772 12.6281C69.8882 12.5235 70.0197 12.4412 70.1641 12.3863C70.3084 12.3313 70.4627 12.3046 70.6179 12.3079C70.7642 12.308 70.9089 12.3364 71.0435 12.3914C71.1781 12.4464 71.3 12.5269 71.4017 12.6281C71.5094 12.7263 71.5946 12.8451 71.6519 12.9769C71.7091 13.1087 71.7371 13.2506 71.7341 13.3934V22.0399C71.722 22.778 71.916 23.5058 72.2956 24.147C72.6472 24.7445 73.1569 25.2415 73.7726 25.5875C74.3884 25.9334 75.0883 26.1159 75.801 26.1165C76.5295 26.1215 77.2466 25.9426 77.8811 25.5977C78.5212 25.2568 79.0538 24.7556 79.4228 24.147C79.8085 23.5078 80.0061 22.7792 79.9943 22.0399V13.3934C79.9835 13.1096 80.083 12.8321 80.2734 12.6153C80.3704 12.5107 80.4899 12.4278 80.6237 12.3725C80.7574 12.3171 80.9021 12.2907 81.0476 12.2951C81.1921 12.2918 81.3356 12.3184 81.4686 12.3731C81.6016 12.4277 81.7208 12.5091 81.8185 12.6119L81.8188 12.612ZM99.8046 26.4782C99.9447 26.6641 100.018 26.8889 100.014 27.1187C100.02 27.2619 99.9934 27.4047 99.936 27.5369C99.8786 27.6691 99.7917 27.7876 99.6816 27.884C99.476 28.0714 99.2037 28.1757 98.9207 28.1754C98.7419 28.1819 98.5643 28.1441 98.405 28.0656C98.2456 27.9872 98.1098 27.8706 98.0105 27.7271L93.4684 21.8828L89.0292 27.7175C88.9308 27.8634 88.7959 27.9831 88.6367 28.0654C88.4776 28.1477 88.2995 28.1899 88.119 28.1882C87.9862 28.191 87.8543 28.1675 87.7314 28.119C87.6085 28.0705 87.4973 27.9982 87.4047 27.9064C87.3128 27.8248 87.2394 27.7258 87.1891 27.6156C87.1388 27.5054 87.1126 27.3864 87.1123 27.266C87.1174 26.9948 87.2169 26.7332 87.3947 26.523L92.1862 20.2368L87.3717 13.9985C87.2213 13.8163 87.1383 13.5909 87.1357 13.3581C87.1327 13.2152 87.1607 13.0733 87.2179 12.9415C87.2751 12.8097 87.3603 12.6909 87.468 12.5927C87.5698 12.4915 87.6916 12.411 87.8263 12.356C87.9609 12.301 88.1056 12.2726 88.2518 12.2725C88.426 12.2733 88.5977 12.3127 88.7535 12.3877C88.9182 12.463 89.0593 12.579 89.1623 12.724L93.6512 18.536L98.097 12.7814C98.1938 12.637 98.3246 12.5168 98.4788 12.4305C98.633 12.3443 98.8062 12.2944 98.9842 12.285C99.1236 12.2857 99.2612 12.3146 99.3883 12.3698C99.5153 12.4249 99.6289 12.5051 99.7218 12.6052C99.8228 12.6922 99.9044 12.7981 99.9615 12.9165C100.019 13.0348 100.05 13.1632 100.054 13.2937C100.046 13.525 99.9651 13.7485 99.8215 13.9341L94.9434 20.1921L99.8046 26.4782ZM116.667 12.612C116.776 12.7075 116.862 12.8245 116.919 12.9549C116.977 13.0854 117.004 13.2262 117 13.3679C117.004 13.5075 116.976 13.6464 116.919 13.7747C116.861 13.903 116.775 14.0177 116.667 14.1108C116.442 14.2943 116.154 14.3902 115.86 14.3798H111.7V27.0198C111.703 27.1626 111.675 27.3044 111.617 27.4362C111.56 27.5679 111.475 27.6868 111.368 27.7851C111.133 27.9872 110.829 28.0989 110.514 28.0989C110.199 28.0989 109.895 27.9872 109.66 27.7851C109.553 27.6864 109.468 27.5675 109.411 27.4358C109.354 27.3041 109.325 27.1625 109.327 27.0198V14.3798H105.177C104.882 14.3906 104.594 14.2907 104.373 14.1012C104.268 14.0043 104.185 13.8868 104.13 13.7565C104.076 13.6261 104.051 13.4861 104.058 13.3457C104.053 13.2089 104.079 13.0726 104.133 12.9461C104.188 12.8197 104.27 12.7058 104.373 12.6124C104.594 12.4228 104.882 12.323 105.177 12.3337H115.86C116.156 12.3234 116.445 12.423 116.667 12.612Z" fill="#30495E"/>
<path d="M121.049 27.646C120.288 27.239 119.655 26.6488 119.214 25.9356C119.083 25.7592 119.009 25.551 119 25.3359C119 25.1984 119.032 25.0625 119.093 24.9377C119.154 24.8129 119.243 24.7021 119.354 24.6132C119.546 24.4241 119.807 24.3112 120.083 24.2976C120.291 24.3159 120.492 24.3748 120.675 24.4704C120.857 24.566 121.017 24.6963 121.143 24.853C121.4 25.252 121.762 25.5806 122.195 25.8065C122.628 26.0323 123.116 26.1475 123.61 26.1407C124.014 26.1496 124.416 26.0815 124.792 25.9406C125.167 25.7996 125.509 25.5886 125.797 25.3202C126.086 25.0608 126.316 24.7472 126.47 24.3994C126.624 24.0517 126.7 23.6773 126.692 23.3004V13.5704C126.691 13.4283 126.721 13.2876 126.782 13.1575C126.842 13.0274 126.931 12.911 127.043 12.8162C127.263 12.6125 127.558 12.499 127.866 12.5006C128.02 12.4935 128.173 12.5165 128.317 12.5681C128.461 12.6197 128.592 12.6988 128.702 12.8004C128.807 12.9007 128.889 13.0201 128.944 13.1514C128.998 13.2827 129.024 13.4231 129.019 13.5641V23.316C129.028 24.1901 128.784 25.0499 128.314 25.8029C127.848 26.5533 127.179 27.1731 126.375 27.5986C125.532 28.049 124.578 28.2799 123.61 28.2677C122.713 28.2766 121.83 28.0622 121.049 27.646ZM137.216 27.8101C136.285 27.4762 135.43 26.9757 134.699 26.3362C134.55 26.2284 134.429 26.0906 134.344 25.9327C134.259 25.7749 134.212 25.6011 134.208 25.4241C134.209 25.2892 134.24 25.1559 134.297 25.0323C134.355 24.9087 134.438 24.7973 134.542 24.7046C134.641 24.604 134.761 24.524 134.895 24.4697C135.028 24.4153 135.172 24.3878 135.318 24.389C135.565 24.3858 135.805 24.4729 135.986 24.632C136.551 25.141 137.208 25.5503 137.925 25.8408C138.647 26.1117 139.419 26.2447 140.195 26.2321C141.08 26.2585 141.952 26.0331 142.699 25.5851C143.005 25.4231 143.26 25.1884 143.439 24.9043C143.619 24.6203 143.716 24.2968 143.722 23.9661C143.728 23.6106 143.637 23.2597 143.458 22.9469C143.279 22.6341 143.017 22.37 142.699 22.1798C141.76 21.6593 140.73 21.3023 139.657 21.1258C138.296 20.92 137.013 20.3923 135.926 19.592C135.488 19.224 135.144 18.7677 134.918 18.2569C134.692 17.7461 134.591 17.1938 134.622 16.6411C134.604 15.8163 134.861 15.0069 135.358 14.3279C135.863 13.6539 136.558 13.1269 137.364 12.8067C138.286 12.4396 139.279 12.2579 140.279 12.2734C141.217 12.2677 142.148 12.4184 143.03 12.7183C143.808 12.9661 144.522 13.3674 145.123 13.8955C145.281 14.0059 145.412 14.148 145.506 14.3117C145.599 14.4754 145.654 14.6566 145.664 14.8423C145.664 14.9747 145.636 15.1057 145.582 15.2277C145.527 15.3496 145.447 15.46 145.347 15.5524C145.251 15.6538 145.133 15.7345 145 15.789C144.868 15.8435 144.725 15.8704 144.581 15.868C144.384 15.875 144.191 15.8106 144.043 15.6878C143.555 15.256 142.978 14.924 142.348 14.7127C141.695 14.4642 140.999 14.3336 140.295 14.3276C139.414 14.2849 138.54 14.4987 137.791 14.94C137.505 15.1191 137.27 15.3622 137.108 15.6477C136.946 15.9332 136.861 16.2523 136.861 16.5764C136.861 16.9005 136.946 17.2195 137.108 17.5051C137.27 17.7906 137.505 18.0337 137.791 18.2128C138.648 18.6843 139.583 19.0152 140.556 19.1914C141.59 19.3835 142.599 19.6809 143.565 20.0783C144.294 20.3826 144.917 20.8748 145.364 21.4984C145.816 22.2153 146.035 23.0414 145.995 23.8748C146.008 24.6941 145.741 25.4954 145.233 26.1597C144.699 26.8448 143.979 27.3821 143.15 27.7156C142.239 28.0921 141.253 28.2814 140.259 28.2711C139.224 28.2891 138.193 28.133 137.216 27.8101Z" fill="#00C58E"/>
<path d="M13.0905 31.1773C13.0585 31.1207 13.03 31.0623 13.0052 31.0023C12.8331 30.6042 12.7801 30.1647 12.8526 29.737H2.67226L17.8016 3.11257L22.7685 11.8438L24.2087 9.29538L19.879 1.6678C19.6715 1.2771 19.3693 0.944672 19.0001 0.700912C18.631 0.457151 18.2066 0.309843 17.7657 0.272461C17.326 0.292596 16.9006 0.435727 16.5382 0.685579C16.1757 0.935431 15.8906 1.28198 15.7153 1.68582L0.388515 28.6333C0.159377 29.0138 0.0272601 29.4448 0.00378773 29.8883C-0.0196846 30.3319 0.0662067 30.7744 0.253905 31.1769C0.48967 31.5486 0.824727 31.8469 1.22118 32.038C1.61763 32.2292 2.05966 32.3056 2.49728 32.2586H15.3339C14.8962 32.3063 14.454 32.2303 14.0574 32.0391C13.6608 31.848 13.3258 31.5494 13.0905 31.1773Z" fill="#00C58E"/>
<path d="M42.6047 28.6335L30.0104 6.44647C29.8038 6.05161 29.5011 5.71514 29.1302 5.46814C28.7593 5.22114 28.3321 5.07155 27.8882 5.0332C27.4487 5.05215 27.0234 5.19429 26.6608 5.44341C26.2982 5.69252 26.013 6.03857 25.8377 6.44203L24.209 9.29563L25.6582 11.8441L27.9012 7.87331L40.3613 29.7373H35.6233C35.6839 30.0987 35.6499 30.4697 35.5246 30.8141C35.4982 30.8901 35.4652 30.9637 35.4259 31.034L35.3855 31.1147C35.128 31.4782 34.785 31.7728 34.3867 31.9723C33.9884 32.1718 33.5471 32.2701 33.1017 32.2585H40.5139C40.9592 32.2705 41.4007 32.1724 41.7991 31.9728C42.1975 31.7733 42.5405 31.4786 42.7976 31.1147C43.0006 30.7244 43.0901 30.2851 43.056 29.8465C43.0219 29.408 42.8656 28.9877 42.6047 28.6335Z" fill="#108775"/>
<path d="M35.385 31.114L35.4254 31.0333C35.4647 30.963 35.4978 30.8894 35.5242 30.8134C35.6495 30.469 35.6835 30.098 35.6228 29.7366C35.553 29.3468 35.4132 28.9728 35.21 28.6328L25.667 11.8434L24.2089 9.29492L22.7597 11.8434L13.2208 28.6332C13.0356 28.9773 12.9112 29.3507 12.8529 29.737C12.7761 30.1634 12.8245 30.6028 12.992 31.0023C13.0168 31.0623 13.0453 31.1207 13.0774 31.1773C13.3132 31.5488 13.6483 31.847 14.0447 32.0381C14.4412 32.2292 14.8832 32.3056 15.3208 32.2586H33.0879C33.5354 32.2717 33.9793 32.1741 34.38 31.9744C34.7808 31.7748 35.126 31.4792 35.385 31.114ZM24.2085 14.3918L32.9308 29.7366H15.4908L24.2085 14.3918Z" fill="#30495E"/>
</svg>
