<svg width="160" height="49" viewBox="0 0 160 49" fill="none" xmlns="http://www.w3.org/2000/svg">
<path d="M58.08 30.2725V17.9125H53.08V16.1725H65.14V17.9125H60.14V30.2725H58.08ZM69.6836 30.4525C68.0836 30.4525 66.8236 30.0058 65.9036 29.1125C64.9836 28.2058 64.5236 26.9725 64.5236 25.4125C64.5236 24.4125 64.7236 23.5325 65.1236 22.7725C65.5369 21.9991 66.1036 21.3991 66.8236 20.9725C67.5436 20.5458 68.3703 20.3325 69.3036 20.3325C70.6503 20.3325 71.7103 20.7658 72.4836 21.6325C73.2569 22.4858 73.6436 23.6658 73.6436 25.1725V25.8525H66.4836C66.6303 27.8791 67.7036 28.8925 69.7036 28.8925C70.2636 28.8925 70.8103 28.8058 71.3436 28.6325C71.8903 28.4591 72.4036 28.1725 72.8836 27.7725L73.4836 29.1725C73.0436 29.5725 72.4769 29.8858 71.7836 30.1125C71.0903 30.3391 70.3903 30.4525 69.6836 30.4525ZM69.3836 21.7525C68.5436 21.7525 67.8769 22.0125 67.3836 22.5325C66.8903 23.0525 66.5903 23.7458 66.4836 24.6125H71.9436C71.9036 23.7058 71.6636 23.0058 71.2236 22.5125C70.7836 22.0058 70.1703 21.7525 69.3836 21.7525ZM75.8458 30.2725V20.5125H77.8058V22.1325C78.1391 21.5458 78.5924 21.0991 79.1658 20.7925C79.7524 20.4858 80.4058 20.3325 81.1258 20.3325C83.4324 20.3325 84.5858 21.6391 84.5858 24.2525V30.2725H82.5658V24.3725C82.5658 23.5325 82.3991 22.9191 82.0658 22.5325C81.7458 22.1458 81.2391 21.9525 80.5458 21.9525C79.7324 21.9525 79.0791 22.2125 78.5858 22.7325C78.1058 23.2391 77.8658 23.9125 77.8658 24.7525V30.2725H75.8458ZM90.7892 30.4525C89.9892 30.4525 89.2426 30.3525 88.5492 30.1525C87.8559 29.9391 87.2759 29.6458 86.8092 29.2725L87.3892 27.9125C87.8826 28.2591 88.4226 28.5258 89.0092 28.7125C89.6092 28.8991 90.2092 28.9925 90.8092 28.9925C91.5159 28.9925 92.0492 28.8658 92.4092 28.6125C92.7692 28.3591 92.9492 28.0191 92.9492 27.5925C92.9492 27.2458 92.8292 26.9791 92.5892 26.7925C92.3492 26.5925 91.9892 26.4391 91.5092 26.3325L89.6092 25.9525C87.9292 25.6058 87.0892 24.7391 87.0892 23.3525C87.0892 22.4325 87.4559 21.6991 88.1892 21.1525C88.9226 20.6058 89.8826 20.3325 91.0692 20.3325C91.7492 20.3325 92.3959 20.4325 93.0092 20.6325C93.6359 20.8325 94.1559 21.1325 94.5692 21.5325L93.9892 22.8925C93.5892 22.5458 93.1292 22.2791 92.6092 22.0925C92.0892 21.9058 91.5759 21.8125 91.0692 21.8125C90.3759 21.8125 89.8492 21.9458 89.4892 22.2125C89.1292 22.4658 88.9492 22.8125 88.9492 23.2525C88.9492 23.9191 89.3892 24.3458 90.2692 24.5325L92.1692 24.9125C93.0359 25.0858 93.6892 25.3791 94.1292 25.7925C94.5826 26.2058 94.8092 26.7658 94.8092 27.4725C94.8092 28.4058 94.4426 29.1391 93.7092 29.6725C92.9759 30.1925 92.0026 30.4525 90.7892 30.4525ZM101.297 30.4525C100.31 30.4525 99.4567 30.2458 98.7367 29.8325C98.0167 29.4191 97.4567 28.8391 97.0567 28.0925C96.6701 27.3325 96.4767 26.4325 96.4767 25.3925C96.4767 24.3525 96.6701 23.4591 97.0567 22.7125C97.4567 21.9525 98.0167 21.3658 98.7367 20.9525C99.4567 20.5391 100.31 20.3325 101.297 20.3325C102.257 20.3325 103.097 20.5391 103.817 20.9525C104.537 21.3658 105.097 21.9525 105.497 22.7125C105.897 23.4591 106.097 24.3525 106.097 25.3925C106.097 26.4325 105.897 27.3325 105.497 28.0925C105.097 28.8391 104.537 29.4191 103.817 29.8325C103.097 30.2458 102.257 30.4525 101.297 30.4525ZM101.297 28.8925C102.123 28.8925 102.79 28.5925 103.297 27.9925C103.803 27.3925 104.057 26.5258 104.057 25.3925C104.057 24.2591 103.803 23.3991 103.297 22.8125C102.79 22.2125 102.123 21.9125 101.297 21.9125C100.457 21.9125 99.7834 22.2125 99.2767 22.8125C98.7701 23.3991 98.5167 24.2591 98.5167 25.3925C98.5167 26.5258 98.7701 27.3925 99.2767 27.9925C99.7834 28.5925 100.457 28.8925 101.297 28.8925ZM108.365 30.2725V20.5125H110.325V22.2525C110.832 21.0925 111.885 20.4458 113.485 20.3125L114.145 20.2725L114.285 21.9925L113.065 22.1125C111.292 22.2858 110.405 23.1991 110.405 24.8525V30.2725H108.365ZM116.046 30.2725V16.1725H125.006V17.8525H118.126V22.3525H124.586V24.0325H118.126V30.2725H116.046ZM130.08 30.4525C129.014 30.4525 128.214 30.1525 127.68 29.5525C127.16 28.9525 126.9 28.0725 126.9 26.9125V16.1725H128.92V26.7925C128.92 28.1125 129.46 28.7725 130.54 28.7725C130.7 28.7725 130.847 28.7658 130.98 28.7525C131.127 28.7391 131.274 28.7125 131.42 28.6725L131.38 30.2925C130.927 30.3991 130.494 30.4525 130.08 30.4525ZM137.156 30.4525C136.169 30.4525 135.316 30.2458 134.596 29.8325C133.876 29.4191 133.316 28.8391 132.916 28.0925C132.529 27.3325 132.336 26.4325 132.336 25.3925C132.336 24.3525 132.529 23.4591 132.916 22.7125C133.316 21.9525 133.876 21.3658 134.596 20.9525C135.316 20.5391 136.169 20.3325 137.156 20.3325C138.116 20.3325 138.956 20.5391 139.676 20.9525C140.396 21.3658 140.956 21.9525 141.356 22.7125C141.756 23.4591 141.956 24.3525 141.956 25.3925C141.956 26.4325 141.756 27.3325 141.356 28.0925C140.956 28.8391 140.396 29.4191 139.676 29.8325C138.956 30.2458 138.116 30.4525 137.156 30.4525ZM137.156 28.8925C137.983 28.8925 138.649 28.5925 139.156 27.9925C139.663 27.3925 139.916 26.5258 139.916 25.3925C139.916 24.2591 139.663 23.3991 139.156 22.8125C138.649 22.2125 137.983 21.9125 137.156 21.9125C136.316 21.9125 135.643 22.2125 135.136 22.8125C134.629 23.3991 134.376 24.2591 134.376 25.3925C134.376 26.5258 134.629 27.3925 135.136 27.9925C135.643 28.5925 136.316 28.8925 137.156 28.8925ZM146.689 30.2725L142.969 20.5125H145.049L147.669 27.9125L150.369 20.5125H151.929L154.589 27.9525L157.249 20.5125H159.229L155.509 30.2725H153.669L151.089 23.2925L148.529 30.2725H146.689Z" fill="#F8BF3C"/>
<g clip-path="url(#clip0_39_457)">
<path d="M25.1431 7.63V14.9876L37.7156 22.3451V14.9876L25.1431 7.63ZM0 14.9876V22.3451L6.28625 26.0239V18.6664L0 14.9876ZM18.8569 18.6664L12.5706 22.3451V44.4179L18.8569 48.0986V33.3834L25.1431 37.0622V29.7046L18.8569 26.0258V18.6664Z" fill="#E55B2D"/>
<path d="M25.143 7.63L6.28613 18.6664V26.0239L18.8586 18.6664V26.0239L25.1449 22.3451V7.63H25.143ZM43.9999 11.3088L37.7136 14.9876V22.3451L43.9999 18.6664V11.3088ZM31.4293 26.0258L25.143 29.7046V37.0622L31.4293 33.3834V26.0258ZM25.143 37.0622L18.8568 33.3834V48.0986L25.143 44.4198V37.0622Z" fill="#ED8E24"/>
<path d="M25.1431 0.272461L0 14.9876L6.28625 18.6664L25.1431 7.63003L37.7156 14.9876L44.0019 11.3088L25.1431 0.272461ZM25.1431 22.3452L18.8569 26.0239L25.1431 29.7027L31.4294 26.0239L25.1431 22.3452Z" fill="#F8BF3C"/>
</g>
<defs>
<clipPath id="clip0_39_457">
<rect width="44" height="47.8261" fill="white" transform="translate(0 0.272461)"/>
</clipPath>
</defs>
</svg>
