<svg width="142" height="54" viewBox="0 0 142 54" fill="none" xmlns="http://www.w3.org/2000/svg">
<path d="M54.7398 21.7387H50.168V18.9912H62.4108V21.7387H57.839V35.4887H54.741L54.7398 21.7387ZM65.2319 33.2437C66.4735 33.2375 67.7078 33.0462 68.8948 32.675L69.3666 34.95C67.9573 35.4699 66.4684 35.7373 64.9674 35.74C61.2027 35.74 59.9014 33.99 59.9014 31.09V27.9325C59.9014 25.3825 61.0189 23.1825 64.8656 23.1825C68.7123 23.1825 69.5839 25.4325 69.5839 28.03V30.605H62.9162V31.2212C62.9162 32.6662 63.4128 33.2212 65.2455 33.2212L65.2319 33.2437ZM62.8789 28.1687H66.6908V27.5762C66.6908 26.4512 66.3456 25.6512 64.8718 25.6512C63.3979 25.6512 62.8802 26.4412 62.8802 27.5762L62.8789 28.1687Z" fill="#363636"/>
<path d="M77.5773 25.936C76.4884 26.441 75.4392 27.0298 74.4409 27.6985V35.4673H71.4062V23.411H73.9393L74.1354 24.7448C75.1078 24.0826 76.1623 23.5518 77.2719 23.166L77.5773 25.936Z" fill="#363636"/>
<path d="M84.9025 25.936C83.8136 26.441 82.7644 27.0298 81.7661 27.6985V35.4673H78.7314V23.411H81.2644L81.4606 24.7448C82.433 24.0826 83.4875 23.5518 84.5971 23.166L84.9025 25.936Z" fill="#363636"/>
<path d="M94.9268 35.4572H92.472L92.2522 34.6672C91.1919 35.3602 89.9554 35.7304 88.6911 35.7334C86.5033 35.7334 85.5547 34.2259 85.5547 32.1484C85.5547 29.7009 86.6138 28.7734 89.0314 28.7734H91.9095V27.5234C91.9095 26.1897 91.5408 25.7159 89.6274 25.7159C88.5119 25.728 87.4005 25.8523 86.3096 26.0872L85.9408 23.7897C87.2768 23.4177 88.656 23.2265 90.0421 23.2209C93.8068 23.2209 94.9119 24.5547 94.9119 27.5797L94.9268 35.4572ZM91.9306 30.9022H89.7205C88.7272 30.9022 88.4788 31.1709 88.4788 32.0859C88.4788 33.0009 88.7458 33.3022 89.687 33.3022C90.4794 33.2915 91.2562 33.0795 91.9456 32.6859L91.9306 30.9022ZM104.149 20.6522C103.584 20.5303 103.009 20.4641 102.431 20.4547C101.256 20.4547 101.083 20.9759 101.083 21.8922V23.3997H104.125L103.951 25.7684H101.073V35.4159H98.0769V25.8134H96.156V23.4447H98.0682V21.7322C98.0682 19.2297 99.2205 17.9972 101.88 17.9972C102.752 17.9932 103.62 18.1102 104.46 18.3447L104.149 20.6522ZM109.999 35.6972C105.898 35.6972 104.792 33.4222 104.792 30.9472V27.9259C104.792 25.4547 105.909 23.1759 109.999 23.1759C114.089 23.1759 115.214 25.4509 115.214 27.9259V30.9734C115.207 33.4284 114.101 35.7234 109.999 35.7234V35.6972ZM109.999 25.7259C108.431 25.7259 107.789 26.4447 107.789 27.8009V31.0459C107.789 32.4034 108.401 33.1209 109.999 33.1209C111.597 33.1209 112.21 32.4022 112.21 31.0459V27.8134C112.21 26.4472 111.589 25.7297 109.999 25.7297V25.7259ZM122.913 25.9234C121.823 26.4282 120.775 27.0175 119.776 27.6859V35.4547H116.747V23.3984H119.28L119.476 24.7322C120.448 24.07 121.503 23.5392 122.612 23.1534L122.913 25.9234ZM131.157 35.4572V27.0484C131.157 26.4084 130.89 26.0859 130.201 26.0859C129.099 26.2109 128.031 26.5559 127.065 27.1047V35.4797H124.085V23.4234H126.367L126.665 24.4422C128.158 23.6895 129.79 23.2594 131.458 23.1797C131.92 23.1364 132.384 23.2366 132.788 23.4668C133.192 23.697 133.516 24.0461 133.716 24.4672C135.211 23.6972 136.854 23.2584 138.532 23.1797C140.523 23.1797 141.238 24.5922 141.238 26.7422V35.4747H138.242V27.0659C138.242 26.4259 137.975 26.1034 137.286 26.1034C136.181 26.2183 135.113 26.5653 134.15 27.1222V35.4972L131.157 35.4572Z" fill="#363636"/>
<path fill-rule="evenodd" clip-rule="evenodd" d="M30.464 36.7811V36.6712L16.0234 28.2757V45.0598L30.464 53.4552V36.7811ZM30.464 18.039V34.8299L16.0234 26.4345V9.64355L30.464 18.039Z" fill="#363636"/>
<path fill-rule="evenodd" clip-rule="evenodd" d="M32.0479 34.8299L46.4952 26.4345V9.64355L32.0479 18.039V34.8299Z" fill="#363636"/>
<path fill-rule="evenodd" clip-rule="evenodd" d="M0 17.0634L14.4406 25.4588V8.66792L0 0.272461V17.0634Z" fill="#363636"/>
</svg>
