<svg width="18" height="16" viewBox="0 0 18 16" fill="none" xmlns="http://www.w3.org/2000/svg">
<path d="M0.52002 1.85859C0.52002 1.31985 0.707412 0.87541 1.08218 0.525253C1.45695 0.175079 1.94417 0 2.5438 0C3.13274 0 3.60923 0.17238 3.9733 0.517172C4.34807 0.872727 4.53546 1.33602 4.53546 1.90707C4.53546 2.42424 4.35344 2.85521 3.98936 3.2C3.61459 3.55556 3.12203 3.73333 2.51168 3.73333H2.49562C1.90668 3.73333 1.43019 3.55556 1.06612 3.2C0.702048 2.84444 0.52002 2.3973 0.52002 1.85859ZM0.728823 16V5.20404H4.29454V16H0.728823ZM6.27013 16H9.83585V9.97172C9.83585 9.5946 9.87869 9.30369 9.96434 9.09899C10.1142 8.73265 10.3418 8.42288 10.647 8.1697C10.9521 7.91649 11.3349 7.7899 11.7954 7.7899C12.9947 7.7899 13.5943 8.60336 13.5943 10.2303V16H17.16V9.8101C17.16 8.21548 16.7852 7.00606 16.0357 6.18182C15.2861 5.35758 14.2957 4.94545 13.0643 4.94545C11.683 4.94545 10.6068 5.54343 9.83585 6.73939V6.77172H9.81979L9.83585 6.73939V5.20404H6.27013C6.29155 5.54882 6.30226 6.62086 6.30226 8.4202C6.30226 10.2195 6.29155 12.7461 6.27013 16Z" fill="black"/>
</svg>
