<svg width="26" height="31" viewBox="0 0 26 31" fill="none" xmlns="http://www.w3.org/2000/svg">
<path d="M25.8045 7.254C25.4289 6.696 24.6775 6.51 24.0514 6.882L12.6556 14.26C10.0885 14.074 8.14742 12.09 8.14742 9.486C8.14742 6.82 10.2763 4.712 12.9687 4.712C14.9097 4.712 16.6003 5.828 17.4143 7.626C17.6021 8.122 18.103 8.37 18.5413 8.37C18.7292 8.37 18.8544 8.308 19.0422 8.246C19.6684 7.998 19.9815 7.254 19.6684 6.634C18.7292 4.34 16.6003 2.79 14.221 2.356V1.24C14.221 0.558 13.6574 0 12.9687 0C12.2799 0 11.7164 0.558 11.7164 1.24V2.356C8.27265 2.976 5.64286 5.89 5.64286 9.486C5.64286 12.4 7.39605 14.88 9.838 16.058L0.571136 22.01C0.00761102 22.382 -0.180231 23.126 0.195453 23.746C0.445909 24.118 0.821592 24.304 1.25989 24.304C1.51035 24.304 1.7608 24.242 1.94864 24.118L13.3444 16.74C15.8489 16.926 17.79 18.972 17.79 21.514C17.79 24.18 15.6611 26.288 12.9687 26.288C11.0277 26.288 9.33708 25.172 8.5231 23.374C8.27265 22.754 7.52128 22.444 6.89514 22.754C6.269 23.002 5.95593 23.746 6.20639 24.366C7.20821 26.66 9.27447 28.272 11.6538 28.644V29.76C11.6538 30.442 12.2173 31 12.9061 31C13.5948 31 14.1584 30.442 14.1584 29.76V28.644C17.6021 28.024 20.2319 25.11 20.2319 21.514C20.2945 18.6 18.6039 16.12 16.0994 14.942L25.4289 8.928C25.9924 8.618 26.1802 7.812 25.8045 7.254Z" fill="white"/>
</svg>
