<svg width="20" height="16" viewBox="0 0 20 16" fill="none" xmlns="http://www.w3.org/2000/svg">
<path d="M19.8377 2.35405H19.0532C18.762 2.35405 18.3501 2.78148 18.3501 3.05505V12.9724C18.3501 13.2463 18.762 13.6197 19.0532 13.6197H19.8377V15.9738H12.7299V13.6197H14.2176V3.19472H14.1447L10.6707 15.9738H7.98105L4.55179 3.19472H4.465V13.6197H5.95269V15.9738H0.00195312V13.6197H0.764004C1.07773 13.6197 1.48964 13.2463 1.48964 12.9724V3.05498C1.48964 2.7814 1.07773 2.35397 0.764004 2.35397H0.00195312V0H7.44301L9.88606 9.24792H9.95347L12.4189 0H19.8377V2.35405Z" fill="white"/>
</svg>
