<svg width="129" height="36" viewBox="0 0 129 36" fill="none" xmlns="http://www.w3.org/2000/svg">
<path d="M18.1382 0.476525L3.46364 6.98049C2.6476 7.34223 2.65605 8.58402 3.47721 8.93265L18.2129 15.1919C19.5076 15.7419 20.9495 15.7419 22.2442 15.1919L36.9801 8.93242C37.801 8.58402 37.8099 7.34247 36.9934 6.98073L22.3194 0.476287C20.9806 -0.117096 19.4767 -0.117096 18.1379 0.476287" fill="#FCB400"/>
<path d="M21.5361 18.6092V34.2458C21.5361 34.9893 22.2363 35.4988 22.8817 35.2247L39.3018 28.3979C39.4849 28.3201 39.642 28.1852 39.7527 28.0107C39.8634 27.8361 39.9225 27.63 39.9225 27.419V11.7826C39.9225 11.0389 39.2224 10.5296 38.5769 10.8037L22.1568 17.6305C21.9737 17.7083 21.8167 17.8432 21.706 18.0178C21.5953 18.1923 21.5362 18.3985 21.5361 18.6095" fill="#18BFFF"/>
<path d="M17.7016 19.4161L12.8285 21.9364L12.3337 22.1926L2.04686 27.4721C1.39501 27.8091 0.5625 27.3001 0.5625 26.5242V11.8482C0.5625 11.5674 0.696876 11.3251 0.877081 11.1428C0.95101 11.0639 1.03488 10.9966 1.12625 10.9426C1.37187 10.7846 1.72249 10.7424 2.02061 10.8687L17.6198 17.4892C18.4127 17.8262 18.475 19.0163 17.7016 19.4164" fill="#F82B60"/>
<path d="M17.7014 19.4162L12.8283 21.9365L0.876953 11.1425C0.950896 11.0638 1.03477 10.9965 1.12612 10.9426C1.37174 10.7846 1.72236 10.7424 2.02047 10.8687L17.6195 17.4893C18.4124 17.8262 18.4747 19.0163 17.7014 19.4164" fill="black" fill-opacity="0.25"/>
<path d="M57.2105 19.0188L55.1442 13.0524C55.0599 12.8084 54.7376 12.8084 54.6531 13.0524L52.5871 19.0191C52.5724 19.0616 52.5676 19.1071 52.5729 19.152C52.5782 19.1969 52.5936 19.2397 52.6178 19.2768C52.6419 19.3139 52.674 19.3443 52.7115 19.3652C52.7489 19.3861 52.7905 19.397 52.8327 19.397H56.9649C57.0072 19.397 57.0488 19.3861 57.0862 19.3651C57.1236 19.3442 57.1558 19.3138 57.1799 19.2767C57.204 19.2395 57.2193 19.1967 57.2247 19.1518C57.23 19.107 57.2251 19.0614 57.2104 19.019L57.2105 19.0188ZM58.1651 22.3723H51.6327C51.5793 22.3724 51.5271 22.3899 51.4833 22.4226C51.4394 22.4553 51.4059 22.5016 51.3873 22.5552L50.1013 26.2676C50.0827 26.3213 50.0492 26.3676 50.0053 26.4003C49.9614 26.433 49.9093 26.4505 49.8558 26.4505H47.0245C46.9817 26.4505 46.9395 26.4392 46.9017 26.4177C46.8639 26.3962 46.8316 26.3651 46.8077 26.3272C46.7837 26.2892 46.7687 26.2455 46.7642 26.1999C46.7596 26.1543 46.7656 26.1082 46.7815 26.0657L53.3 8.67193C53.3196 8.61998 53.3532 8.57547 53.3965 8.54415C53.4398 8.51282 53.4909 8.49611 53.5432 8.49617H56.2543C56.3611 8.49617 56.4573 8.56573 56.4973 8.67193L63.0156 26.0655C63.0316 26.1081 63.0376 26.1542 63.0331 26.1998C63.0286 26.2455 63.0137 26.2892 62.9897 26.3272C62.9657 26.3653 62.9334 26.3964 62.8955 26.4179C62.8577 26.4395 62.8155 26.4507 62.7726 26.4507H59.9418C59.8884 26.4507 59.8362 26.4331 59.7923 26.4004C59.7484 26.3677 59.715 26.3213 59.6964 26.2676L58.4102 22.5552C58.3916 22.5016 58.3581 22.4553 58.3142 22.4226C58.2703 22.3899 58.2182 22.3724 58.1647 22.3723H58.1651ZM64.3422 14.6005H66.7638C66.8332 14.6005 66.8998 14.63 66.9489 14.6826C66.9981 14.7352 67.0256 14.8066 67.0256 14.881V26.17C67.0256 26.2444 66.9981 26.3158 66.9489 26.3683C66.8998 26.4209 66.8332 26.4505 66.7638 26.4505H64.3422C64.2727 26.4505 64.2061 26.4209 64.157 26.3683C64.1079 26.3158 64.0803 26.2444 64.0803 26.17V14.8808C64.0803 14.8064 64.1079 14.7351 64.157 14.6825C64.2061 14.6299 64.2727 14.6003 64.3422 14.6003V14.6005ZM75.8574 17.3466C75.8574 17.4209 75.8298 17.4923 75.7807 17.5449C75.7316 17.5975 75.665 17.627 75.5955 17.627H75.5222C74.3249 17.627 73.4466 17.9348 72.888 18.5504C72.329 19.1659 72.0501 20.1835 72.0501 21.6027V26.17C72.0501 26.2444 72.0225 26.3158 71.9734 26.3683C71.9243 26.4209 71.8577 26.4505 71.7882 26.4505H69.3903C69.3209 26.4505 69.2543 26.4209 69.2052 26.3683C69.1561 26.3158 69.1285 26.2444 69.1285 26.17V14.8808C69.1285 14.8064 69.1561 14.7351 69.2052 14.6825C69.2543 14.6299 69.3209 14.6003 69.3903 14.6003H71.7641C71.8336 14.6003 71.9002 14.6299 71.9493 14.6825C71.9984 14.7351 72.026 14.8064 72.026 14.8808V17.1138H72.074C72.3613 16.1904 72.8162 15.4812 73.4391 14.9849C74.0614 14.4892 74.8278 14.2411 75.7376 14.2411H75.8574V17.3464V17.3466ZM82.4788 17.2422C82.4093 17.2422 82.3427 17.2718 82.2936 17.3244C82.2445 17.377 82.2169 17.4483 82.2169 17.5227V22.2183C82.2169 22.6971 82.3042 23.0391 82.4802 23.2443C82.6556 23.4494 82.959 23.552 83.39 23.552H83.6311C83.7006 23.552 83.7672 23.5816 83.8163 23.6342C83.8654 23.6868 83.893 23.7581 83.893 23.8325V26.1955C83.893 26.2698 83.8654 26.3412 83.8163 26.3938C83.7672 26.4464 83.7006 26.4759 83.6311 26.4759H82.5998C81.5302 26.4759 80.7081 26.1811 80.1334 25.5911C79.5586 25.0012 79.2713 24.1251 79.2713 22.9621V17.5227C79.2713 17.4483 79.2437 17.377 79.1946 17.3244C79.1455 17.2718 79.0789 17.2422 79.0094 17.2422H77.4978C77.4284 17.2422 77.3618 17.2127 77.3127 17.1601C77.2636 17.1075 77.236 17.0361 77.236 16.9617V14.8808C77.236 14.8064 77.2636 14.7351 77.3127 14.6825C77.3618 14.6299 77.4284 14.6003 77.4978 14.6003H79.0096C79.079 14.6003 79.1456 14.5708 79.1947 14.5182C79.2438 14.4656 79.2714 14.3942 79.2714 14.3198V10.1357C79.2714 10.0613 79.299 9.98993 79.3481 9.93733C79.3972 9.88473 79.4638 9.85518 79.5333 9.85518H81.9549C82.0243 9.85518 82.0909 9.88473 82.1401 9.93733C82.1892 9.98993 82.2168 10.0613 82.2168 10.1357V14.3198C82.2168 14.3942 82.2443 14.4656 82.2934 14.5182C82.3426 14.5708 82.4092 14.6003 82.4786 14.6003H84.2297C84.2991 14.6003 84.3657 14.6299 84.4149 14.6825C84.464 14.7351 84.4916 14.8064 84.4916 14.8808V16.9619C84.4916 17.0363 84.464 17.1077 84.4149 17.1603C84.3657 17.2129 84.2991 17.2424 84.2297 17.2424H82.4788V17.2422ZM93.5675 22.9365C94.1183 22.3209 94.3936 21.5173 94.3936 20.5253C94.3936 19.5339 94.1183 18.7299 93.5675 18.1143C93.0168 17.4988 92.2942 17.191 91.4003 17.191C90.5061 17.191 89.7841 17.4988 89.2332 18.1143C88.6826 18.7299 88.4071 19.5339 88.4071 20.5253C88.4071 21.5173 88.6826 22.3209 89.2332 22.9365C89.7841 23.552 90.5061 23.8598 91.4003 23.8598C92.2942 23.8598 93.0168 23.552 93.5675 22.9365ZM87.9761 26.0913C87.1619 25.5956 86.5192 24.8729 86.0485 23.924C85.5774 22.975 85.342 21.8422 85.342 20.5253C85.342 19.2089 85.5774 18.0758 86.0485 17.1268C86.5192 16.1779 87.1619 15.4558 87.9761 14.9595C88.7903 14.4636 89.6841 14.2157 90.658 14.2157C91.52 14.2157 92.2583 14.3952 92.8733 14.7542C93.4874 15.1132 93.9783 15.6179 94.3457 16.2677H94.3936V14.8808C94.3936 14.8064 94.4212 14.7351 94.4703 14.6825C94.5194 14.6299 94.586 14.6003 94.6554 14.6003H97.0531C97.1226 14.6003 97.1892 14.6299 97.2383 14.6825C97.2874 14.7351 97.315 14.8064 97.315 14.8808V26.1698C97.315 26.2442 97.2874 26.3156 97.2383 26.3682C97.1892 26.4208 97.1226 26.4503 97.0531 26.4503H94.6554C94.586 26.4503 94.5194 26.4208 94.4703 26.3682C94.4212 26.3156 94.3936 26.2442 94.3936 26.1698V24.7832H94.3457C93.9783 25.4333 93.4874 25.9374 92.8731 26.2964C92.2583 26.6554 91.5202 26.8349 90.658 26.8349C89.6841 26.8349 88.7903 26.587 87.9761 26.0913ZM107.287 22.9365C107.838 22.3209 108.113 21.5173 108.113 20.5253C108.113 19.5339 107.838 18.7299 107.287 18.1143C106.736 17.4988 106.014 17.191 105.12 17.191C104.226 17.191 103.503 17.4988 102.953 18.1143C102.402 18.7299 102.126 19.5339 102.126 20.5253C102.126 21.5173 102.402 22.3209 102.953 22.9365C103.503 23.552 104.226 23.8598 105.12 23.8598C106.014 23.8598 106.736 23.552 107.287 22.9365ZM103.647 26.2964C103.032 25.9374 102.541 25.4333 102.174 24.7832H102.126V26.1698C102.126 26.2442 102.099 26.3156 102.05 26.3682C102.001 26.4208 101.934 26.4503 101.865 26.4503H99.443C99.3735 26.4503 99.3069 26.4208 99.2578 26.3682C99.2087 26.3156 99.1811 26.2442 99.1811 26.1698V8.77608C99.1811 8.7017 99.2087 8.63036 99.2578 8.57776C99.3069 8.52516 99.3735 8.49561 99.443 8.49561H101.865C101.934 8.49561 102.001 8.52516 102.05 8.57776C102.099 8.63036 102.126 8.7017 102.126 8.77608V16.2675H102.174C102.541 15.6177 103.032 15.1132 103.647 14.7542C104.262 14.395 105 14.2155 105.862 14.2155C106.836 14.2155 107.73 14.4634 108.544 14.9593C109.358 15.4556 110.001 16.1777 110.472 17.1265C110.942 18.076 111.178 19.2091 111.178 20.5255C111.178 21.8424 110.942 22.975 110.472 23.9241C110.001 24.8731 109.358 25.5958 108.544 26.0913C107.73 26.5872 106.836 26.8353 105.862 26.8353C105 26.8353 104.262 26.6558 103.647 26.2966L103.647 26.2964ZM115.258 26.4505H112.837C112.767 26.4505 112.701 26.4209 112.652 26.3683C112.602 26.3158 112.575 26.2444 112.575 26.17V8.77664C112.575 8.70226 112.602 8.63092 112.652 8.57832C112.701 8.52572 112.767 8.49617 112.837 8.49617H115.258C115.328 8.49617 115.394 8.52572 115.443 8.57832C115.493 8.63092 115.52 8.70226 115.52 8.77664V26.17C115.52 26.2444 115.493 26.3158 115.443 26.3683C115.394 26.4209 115.328 26.4505 115.258 26.4505ZM120.971 17.3451C120.569 17.6805 120.298 18.1648 120.158 18.7983C120.119 18.973 120.246 19.1405 120.414 19.1405H125.022C125.182 19.1405 125.308 18.9872 125.282 18.8181C125.19 18.2188 124.95 17.7411 124.562 17.3836C124.108 16.9647 123.513 16.7553 122.778 16.7553C122.044 16.7553 121.441 16.9518 120.971 17.3451ZM126.873 15.8701C127.815 16.9733 128.286 18.5337 128.286 20.5511V20.8862C128.286 20.9606 128.258 21.0319 128.209 21.0845C128.16 21.1371 128.094 21.1667 128.024 21.1667H120.325C120.287 21.1668 120.249 21.1758 120.214 21.1932C120.179 21.2106 120.148 21.2359 120.124 21.2673C120.099 21.2987 120.081 21.3356 120.071 21.3752C120.061 21.4149 120.059 21.4564 120.066 21.4969C120.189 22.2463 120.498 22.8417 120.994 23.2828C121.561 23.7876 122.276 24.0395 123.138 24.0395C124.251 24.0395 125.281 23.5743 126.228 22.6437C126.344 22.53 126.527 22.5541 126.617 22.6923L127.794 24.5023C127.831 24.5586 127.847 24.6275 127.84 24.6958C127.832 24.7641 127.802 24.8272 127.754 24.8729C127.176 25.4147 126.534 25.8719 125.843 26.2325C125.077 26.6341 124.175 26.8353 123.138 26.8353C121.94 26.8353 120.894 26.5743 120.001 26.053C119.106 25.5317 118.412 24.7964 117.918 23.8471C117.422 22.8982 117.175 21.7996 117.175 20.5511C117.175 19.3032 117.415 18.2003 117.893 17.2424C118.372 16.285 119.043 15.5412 119.905 15.0109C120.767 14.4812 121.773 14.2159 122.922 14.2159C124.614 14.2159 125.931 14.7675 126.873 15.8701ZM67.342 10.427C67.342 11.4849 66.5412 12.3426 65.5533 12.3426C64.5653 12.3426 63.7645 11.4849 63.7645 10.4268C63.7645 9.36864 64.5655 8.51094 65.5533 8.51094C66.5412 8.51094 67.342 9.36864 67.342 10.4268" fill="black"/>
</svg>
