<svg width="62" height="50" viewBox="0 0 62 50" fill="none" xmlns="http://www.w3.org/2000/svg">
<path d="M7.14687 43.188L8.08369 43.3C8.50748 43.3449 8.55209 43.7035 8.55209 43.9276V45.0259H4.24722V43.9276C4.24722 43.7035 4.29183 43.3449 4.71562 43.3L5.65244 43.188V42.2466H0.0761719V43.188L1.01298 43.3C1.43678 43.3449 1.48139 43.7035 1.48139 43.9276V47.5586C1.48139 47.7828 1.43678 48.1414 1.01298 48.1862L0.0761719 48.2983V49.2397H5.65244V48.2983L4.71562 48.1862C4.29183 48.1414 4.24722 47.7828 4.24722 47.5586V46.4604H8.52979V47.5586C8.52979 47.7828 8.48518 48.1414 8.06138 48.1862L7.12457 48.2983V49.2397H12.7008V48.2983L11.764 48.1862C11.3402 48.1414 11.2956 47.7828 11.2956 47.5586V43.9276C11.2956 43.7035 11.3402 43.3449 11.764 43.3L12.7008 43.188V42.2466H7.12457V43.188H7.14687Z" fill="#171717" fill-opacity="0.85"/>
<path d="M44.2853 42.2466H37.4154V43.188L38.2407 43.2776C38.5306 43.3224 38.7314 43.4345 38.7314 43.838V47.5362C38.7314 47.7604 38.6868 48.119 38.263 48.1638L37.3262 48.2759V49.2173H44.2853C46.7835 49.2173 48.8356 48.2086 48.8356 45.7207C48.8356 43.2328 46.7835 42.2466 44.2853 42.2466ZM43.7723 47.8948H41.4303V43.5914H43.7723C45.1552 43.5914 45.6236 44.2414 45.6236 45.7431C45.6236 47.2224 45.1552 47.8948 43.7723 47.8948Z" fill="#171717" fill-opacity="0.85"/>
<path d="M60.5228 48.1862C60.0767 48.1414 59.9429 47.85 59.8091 47.6483L56.5971 42.7173C56.3741 42.3587 56.1956 42.2466 55.8611 42.2466H50.5971V43.188L51.8685 43.3224C52.0469 43.3449 52.2923 43.5914 52.0915 43.9052L49.7049 47.7828C49.6156 47.9397 49.4818 48.119 49.2142 48.1638L48.2773 48.2759V49.2173H52.716V48.2759L51.9577 48.2086C51.6231 48.1638 51.4447 47.9397 51.6231 47.6707L51.98 47.0879H56.2626L56.5748 47.5586C56.8648 47.9845 56.5079 48.1638 56.1956 48.1862L55.415 48.2759V49.2173H61.4373V48.2759L60.5228 48.1862ZM52.716 45.8552L54.032 43.7035L55.4373 45.8552H52.716Z" fill="#171717" fill-opacity="0.85"/>
<path d="M32.4409 43.1879L33.3777 43.3C33.8015 43.3448 33.8461 43.7034 33.8461 43.9276V47.4241L30.1658 42.5379C30.0096 42.3138 29.8535 42.2465 29.452 42.2465H24.6787V43.1879L25.6155 43.3C26.0393 43.3448 26.0839 43.7034 26.0839 43.9276V47.5586C26.0839 47.7827 26.0393 48.1413 25.6155 48.1862L24.6787 48.2982V49.2396H29.1397V48.2982L28.2029 48.1862C27.7791 48.1413 27.7345 47.7827 27.7345 47.5586V44.062L31.4148 48.9258C31.5933 49.15 31.7271 49.2172 32.1286 49.2172H32.1732H35.519V43.9052C35.519 43.681 35.5636 43.3224 35.9874 43.2776L36.9242 43.1655V42.2241H32.4855L32.4409 43.1879Z" fill="#171717" fill-opacity="0.85"/>
<path d="M18.679 42C14.1511 42 12.9912 43.9948 12.9912 45.7207C12.9912 47.4465 14.1511 49.4638 18.679 49.4638C23.2069 49.4638 24.3668 47.469 24.3668 45.7431C24.3668 43.9948 23.2069 42 18.679 42ZM18.679 48.1414C16.9169 48.1414 16.2031 47.4017 16.2031 45.7431C16.2031 44.0845 16.9392 43.3448 18.679 43.3448C20.4411 43.3448 21.1549 44.0845 21.1549 45.7431C21.1549 47.4017 20.4411 48.1414 18.679 48.1414Z" fill="#171717" fill-opacity="0.85"/>
<path d="M41.8538 3C40.7901 7.94031 40.3521 10.2329 39.4762 13.7847C38.6315 17.2074 37.9745 20.4041 36.8482 21.954C35.722 23.5362 34.189 23.8591 33.1566 23.9883C32.6248 24.0528 32.2181 24.0851 31.0605 24.0851C29.903 24.0851 29.4963 24.0528 28.9644 23.9883C27.932 23.8591 26.3991 23.5362 25.2728 21.954C24.1466 20.4041 23.4896 17.2074 22.6762 13.7847C21.8002 10.2006 21.3622 7.94031 20.2985 3C20.2985 3 19.2348 3.03229 18.7656 3.06458C18.1086 3.09687 17.608 3.16145 17.0762 3.22603C17.0762 3.22603 17.7019 13.3973 17.9834 17.7241C18.265 22.2446 18.7968 29.8973 19.2661 35.6771C19.2661 35.6771 20.1734 35.8386 21.6751 35.9031C23.2393 36 23.9589 36 23.9589 36C24.6158 33.4491 25.398 29.9296 26.3052 28.4119C27.0561 27.1849 28.1823 27.0558 28.8393 26.9589C29.8404 26.8297 30.7164 26.7975 31.0918 26.7975C31.4985 26.7975 32.3432 26.7975 33.3443 26.9589C34.0013 27.0558 35.1276 27.1849 35.8784 28.4119C36.7857 29.9296 37.5991 33.4491 38.2248 36C38.2248 36 38.913 36 40.4773 35.9031C41.979 35.8063 42.8862 35.6771 42.8862 35.6771C43.3555 29.8973 43.8873 22.2769 44.1689 17.7241C44.4505 13.4296 45.0762 3.22603 45.0762 3.22603C44.5443 3.16145 44.0125 3.09687 43.3868 3.06458C42.9175 3.03229 41.8538 3 41.8538 3Z" fill="#171717" fill-opacity="0.85"/>
<path d="M54.8195 9.26891C54.178 2.85444 49.8795 1.5074 46.1263 0.865954C44.2337 0.54523 40.8655 0.288651 38.7162 0.192434C36.8236 0.0641444 32.3968 0 31.0495 0C29.7022 0 25.2754 0.0641447 23.3828 0.192434C21.2335 0.288651 17.8653 0.54523 15.9727 0.865954C12.2195 1.5074 7.92104 2.85444 7.27948 9.26891C7.08701 11.0329 7.05493 13.31 7.08701 15.7475C7.15116 19.8207 7.50403 22.5469 7.6965 24.4712C7.82481 25.7862 8.37014 29.699 9.07586 31.7196C10.0382 34.5099 10.9043 35.3117 11.9308 36.1456C13.7914 37.653 16.8709 38.134 17.5125 38.2623C20.9769 38.8717 27.97 39 31.0816 39C34.1611 39 41.1863 38.9038 44.6507 38.2623C45.2923 38.134 48.3718 37.685 50.2323 36.1456C51.2589 35.3117 52.125 34.5099 53.0873 31.7196C53.793 29.699 54.3384 25.7541 54.4667 24.4712C54.6592 22.5789 55.012 19.8207 55.0762 15.7475C55.0441 13.278 54.9799 11.0008 54.8195 9.26891ZM52.4457 20.0452C52.0608 25.1768 51.6117 28.2558 50.9701 30.4688C50.3927 32.4252 49.687 33.7081 48.6605 34.6382C46.9283 36.2097 44.5545 36.5304 43.143 36.7549C40.1277 37.2039 35.0272 37.3643 31.0495 37.3643C27.0397 37.3643 21.9713 37.2039 18.956 36.7549C17.5445 36.5304 15.1707 36.2097 13.4385 34.6382C12.412 33.7081 11.7063 32.3931 11.1289 30.4688C10.4873 28.2558 10.0061 25.1768 9.65327 20.0452C9.42872 16.9663 9.4608 11.963 9.81366 9.26891C10.2948 5.2278 12.2837 3.20724 16.5501 2.46957C18.539 2.11678 21.2335 1.8602 23.7677 1.73191C25.8207 1.60362 29.1569 1.53947 31.0495 1.53947C32.9101 1.5074 36.2783 1.60362 38.2992 1.73191C40.8334 1.8602 43.528 2.11678 45.5168 2.46957C49.7832 3.23931 51.7721 5.25987 52.2854 9.26891C52.6382 11.9309 52.6703 16.9342 52.4457 20.0452Z" fill="#171717" fill-opacity="0.85"/>
</svg>
