<svg width="58" height="30" viewBox="0 0 58 30" fill="none" xmlns="http://www.w3.org/2000/svg">
<path d="M45.671 0.664639L41.5474 17.4388L37.4122 0.664639H25.4683V6.8588C24.017 1.43836 18.6927 0.0788822 13.9353 0.00165558C8.13454 -0.0741138 1.70724 2.43939 1.48431 10.1096H9.50713C9.50713 7.79426 11.6272 6.46829 13.6293 6.50181C16.0874 6.48141 17.2181 7.53052 17.275 9.16394C17.1904 10.5817 16.3541 11.5682 13.6497 11.5682H10.9511V17.1343H13.4005C14.7921 17.1343 16.7285 17.892 16.8043 19.8737C16.8976 22.2356 15.2554 23.2731 13.2344 23.2935C9.62661 23.1594 8.69552 20.388 8.69552 18.0042H0.368164C0.403135 19.6099 0.350679 30.0763 13.402 29.9991C19.6544 30.0559 24.205 27.4273 25.4887 23.8035V29.358H33.5202V11.2607L37.9615 29.358H45.1377L49.595 11.2811V29.374H57.7898V0.664639H45.671ZM25.4945 17.3995C24.4716 15.2838 23.032 14.3585 22.2218 14.0656C23.9223 13.3094 24.8126 12.2836 25.4945 10.2393V17.3995Z" fill="#FF0000" fill-opacity="0.38"/>
</svg>
