<svg width="33" height="41" viewBox="0 0 33 41" fill="none" xmlns="http://www.w3.org/2000/svg">
<path d="M3.29615 7.94107H7.00034C7.21246 7.94107 7.38304 7.7615 7.38345 7.5427C7.38345 7.54129 7.33851 4.24342 7.33851 3.32632V3.31544C7.33851 2.56223 7.4906 1.90555 7.75548 1.35524L7.88207 1.1081C7.86578 1.11129 7.8509 1.11983 7.83965 1.13248L0.647075 8.54644C0.633898 8.55769 0.624475 8.57297 0.620152 8.59012C0.76891 8.51358 0.972329 8.40899 1.00109 8.39584C1.62746 8.10206 2.38695 7.94107 3.29615 7.94107ZM32.1004 7.1338C31.8064 5.49762 30.8705 4.69127 30.0244 4.37423C29.1116 4.03127 27.2606 3.676 24.9349 3.39106C23.0638 3.16201 20.8646 3.18025 19.5361 3.22293C19.3766 2.08781 18.6108 1.05079 17.7537 0.691779C15.4701 -0.263623 11.9421 -0.032812 11.0362 0.231074C10.3164 0.440189 9.51963 0.868739 9.07621 1.52916C8.77883 1.97029 8.58642 2.53544 8.58493 3.32498C8.58493 3.77183 8.5969 4.82448 8.60784 5.75974C8.61872 6.6979 8.63055 7.53698 8.63055 7.5427C8.63014 8.37796 7.97889 9.05775 7.1718 9.05881H3.46946C2.67971 9.05881 2.07632 9.19676 1.61536 9.41442C1.15372 9.6323 0.826767 9.92601 0.57834 10.2735C0.0838638 10.9635 -0.00200463 11.815 3.50071e-05 12.684C3.50071e-05 12.684 0.00730971 13.3941 0.171908 14.7685C0.308768 15.832 1.41826 23.2611 2.47207 25.5206C2.88068 26.3996 3.15284 26.7657 3.95557 27.1533C5.74413 27.9492 9.82945 28.8348 11.7442 29.0883C13.6555 29.3425 14.855 29.8769 15.5699 28.3188C15.5723 28.3148 15.713 27.9312 15.9068 27.3682C16.5275 25.4132 16.6138 23.6786 16.6138 22.4233C16.6138 22.2956 16.7939 22.2898 16.7939 22.4233C16.7939 23.3095 16.631 26.4456 18.9101 27.2868C19.8097 27.6185 21.6762 27.9142 23.5726 28.1452C25.2873 28.35 26.5316 29.0514 26.5316 33.6243C26.5316 36.4063 25.9694 36.7879 23.0306 36.7879C20.6483 36.7879 19.7403 36.852 19.7403 34.8846C19.7403 33.2946 21.2532 33.4612 22.3744 33.4612C22.8752 33.4612 22.5118 33.074 22.5118 32.093C22.5118 31.1171 23.0989 30.5531 22.5436 30.5388C18.6664 30.428 16.385 30.5343 16.385 35.5746C16.385 40.1503 18.0696 41 23.5725 41C27.887 41 29.4079 40.8532 31.1893 35.1074C31.542 33.9731 32.3946 30.5116 32.9104 24.6996C33.2369 21.0248 32.6031 9.93322 32.1004 7.1338ZM24.5794 19.3935C24.0464 19.3741 23.5337 19.4091 23.0556 19.4889C23.1901 18.3594 23.6387 16.9734 25.2275 17.0314C26.9864 17.0943 27.2328 18.8223 27.2391 19.9927C26.4975 19.649 25.5794 19.43 24.5794 19.3935Z" fill="#00A82D"/>
</svg>
