<svg width="51" height="50" viewBox="0 0 51 50" fill="none" xmlns="http://www.w3.org/2000/svg">
<g clip-path="url(#clip0_40_195)">
<path d="M25.5211 49.804C25.2736 49.804 25.0271 49.7995 24.7811 49.7924L29.8702 35.806H36.8738C38.1031 35.806 39.4526 34.861 39.873 33.7064L45.3943 18.5409C46.2976 16.058 44.8754 14.0266 42.2334 14.0266H32.5171L24.3646 36.4287H24.3616L19.7399 49.1279C8.77499 46.5211 0.619141 36.6644 0.619141 24.9021C0.619141 13.4788 8.31119 3.853 18.7979 0.919297L14.0291 14.0266H14.0277L6.09976 35.806L11.3774 35.8065L18.1194 17.2994H22.0858L15.3437 35.8065L20.6193 35.8074L26.9022 18.5409C27.8061 16.058 26.3838 14.0266 23.7442 14.0266H19.3078L24.4019 0.0261701C24.7732 0.00968409 25.1459 0 25.5211 0C39.2741 0 50.423 11.1489 50.423 24.9021C50.423 38.6549 39.2741 49.804 25.5211 49.804ZM40.5881 17.2861H36.6229L31.0698 32.5222H35.0352L40.5881 17.2861Z" fill="#C4C4C4"/>
</g>
<defs>
<clipPath id="clip0_40_195">
<rect width="50" height="50" fill="white" transform="translate(0.790039)"/>
</clipPath>
</defs>
</svg>
