<svg width="108" height="21" viewBox="0 0 108 21" fill="none" xmlns="http://www.w3.org/2000/svg">
<path d="M36.6375 0.46334H30.8351V8.37196H24.7951V0.46334H18.9927V20.3607H24.7951V12.5341H30.8351V20.3607H36.6375V0.46334V0.46334ZM56.8215 16.3626V0.46334H51.0191V20.3607H61.5109L62.3834 16.3626H56.8215V16.3626ZM46.7295 0.46334H40.9271V20.3607H46.7295V0.46334ZM70.2523 0.46334H64.4526V20.3607H70.2523V0.46334V0.46334ZM98.8589 5.54159C98.8589 4.45865 99.8935 3.95818 101.56 3.95818C103.389 3.95818 105.377 4.37665 106.728 4.96195L106.252 0.630164C104.74 0.296514 103.389 0.0476915 100.928 0.0476915C96.2386 0.0476915 93.0592 1.98456 93.0592 6.04207C93.0592 13.0346 102.122 11.6208 102.122 14.8668C102.122 16.1138 101.244 16.7782 99.0993 16.7782C97.1949 16.7782 94.2505 16.1138 92.5027 15.1976L93.1403 19.7782C94.888 20.4455 97.2705 20.7764 99.1803 20.7764C104.026 20.7764 108 19.1109 108 14.1147C108 7.45867 98.8589 8.70561 98.8589 5.54159V5.54159ZM82.4918 15.6161C87.8916 15.6161 91.3115 12.7009 91.3115 7.62267C91.3115 2.04676 87.6566 0.0476915 81.6949 0.0476915C79.3907 0.0476915 76.6084 0.214517 74.6229 0.46334V20.3607H80.4253V15.6161H82.4918V15.6161ZM85.5902 7.70749C85.5902 10.2862 84.3989 12.0364 81.3762 12.0364H80.4253V3.81397C80.763 3.79418 81.079 3.79418 81.3762 3.79418C84.2368 3.79418 85.5902 5.20795 85.5902 7.70749ZM7.86884 15.6161C13.2714 15.6161 16.6885 12.7009 16.6885 7.62267C16.6885 2.04676 13.0337 0.0476915 7.07466 0.0476915C4.76777 0.0476915 1.98814 0.214517 0 0.46334V20.3607H5.80236V15.6161H7.86884V15.6161ZM10.9699 7.70749C10.9699 10.2862 9.77595 12.0364 6.75591 12.0364H5.80236V3.81397C6.14002 3.79418 6.45877 3.79418 6.75591 3.79418C9.61657 3.79418 10.9699 5.20795 10.9699 7.70749Z" fill="#0B5ED7"/>
</svg>
