<svg width="130" height="17" viewBox="0 0 130 17" fill="none" xmlns="http://www.w3.org/2000/svg">
<path fill-rule="evenodd" clip-rule="evenodd" d="M89.554 17L98.8267 0H129.896V2.80297H106.59L104.289 7.09151H116.592L115.109 9.89448H102.741L100.374 14.183H112.742L111.194 17H89.554ZM67.2499 12.5713H76.5744C76.2625 13.0618 76.1193 13.5524 76.3145 13.8607C76.6525 14.4073 77.8491 14.1408 78.1614 14.0289C78.7855 13.8186 79.1238 13.3982 79.4226 12.8376L80.9834 9.89448H71.4768C69.4866 9.89448 69.4218 8.61913 70.2283 7.09151L73.1543 1.73784C74.0256 0.196208 75.1963 0 76.6917 0H93.2213C94.8991 0 94.8991 1.47156 94.2229 2.80297L93.2865 4.61088H83.9097C84.1959 4.02226 84.2085 3.50371 83.9878 3.18137C83.6236 2.6488 82.6612 2.76092 82.154 3.04122C81.7509 3.27947 81.4128 3.6859 81.0484 4.3446L79.553 7.09151H88.7477C90.6856 7.09151 90.9848 8.61932 90.3733 9.89448L87.5772 14.9258C86.8229 16.2572 85.5226 17 84.0268 17H67.6144C66.0018 17 65.4427 15.8508 66.1316 14.5894L67.2499 12.5713ZM47.612 2.80297C49.1076 0 51.5916 0 53.5164 0H67.5622C69.0446 0 70.2931 1.33141 69.4866 2.80297L63.2833 14.183C61.9698 16.4534 60.9164 17 59.2387 17H42.8912C41.2785 17 40.5372 15.7246 41.4086 14.183L47.612 2.80297ZM55.7663 4.3446L51.0324 12.8376C50.8764 13.1459 50.8113 13.426 50.9024 13.6505C51.2015 14.3512 53.0352 14.2251 53.6725 14.0849C54.5828 13.8607 54.8169 13.1599 55.012 12.8376L59.6809 4.3446C60.006 3.74196 59.967 3.34955 59.6809 3.11129C59.2647 2.76092 57.9902 2.73289 57.2879 2.94312C56.6897 3.12531 56.1955 3.53174 55.7663 4.3446ZM24.931 0H42.9562C44.3868 0 45.5052 1.40148 44.5688 3.08326L42.7091 6.48887C41.9028 8.0305 40.5372 8.75927 39.5358 8.75927C40.5372 9.36191 40.5372 10.4268 40.03 11.366L38.1703 14.8555C37.6761 15.7945 36.9218 17 34.6329 17H0V14.183H17.1669L24.931 0ZM30.3411 7.09151H34.932C35.9984 7.09151 36.4276 6.48887 36.6747 5.95631L37.611 4.3446C37.9882 3.61583 37.9882 2.80297 37.1819 2.80297H32.6951L30.3411 7.09151ZM26.4266 14.183H31.0174C32.0838 14.183 32.513 13.5802 32.7599 13.0478L33.6965 11.4361C34.0736 10.6933 34.0736 9.89448 33.2543 9.89448H28.7805L26.4266 14.183ZM128.686 6.20857C127.971 6.20857 127.36 5.60594 127.36 4.79308C127.36 3.98021 127.971 3.39159 128.686 3.39159C129.402 3.39159 130 3.98021 130 4.79308C130 5.60594 129.402 6.20857 128.686 6.20857ZM127.62 4.79308C127.62 5.46579 128.088 5.97032 128.686 5.97032C129.272 5.97032 129.74 5.46579 129.74 4.79308C129.74 4.12036 129.272 3.61583 128.686 3.61583C128.088 3.61583 127.62 4.12036 127.62 4.79308ZM128.413 4.90519V5.60594H128.179V3.98021H128.752C129.116 3.98021 129.285 4.12036 129.285 4.4427C129.285 4.73702 129.116 4.86315 128.895 4.89118L129.324 5.60594H129.064L128.673 4.90519H128.413ZM128.413 4.69497H128.686C128.882 4.69497 129.051 4.68096 129.051 4.42869C129.051 4.23248 128.882 4.19044 128.726 4.19044H128.413V4.69497Z" fill="#070707"/>
</svg>
