<svg width="81" height="22" viewBox="0 0 81 22" fill="none" xmlns="http://www.w3.org/2000/svg">
<path d="M9.89728 17.7217L9.83914 17.7806C8.902 18.7809 7.81733 19.311 6.69967 19.311C4.36671 19.311 2.67323 17.4775 2.67323 14.9477C2.67323 12.4224 4.36671 10.5863 6.69967 10.5863C7.81733 10.5863 8.902 11.1186 9.83914 12.1215L9.89728 12.1822L11.3976 10.2816L11.3575 10.23C10.1098 8.68532 8.61265 7.93334 6.7721 7.93334C4.92518 7.93334 3.23685 8.58451 2.02008 9.75884C0.698024 11.0305 0 12.824 0 14.9477C0 17.0703 0.698024 18.8681 2.02008 20.1402C3.23685 21.3199 4.92518 21.9675 6.7721 21.9675C8.61265 21.9675 10.1098 21.216 11.3575 19.6706L11.3976 19.6227L9.89728 17.7217Z" fill="#004685"/>
<path d="M12.9141 21.7087H15.5646V8.15359H12.9141V21.7087Z" fill="#004685"/>
<path d="M25.9468 18.7614C25.2397 19.2125 24.5816 19.4393 23.9906 19.4393C23.1343 19.4393 22.7473 18.9658 22.7473 17.9111V10.7186H25.4467V8.16599H22.7473V3.94819L20.1494 5.40472V8.16599H17.9082V10.7186H20.1494V18.3699C20.1494 20.4545 21.328 21.8786 23.0875 21.9156C24.2822 21.9401 25.0024 21.5673 25.4399 21.2947L25.4655 21.2748L26.1036 18.6611L25.9468 18.7614Z" fill="#004685"/>
<path d="M28.1416 21.7087H30.7939V8.15359H28.1416V21.7087Z" fill="#004685"/>
<path d="M73.0682 2.99599V15.9262L73.8938 14.5799C73.8932 14.5858 77.6034 8.95741 78.0788 8.23972H79.7324C79.3804 8.73513 76.4633 12.941 76.4633 12.941C76.4633 12.941 80.2631 21.2363 80.4827 21.7089H78.8589C78.7696 21.5153 75.5053 14.2756 75.5053 14.2756L73.0682 17.853V21.7089H71.5554V3.90104C71.6877 3.82145 72.7121 3.20625 73.0682 2.99599ZM60.6412 9.84554C61.4215 8.62344 62.6441 7.94958 64.0746 7.94958C66.9268 7.94958 68.4384 9.8553 68.4384 13.4615V21.7089H66.9218V13.803C66.9218 10.7349 65.9049 9.31071 63.702 9.31071C61.5935 9.31071 60.3346 10.9908 60.3346 13.803V21.7089H58.8223V8.23972H60.3346V10.3284L60.6412 9.84554ZM51.3433 7.94958C54.2784 7.94958 55.7052 9.35567 55.7052 12.249V21.7089H54.1923V19.7438L53.8979 20.0839C52.7846 21.3708 51.5066 22 49.9849 22C48.7925 22 46.0182 21.5866 46.0182 17.7522C46.0182 14.6179 48.4878 13.5055 50.8013 13.5055C51.963 13.5055 53.1105 13.7857 53.9433 14.2746L54.1923 14.4192V12.4855C54.1923 10.3417 53.1928 9.25591 51.2178 9.25591C49.9999 9.25591 48.9007 9.57795 47.7737 10.2434C47.6742 10.0041 47.3247 9.19437 47.2274 8.96339C48.4053 8.31299 49.8598 7.94958 51.3433 7.94958ZM47.5017 17.6202C47.5017 19.6336 48.4975 20.7433 50.3067 20.7433C51.8467 20.7433 53.2143 19.9811 54.1638 18.5951L54.1923 18.5475V15.5945L54.1083 15.5435C53.1426 14.9668 52.1537 14.7342 50.7 14.7342C48.699 14.7342 47.5017 15.8128 47.5017 17.6202ZM35.8202 2.99599V10.2012L36.1132 9.86528C37.2273 8.57609 38.4605 7.94958 39.8784 7.94958C42.7159 7.94958 44.3445 10.4272 44.3445 14.7483C44.3445 19.1533 42.4948 22 39.6309 22C38.2355 22 37.1181 21.4329 36.1147 20.2171L35.8202 19.8581V21.7089H34.3105V3.90104C34.4391 3.82145 35.4654 3.20625 35.8202 2.99599ZM35.8562 11.3748L35.8202 11.4245V18.4358L35.8473 18.4788C36.6817 19.8318 38.0412 20.6407 39.4881 20.6407C41.7227 20.6407 42.8553 18.6676 42.8553 14.7771C42.8553 11.3015 41.6004 9.31071 39.4125 9.31071C38.0863 9.31071 36.8897 10.0049 35.8562 11.3748Z" fill="#004685"/>
<path fill-rule="evenodd" clip-rule="evenodd" d="M32.3824 5.74834C29.9561 2.14796 25.9267 -0.000107765 21.827 -0.000107765C17.7291 -0.000107765 13.6989 2.14796 11.2766 5.74834L11.1523 5.93359H14.2074L14.2413 5.89516C16.3206 3.64684 19.035 2.45784 21.827 2.45784C24.6194 2.45784 27.3333 3.64684 29.4166 5.89516L29.4504 5.93359H32.5045L32.3824 5.74834Z" fill="#D9261C"/>
</svg>
