<svg width="66" height="18" viewBox="0 0 66 18" fill="none" xmlns="http://www.w3.org/2000/svg">
<g clip-path="url(#clip0_40_208)">
<path d="M65.5935 15.6595C65.5935 14.6591 64.8724 13.9265 63.8791 13.9265C62.8875 13.9265 62.1656 14.6591 62.1656 15.6595C62.1656 16.6582 62.8875 17.3895 63.8791 17.3895C64.8724 17.3895 65.5935 16.657 65.5935 15.6595ZM63.4287 15.7483V16.8802H63.057V14.3843H63.9806C64.5218 14.3843 64.7701 14.6169 64.7701 15.0702C64.7701 15.3494 64.5783 15.5706 64.3312 15.6026V15.6132C64.5457 15.6469 64.6245 15.8352 64.6687 16.1797C64.7025 16.4029 64.7474 16.7901 64.8283 16.881H64.3886C64.2863 16.6465 64.2966 16.3145 64.2178 16.0365C64.1526 15.825 64.0379 15.7479 63.7917 15.7479H63.4308V15.7491L63.4287 15.7483ZM63.8894 15.4257C64.2504 15.4257 64.3535 15.2366 64.3535 15.0698C64.3535 14.8725 64.2504 14.7167 63.8894 14.7167H63.4287V15.4265H63.8894V15.4257ZM61.7568 15.6595C61.7568 14.4269 62.7514 13.5938 63.8775 13.5938C65.0069 13.5938 66.0002 14.4269 66.0002 15.6595C66.0002 16.8895 65.0073 17.7235 63.8775 17.7235C62.7514 17.7235 61.7568 16.8895 61.7568 15.6595Z" fill="#FF5A00"/>
<path d="M54.4076 17.3635L51.9628 14.6659L49.5394 17.3635H44.4402L49.4239 11.8547L44.4402 6.34421H49.6986L52.1682 9.02111L54.5446 6.34421H59.6191L54.6601 11.8315L59.688 17.3635H54.4076ZM34.6484 17.3635V0.00463867H44.4402V3.87388H38.796V6.34421H44.4402V10.0674H38.796V13.4845H44.4402V17.3635H34.6484Z" fill="#FF5A00"/>
<path d="M30.5162 0.00488281V7.10905H30.4704C29.5559 6.07498 28.4129 5.7146 27.0876 5.7146C24.3717 5.7146 22.3257 7.53234 21.6076 9.93367C20.7884 7.28722 18.676 5.66509 15.5444 5.66509C13.0005 5.66509 10.9925 6.78803 9.94354 8.61836V6.34405H4.68633V3.87454H10.4241V0.00569559H0V17.3637H4.68633V10.0676H9.35739C9.21351 10.6287 9.14159 11.2052 9.14331 11.7839C9.14331 15.4031 11.9544 17.9465 15.5435 17.9465C18.5605 17.9465 20.5504 16.5516 21.6018 14.0123H17.5854C17.0425 14.7765 16.63 15.0022 15.544 15.0022C14.285 15.0022 13.1985 13.921 13.1985 12.641H21.3766C21.7313 15.5164 24.0083 17.9956 27.1333 17.9956C28.4814 17.9956 29.7155 17.3434 30.47 16.2416H30.5154V17.3662H34.6473V0.00569559H30.5162V0.00488281ZM13.3289 10.1195C13.59 9.01648 14.4591 8.29572 15.544 8.29572C16.7385 8.29572 17.5635 8.99416 17.7801 10.1195H13.3289ZM28.0087 14.7221C26.4861 14.7221 25.5399 13.3265 25.5399 11.8687C25.5399 10.3103 26.3632 8.81316 28.0087 8.81316C29.716 8.81316 30.3962 10.3111 30.3962 11.8687C30.3962 13.3451 29.676 14.7221 28.0087 14.7221Z" fill="#29007C"/>
</g>
<defs>
<clipPath id="clip0_40_208">
<rect width="66" height="18" fill="white"/>
</clipPath>
</defs>
</svg>
