<svg width="48" height="50" viewBox="0 0 48 50" fill="none" xmlns="http://www.w3.org/2000/svg">
<g clip-path="url(#clip0_40_205)">
<path d="M16.9259 1.57011C9.21139 2.13626 2.65315 2.65693 2.34481 2.7179C1.48026 2.87081 0.693782 3.45244 0.32396 4.21796L0 4.89153L0.031225 20.9451L0.0770869 36.9987L0.570833 37.9936C0.848931 38.5442 2.73122 41.1156 4.78329 43.7625C8.84157 48.9808 9.13431 49.2721 10.677 49.425C11.1249 49.4705 14.4884 49.3176 18.13 49.1037C21.7873 48.8743 27.6498 48.5221 31.1685 48.3237C46.1965 47.4188 45.4246 47.4952 46.2882 46.7607C47.3684 45.8732 47.2913 47.3268 47.3372 27.8154C47.3684 11.2721 47.3528 10.1863 47.1059 9.68109C46.8132 9.11494 46.2882 8.71718 39.4372 3.94214C34.855 0.759105 34.531 0.590711 32.478 0.559742C31.63 0.52974 24.6249 0.988469 16.9259 1.57011ZM34.2685 3.66632C34.9164 3.95666 39.6539 7.23163 40.3476 7.85972C40.533 8.0436 40.5945 8.19651 40.5018 8.28845C40.2862 8.47233 10.9688 10.2018 10.1208 10.0788C9.73539 10.0179 9.16455 9.78851 8.84059 9.57366C7.49792 8.67072 4.16562 5.9619 4.16562 5.76351C4.16562 5.24284 4.0573 5.24284 17.1269 4.3099C19.6269 4.1415 23.731 3.83568 26.231 3.63632C31.6456 3.20759 33.2664 3.22308 34.2685 3.66632ZM43.5882 12.0376C43.8039 12.2515 43.9893 12.6648 44.0507 13.0625C44.0966 13.4303 44.1278 20.286 44.0966 28.2741C44.0507 41.9857 44.0351 42.8431 43.7726 43.2409C43.6185 43.4857 43.3101 43.7461 43.0779 43.8225C42.4309 44.0828 11.7104 45.8123 11.0781 45.6284C10.7853 45.5519 10.3833 45.3071 10.1677 45.0932L9.79686 44.6954L9.751 29.9126C9.71977 19.537 9.751 14.9458 9.87492 14.5326C9.96762 14.2268 10.1989 13.859 10.3999 13.7371C10.678 13.5532 12.4988 13.4003 18.7633 13.0335C23.1612 12.7886 29.9653 12.3754 33.8694 12.146C43.156 11.5789 43.1257 11.5789 43.5882 12.0376Z" fill="black"/>
<path d="M35.3333 17.103C33.6667 17.2104 32.1855 17.3633 32.0157 17.4553C31.5063 17.7156 31.198 18.1443 31.1365 18.634C31.0906 19.1392 31.2448 19.2002 32.9105 19.3995L33.6355 19.4915V26.0259C33.6355 29.9125 33.574 32.4839 33.4969 32.4075C33.4198 32.3156 31.2292 29.0106 28.6209 25.062C26.0136 21.099 23.8533 17.8385 23.822 17.8085C23.7908 17.7775 22.0939 17.8695 20.0575 18.0079C17.5575 18.1763 16.1846 18.3292 15.9065 18.4821C15.4586 18.7115 14.9648 19.5225 14.9648 20.0586C14.9648 20.3799 15.5513 20.5483 16.7857 20.5483H17.4336V39.3407L16.3846 39.662C15.5669 39.9068 15.2888 40.0597 15.1502 40.3656C14.9034 40.8862 14.919 41.3604 15.1659 41.3604C15.2586 41.3604 17.0023 41.253 19.0075 41.1311C22.9731 40.9017 23.42 40.7943 23.8367 39.9833C23.9606 39.7384 24.0679 39.4781 24.0679 39.4016C24.0679 39.3407 23.5283 39.1568 22.8794 39.0039C22.2159 38.851 21.5524 38.6981 21.4138 38.6671C21.1513 38.5906 21.1357 38.1164 21.1357 31.5355V24.4804L25.8263 31.7804C30.7481 39.4316 31.3658 40.3046 32.122 40.6869C33.0637 41.1766 35.4553 40.8398 36.6585 40.0597L37.0293 39.8304L37.0605 29.3938L37.1063 18.9418L37.9241 18.7889C38.8959 18.605 39.3438 18.1618 39.3438 17.3962C39.3438 16.9065 39.3126 16.8756 38.8501 16.8911C38.5739 16.9036 36.9844 16.9956 35.3333 17.103Z" fill="black"/>
</g>
<defs>
<clipPath id="clip0_40_205">
<rect width="47.3684" height="50" fill="white"/>
</clipPath>
</defs>
</svg>
