<svg width="305" height="305" viewBox="0 0 305 305" fill="none" xmlns="http://www.w3.org/2000/svg">
<path d="M77.5324 74.3588C83.8575 66.5127 93.5473 64.3879 102.914 68.5132C119.086 75.6346 129.61 90.722 129.61 109.435C129.61 189.815 7.52562 130.555 70.0918 71.2114" stroke="white" stroke-width="16" stroke-linecap="round" stroke-linejoin="round"/>
<path d="M126.127 160.144C134.62 182.227 146.816 210.859 143.647 237.792" stroke="white" stroke-width="16" stroke-linecap="round" stroke-linejoin="round"/>
<path d="M126.913 161.843C127.827 177.361 126.913 223.845 118.482 260.367" stroke="white" stroke-width="16" stroke-linecap="round" stroke-linejoin="round"/>
<path d="M166.879 150.365C159.306 181.738 152.789 226.616 143.642 237.792" stroke="white" stroke-width="16" stroke-linecap="round" stroke-linejoin="round"/>
<path d="M168.465 145.614C179.511 137.027 187.356 145.911 174.801 155.118" stroke="white" stroke-width="16" stroke-linecap="round" stroke-linejoin="round"/>
<path d="M174.407 155.513C186.769 154.513 184.772 164.833 173.219 164.225" stroke="white" stroke-width="16" stroke-linecap="round" stroke-linejoin="round"/>
<path d="M157.769 101.657C161.389 111.391 167.893 138.951 168.065 139.673" stroke="white" stroke-width="16" stroke-linecap="round" stroke-linejoin="round"/>
<path d="M158.562 100.074C179.136 85.0985 200.485 70.9105 221.525 56.5131" stroke="white" stroke-width="16" stroke-linecap="round" stroke-linejoin="round"/>
<path d="M223.904 57.3048C227.641 78.9827 231.128 102.19 237.764 123.041" stroke="white" stroke-width="16" stroke-linecap="round" stroke-linejoin="round"/>
<path d="M163.315 126.21C187.673 125.701 212.149 123.041 236.574 123.041" stroke="white" stroke-width="16" stroke-linecap="round" stroke-linejoin="round"/>
<path d="M115.801 134.168C115.186 130.459 114.426 125.748 114.05 122.476" stroke="white" stroke-width="16" stroke-linecap="round" stroke-linejoin="round"/>
<path d="M115.609 100.891C115.769 99.2299 115.163 96.4689 114.734 94.9983" stroke="white" stroke-width="16" stroke-linecap="round" stroke-linejoin="round"/>
<path d="M101.165 102.24C101.24 100.891 101.101 99.0496 100.952 97.057" stroke="white" stroke-width="16" stroke-linecap="round" stroke-linejoin="round"/>
<path d="M243.306 57.3059C247.616 53.0541 257.634 46.9553 260.73 44.6334" stroke="white" stroke-width="16" stroke-linecap="round" stroke-linejoin="round"/>
<path d="M255.228 81.2071C260.629 79.1461 266.442 77.6531 271.859 76.0592" stroke="white" stroke-width="16" stroke-linecap="round" stroke-linejoin="round"/>
<path d="M255.977 109.578C261.332 111.534 266.612 111.558 272.212 111.558" stroke="white" stroke-width="16" stroke-linecap="round" stroke-linejoin="round"/>
<path d="M147.87 107.994C137.807 120.767 147.401 126.613 158.959 121.853" stroke="white" stroke-width="16" stroke-linecap="round" stroke-linejoin="round"/>
<path d="M181.135 131.357C181.632 135.307 178.557 139.377 177.572 142.445" stroke="white" stroke-width="16" stroke-linecap="round" stroke-linejoin="round"/>
<path d="M59.8784 166.939C69.2718 199.103 74.3173 210.958 74.3173 260.367" stroke="white" stroke-width="16" stroke-linecap="round" stroke-linejoin="round"/>
<path d="M59.0286 166.939C51.3947 183.756 28.3222 248.995 34.6266 258.668" stroke="white" stroke-width="16" stroke-linecap="round" stroke-linejoin="round"/>
</svg>
