<svg width="39" height="53" viewBox="0 0 39 53" fill="none" xmlns="http://www.w3.org/2000/svg">
<path fill-rule="evenodd" clip-rule="evenodd" d="M16.3563 1.83098C20.8503 4.401 23.9216 9.42873 25.5381 15.2971C27.9522 24.0657 27.1246 34.7047 23.048 41.7295C22.9621 41.8735 22.7693 41.9439 22.6187 41.8866C22.4643 41.8282 22.4097 41.6655 22.4946 41.5191C26.507 34.6029 27.3015 24.1278 24.9217 15.4935C23.3431 9.75776 20.3653 4.8296 15.9708 2.31923C15.8309 2.24003 15.8058 2.06727 15.9123 1.93145C16.0169 1.79928 16.2164 1.75177 16.3563 1.83098Z" fill="white"/>
<path fill-rule="evenodd" clip-rule="evenodd" d="M20.8947 50.672C23.0365 46.5196 24.4701 42.7303 28.3225 39.1842C28.4537 39.0662 28.6534 39.0502 28.7702 39.1539C28.8887 39.254 28.8794 39.4333 28.751 39.55C24.5128 43.4525 23.2632 47.6605 20.6836 52.3212C20.5432 52.5725 20.3237 52.5513 20.2723 52.5423C20.1957 52.53 20.0823 52.488 20.0515 52.3408C20.0456 52.3118 20.0433 52.2525 20.0534 52.1676C20.0769 52.005 20.1555 51.6747 20.1747 51.5255C20.2263 51.0951 20.2654 50.6672 20.317 50.2368C20.4644 49.006 20.5966 47.7791 20.6287 46.556C20.7571 41.9794 20.8948 38.2344 17.3188 35.1258C17.1992 35.0233 17.2096 34.8463 17.3398 34.7259C17.4681 34.6092 17.6689 34.5956 17.7846 34.6969C21.4852 37.9116 21.3933 41.7686 21.2624 46.5013C21.227 47.7402 21.0955 48.9841 20.9466 50.227C20.9274 50.3761 20.911 50.5241 20.8947 50.672Z" fill="white"/>
</svg>
