<svg width="111" height="101" viewBox="0 0 111 101" fill="none" xmlns="http://www.w3.org/2000/svg">
<path fill-rule="evenodd" clip-rule="evenodd" d="M45.4189 39.7507C43.5132 37.8988 42.2959 35.494 42.1206 32.4751C41.5787 23.1363 46.9973 17.8475 54.7056 15.2636C65.9612 11.4911 82.1583 13.5767 91.0215 16.9456C91.4414 17.1047 91.6795 17.5631 91.5547 17.9672C91.4306 18.3731 90.9897 18.5733 90.5698 18.4142C81.9675 15.1439 66.2473 13.1032 55.3233 16.7637C48.2456 19.1364 43.2045 23.9429 43.7034 32.5205C43.85 35.0733 44.8839 37.0998 46.4915 38.6693C47.4508 37.7237 48.4268 36.8198 49.4182 35.9603C52.1556 33.5885 60.4252 28.9233 67.3716 27.9754C72.3549 27.2969 76.6527 28.5265 78.188 33.3203C79.0408 35.985 78.0961 38.3312 75.9395 40.1894C72.9762 42.7461 67.6384 44.3746 62.0681 44.6272C57.4305 44.8383 52.6412 44.1005 48.9454 42.2231C48.1338 41.8089 47.3723 41.3433 46.6752 40.8205C33.6431 54.2099 24.3682 75.0805 24.0038 94.0578C23.9939 94.49 23.6344 94.8053 23.196 94.7585C22.7582 94.7137 22.4105 94.3247 22.4186 93.893C22.7903 74.6063 32.1883 53.3975 45.4189 39.7507ZM47.7597 39.7318C48.6634 38.8452 49.5825 37.9967 50.5156 37.1886C53.1396 34.9166 61.0617 30.4477 67.7173 29.5399C71.8017 28.9822 75.4239 29.7508 76.6824 33.6796C77.3422 35.7433 76.5138 37.5192 74.8458 38.9601C73.0092 40.5431 70.1837 41.7173 66.9737 42.4028C62.1002 43.4436 56.3397 43.3514 51.7241 41.7416C50.2616 41.2323 48.9159 40.5674 47.7597 39.7318Z" fill="black" fill-opacity="0.8"/>
<path fill-rule="evenodd" clip-rule="evenodd" d="M43.8724 73.4847C35.5436 77.4488 28.1664 85.9795 23.855 94.1899C23.6567 94.5675 23.1748 94.685 22.7801 94.4526C22.3854 94.2203 22.2245 93.7252 22.4227 93.3476C26.8679 84.88 34.5011 76.1084 43.087 72.0211C43.4711 71.8378 43.9598 72.0169 44.1769 72.4217C44.3933 72.8246 44.2565 73.3014 43.8724 73.4847Z" fill="black" fill-opacity="0.8"/>
<path fill-rule="evenodd" clip-rule="evenodd" d="M21.924 93.4465C23.1116 86.5119 20.4923 77.1405 16.6497 70.86C16.4364 70.5117 16.5168 70.07 16.8309 69.8763C17.1444 69.6808 17.5706 69.8043 17.7839 70.1526C21.8093 76.7322 24.519 86.5545 23.2749 93.8198C23.2097 94.205 22.8521 94.4344 22.4793 94.3323C22.106 94.2283 21.8572 93.8322 21.924 93.4465Z" fill="black" fill-opacity="0.8"/>
</svg>
