<svg width="94" height="85" viewBox="0 0 94 85" fill="none" xmlns="http://www.w3.org/2000/svg">
<path fill-rule="evenodd" clip-rule="evenodd" d="M20.8284 6.05607C30.3893 5.23916 39.5563 10.0498 46.9744 17.8701C58.0563 29.5567 65.2389 47.9451 64.0959 64.0418C64.0687 64.3743 63.8039 64.7059 63.5068 64.7806C63.2022 64.8578 62.9803 64.6519 63.0039 64.3166C64.1273 48.47 57.0214 30.3877 46.1047 18.8831C38.8565 11.238 29.9258 6.48588 20.5787 7.28931C20.2817 7.31604 20.1009 7.06059 20.169 6.71842C20.2371 6.38426 20.5315 6.0828 20.8284 6.05607Z" fill="black"/>
<path fill-rule="evenodd" clip-rule="evenodd" d="M69.194 80.7566C69.423 71.7648 68.7809 64.1294 72.2815 54.2365C72.403 53.904 72.7166 53.6597 72.989 53.6981C73.2615 53.7286 73.3874 54.0258 73.2696 54.3532C69.4193 65.2388 70.6917 73.3434 70.148 83.628C70.1165 84.184 69.7412 84.3902 69.6501 84.4321C69.5153 84.4962 69.297 84.553 69.1307 84.351C69.0982 84.3111 69.0477 84.2186 68.9975 84.0716C68.9079 83.7857 68.7762 83.1708 68.6901 82.911C68.4353 82.1654 68.1623 81.4375 67.9076 80.6919C67.1792 78.5602 66.429 76.4512 65.5183 74.4578C62.124 66.9903 59.3999 60.8439 51.1103 59.7801C50.8342 59.7469 50.7119 59.4523 50.8297 59.1171C50.9475 58.7897 51.2648 58.5482 51.5336 58.5838C60.1102 59.681 62.9972 65.9566 66.5103 73.677C67.4282 75.6992 68.1929 77.8345 68.9284 79.9873C69.0145 80.2471 69.1043 80.5019 69.194 80.7566Z" fill="black"/>
</svg>
