<svg width="226" height="157" viewBox="0 0 226 157" fill="none" xmlns="http://www.w3.org/2000/svg">
<path fill-rule="evenodd" clip-rule="evenodd" d="M15.6355 151.034C24.9407 131.532 42.4754 113.284 63.4853 97.292C95.2148 73.1417 134.875 54.1283 166.478 43.6986C186.34 37.1419 199.637 37.8631 218.848 34.8049C219.626 34.6807 220.41 34.0422 220.599 33.3781C220.789 32.7164 220.311 32.2761 219.534 32.4025C200.098 35.4964 186.633 34.8159 166.538 41.4481C134.495 52.0235 94.2853 71.318 62.1099 95.8061C40.5203 112.239 22.546 131.013 12.9826 151.054C12.6601 151.73 12.9905 152.272 13.723 152.266C14.4555 152.261 15.313 151.709 15.6355 151.034Z" fill="black"/>
<path fill-rule="evenodd" clip-rule="evenodd" d="M223.893 31.0729C223.825 31.0806 223.37 31.1406 223.001 31.1555C221.466 31.2259 218.876 31.1267 215.705 30.8193C205.076 29.7759 187.959 26.3737 182.548 18.4186C182.236 17.9598 181.386 17.9908 180.649 18.4863C179.912 18.9818 179.565 19.7544 179.877 20.2132C185.506 28.4903 203.197 32.1675 214.257 33.2506C215.739 33.3946 217.103 33.4968 218.301 33.5549C214.21 35.3159 210.117 36.9963 206.008 38.6467C194.181 43.3949 184.125 49.3267 173.698 57.4239C173.001 57.9639 172.75 58.7322 173.142 59.1324C173.53 59.5346 174.416 59.4203 175.112 58.878C185.149 51.0857 194.83 45.37 206.214 40.7987C211.582 38.641 216.934 36.4288 222.274 34.0662C222.806 33.8311 224.185 33.2091 224.375 33.1C225.454 32.4786 225.44 31.7483 225.427 31.591C225.421 31.5146 225.276 30.5965 223.893 31.0729ZM223.782 33.3387C223.82 33.325 223.859 33.3136 223.901 33.2978C223.868 33.3117 223.828 33.3232 223.782 33.3387Z" fill="black"/>
</svg>
