<svg width="149" height="103" viewBox="0 0 149 103" fill="none" xmlns="http://www.w3.org/2000/svg">
<path fill-rule="evenodd" clip-rule="evenodd" d="M11.7313 5.08739C17.1469 19.8411 28.1845 32.5172 41.6738 42.9043C62.0458 58.5904 88.0121 69.0624 108.916 73.5473C122.054 76.3674 131.079 74.0771 143.933 74.1203C144.454 74.1223 144.956 74.5441 145.053 75.0628C145.152 75.5796 144.809 76.0007 144.289 75.9967C131.284 75.953 122.147 78.2316 108.855 75.3795C87.6604 70.8318 61.3351 60.2002 40.6768 44.2949C26.8152 33.6217 15.504 20.5717 9.93808 5.40971C9.75039 4.89889 9.99824 4.41308 10.4934 4.32399C10.9885 4.2349 11.5436 4.57657 11.7313 5.08739Z" fill="black"/>
<path fill-rule="evenodd" clip-rule="evenodd" d="M147.178 76.5262C147.132 76.5285 146.827 76.5377 146.578 76.5727C145.543 76.7115 143.787 77.1238 141.629 77.7807C134.393 79.9932 122.664 84.964 118.647 92.1597C118.415 92.5748 117.841 92.6582 117.365 92.3473C116.889 92.0365 116.689 91.4493 116.921 91.0342C121.101 83.5472 133.23 78.2783 140.759 75.9782C141.768 75.6708 142.694 75.413 143.507 75.2122C140.82 74.2957 138.127 73.4455 135.423 72.6216C127.638 70.2523 121.104 66.6889 114.417 61.4026C113.969 61.0503 113.835 60.4542 114.117 60.0769C114.398 59.6985 114.992 59.6786 115.438 60.0329C121.875 65.1199 128.166 68.5546 135.659 70.8359C139.193 71.9133 142.712 73.0375 146.218 74.286C146.567 74.4102 147.471 74.7423 147.594 74.8073C148.296 75.1773 148.254 75.7761 148.238 75.9064C148.231 75.9696 148.092 76.7388 147.178 76.5262ZM147.204 74.6879C147.23 74.6943 147.256 74.6986 147.283 74.7062C147.261 74.699 147.235 74.6947 147.204 74.6879Z" fill="black"/>
</svg>
