<svg width="288" height="130" viewBox="0 0 288 130" fill="none" xmlns="http://www.w3.org/2000/svg">
<path fill-rule="evenodd" clip-rule="evenodd" d="M273.072 5.2209C257.839 23.5563 232.989 39.4523 204.438 52.5771C161.321 72.3977 109.756 85.9062 69.6498 91.91C44.4432 95.6851 28.6336 93.0591 4.93868 93.3997C3.97887 93.4138 2.90466 93.9457 2.53952 94.5883C2.17349 95.2284 2.65562 95.7407 3.61457 95.7241C27.5867 95.3797 43.6072 97.9887 69.1083 94.1706C109.773 88.0827 162.056 74.3693 205.779 54.2717C235.118 40.7853 260.605 24.4215 276.261 5.57878C276.789 4.94395 276.505 4.34972 275.625 4.2508C274.744 4.15187 273.6 4.58608 273.072 5.2209Z" fill="black"/>
<path fill-rule="evenodd" clip-rule="evenodd" d="M2.69405 97.2824C2.77723 97.2843 3.336 97.2889 3.7824 97.3265C5.63941 97.4747 8.7274 97.9445 12.4691 98.7073C25.0092 101.277 44.8453 107.152 49.6811 115.946C49.9603 116.453 50.9872 116.543 51.975 116.149C52.9628 115.754 53.5404 115.025 53.2612 114.518C48.2296 105.368 27.7634 99.1339 14.7134 96.4625C12.9646 96.1056 11.3498 95.808 9.92364 95.5783C15.2004 94.3867 20.4642 93.2769 25.7393 92.1994C40.9248 89.1005 54.2311 84.5553 68.4336 77.8796C69.3832 77.4347 69.8438 76.6957 69.4575 76.2363C69.0757 75.7753 67.9885 75.7641 67.0397 76.2114C53.369 82.6355 40.5577 87.0163 25.9411 90.0002C19.0477 91.4091 12.1638 92.8757 5.26095 94.4954C4.57398 94.6565 2.78869 95.0867 2.53891 95.1697C1.11392 95.6422 0.97798 96.3804 0.961464 96.541C0.952355 96.6188 0.935019 97.5653 2.69405 97.2824ZM3.29987 95.0136C3.2512 95.022 3.20164 95.0279 3.14836 95.0379C3.19156 95.0286 3.24112 95.0227 3.29987 95.0136Z" fill="black"/>
</svg>
