<svg width="28" height="23" viewBox="0 0 28 23" fill="none" xmlns="http://www.w3.org/2000/svg">
<path d="M2.47353 19.6934C4.39871 21.8401 7.31186 22.9283 11.1307 22.9283H12.5028V18.9496L11.3996 18.7223C9.51971 18.3356 8.21202 17.5749 7.5122 16.4585C7.14705 15.857 6.93996 15.1684 6.91118 14.4599L11.1307 14.4599C11.4946 14.4599 11.8436 14.3112 12.1009 14.0465C12.3583 13.7819 12.5028 13.4229 12.5028 13.0485V3.16879C12.5028 1.61202 11.272 0.346006 9.75847 0.346006H1.52535C1.16142 0.346006 0.812399 0.494705 0.555064 0.759392C0.297729 1.02408 0.153159 1.38307 0.153159 1.7574L0.153159 8.81436L0.157276 12.9342C0.144926 13.0909 -0.115789 16.8028 2.47353 19.6934ZM24.8525 0.346006H16.6194C16.2555 0.346006 15.9065 0.494705 15.6491 0.759392C15.3918 1.02408 15.2472 1.38307 15.2472 1.7574L15.2472 8.81436L15.2513 12.9342C15.239 13.0909 14.9783 16.8028 17.5676 19.6934C19.4928 21.8401 22.4059 22.9283 26.2247 22.9283H27.5969V18.9496L26.4937 18.7223C24.6138 18.3356 23.3061 17.5749 22.6063 16.4585C22.2411 15.857 22.034 15.1684 22.0052 14.4599L26.2247 14.4599C26.5886 14.4599 26.9377 14.3112 27.195 14.0465C27.4523 13.7819 27.5969 13.4229 27.5969 13.0485L27.5969 3.16879C27.5969 1.61202 26.3661 0.346006 24.8525 0.346006Z" fill="#EDECE5"/>
</svg>
