<svg width="174" height="191" viewBox="0 0 174 191" fill="none" xmlns="http://www.w3.org/2000/svg">
<g opacity="0.3" clip-path="url(#clip0_1487_4810)">
<path fill-rule="evenodd" clip-rule="evenodd" d="M23.6109 88.7197C30.0535 100.539 42.842 108.304 57.8324 112.083C80.231 117.726 107.529 114.488 125.668 102.874C126.04 102.629 126.226 102.105 126.084 101.706C125.94 101.297 125.524 101.166 125.146 101.408C107.288 112.84 80.4113 115.973 58.3557 110.409C43.7041 106.719 31.1678 99.1959 24.8749 87.6382C24.6764 87.2703 24.2344 87.2195 23.8828 87.5182C23.5407 87.8117 23.4124 88.3518 23.6109 88.7197Z" fill="black"/>
<path fill-rule="evenodd" clip-rule="evenodd" d="M148.66 96.238C137.947 102.385 128.187 106.595 118.973 117.275C118.666 117.639 118.618 118.177 118.881 118.48C119.133 118.789 119.593 118.747 119.897 118.391C130.037 106.641 140.864 102.884 152.894 95.5139C153.543 95.1129 153.495 94.5257 153.474 94.3885C153.445 94.1841 153.341 93.8837 152.965 93.8151C152.89 93.8019 152.738 93.8014 152.521 93.8368C152.103 93.9154 151.254 94.1579 150.871 94.2238C149.766 94.4033 148.668 94.5492 147.563 94.7287C144.403 95.242 141.254 95.7141 138.118 95.9171C126.382 96.6988 116.778 97.4261 108.925 88.1231C108.666 87.8118 108.213 87.8567 107.9 88.2176C107.596 88.5733 107.555 89.1137 107.811 89.4146C115.932 99.042 125.821 98.4268 137.957 97.6234C141.134 97.4101 144.327 96.9383 147.517 96.4199C147.9 96.3541 148.28 96.296 148.66 96.238Z" fill="black"/>
</g>
<defs>
<clipPath id="clip0_1487_4810">
<rect width="154.431" height="122.312" fill="white" transform="translate(0.335449 142.627) rotate(-66.9637)"/>
</clipPath>
</defs>
</svg>
