<svg width="44" height="28" viewBox="0 0 44 28" fill="none" xmlns="http://www.w3.org/2000/svg">
<path d="M1 13.5C0.723858 13.5 0.5 13.7239 0.5 14C0.5 14.2761 0.723858 14.5 1 14.5L1 13.5ZM32.3536 14.3536C32.5488 14.1583 32.5488 13.8417 32.3536 13.6464L29.1716 10.4645C28.9763 10.2692 28.6597 10.2692 28.4645 10.4645C28.2692 10.6597 28.2692 10.9763 28.4645 11.1716L31.2929 14L28.4645 16.8284C28.2692 17.0237 28.2692 17.3403 28.4645 17.5355C28.6597 17.7308 28.9763 17.7308 29.1716 17.5355L32.3536 14.3536ZM1 14.5L32 14.5L32 13.5L1 13.5L1 14.5Z" fill="black"/>
<circle cx="30" cy="14" r="13.5" transform="rotate(-180 30 14)" stroke="black"/>
</svg>
