<svg width="228" height="222" viewBox="0 0 228 222" fill="none" xmlns="http://www.w3.org/2000/svg">
<g opacity="0.3" clip-path="url(#clip0_1487_4800)">
<path fill-rule="evenodd" clip-rule="evenodd" d="M111.931 87.4667C111.897 83.169 110.211 79.2524 106.329 76.1264C94.3182 66.4566 80.0406 68.5585 66.4571 76.284C46.6231 87.5653 28.3151 111.003 21.3306 125.964C20.9989 126.672 21.3124 127.426 22.0256 127.649C22.7405 127.874 23.5887 127.482 23.9204 126.774C30.6985 112.253 48.445 89.4894 67.6934 78.5397C80.166 71.4464 93.2939 69.3818 104.324 78.2648C107.609 80.9061 109.019 84.2173 109.057 87.8497C106.517 88.2129 104.012 88.6382 101.547 89.1265C94.7425 90.4759 77.5917 96.9492 67.231 105.235C59.8003 111.18 55.8634 118.047 60.3872 124.675C62.9026 128.358 67.3312 129.357 72.6778 128.284C80.0288 126.813 89.216 121.309 96.8332 114.178C103.176 108.242 108.424 101.196 110.693 94.5043C111.189 93.0331 111.549 91.5788 111.747 90.1551C146.998 85.7417 187.531 93.4729 213.851 111.183C214.452 111.584 215.351 111.411 215.86 110.785C216.37 110.163 216.295 109.33 215.696 108.927C188.945 90.9298 147.791 83.0373 111.931 87.4667ZM108.849 90.5468C106.461 90.8931 104.106 91.2961 101.787 91.7565C95.2665 93.0515 78.8367 99.253 68.9102 107.192C62.8178 112.063 59.135 117.594 62.8423 123.027C64.7913 125.878 68.2915 126.484 72.4316 125.658C76.9856 124.744 82.2739 122.13 87.3987 118.539C95.1794 113.086 102.575 105.373 106.409 97.7206C107.625 95.2967 108.477 92.8781 108.849 90.5468Z" fill="black" fill-opacity="0.8"/>
<path fill-rule="evenodd" clip-rule="evenodd" d="M160.67 117.864C176.724 110.686 197.654 109.049 214.196 111.125C214.957 111.221 215.736 110.7 215.935 109.965C216.134 109.23 215.68 108.553 214.92 108.458C197.861 106.315 176.279 108.06 159.728 115.459C158.987 115.79 158.595 116.598 158.856 117.263C159.115 117.926 159.929 118.195 160.67 117.864Z" fill="black" fill-opacity="0.8"/>
<path fill-rule="evenodd" clip-rule="evenodd" d="M215.093 108.15C202.984 102.724 192.981 88.9278 189.419 76.4891C189.222 75.7988 188.443 75.4605 187.682 75.7387C186.919 76.0141 186.461 76.7952 186.658 77.4854C190.39 90.5163 200.929 104.921 213.615 110.607C214.287 110.909 215.166 110.602 215.576 109.925C215.983 109.245 215.768 108.451 215.093 108.15Z" fill="black" fill-opacity="0.8"/>
</g>
<defs>
<clipPath id="clip0_1487_4800">
<rect width="151.215" height="173.963" fill="white" transform="translate(146.626 0.547241) rotate(57.4434)"/>
</clipPath>
</defs>
</svg>
