<svg width="198" height="198" viewBox="0 0 198 198" fill="none" xmlns="http://www.w3.org/2000/svg">
<path d="M70.3438 25.2566C28.7578 32.934 5.48058 110.937 47.4841 138.94" stroke="black" stroke-opacity="0.5" stroke-width="16" stroke-linecap="round" stroke-linejoin="round"/>
<path d="M128.564 23.9771C185.505 27.1761 202.14 128.902 128.564 141.698" stroke="black" stroke-opacity="0.5" stroke-width="16" stroke-linecap="round" stroke-linejoin="round"/>
<path d="M104.048 25.8966C50.5091 20.1385 22.8061 111.835 64.8097 139.838" stroke="black" stroke-opacity="0.5" stroke-width="16" stroke-linecap="round" stroke-linejoin="round"/>
<path d="M49.221 117.078C43.4158 117.159 37.6792 117.429 31.9468 115.868" stroke="black" stroke-opacity="0.5" stroke-width="16" stroke-linecap="round" stroke-linejoin="round"/>
<path d="M44.4683 84.1814C38.6369 84.1814 32.9495 84.1814 27.1941 84.1814" stroke="black" stroke-opacity="0.5" stroke-width="16" stroke-linecap="round" stroke-linejoin="round"/>
<path d="M174.629 70.0417C171.173 70.0417 167.803 70.0417 164.392 70.0417" stroke="black" stroke-opacity="0.5" stroke-width="16" stroke-linecap="round" stroke-linejoin="round"/>
<path d="M173.349 105.87C169.893 105.87 166.523 105.87 163.112 105.87" stroke="black" stroke-opacity="0.5" stroke-width="16" stroke-linecap="round" stroke-linejoin="round"/>
<path d="M55.2703 47.3118C51.0952 47.0981 47.1596 46.8966 43.0378 46.6857" stroke="black" stroke-opacity="0.5" stroke-width="16" stroke-linecap="round" stroke-linejoin="round"/>
<path d="M36.1068 132.873C34.1732 135.072 19.8 172.312 19.8 172.312C19.8 172.312 105.496 166.961 143.049 174.967" stroke="black" stroke-opacity="0.5" stroke-width="16" stroke-linecap="round" stroke-linejoin="round"/>
<path d="M117.302 23.9771C195.742 46.3696 173.349 153.854 85.0588 143.617" stroke="black" stroke-opacity="0.5" stroke-width="16" stroke-linecap="round" stroke-linejoin="round"/>
<path d="M107.132 49.0307C123.174 40.0722 136.399 59.1921 123.419 70.8147C108.64 84.0481 96.2051 62.4002 107.132 51.4737" stroke="black" stroke-opacity="0.9" stroke-width="16" stroke-linecap="round" stroke-linejoin="round"/>
<path d="M106.456 79.2181C109.714 109.553 114.875 99.7918 128.67 100.729" stroke="black" stroke-opacity="0.9" stroke-width="16" stroke-linecap="round" stroke-linejoin="round"/>
<path d="M106.456 79.2181C84.9277 85.5835 94.169 81.8759 83.1272 98.4383" stroke="black" stroke-opacity="0.9" stroke-width="16" stroke-linecap="round" stroke-linejoin="round"/>
<path d="M106.457 79.2181C104.763 85.9453 102.055 129.97 76.1082 138.156" stroke="black" stroke-opacity="0.9" stroke-width="16" stroke-linecap="round" stroke-linejoin="round"/>
<path d="M100.162 111.274C111.076 120.672 110.237 131.429 114.513 140.591" stroke="black" stroke-opacity="0.9" stroke-width="16" stroke-linecap="round" stroke-linejoin="round"/>
<path d="M87.1822 101.666C83.0844 98.6585 79.5855 97.192 77.8735 100.96" stroke="black" stroke-opacity="0.9" stroke-width="16" stroke-linecap="round" stroke-linejoin="round"/>
<path d="M73.6987 100.729C88.7833 103.877 99.4999 103.063 91.7676 120.223C89.3854 125.51 68.4924 119.155 65.0457 116.856C61.6601 114.599 67.0476 103.478 69.1814 100.729" stroke="black" stroke-opacity="0.9" stroke-width="16" stroke-linecap="round" stroke-linejoin="round"/>
</svg>
