<svg width="335" height="253" viewBox="0 0 335 253" fill="none" xmlns="http://www.w3.org/2000/svg">
<path d="M53.2467 22.6199C60.3898 15.6825 65.8151 12.2254 75.8676 9.40946C118.312 -2.48019 125.349 64.2471 93.2761 82.2147C51.9617 105.357 21.3525 53.5245 50.4405 29.7549" stroke="black" stroke-opacity="0.9" stroke-width="16" stroke-linecap="round" stroke-linejoin="round"/>
<path d="M121.249 32.0336C125.711 30.5742 130.099 30.5742 134.414 32.0336C138.729 33.493 148.968 37.3177 165.132 43.5076L114.667 102.05" stroke="black" stroke-opacity="0.9" stroke-width="16" stroke-linecap="round" stroke-linejoin="round"/>
<path d="M42.2884 73.3763C25.3447 97.9251 16.1558 110.953 14.7219 112.461C12.571 114.723 5.40309 120.401 8.98702 120.401C11.3763 120.401 28.6339 119.458 60.7599 117.572" stroke="black" stroke-opacity="0.9" stroke-width="16" stroke-linecap="round" stroke-linejoin="round"/>
<path fill-rule="evenodd" clip-rule="evenodd" d="M63.0537 117.081C73.8002 114.003 82.2112 111.817 88.2867 110.525C94.3622 109.232 102.773 106.407 113.52 102.05V177.963L92.5545 183.484L63.0537 117.081Z" stroke="black" stroke-opacity="0.9" stroke-width="16" stroke-linecap="round" stroke-linejoin="round"/>
<path d="M113.52 177.749C151.851 146.32 175.355 129.595 184.031 127.575C204.33 122.849 257.217 164.608 279.065 173.925L295.885 164.1" stroke="black" stroke-opacity="0.9" stroke-width="16" stroke-linecap="round" stroke-linejoin="round"/>
<path d="M316.53 161.476L296.325 173.56L222.726 121.548L92.8745 182.337" stroke="black" stroke-opacity="0.9" stroke-width="16" stroke-linecap="round" stroke-linejoin="round"/>
<path d="M90.5806 189.219L173.161 154.81" stroke="black" stroke-opacity="0.9" stroke-width="16" stroke-linecap="round" stroke-linejoin="round"/>
<path opacity="0.503384" d="M133.438 174.308L136.459 227.626L105.491 245.419" stroke="black" stroke-opacity="0.9" stroke-width="14" stroke-linecap="round" stroke-linejoin="round"/>
<path opacity="0.503384" d="M134.165 227.068L169.721 243.866" stroke="black" stroke-opacity="0.9" stroke-width="14" stroke-linecap="round" stroke-linejoin="round"/>
<path opacity="0.503384" d="M247.713 244.272C247.713 215.515 247.713 198.884 247.713 194.379C247.713 187.621 247.64 176.648 249.905 175.568C252.17 174.488 321.43 173.636 324.795 175.053C328.16 176.47 327.999 205.581 327.999 208.328C327.999 210.159 327.999 222.081 327.999 244.093" stroke="black" stroke-opacity="0.9" stroke-width="14" stroke-linecap="round" stroke-linejoin="round"/>
</svg>
