<svg width="362" height="33" viewBox="0 0 362 33" fill="none" xmlns="http://www.w3.org/2000/svg">
<path fill-rule="evenodd" clip-rule="evenodd" d="M216.646 15.0724C168.47 15.6585 120.27 17.9837 72.3045 22.1398C49.5 24.1161 23.0171 23.869 0.899575 30.6069C-0.202485 30.946 0.00739848 31.9633 0.0312526 32.065C0.0789608 32.2733 0.279387 32.9659 1.15722 32.9998C1.25263 33.0047 1.92527 32.9078 2.1829 32.8739C8.71415 32.002 15.2216 30.9848 21.7576 30.1613C44.3236 27.3083 66.9564 25.1527 89.6225 23.2636C119.707 20.7544 150.05 19.4175 180.216 18.3712C196.728 17.7996 213.635 18.5601 230.2 17.3781C236.282 17.3442 242.365 17.3395 248.448 17.3589C273.876 17.4509 299.276 18.4294 324.662 19.7711C332.825 20.2022 339.051 20.6673 347.042 20.9821C350.076 21.1032 354.89 21.1856 358.239 21.2389C358.73 21.2485 359.985 21.2581 360.505 21.263C360.558 21.2727 360.61 21.2727 360.667 21.2727C360.868 21.2727 360.963 21.2581 360.982 21.2581C362.118 21.0886 362.013 19.9987 361.984 19.834C361.979 19.8001 361.808 18.8798 360.83 18.8459C360.596 18.8362 358.921 18.8266 358.277 18.8169C354.947 18.7636 350.152 18.6813 347.133 18.565C339.156 18.2501 332.935 17.7851 324.786 17.354C299.362 16.0122 273.924 15.0289 248.458 14.9369C245.347 14.9272 242.232 14.9224 239.121 14.9272C239.016 14.6511 238.782 14.3411 238.267 14.2055C237.785 14.0795 234.336 13.9681 233.005 13.8567C223.153 13.0332 223.444 13.072 212.605 12.3987C196.188 11.3766 193.688 11.144 176.614 10.7129C145.599 9.92816 114.569 9.99122 83.5493 10.0687C68.235 10.1123 51.8376 11.1634 36.2895 9.20164C41.4134 8.5913 46.5563 8.14567 51.6897 7.63705C69.2177 5.90293 86.7601 4.82752 104.36 4.07187C146.577 2.26024 188.86 1.53855 231.063 4.00895C222.08 4.09614 213.101 4.29953 204.118 4.43031C167.549 4.97283 130.628 4.56599 94.1357 7.38031C93.4821 7.43359 92.9908 8.01483 93.0385 8.67845C93.0862 9.34692 93.6634 9.84587 94.317 9.79743C130.761 6.9831 167.63 7.3948 204.151 6.85228C217.719 6.65368 231.283 6.29526 244.851 6.40183C249.507 6.44058 254.163 6.61499 258.82 6.67312C259.741 6.68765 262.112 6.87172 262.45 6.79421C263.199 6.62468 263.362 6.06274 263.409 5.78664C263.433 5.62194 263.509 4.67253 262.364 4.33346C254.55 2.01806 240.128 2.12462 232.533 1.66929C189.81 -0.89799 147.001 -0.181107 104.259 1.6499C86.617 2.4104 69.0317 3.49066 51.456 5.22963C45.3159 5.83512 39.1616 6.35826 33.0454 7.16236C32.0578 7.29314 29.8394 7.48209 28.766 7.68069C28.3175 7.76304 27.9931 7.87921 27.8499 7.96156C27.2918 8.28126 27.1916 8.74629 27.1916 9.06114C27.1868 9.30334 27.287 10.1559 28.4558 10.3884C46.2653 13.9293 65.6444 12.5391 83.5541 12.4907C114.555 12.4132 145.56 12.3501 176.556 13.1348C193.588 13.566 196.079 13.7937 212.462 14.8158C214.079 14.9127 215.448 14.9998 216.646 15.0724Z" fill="#B584E6"/>
</svg>
