<svg width="65" height="69" viewBox="0 0 65 69" fill="none" xmlns="http://www.w3.org/2000/svg">
<path fill-rule="evenodd" clip-rule="evenodd" d="M25.7275 13.7946C25.54 12.6821 25.3988 11.5822 25.3075 10.4822C25.17 8.83223 25.255 7.16962 25.2063 5.51962C25.185 4.81962 25.1013 2.99464 25.135 2.73214C25.4413 0.444643 27.2875 0.0946001 27.8275 0.0321001C28.0887 -0.00539991 30.7712 -0.305266 31.35 2.66973C32.06 6.30723 32.2875 9.96969 32.0363 13.5572C32.6225 16.6072 33.625 19.6446 34.9488 22.3946C40.2163 33.3321 50.2537 34.3946 61.1287 34.2946C62.8012 34.2696 64.19 35.5821 64.2775 37.2446C64.365 38.9196 63.12 40.3696 61.455 40.5196C55.3763 41.1071 44.5912 45.9822 40.8625 51.0572C40.0825 52.1197 39.6287 54.6822 39.0287 57.1947C38.1912 60.6822 37.195 64.1322 36.0788 65.5822C35.9113 65.8072 33.875 68.1072 33.2675 68.4447C31.8075 69.2447 30.6388 68.7821 29.975 68.3571C29.3113 67.9321 28.56 67.0946 28.26 65.7071C27.9463 64.2571 28.2113 61.2821 28.1625 60.6446C27.985 58.3321 27.5225 53.7946 26.5788 49.8946C26.07 47.7946 25.5275 45.8571 24.63 44.8946C21.3075 41.3321 15.995 41.8572 11.5213 42.4447C11.0075 42.5072 10.4938 42.5822 9.98127 42.6447C8.16002 43.1822 6.22622 43.5821 4.18247 43.8196C1.09622 44.1821 0.588759 41.3446 0.561259 41.1571C0.503759 40.7446 0.289986 38.6197 2.61624 37.7697C2.86999 37.6822 4.74251 37.2696 5.46376 37.1071C6.46876 36.8821 7.48498 36.7072 8.50498 36.5447C19.0412 33.2697 24.7638 24.0696 25.7275 13.7946ZM29.3438 25.1572C33.3213 33.3822 39.3575 37.3572 46.5125 39.1572H46.5113C42.0438 41.4947 37.98 44.4197 35.8262 47.3572C35.0087 48.4697 34.2588 50.7072 33.5825 53.2197C33.2163 50.8822 32.7213 48.3946 32.0675 46.2696C31.3238 43.8446 30.3225 41.8322 29.205 40.6322C27.0475 38.3197 24.34 37.0322 21.4287 36.3947C24.9137 33.3072 27.5563 29.4572 29.3438 25.1572Z" fill="black"/>
</svg>
