<svg width="175" height="164" viewBox="0 0 175 164" fill="none" xmlns="http://www.w3.org/2000/svg">
<g clip-path="url(#clip0_1487_4792)">
<path fill-rule="evenodd" clip-rule="evenodd" d="M34.4503 128.438C38.2535 116.467 47.2882 104.995 58.7064 94.7675C75.9506 79.3229 98.6327 66.713 117.184 59.4936C128.843 54.9553 137.164 54.9795 148.772 52.5575C149.242 52.4592 149.664 52.0525 149.714 51.6488C149.765 51.2465 149.424 50.9973 148.955 51.0969C137.211 53.5472 128.789 53.5526 116.994 58.1433C98.1844 65.4634 75.1898 78.2586 57.7033 93.9194C45.9699 104.428 36.7156 116.229 32.8068 128.532C32.6749 128.946 32.9346 129.261 33.3885 129.236C33.8423 129.21 34.3185 128.853 34.4503 128.438Z" fill="black"/>
<path fill-rule="evenodd" clip-rule="evenodd" d="M151.525 50.1665C151.484 50.1732 151.207 50.2231 150.98 50.2434C150.035 50.3327 148.418 50.3527 146.42 50.2658C139.721 49.9668 128.76 48.4534 124.6 43.8527C124.36 43.5874 123.836 43.632 123.429 43.9516C123.022 44.2711 122.884 44.7446 123.124 45.01C127.452 49.797 138.797 51.4575 145.768 51.7671C146.702 51.8079 147.557 51.8273 148.307 51.8254C145.947 53.0061 143.577 54.1386 141.195 55.2536C134.338 58.4617 128.699 62.3246 123.049 67.4965C122.671 67.8414 122.593 68.3095 122.876 68.5373C123.157 68.7664 123.695 68.6707 124.072 68.3244C129.512 63.3472 134.94 59.6253 141.54 56.5368C144.653 55.0792 147.749 53.5894 150.823 52.0098C151.129 51.8526 151.922 51.4376 152.028 51.3664C152.635 50.9609 152.553 50.5238 152.529 50.4299C152.517 50.3843 152.335 49.8386 151.525 50.1665ZM151.685 51.5276C151.707 51.5182 151.73 51.5102 151.755 51.4994C151.735 51.5088 151.712 51.5169 151.685 51.5276Z" fill="black"/>
</g>
<defs>
<clipPath id="clip0_1487_4792">
<rect width="98.5128" height="143.47" fill="white" transform="translate(56.4338 163.299) rotate(-124.521)"/>
</clipPath>
</defs>
</svg>
