<svg width="156" height="41" viewBox="0 0 156 41" fill="none" xmlns="http://www.w3.org/2000/svg">
<g clip-path="url(#clip0_22_809)">
<path d="M39.9424 29.2332V13.2782H42.0063L51.7698 26.1309V13.2785H53.7215V29.2332H51.6578L41.8952 16.2675V29.2332H39.9424ZM69.5645 28.6082C68.2781 29.1 66.8901 29.345 65.4027 29.345C59.6241 29.345 56.7335 26.5743 56.7335 21.0328C56.7335 15.7888 59.523 13.1664 65.1008 13.1664C66.7011 13.1664 68.1891 13.3902 69.5642 13.8372V15.6219C68.1888 15.1011 66.7747 14.8407 65.3239 14.8407C60.9732 14.8407 58.7984 16.9052 58.7984 21.0328C58.7984 25.4581 60.9392 27.6719 65.2249 27.6719C65.9083 27.6719 66.6669 27.5823 67.5005 27.4031V21.9812H69.5645V28.6082ZM72.8563 23.0744V13.2791H74.9185V23.0741C74.9185 26.1385 76.444 27.6726 79.4939 27.6726C82.5432 27.6726 84.0688 26.1385 84.0688 23.0741V13.2791H86.1324V23.0741C86.1324 27.2559 83.9198 29.3456 79.4942 29.3456C75.0687 29.3456 72.856 27.2562 72.856 23.0744H72.8563ZM91.8779 13.2782V27.5602H100.225V29.2332H89.8152V13.2782H91.8779ZM103.203 29.2335H101.061L108.994 11.174L116.926 29.2335H114.64L112.574 24.212H107.299L107.867 22.5405H111.884L108.905 15.3094L103.203 29.2335ZM119.102 29.2332V13.2782H125.908C128.943 13.2782 130.46 14.5545 130.46 17.1051C130.46 19.1809 128.977 20.717 126.009 21.7126L131.487 29.2332H128.764L123.689 22.0597V20.7107C126.738 20.2259 128.262 19.0543 128.262 17.1956C128.262 15.7234 127.414 14.9857 125.719 14.9857H121.166V29.2338H119.102V29.2332ZM139.219 13.2782V24.6366C139.219 27.701 137.415 29.2332 133.807 29.2332V27.5596C136.039 27.5596 137.155 26.5843 137.155 24.6366V13.2782H139.219ZM142.901 28.6752V26.7784C144.575 27.3731 146.382 27.6716 148.324 27.6716C151.068 27.6716 152.441 26.6675 152.441 24.6575C152.441 22.9496 151.429 22.0921 149.406 22.0921H147.352C144.013 22.0921 142.342 20.6425 142.342 17.7413C142.342 14.692 144.482 13.1658 148.76 13.1658C150.619 13.1658 152.348 13.3908 153.947 13.8366V15.7334C152.347 15.1377 150.619 14.8401 148.76 14.8401C145.858 14.8401 144.408 15.8075 144.408 17.7413C144.408 19.4513 145.389 20.307 147.352 20.307H149.406C152.804 20.307 154.505 21.7584 154.505 24.6575C154.505 27.7825 152.445 29.345 148.323 29.345C146.382 29.345 144.575 29.1209 142.901 28.6752Z" fill="#CCCCCC"/>
<path d="M40.4648 28.7121V12.757H42.5285L52.2911 25.6101V12.757H54.2439V28.7121H52.18L42.4168 15.746V28.7118H40.4648V28.7121ZM70.0866 28.0871C68.8003 28.5788 67.4131 28.8235 65.9251 28.8235C60.146 28.8235 57.256 26.0534 57.256 20.5114C57.256 15.2676 60.0455 12.6449 65.6244 12.6449C67.2233 12.6449 68.7116 12.869 70.0866 13.3154V15.1001C68.7113 14.5793 67.2971 14.3189 65.8473 14.3189C61.4965 14.3189 59.3211 16.3838 59.3211 20.5114C59.3211 24.9366 61.4629 27.1505 65.7474 27.1505C66.4311 27.1505 67.1906 27.0612 68.0239 26.8816V21.4595H70.0869L70.0866 28.0871ZM73.3782 22.5526V12.7561H75.4406V22.5526C75.4406 25.6171 76.9662 27.1499 80.0161 27.1499C83.0654 27.1499 84.5906 25.6165 84.5906 22.5526V12.7561H86.6543V22.5526C86.6543 26.7341 84.4417 28.8229 80.0164 28.8229C75.5908 28.8229 73.3782 26.7344 73.3782 22.5526ZM92.4004 12.7561V27.0381H100.746V28.7112H90.3374V12.7561H92.4004ZM103.725 28.7118H101.583L109.516 10.6509L117.449 28.7118H115.161L113.097 23.6906H107.82L108.39 22.0175H112.405L109.427 14.7864L103.725 28.7118ZM119.624 28.7121V12.757H126.43C129.466 12.757 130.981 14.0324 130.981 16.5839C130.981 18.6588 129.499 20.1958 126.531 21.1912L132.009 28.7121H129.285L124.21 21.5379V20.1877C127.26 19.7032 128.785 18.5328 128.785 16.6726C128.785 15.2007 127.936 14.4642 126.24 14.4642H121.688V28.7121H119.624Z" fill="black"/>
<path d="M139.741 12.7561V24.1148C139.741 27.1802 137.937 28.7112 134.329 28.7112V27.0379C136.561 27.0379 137.677 26.0619 137.677 24.1142V12.7558H139.741L139.741 12.7561ZM143.422 28.1531V26.2566C145.096 26.8513 146.903 27.1499 148.845 27.1499C151.589 27.1499 152.962 26.1452 152.962 24.1366C152.962 22.4276 151.95 21.5709 149.927 21.5709H147.873C144.534 21.5709 142.863 20.1205 142.863 17.2193C142.863 14.17 145.002 12.6438 149.281 12.6438C151.139 12.6438 152.869 12.8691 154.468 13.3148V15.2116C152.868 14.6157 151.139 14.3183 149.281 14.3183C146.379 14.3183 144.929 15.2855 144.929 17.2193C144.929 18.9295 145.909 19.785 147.873 19.785H149.927C153.325 19.785 155.026 21.2357 155.026 24.1363C155.026 27.261 152.966 28.8229 148.844 28.8229C146.903 28.8229 145.096 28.5988 143.422 28.1531Z" fill="#A6120D"/>
<path d="M18.7587 0.469602L0.125 7.02726L3.06983 31.4404L18.7787 40.0744L34.5684 31.3232L37.5117 6.91128L18.759 0.469299L18.7587 0.469602Z" fill="#B3B3B3"/>
<path d="M35.6532 8.32206L18.7158 2.54596V38.0117L32.9106 30.1556L35.6538 8.32206H35.6532Z" fill="#A6120D"/>
<path d="M2.21582 8.42622L4.73883 30.2597L18.7147 38.0117V2.54535L2.21582 8.42592V8.42622Z" fill="#DD1B16"/>
<path d="M23.3777 21.4259L18.7153 23.6061H13.801L11.4912 29.384L7.19434 29.4636L18.7153 3.8338L23.3777 21.4259ZM22.9268 20.3285L18.7462 12.0515L15.3169 20.1858H18.715L22.9271 20.3282L22.9268 20.3285Z" fill="#F2F2F2"/>
<path d="M18.7151 3.8338L18.746 12.0515L22.6371 20.1922H18.7239L18.7148 23.601L24.1264 23.6061L26.6554 29.4646L30.7667 29.5409L18.7148 3.8338H18.7151Z" fill="#B3B3B3"/>
</g>
<defs>
<clipPath id="clip0_22_809">
<rect width="155.039" height="40" fill="white" transform="translate(0 0.272461)"/>
</clipPath>
</defs>
</svg>
