<svg width="106" height="55" viewBox="0 0 106 55" fill="none" xmlns="http://www.w3.org/2000/svg">
<path fill-rule="evenodd" clip-rule="evenodd" d="M96.6582 27.9179C96.5643 27.7267 96.5256 27.6284 96.4759 27.5355C95.15 25.0448 93.8296 22.5595 92.4927 20.0743C92.3601 19.823 92.3767 19.6755 92.559 19.4625C94.6639 17.0319 96.7577 14.5903 98.857 12.1487C98.9288 12.0613 98.9951 11.9739 99.0227 11.821L97.1831 12.2962C94.6362 12.9626 92.0949 13.6289 89.5536 14.3008C89.3161 14.3609 89.2111 14.2953 89.0896 14.0987C87.6421 11.7117 86.1947 9.33025 84.7417 6.94876C84.6644 6.82313 84.587 6.70297 84.4268 6.59919C84.3108 7.23279 84.1893 7.87186 84.0788 8.50547L82.8689 15.2403C82.8247 15.4806 82.7639 15.7264 82.7418 15.9667C82.7197 16.1961 82.6037 16.2835 82.3883 16.3491C79.3884 17.2776 76.3941 18.2171 73.3998 19.1566C73.2672 19.2003 73.1401 19.2495 72.9965 19.3751C75.4494 20.3364 77.8968 21.3032 80.3884 22.281C80.3 22.352 80.2392 22.4066 80.1729 22.4503C78.6426 23.428 77.1068 24.4057 75.5765 25.3944C75.3942 25.5145 75.2505 25.5309 75.0406 25.4381C73.2119 24.6242 71.3723 23.8267 69.5381 23.0129C68.7149 22.6524 67.9747 22.1663 67.4001 21.4726C66.0963 19.894 66.356 18.1024 68.0907 17.01C68.6597 16.6495 69.3061 16.3819 69.9469 16.1743C72.886 15.2293 75.8306 14.3172 78.7752 13.3995C79.0238 13.3231 79.1343 13.2138 79.184 12.9516C79.5763 10.7067 79.9851 8.46177 80.3939 6.21684C80.6149 5.01517 80.7309 3.78619 81.322 2.6883C81.5485 2.26772 81.8192 1.8526 82.1452 1.49756C83.3164 0.213959 84.9461 0.1648 86.1836 1.38832C86.6035 1.80344 86.9626 2.28957 87.272 2.78662C88.6365 4.9824 89.9735 7.19456 91.3104 9.40672C91.4651 9.6689 91.6088 9.72352 91.9016 9.64159C95.1887 8.77311 98.4758 7.91556 101.763 7.05254C102.442 6.87776 103.127 6.81221 103.824 6.93784C105.337 7.21641 106 8.35799 105.492 9.80546C105.26 10.4664 104.857 11.0235 104.404 11.5479C102.111 14.2189 99.8183 16.8898 97.5145 19.5499C97.3267 19.7684 97.3212 19.9268 97.4538 20.1671C98.8294 22.7289 100.188 25.2906 101.553 27.8578C101.879 28.4695 102.128 29.1086 102.139 29.8132C102.155 31.4136 100.967 32.7245 99.3597 32.9594C98.4592 33.0905 97.6195 32.8993 96.7742 32.6426C94.7136 32.0145 92.6529 31.3918 90.5867 30.78C90.3934 30.7254 90.3215 30.6489 90.2884 30.4468C90.0508 29.0103 89.7912 27.5792 89.5426 26.1427C89.5371 26.1044 89.5481 26.0607 89.5536 25.9734C91.9016 26.6179 94.2329 27.2515 96.6582 27.9179Z" fill="#E25C26"/>
<path fill-rule="evenodd" clip-rule="evenodd" d="M92.6416 48.8378C90.7853 48.8323 88.9235 48.8269 87.0673 48.8323C86.8242 48.8323 86.6861 48.7613 86.548 48.5538C84.3492 45.2437 82.1394 41.9337 79.9295 38.6291C79.8577 38.5253 79.7859 38.4215 79.6588 38.2467C79.1837 41.819 78.7197 45.3093 78.2556 48.8105H73.3884C73.4437 48.3407 73.4934 47.8874 73.5542 47.4395C74.0293 43.8509 74.5044 40.2677 74.985 36.6791C75.4381 33.2543 75.8966 29.8241 76.3551 26.3994C76.3662 26.2956 76.438 26.17 76.5209 26.1153C78.1948 25.0338 79.8743 23.9687 81.5538 22.8927C81.5759 22.8763 81.6145 22.8763 81.6974 22.849C81.1891 26.6779 80.6864 30.4796 80.1781 34.2812C80.2002 34.2921 80.2168 34.3085 80.2389 34.3249C82.8741 31.4355 85.5094 28.546 88.2054 25.5964L88.4153 26.7981C88.6031 27.8851 88.7854 28.9775 88.9898 30.0645C89.0285 30.2829 88.9733 30.4195 88.8241 30.5724C87.1225 32.3367 85.421 34.1064 83.7249 35.8707C83.6531 35.9472 83.5813 36.0291 83.4929 36.1165C83.5481 36.2039 83.5923 36.2858 83.6476 36.3623L92.4427 48.5647C92.4979 48.6357 92.5698 48.6958 92.6361 48.7613C92.6416 48.7941 92.6416 48.8159 92.6416 48.8378ZM34.9706 38.2631C34.8987 37.8862 34.8435 37.34 34.6777 36.8266C33.8601 34.3413 31.2857 32.9758 28.6118 33.593C25.6837 34.2648 23.5899 36.5425 23.2861 39.4976C23.0596 41.6824 24.2529 43.7908 26.4682 44.5773C28.2527 45.2164 29.9653 44.9488 31.5619 44.0038C33.6723 42.753 34.8214 40.8904 34.9706 38.2631ZM22.1093 47.505C21.9657 48.5756 21.8276 49.5806 21.695 50.5911C21.5182 51.9294 21.3414 53.273 21.1702 54.6113C21.1481 54.7697 21.1039 54.8352 20.9326 54.8352C19.5957 54.8297 18.2587 54.8297 16.9218 54.8297C16.8941 54.8297 16.861 54.8134 16.7892 54.7915C16.872 54.1579 16.9494 53.5243 17.0323 52.8907C17.3251 50.6676 17.6234 48.4445 17.9217 46.2214C18.2642 43.6815 18.5349 41.1253 18.9714 38.6018C19.7448 34.1283 23.5844 30.2775 28.0869 29.3162C30.6945 28.759 33.1972 29.0157 35.4733 30.4687C37.7439 31.9161 39.0477 34.019 39.346 36.6627C39.7659 40.3988 38.3737 43.5013 35.6887 46.0685C33.9264 47.7563 31.816 48.8269 29.3797 49.1874C26.8715 49.5588 24.5125 49.1491 22.4021 47.6853C22.3248 47.6307 22.2419 47.587 22.1093 47.505ZM19.9327 26.2519C18.4355 27.3552 16.9881 28.4204 15.5406 29.4855C15.3086 29.1195 15.0987 28.759 14.8501 28.4204C14.2203 27.5519 13.4358 26.9019 12.3032 26.82C11.3585 26.7544 10.5464 27.0603 9.90556 27.754C9.33101 28.3712 9.25366 29.2451 9.78955 29.9443C10.3807 30.709 11.0326 31.4355 11.69 32.1455C12.7894 33.3199 13.933 34.4505 15.0268 35.6358C16.0213 36.7119 16.8113 37.919 17.0544 39.3883C17.3472 41.1362 16.9936 42.8021 16.1539 44.3425C14.607 47.1882 12.1651 48.8378 8.94981 49.3512C7.52999 49.5806 6.11018 49.5315 4.72351 49.1327C2.88383 48.5975 1.60213 47.4013 0.778965 45.7189C0.486163 45.1235 0.26518 44.4954 0 43.8563C1.61318 43.0042 3.17663 42.174 4.76771 41.3328C4.82295 41.4639 4.86163 41.5732 4.91135 41.6769C5.18205 42.2122 5.40303 42.7803 5.74003 43.2773C6.73446 44.7412 8.34211 45.1836 9.97186 44.4626C10.3917 44.2769 10.795 44.0147 11.1375 43.7143C12.1872 42.7912 12.3861 41.5076 11.6071 40.3496C11.1596 39.6833 10.6017 39.0879 10.0547 38.4871C8.75645 37.0614 7.40293 35.6795 6.13228 34.2266C5.25939 33.2216 4.66274 32.0527 4.47491 30.709C4.2705 29.2451 4.5633 27.8632 5.33674 26.6288C7.25377 23.5645 10.0382 21.9696 13.723 22.1007C15.8224 22.1772 17.4963 23.1494 18.7946 24.7607C19.1813 25.2359 19.5404 25.733 19.9327 26.2519ZM55.522 42.7093C55.2789 44.5555 55.0469 46.3088 54.8093 48.0622C54.7982 48.1496 54.7264 48.2697 54.6491 48.308C51.025 49.9684 46.2462 49.739 43.2685 46.3908C41.6663 44.5937 40.9979 42.4635 41.0973 40.0929C41.3293 34.6035 45.9313 29.8077 51.4393 29.1414C54.6546 28.7481 57.4777 29.6111 59.6599 32.08C61.146 33.7623 61.831 35.7724 61.7316 37.99C61.6653 39.4539 61.4333 40.9122 61.2454 42.3706C60.9858 44.4353 60.6985 46.5 60.4223 48.5647C60.4112 48.6357 60.4002 48.7122 60.3781 48.805H56.0413C56.0965 48.3298 56.1518 47.8655 56.2125 47.4013C56.5274 45.0143 56.87 42.6383 57.1462 40.2459C57.3175 38.7602 57.2125 37.2799 56.5219 35.9035C55.7927 34.4396 54.5607 33.664 52.9475 33.4947C49.6051 33.1451 46.4285 35.4392 45.7159 38.6892C45.2463 40.8358 45.9866 42.8895 47.7157 44.0311C49.4007 45.1399 51.2073 45.1399 53.0414 44.4244C53.9751 44.0639 54.7651 43.4849 55.522 42.7093ZM73.7862 29.5565C73.5873 31.0422 73.394 32.506 73.1951 34.0027C72.278 34.0027 71.3775 33.9972 70.477 34.0027C69.7477 34.0081 69.0848 34.4724 68.8638 35.1442C68.7754 35.4064 68.7478 35.6905 68.7091 35.9636C68.2506 39.3774 67.7976 42.7912 67.3446 46.2105C67.2285 47.0735 67.118 47.9311 67.002 48.805H62.4885C62.5713 48.1496 62.6542 47.5105 62.7371 46.8769C63.0299 44.6647 63.3227 42.4526 63.621 40.2404C63.8806 38.3287 64.1072 36.406 64.411 34.4997C64.8143 31.9434 67.3888 29.6712 70.0019 29.5619C71.2504 29.5128 72.499 29.5565 73.7862 29.5565Z" fill="#3D3B3E"/>
<path d="M97.9677 48.8105V46.926H97.9566L97.2108 48.8105H96.9733L96.2274 46.926H96.2164V48.8105H95.8407V46.5546H96.4208L97.1003 48.2697L97.7688 46.5546H98.3434V48.8105H97.9677ZM94.653 46.855V48.8105H94.2773V46.855H93.5646V46.5546H95.3711V46.855H94.653ZM25.9825 23.0839H27.104L26.8388 21.407L25.9825 23.0839ZM27.2752 24.1654H25.4135L24.8223 25.3124H23.502L26.4134 19.9377H27.6841L28.673 25.3124H27.452L27.2752 24.1654ZM33.9434 21.0192H33.2805L33.0595 22.2591H33.7224C34.1202 22.2591 34.4406 21.9969 34.4406 21.5108C34.4406 21.183 34.2362 21.0192 33.9434 21.0192ZM32.3357 19.9377H34.076C34.9875 19.9377 35.6284 20.473 35.6284 21.4015C35.6284 22.565 34.7997 23.346 33.6119 23.346H32.8606L32.507 25.3124H31.3745L32.3357 19.9377ZM39.4845 23.0839H40.606L40.3409 21.407L39.4845 23.0839ZM40.7828 24.1654H38.921L38.3299 25.3124H37.0095L39.921 19.9377H41.1916L42.1805 25.3124H40.9596L40.7828 24.1654ZM48.1416 25.1212C47.7604 25.296 47.335 25.3998 46.9096 25.3998C45.4732 25.3998 44.5672 24.3347 44.5672 22.9965C44.5672 21.2868 46.0201 19.8503 47.7493 19.8503C48.1802 19.8503 48.5725 19.9541 48.8929 20.1289L48.7327 21.4179C48.4951 21.1557 48.1084 20.9755 47.6278 20.9755C46.6389 20.9755 45.7549 21.8603 45.7549 22.8872C45.7549 23.6683 46.2521 24.2801 47.0366 24.2801C47.5173 24.2801 47.9813 24.0998 48.2907 23.8431L48.1416 25.1212ZM55.0804 23.1439H52.7159L52.3292 25.3069H51.1966L52.1579 19.9322H53.2905L52.9093 22.057H55.2738L55.655 19.9322H56.793L55.8318 25.3069H54.6992L55.0804 23.1439ZM59.2459 25.3124L60.2017 19.9377H63.2181L63.0248 21.0192H61.1464L60.953 22.0624H62.6767L62.4833 23.1439H60.7542L60.5608 24.2254H62.4392L62.2458 25.3069L59.2459 25.3124Z" fill="#3D3B3E"/>
</svg>
