<svg width="125" height="33" viewBox="0 0 125 33" fill="none" xmlns="http://www.w3.org/2000/svg">
<path d="M58.3553 9.60167C57.6934 9.58099 57.1555 10.0981 57.1349 10.7394V16.6967C54.301 14.4213 50.1433 14.8764 47.8679 17.7103C46.9371 18.8893 46.4199 20.3373 46.4199 21.8473C46.3579 25.4879 49.2538 28.4873 52.8944 28.5493C56.535 28.6114 59.5343 25.7154 59.5964 22.0748V10.8221C59.5964 10.4911 59.4723 10.1809 59.2447 9.95332C58.9965 9.72579 58.6862 9.60167 58.3553 9.60167ZM56.8039 23.4401C56.3902 24.433 55.6042 25.219 54.6113 25.6534C53.577 26.0878 52.4186 26.0878 51.3844 25.6534C50.3915 25.2397 49.6261 24.433 49.2124 23.4608C48.778 22.4472 48.778 21.2888 49.2124 20.2546C49.6261 19.2617 50.4122 18.4756 51.3844 18.0619C52.4186 17.6275 53.577 17.6275 54.6113 18.0619C55.6042 18.4963 56.3902 19.2824 56.8039 20.2752C57.2383 21.2681 57.2383 22.4265 56.8039 23.4401ZM72.1109 17.1931C69.546 14.6282 65.3676 14.6282 62.8026 17.1931C61.5615 18.4343 60.8789 20.1098 60.8789 21.8473C60.8168 25.4879 63.7128 28.4873 67.3533 28.5493C70.9939 28.6114 73.9933 25.7154 74.0554 22.0748V21.8473C74.0554 20.9785 73.8899 20.1304 73.5589 19.3237C73.2279 18.517 72.7315 17.793 72.1109 17.1931ZM71.2629 23.4194C71.056 23.9158 70.7457 24.3502 70.3734 24.7226C70.0011 25.0949 69.546 25.4052 69.0702 25.612C68.036 26.0464 66.8776 26.0464 65.8433 25.612C64.8504 25.1983 64.0644 24.3916 63.6507 23.4194C63.2163 22.4058 63.2163 21.2474 63.6507 20.2132C64.0644 19.2203 64.8504 18.4549 65.8433 18.0206C66.8776 17.5862 68.036 17.5862 69.0702 18.0206C69.5667 18.2274 70.0011 18.5377 70.3734 18.91C70.7457 19.2823 71.056 19.7374 71.2629 20.2132C71.6972 21.2681 71.6972 22.4265 71.2629 23.4194ZM99.3534 16.4692C99.3534 16.3037 99.312 16.1382 99.2499 15.9934C99.1879 15.8486 99.0844 15.7245 98.981 15.6004C98.8776 15.497 98.7328 15.3935 98.588 15.3315C98.4432 15.2694 98.2777 15.2281 98.1122 15.2281C97.8847 15.2281 97.6572 15.2901 97.4503 15.4142L90.4174 19.9856V10.8428C90.4174 10.5118 90.2932 10.2015 90.0657 9.97401C89.8382 9.74647 89.5279 9.60167 89.1969 9.60167C88.5143 9.60167 87.9765 10.1395 87.9558 10.8221V27.1841C87.9558 27.5151 88.0799 27.8253 88.3075 28.0529C88.535 28.3011 88.8453 28.4252 89.1762 28.4252C89.5072 28.4252 89.8175 28.3011 90.045 28.0529C90.2726 27.8253 90.4174 27.5151 90.3967 27.1841V22.9436L91.8239 22.0128L97.2642 28.1149C97.4917 28.3218 97.7813 28.4459 98.0916 28.4252C98.257 28.4252 98.4225 28.4045 98.5673 28.3218C98.7121 28.2597 98.8362 28.177 98.9603 28.0529C99.0638 27.9288 99.1672 27.8047 99.2292 27.6599C99.2913 27.5151 99.3327 27.3496 99.3327 27.1841C99.3327 26.8738 99.2086 26.5635 99.0017 26.336L93.9545 20.6476L98.8776 17.4414C99.2086 17.2345 99.374 16.8622 99.3534 16.4692ZM78.9371 18.91C79.3094 18.5377 79.7645 18.2274 80.2609 18.0206C80.778 17.8137 81.3159 17.6896 81.8744 17.6896C82.3708 17.6896 82.8466 17.7723 83.3016 17.9378C83.7567 18.124 84.1911 18.3722 84.5634 18.7032C84.791 18.8893 85.0806 18.9721 85.3702 18.9721C85.7011 18.9928 86.0321 18.8686 86.2596 18.6204C86.4872 18.3929 86.6113 18.0619 86.6113 17.731C86.6113 17.3793 86.4665 17.0277 86.1769 16.8001C84.9978 15.7452 83.4671 15.166 81.8744 15.2074C78.2338 15.2074 75.2758 18.1653 75.2758 21.8059C75.2758 25.4465 78.2131 28.3838 81.833 28.4045C83.4258 28.4045 84.9565 27.846 86.1562 26.8118C86.4044 26.5842 86.5492 26.2533 86.5492 25.9016C86.5699 25.2397 86.0528 24.7019 85.4115 24.6812H85.3288C85.0392 24.6812 84.7703 24.7639 84.5428 24.9294C84.1704 25.2604 83.7567 25.5086 83.3016 25.6948C82.8466 25.8602 82.3501 25.943 81.8744 25.943C81.3159 25.943 80.778 25.8396 80.2609 25.612C79.7645 25.4052 79.3301 25.0949 78.9371 24.7226C77.3236 23.1091 77.3236 20.5028 78.9164 18.8893C78.9371 18.9307 78.9371 18.9307 78.9371 18.91ZM123.783 16.0761C123.534 15.8486 123.265 15.6831 122.955 15.5797C122.604 15.4556 122.231 15.3728 121.859 15.3315C121.487 15.2901 121.114 15.2694 120.742 15.2694C119.997 15.2694 119.232 15.3935 118.529 15.6624C117.825 15.9107 117.184 16.283 116.605 16.7381V16.4898C116.584 15.8072 116.005 15.2901 115.322 15.3108C115.013 15.3211 114.719 15.4486 114.5 15.6676C114.281 15.8865 114.154 16.1804 114.143 16.4898V27.2255C114.164 27.9081 114.743 28.4252 115.426 28.4045C115.735 28.3942 116.029 28.2667 116.248 28.0477C116.467 27.8288 116.594 27.5349 116.605 27.2255V21.868C116.605 21.3095 116.708 20.7717 116.936 20.2546C117.143 19.7581 117.432 19.3237 117.825 18.9514C118.198 18.5791 118.653 18.2688 119.128 18.0619C119.646 17.8551 120.183 17.731 120.742 17.731C121.3 17.731 121.838 17.8344 122.355 18.0206C122.521 18.1033 122.686 18.1447 122.872 18.1447C123.038 18.1447 123.203 18.124 123.348 18.0412C123.493 17.9792 123.617 17.8964 123.741 17.7723C123.845 17.6689 123.948 17.5241 124.01 17.3793C124.072 17.2345 124.114 17.069 124.114 16.9035C124.134 16.5933 124.01 16.3037 123.783 16.0761ZM112.364 19.3237C111.309 16.8829 108.91 15.2901 106.262 15.2694C102.622 15.2694 99.6843 18.2067 99.6636 21.8473C99.6636 25.4879 102.622 28.4459 106.262 28.4459C107.834 28.4459 109.365 27.8874 110.565 26.8531L110.606 26.8118C110.71 26.729 110.813 26.6256 110.875 26.5015C111.268 25.9223 111.123 25.1569 110.565 24.7639C110.089 24.4536 109.468 24.5157 109.055 24.9087C109.013 24.9501 108.889 25.0535 108.889 25.0742L108.869 25.0949C108.517 25.3845 108.124 25.6327 107.689 25.7775C107.234 25.943 106.759 26.0257 106.262 26.005C105.807 26.005 105.373 25.943 104.938 25.7982C104.525 25.6534 104.132 25.4672 103.78 25.1983C103.428 24.9501 103.118 24.6398 102.87 24.2882C102.601 23.9365 102.415 23.5228 102.291 23.1091H111.599C111.93 23.1091 112.24 22.985 112.468 22.7575C112.716 22.5299 112.84 22.2196 112.819 21.8887C112.84 20.9992 112.675 20.1304 112.364 19.3237ZM102.291 20.6476C102.415 20.2132 102.601 19.8202 102.87 19.4685C103.118 19.1169 103.428 18.8066 103.78 18.5584C104.132 18.3101 104.525 18.1033 104.938 17.9585C105.352 17.8137 105.807 17.7516 106.242 17.7516C106.676 17.7516 107.131 17.8137 107.545 17.9585C108.372 18.2274 109.096 18.7652 109.613 19.4685C109.882 19.8202 110.068 20.2339 110.213 20.6476H102.291ZM119.583 26.6463C119.108 26.6463 118.735 27.0393 118.735 27.5151C118.735 27.9908 119.128 28.3632 119.604 28.3632C120.08 28.3632 120.452 27.9701 120.452 27.5151C120.452 27.0186 120.059 26.6463 119.583 26.6463ZM119.583 28.177C119.211 28.1977 118.901 27.9081 118.88 27.5357C118.86 27.1634 119.149 26.8531 119.521 26.8324C119.894 26.8118 120.204 27.1014 120.225 27.4737V27.5151C120.245 27.8667 119.956 28.177 119.604 28.177H119.583Z" fill="#0091E2"/>
<path d="M119.791 27.515C119.894 27.4943 119.956 27.4116 119.956 27.3081C119.956 27.2254 119.936 27.1633 119.873 27.122C119.791 27.0806 119.687 27.0599 119.584 27.0599C119.48 27.0599 119.356 27.0599 119.253 27.0806V27.9287H119.439V27.5977H119.522C119.625 27.5977 119.687 27.6391 119.708 27.7218C119.729 27.7839 119.749 27.8666 119.77 27.9287H119.977C119.936 27.8666 119.915 27.7839 119.915 27.7218C119.936 27.6391 119.873 27.5564 119.791 27.515ZM119.542 27.4529H119.439V27.2047H119.542C119.667 27.2047 119.729 27.2668 119.729 27.3288C119.749 27.4116 119.646 27.4736 119.542 27.4529ZM44.1656 12.3734C44.0415 12.27 42.9245 11.4219 40.525 11.4219C39.9045 11.4219 39.2632 11.484 38.6427 11.5874C38.1876 8.42255 35.5606 6.89184 35.4571 6.8091L34.8159 6.43677L34.4022 7.03664C33.8851 7.84336 33.492 8.75351 33.2645 9.68434C32.8301 11.484 33.099 13.1801 34.0092 14.6281C32.9129 15.2487 31.1339 15.3935 30.7616 15.4141H1.38861C0.623256 15.4141 0.00269977 16.0347 0.00269977 16.8C-0.0386706 19.365 0.395719 21.93 1.28518 24.3501C2.29876 26.9979 3.80878 28.963 5.75319 30.1627C7.94582 31.5072 11.5244 32.2726 15.558 32.2726C17.3783 32.2726 19.1986 32.1071 20.9982 31.7761C23.5011 31.3211 25.9006 30.4523 28.1139 29.1905C29.9342 28.1355 31.5683 26.791 32.9542 25.2189C35.2917 22.5919 36.6776 19.6546 37.6911 17.0483H38.1048C40.6491 17.0483 42.2212 16.0347 43.09 15.1659C43.6692 14.6281 44.1036 13.9662 44.4138 13.2215L44.6 12.6837L44.1656 12.3734Z" fill="#0091E2"/>
<path d="M4.11923 14.5659H8.04942C8.23558 14.5659 8.40106 14.4211 8.40106 14.2143V10.6978C8.40106 10.5116 8.25627 10.3462 8.04942 10.3462H4.11923C3.93306 10.3462 3.76758 10.491 3.76758 10.6978V14.2143C3.78826 14.4211 3.93306 14.5659 4.11923 14.5659ZM9.53875 14.5659H13.4689C13.6551 14.5659 13.8206 14.4211 13.8206 14.2143V10.6978C13.8206 10.5116 13.6758 10.3462 13.4689 10.3462H9.53875C9.35258 10.3462 9.1871 10.491 9.1871 10.6978V14.2143C9.20779 14.4211 9.35258 14.5659 9.53875 14.5659ZM15.0617 14.5659H18.9919C19.1781 14.5659 19.3435 14.4211 19.3435 14.2143V10.6978C19.3435 10.5116 19.1987 10.3462 18.9919 10.3462H15.0617C14.8755 10.3462 14.7101 10.491 14.7101 10.6978V14.2143C14.7101 14.4211 14.8548 14.5659 15.0617 14.5659ZM20.5019 14.5659H24.4321C24.6183 14.5659 24.7837 14.4211 24.7837 14.2143V10.6978C24.7837 10.5116 24.6389 10.3462 24.4321 10.3462H20.5019C20.3157 10.3462 20.1503 10.491 20.1503 10.6978V14.2143C20.1503 14.4211 20.3157 14.5659 20.5019 14.5659ZM9.53875 9.53944H13.4689C13.6551 9.53944 13.8206 9.37395 13.8206 9.18779V5.6713C13.8206 5.48513 13.6758 5.31965 13.4689 5.31965H9.53875C9.35258 5.31965 9.1871 5.46445 9.1871 5.6713V9.18779C9.20779 9.37395 9.35258 9.53944 9.53875 9.53944ZM15.0617 9.53944H18.9919C19.1781 9.53944 19.3435 9.37395 19.3435 9.18779V5.6713C19.3435 5.48513 19.1987 5.31965 18.9919 5.31965H15.0617C14.8755 5.31965 14.7101 5.46445 14.7101 5.6713V9.18779C14.7101 9.37395 14.8548 9.53944 15.0617 9.53944ZM20.5019 9.53944H24.4321C24.6183 9.53944 24.7837 9.37395 24.7837 9.18779V5.6713C24.7837 5.48513 24.6183 5.31965 24.4321 5.31965H20.5019C20.3157 5.31965 20.1503 5.46445 20.1503 5.6713V9.18779C20.1503 9.37395 20.3157 9.53944 20.5019 9.53944ZM20.5019 4.49224H24.4321C24.6183 4.49224 24.7837 4.34745 24.7837 4.1406V0.624112C24.7837 0.437945 24.6183 0.272461 24.4321 0.272461H20.5019C20.3157 0.272461 20.1503 0.41726 20.1503 0.624112V4.1406C20.1503 4.32676 20.3157 4.49224 20.5019 4.49224ZM25.9835 14.5659H29.9137C30.0998 14.5659 30.2653 14.4211 30.2653 14.2143V10.6978C30.2653 10.5116 30.1205 10.3462 29.9137 10.3462H25.9835C25.7973 10.3462 25.6318 10.491 25.6318 10.6978V14.2143C25.6525 14.4211 25.7973 14.5659 25.9835 14.5659Z" fill="#0091E2"/>
</svg>
