<svg width="128" height="40" viewBox="0 0 128 40" fill="none" xmlns="http://www.w3.org/2000/svg">
<g opacity="0.6">
<path opacity="0.6" d="M12.2795 14.7896L0 20.3742L12.2795 27.6289L24.5541 20.3742L12.2795 14.7896Z" fill="#010101"/>
</g>
<g opacity="0.45">
<path opacity="0.45" d="M0 20.3741L12.2795 27.6288V0L0 20.3741Z" fill="#010101"/>
</g>
<g opacity="0.8">
<path opacity="0.8" d="M12.2793 0V27.6288L24.5539 20.3741L12.2793 0Z" fill="#010101"/>
</g>
<g opacity="0.45">
<path opacity="0.45" d="M0 22.7007L12.2795 40.0001V29.9554L0 22.7007Z" fill="#010101"/>
</g>
<g opacity="0.8">
<path opacity="0.8" d="M12.2793 29.9554V40.0001L24.5636 22.7007L12.2793 29.9554Z" fill="#010101"/>
</g>
<path d="M41.4083 21.0538C41.4083 21.2613 41.2346 21.4303 41.027 21.4303H33.6806C33.864 23.2452 35.23 24.9008 37.151 24.9008C38.4639 24.9008 39.439 24.3988 40.1726 23.3514C40.2788 23.2065 40.4381 23.1148 40.6409 23.2017C40.7519 23.25 40.8291 23.3514 40.8484 23.4672C40.8677 23.5879 40.8339 23.6554 40.8001 23.723C40.0616 25.0118 38.5894 25.6441 37.1462 25.6441C34.6749 25.6441 32.9131 23.4334 32.9131 21.0683C32.9131 18.7031 34.6749 16.4924 37.1462 16.4924C39.6176 16.4876 41.4035 18.6935 41.4083 21.0538ZM40.6215 20.6966C40.4623 18.8817 39.0721 17.2261 37.151 17.2261C35.23 17.2261 33.864 18.8817 33.6806 20.6966H40.6215ZM50.3235 16.671C50.5359 16.671 50.6903 16.8544 50.6903 17.0379C50.6903 17.2502 50.531 17.4047 50.3235 17.4047H48.3541V25.1325C48.3541 25.3159 48.1948 25.4993 47.9873 25.4993C47.7749 25.4993 47.6205 25.3159 47.6205 25.1325V17.4047H45.7283C45.516 17.4047 45.3615 17.2454 45.3615 17.0379C45.3615 16.8544 45.5208 16.671 45.7283 16.671H47.6205V13.8425C47.6205 13.6639 47.7411 13.4998 47.9149 13.4708C48.1611 13.4322 48.3541 13.6011 48.3541 13.8328V16.671H50.3235ZM62.3375 20.407V25.089C62.3375 25.3014 62.1541 25.4559 61.9706 25.4559C61.7583 25.4559 61.6038 25.2966 61.6038 25.089V20.407C61.6038 18.8286 60.7108 17.2502 58.949 17.2502C56.6901 17.2502 55.7151 19.2244 55.8454 21.2469C55.8454 21.3 55.8695 21.5365 55.8695 21.5606V25.0745C55.8695 25.2531 55.7488 25.4172 55.5751 25.4462C55.3289 25.4848 55.1358 25.3159 55.1358 25.0842V9.70589C55.1358 9.52247 55.2951 9.33905 55.5027 9.33905C55.7151 9.33905 55.8695 9.52247 55.8695 9.70589V18.4087C56.5018 17.2792 57.6313 16.5166 58.9442 16.5166C61.1018 16.5166 62.3375 18.4087 62.3375 20.407ZM75.5099 21.0538C75.5099 21.2613 75.3361 21.4303 75.1286 21.4303H67.7773C67.9607 23.2452 69.3267 24.9008 71.2478 24.9008C72.5607 24.9008 73.5357 24.3988 74.2694 23.3514C74.3756 23.2065 74.5349 23.1148 74.7376 23.2017C74.8486 23.25 74.9259 23.3514 74.9452 23.4672C74.9645 23.5879 74.9307 23.6554 74.8969 23.723C74.1584 25.0118 72.6862 25.6441 71.243 25.6441C68.7716 25.6441 67.0099 23.4334 67.0099 21.0683C67.0099 18.7031 68.7716 16.4924 71.243 16.4924C73.7192 16.4876 75.5051 18.6935 75.5099 21.0538ZM74.7183 20.6966C74.559 18.8817 73.1689 17.2261 71.2478 17.2261C69.3267 17.2261 67.9607 18.8817 67.7773 20.6966H74.7183ZM84.5264 17.0137C84.5264 17.2502 84.3961 17.3806 84.1837 17.4095C82.0261 17.7233 81.0559 19.4851 81.0559 21.5365V25.0504C81.0559 25.229 80.9353 25.3931 80.7615 25.4221C80.5153 25.4607 80.3223 25.2917 80.3223 25.0601V17.0523C80.3223 16.8737 80.4429 16.7096 80.6167 16.6807C80.8629 16.6421 81.0559 16.811 81.0559 17.0427V18.6741C81.6593 17.6509 82.8708 16.6758 84.1306 16.6758C84.3141 16.671 84.5264 16.8062 84.5264 17.0137ZM96.5935 21.0538C96.5935 21.2613 96.4198 21.4303 96.2122 21.4303H88.8658C89.0492 23.2452 90.4152 24.9008 92.3363 24.9008C93.6492 24.9008 94.6242 24.3988 95.3579 23.3514C95.4641 23.2065 95.6233 23.1148 95.8261 23.2017C95.9371 23.25 96.0143 23.3514 96.0336 23.4672C96.0529 23.5879 96.0191 23.6554 95.9853 23.723C95.2468 25.0118 93.7747 25.6441 92.3314 25.6441C89.8601 25.6441 88.0983 23.4334 88.0983 21.0683C88.0983 18.7031 89.8601 16.4924 92.3314 16.4924C94.8028 16.4876 96.5887 18.6935 96.5935 21.0538ZM95.8068 20.6966C95.6475 18.8817 94.2573 17.2261 92.3363 17.2261C90.4152 17.2261 89.0492 18.8817 88.8658 20.6966H95.8068ZM108.453 17.1054V25.1325C108.453 25.3448 108.27 25.4993 108.086 25.4993C107.874 25.4993 107.719 25.34 107.719 25.1325V23.6072C107.116 24.8187 106.035 25.6827 104.669 25.6827C102.487 25.6827 101.276 23.7906 101.276 21.7923V17.0861C101.276 16.9027 101.435 16.7193 101.642 16.7193C101.855 16.7193 102.009 16.9027 102.009 17.0861V21.7923C102.009 23.3707 102.902 24.949 104.664 24.949C107.135 24.949 107.715 22.637 107.715 20.0836V17.0861C107.715 16.8737 107.927 16.6565 108.188 16.7338C108.347 16.7869 108.453 16.9413 108.453 17.1054ZM127.036 20.378V25.0842C127.036 25.2966 126.853 25.451 126.67 25.451C126.457 25.451 126.303 25.2917 126.303 25.0842V20.378C126.303 18.7996 125.41 17.2502 123.648 17.2502C121.437 17.2502 120.597 19.6154 120.597 21.4544V25.0842C120.597 25.2966 120.414 25.451 120.231 25.451C120.018 25.451 119.864 25.2917 119.864 25.0842V20.378C119.864 18.7996 118.971 17.2502 117.209 17.2502C114.974 17.2502 114.052 19.012 114.134 21.353C114.134 21.4061 114.158 21.5123 114.134 21.5365V25.0745C114.134 25.2531 114.014 25.4172 113.835 25.4462C113.589 25.4848 113.396 25.3159 113.396 25.0842V17.0523C113.396 16.8737 113.516 16.7096 113.69 16.6807C113.936 16.6421 114.129 16.811 114.129 17.0427V18.3845C114.762 17.2551 115.891 16.5166 117.204 16.5166C118.7 16.5166 119.859 17.4626 120.332 18.8576C120.935 17.4916 122.118 16.5166 123.643 16.5166C125.801 16.5166 127.036 18.3797 127.036 20.378Z" fill="#3C3C3B"/>
</svg>
