<svg width="141" height="44" viewBox="0 0 141 44" fill="none" xmlns="http://www.w3.org/2000/svg">
<g clip-path="url(#clip0_38_136)">
<path d="M30.7814 20.993C30.7814 29.5123 23.9977 36.4186 15.6293 36.4186C7.26123 36.4186 0.477539 29.5123 0.477539 20.993C0.477539 12.4735 7.26123 5.5672 15.6293 5.5672C23.9977 5.5672 30.7814 12.4737 30.7814 20.9931" fill="#D33833"/>
<path d="M1.09434 24.8135C1.09434 24.8135 -0.00243172 8.72681 14.8899 8.26738L13.851 6.54382L5.77011 9.24387L3.46104 11.8868L1.44067 15.7362L0.286133 20.2174L0.632466 23.2048" fill="#EF3D3A"/>
<path d="M5.25072 10.4698C2.59227 13.1772 0.947192 16.9152 0.947192 21.0506C0.947192 25.1848 2.59227 28.9234 5.25072 31.6305C7.91056 34.3371 11.576 36.0076 15.6284 36.0076C19.6809 36.0076 23.3466 34.3373 26.0063 31.6305C28.6645 28.9235 30.3098 25.1851 30.3098 21.0506C30.3098 16.9152 28.6643 13.1772 26.0063 10.4698C23.3466 7.76356 19.681 6.09337 15.6284 6.09296C11.576 6.09323 7.91056 7.76356 5.25072 10.4698ZM4.57801 32.2852C1.75262 29.4093 0.00585938 25.4349 0.00585938 21.0506C0.00585938 16.6656 1.75262 12.6915 4.57773 9.81542C7.40242 6.9386 11.3124 5.15576 15.6282 5.15631C19.9441 5.15576 23.8545 6.9386 26.6786 9.81542C29.5043 12.6915 31.2513 16.6661 31.2508 21.0506C31.2512 25.4348 29.5043 29.4092 26.6786 32.2852C23.8545 35.1617 19.9441 36.9445 15.6282 36.9445C11.3125 36.9445 7.40242 35.1617 4.57801 32.2852Z" fill="#231F20"/>
<path d="M22.0073 21.0785L19.6982 21.4232L16.5812 21.7679L14.561 21.8253L12.5984 21.7679L11.0976 21.3082L9.77009 19.872L8.73109 16.942L8.50015 16.3099L7.11482 15.8505L6.30676 14.529L5.72949 12.6331L6.36439 10.9669L7.86526 10.4498L9.07742 11.0245L9.65455 12.2884L10.3472 12.1734L10.5782 11.8863L10.3472 10.5648L10.2896 8.89865L10.6359 6.60067L10.6225 5.28801L11.6749 3.61341L13.522 2.29193L16.7544 0.913086L20.3332 1.43015L23.4502 3.67077L24.8932 5.96889L25.8169 7.63494L26.0477 11.7715L25.3551 15.3336L24.0853 18.4933L22.8731 20.1595" fill="#F0D6B7"/>
<path d="M20.0442 31.0176L11.79 31.3623V32.7412L12.4827 37.5671L12.1364 37.9693L6.3641 36.0159L5.96013 35.3265L5.38287 28.8345L4.0553 24.9277L3.7666 24.0086L8.38447 20.8489L9.82743 20.2742L11.0974 21.8254L12.1941 22.8022L13.4639 23.2043L14.0412 23.3766L14.7339 26.3642L15.2534 26.9961L16.5809 26.5365L15.6575 28.3176L20.6793 30.6731L20.0442 31.0178" fill="#335061"/>
<path d="M6.36459 10.9669L7.86545 10.4498L9.07762 11.0245L9.65475 12.2884L10.3474 12.1734L10.5206 11.484L10.1742 10.1627L10.5206 7.00272L10.2319 5.27917L11.2709 4.07268L13.522 2.29177L12.8873 1.42999L9.71237 2.98119L8.38495 4.01532L7.63452 5.62388L6.48012 7.17507L6.13379 9.01362L6.36459 10.9669Z" fill="#6D6B6D"/>
<path d="M8.73129 5.5665C8.73129 5.5665 9.59712 3.44088 13.0605 2.40675C16.5238 1.37262 13.2336 1.65969 13.2336 1.65969L9.48159 3.09631L8.03862 4.53237L7.40359 5.6815L8.73129 5.5665ZM6.99962 10.5648C6.99962 10.5648 5.78745 6.54314 10.4051 5.96857L10.2319 5.27915L7.05725 6.02621L6.13379 9.01361L6.36459 10.9669L6.99962 10.5648Z" fill="#DCD9D8"/>
<path d="M8.8465 15.9078L9.60234 15.179C9.60234 15.179 9.94341 15.2184 10.001 15.6205C10.0587 16.0228 10.2318 19.6423 12.7141 21.5957C12.9403 21.774 10.8669 21.3082 10.8669 21.3082L9.01967 18.4359L8.8465 15.9078ZM19.4678 14.8163C19.4678 14.8163 19.6025 13.0749 20.0738 13.2088C20.5449 13.3426 20.5449 13.8117 20.5449 13.8117C20.5449 13.8117 19.4005 14.5484 19.4678 14.8163ZM24.2586 8.43921C24.2586 8.43921 23.3069 8.63914 23.2196 9.47334C23.1319 10.3077 24.2586 9.64569 24.4318 9.58806L24.2586 8.43921ZM17.2742 8.4967C17.2742 8.4967 16.0044 8.66906 16.0044 9.47334C16.0044 10.2775 17.4473 10.2203 17.8516 9.87554L17.2742 8.4967ZM9.42391 12.231C9.42391 12.231 7.23037 10.9095 6.99958 12.1734C6.7685 13.4375 6.249 14.3566 7.34591 15.6781L6.59534 15.4481L5.90267 13.6672L5.67188 11.9437L6.99958 10.5647L8.50017 10.6797L9.366 11.3691L9.42391 12.2309V12.231ZM10.4629 8.61156C10.4629 8.61156 11.444 3.55563 16.4082 2.57913C20.4954 1.77513 22.6421 2.75149 23.4504 3.67062C23.4504 3.67062 19.8139 -0.63812 16.3506 0.683223C12.8872 2.00443 10.3474 4.4174 10.405 5.9686C10.5034 8.61046 10.4629 8.61156 10.4629 8.61156ZM23.8545 4.24505C23.8545 4.24505 22.1807 4.18769 22.1228 5.68152C22.1228 5.68152 22.1227 5.91124 22.2384 6.14095C22.2384 6.14095 23.5662 4.64725 24.374 5.45153" fill="#F7E4CD"/>
<path d="M16.5244 6.29665C16.5244 6.29665 16.2363 4.00377 14.2724 5.33684C13.0023 6.19861 13.1179 7.4051 13.3487 7.63481C13.5798 7.8648 13.5169 8.32754 13.6927 8.00986C13.8682 7.69217 13.8104 6.65804 14.4456 6.37097C15.0803 6.08362 16.1213 5.76276 16.5244 6.29665Z" fill="#F7E4CD"/>
<path d="M11.0972 21.8253L5.67143 24.2382C5.67143 24.2382 7.9226 33.1433 6.76806 35.901L5.96014 35.6139L5.90223 32.2242L4.40164 25.7897L3.7666 24.0085L9.42346 20.2169L11.0972 21.8253ZM11.6552 26.7508L12.4249 27.6853V31.1324H11.5015C11.5015 31.1324 11.3859 28.7195 11.3859 28.4323C11.3859 28.145 11.5015 27.1109 11.5015 27.1109L11.6552 26.7508ZM11.6746 31.6498L9.07713 31.7645L9.82743 32.2816L11.6746 32.5688" fill="#49728B"/>
<path d="M20.5645 31.0751L22.7004 31.0176L23.2199 36.3031L21.0263 36.5903L20.5645 31.0751Z" fill="#335061"/>
<path d="M21.1416 31.0751L24.3739 30.9028C24.3739 30.9028 25.7016 27.5705 25.7016 27.3982C25.7016 27.2258 26.8561 22.5722 26.8561 22.5722L24.2586 19.8722L23.7391 19.4126L22.3538 20.7914V26.1345L21.1416 31.0751Z" fill="#335061"/>
<path d="M22.5838 30.6729L20.5635 31.0751L20.8522 32.6839C21.6025 33.0286 22.8725 32.1092 22.8725 32.1092L22.5838 30.6729ZM22.6416 20.6191L26.6824 23.6066L26.7976 22.2278L23.7385 19.4126L22.6416 20.6191Z" fill="#49728B"/>
<path d="M13.6777 42.3937L12.4827 37.5668L11.8884 34.0055L11.79 31.362L17.1988 31.0755L20.5638 31.075L20.258 37.1079L20.7775 41.7615L20.7196 42.6233L16.333 42.968L13.6777 42.3937Z" fill="white"/>
<path d="M19.8135 31.0176C19.8135 31.0176 19.5248 36.9925 20.3907 41.244C20.3907 41.244 18.659 42.3358 16.1191 42.6229L20.9679 42.4505L21.5452 42.1058L20.8525 32.6839L20.6794 30.6729" fill="#DCD9D8"/>
<path d="M23.3171 35.8442L25.5682 35.2122L29.8396 34.9825L30.4746 33.0289L29.3201 29.6395L27.9927 29.4671L26.1455 30.0415L24.3732 30.9028L23.4325 30.7309L22.6992 31.0176" fill="white"/>
<path d="M23.2773 34.6945C23.2773 34.6945 24.7779 34.0053 25.009 34.0628L24.374 30.9027L25.1244 30.6157C25.1244 30.6157 25.6439 33.6031 25.6439 33.9478C25.6439 33.9478 28.8763 34.1201 29.165 34.1201C29.165 34.1201 29.8577 32.7988 29.6845 31.4199L30.3194 33.2583L30.3772 34.2925L29.4536 35.6713L28.4146 35.9012L26.6829 35.8437L26.1056 35.0969L24.0855 35.384L23.4505 35.614" fill="#DCD9D8"/>
<path d="M21.0086 30.616L19.7388 27.3989L18.4111 25.503C18.4111 25.503 18.6997 24.6986 19.1038 24.6986H20.4315L21.7013 25.1583L21.586 27.2839L21.0086 30.616Z" fill="white"/>
<path d="M21.2563 29.5239C21.2563 29.5239 19.6402 26.4216 19.6402 25.9621C19.6402 25.9621 19.9288 25.2726 20.3329 25.445C20.7368 25.6174 21.6026 26.0768 21.6026 26.0768V24.9853L19.6402 24.5829L18.3125 24.7553L20.5637 30.0409L21.0255 30.0986" fill="#DCD9D8"/>
<path d="M14.1976 21.941L12.5985 21.7679L11.0977 21.3082V21.8253L11.8311 22.6302L14.14 23.6644" fill="white"/>
<path d="M11.6175 22.1132C11.6175 22.1132 13.4068 22.8601 13.9842 22.6877L14.0414 23.3765L12.4256 23.0324L11.4443 22.343L11.6175 22.1132Z" fill="#DCD9D8"/>
<path d="M23.3111 24.8942C22.3317 24.8655 21.4469 24.7497 20.672 24.5322C20.7247 24.2161 20.6261 23.9058 20.7053 23.678C20.9211 23.5232 21.2833 23.5257 21.6095 23.4894C21.3272 23.3513 20.9308 23.2968 20.605 23.3764C20.5972 23.157 20.4983 23.021 20.4385 22.8494C20.9891 22.6536 22.2891 21.3712 23.0205 21.7959C23.3689 21.9979 23.517 23.1516 23.544 23.7125C23.5665 24.1782 23.5017 24.6476 23.3112 24.8942" fill="#D33833"/>
<path d="M23.3111 24.8942C22.3317 24.8655 21.4469 24.7497 20.672 24.5322C20.7247 24.2161 20.6261 23.9058 20.7053 23.678C20.9211 23.5232 21.2833 23.5257 21.6095 23.4894C21.3272 23.3513 20.9308 23.2968 20.605 23.3764C20.5972 23.157 20.4983 23.021 20.4385 22.8494C20.9891 22.6536 22.2891 21.3712 23.0205 21.7959C23.3689 21.9979 23.517 23.1516 23.544 23.7125C23.5665 24.1782 23.5017 24.6476 23.3112 24.8942H23.3111Z" stroke="#D33833" stroke-width="6.14065"/>
<path d="M18.628 23.3005C18.6254 23.3743 18.6222 23.4486 18.6193 23.5231C18.3135 23.723 17.8199 23.7205 17.4841 23.8886C17.979 23.9101 18.3684 24.0287 18.7053 24.196L18.6835 24.7533C18.123 25.1352 17.611 25.704 16.951 26.0622C16.6389 26.2317 15.5437 26.6675 15.2118 26.5904C15.0241 26.547 15.007 26.3151 14.9319 26.0963C14.7719 25.6281 14.4036 24.8829 14.3713 24.1776C14.3306 23.2873 14.2401 21.7953 15.2041 21.9786C15.9819 22.1262 16.8866 22.4829 17.4887 22.8104C17.8568 23.0103 18.0697 23.2578 18.628 23.3005Z" fill="#D33833"/>
<path d="M18.628 23.3005C18.6254 23.3743 18.6222 23.4486 18.6193 23.5231C18.3135 23.723 17.8199 23.7205 17.4841 23.8886C17.979 23.9101 18.3684 24.0287 18.7053 24.196L18.6835 24.7533C18.123 25.1352 17.611 25.704 16.951 26.0622C16.6389 26.2317 15.5437 26.6675 15.2118 26.5904C15.0241 26.547 15.007 26.3151 14.9319 26.0963C14.7719 25.6281 14.4036 24.8829 14.3713 24.1776C14.3306 23.2873 14.2401 21.7953 15.2041 21.9786C15.9819 22.1262 16.8866 22.4829 17.4887 22.8104C17.8568 23.0103 18.0697 23.2578 18.628 23.3005V23.3005Z" stroke="#D33833" stroke-width="6.14065"/>
<path d="M19.1842 24.3629C19.0983 23.8779 18.9995 23.7395 19.0378 23.3162C20.3376 22.4539 20.5816 24.7978 19.1841 24.3629" fill="#D33833"/>
<path d="M19.1842 24.3629C19.0983 23.8779 18.9995 23.7395 19.0378 23.3162C20.3376 22.4539 20.5816 24.7978 19.1841 24.3629H19.1842Z" stroke="#D33833" stroke-width="6.14065"/>
<path d="M21.0658 24.756C21.0658 24.756 20.6617 24.1814 20.9506 24.0091C21.239 23.8367 21.5278 24.0092 21.701 23.7219C21.8742 23.4348 21.701 23.2624 21.7586 22.9177C21.8165 22.573 22.1054 22.5154 22.3937 22.458C22.6822 22.4007 23.4906 22.2857 23.6058 22.573L23.2595 21.5389L22.5668 21.3089L20.3733 22.573L20.258 23.2048V24.4689L21.0658 24.756ZM15.005 26.6519C14.9356 25.7554 14.8623 24.86 14.7806 23.9643C14.6585 22.6268 15.1033 22.8601 16.2683 22.8601C16.4461 22.8601 17.3637 23.0713 17.4293 23.2048C17.7442 23.8449 16.9029 23.7026 17.7921 24.1852C18.5424 24.5925 19.8685 23.9379 19.5652 23.0325C19.3955 22.8311 18.681 22.9697 18.425 22.8378L17.0722 22.1397C16.4984 21.8432 15.1725 21.4116 14.5606 21.8256C13.0108 22.8749 14.6585 25.496 15.2114 26.5904" fill="#EF3D3A"/>
<path d="M16.5239 6.29662C14.9507 5.93192 14.169 6.95199 13.6922 8.00983C13.2663 7.90711 13.4359 7.33075 13.5434 7.03706C13.825 6.26629 14.9599 5.24029 15.8871 5.37942C16.2861 5.43912 16.8261 5.80231 16.5239 6.29662ZM24.1895 8.07988L24.2642 8.08264C24.6197 8.81783 24.9273 9.5966 25.3756 10.2455C25.0754 10.9419 23.1008 11.5583 23.1311 10.3077C23.5581 10.1219 24.2952 10.2698 24.6738 10.0325C24.4551 9.43459 24.1392 8.92552 24.1895 8.07988ZM17.3295 8.09891C17.6668 8.71442 17.7767 9.3611 18.2561 9.82632C18.4721 10.0358 18.892 10.291 18.6838 10.8734C18.6352 11.0107 18.2797 11.317 18.0742 11.3771C17.3246 11.5973 15.5779 11.4226 16.1694 10.4923C16.7896 10.5211 17.6226 10.893 18.086 10.4453C17.7304 9.87899 17.0961 8.75896 17.3295 8.09891ZM23.908 14.3544C22.7794 15.0763 21.5208 15.8608 19.6714 15.6788C19.2762 15.3369 19.1256 14.5759 19.5094 14.0733C19.7093 14.4152 19.5837 15.0441 20.1406 15.1389C21.19 15.3176 22.4114 14.4999 23.1664 14.2139C23.6343 13.4285 23.1259 13.1397 22.7043 12.6342C21.8412 11.5984 20.6831 10.3147 20.7251 8.7642C21.0742 8.51242 21.1041 9.14862 21.1543 9.26444C21.605 10.3143 22.7393 11.6573 23.5674 12.5559C23.7706 12.7772 24.1053 12.9895 24.1425 13.1358C24.2499 13.5616 23.8633 14.0714 23.9082 14.3544H23.908ZM9.02816 13.5947C8.67449 13.3937 8.59012 12.5084 8.1748 12.4833C7.58146 12.4474 7.68966 13.6315 7.69187 14.3241C7.28348 13.9551 7.21158 12.8183 7.51164 12.2346C7.16946 12.0675 7.01666 12.4191 6.82715 12.5429C7.07097 10.7798 9.41855 11.7253 9.0283 13.5947H9.02816ZM24.6267 15.0887C24.1014 16.0841 23.3582 17.1802 21.8164 17.2121C21.7851 16.8907 21.761 16.4015 21.8181 16.2077C22.9967 16.0952 23.7243 15.4982 24.6267 15.0887ZM17.2407 15.734C18.2239 16.2488 20.031 16.304 21.3676 16.265C21.4392 16.5564 21.4376 16.9165 21.4403 17.2719C19.7222 17.3571 17.6911 16.9341 17.2407 15.734ZM17.0537 16.6936C17.7337 18.3929 20.0708 18.1973 22.0416 18.1504C21.9548 18.371 21.7667 18.6316 21.533 18.7259C20.9013 18.9817 19.1595 19.1757 18.2826 18.7121C17.7265 18.418 17.3695 17.7533 17.0648 17.3636C16.9178 17.1754 16.1851 16.6946 17.0537 16.6935" fill="#231F20"/>
<path d="M23.8265 26.0666C23.0286 27.4269 22.2652 28.824 21.3184 30.0239C21.7153 28.8622 21.8851 26.9183 21.9451 25.4362C22.7755 25.0496 23.4864 25.5234 23.8265 26.0666Z" fill="#81B0C4"/>
<path d="M28.1201 30.9557C27.2267 31.1337 26.599 31.998 25.7275 31.9424C26.2064 31.2703 27.0458 30.987 28.1201 30.9557ZM28.5143 32.3472C27.7861 32.424 26.9308 32.5412 26.1923 32.4807C26.5418 31.9491 27.8889 32.1325 28.5143 32.3472ZM28.7665 33.5471C27.9482 33.5647 26.931 33.5485 26.1534 33.4836C26.6133 32.9917 28.2358 33.301 28.7665 33.5471Z" fill="#231F20"/>
<path d="M22.2863 36.8302C22.4035 37.8532 22.811 38.8897 22.7601 40.01C22.3077 40.1618 22.0476 40.2947 21.4413 40.294C21.3985 39.3418 21.2705 37.8863 21.3088 36.9786C21.6071 36.9983 22.0468 36.7667 22.2863 36.8302Z" fill="#DCD9D8"/>
<path d="M20.9676 21.754C20.5567 22.0209 20.2068 22.3545 19.8121 22.6395C18.9369 22.6826 18.4593 22.5792 17.8164 22.079C17.8269 22.039 17.8915 22.0569 17.894 22.0076C18.8307 22.4229 20.0217 21.838 20.9676 21.7538" fill="#F0D6B7"/>
<path d="M16.0488 28.1101C16.3062 27.0001 17.3147 26.4251 18.2306 25.8136C19.1759 27.0077 19.7509 28.5434 20.3839 30.0253C18.8881 29.5765 17.3598 28.8483 16.0488 28.1101Z" fill="#81B0C4"/>
<path d="M21.3089 36.9786C21.2707 37.8863 21.3986 39.3418 21.4414 40.294C22.0479 40.2948 22.3076 40.1621 22.7602 40.01C22.8113 38.8897 22.4038 37.8532 22.2864 36.8302C22.0468 36.7667 21.6072 36.9983 21.3089 36.9786ZM11.869 31.8168C12.2688 35.4747 12.8478 38.5495 13.9096 41.7887C16.2669 42.501 19.1082 42.563 21.1916 41.9204C20.8093 40.0922 20.9762 37.8664 20.7527 35.9154C20.5841 34.449 20.6702 32.9736 20.4391 31.4776C17.9146 30.955 14.3464 31.3555 11.869 31.8168ZM21.0358 31.5009C21.0146 33.0716 21.1064 34.6212 21.2269 36.1942C21.8332 36.1037 22.2445 36.0432 22.8073 35.9203C22.6246 34.4061 22.647 32.7021 22.2745 31.3626C21.8442 31.3666 21.4651 31.3576 21.0359 31.5009H21.0358ZM24.1105 31.2474C23.8228 31.1819 23.4879 31.2448 23.2131 31.2502C23.3423 32.5309 23.6557 33.9442 23.766 35.2883C24.1985 35.3016 24.4294 35.0987 24.7852 35.0304C24.8041 33.8504 24.6813 32.2248 24.1105 31.2474ZM28.7659 35.481C29.6672 35.2633 30.2338 34.1645 29.9818 33.0359C29.8127 32.2776 29.5114 30.8496 29.1888 30.3644C28.9506 30.0059 28.3046 29.536 27.7887 29.8646C26.9495 30.3996 25.471 30.5547 24.8593 31.2021C25.1661 32.219 25.2613 33.6157 25.3879 34.9043C26.4362 34.9695 27.7259 34.6172 28.5979 34.9911C27.9891 35.1872 27.1994 35.1887 26.6736 35.4747C27.1035 35.6812 28.1097 35.6396 28.7659 35.481ZM20.3841 30.0252C19.751 28.5434 19.176 27.0076 18.2307 25.8136C17.3149 26.4251 16.3064 26.9999 16.049 28.11C17.3599 28.8483 18.8882 29.5764 20.3841 30.0252ZM21.9447 25.4365C21.8847 26.9184 21.7148 28.8625 21.3179 30.0239C22.2647 28.8243 23.0281 27.4271 23.8261 26.0669C23.486 25.5233 22.775 25.0495 21.9447 25.4363V25.4365ZM20.1756 24.8107C19.8169 24.7721 19.5126 25.2211 19.046 25.0269C18.9393 25.1446 18.8422 25.272 18.7333 25.3868C19.7633 26.6223 20.2313 28.375 21.0269 29.8271C21.4537 28.4324 21.4045 26.9045 21.4986 25.3823C20.912 25.4191 20.5866 24.8542 20.1756 24.8107ZM19.0381 23.3163C18.9997 23.7395 19.0986 23.8781 19.1844 24.363C20.5816 24.7978 20.3377 22.4539 19.0381 23.3165V23.3163ZM17.4883 22.81C16.8863 22.4826 15.9815 22.1257 15.2038 21.9782C14.2397 21.7945 14.3302 23.2871 14.3711 24.1773C14.4032 24.8824 14.7714 25.6278 14.9316 26.0959C15.0068 26.3146 15.0236 26.5467 15.2114 26.5901C15.5433 26.6671 16.6384 26.2312 16.9507 26.0618C17.6107 25.7037 18.1227 25.1349 18.6832 24.753C18.6905 24.5671 18.6976 24.3814 18.7051 24.1955C18.368 24.0287 17.9786 23.9098 17.4839 23.8883C17.8194 23.7201 18.3132 23.7226 18.619 23.5226C18.6218 23.4482 18.625 23.3741 18.6276 23.3002C18.0692 23.2577 17.8564 23.0102 17.4883 22.81ZM11.737 21.77C11.2372 22.275 13.1385 22.9632 13.7442 23.0005C13.7407 22.6807 13.9271 22.3797 13.8897 22.1504C13.1704 22.0248 12.2255 22.1077 11.7369 21.77H11.737ZM17.8934 22.0071C17.8909 22.0565 17.8264 22.0386 17.8158 22.0788C18.4588 22.5789 18.9364 22.6824 19.8115 22.6392C20.2062 22.3542 20.5562 22.0208 20.967 21.7537C20.021 21.8378 18.8302 22.4227 17.8934 22.0071ZM23.5442 23.7128C23.5172 23.1516 23.3691 21.998 23.0207 21.7962C22.2893 21.3711 20.9895 22.6538 20.4388 22.8496C20.4987 23.0211 20.5976 23.1571 20.6051 23.3766C20.9309 23.2969 21.3275 23.3514 21.6097 23.4897C21.2835 23.5259 20.9213 23.5236 20.7055 23.6782C20.6263 23.9058 20.7249 24.216 20.6722 24.5323C21.4469 24.7499 22.3319 24.8657 23.3113 24.8943C23.5016 24.6475 23.5666 24.178 23.544 23.7126L23.5442 23.7128ZM10.8957 22.2585C10.7389 22.1471 9.67715 20.7722 9.53183 20.8293C7.61079 21.5834 5.81457 22.8874 4.20925 24.1205C5.73976 27.389 6.35762 31.3935 6.46665 35.253C8.21978 36.0693 9.75972 37.2458 12.1387 37.3685C11.8633 35.4299 11.6119 33.7003 11.4558 31.8751C10.858 31.6241 10.0005 31.8864 9.44109 31.7972C9.43652 31.1264 10.2956 31.5032 10.367 31.0522C10.4209 30.7109 9.89423 30.6852 10.0657 30.1477C10.5032 30.306 10.7328 30.6552 11.1991 30.7866C11.6253 29.8587 11.1933 28.2167 11.2545 27.4411C11.2661 27.2955 11.3276 26.6345 11.6553 26.7503C11.9454 26.8529 11.6388 28.5088 11.6705 29.2429C11.6995 29.9192 11.5884 30.5735 11.8636 30.9981C14.1626 30.6865 16.4985 30.4852 18.9859 30.4174C18.4387 30.1837 17.7887 29.9626 17.0759 29.5628C16.6894 29.346 15.4714 28.8949 15.3599 28.5296C15.1822 27.9476 15.8266 27.6375 15.9369 27.1385C14.7766 27.7686 14.5501 26.5348 14.2756 25.6609C14.027 24.8693 13.8852 24.2779 13.8243 23.8214C12.8248 23.3471 11.756 22.8667 10.8957 22.2585ZM22.5289 20.9956C24.1295 20.2232 24.4179 23.8828 23.7905 25.0617C23.8875 25.4133 24.2211 25.5479 24.3571 25.864C23.464 27.4566 22.4719 28.9433 21.5605 30.5169C22.2385 30.0968 23.2068 30.4418 24.0047 30.1275C24.2963 30.0127 24.5073 29.3484 24.7281 28.8168C25.3354 27.3543 25.9728 25.5106 26.2567 24.115C26.3207 23.7971 26.4952 23.1043 26.4561 22.8212C26.3863 22.3145 25.6956 21.9387 25.3443 21.6255C24.6969 21.0466 24.2893 20.5376 23.614 19.9964C23.3404 20.3983 22.7527 20.6686 22.5289 20.9956ZM7.23509 6.86814C6.47219 7.70317 6.63192 9.26843 6.72432 10.3818C8.103 9.51841 9.93261 10.4498 9.91529 11.9181C10.5735 11.9006 10.1612 11.0998 10.0422 10.584C9.65319 8.89904 10.6977 7.06849 10.0896 5.52763C8.90885 5.61684 7.93884 6.09682 7.23509 6.86814ZM12.6922 2.02055C10.9658 2.50756 8.75286 3.75624 8.04343 5.30012C8.59285 5.22057 8.9741 4.9448 9.51604 4.91074C9.72107 4.8975 9.98927 4.99609 10.2246 4.9379C10.6937 4.82208 11.0895 3.77526 11.4434 3.38574C11.7884 3.00532 12.2032 2.84275 12.487 2.49597C12.6692 2.40842 12.9388 2.41462 12.9492 2.14203C12.8701 2.05792 12.7868 1.9938 12.6922 2.02055ZM21.6801 2.4786C19.888 1.47246 16.8546 0.715476 14.9483 1.66109C13.4102 2.42469 11.331 3.68757 10.6219 5.28799C11.2841 6.83271 10.4258 8.24781 10.3711 9.81583C10.342 10.65 10.7657 11.3785 10.7982 12.2867C10.5714 12.659 9.87927 12.7048 9.39995 12.6793C9.23869 11.8758 8.95636 10.9727 8.12489 10.882C6.9486 10.7539 6.08873 11.7229 6.03512 12.7355C5.97181 13.9263 6.95401 15.9 8.34613 15.7631C8.88363 15.7101 9.01607 15.1736 9.60179 15.1791C9.91931 15.8098 9.11194 16.0078 9.02882 16.4588C9.00721 16.5753 9.09587 17.0308 9.14726 17.2443C9.40009 18.284 9.96378 19.6297 10.5186 20.4215C11.2226 21.4258 12.6063 21.5769 14.0947 21.6754C14.3604 21.1054 15.3397 21.1524 15.9778 21.3016C15.2131 21 14.5021 20.2692 13.9129 19.6224C13.2362 18.8803 12.5507 18.0842 12.5161 17.1142C13.795 18.8801 14.8518 20.4226 17.1772 21.1991C18.937 21.7867 20.9921 20.93 22.3439 19.9849C22.905 19.5921 23.24 18.9689 23.6387 18.3984C25.1307 16.2621 25.8271 13.2126 25.6741 10.2573C25.6111 9.0383 25.6137 7.82368 25.203 7.00368C24.7735 6.14604 23.321 5.37899 22.4707 6.15459C22.3132 5.32081 23.1778 4.80484 24.1933 5.10516C23.4694 4.17444 22.7094 3.05675 21.6801 2.4786ZM25.0189 29.9808C26.4193 29.288 29.0358 28.1158 29.9138 29.9835C30.2378 30.6719 30.6178 31.8355 30.7857 32.5463C31.0226 33.5487 30.5287 35.6562 29.4932 35.9926C28.5789 36.2897 27.5118 36.2718 26.4103 36.0513C26.2806 35.9439 26.1361 35.7568 26.0351 35.5617C25.2487 35.5314 24.5121 35.6039 23.8908 35.9256C23.9497 36.5044 23.5562 36.5973 23.1875 36.7166C22.914 37.7957 23.7345 39.2052 23.5381 40.1891C23.398 40.8901 22.5315 40.9985 21.8945 41.1296C21.8737 41.5191 21.9225 41.8444 21.9659 42.1739C21.8204 42.7081 21.1671 43.0121 20.548 43.0866C18.512 43.33 15.42 43.4396 13.4616 42.7384C12.9151 41.404 12.4844 39.7808 12.0292 38.2575C10.1189 38.4606 8.57387 37.4371 7.11748 36.7667C6.61322 36.5339 5.91542 36.4057 5.7273 36.0062C5.54457 35.6192 5.61924 34.8781 5.57394 34.1776C5.45868 32.3893 5.35991 30.6641 4.88543 28.8328C4.67237 28.011 4.30082 27.2858 4.04176 26.494C3.80238 25.7602 3.38415 24.8532 3.27485 24.1215C3.11318 23.0369 4.13915 22.9765 4.79525 22.5064C5.80972 21.7798 6.60587 21.3777 7.7043 20.7218C8.02972 20.5274 9.01067 20.0358 9.12233 19.8093C9.34412 19.3603 8.7415 18.7273 8.58039 18.3753C8.32548 17.8188 8.19263 17.346 8.15606 16.7966C7.23454 16.6519 6.53605 16.1058 6.11408 15.4905C5.41601 14.4719 4.93184 12.5873 5.53584 11.1537C5.58322 11.0409 5.81956 10.8189 5.85447 10.6456C5.92304 10.3042 5.72494 9.85003 5.71275 9.48698C5.6493 7.62389 6.02944 6.01864 7.28953 5.45662C7.80114 3.42807 9.63213 2.75368 11.3573 1.74561C12.0022 1.36877 12.713 1.12803 13.4472 0.859152C16.0807 -0.105486 20.1212 0.0761078 22.3069 1.72148C23.2337 2.41917 24.7151 3.89233 25.2449 4.95886C26.6445 7.77446 26.5451 12.4804 25.5663 15.9055C25.4347 16.3655 25.2438 17.0414 24.9773 17.5939C24.7915 17.9795 24.214 18.7514 24.2841 19.092C24.3563 19.444 25.601 20.3847 25.8677 20.6407C26.3484 21.1021 27.2613 21.7145 27.3351 22.2968C27.4147 22.9163 27.0608 23.7639 26.8814 24.3621C26.2828 26.3575 25.6982 28.202 25.0189 29.9808Z" fill="#231F20"/>
<path d="M15.676 16.1686C15.7519 16.0679 16.1695 15.9152 16.754 16.1952C16.754 16.1952 16.0614 16.3099 16.1191 17.4596L15.8306 17.402C15.8304 17.402 15.532 16.3598 15.676 16.1686Z" fill="#F7E4CD"/>
<path d="M20.7373 26.0483C20.7373 26.132 20.7038 26.2124 20.6443 26.2716C20.5848 26.3309 20.5041 26.3641 20.4199 26.3641C20.3357 26.3641 20.255 26.3309 20.1955 26.2716C20.136 26.2124 20.1025 26.132 20.1025 26.0483C20.1025 25.9645 20.136 25.8841 20.1955 25.8249C20.255 25.7656 20.3357 25.7324 20.4199 25.7324C20.5041 25.7324 20.5848 25.7656 20.6443 25.8249C20.7038 25.8841 20.7373 25.9645 20.7373 26.0483ZM21.0548 27.5133C21.0548 27.5971 21.0213 27.6775 20.9617 27.7367C20.9021 27.796 20.8213 27.8293 20.7371 27.8292C20.6528 27.8292 20.5721 27.7958 20.5126 27.7365C20.453 27.6772 20.4196 27.5968 20.4196 27.513C20.4197 27.4292 20.4532 27.3488 20.5127 27.2896C20.5723 27.2303 20.6531 27.1971 20.7373 27.1971C20.8215 27.1971 20.9022 27.2305 20.9618 27.2898C21.0213 27.349 21.0547 27.4294 21.0547 27.5133" fill="#1D1919"/>
<path d="M54.3268 14.6607C54.0022 14.7012 53.7261 14.7415 53.499 14.782C53.2413 14.8291 52.9854 14.8857 52.7319 14.9516C52.3989 15.0405 52.1858 15.1984 52.0927 15.4245C51.9993 15.6511 51.9526 15.9097 51.9526 16.2008V25.6845C51.9526 26.5578 51.776 27.3583 51.4229 28.0859C51.0698 28.8135 50.5846 29.4239 49.9679 29.917C49.3428 30.4023 48.6447 30.7681 47.8737 31.0145C47.1023 31.2611 46.2786 31.3845 45.4021 31.3845C43.8841 31.3845 42.6605 31.021 41.731 30.2938C40.8014 29.5666 40.3369 28.569 40.3369 27.3005C40.3369 26.5492 40.55 25.9272 40.9761 25.4342C41.4022 24.9414 41.9886 24.695 42.7355 24.695C43.4416 24.695 44.0035 24.901 44.4217 25.313C44.8398 25.7253 45.0487 26.2341 45.0487 26.8399C45.0487 27.3572 44.8679 27.8356 44.507 28.276C44.1457 28.7164 43.7337 29.1225 43.271 29.4939V29.6514C43.3443 29.8131 43.503 29.9505 43.7473 30.0635C43.9911 30.1767 44.2395 30.2331 44.4921 30.2331C45.4687 30.2331 46.2358 29.8855 46.7934 29.1902C47.351 28.495 47.63 27.4437 47.63 26.0368V16.3222C47.63 16.0311 47.5851 15.7885 47.4953 15.5945C47.4053 15.4005 47.1892 15.2305 46.847 15.0852C46.6022 14.98 46.3067 14.8911 45.96 14.8184C45.6134 14.7456 45.3256 14.6931 45.0975 14.6607V13.7155H54.3267V14.6607H54.3268ZM68.7672 28.0155C68.4831 28.4761 68.1404 28.9104 67.7385 29.3186C67.3368 29.7264 66.8799 30.0759 66.3684 30.3667C65.8245 30.6738 65.2745 30.9059 64.7188 31.0635C64.1627 31.2211 63.5234 31.2998 62.8009 31.2998C61.5995 31.2998 60.5623 31.1302 59.6901 30.7909C58.8175 30.4515 58.097 29.9953 57.5289 29.4215C56.9608 28.848 56.5366 28.1714 56.2566 27.3916C55.9766 26.6122 55.8366 25.766 55.8366 24.8529C55.8366 24.0289 55.9888 23.2392 56.2932 22.4836C56.5931 21.7354 57.0331 21.0507 57.5898 20.466C58.1419 19.8924 58.838 19.4277 59.6781 19.0723C60.5183 18.7169 61.4577 18.5391 62.4967 18.5391C63.6331 18.5391 64.5665 18.6765 65.2971 18.9511C66.0278 19.2259 66.6325 19.6056 67.1114 20.0903C67.5741 20.5508 67.9108 21.094 68.122 21.72C68.3331 22.3463 68.4385 23.0028 68.4385 23.6894V24.4772H60.2077C60.2077 26.1334 60.5284 27.394 61.1697 28.2582C61.8109 29.1228 62.8297 29.5549 64.2257 29.5549C64.9888 29.5549 65.6746 29.3471 66.2835 28.9308C66.8923 28.5147 67.4118 27.9877 67.842 27.3493L68.7672 28.0155ZM64.1161 23.4105C64.1161 22.9258 64.0917 22.4288 64.0431 21.92C63.9945 21.4112 63.9092 20.9948 63.7873 20.6717C63.6493 20.292 63.4603 20.0052 63.2212 19.8113C62.9817 19.6174 62.6793 19.5204 62.314 19.5204C61.689 19.5204 61.1898 19.8354 60.8164 20.4656C60.4431 21.0957 60.2401 22.0937 60.2076 23.4589L64.1161 23.4105ZM86.0083 30.9118H78.6905V30.0271C78.8447 30.0111 79.0314 29.9907 79.2506 29.9665C79.4698 29.9422 79.636 29.9021 79.7497 29.8453C79.9201 29.7566 80.042 29.6271 80.1151 29.4575C80.1881 29.2879 80.2245 29.0375 80.2245 28.7062V23.0348C80.2245 22.2106 80.0718 21.5907 79.7666 21.1744C79.4615 20.7584 79.0116 20.5504 78.4173 20.5504C78.0918 20.5504 77.7888 20.5988 77.508 20.6958C77.2273 20.7928 76.9525 20.9342 76.6837 21.12C76.4477 21.2817 76.2584 21.4472 76.116 21.6169C75.9921 21.7633 75.8721 21.9129 75.7558 22.0654V28.573C75.7558 28.8558 75.7964 29.0923 75.8776 29.2819C75.9586 29.4719 76.0925 29.6153 76.2793 29.7121C76.409 29.7849 76.5717 29.8497 76.7663 29.9059C76.9611 29.9627 77.1517 30.0029 77.3386 30.0273V30.9118H69.9358V30.0271C70.1413 30.0108 70.3463 29.9885 70.5506 29.9604C70.7576 29.9321 70.9343 29.8938 71.0803 29.8453C71.3401 29.7566 71.5187 29.6191 71.6162 29.4333C71.7134 29.2475 71.7623 29.0051 71.7623 28.7061V21.6528C71.7623 21.4025 71.6972 21.156 71.5674 20.9137C71.4376 20.6713 71.2672 20.4734 71.0562 20.3198C70.9099 20.2229 70.7254 20.1422 70.5021 20.0774C70.2788 20.0129 70.0334 19.9685 69.7655 19.9442V19.0596L75.5734 18.7445L75.756 18.9264V20.6834H75.8047C76.0796 20.4398 76.3555 20.1975 76.6326 19.9564C76.9572 19.6737 77.2575 19.4434 77.5336 19.2656C77.8337 19.0716 78.2277 18.9061 78.7146 18.7686C79.2016 18.6313 79.7211 18.5626 80.2731 18.5626C81.5961 18.5626 82.5883 18.9364 83.2501 19.6836C83.9116 20.431 84.2422 21.4228 84.2422 22.6589V28.5971C84.2422 28.8962 84.2867 29.1346 84.3761 29.3121C84.4654 29.4899 84.6319 29.6313 84.8753 29.7362C85.005 29.793 85.1656 29.8495 85.3562 29.9058C85.5469 29.9626 85.764 30.0027 86.0077 30.0271V30.9117L86.0083 30.9118ZM102.762 30.9118H97.0229C96.3173 29.6791 95.6726 28.6333 95.089 27.7752C94.5446 26.9745 93.993 26.1786 93.4343 25.3878L92.717 25.9917V28.6335C92.717 28.9245 92.7595 29.1627 92.8447 29.3485C92.9299 29.5343 93.0944 29.6718 93.3379 29.7605C93.4841 29.8253 93.6545 29.8818 93.8494 29.9301C94.0443 29.9783 94.2389 30.0111 94.4337 30.027V30.9117H86.8726V30.027C87.0775 30.0109 87.2819 29.9886 87.4854 29.9603C87.6898 29.932 87.8696 29.8935 88.0247 29.8451C88.286 29.7563 88.464 29.619 88.5581 29.433C88.6522 29.2474 88.699 29.0049 88.699 28.7059V15.1936C88.699 14.9269 88.64 14.6503 88.5224 14.3635C88.4046 14.0769 88.232 13.8607 88.0049 13.7152C87.8507 13.6183 87.6194 13.5376 87.3109 13.4728C87.0024 13.4081 86.7224 13.3679 86.4707 13.3516V12.4669L92.5339 12.1519L92.7167 12.3457V24.8518C93.3166 24.3185 93.9915 23.7005 94.7414 22.9977C95.4913 22.295 96.0932 21.7133 96.5474 21.2528C96.8154 20.9782 96.9632 20.7702 96.9917 20.6288C97.02 20.4875 97.0344 20.4006 97.0344 20.3682C97.0344 20.2228 96.9061 20.1016 96.65 20.0048C96.3935 19.9078 96.0079 19.8228 95.4928 19.7501V18.8897H101.678V19.726C100.868 19.9524 100.25 20.1644 99.8243 20.3622C99.399 20.5602 98.9349 20.8248 98.4323 21.1558C98.1021 21.3727 97.7799 21.6014 97.4665 21.8417C97.1549 22.0807 96.7968 22.3786 96.3921 22.7351C97.1862 23.8821 97.9195 24.9435 98.592 25.9207C99.2646 26.8979 99.9695 27.9313 100.707 29.0214C100.958 29.401 101.27 29.6554 101.643 29.7845C102.016 29.9139 102.389 29.9947 102.762 30.0269V30.9118H102.762ZM110.591 30.9118H102.896V30.0271C103.107 30.0111 103.314 29.9907 103.517 29.9665C103.72 29.9422 103.894 29.9021 104.04 29.8453C104.3 29.7485 104.483 29.6091 104.588 29.4272C104.693 29.2453 104.747 29.0053 104.747 28.7061V21.6528C104.747 21.3701 104.681 21.1216 104.552 20.9075C104.422 20.6938 104.259 20.5218 104.065 20.3925C103.919 20.2957 103.697 20.2028 103.401 20.114C103.105 20.025 102.835 19.9684 102.592 19.9444V19.0596L108.558 18.7445L108.74 18.9264V28.5486C108.74 28.8313 108.801 29.0716 108.923 29.2697C109.045 29.4677 109.219 29.6151 109.447 29.7119C109.609 29.7847 109.787 29.8495 109.982 29.9058C110.177 29.9626 110.38 30.0027 110.591 30.0271V30.9117V30.9118ZM108.813 14.3821C108.813 14.9963 108.576 15.5193 108.101 15.9514C107.626 16.3837 107.064 16.5999 106.415 16.5999C105.757 16.5999 105.191 16.3837 104.716 15.9514C104.241 15.5193 104.004 14.996 104.004 14.3821C104.004 13.7681 104.241 13.2431 104.716 12.8067C105.191 12.3703 105.757 12.1521 106.415 12.1521C107.072 12.1521 107.636 12.3704 108.107 12.8067C108.578 13.2431 108.813 13.7681 108.813 14.3821ZM127.783 30.9118H120.465V30.0271C120.62 30.0111 120.807 29.9907 121.026 29.9665C121.245 29.9422 121.411 29.9021 121.525 29.8453C121.695 29.7566 121.817 29.6271 121.89 29.4575C121.963 29.2879 122 29.0375 122 28.7062V23.0348C122 22.2106 121.847 21.5907 121.542 21.1744C121.237 20.7584 120.787 20.5504 120.192 20.5504C119.867 20.5504 119.564 20.5988 119.283 20.6958C119.002 20.7928 118.727 20.9342 118.459 21.12C118.223 21.2817 118.033 21.4472 117.891 21.6169C117.767 21.7633 117.647 21.9129 117.531 22.0654V28.573C117.531 28.8558 117.571 29.0923 117.653 29.2819C117.734 29.4719 117.868 29.6153 118.054 29.7121C118.184 29.7849 118.347 29.8497 118.541 29.9059C118.736 29.9627 118.927 30.0029 119.114 30.0273V30.9118H111.711V30.0271C111.916 30.0108 112.121 29.9885 112.326 29.9604C112.533 29.9321 112.709 29.8938 112.855 29.8453C113.115 29.7566 113.294 29.6191 113.391 29.4333C113.489 29.2475 113.537 29.0051 113.537 28.7061V21.6528C113.537 21.4025 113.472 21.156 113.343 20.9137C113.213 20.6713 113.042 20.4734 112.831 20.3198C112.685 20.2229 112.5 20.1422 112.277 20.0774C112.054 20.0129 111.808 19.9685 111.541 19.9442V19.0596L117.348 18.7445L117.531 18.9264V20.6834H117.58C117.855 20.4398 118.131 20.1975 118.408 19.9564C118.732 19.6737 119.032 19.4434 119.309 19.2656C119.609 19.0716 120.003 18.9061 120.49 18.7686C120.977 18.6313 121.496 18.5626 122.048 18.5626C123.371 18.5626 124.363 18.9364 125.025 19.6836C125.687 20.431 126.017 21.4228 126.017 22.6589V28.5971C126.017 28.8962 126.062 29.1346 126.151 29.3121C126.241 29.4899 126.407 29.6313 126.65 29.7362C126.78 29.793 126.941 29.8495 127.131 29.9058C127.322 29.9626 127.539 30.0027 127.783 30.0271V30.9117L127.783 30.9118ZM134.553 31.3239C133.771 31.3247 132.993 31.2083 132.246 30.9785C131.495 30.7483 130.913 30.5041 130.498 30.2454L130.133 31.0694H129.184L129.025 26.549H129.914C130.036 26.9125 130.239 27.3227 130.523 27.7791C130.807 28.2355 131.132 28.6455 131.497 29.0093C131.879 29.3727 132.315 29.6798 132.806 29.9303C133.297 30.1809 133.823 30.3061 134.383 30.3061C135.121 30.3061 135.671 30.1627 136.032 29.8759C136.394 29.5891 136.574 29.1467 136.574 28.5489C136.574 28.2258 136.493 27.9593 136.331 27.749C136.168 27.539 135.945 27.3572 135.661 27.2037C135.345 27.0421 134.998 26.9048 134.62 26.7914C134.243 26.6786 133.778 26.5413 133.226 26.3794C132.674 26.218 132.201 26.0541 131.808 25.8885C131.414 25.7231 131.006 25.4625 130.584 25.1069C130.219 24.7918 129.926 24.4124 129.707 23.968C129.488 23.5237 129.379 22.9945 129.379 22.3802C129.379 21.2413 129.86 20.3202 130.822 19.6173C131.784 18.9144 133.044 18.5629 134.602 18.5629C135.341 18.5629 136.021 18.6378 136.641 18.7872C137.262 18.9369 137.784 19.1002 138.206 19.2781L138.462 18.5632H139.387L139.582 22.6956H138.73C138.445 21.8556 137.958 21.1306 137.269 20.5204C136.579 19.9105 135.836 19.6053 135.04 19.6053C134.415 19.6053 133.924 19.7346 133.567 19.9932C133.21 20.2519 133.031 20.6112 133.031 21.0717C133.031 21.6858 133.293 22.1302 133.815 22.4048C134.338 22.6797 135.069 22.938 136.009 23.1804C137.46 23.5521 138.521 24.059 139.194 24.7012C139.866 25.3436 140.203 26.1616 140.203 27.1552C140.203 28.4802 139.681 29.5063 138.638 30.2333C137.595 30.9603 136.233 31.3239 134.553 31.3239H134.553Z" fill="black"/>
</g>
<defs>
<clipPath id="clip0_38_136">
<rect width="141" height="43" fill="white" transform="translate(0 0.272461)"/>
</clipPath>
</defs>
</svg>
