<svg width="123" height="44" viewBox="0 0 123 44" fill="none" xmlns="http://www.w3.org/2000/svg">
<g clip-path="url(#clip0_39_284)">
<path d="M28.9728 26.4516V17.0895L20.6484 21.7782L28.9728 26.4514" fill="white"/>
<path d="M28.434 16.1762L20.095 11.4997V20.8637L28.434 16.1762ZM19.0112 20.8634V11.4994L10.6663 16.1759L19.0112 20.8634ZM18.4718 10.601L10.1348 5.89752V15.2752L18.4718 10.601Z" fill="#00AEDE"/>
<path d="M28.4337 27.3513L20.0947 22.679V32.0413L28.4337 27.3512V27.3513ZM19.0109 32.0415V22.6787L10.666 27.3513L19.0109 32.0413" fill="white"/>
<path d="M38.4078 21.7781L30.0566 17.0901V26.4513L38.4078 21.7781ZM9.04903 15.2752V5.89752L0.649414 10.601L9.04918 15.2752" fill="#00AEDE"/>
<path d="M18.4718 32.9413L10.1348 28.2548V37.6294L18.4718 32.9414" fill="white"/>
<path d="M9.04904 37.6295V28.2551L0.649414 32.9416L9.04904 37.6295Z" fill="#00AEDE"/>
<path d="M18.4718 21.7781L10.1348 17.0901V26.4513L18.4718 21.7781Z" fill="white"/>
<path d="M28.9728 15.2752V5.89752L20.6484 10.601L28.9728 15.2752Z" fill="#00AEDE"/>
<path d="M20.0952 0.322632V9.68333L28.4342 4.99685L20.0952 0.32278V0.322632ZM10.666 4.99685L19.011 9.68333V0.32278L10.666 4.99685ZM28.4339 38.5282L20.0949 33.8571V43.2165L28.4339 38.5284V38.5282ZM19.0111 43.2168V33.8568L10.6662 38.5285L19.0111 43.2168Z" fill="white"/>
<path d="M38.9479 32.0415V22.6787L30.6183 27.3515L38.9479 32.0415ZM9.04873 26.4516V17.0749L0.649113 21.7782L9.04889 26.4516H9.04873ZM8.51142 27.3513L0.0996094 22.6789V32.0412L8.51142 27.351V27.3513ZM38.9479 20.8634V11.4994L30.6183 16.1759L38.9479 20.8634ZM38.4075 10.601L30.0563 5.89752V15.2752L38.4075 10.601ZM38.4075 32.9413L30.0563 28.2548V37.6294L38.4075 32.9414" fill="#00AEDE"/>
<path d="M28.9728 37.6295V28.2551L20.6484 32.9416L28.9728 37.6295Z" fill="white"/>
<path d="M8.51142 16.1762L0.0996094 11.4998V20.8637L8.51142 16.1762Z" fill="#00AEDE"/>
</g>
<path d="M61.5222 17.5007L63.2972 15.4654V28.6477H61.398V20.4271L57.3391 25.5237L57.164 25.7213L56.99 25.5237L52.8874 20.4271V28.6512H51V15.4689L52.775 17.5019L57.1557 22.9156L61.5222 17.5007ZM69.5985 15.4677H77.0724V17.148H71.4871V21.169H76.8831V22.8683H71.4871V26.9626H77.2534V28.643H69.5973L69.5985 15.4677ZM87.1781 23.1286L85.7439 22.2589C84.8366 21.7098 84.1964 21.1694 83.8233 20.6377C83.4411 20.1028 83.2411 19.4591 83.2518 18.8035C83.2357 18.3285 83.3242 17.8558 83.5111 17.4188C83.698 16.9818 83.9787 16.5912 84.3333 16.2748C85.0536 15.6279 85.9892 15.3044 87.1402 15.3044C88.2211 15.298 89.2781 15.6221 90.1695 16.2333V18.387C89.2197 17.4679 88.1973 17.0084 87.1023 17.0084C86.5638 16.9852 86.0319 17.1345 85.5841 17.4344C85.4018 17.5531 85.2521 17.7155 85.1487 17.907C85.0454 18.0984 84.9916 18.3126 84.9924 18.5302C84.9988 18.9411 85.1544 19.3356 85.4303 19.6402C85.8385 20.0756 86.3142 20.4425 86.8503 20.7253L88.2916 21.5773C89.9009 22.5429 90.7056 23.7684 90.7056 25.2539C90.7222 25.7339 90.6357 26.2119 90.452 26.6556C90.2683 27.0994 89.9916 27.4987 89.6406 27.8264C88.9329 28.4836 88.0139 28.8122 86.8834 28.8122C85.5969 28.8176 84.3451 28.3951 83.3251 27.6111V25.2444C84.3452 26.5287 85.5273 27.1709 86.8716 27.1709C87.4082 27.1899 87.9335 27.0142 88.3507 26.6762C88.5377 26.5292 88.6884 26.341 88.791 26.1264C88.8936 25.9117 88.9454 25.6764 88.9424 25.4385C88.9385 24.6378 88.3547 23.8773 87.1911 23.157L87.1781 23.1286ZM103.103 15.2784C105.14 15.2784 106.836 15.9233 108.192 17.2131C109.547 18.503 110.225 20.1202 110.225 22.0648C110.225 24.0086 109.545 25.618 108.185 26.8928C106.825 28.1669 105.098 28.798 103.004 28.7861C101.016 28.7861 99.3613 28.1491 98.0399 26.8751C96.7177 25.601 96.0558 24.0055 96.0542 22.0885C96.0542 20.1178 96.7248 18.4888 98.0659 17.2013C99.407 15.913 101.094 15.2701 103.127 15.2725L103.103 15.2784ZM103.178 17.0711C101.67 17.0711 100.43 17.5425 99.4587 18.4852C98.4884 19.4279 97.9973 20.631 97.9854 22.0944C97.9681 22.7548 98.0891 23.4115 98.3408 24.0223C98.5925 24.6331 98.9693 25.1844 99.4469 25.6408C100.429 26.5836 101.652 27.0557 103.115 27.0573C103.794 27.0765 104.47 26.9586 105.103 26.7105C105.735 26.4625 106.312 26.0894 106.797 25.6136C107.278 25.1493 107.658 24.59 107.912 23.9712C108.166 23.3523 108.289 22.6874 108.272 22.0187C108.299 20.6886 107.763 19.4082 106.797 18.4947C106.317 18.0278 105.75 17.6614 105.127 17.4171C104.504 17.1728 103.838 17.0556 103.17 17.0723L103.178 17.0711ZM119.275 23.1274L117.841 22.2577C116.933 21.7086 116.293 21.1682 115.92 20.6365C115.538 20.1016 115.338 19.4579 115.348 18.8024C115.332 18.3273 115.421 17.8546 115.608 17.4176C115.795 16.9806 116.075 16.59 116.43 16.2736C117.15 15.6267 118.086 15.3032 119.237 15.3032C120.318 15.2968 121.375 15.6209 122.266 16.2321V18.3858C121.316 17.4668 120.294 17.0072 119.199 17.0072C118.661 16.984 118.129 17.1333 117.681 17.4332C117.499 17.5519 117.349 17.7144 117.245 17.9058C117.142 18.0972 117.088 18.3115 117.089 18.529C117.096 18.9399 117.251 19.3344 117.527 19.639C117.935 20.0744 118.411 20.4413 118.947 20.7241L120.388 21.5761C121.996 22.5354 122.8 23.7582 122.8 25.2444C122.818 25.7257 122.733 26.2053 122.549 26.6505C122.365 27.0957 122.088 27.496 121.735 27.8241C121.027 28.4812 120.108 28.8098 118.978 28.8098C117.691 28.8153 116.439 28.3927 115.419 27.6087V25.242C116.44 26.5264 117.622 27.1685 118.966 27.1685C119.503 27.1875 120.028 27.0119 120.445 26.6739C120.632 26.5268 120.783 26.3387 120.885 26.124C120.988 25.9094 121.04 25.674 121.037 25.4361C121.029 24.6354 120.446 23.8749 119.289 23.1546L119.275 23.1274Z" fill="#00AEDE"/>
<defs>
<clipPath id="clip0_39_284">
<rect width="39" height="43" fill="white" transform="translate(0 0.272461)"/>
</clipPath>
</defs>
</svg>
