<svg width="152" height="45" viewBox="0 0 152 45" fill="none" xmlns="http://www.w3.org/2000/svg">
<g clip-path="url(#clip0_39_394)">
<path d="M57.3113 19.0065C57.3113 14.3596 55.9821 11.9739 53.3234 11.8434C52.2654 11.7936 51.2329 11.9614 50.228 12.3504C49.4261 12.6364 48.8864 12.9197 48.6024 13.206V24.2977C50.3029 25.3616 51.813 25.8563 53.1301 25.7784C55.9162 25.5943 57.3113 23.3394 57.3113 19.0065ZM60.5908 19.1992C60.5908 21.56 60.0353 23.5197 58.9181 25.0779C57.6731 26.8417 55.9476 27.7499 53.7415 27.7996C52.0784 27.8523 50.3651 27.3331 48.6021 26.2443V36.3254L45.75 35.3112V12.935C46.218 12.3629 46.8205 11.8714 47.5504 11.4544C49.2481 10.4683 51.3104 9.96156 53.7383 9.93666L53.7786 9.97687C55.9975 9.94911 57.707 10.8573 58.9085 12.6986C60.0289 14.3877 60.5908 16.5525 60.5908 19.1992ZM78.0211 25.8154C78.0211 28.982 77.7029 31.1746 77.0665 32.3939C76.4269 33.6129 75.2097 34.5865 73.4125 35.3116C71.9552 35.8837 70.3792 36.1949 68.6882 36.2478L68.2167 34.4563C69.9361 34.2234 71.1469 33.9898 71.8489 33.7565C73.2313 33.29 74.1798 32.5749 74.701 31.6166C75.1191 30.836 75.3249 29.3461 75.3249 27.141V26.4007C73.3747 27.2843 71.331 27.7227 69.1937 27.7227C67.7893 27.7227 66.5507 27.2843 65.4834 26.4007C64.2851 25.4395 63.6862 24.2205 63.6862 22.743V10.9103L66.5382 9.93666V21.8463C66.5382 23.1183 66.9499 24.0983 67.7736 24.7856C68.5973 25.473 69.6647 25.803 70.9721 25.7777C72.2795 25.7497 73.6804 25.2458 75.1687 24.2597V10.3656H78.0208V25.8154H78.0211ZM89.1544 27.6442C88.842 27.6705 88.5287 27.684 88.2152 27.6844C86.602 27.6844 85.3442 27.3021 84.4459 26.5337C83.5502 25.7656 83.101 24.7052 83.101 23.3519V12.1542H81.1476V10.3659H83.101V5.6162L85.9499 4.60525V10.3659H89.1544V12.1542H85.9499V23.274C85.9499 24.3411 86.2367 25.0968 86.8107 25.5387C87.3037 25.9025 88.0871 26.1109 89.1541 26.1639V27.6442H89.1544ZM106.423 27.411H103.571V16.4373C103.571 15.3207 103.309 14.3596 102.788 13.5573C102.185 12.6488 101.349 12.1947 100.276 12.1947C98.9681 12.1947 97.3332 12.8821 95.3705 14.2568V27.411H92.5187V1.18085L95.3705 0.285095V12.232C97.1927 10.91 99.1836 10.2475 101.346 10.2475C102.856 10.2475 104.079 10.7546 105.016 11.7655C105.955 12.7761 106.423 14.036 106.423 15.5416V27.411H106.423ZM121.581 18.5588C121.581 16.7733 121.241 15.299 120.564 14.1327C119.759 12.7114 118.508 11.9614 116.817 11.8839C113.69 12.0642 112.129 14.2973 112.129 18.5776C112.129 20.5401 112.454 22.1794 113.109 23.4951C113.946 25.1718 115.2 25.9992 116.873 25.9711C120.012 25.9459 121.581 23.4763 121.581 18.5588ZM124.705 18.5773C124.705 21.1187 124.053 23.2338 122.752 24.9225C121.319 26.8139 119.341 27.7623 116.817 27.7623C114.314 27.7623 112.364 26.8136 110.957 24.9225C109.68 23.2338 109.043 21.1187 109.043 18.5773C109.043 16.1887 109.733 14.1793 111.112 12.5432C112.57 10.8075 114.485 9.93666 116.854 9.93666C119.222 9.93666 121.151 10.8075 122.636 12.5432C124.015 14.1793 124.705 16.1887 124.705 18.5773ZM141.056 27.411H138.203V15.8154C138.203 14.5434 137.82 13.5509 137.052 12.8355C136.285 12.1232 135.261 11.7779 133.985 11.8057C132.631 11.8306 131.342 12.2723 130.119 13.1278V27.411H127.267V12.7764C128.908 11.5855 130.418 10.8075 131.798 10.4437C133.099 10.1048 134.247 9.93666 135.236 9.93666C135.913 9.93666 136.55 10.0018 137.149 10.1326C138.269 10.3908 139.181 10.8698 139.882 11.5728C140.666 12.3504 141.056 13.2832 141.056 14.3752V27.411Z" fill="#646464"/>
<path d="M17.5813 1.28583C16.1138 1.29254 14.7126 1.41731 13.4798 1.63494C9.84752 2.27477 9.18804 3.61344 9.18804 6.08274V9.34376H17.7715V10.4307H5.96653C3.47204 10.4307 1.28745 11.9254 0.604284 14.7687C-0.183886 18.0278 -0.218781 20.0615 0.604284 23.4645C1.21446 25.9976 2.67171 27.8025 5.16619 27.8025H8.11751V23.8934C8.11751 21.0692 10.5688 18.5782 13.4798 18.5782H22.0533C24.4399 18.5782 26.345 16.6195 26.345 14.2303V6.08242C26.345 3.76375 24.3826 2.02171 22.0533 1.63462C20.5784 1.39018 19.0488 1.27881 17.5813 1.28583ZM12.9394 3.9083C13.8261 3.9083 14.55 4.64195 14.55 5.54376C14.55 6.44238 13.8258 7.16932 12.9394 7.16932C12.0497 7.16932 11.3288 6.4427 11.3288 5.54376C11.3288 4.64195 12.0497 3.9083 12.9394 3.9083Z" fill="url(#paint0_linear_39_394)"/>
<path d="M27.4159 10.4304V14.2297C27.4159 17.1754 24.9106 19.6546 22.0537 19.6546H13.4802C11.1317 19.6546 9.18848 21.658 9.18848 24.0025V32.1498C9.18848 34.4688 11.2111 35.8327 13.4802 36.4977C16.1972 37.2942 18.8027 37.4382 22.0537 36.4977C24.2146 35.8742 26.3454 34.6188 26.3454 32.1498V28.8891H17.7719V27.8022H30.6371C33.1319 27.8022 34.0613 26.0675 34.9289 23.4642C35.8252 20.7843 35.7871 18.2065 34.9289 14.7684C34.3123 12.293 33.1348 10.4304 30.6371 10.4304H27.4159ZM22.5938 31.0629C23.4834 31.0629 24.2044 31.7895 24.2044 32.6885C24.2044 33.5903 23.4834 34.3239 22.5938 34.3239C21.707 34.3239 20.9832 33.5903 20.9832 32.6885C20.9832 31.7899 21.7073 31.0629 22.5938 31.0629Z" fill="url(#paint1_linear_39_394)"/>
<path d="M146.61 7.83115H147.11V4.70512H148.294V4.3324H145.425V4.70512H146.609V7.83115H146.61ZM148.738 7.83115H149.165V4.97605L150.092 7.83083H150.567L151.534 4.98562V7.83115H152V4.33272H151.383L150.327 7.33014L149.427 4.33272H148.738V7.83115Z" fill="#646464"/>
<path opacity="0.444" d="M29.372 42.0366C29.372 43.2645 24.222 44.2598 17.869 44.2598C11.5162 44.2598 6.36621 43.2645 6.36621 42.0366C6.36621 40.8086 11.5162 39.813 17.869 39.813C24.222 39.813 29.372 40.8086 29.372 42.0366Z" fill="url(#paint2_radial_39_394)"/>
</g>
<defs>
<linearGradient id="paint0_linear_39_394" x1="-0.846564" y1="2.30412" x2="18.8936" y2="19.1771" gradientUnits="userSpaceOnUse">
<stop stop-color="#5A9FD4"/>
<stop offset="1" stop-color="#306998"/>
</linearGradient>
<linearGradient id="paint1_linear_39_394" x1="26.3743" y1="29.5946" x2="19.3029" y2="19.6548" gradientUnits="userSpaceOnUse">
<stop stop-color="#FFD43B"/>
<stop offset="1" stop-color="#FFE873"/>
</linearGradient>
<radialGradient id="paint2_radial_39_394" cx="0" cy="0" r="1" gradientUnits="userSpaceOnUse" gradientTransform="translate(17.8653 41.9854) rotate(-90) scale(2.22294 9.80422)">
<stop stop-color="#B8B8B8" stop-opacity="0.498"/>
<stop offset="1" stop-color="#7F7F7F" stop-opacity="0"/>
</radialGradient>
<clipPath id="clip0_39_394">
<rect width="152" height="44" fill="white" transform="translate(0 0.272461)"/>
</clipPath>
</defs>
</svg>
