<svg width="96" height="68" viewBox="0 0 96 68" fill="none" xmlns="http://www.w3.org/2000/svg">
<g clip-path="url(#clip0_39_421)">
<path d="M39.9494 7.58206C43.0456 4.36572 47.356 2.37086 52.1231 2.37086C58.4602 2.37086 63.989 5.89399 66.9334 11.1242C69.4921 9.98441 72.3242 9.35034 75.304 9.35034C86.7336 9.35034 96 18.6696 96 30.1648C96 41.6613 86.7336 50.9806 75.304 50.9806C73.935 50.9814 72.5693 50.8457 71.2274 50.5756C68.6346 55.1867 63.6937 58.3023 58.0226 58.3023C55.6486 58.3023 53.4031 57.7556 51.4038 56.7834C48.7754 62.9476 42.6517 67.2696 35.5145 67.2696C28.0821 67.2696 21.7477 62.5808 19.3163 56.0049C18.2537 56.2298 17.1529 56.3471 16.0233 56.3471C7.17405 56.3472 0 49.1209 0 40.2053C0 34.2307 3.22325 29.014 8.0123 26.2231C7.02635 23.9612 6.47793 21.4647 6.47793 18.8399C6.47793 8.58682 14.8267 0.275299 25.1241 0.275299C31.1699 0.275299 36.5429 3.14127 39.9494 7.58206Z" fill="#00A1E0"/>
<path d="M13.9045 35.0169C13.8443 35.1738 13.9264 35.2065 13.9455 35.2337C14.126 35.3646 14.3094 35.4588 14.494 35.5637C15.4731 36.0818 16.3976 36.233 17.3644 36.233C19.3336 36.233 20.5562 35.1887 20.5562 33.5075V33.4749C20.5562 31.9204 19.1764 31.356 17.8813 30.9483L17.7132 30.8938C16.7367 30.5775 15.8944 30.3049 15.8944 29.664V29.63C15.8944 29.0819 16.3867 28.6782 17.1498 28.6782C17.9976 28.6782 19.0041 28.9591 19.6523 29.3163C19.6523 29.3163 19.8424 29.4391 19.9121 29.255C19.9504 29.1568 20.2786 28.276 20.3129 28.1806C20.3498 28.0769 20.2841 28.0006 20.2171 27.9597C19.4773 27.5111 18.4544 27.2043 17.396 27.2043L17.1991 27.2056C15.3967 27.2056 14.1386 28.291 14.1386 29.8466V29.8794C14.1386 31.5196 15.5266 32.0513 16.8272 32.4222L17.0364 32.4863C17.9841 32.7767 18.8005 33.0262 18.8005 33.6916V33.7243C18.8005 34.3325 18.27 34.7851 17.4138 34.7851C17.0815 34.7851 16.0217 34.7783 14.8771 34.0569C14.7389 33.9764 14.6583 33.9179 14.5516 33.8538C14.4956 33.8183 14.3547 33.7569 14.2932 33.9424L13.9045 35.0169ZM42.7331 35.0169C42.673 35.1738 42.755 35.2065 42.7742 35.2337C42.9546 35.3646 43.138 35.4588 43.3225 35.5637C44.3016 36.0818 45.2262 36.233 46.193 36.233C48.1622 36.233 49.3848 35.1887 49.3848 33.5075V33.4749C49.3848 31.9204 48.005 31.356 46.7099 30.9483L46.5417 30.8938C45.5653 30.5775 44.7228 30.3049 44.7228 29.664V29.63C44.7228 29.0819 45.2151 28.6782 45.9782 28.6782C46.8261 28.6782 47.8326 28.9591 48.4808 29.3163C48.4808 29.3163 48.6709 29.4391 48.7406 29.255C48.7788 29.1568 49.1071 28.276 49.1413 28.1806C49.1783 28.0769 49.1126 28.0006 49.0456 27.9597C48.3057 27.5111 47.2828 27.2043 46.2244 27.2043L46.0274 27.2056C44.225 27.2056 42.9669 28.291 42.9669 29.8466V29.8794C42.9669 31.5196 44.3549 32.0513 45.6555 32.4222L45.8647 32.4863C46.8124 32.7767 47.6303 33.0262 47.6303 33.6916V33.7243C47.6303 34.3325 47.0983 34.7851 46.2422 34.7851C45.91 34.7851 44.8501 34.7783 43.7055 34.0569C43.5673 33.9764 43.4854 33.9206 43.3815 33.8538C43.3458 33.8306 43.179 33.7665 43.1215 33.9424L42.7331 35.0169ZM62.4137 31.7239C62.4137 32.6743 62.2359 33.4227 61.8858 33.9518C61.5398 34.4754 61.0161 34.7304 60.2859 34.7304C59.5544 34.7304 59.0333 34.4767 58.6928 33.9518C58.3481 33.4242 58.1732 32.6743 58.1732 31.7239C58.1732 30.775 58.3481 30.0278 58.6928 29.5042C59.0333 28.9862 59.5544 28.7339 60.2859 28.7339C61.0162 28.7339 61.5399 28.9862 61.8873 29.5042C62.236 30.0277 62.4137 30.7749 62.4137 31.7239ZM64.0575 29.9624C63.8961 29.4183 63.6445 28.9384 63.3095 28.5389C62.9744 28.1381 62.5505 27.8163 62.0472 27.5818C61.5453 27.3487 60.9519 27.2301 60.2859 27.2301C59.6186 27.2301 59.0251 27.3487 58.5232 27.5818C58.0199 27.8163 57.596 28.1381 57.2596 28.5389C56.9259 28.9398 56.6743 29.4197 56.5116 29.9624C56.3516 30.5036 56.2709 31.0953 56.2709 31.7239C56.2709 32.3525 56.3516 32.9456 56.5116 33.4855C56.6743 34.0282 56.9246 34.5082 57.261 34.9089C57.596 35.3098 58.0213 35.6302 58.5233 35.8578C59.0264 36.0856 59.6186 36.2014 60.286 36.2014C60.952 36.2014 61.5441 36.0856 62.0473 35.8578C62.5492 35.6302 62.9744 35.3097 63.3096 34.9089C63.6446 34.5094 63.8962 34.0295 64.0576 33.4855C64.2191 32.9443 64.2997 32.3511 64.2997 31.7239C64.2997 31.0968 64.2189 30.5036 64.0575 29.9624ZM77.5559 34.4766C77.5012 34.317 77.3466 34.377 77.3466 34.377C77.1074 34.4684 76.8529 34.5529 76.5822 34.5952C76.3073 34.6373 76.0051 34.6593 75.6809 34.6593C74.8852 34.6593 74.2533 34.4234 73.8007 33.9571C73.3467 33.4908 73.0923 32.7368 73.095 31.7169C73.0978 30.7884 73.322 30.0903 73.7255 29.5586C74.1262 29.0297 74.7361 28.7582 75.5498 28.7582C76.2281 28.7582 76.745 28.8359 77.2864 29.0064C77.2864 29.0064 77.4163 29.0622 77.4778 28.8932C77.6214 28.495 77.7281 28.2101 77.8812 27.7724C77.925 27.6484 77.8184 27.5952 77.78 27.5801C77.5667 27.497 77.0635 27.3621 76.6833 27.3048C76.3277 27.2503 75.912 27.2216 75.4498 27.2216C74.7591 27.2216 74.1438 27.3389 73.6174 27.5734C73.0922 27.8065 72.6464 28.1283 72.2936 28.5292C71.9408 28.9301 71.6728 29.4099 71.4936 29.9526C71.3158 30.4938 71.2256 31.0883 71.2256 31.7169C71.2256 33.0763 71.5935 34.1751 72.3197 34.9797C73.0471 35.7869 74.1398 36.1972 75.5648 36.1972C76.4072 36.1972 77.2715 36.0269 77.8924 35.7827C77.8924 35.7827 78.0114 35.7254 77.9594 35.5879L77.5559 34.4766ZM80.4319 30.8135C80.5098 30.2859 80.6562 29.8468 80.8818 29.5047C81.2224 28.9852 81.742 28.7003 82.4723 28.7003C83.2027 28.7003 83.6853 28.9865 84.0313 29.5047C84.2611 29.8468 84.3609 30.3051 84.4006 30.8135H80.4319ZM85.9663 29.6532C85.8268 29.1282 85.4808 28.5978 85.2538 28.3552C84.8955 27.9707 84.5455 27.7021 84.1981 27.5521C83.7441 27.3584 83.1998 27.2303 82.6036 27.2303C81.9089 27.2303 81.2784 27.3463 80.767 27.5862C80.2542 27.8262 79.8235 28.1535 79.4857 28.5611C79.1478 28.9674 78.8935 29.4514 78.7321 30.0009C78.5694 30.5477 78.4873 31.1435 78.4873 31.7719C78.4873 32.4115 78.5722 33.0073 78.7403 33.5431C78.9099 34.0831 79.1806 34.5589 79.5472 34.9528C79.9122 35.3497 80.3827 35.6606 80.9461 35.8772C81.5055 36.0927 82.1852 36.2045 82.966 36.203C84.5729 36.1976 85.4193 35.8404 85.768 35.6481C85.8296 35.6141 85.8884 35.5541 85.8144 35.3823L85.4507 34.3665C85.3961 34.2152 85.2415 34.271 85.2415 34.271C84.8435 34.4183 84.2775 34.6828 82.9577 34.6801C82.0949 34.6788 81.4548 34.4252 81.054 34.0284C80.6425 33.6221 80.4414 33.0248 80.4059 32.1823L85.9703 32.1877C85.9703 32.1877 86.1166 32.1851 86.1318 32.0432C86.1372 31.9834 86.3233 30.9035 85.9663 29.6532ZM35.8688 30.8135C35.9481 30.2859 36.0931 29.8468 36.3187 29.5047C36.6592 28.9852 37.1789 28.7003 37.9091 28.7003C38.6393 28.7003 39.1221 28.9865 39.4694 29.5047C39.6977 29.8468 39.7976 30.3051 39.8373 30.8135H35.8688ZM41.4017 29.6532C41.2623 29.1282 40.9177 28.5978 40.6907 28.3552C40.3324 27.9707 39.9823 27.7021 39.635 27.5521C39.1809 27.3584 38.6367 27.2303 38.0405 27.2303C37.3471 27.2303 36.7153 27.3463 36.2039 27.5862C35.6911 27.8262 35.2603 28.1535 34.9225 28.5611C34.5848 28.9674 34.3304 29.4514 34.169 30.0009C34.0077 30.5477 33.9243 31.1435 33.9243 31.7719C33.9243 32.4115 34.009 33.0073 34.1773 33.5431C34.3469 34.0831 34.6177 34.5589 34.9841 34.9528C35.3493 35.3497 35.8197 35.6606 36.3831 35.8772C36.9425 36.0927 37.6221 36.2045 38.4029 36.203C40.0098 36.1976 40.8563 35.8404 41.205 35.6481C41.2666 35.6141 41.3253 35.5541 41.2515 35.3823L40.8891 34.3665C40.833 34.2152 40.6786 34.271 40.6786 34.271C40.2807 34.4183 39.7158 34.6828 38.3934 34.6801C37.5319 34.6788 36.8919 34.4252 36.4912 34.0284C36.0795 33.6221 35.8786 33.0248 35.8429 32.1823L41.4074 32.1877C41.4074 32.1877 41.5536 32.1851 41.5687 32.0432C41.574 31.9834 41.76 30.9035 41.4017 29.6532ZM23.8413 34.4462C23.6238 34.273 23.5938 34.2294 23.52 34.1176C23.4105 33.9471 23.3545 33.7044 23.3545 33.3963C23.3545 32.9081 23.5158 32.5578 23.8509 32.3219C23.8469 32.3233 24.3296 31.9061 25.4646 31.921C26.2618 31.9319 26.9742 32.0492 26.9742 32.0492V34.5716H26.9756C26.9756 34.5716 26.2686 34.7229 25.4727 34.7706C24.3404 34.8388 23.8372 34.4448 23.8413 34.4462ZM26.0553 30.5481C25.8296 30.5317 25.5369 30.5221 25.1869 30.5221C24.7096 30.5221 24.2488 30.5821 23.8166 30.698C23.3818 30.8138 22.9907 30.9953 22.6542 31.2351C22.3183 31.4742 22.0422 31.7872 21.8474 32.15C21.6505 32.5154 21.5507 32.9463 21.5507 33.429C21.5507 33.9198 21.6354 34.3465 21.805 34.6957C21.9746 35.046 22.2194 35.3378 22.5311 35.5628C22.8402 35.7878 23.2218 35.9527 23.6648 36.0522C24.1011 36.1518 24.5961 36.2022 25.1376 36.2022C25.7079 36.2022 26.2768 36.1559 26.8279 36.0617C27.3735 35.969 28.0436 35.834 28.2295 35.7918C28.3599 35.7605 28.4899 35.7273 28.6193 35.6923C28.7575 35.6583 28.7465 35.5109 28.7465 35.5109L28.7438 30.4376C28.7438 29.3249 28.4457 28.5 27.859 27.9888C27.275 27.4789 26.4149 27.2211 25.3031 27.2211C24.886 27.2211 24.2146 27.2784 23.8125 27.3588C23.8125 27.3588 22.5968 27.5934 22.0962 27.9833C22.0962 27.9833 21.9869 28.0515 22.047 28.2043L22.4409 29.2596C22.4901 29.3959 22.6228 29.3496 22.6228 29.3496C22.6228 29.3496 22.6652 29.3332 22.7145 29.3045C23.7853 28.7237 25.1391 28.7415 25.1391 28.7415C25.7408 28.7415 26.2031 28.8614 26.5148 29.1C26.8184 29.3317 26.9729 29.6821 26.9729 30.4211V30.6556C26.4942 30.5875 26.0553 30.5481 26.0553 30.5481ZM70.9349 27.6895C70.9772 27.564 70.8884 27.504 70.8514 27.4904C70.7571 27.4536 70.284 27.354 69.9188 27.3309C69.2201 27.2886 68.8318 27.4059 68.4843 27.5613C68.1397 27.7167 67.7568 27.9675 67.5434 28.2525V27.5777C67.5434 27.4836 67.4764 27.4086 67.3834 27.4086H65.9571C65.8641 27.4086 65.7971 27.4835 65.7971 27.5777V35.8524C65.7971 35.9451 65.8737 36.0215 65.9667 36.0215H67.4286C67.4734 36.0212 67.5162 36.0033 67.5477 35.9716C67.5792 35.9399 67.5969 35.897 67.5967 35.8524V31.7185C67.5967 31.1635 67.6583 30.61 67.7814 30.2623C67.9018 29.9187 68.0659 29.6433 68.2683 29.4456C68.472 29.2493 68.7031 29.1116 68.9561 29.0339C69.2145 28.9547 69.5003 28.9289 69.7028 28.9289C69.994 28.9289 70.3141 29.0038 70.3141 29.0038C70.4206 29.0161 70.4809 28.9506 70.5163 28.8538C70.6121 28.6002 70.8829 27.8408 70.9349 27.6895Z" fill="white"/>
<path d="M57.2129 23.8544C57.0351 23.7999 56.8738 23.763 56.6631 23.7235C56.4497 23.6854 56.1954 23.6662 55.9069 23.6662C54.9003 23.6662 54.1072 23.9498 53.5507 24.5088C52.9968 25.0652 52.6207 25.9118 52.4319 27.0258L52.3635 27.4007H51.1C51.1 27.4007 50.9469 27.3953 50.914 27.5617L50.7076 28.7165C50.6925 28.8256 50.7404 28.8951 50.888 28.8951H52.1175L50.8703 35.8378C50.7731 36.3968 50.661 36.8563 50.5365 37.2053C50.4148 37.5489 50.2959 37.8066 50.1482 37.9947C50.006 38.1748 49.8719 38.3083 49.6394 38.386C49.4479 38.4501 49.2264 38.4801 48.9844 38.4801C48.8503 38.4801 48.6713 38.4582 48.5386 38.431C48.4073 38.405 48.3376 38.3764 48.2377 38.3341C48.2377 38.3341 48.0941 38.2797 48.0367 38.4228C47.9915 38.5414 47.6633 39.4398 47.6237 39.5504C47.5854 39.6608 47.6401 39.7467 47.7098 39.7726C47.8739 39.8299 47.9956 39.868 48.2185 39.9212C48.5276 39.9935 48.7887 39.9975 49.0335 39.9975C49.5449 39.9975 50.0126 39.9253 50.3997 39.7863C50.7881 39.6458 51.1271 39.4017 51.428 39.0718C51.7521 38.7145 51.9559 38.341 52.1502 37.8297C52.3429 37.3252 52.5085 36.698 52.6397 35.9673L53.8937 28.8951H55.7262C55.7262 28.8951 55.8806 28.9005 55.9122 28.7329L56.12 27.5794C56.1337 27.469 56.0872 27.4008 55.9381 27.4008H54.159C54.1686 27.3613 54.2492 26.7368 54.453 26.1492C54.5406 25.8998 54.7046 25.6965 54.8428 25.5574C54.9796 25.4211 55.1368 25.3243 55.3092 25.2684C55.4856 25.2111 55.6867 25.1839 55.9069 25.1839C56.0737 25.1839 56.2391 25.2029 56.3635 25.2288C56.5358 25.2657 56.6028 25.2847 56.648 25.2984C56.83 25.353 56.8545 25.2998 56.8901 25.2126L57.3154 24.0482C57.3592 23.9225 57.2511 23.8693 57.2129 23.8544ZM32.3548 35.8528C32.3548 35.9455 32.2878 36.0206 32.1948 36.0206H30.7192C30.6262 36.0206 30.5605 35.9455 30.5605 35.8528V24.0126C30.5605 23.9199 30.6262 23.8449 30.7192 23.8449H32.1948C32.2878 23.8449 32.3548 23.9199 32.3548 24.0126V35.8528Z" fill="white"/>
</g>
<defs>
<clipPath id="clip0_39_421">
<rect width="96" height="67" fill="white" transform="translate(0 0.272461)"/>
</clipPath>
</defs>
</svg>
