<svg width="43" height="39" viewBox="0 0 43 39" fill="none" xmlns="http://www.w3.org/2000/svg">
<path d="M41.2273 0H1.70396C1.25207 0 0.818433 0.179682 0.498904 0.499203C0.179375 0.818732 0 1.25205 0 1.70395V37.296C0 37.7479 0.179375 38.1813 0.498904 38.5008C0.818433 38.8203 1.25205 39 1.70396 39H41.2273C41.6792 39 42.1128 38.8203 42.4324 38.5008C42.7519 38.1813 42.9313 37.7479 42.9313 37.296V1.70395C42.9313 1.25207 42.7519 0.818732 42.4324 0.499203C42.1128 0.179674 41.6792 0 41.2273 0ZM42.2605 37.2963C42.2605 37.8707 41.7951 38.336 41.2208 38.336H1.70434C1.13267 38.3324 0.671165 37.8679 0.671165 37.2963V9.27079H42.2606L42.2605 37.2963ZM42.2605 8.60613H0.671088V1.70382C0.669291 1.42801 0.777097 1.16269 0.970854 0.966545C1.16461 0.770397 1.42844 0.658998 1.70424 0.657197H41.2276C41.5034 0.658993 41.7672 0.770397 41.961 0.966545C42.1547 1.16269 42.2625 1.42801 42.2607 1.70382L42.2605 8.60613Z" fill="white"/>
<path d="M4.4412 3.26685C4.08544 3.26685 3.74405 3.4082 3.4925 3.65974C3.24096 3.91129 3.09961 4.25268 3.09961 4.60844C3.09961 4.9642 3.24096 5.30559 3.4925 5.55714C3.74405 5.80868 4.08544 5.95003 4.4412 5.95003C4.79696 5.95003 5.13805 5.80868 5.3899 5.55714C5.64145 5.30559 5.7828 4.9642 5.7828 4.60844C5.7828 4.25268 5.64145 3.91129 5.3899 3.65974C5.13805 3.4082 4.79696 3.26685 4.4412 3.26685Z" fill="white"/>
<path d="M9.98319 3.26685C9.62744 3.26685 9.28635 3.4082 9.0345 3.65974C8.78295 3.91129 8.6416 4.25268 8.6416 4.60844C8.6416 4.9642 8.78295 5.30559 9.0345 5.55714C9.28635 5.80868 9.62744 5.95003 9.98319 5.95003C10.339 5.95003 10.6803 5.80868 10.9319 5.55714C11.1834 5.30559 11.3248 4.9642 11.3248 4.60844C11.3248 4.25268 11.1834 3.91129 10.9319 3.65974C10.6803 3.4082 10.339 3.26685 9.98319 3.26685Z" fill="white"/>
<path d="M15.5174 3.26685C15.1616 3.26685 14.8205 3.4082 14.5687 3.65974C14.3171 3.91129 14.1758 4.25268 14.1758 4.60844C14.1758 4.9642 14.3171 5.30559 14.5687 5.55714C14.8205 5.80868 15.1616 5.95003 15.5174 5.95003C15.8731 5.95003 16.2145 5.80868 16.4661 5.55714C16.7176 5.30559 16.859 4.9642 16.859 4.60844C16.859 4.25268 16.7176 3.91129 16.4661 3.65974C16.2145 3.4082 15.8731 3.26685 15.5174 3.26685Z" fill="white"/>
<path d="M38.4971 3.26685H22.1366C21.6488 3.26685 21.1984 3.52708 20.9543 3.94932C20.7105 4.37186 20.7105 4.89204 20.9543 5.3146C21.1984 5.73684 21.6488 5.99707 22.1366 5.99707H38.4971C38.9847 5.99707 39.4353 5.73684 39.6791 5.3146C39.9232 4.89206 39.9232 4.37188 39.6791 3.94932C39.4354 3.52708 38.9847 3.26685 38.4971 3.26685Z" fill="white"/>
<path d="M27.1409 24.1957H15.7979C15.4391 24.17 15.0861 24.2942 14.8228 24.5392C14.5596 24.7842 14.4102 25.1274 14.4102 25.487C14.4102 25.8466 14.5596 26.1898 14.8228 26.4348C15.086 26.6797 15.4391 26.804 15.7979 26.7782H27.1409C27.4996 26.804 27.8527 26.6797 28.1159 26.4348C28.3792 26.1898 28.5289 25.8466 28.5289 25.487C28.5289 25.1274 28.3792 24.7841 28.1159 24.5392C27.8527 24.2942 27.4996 24.17 27.1409 24.1957ZM27.1409 26.1209H15.7979C15.4496 26.1209 15.1672 25.8385 15.1672 25.4903C15.1672 25.142 15.4496 24.8599 15.7979 24.8599H27.1409C27.4891 24.8599 27.7715 25.142 27.7715 25.4903C27.7715 25.8385 27.4891 26.1209 27.1409 26.1209Z" fill="white"/>
<path d="M27.1409 28.2541H15.7979C15.4391 28.2283 15.0861 28.3526 14.8228 28.5976C14.5596 28.8425 14.4102 29.1857 14.4102 29.5453C14.4102 29.905 14.5596 30.2482 14.8228 30.4931C15.086 30.7381 15.4391 30.8623 15.7979 30.8366H27.1409C27.4996 30.8624 27.8527 30.7381 28.1159 30.4931C28.3792 30.2482 28.5289 29.905 28.5289 29.5453C28.5289 29.1857 28.3792 28.8425 28.1159 28.5976C27.8527 28.3526 27.4996 28.2283 27.1409 28.2541ZM27.1409 30.1724H15.7979C15.4496 30.1724 15.1672 29.8903 15.1672 29.542C15.1672 29.1937 15.4496 28.9113 15.7979 28.9113H27.1409C27.4891 28.9113 27.7715 29.1937 27.7715 29.542C27.7715 29.8903 27.4891 30.1724 27.1409 30.1724Z" fill="white"/>
<path d="M2.97822 36.3576H39.9594C40.1409 36.3576 40.2879 36.2105 40.2879 36.0291V11.5783C40.2879 11.4909 40.2535 11.4073 40.1918 11.3456C40.1301 11.2842 40.0466 11.2495 39.9594 11.2495H2.97823C2.79645 11.2495 2.64941 11.3965 2.64941 11.5783V36.0291C2.64941 36.1162 2.68415 36.1998 2.74554 36.2614C2.80723 36.3231 2.89078 36.3576 2.97823 36.3576L2.97822 36.3576ZM3.30703 11.9137L39.6305 11.914V35.694H3.30703V11.9137Z" fill="white"/>
<path d="M17.8829 22.5927H25.0538C25.2353 22.5927 25.3826 22.4456 25.3826 22.2641C25.3835 21.4607 25.1367 20.6767 24.6756 20.0188C24.2147 19.3612 23.5619 18.8613 22.8066 18.5883C23.3073 18.2193 23.6287 17.6557 23.6909 17.0371C23.7535 16.4184 23.5511 15.8021 23.1339 15.3409C22.7168 14.8794 22.1238 14.6162 21.5018 14.6162C20.8799 14.6162 20.2872 14.8794 19.8701 15.3409C19.4529 15.8021 19.2505 16.4184 19.3128 17.0371C19.3751 17.6558 19.6964 18.2194 20.1971 18.5883C19.435 18.8551 18.7746 19.3522 18.3072 20.0107C17.8398 20.6693 17.5882 21.4565 17.5879 22.2642C17.587 22.4334 17.7146 22.5757 17.8829 22.5927L17.8829 22.5927Z" fill="white"/>
<path d="M38.3364 23.5647C38.151 23.5647 38.001 23.715 38.001 23.9001V30.8363C38.001 31.0217 38.151 31.1717 38.3364 31.1717C38.5217 31.1717 38.6718 31.0217 38.6718 30.8363V23.9001C38.6718 23.8112 38.6364 23.7258 38.5736 23.6629C38.5107 23.6 38.4253 23.5647 38.3364 23.5647Z" fill="white"/>
<path d="M38.3364 31.9164C38.151 31.9164 38.001 32.0667 38.001 32.2518V32.5806C38.001 32.766 38.151 32.916 38.3364 32.916C38.5217 32.916 38.6718 32.766 38.6718 32.5806V32.2452C38.6682 32.0625 38.519 31.9164 38.3364 31.9164Z" fill="white"/>
</svg>
