<svg width="27" height="26" viewBox="0 0 27 26" fill="none" xmlns="http://www.w3.org/2000/svg">
<path d="M18.1154 11.8494H9.13733C8.7653 11.8494 8.46387 12.1508 8.46387 12.5228V25.1739H18.7889V12.5228C18.7889 12.1514 18.487 11.8494 18.1154 11.8494Z" fill="white"/>
<path d="M18.3601 3.61885L15.5577 3.17623L14.3333 0.428706C14.2155 0.177912 13.9205 -0.0139057 13.6256 0.000791228C13.3895 0.000791228 13.1683 0.119129 13.0062 0.414014L11.7228 3.11724L8.9204 3.48579C8.31574 3.57416 8.05027 4.31187 8.49287 4.73976L10.4987 6.74556L9.98237 9.53328C9.86403 10.1379 10.4987 10.6101 11.0443 10.3298L13.5666 9.04638L13.6255 9.07578L16.0594 10.3886C16.5904 10.6834 17.2394 10.2408 17.1363 9.63618L16.6937 6.83376L18.7437 4.87207C19.2008 4.45962 18.9647 3.70725 18.3601 3.61889L18.3601 3.61885Z" fill="white"/>
<path d="M6.39819 10.8201L4.6206 10.5399L3.84402 8.79727C3.769 8.63833 3.58201 8.51651 3.39483 8.52617C3.24536 8.52617 3.10498 8.6012 3.00192 8.78818L2.18806 10.5026L0.410862 10.7365C0.0276124 10.7928 -0.14098 11.2602 0.139763 11.5318L1.4123 12.8034L1.08493 14.5716C1.0099 14.9548 1.4123 15.2541 1.7584 15.0766L3.35789 14.2628L3.39521 14.2813L4.93846 15.1138C5.27492 15.3009 5.68697 15.0202 5.62104 14.6369L5.34027 12.8597L6.64047 11.6158C6.9313 11.3532 6.78144 10.8763 6.39819 10.8201L6.39819 10.8201Z" fill="white"/>
<path d="M26.3919 13.0904L24.8633 12.8491L24.1955 11.3505C24.1313 11.2136 23.9702 11.1092 23.8095 11.1171C23.6809 11.1171 23.5601 11.1817 23.4717 11.3424L22.7717 12.8168L21.2431 13.0177C20.9134 13.0662 20.7684 13.4682 21.0097 13.7016L22.1038 14.7957L21.8223 16.3159C21.7577 16.6456 22.1038 16.9032 22.4014 16.7504L23.777 16.0504L23.8091 16.0665L25.1367 16.7825C25.4266 16.9432 25.7804 16.7019 25.724 16.3724L25.4826 14.8438L26.6011 13.7739C26.8501 13.5491 26.7215 13.1385 26.3919 13.0904L26.3919 13.0904Z" fill="white"/>
<path d="M5.95328 16.2749H0.92542C0.553387 16.2749 0.251953 16.5763 0.251953 16.9483V25.174H6.62724L6.62705 16.9483C6.62705 16.5761 6.3252 16.2747 5.95319 16.2747L5.95328 16.2749Z" fill="white"/>
<path d="M26.3268 17.7495H21.2985C20.9264 17.7495 20.625 18.051 20.625 18.423V25.174H27.0003L27.0001 18.423C27.0001 18.0509 26.6983 17.7495 26.3266 17.7495H26.3268Z" fill="white"/>
</svg>
