<svg width="38" height="39" viewBox="0 0 38 39" fill="none" xmlns="http://www.w3.org/2000/svg">
<path d="M11.1013 21.006L9.81025 20.9622C9.61473 20.3157 9.27229 19.7232 8.80962 19.231L9.41579 18.0914L9.31717 18.0038C8.7667 17.5173 8.12389 17.1459 7.42729 16.912L7.3031 16.8682L6.6165 17.9657V17.9655C5.95946 17.8123 5.27567 17.8123 4.61865 17.9655L3.93375 16.8679L3.80956 16.9117L3.80985 16.912C3.11217 17.1453 2.46902 17.5167 1.918 18.0038L1.81938 18.0914L2.42555 19.231C1.96289 19.7229 1.62098 20.3154 1.42666 20.9622L0.133854 21.006L0.108277 21.1356C-0.0360924 21.8566 -0.0360924 22.5989 0.108277 23.3196L0.133854 23.4492L1.42666 23.495C1.62133 24.1409 1.96321 24.7329 2.42555 25.2243L1.81938 26.3656L1.918 26.4531V26.4534C2.46904 26.9405 3.11215 27.312 3.80985 27.5453L3.93403 27.5874L4.61893 26.4918H4.61865C5.27569 26.645 5.95947 26.645 6.6165 26.4918L7.3031 27.5874L7.42729 27.5453C8.12383 27.3114 8.76666 26.9403 9.31717 26.4534L9.41579 26.3659L8.80962 25.2243C9.27228 24.733 9.61469 24.141 9.81025 23.495L11.1013 23.4493L11.1269 23.3197C11.2713 22.599 11.2713 21.8567 11.1269 21.1357L11.1013 21.006ZM7.45773 24.0673H7.45802C6.96978 24.5552 6.30788 24.8295 5.6176 24.8295C4.92733 24.8295 4.26543 24.5553 3.77748 24.0673C3.28925 23.579 3.01503 22.9171 3.01503 22.2269C3.01503 21.5366 3.28927 20.8747 3.77748 20.3867C4.26543 19.8985 4.92733 19.6245 5.6176 19.6245C6.3079 19.6242 6.96978 19.8985 7.45802 20.3867C7.94654 20.8744 8.22104 21.5366 8.22104 22.2269C8.22104 22.9174 7.94652 23.5793 7.45802 24.0673H7.45773Z" fill="white"/>
<path d="M37.6288 21.1356L37.6033 21.006L36.3122 20.9622C36.1167 20.3157 35.7742 19.7232 35.3116 19.231L35.9177 18.0914L35.8191 18.0038C35.2687 17.5173 34.6258 17.1459 33.9292 16.912L33.805 16.8682L33.1184 17.9657V17.9655C32.4614 17.8123 31.7776 17.8123 31.1206 17.9655L30.4357 16.8679L30.3115 16.9117L30.3118 16.912C29.6141 17.1453 28.971 17.5167 28.4199 18.0038L28.3213 18.0914L28.9275 19.231C28.4648 19.7229 28.1229 20.3154 27.9286 20.9622L26.6358 21.006L26.6102 21.1356C26.4659 21.8566 26.4659 22.5989 26.6102 23.3196L26.6358 23.4492L27.9286 23.495C28.1233 24.1409 28.4652 24.7329 28.9275 25.2243L28.3213 26.3656L28.4199 26.4531V26.4534C28.971 26.9405 29.6141 27.312 30.3118 27.5453L30.436 27.5874L31.1209 26.4918H31.1206C31.7776 26.645 32.4614 26.645 33.1184 26.4918L33.805 27.5874L33.9292 27.5453C34.6258 27.3114 35.2686 26.9403 35.8191 26.4534L35.9177 26.3659L35.3116 25.2246V25.2243C35.7742 24.7329 36.1166 24.1409 36.3122 23.495L37.6033 23.4492L37.6288 23.3196C37.7732 22.5989 37.7732 21.8566 37.6288 21.1356ZM33.9597 24.0673C33.4717 24.5552 32.8098 24.8295 32.1195 24.8295C31.4293 24.8295 30.7674 24.5553 30.2791 24.0673C29.7912 23.5791 29.5169 22.9172 29.5169 22.2269C29.5169 21.5366 29.7911 20.8747 30.2791 20.3868C30.7673 19.8985 31.4293 19.6245 32.1195 19.6245C32.8098 19.6242 33.4717 19.8985 33.9597 20.3868C34.4485 20.8744 34.723 21.5366 34.723 22.2269C34.723 22.9175 34.4484 23.5793 33.9597 24.0673Z" fill="white"/>
<path d="M24.6326 19.1079L24.5198 16.2214L24.5195 16.2217C24.5067 15.8852 24.4013 15.5586 24.2146 15.2784C24.0282 14.9982 23.7676 14.7751 23.462 14.6336L21.5805 13.7643L19.7895 18.5208L19.5036 16.7108L19.4283 16.2478L19.3004 15.4387L19.6241 14.7464H19.6238C19.6292 14.7334 19.6281 14.7186 19.6207 14.7067C19.613 14.6947 19.6002 14.6871 19.586 14.6862H18.1523C18.1384 14.6871 18.1256 14.6947 18.1179 14.7067C18.1105 14.7186 18.1094 14.7334 18.1148 14.7464L18.4385 15.4387L18.3106 16.2478L18.2353 16.7108L17.9494 18.5208L16.1579 13.7643L14.2763 14.6336H14.2765C13.971 14.7751 13.7104 14.9982 13.524 15.2784C13.3373 15.5586 13.2319 15.8852 13.2191 16.2217L13.1062 19.1082L12.9633 22.6981L12.9258 23.6538L13.2455 24.0639L13.5504 24.4478L14.2617 37.4079H14.2612C14.2376 37.8217 14.3854 38.2267 14.6698 38.528C14.9543 38.8292 15.3505 39 15.7648 39C16.1789 39 16.5751 38.8292 16.8595 38.528C17.144 38.2267 17.2918 37.8217 17.2682 37.4079L18.4124 29.4525L18.7361 27.2173H19.0032L19.3269 29.4525L20.4711 37.4079H20.4705C20.4469 37.8217 20.5947 38.2267 20.8792 38.528C21.1636 38.8292 21.5598 38.9997 21.9739 38.9997C22.3882 38.9997 22.7844 38.8292 23.0689 38.528C23.3533 38.2267 23.5011 37.8217 23.4772 37.4079L24.1886 24.4478L24.4935 24.0639L24.8132 23.6538L24.7757 22.6981L24.6326 19.1079Z" fill="white"/>
<path d="M25.4925 4.99657L23.9337 4.94371H23.9334C23.6973 4.16308 23.2838 3.44778 22.7251 2.85325L23.4571 1.47721L23.3381 1.37149H23.3383C22.6733 0.783794 21.8972 0.335647 21.056 0.0531499L20.906 0.000290988L20.077 1.32518C19.2835 1.14017 18.4582 1.14017 17.6648 1.32518L16.8378 0L16.6878 0.0528589L16.6881 0.0531431C15.8457 0.335058 15.069 0.783503 14.4035 1.37149L14.2844 1.4772L15.0164 2.85324C14.458 3.4472 14.0451 4.16278 13.8104 4.94371L12.2493 4.99656L12.2183 5.15315C12.0444 6.02363 12.0444 6.91994 12.2183 7.79042L12.2493 7.94701L13.8104 8.00214V8.00185C14.0457 8.78198 14.4583 9.49669 15.0164 10.0901L14.2844 11.4681L14.4035 11.5738V11.5741C15.0691 12.1623 15.8457 12.6108 16.6881 12.8927L16.8381 12.9433L17.6651 11.6204H17.6648C18.4582 11.8057 19.2835 11.8057 20.077 11.6204L20.906 12.9433L21.056 12.8927C21.8972 12.6102 22.6733 12.1618 23.3383 11.5741L23.4574 11.4683L22.7254 10.0903L22.7251 10.0901C23.2838 9.49668 23.6973 8.78198 23.9334 8.00185L25.4922 7.94672L25.5232 7.79014V7.79042C25.6974 6.91994 25.6974 6.02363 25.5232 5.15315L25.4925 4.99657ZM21.093 8.69304C20.5036 9.28245 19.7044 9.61351 18.8709 9.61351C18.0374 9.61351 17.2383 9.28242 16.6488 8.69304C16.0594 8.10363 15.7284 7.3042 15.7284 6.47097C15.7284 5.63745 16.0594 4.83804 16.6488 4.2489C17.2382 3.65949 18.0374 3.32843 18.8709 3.32843C19.7044 3.32843 20.5035 3.65951 21.093 4.2489C21.6829 4.83774 22.0146 5.63716 22.0146 6.47097C22.0146 7.30449 21.6829 8.10389 21.093 8.69304Z" fill="white"/>
</svg>
