<svg width="359" height="411" viewBox="0 0 359 411" fill="none" xmlns="http://www.w3.org/2000/svg">
<g filter="url(#filter0_b_374_725)">
<path d="M118.005 130.478C118.005 121.748 125.12 114.664 133.886 114.664C141.809 114.664 145.614 119.656 148.213 116.577C149.551 114.991 149.754 112.989 149.754 107.008V76.0095L176.25 75.9999C180.136 75.9999 180.689 76.3715 181.008 77.1211C181.673 78.6525 180.306 81.1577 180.306 86.921C180.306 99.066 193.173 108.751 204.467 108.751C215.742 108.751 228.596 99.5433 228.596 86.921C228.596 81.1577 227.232 78.6621 227.901 77.1211C228.226 76.3779 228.776 75.9999 232.659 75.9999H259.142V172.077C259.142 172.077 259.547 178.878 256.295 182.12C253.049 185.346 245.355 184.955 245.355 184.955H149.757V153.944C149.757 147.956 149.551 145.967 148.226 144.375C145.627 141.29 141.812 146.284 133.889 146.284C125.12 146.284 118.005 139.207 118.005 130.478Z" fill="#96BCAE"/>
</g>
<g filter="url(#filter1_b_374_725)">
<path d="M32.23 185.413H63.2335C69.219 185.413 71.2077 185.609 72.7994 186.947C75.8866 189.545 70.8907 193.355 70.8907 201.275C70.8907 210.044 77.9714 217.153 86.7015 217.153C95.4187 217.153 102.499 210.044 102.499 201.278C102.499 193.362 97.5035 189.555 100.594 186.947C102.176 185.619 104.174 185.413 110.157 185.413H141.154V158.924C141.154 155.043 140.782 154.49 140.026 154.172C138.499 153.509 135.998 154.863 130.24 154.863C118.096 154.863 108.408 142.007 108.408 130.724C108.408 119.448 117.609 106.592 130.24 106.592C135.988 106.592 138.499 107.959 140.026 107.293C140.773 106.972 141.154 106.425 141.154 102.537V76.0451H47.602C47.602 76.0451 38.5485 75.4117 35.077 78.8908C31.6055 82.3861 32.2268 90.1964 32.2268 90.1964V185.413H32.23Z" fill="#96BCAE"/>
</g>
<g filter="url(#filter2_b_374_725)">
<path d="M0.000244141 247.655C0.000244141 238.87 7.10252 231.755 15.871 231.755C23.7968 231.755 27.6085 236.773 30.2075 233.675C31.5359 232.074 31.7418 230.074 31.7418 224.059V192.888L58.2339 192.875C62.1195 192.875 62.6728 193.261 63.0009 194.015C63.6539 195.554 62.2997 198.069 62.2997 203.86C62.2997 216.065 75.1693 225.804 86.45 225.804C97.7307 225.804 110.591 216.558 110.591 203.86C110.591 198.069 109.217 195.554 109.89 194.015C110.208 193.274 110.758 192.888 114.647 192.888H141.152V287.351C141.152 287.351 141.329 295.305 137.877 298.741C134.442 302.187 126.6 302.409 126.6 302.409H31.7418V271.242C31.7418 265.229 31.5359 263.216 30.2075 261.625C27.5988 258.518 23.7968 263.554 15.871 263.554C7.10574 263.554 0.000244141 256.428 0.000244141 247.655Z" fill="#96BCAE"/>
</g>
<g filter="url(#filter3_b_374_725)">
<path d="M269.257 353.656L336.51 286.362L314.42 264.261C310.153 259.99 308.871 258.43 308.684 256.347C308.332 252.302 314.598 253.168 320.221 247.535C326.441 241.307 326.454 231.209 320.221 224.99C313.994 218.759 303.923 218.759 297.696 224.981C292.076 230.611 292.921 236.887 288.89 236.526C286.804 236.348 285.239 235.062 280.975 230.789L258.879 208.684L240.072 227.507C237.319 230.265 237.189 230.911 237.503 231.68C238.116 233.24 240.866 234.055 244.972 238.163C253.633 246.824 251.396 262.869 243.391 270.886C235.375 278.897 219.706 281.462 210.703 272.453C206.604 268.35 205.79 265.601 204.222 264.972C203.46 264.684 202.804 264.804 200.035 267.565L181.241 286.382L248.733 353.917C248.733 353.917 254.033 360.006 258.872 360C263.705 360.003 269.257 353.656 269.257 353.656Z" fill="#96BCAE"/>
</g>
<g clip-path="url(#clip0_374_725)">
<path d="M297.433 211.262L315.926 202.889C317.422 202.211 318.085 200.449 317.408 198.954C316.729 197.458 314.969 196.795 313.473 197.472L313.474 197.472L301.141 203.055C308.983 187.418 311.261 173.894 310.44 162.648C309.483 149.428 304.284 139.472 299.342 132.873C294.394 126.265 289.701 122.954 289.522 122.825C288.178 121.883 286.324 122.207 285.38 123.551C284.971 124.134 284.801 124.814 284.849 125.472C284.911 126.332 285.346 127.159 286.106 127.693L286.107 127.693C286.107 127.693 286.107 127.693 286.122 127.705C286.469 127.952 290.698 131.082 294.997 136.998C299.299 142.924 303.673 151.581 304.509 163.078C305.24 173.208 303.246 185.63 295.763 200.514L290.176 188.437C289.487 186.947 287.719 186.297 286.229 186.987C285.074 187.522 284.424 188.704 284.512 189.903C284.537 190.25 284.624 190.599 284.779 190.936L293.509 209.802C294.196 211.283 295.947 211.935 297.433 211.262Z" fill="#FF4509" fill-opacity="0.08"/>
</g>
<g clip-path="url(#clip1_374_725)">
<path d="M97.9874 345.881L103.633 365.38C104.091 366.957 105.739 367.865 107.316 367.408C108.893 366.95 109.801 365.303 109.345 363.725L109.344 363.726L105.58 350.723C119.937 360.718 132.997 364.903 144.246 365.697C157.466 366.637 168.063 362.914 175.3 358.965C182.547 355.011 186.494 350.84 186.647 350.681C187.772 349.485 187.715 347.604 186.521 346.478C186.002 345.989 185.353 345.724 184.695 345.677C183.835 345.616 182.954 345.928 182.317 346.604L182.317 346.605C182.317 346.605 182.317 346.605 182.303 346.619C182.009 346.927 178.307 350.666 171.837 354.075C165.358 357.487 156.165 360.58 144.667 359.765C134.536 359.042 122.527 355.294 108.864 345.763L121.614 341.957C123.188 341.488 124.084 339.831 123.613 338.258C123.248 337.038 122.171 336.227 120.973 336.142C120.625 336.118 120.267 336.154 119.912 336.259L99.9924 342.206C98.4284 342.673 97.5335 344.314 97.9874 345.881Z" fill="#FF4509" fill-opacity="0.08"/>
</g>
<path d="M187.746 52.4597L182.1 32.9608C181.642 31.3831 179.994 30.4751 178.417 30.932C176.84 31.3903 175.932 33.0375 176.388 34.6151L176.389 34.6145L180.153 47.6175C165.797 37.6229 152.737 33.437 141.488 32.6434C128.267 31.7031 117.671 35.4269 110.434 39.3753C103.186 43.3292 99.2396 47.5009 99.0864 47.6596C97.9618 48.8556 98.0179 50.737 99.2127 51.8628C99.7318 52.3517 100.38 52.6168 101.039 52.6635C101.899 52.7245 102.779 52.4121 103.416 51.7365L103.416 51.7353C103.416 51.7353 103.416 51.7353 103.43 51.7218C103.724 51.4137 107.426 47.6748 113.896 44.2654C120.375 40.8535 129.569 37.7609 141.066 38.5753C151.197 39.2984 163.207 43.0461 176.87 52.5778L164.119 56.3831C162.546 56.8523 161.65 58.5091 162.12 60.0827C162.485 61.3022 163.562 62.1138 164.761 62.1982C165.108 62.2229 165.466 62.1867 165.821 62.0813L185.741 56.135C187.305 55.667 188.2 54.0264 187.746 52.4597Z" fill="#FF4509" fill-opacity="0.08"/>
<defs>
<filter id="filter0_b_374_725" x="73.0049" y="30.9999" width="231.153" height="198.97" filterUnits="userSpaceOnUse" color-interpolation-filters="sRGB">
<feFlood flood-opacity="0" result="BackgroundImageFix"/>
<feGaussianBlur in="BackgroundImage" stdDeviation="22.5"/>
<feComposite in2="SourceAlpha" operator="in" result="effect1_backgroundBlur_374_725"/>
<feBlend mode="normal" in="SourceGraphic" in2="effect1_backgroundBlur_374_725" result="shape"/>
</filter>
<filter id="filter1_b_374_725" x="-12.8164" y="31" width="198.97" height="231.153" filterUnits="userSpaceOnUse" color-interpolation-filters="sRGB">
<feFlood flood-opacity="0" result="BackgroundImageFix"/>
<feGaussianBlur in="BackgroundImage" stdDeviation="22.5"/>
<feComposite in2="SourceAlpha" operator="in" result="effect1_backgroundBlur_374_725"/>
<feBlend mode="normal" in="SourceGraphic" in2="effect1_backgroundBlur_374_725" result="shape"/>
</filter>
<filter id="filter2_b_374_725" x="-45" y="147.875" width="231.153" height="199.535" filterUnits="userSpaceOnUse" color-interpolation-filters="sRGB">
<feFlood flood-opacity="0" result="BackgroundImageFix"/>
<feGaussianBlur in="BackgroundImage" stdDeviation="22.5"/>
<feComposite in2="SourceAlpha" operator="in" result="effect1_backgroundBlur_374_725"/>
<feBlend mode="normal" in="SourceGraphic" in2="effect1_backgroundBlur_374_725" result="shape"/>
</filter>
<filter id="filter3_b_374_725" x="136.241" y="163.684" width="245.269" height="241.316" filterUnits="userSpaceOnUse" color-interpolation-filters="sRGB">
<feFlood flood-opacity="0" result="BackgroundImageFix"/>
<feGaussianBlur in="BackgroundImage" stdDeviation="22.5"/>
<feComposite in2="SourceAlpha" operator="in" result="effect1_backgroundBlur_374_725"/>
<feBlend mode="normal" in="SourceGraphic" in2="effect1_backgroundBlur_374_725" result="shape"/>
</filter>
<clipPath id="clip0_374_725">
<rect width="63.5516" height="94.1095" fill="white" transform="translate(246 169.074) rotate(-49.1529)"/>
</clipPath>
<clipPath id="clip1_374_725">
<rect width="63.5516" height="94.1095" fill="white" transform="translate(147.088 301) rotate(49.0577)"/>
</clipPath>
</defs>
</svg>
