<svg width="29" height="32" viewBox="0 0 29 32" fill="none" xmlns="http://www.w3.org/2000/svg">
<path d="M7.18029 10.1663C7.02563 10.4341 6.93627 10.7342 6.91905 11.0429C6.84801 11.6304 7.00458 12.2228 7.35653 12.6989C7.39998 12.7363 7.44588 12.7707 7.49426 12.8016C7.32921 13.5369 7.49535 14.3078 7.94895 14.9098C8.00388 14.9683 8.06317 15.0229 8.12602 15.0729C8.09869 15.6407 8.26237 16.2015 8.59137 16.6652C8.9108 17.0603 9.38163 17.3032 9.88879 17.3344C10.2478 17.3661 10.7703 17.3915 11.3824 17.3915C13.3376 17.4278 15.2856 17.1497 17.1525 16.5674C17.332 16.5013 17.5033 16.4286 17.6585 16.3551H17.6583C18.0933 16.4204 18.5324 16.4529 18.9723 16.4521C19.6464 16.5059 20.3203 16.346 20.8982 15.9952C21.7877 15.2861 22.0407 13.719 22.106 12.8539C22.2284 11.237 21.9672 9.16495 21.2245 8.35692C20.2451 7.27978 18.3028 7.49181 17.6907 7.59778L17.5683 7.49996C17.2745 7.2707 16.9562 7.03488 16.6543 6.74824L16.3933 6.52418C16.2709 6.41816 16.1649 6.32005 16.0586 6.22223C15.0303 5.21036 13.5042 2.8516 13.5042 1.01533C13.5047 0.765304 13.4124 0.524021 13.2449 0.338477C13.0774 0.152667 12.847 0.0359853 12.5983 0.0105713C11.8392 -0.0872513 10.8681 0.492045 10.5009 1.82306C10.1645 3.01471 10.3577 4.29353 11.0315 5.33247C11.2559 5.65054 11.3223 6.05383 11.211 6.42689C11.1094 6.65943 10.9135 6.8376 10.6725 6.91657C10.4645 6.954 10.2546 6.97859 10.044 6.99089C9.01573 7.0808 7.465 7.21031 7.05704 8.1987C6.7611 8.83238 6.80701 9.57294 7.17945 10.1647L7.18029 10.1663ZM7.80796 8.50879C8.0282 7.97758 9.38302 7.86419 10.1093 7.80681V7.80708C10.3724 7.78987 10.6342 7.75462 10.8927 7.70079C11.3813 7.5587 11.778 7.20101 11.9698 6.72963C12.189 6.12546 12.1007 5.45242 11.7332 4.92533C11.1752 4.07497 11.0118 3.02512 11.2845 2.04521C11.5539 1.07405 12.1661 0.779476 12.4923 0.821028C12.6882 0.853545 12.6882 0.968042 12.6882 1.01695C12.6882 3.11443 14.3286 5.66066 15.4875 6.8023C15.6017 6.91652 15.7241 7.02254 15.8547 7.13786L16.0996 7.35728C16.4343 7.66742 16.7606 7.91308 17.0789 8.15789C17.1606 8.22238 17.2421 8.27949 17.3238 8.3448C17.332 8.3448 17.332 8.35382 17.3402 8.36202C18.2949 9.10387 18.9723 9.79032 18.9723 11.9285C18.9723 13.7965 18.8988 14.834 17.4544 15.5522V15.5519C17.2637 15.6478 17.0675 15.7322 16.8666 15.8049C14.6284 16.4637 12.2882 16.7072 9.9623 16.5231C9.68031 16.5119 9.41634 16.3812 9.23598 16.164C9.08214 15.9531 8.98622 15.7055 8.95863 15.4459V15.4368C9.07613 15.4595 9.19554 15.4721 9.31523 15.4743C9.43983 15.4743 9.56444 15.4658 9.68822 15.4491C9.90737 15.415 10.059 15.212 10.0298 14.992C10.0005 14.772 9.8008 14.616 9.58028 14.6403C9.21658 14.7302 8.83185 14.6277 8.56106 14.3687C8.30475 14.0047 8.20337 13.5544 8.27879 13.1158C8.40968 13.1358 8.54193 13.1464 8.67446 13.1475C8.91547 13.1464 9.15539 13.1191 9.39008 13.0661C9.60978 13.015 9.74613 12.7956 9.69503 12.5759C9.64393 12.3565 9.42451 12.2201 9.20509 12.2712C8.97091 12.3242 8.23232 12.4125 7.93033 12.1154L7.93006 12.1152C7.75873 11.8061 7.69014 11.4506 7.7344 11.1C7.74206 10.9571 7.77157 10.8161 7.82157 10.6822C8.27135 10.8155 8.74489 10.8489 9.20889 10.78C9.43214 10.7461 9.5857 10.5379 9.55182 10.3149C9.51793 10.0917 9.30972 9.9384 9.08647 9.97201C8.71211 10.0469 8.32384 10.0015 7.9768 9.84221C7.81394 9.66487 7.71038 9.44134 7.68004 9.20252C7.64971 8.9637 7.69453 8.72132 7.80765 8.50873L7.80796 8.50879ZM9.00751 25.6382C9.05643 25.7803 9.02172 25.938 8.91761 26.0465L7.13842 27.957L7.45676 30.5442V30.5439C7.47644 30.6898 7.41359 30.8344 7.29363 30.9194C7.22368 30.9735 7.13733 31.0024 7.0488 31.0011C6.98895 31.0027 6.92993 30.9888 6.87747 30.9601L4.51871 29.8649L2.15205 30.9593C2.01625 31.0233 1.85639 31.0077 1.73589 30.9186C1.61565 30.8336 1.55281 30.6891 1.57248 30.5432L1.89083 27.956L0.111636 26.0465C0.00752469 25.938 -0.0271794 25.7803 0.0220117 25.6383C0.0662788 25.4973 0.186241 25.3931 0.331884 25.3691L2.89448 24.863L4.15938 22.5868H4.15965C4.23616 22.4644 4.37033 22.3901 4.51461 22.3901C4.65888 22.3901 4.79306 22.4644 4.86956 22.5868L6.13446 24.863L8.69705 25.3691H8.69733C8.84324 25.3931 8.96293 25.4972 9.00747 25.6383L9.00751 25.6382ZM28.8882 26.0462L27.109 27.9568L27.4274 30.5439C27.4471 30.6898 27.3842 30.8344 27.264 30.9194C27.1435 31.0085 26.9836 31.024 26.8478 30.9601L24.4811 29.8649L22.1227 30.9593H22.1224C22.0686 30.9842 22.0104 30.9979 21.9511 31.0003C21.8625 31.0017 21.7762 30.9727 21.7062 30.9186C21.5863 30.8336 21.5234 30.6891 21.5431 30.5432L21.8614 27.956L20.0823 26.0454V26.0457C19.9781 25.9372 19.9434 25.7796 19.9924 25.6375C20.0369 25.4965 20.1566 25.3924 20.3025 25.3683L22.8651 24.8622L24.13 22.586H24.1303C24.2068 22.4636 24.3409 22.3893 24.4852 22.3893C24.6295 22.3893 24.7637 22.4636 24.8402 22.586L26.1051 24.8622L28.6677 25.3683H28.6679C28.8136 25.3924 28.9335 25.4965 28.9778 25.6375C29.0273 25.7798 28.9926 25.9378 28.8882 26.0465L28.8882 26.0462ZM18.0504 26.185L18.5075 29.9393C18.5299 30.0877 18.4668 30.2358 18.3441 30.3221C18.2744 30.3697 18.1919 30.3956 18.1075 30.3964C18.0485 30.3983 17.99 30.3869 17.9362 30.3628L14.5003 28.7648L11.0644 30.3636C10.931 30.4243 10.7753 30.4087 10.6564 30.3229C10.5337 30.2365 10.4706 30.0884 10.493 29.94L10.9502 26.1858L8.37119 23.4109V23.4112C8.26653 23.3065 8.23156 23.1507 8.28157 23.0111C8.32447 22.8677 8.44415 22.76 8.59171 22.7329L12.305 22.0066L14.1412 18.7013C14.2197 18.5789 14.3549 18.5051 14.5003 18.5051C14.6457 18.5051 14.7809 18.5789 14.8594 18.7013L16.6956 22.0066L20.4089 22.7329C20.5564 22.76 20.6761 22.8677 20.719 23.0111C20.769 23.1507 20.7341 23.3065 20.6294 23.4112L18.0504 26.185Z" fill="white"/>
</svg>
