<svg width="15" height="15" viewBox="0 0 15 15" fill="none" xmlns="http://www.w3.org/2000/svg">
<path fill-rule="evenodd" clip-rule="evenodd" d="M7.5 2.1875C4.57063 2.1875 2.1875 4.57063 2.1875 7.5C2.1875 10.4294 4.57063 12.8125 7.5 12.8125C10.4294 12.8125 12.8125 10.4294 12.8125 7.5C12.8125 4.57063 10.4294 2.1875 7.5 2.1875ZM7.5 13.75C4.05375 13.75 1.25 10.9462 1.25 7.5C1.25 4.05375 4.05375 1.25 7.5 1.25C10.9462 1.25 13.75 4.05375 13.75 7.5C13.75 10.9462 10.9462 13.75 7.5 13.75Z" fill="#363636" fill-opacity="0.68"/>
<path fill-rule="evenodd" clip-rule="evenodd" d="M9.64434 9.8077C9.56246 9.8077 9.47996 9.78645 9.40434 9.74207L7.04809 8.33645C6.90684 8.25145 6.81934 8.09832 6.81934 7.93332V4.90332C6.81934 4.64457 7.02934 4.43457 7.28809 4.43457C7.54746 4.43457 7.75684 4.64457 7.75684 4.90332V7.66707L9.88496 8.93582C10.1068 9.06895 10.18 9.35645 10.0475 9.57895C9.95934 9.72582 9.80371 9.8077 9.64434 9.8077Z" fill="#363636" fill-opacity="0.68"/>
</svg>
