<svg width="20" height="19" viewBox="0 0 20 19" fill="none" xmlns="http://www.w3.org/2000/svg">
<g filter="url(#filter0_iiiii_125_1675)">
<path d="M1.56965 6.39465L4.2896 5.86052C5.19132 5.68344 5.97633 5.13856 6.45261 4.35915L8.60055 0.844105C9.23738 -0.198033 10.7626 -0.198036 11.3994 0.844102L13.5474 4.35915C14.0237 5.13856 14.8087 5.68344 15.7104 5.86052L18.4303 6.39465C19.7171 6.64733 20.1958 8.22304 19.2638 9.13811L16.9809 11.3797C16.1981 12.1483 15.858 13.2559 16.0761 14.3265L16.4978 16.3971C16.767 17.7187 15.3866 18.77 14.1679 18.1716L11.4523 16.8384C10.5371 16.3892 9.46287 16.3892 8.54773 16.8385L5.83214 18.1716C4.61335 18.77 3.23299 17.7187 3.50218 16.3971L3.92394 14.3265C4.14202 13.2559 3.80195 12.1483 3.01913 11.3797L0.736185 9.13811C-0.195771 8.22304 0.282932 6.64733 1.56965 6.39465Z" fill="url(#paint0_linear_125_1675)"/>
</g>
<defs>
<filter id="filter0_iiiii_125_1675" x="-3.75" y="-3.9375" width="25.5" height="24.2812" filterUnits="userSpaceOnUse" color-interpolation-filters="sRGB">
<feFlood flood-opacity="0" result="BackgroundImageFix"/>
<feBlend mode="normal" in="SourceGraphic" in2="BackgroundImageFix" result="shape"/>
<feColorMatrix in="SourceAlpha" type="matrix" values="0 0 0 0 0 0 0 0 0 0 0 0 0 0 0 0 0 0 127 0" result="hardAlpha"/>
<feOffset dx="2" dy="2"/>
<feGaussianBlur stdDeviation="3"/>
<feComposite in2="hardAlpha" operator="arithmetic" k2="-1" k3="1"/>
<feColorMatrix type="matrix" values="0 0 0 0 1 0 0 0 0 0.7625 0 0 0 0 0.7625 0 0 0 0.4 0"/>
<feBlend mode="normal" in2="shape" result="effect1_innerShadow_125_1675"/>
<feColorMatrix in="SourceAlpha" type="matrix" values="0 0 0 0 0 0 0 0 0 0 0 0 0 0 0 0 0 0 127 0" result="hardAlpha"/>
<feOffset dx="-4" dy="-4"/>
<feGaussianBlur stdDeviation="3"/>
<feComposite in2="hardAlpha" operator="arithmetic" k2="-1" k3="1"/>
<feColorMatrix type="matrix" values="0 0 0 0 0.583333 0 0 0 0 0 0 0 0 0 0 0 0 0 0.2 0"/>
<feBlend mode="normal" in2="effect1_innerShadow_125_1675" result="effect2_innerShadow_125_1675"/>
<feColorMatrix in="SourceAlpha" type="matrix" values="0 0 0 0 0 0 0 0 0 0 0 0 0 0 0 0 0 0 127 0" result="hardAlpha"/>
<feOffset dx="1" dy="1"/>
<feGaussianBlur stdDeviation="1"/>
<feComposite in2="hardAlpha" operator="arithmetic" k2="-1" k3="1"/>
<feColorMatrix type="matrix" values="0 0 0 0 1 0 0 0 0 0.795833 0 0 0 0 0.795833 0 0 0 0.4 0"/>
<feBlend mode="normal" in2="effect2_innerShadow_125_1675" result="effect3_innerShadow_125_1675"/>
<feColorMatrix in="SourceAlpha" type="matrix" values="0 0 0 0 0 0 0 0 0 0 0 0 0 0 0 0 0 0 127 0" result="hardAlpha"/>
<feOffset dx="-2" dy="-2"/>
<feGaussianBlur stdDeviation="2"/>
<feComposite in2="hardAlpha" operator="arithmetic" k2="-1" k3="1"/>
<feColorMatrix type="matrix" values="0 0 0 0 0.304167 0 0 0 0 0 0 0 0 0 0 0 0 0 0.2 0"/>
<feBlend mode="normal" in2="effect3_innerShadow_125_1675" result="effect4_innerShadow_125_1675"/>
<feColorMatrix in="SourceAlpha" type="matrix" values="0 0 0 0 0 0 0 0 0 0 0 0 0 0 0 0 0 0 127 0" result="hardAlpha"/>
<feOffset dx="-1" dy="-1"/>
<feGaussianBlur stdDeviation="0.5"/>
<feComposite in2="hardAlpha" operator="arithmetic" k2="-1" k3="1"/>
<feColorMatrix type="matrix" values="0 0 0 0 1 0 0 0 0 0.25 0 0 0 0 0.25 0 0 0 0.2 0"/>
<feBlend mode="normal" in2="effect4_innerShadow_125_1675" result="effect5_innerShadow_125_1675"/>
</filter>
<linearGradient id="paint0_linear_125_1675" x1="10" y1="0.0625" x2="10" y2="18.3438" gradientUnits="userSpaceOnUse">
<stop stop-color="#FF665C"/>
<stop offset="1" stop-color="#F1380F"/>
</linearGradient>
</defs>
</svg>
