<svg width="27" height="32" viewBox="0 0 27 32" fill="none" xmlns="http://www.w3.org/2000/svg">
<mask id="path-1-outside-1_53_358" maskUnits="userSpaceOnUse" x="0" y="0" width="27" height="32" fill="black">
<rect fill="white" width="27" height="32"/>
<path d="M23.5486 25.5141C23.3986 25.0084 22.939 24.7102 22.1833 24.6273C22.0529 24.6132 21.9204 24.6053 21.7881 24.6053C20.7623 24.6053 20.0432 25.0353 19.9648 25.0849C19.2034 25.5687 18.4059 25.9551 17.5736 26.2418C17.6975 26.0877 17.8077 25.9202 17.9051 25.7422C17.9214 25.7111 17.9358 25.68 17.9479 25.6475C18.1525 25.1027 18.0191 24.7212 17.8714 24.4962C17.6422 24.1476 17.244 23.9582 16.6883 23.9325L16.5625 23.9294L12.756 23.9287C11.6278 22.5702 9.55142 21.8883 6.42794 21.8474L6.13131 21.8451C6.12941 21.8451 6.1279 21.8451 6.12638 21.8451C6.07941 21.8451 6.03357 21.8508 5.98811 21.8591V21.4981C5.98811 21.0798 5.64867 20.7404 5.23044 20.7404H1.75767C1.33944 20.7404 1 21.0798 1 21.4981V29.8324C1 30.2507 1.33944 30.5901 1.75767 30.5901H5.23044C5.64867 30.5901 5.98811 30.2507 5.98811 29.8324V29.6002C9.76243 30.542 12.5347 31 14.4607 31C17.4471 31 22.3344 27.5344 22.5409 27.3871C22.5541 27.3772 22.5674 27.3662 22.5807 27.356C22.9137 27.0829 23.7986 26.357 23.5486 25.5141ZM5.23006 29.8317H1.75729V21.4973H5.23006V29.8317ZM22.1003 26.7699C22.1003 26.7699 17.2383 30.2423 14.4604 30.2423C12.6082 30.2423 9.83025 29.7794 6.126 28.8535V22.6028L6.41771 22.6043C9.4927 22.6448 11.4789 23.3388 12.3768 24.6863H16.5439L16.6523 24.6886C17.2065 24.7144 17.402 24.9455 17.2383 25.3804C16.6735 26.4229 15.4912 26.9431 13.6894 26.9431C13.089 26.9431 12.4196 26.8855 11.6824 26.7699V27.464L12.0051 27.5064C12.6135 27.5806 13.2094 27.6181 13.7932 27.6181C16.1943 27.6181 18.3843 26.9881 20.3649 25.7281C20.3649 25.7281 20.9494 25.3633 21.7881 25.3633C21.8889 25.3633 21.9931 25.369 22.1007 25.3804C23.0216 25.4815 23.1349 25.9217 22.1003 26.7699ZM16.7489 17.357V20.6184H16.0965V17.357H16.7489ZM10.0447 12.3023L10.2466 12.9228L7.14431 13.9309L6.94277 13.31L10.0447 12.3023ZM22.7822 12.3023L25.8841 13.31L25.6826 13.9309L22.5803 12.9228L22.7822 12.3023ZM22.3359 1.81992L22.8644 2.20368L20.9471 4.84226L20.419 4.4585L22.3359 1.81992ZM10.5091 1.81992L12.4264 4.4585L11.8983 4.84226L9.98102 2.20368L10.5091 1.81992ZM11.4058 18.0306C11.1429 18.0306 10.9035 17.8859 10.7815 17.6533C10.7103 17.5184 10.6849 17.3593 10.7107 17.2063L11.6176 11.9185L7.77583 8.17373C7.64096 8.04227 7.5652 7.86574 7.56292 7.67745C7.56065 7.48917 7.63187 7.3115 7.76295 7.17664C7.87054 7.06602 8.01374 6.99328 8.16603 6.97093L13.4754 6.19924L15.8507 1.38805C16.0136 1.05392 16.4583 0.901249 16.7944 1.06794C16.9322 1.13613 17.0463 1.24978 17.1145 1.38805L19.4898 6.19924L24.7987 6.97093C25.1825 7.02662 25.45 7.38462 25.395 7.76913C25.3731 7.92294 25.2992 8.06803 25.1863 8.17562L21.3472 11.9181L22.2537 17.2059C22.32 17.5889 22.062 17.9545 21.6787 18.0204C21.5135 18.0469 21.3673 18.02 21.232 17.9492L16.4818 15.4526L11.7335 17.9488C11.6339 18.0026 11.5198 18.0306 11.4058 18.0306ZM8.3812 7.70549L12.2893 11.515C12.3783 11.6022 12.4192 11.7276 12.3984 11.8503L11.4759 17.2294L16.3064 14.6897C16.4167 14.6317 16.5485 14.6317 16.6587 14.6897L21.4896 17.2286L20.5675 11.8503C20.5463 11.7276 20.5872 11.6022 20.6763 11.515L24.5839 7.70511L19.184 6.92055C19.0605 6.90274 18.9541 6.82508 18.8988 6.71332L16.483 1.81954L14.0671 6.71332C14.0122 6.82508 13.9057 6.90274 13.7822 6.92055L8.3812 7.70549Z"/>
</mask>
<path d="M23.5486 25.5141C23.3986 25.0084 22.939 24.7102 22.1833 24.6273C22.0529 24.6132 21.9204 24.6053 21.7881 24.6053C20.7623 24.6053 20.0432 25.0353 19.9648 25.0849C19.2034 25.5687 18.4059 25.9551 17.5736 26.2418C17.6975 26.0877 17.8077 25.9202 17.9051 25.7422C17.9214 25.7111 17.9358 25.68 17.9479 25.6475C18.1525 25.1027 18.0191 24.7212 17.8714 24.4962C17.6422 24.1476 17.244 23.9582 16.6883 23.9325L16.5625 23.9294L12.756 23.9287C11.6278 22.5702 9.55142 21.8883 6.42794 21.8474L6.13131 21.8451C6.12941 21.8451 6.1279 21.8451 6.12638 21.8451C6.07941 21.8451 6.03357 21.8508 5.98811 21.8591V21.4981C5.98811 21.0798 5.64867 20.7404 5.23044 20.7404H1.75767C1.33944 20.7404 1 21.0798 1 21.4981V29.8324C1 30.2507 1.33944 30.5901 1.75767 30.5901H5.23044C5.64867 30.5901 5.98811 30.2507 5.98811 29.8324V29.6002C9.76243 30.542 12.5347 31 14.4607 31C17.4471 31 22.3344 27.5344 22.5409 27.3871C22.5541 27.3772 22.5674 27.3662 22.5807 27.356C22.9137 27.0829 23.7986 26.357 23.5486 25.5141ZM5.23006 29.8317H1.75729V21.4973H5.23006V29.8317ZM22.1003 26.7699C22.1003 26.7699 17.2383 30.2423 14.4604 30.2423C12.6082 30.2423 9.83025 29.7794 6.126 28.8535V22.6028L6.41771 22.6043C9.4927 22.6448 11.4789 23.3388 12.3768 24.6863H16.5439L16.6523 24.6886C17.2065 24.7144 17.402 24.9455 17.2383 25.3804C16.6735 26.4229 15.4912 26.9431 13.6894 26.9431C13.089 26.9431 12.4196 26.8855 11.6824 26.7699V27.464L12.0051 27.5064C12.6135 27.5806 13.2094 27.6181 13.7932 27.6181C16.1943 27.6181 18.3843 26.9881 20.3649 25.7281C20.3649 25.7281 20.9494 25.3633 21.7881 25.3633C21.8889 25.3633 21.9931 25.369 22.1007 25.3804C23.0216 25.4815 23.1349 25.9217 22.1003 26.7699ZM16.7489 17.357V20.6184H16.0965V17.357H16.7489ZM10.0447 12.3023L10.2466 12.9228L7.14431 13.9309L6.94277 13.31L10.0447 12.3023ZM22.7822 12.3023L25.8841 13.31L25.6826 13.9309L22.5803 12.9228L22.7822 12.3023ZM22.3359 1.81992L22.8644 2.20368L20.9471 4.84226L20.419 4.4585L22.3359 1.81992ZM10.5091 1.81992L12.4264 4.4585L11.8983 4.84226L9.98102 2.20368L10.5091 1.81992ZM11.4058 18.0306C11.1429 18.0306 10.9035 17.8859 10.7815 17.6533C10.7103 17.5184 10.6849 17.3593 10.7107 17.2063L11.6176 11.9185L7.77583 8.17373C7.64096 8.04227 7.5652 7.86574 7.56292 7.67745C7.56065 7.48917 7.63187 7.3115 7.76295 7.17664C7.87054 7.06602 8.01374 6.99328 8.16603 6.97093L13.4754 6.19924L15.8507 1.38805C16.0136 1.05392 16.4583 0.901249 16.7944 1.06794C16.9322 1.13613 17.0463 1.24978 17.1145 1.38805L19.4898 6.19924L24.7987 6.97093C25.1825 7.02662 25.45 7.38462 25.395 7.76913C25.3731 7.92294 25.2992 8.06803 25.1863 8.17562L21.3472 11.9181L22.2537 17.2059C22.32 17.5889 22.062 17.9545 21.6787 18.0204C21.5135 18.0469 21.3673 18.02 21.232 17.9492L16.4818 15.4526L11.7335 17.9488C11.6339 18.0026 11.5198 18.0306 11.4058 18.0306ZM8.3812 7.70549L12.2893 11.515C12.3783 11.6022 12.4192 11.7276 12.3984 11.8503L11.4759 17.2294L16.3064 14.6897C16.4167 14.6317 16.5485 14.6317 16.6587 14.6897L21.4896 17.2286L20.5675 11.8503C20.5463 11.7276 20.5872 11.6022 20.6763 11.515L24.5839 7.70511L19.184 6.92055C19.0605 6.90274 18.9541 6.82508 18.8988 6.71332L16.483 1.81954L14.0671 6.71332C14.0122 6.82508 13.9057 6.90274 13.7822 6.92055L8.3812 7.70549Z" fill="white"/>
<path d="M23.5486 25.5141C23.3986 25.0084 22.939 24.7102 22.1833 24.6273C22.0529 24.6132 21.9204 24.6053 21.7881 24.6053C20.7623 24.6053 20.0432 25.0353 19.9648 25.0849C19.2034 25.5687 18.4059 25.9551 17.5736 26.2418C17.6975 26.0877 17.8077 25.9202 17.9051 25.7422C17.9214 25.7111 17.9358 25.68 17.9479 25.6475C18.1525 25.1027 18.0191 24.7212 17.8714 24.4962C17.6422 24.1476 17.244 23.9582 16.6883 23.9325L16.5625 23.9294L12.756 23.9287C11.6278 22.5702 9.55142 21.8883 6.42794 21.8474L6.13131 21.8451C6.12941 21.8451 6.1279 21.8451 6.12638 21.8451C6.07941 21.8451 6.03357 21.8508 5.98811 21.8591V21.4981C5.98811 21.0798 5.64867 20.7404 5.23044 20.7404H1.75767C1.33944 20.7404 1 21.0798 1 21.4981V29.8324C1 30.2507 1.33944 30.5901 1.75767 30.5901H5.23044C5.64867 30.5901 5.98811 30.2507 5.98811 29.8324V29.6002C9.76243 30.542 12.5347 31 14.4607 31C17.4471 31 22.3344 27.5344 22.5409 27.3871C22.5541 27.3772 22.5674 27.3662 22.5807 27.356C22.9137 27.0829 23.7986 26.357 23.5486 25.5141ZM5.23006 29.8317H1.75729V21.4973H5.23006V29.8317ZM22.1003 26.7699C22.1003 26.7699 17.2383 30.2423 14.4604 30.2423C12.6082 30.2423 9.83025 29.7794 6.126 28.8535V22.6028L6.41771 22.6043C9.4927 22.6448 11.4789 23.3388 12.3768 24.6863H16.5439L16.6523 24.6886C17.2065 24.7144 17.402 24.9455 17.2383 25.3804C16.6735 26.4229 15.4912 26.9431 13.6894 26.9431C13.089 26.9431 12.4196 26.8855 11.6824 26.7699V27.464L12.0051 27.5064C12.6135 27.5806 13.2094 27.6181 13.7932 27.6181C16.1943 27.6181 18.3843 26.9881 20.3649 25.7281C20.3649 25.7281 20.9494 25.3633 21.7881 25.3633C21.8889 25.3633 21.9931 25.369 22.1007 25.3804C23.0216 25.4815 23.1349 25.9217 22.1003 26.7699ZM16.7489 17.357V20.6184H16.0965V17.357H16.7489ZM10.0447 12.3023L10.2466 12.9228L7.14431 13.9309L6.94277 13.31L10.0447 12.3023ZM22.7822 12.3023L25.8841 13.31L25.6826 13.9309L22.5803 12.9228L22.7822 12.3023ZM22.3359 1.81992L22.8644 2.20368L20.9471 4.84226L20.419 4.4585L22.3359 1.81992ZM10.5091 1.81992L12.4264 4.4585L11.8983 4.84226L9.98102 2.20368L10.5091 1.81992ZM11.4058 18.0306C11.1429 18.0306 10.9035 17.8859 10.7815 17.6533C10.7103 17.5184 10.6849 17.3593 10.7107 17.2063L11.6176 11.9185L7.77583 8.17373C7.64096 8.04227 7.5652 7.86574 7.56292 7.67745C7.56065 7.48917 7.63187 7.3115 7.76295 7.17664C7.87054 7.06602 8.01374 6.99328 8.16603 6.97093L13.4754 6.19924L15.8507 1.38805C16.0136 1.05392 16.4583 0.901249 16.7944 1.06794C16.9322 1.13613 17.0463 1.24978 17.1145 1.38805L19.4898 6.19924L24.7987 6.97093C25.1825 7.02662 25.45 7.38462 25.395 7.76913C25.3731 7.92294 25.2992 8.06803 25.1863 8.17562L21.3472 11.9181L22.2537 17.2059C22.32 17.5889 22.062 17.9545 21.6787 18.0204C21.5135 18.0469 21.3673 18.02 21.232 17.9492L16.4818 15.4526L11.7335 17.9488C11.6339 18.0026 11.5198 18.0306 11.4058 18.0306ZM8.3812 7.70549L12.2893 11.515C12.3783 11.6022 12.4192 11.7276 12.3984 11.8503L11.4759 17.2294L16.3064 14.6897C16.4167 14.6317 16.5485 14.6317 16.6587 14.6897L21.4896 17.2286L20.5675 11.8503C20.5463 11.7276 20.5872 11.6022 20.6763 11.515L24.5839 7.70511L19.184 6.92055C19.0605 6.90274 18.9541 6.82508 18.8988 6.71332L16.483 1.81954L14.0671 6.71332C14.0122 6.82508 13.9057 6.90274 13.7822 6.92055L8.3812 7.70549Z" stroke="white" stroke-width="0.6" mask="url(#path-1-outside-1_53_358)"/>
</svg>
