<svg width="37" height="30" viewBox="0 0 37 30" fill="none" xmlns="http://www.w3.org/2000/svg">
<path d="M30.5416 4.27429H34.0214V2.76572H21.4499C21.1039 1.18624 19.6959 0 18.0139 0C16.3318 0 14.9238 1.18624 14.5774 2.76572H2.0059V4.27429H5.48568L0 15.0641V15.2446C0 18.9577 3.02268 21.9809 6.73779 21.9809C10.4534 21.9809 13.4756 18.9577 13.4756 15.2446V15.0641L7.98891 4.27429H14.5779C14.871 5.61039 15.924 6.66287 17.2601 6.95603V28.4914H13.7587V30H22.2706V28.4914H18.7687V6.95603C20.1053 6.66287 21.1583 5.60988 21.4509 4.27429H28.0404L22.5532 15.0641V15.2446C22.5532 18.9577 25.5754 21.9809 29.2905 21.9809C33.0056 21.9809 36.0278 18.9577 36.0278 15.2446V15.0641L30.5416 4.27429ZM6.73779 20.4724C4.0988 20.4724 1.91136 18.5062 1.55936 15.9627H10.5233L9.75645 14.4567H2.00188L6.73779 5.14223L11.964 15.4191C11.871 18.2201 9.56235 20.4724 6.73779 20.4724ZM18.0144 5.53144C16.9051 5.53144 16.003 4.62931 16.003 3.52001C16.003 2.4107 16.9051 1.50857 18.0144 1.50857C19.1237 1.50857 20.0258 2.4107 20.0258 3.52001C20.0258 4.62981 19.1232 5.53144 18.0144 5.53144ZM29.2905 20.4724C26.651 20.4724 24.463 18.5062 24.1115 15.9627H33.0765L32.3096 14.4567H24.5546L29.2905 5.14223L34.5177 15.4191C34.4241 18.2201 32.115 20.4724 29.2905 20.4724Z" fill="white"/>
</svg>
