<svg width="168" height="55" viewBox="0 0 168 55" fill="none" xmlns="http://www.w3.org/2000/svg">
<path d="M42.22 34L48.5 19.9H50.22L56.52 34H54.4L52.92 30.56H45.78L44.32 34H42.22ZM49.34 22.2L46.52 28.88H52.22L49.38 22.2H49.34ZM58.1466 37.6V24.24H60.1266V25.9C60.4066 25.34 60.8332 24.8933 61.4066 24.56C61.9799 24.2267 62.6399 24.06 63.3866 24.06C64.2532 24.06 65.0066 24.2667 65.6466 24.68C66.2999 25.0933 66.7999 25.68 67.1466 26.44C67.5066 27.1867 67.6866 28.08 67.6866 29.12C67.6866 30.16 67.5066 31.06 67.1466 31.82C66.7999 32.58 66.2999 33.1667 65.6466 33.58C65.0066 33.98 64.2532 34.18 63.3866 34.18C62.6666 34.18 62.0199 34.0267 61.4466 33.72C60.8866 33.4 60.4599 32.9667 60.1666 32.42V37.6H58.1466ZM62.8866 32.62C63.7266 32.62 64.3932 32.32 64.8866 31.72C65.3932 31.12 65.6466 30.2533 65.6466 29.12C65.6466 27.9867 65.3932 27.1267 64.8866 26.54C64.3932 25.94 63.7266 25.64 62.8866 25.64C62.0466 25.64 61.3732 25.94 60.8666 26.54C60.3732 27.1267 60.1266 27.9867 60.1266 29.12C60.1266 30.2533 60.3732 31.12 60.8666 31.72C61.3732 32.32 62.0466 32.62 62.8866 32.62ZM73.083 34.18C72.403 34.18 71.7963 34.0467 71.263 33.78C70.7296 33.5133 70.303 33.1533 69.983 32.7C69.6763 32.2467 69.523 31.7333 69.523 31.16C69.523 30.44 69.703 29.8733 70.063 29.46C70.4363 29.0467 71.043 28.7467 71.883 28.56C72.7363 28.3733 73.883 28.28 75.323 28.28H76.003V27.76C76.003 27 75.843 26.4533 75.523 26.12C75.203 25.7867 74.6763 25.62 73.943 25.62C73.383 25.62 72.823 25.7067 72.263 25.88C71.703 26.04 71.1296 26.3 70.543 26.66L69.923 25.24C70.4296 24.88 71.063 24.5933 71.823 24.38C72.583 24.1667 73.3096 24.06 74.003 24.06C75.3363 24.06 76.323 24.38 76.963 25.02C77.603 25.6467 77.923 26.6333 77.923 27.98V34H76.023V32.38C75.783 32.94 75.4096 33.38 74.903 33.7C74.3963 34.02 73.7896 34.18 73.083 34.18ZM73.483 32.74C74.203 32.74 74.803 32.4867 75.283 31.98C75.763 31.4733 76.003 30.8333 76.003 30.06V29.52H75.343C74.3696 29.52 73.603 29.5667 73.043 29.66C72.4963 29.7533 72.103 29.9133 71.863 30.14C71.6363 30.3533 71.523 30.6533 71.523 31.04C71.523 31.5467 71.6963 31.96 72.043 32.28C72.3896 32.5867 72.8696 32.74 73.483 32.74ZM85.0052 34.18C84.0052 34.18 83.1385 33.9733 82.4052 33.56C81.6852 33.1333 81.1252 32.54 80.7252 31.78C80.3252 31.0067 80.1252 30.1 80.1252 29.06C80.1252 27.5133 80.5652 26.2933 81.4452 25.4C82.3252 24.5067 83.5118 24.06 85.0052 24.06C85.6185 24.06 86.2252 24.1667 86.8252 24.38C87.4252 24.5933 87.9185 24.8867 88.3052 25.26L87.6652 26.68C87.2918 26.3333 86.8785 26.08 86.4252 25.92C85.9852 25.7467 85.5652 25.66 85.1652 25.66C84.2185 25.66 83.4852 25.96 82.9652 26.56C82.4585 27.1467 82.2052 27.9867 82.2052 29.08C82.2052 30.1733 82.4585 31.0333 82.9652 31.66C83.4852 32.2733 84.2185 32.58 85.1652 32.58C85.5652 32.58 85.9852 32.5 86.4252 32.34C86.8785 32.1667 87.2918 31.9067 87.6652 31.56L88.3052 33C87.9185 33.36 87.4185 33.6467 86.8052 33.86C86.2052 34.0733 85.6052 34.18 85.0052 34.18ZM90.0411 34V19.9H92.0611V25.76C92.3944 25.2 92.8411 24.78 93.4011 24.5C93.9744 24.2067 94.6144 24.06 95.3211 24.06C97.6278 24.06 98.7811 25.3667 98.7811 27.98V34H96.7611V28.1C96.7611 27.26 96.5944 26.6467 96.2611 26.26C95.9411 25.8733 95.4344 25.68 94.7411 25.68C93.9278 25.68 93.2744 25.94 92.7811 26.46C92.3011 26.9667 92.0611 27.64 92.0611 28.48V34H90.0411ZM106.145 34.18C104.545 34.18 103.285 33.7333 102.365 32.84C101.445 31.9333 100.985 30.7 100.985 29.14C100.985 28.14 101.185 27.26 101.585 26.5C101.998 25.7267 102.565 25.1267 103.285 24.7C104.005 24.2733 104.831 24.06 105.765 24.06C107.111 24.06 108.171 24.4933 108.945 25.36C109.718 26.2133 110.105 27.3933 110.105 28.9V29.58H102.945C103.091 31.6067 104.165 32.62 106.165 32.62C106.725 32.62 107.271 32.5333 107.805 32.36C108.351 32.1867 108.865 31.9 109.345 31.5L109.945 32.9C109.505 33.3 108.938 33.6133 108.245 33.84C107.551 34.0667 106.851 34.18 106.145 34.18ZM105.845 25.48C105.005 25.48 104.338 25.74 103.845 26.26C103.351 26.78 103.051 27.4733 102.945 28.34H108.405C108.365 27.4333 108.125 26.7333 107.685 26.24C107.245 25.7333 106.631 25.48 105.845 25.48ZM117.781 34V19.9H119.861V26.24H119.901L126.441 19.9H129.001L121.881 26.72L129.401 34H126.801L119.901 27.42H119.861V34H117.781ZM133.532 34.18C132.852 34.18 132.246 34.0467 131.712 33.78C131.179 33.5133 130.752 33.1533 130.432 32.7C130.126 32.2467 129.972 31.7333 129.972 31.16C129.972 30.44 130.152 29.8733 130.512 29.46C130.886 29.0467 131.492 28.7467 132.332 28.56C133.186 28.3733 134.332 28.28 135.772 28.28H136.452V27.76C136.452 27 136.292 26.4533 135.972 26.12C135.652 25.7867 135.126 25.62 134.392 25.62C133.832 25.62 133.272 25.7067 132.712 25.88C132.152 26.04 131.579 26.3 130.992 26.66L130.372 25.24C130.879 24.88 131.512 24.5933 132.272 24.38C133.032 24.1667 133.759 24.06 134.452 24.06C135.786 24.06 136.772 24.38 137.412 25.02C138.052 25.6467 138.372 26.6333 138.372 27.98V34H136.472V32.38C136.232 32.94 135.859 33.38 135.352 33.7C134.846 34.02 134.239 34.18 133.532 34.18ZM133.932 32.74C134.652 32.74 135.252 32.4867 135.732 31.98C136.212 31.4733 136.452 30.8333 136.452 30.06V29.52H135.792C134.819 29.52 134.052 29.5667 133.492 29.66C132.946 29.7533 132.552 29.9133 132.312 30.14C132.086 30.3533 131.972 30.6533 131.972 31.04C131.972 31.5467 132.146 31.96 132.492 32.28C132.839 32.5867 133.319 32.74 133.932 32.74ZM141.734 34V25.8H139.834V24.24H141.734V24.06C141.734 22.7133 142.074 21.7 142.754 21.02C143.448 20.34 144.508 19.96 145.934 19.88L146.814 19.82L146.954 21.34L146.034 21.4C145.221 21.4533 144.634 21.6733 144.274 22.06C143.928 22.4467 143.754 23.02 143.754 23.78V24.24H146.494V25.8H143.754V34H141.734ZM148.088 34V19.9H150.108V28.5H150.148L154.388 24.24H156.888L152.208 28.94L157.248 34H154.728L150.148 29.54H150.108V34H148.088ZM161.423 34.18C160.743 34.18 160.136 34.0467 159.603 33.78C159.069 33.5133 158.643 33.1533 158.323 32.7C158.016 32.2467 157.863 31.7333 157.863 31.16C157.863 30.44 158.043 29.8733 158.403 29.46C158.776 29.0467 159.383 28.7467 160.223 28.56C161.076 28.3733 162.223 28.28 163.663 28.28H164.343V27.76C164.343 27 164.183 26.4533 163.863 26.12C163.543 25.7867 163.016 25.62 162.283 25.62C161.723 25.62 161.163 25.7067 160.603 25.88C160.043 26.04 159.469 26.3 158.883 26.66L158.263 25.24C158.769 24.88 159.403 24.5933 160.163 24.38C160.923 24.1667 161.649 24.06 162.343 24.06C163.676 24.06 164.663 24.38 165.303 25.02C165.943 25.6467 166.263 26.6333 166.263 27.98V34H164.363V32.38C164.123 32.94 163.749 33.38 163.243 33.7C162.736 34.02 162.129 34.18 161.423 34.18ZM161.823 32.74C162.543 32.74 163.143 32.4867 163.623 31.98C164.103 31.4733 164.343 30.8333 164.343 30.06V29.52H163.683C162.709 29.52 161.943 29.5667 161.383 29.66C160.836 29.7533 160.443 29.9133 160.203 30.14C159.976 30.3533 159.863 30.6533 159.863 31.04C159.863 31.5467 160.036 31.96 160.383 32.28C160.729 32.5867 161.209 32.74 161.823 32.74Z" fill="black"/>
<path d="M26.8037 30.4363C24.654 30.4363 22.7267 31.3841 21.407 32.8763L18.0252 30.4938C18.3842 29.5102 18.5903 28.454 18.5903 27.3485C18.5903 26.2622 18.3913 25.2237 18.0442 24.2546L21.4184 21.8974C22.738 23.382 24.6602 24.3247 26.8037 24.3247C30.7715 24.3247 34 21.1123 34 17.1631C34 13.2139 30.7715 10.0015 26.8037 10.0015C22.8359 10.0015 19.6074 13.2139 19.6074 17.1631C19.6074 17.8699 19.7147 18.5516 19.9073 19.1971L16.5308 21.5556C15.1203 19.8142 13.0895 18.5983 10.7756 18.2272V14.1775C14.0354 13.4961 16.4915 10.6138 16.4915 7.16984C16.4915 3.22068 13.2629 0.00823975 9.29515 0.00823975C5.32737 0.00823975 2.09884 3.22068 2.09884 7.16984C2.09884 10.5677 4.49132 13.4144 7.68586 14.1444V18.2468C3.32616 19.0083 0 22.7948 0 27.3485C0 31.9244 3.35909 35.7248 7.75027 36.4604V40.7922C4.52306 41.4982 2.09884 44.3623 2.09884 47.7833C2.09884 51.7325 5.32737 54.9449 9.29515 54.9449C13.2629 54.9449 16.4915 51.7325 16.4915 47.7833C16.4915 44.3623 14.0672 41.4982 10.84 40.7922V36.4603C13.0626 36.0877 15.0734 34.9239 16.4978 33.1856L19.9022 35.5836C19.7132 36.2233 19.6074 36.8982 19.6074 37.5979C19.6074 41.5471 22.8359 44.7595 26.8037 44.7595C30.7715 44.7595 34 41.5471 34 37.5979C34 33.6488 30.7715 30.4363 26.8037 30.4363ZM26.8037 13.6908C28.7277 13.6908 30.2927 15.2488 30.2927 17.1631C30.2927 19.0773 28.7277 20.6352 26.8037 20.6352C24.8796 20.6352 23.3147 19.0773 23.3147 17.1631C23.3147 15.2488 24.8796 13.6908 26.8037 13.6908ZM5.80603 7.16984C5.80603 5.25559 7.37109 3.69768 9.29515 3.69768C11.2192 3.69768 12.7841 5.25559 12.7841 7.16984C12.7841 9.08408 11.2192 10.642 9.29515 10.642C7.37109 10.642 5.80603 9.08408 5.80603 7.16984ZM12.7841 47.7833C12.7841 49.6976 11.2192 51.2555 9.29515 51.2555C7.37109 51.2555 5.80603 49.6976 5.80603 47.7833C5.80603 45.8691 7.37109 44.3112 9.29515 44.3112C11.2192 44.3112 12.7841 45.8691 12.7841 47.7833ZM9.29488 32.191C6.61141 32.191 4.42837 30.0189 4.42837 27.3485C4.42837 24.678 6.61141 22.5055 9.29488 22.5055C11.9782 22.5055 14.1613 24.678 14.1613 27.3485C14.1613 30.0189 11.9782 32.191 9.29488 32.191ZM26.8037 41.0702C24.8796 41.0702 23.3147 39.5122 23.3147 37.5979C23.3147 35.6837 24.8796 34.1258 26.8037 34.1258C28.7277 34.1258 30.2927 35.6837 30.2927 37.5979C30.2927 39.5122 28.7277 41.0702 26.8037 41.0702Z" fill="black"/>
</svg>
