<svg width="121" height="50" viewBox="0 0 121 50" fill="none" xmlns="http://www.w3.org/2000/svg">
<path d="M45.5209 36.362V22.262H54.4809V23.942H47.6009V28.442H54.0609V30.122H47.6009V36.362H45.5209ZM56.1951 24.342V22.242H58.5551V24.342H56.1951ZM56.3751 36.362V26.602H58.3951V36.362H56.3751ZM61.2384 36.362V26.602H63.1984V28.342C63.705 27.182 64.7584 26.5353 66.3584 26.402L67.0184 26.362L67.1584 28.082L65.9384 28.202C64.165 28.3753 63.2784 29.2887 63.2784 30.942V36.362H61.2384ZM73.1426 36.542C71.5426 36.542 70.2826 36.0953 69.3626 35.202C68.4426 34.2953 67.9826 33.062 67.9826 31.502C67.9826 30.502 68.1826 29.622 68.5826 28.862C68.9959 28.0887 69.5626 27.4887 70.2826 27.062C71.0026 26.6353 71.8292 26.422 72.7626 26.422C74.1092 26.422 75.1692 26.8553 75.9426 27.722C76.7159 28.5753 77.1026 29.7553 77.1026 31.262V31.942H69.9426C70.0892 33.9687 71.1626 34.982 73.1626 34.982C73.7226 34.982 74.2692 34.8953 74.8026 34.722C75.3492 34.5487 75.8626 34.262 76.3426 33.862L76.9426 35.262C76.5026 35.662 75.9359 35.9753 75.2426 36.202C74.5492 36.4287 73.8492 36.542 73.1426 36.542ZM72.8426 27.842C72.0026 27.842 71.3359 28.102 70.8426 28.622C70.3492 29.142 70.0492 29.8353 69.9426 30.702H75.4026C75.3626 29.7953 75.1226 29.0953 74.6826 28.602C74.2426 28.0953 73.6292 27.842 72.8426 27.842ZM84.5448 36.542C83.7981 36.542 83.1381 36.3753 82.5648 36.042C81.9914 35.7087 81.5648 35.262 81.2848 34.702V36.362H79.3048V22.262H81.3248V28.182C81.6181 27.6487 82.0448 27.222 82.6048 26.902C83.1781 26.582 83.8248 26.422 84.5448 26.422C85.4114 26.422 86.1648 26.6287 86.8048 27.042C87.4581 27.4553 87.9581 28.042 88.3048 28.802C88.6648 29.5487 88.8448 30.442 88.8448 31.482C88.8448 32.522 88.6648 33.422 88.3048 34.182C87.9581 34.942 87.4581 35.5287 86.8048 35.942C86.1648 36.342 85.4114 36.542 84.5448 36.542ZM84.0448 34.982C84.8848 34.982 85.5514 34.682 86.0448 34.082C86.5514 33.482 86.8048 32.6153 86.8048 31.482C86.8048 30.3487 86.5514 29.4887 86.0448 28.902C85.5514 28.302 84.8848 28.002 84.0448 28.002C83.2048 28.002 82.5314 28.302 82.0248 28.902C81.5314 29.4887 81.2848 30.3487 81.2848 31.482C81.2848 32.6153 81.5314 33.482 82.0248 34.082C82.5314 34.682 83.2048 34.982 84.0448 34.982ZM94.2412 36.542C93.5612 36.542 92.9545 36.4087 92.4212 36.142C91.8878 35.8753 91.4612 35.5153 91.1412 35.062C90.8345 34.6087 90.6812 34.0953 90.6812 33.522C90.6812 32.802 90.8612 32.2353 91.2212 31.822C91.5945 31.4087 92.2012 31.1087 93.0412 30.922C93.8945 30.7353 95.0412 30.642 96.4812 30.642H97.1612V30.122C97.1612 29.362 97.0012 28.8153 96.6812 28.482C96.3612 28.1487 95.8345 27.982 95.1012 27.982C94.5412 27.982 93.9812 28.0687 93.4212 28.242C92.8612 28.402 92.2878 28.662 91.7012 29.022L91.0812 27.602C91.5878 27.242 92.2212 26.9553 92.9812 26.742C93.7412 26.5287 94.4678 26.422 95.1612 26.422C96.4945 26.422 97.4812 26.742 98.1212 27.382C98.7612 28.0087 99.0812 28.9953 99.0812 30.342V36.362H97.1812V34.742C96.9412 35.302 96.5678 35.742 96.0612 36.062C95.5545 36.382 94.9478 36.542 94.2412 36.542ZM94.6412 35.102C95.3612 35.102 95.9612 34.8487 96.4412 34.342C96.9212 33.8353 97.1612 33.1953 97.1612 32.422V31.882H96.5012C95.5278 31.882 94.7612 31.9287 94.2012 32.022C93.6545 32.1153 93.2612 32.2753 93.0212 32.502C92.7945 32.7153 92.6812 33.0153 92.6812 33.402C92.6812 33.9087 92.8545 34.322 93.2012 34.642C93.5478 34.9487 94.0278 35.102 94.6412 35.102ZM105.283 36.542C104.483 36.542 103.737 36.442 103.043 36.242C102.35 36.0287 101.77 35.7353 101.303 35.362L101.883 34.002C102.377 34.3487 102.917 34.6153 103.503 34.802C104.103 34.9887 104.703 35.082 105.303 35.082C106.01 35.082 106.543 34.9553 106.903 34.702C107.263 34.4487 107.443 34.1087 107.443 33.682C107.443 33.3353 107.323 33.0687 107.083 32.882C106.843 32.682 106.483 32.5287 106.003 32.422L104.103 32.042C102.423 31.6953 101.583 30.8287 101.583 29.442C101.583 28.522 101.95 27.7887 102.683 27.242C103.417 26.6953 104.377 26.422 105.563 26.422C106.243 26.422 106.89 26.522 107.503 26.722C108.13 26.922 108.65 27.222 109.063 27.622L108.483 28.982C108.083 28.6353 107.623 28.3687 107.103 28.182C106.583 27.9953 106.07 27.902 105.563 27.902C104.87 27.902 104.343 28.0353 103.983 28.302C103.623 28.5553 103.443 28.902 103.443 29.342C103.443 30.0087 103.883 30.4353 104.763 30.622L106.663 31.002C107.53 31.1753 108.183 31.4687 108.623 31.882C109.077 32.2953 109.303 32.8553 109.303 33.562C109.303 34.4953 108.937 35.2287 108.203 35.762C107.47 36.282 106.497 36.542 105.283 36.542ZM116.131 36.542C114.531 36.542 113.271 36.0953 112.351 35.202C111.431 34.2953 110.971 33.062 110.971 31.502C110.971 30.502 111.171 29.622 111.571 28.862C111.984 28.0887 112.551 27.4887 113.271 27.062C113.991 26.6353 114.818 26.422 115.751 26.422C117.098 26.422 118.158 26.8553 118.931 27.722C119.704 28.5753 120.091 29.7553 120.091 31.262V31.942H112.931C113.078 33.9687 114.151 34.982 116.151 34.982C116.711 34.982 117.258 34.8953 117.791 34.722C118.338 34.5487 118.851 34.262 119.331 33.862L119.931 35.262C119.491 35.662 118.924 35.9753 118.231 36.202C117.538 36.4287 116.838 36.542 116.131 36.542ZM115.831 27.842C114.991 27.842 114.324 28.102 113.831 28.622C113.338 29.142 113.038 29.8353 112.931 30.702H118.391C118.351 29.7953 118.111 29.0953 117.671 28.602C117.231 28.0953 116.618 27.842 115.831 27.842Z" fill="black"/>
<g clip-path="url(#clip0_39_458)">
<path d="M0 39.7763L0.297185 39.3615L14.3521 12.7708L14.3818 12.4893L8.18624 0.885584C7.66691 -0.0864053 6.20548 0.159384 6.03526 1.2475L0 39.7763Z" fill="#FFC24A"/>
<path d="M0.175781 39.4601L0.400455 39.0231L14.3083 12.711L8.12797 1.06006C7.61437 0.0982618 6.31001 0.343492 6.14147 1.42016L0.175781 39.4601Z" fill="#FFA712"/>
<g filter="url(#filter0_i_39_458)">
<path d="M0.175781 39.4601L0.400455 39.0231L14.3083 12.711L8.12797 1.06006C7.61437 0.0982618 6.31001 0.343492 6.14147 1.42016L0.175781 39.4601Z" fill="black"/>
</g>
<path d="M18.8983 21.2664L23.5114 16.5558L18.8969 7.77241C18.4589 6.94097 17.2358 6.93846 16.8024 7.77241L14.3369 12.4603V12.8594L18.8981 21.2664H18.8983Z" fill="#F4BD62"/>
<path d="M18.8162 21.0701L23.3012 16.4905L18.8162 7.9755C18.3904 7.16723 17.3558 7.08251 16.9344 7.89315L14.456 12.6539L14.3818 12.8973L18.8162 21.0701Z" fill="#FFA50E"/>
<g filter="url(#filter1_i_39_458)">
<path d="M18.8162 21.0701L23.3012 16.4905L18.8162 7.9755C18.3904 7.16723 17.3558 7.08251 16.9344 7.89315L14.456 12.6539L14.3818 12.8973L18.8162 21.0701Z" fill="black"/>
</g>
<path d="M0 39.7763L0.134664 39.6412L0.624047 39.443L18.6087 21.5776L18.8366 20.9592L14.3501 12.4349L0 39.7763Z" fill="#F6820C"/>
<path d="M19.4747 48.7862L35.7513 39.7353L31.1033 11.1932C30.9578 10.3002 29.8591 9.94724 29.218 10.5875L0 39.7763L16.1832 48.7855C16.6863 49.0655 17.2528 49.2126 17.8289 49.2127C18.405 49.2128 18.9715 49.066 19.4747 48.7862Z" fill="#FDE068"/>
<path d="M35.6055 39.6594L30.9928 11.3341C30.8486 10.4478 29.9348 10.0811 29.2985 10.7166L0.180664 39.7208L16.1863 48.6406C16.6854 48.9185 17.2476 49.0645 17.8193 49.0646C18.3911 49.0648 18.9533 48.9191 19.4526 48.6415L35.6056 39.6592L35.6055 39.6594Z" fill="#FCCA3F"/>
<path d="M19.4744 48.5195C18.9713 48.7993 18.4047 48.9461 17.8287 48.9459C17.2526 48.9458 16.6861 48.7988 16.1831 48.5188L0.130185 39.6391L0 39.7763L16.1831 48.7855C16.6861 49.0655 17.2526 49.2126 17.8287 49.2127C18.4048 49.2128 18.9714 49.066 19.4745 48.7862L35.7511 39.7353L35.7112 39.4908L19.4745 48.5196L19.4744 48.5195Z" fill="#EEAB37"/>
</g>
<defs>
<filter id="filter0_i_39_458" x="0.175781" y="0.458984" width="14.1328" height="39.0011" filterUnits="userSpaceOnUse" color-interpolation-filters="sRGB">
<feFlood flood-opacity="0" result="BackgroundImageFix"/>
<feBlend mode="normal" in="SourceGraphic" in2="BackgroundImageFix" result="shape"/>
<feColorMatrix in="SourceAlpha" type="matrix" values="0 0 0 0 0 0 0 0 0 0 0 0 0 0 0 0 0 0 127 0" result="hardAlpha"/>
<feOffset/>
<feGaussianBlur stdDeviation="124.619"/>
<feComposite in2="hardAlpha" operator="arithmetic" k2="-1" k3="1"/>
<feColorMatrix type="matrix" values="0 0 0 0 0 0 0 0 0 0 0 0 0 0 0 0 0 0 0.06 0"/>
<feBlend mode="normal" in2="shape" result="effect1_innerShadow_39_458"/>
</filter>
<filter id="filter1_i_39_458" x="14.3818" y="7.32562" width="8.91895" height="13.7445" filterUnits="userSpaceOnUse" color-interpolation-filters="sRGB">
<feFlood flood-opacity="0" result="BackgroundImageFix"/>
<feBlend mode="normal" in="SourceGraphic" in2="BackgroundImageFix" result="shape"/>
<feColorMatrix in="SourceAlpha" type="matrix" values="0 0 0 0 0 0 0 0 0 0 0 0 0 0 0 0 0 0 127 0" result="hardAlpha"/>
<feOffset dx="7.12109" dy="-64.0898"/>
<feGaussianBlur stdDeviation="24.9238"/>
<feComposite in2="hardAlpha" operator="arithmetic" k2="-1" k3="1"/>
<feColorMatrix type="matrix" values="0 0 0 0 0 0 0 0 0 0 0 0 0 0 0 0 0 0 0.09 0"/>
<feBlend mode="normal" in2="shape" result="effect1_innerShadow_39_458"/>
</filter>
<clipPath id="clip0_39_458">
<rect width="35.8358" height="49" fill="white" transform="translate(0 0.272461)"/>
</clipPath>
</defs>
</svg>
