<svg width="109" height="39" viewBox="0 0 109 39" fill="none" xmlns="http://www.w3.org/2000/svg">
<g clip-path="url(#clip0_22_829)">
<path d="M5.71786 25.1225L0 19.2709L18.5658 0.272461H30L5.71786 25.1225ZM30 17.8042H18.5658L14.2826 22.1875L20.0005 28.0391" fill="#42A5F5" fill-opacity="0.8"/>
<path d="M14.2822 33.8892L18.5654 38.2725H29.9996L20.0001 28.0391" fill="#0D47A1"/>
<path d="M8.57812 28.0422L14.287 22.1982L19.9958 28.0406L14.287 33.8845L8.57812 28.0422Z" fill="#42A5F5"/>
<path d="M14.2871 33.8846L19.996 28.0422L20.7929 28.8577L15.084 34.7001L14.2871 33.8846Z" fill="url(#paint0_linear_22_829)"/>
<path d="M14.2822 33.8891L22.766 30.8896L20.0001 28.0375" fill="url(#paint1_linear_22_829)"/>
</g>
<path d="M42 9.27246H51.6129V11.1525H43.951V16.8404H50.868V18.6973H43.951V25.8937H42V9.27246ZM53.9389 9.27246H55.912V25.8946H53.9389V9.27246ZM63.1306 26.2661C61.707 26.2661 60.6132 25.8481 59.8494 25.0122C59.1116 24.1709 58.7427 23.0024 58.7427 21.5067V14.0549H60.7158V21.2052C60.7158 22.3285 60.9712 23.1561 61.482 23.6882C61.9928 24.2203 62.6815 24.4863 63.5482 24.4863C64.2139 24.4863 64.8051 24.3084 65.3218 23.9525C65.8539 23.5966 66.2559 23.1325 66.5279 22.5602C66.8217 21.9867 66.9686 21.3831 66.9686 20.7494V14.0629H68.9408V25.9016H67.0608V24.1759H66.9677C66.6426 24.7642 66.1241 25.2593 65.4123 25.6613C64.7005 26.0633 63.942 26.2643 63.1368 26.2643L63.1306 26.2661Z" fill="#0D47A1"/>
<path d="M76.5353 26.0808C76.0553 26.0808 75.6065 26.0034 75.1891 25.8485C74.7871 25.6936 74.4466 25.4846 74.1676 25.2215C73.8578 24.9277 73.6257 24.5872 73.4714 24.1999C73.3165 23.8133 73.2391 23.3412 73.2391 22.7837V15.8428H71.1729V14.055H73.2391V10.7118H75.2122V14.055H78.0907V15.8428H75.2122V22.2969C75.2122 22.9472 75.3364 23.427 75.5847 23.7362C75.8785 24.0767 76.3041 24.2469 76.8616 24.2469C77.311 24.2469 77.7443 24.1154 78.1617 23.8523V25.7793C77.9294 25.8875 77.6893 25.965 77.4416 26.0117C77.2093 26.059 76.9078 26.0826 76.5371 26.0826L76.5353 26.0808Z" fill="#0D47A1"/>
<path d="M84.9035 26.0808C84.4234 26.0808 83.9747 26.0034 83.5573 25.8485C83.1553 25.6936 82.8148 25.4846 82.5357 25.2215C82.2259 24.9277 81.9939 24.5872 81.8396 24.1999C81.6847 23.8133 81.6073 23.3412 81.6073 22.7837V15.8428H79.541V14.055H81.6073V10.7118H83.5804V14.055H86.4589V15.8428H83.5804V22.2969C83.5804 22.9472 83.7045 23.427 83.9528 23.7362C84.2466 24.0767 84.6723 24.2469 85.2298 24.2469C85.6791 24.2469 86.1125 24.1154 86.5299 23.8523V25.7793C86.2975 25.8875 86.0575 25.965 85.8098 26.0117C85.5774 26.059 85.2759 26.0826 84.9052 26.0826L84.9035 26.0808Z" fill="#0D47A1"/>
<path d="M93.5935 26.2664C92.4702 26.2664 91.4563 25.9956 90.5518 25.4541C89.6543 24.9126 88.9502 24.1697 88.4394 23.2256C87.944 22.2661 87.6963 21.1901 87.6963 19.9976C87.6963 18.8525 87.9283 17.8002 88.3924 16.8406C88.8725 15.8811 89.5458 15.1149 90.4125 14.5421C91.2792 13.9686 92.2852 13.6819 93.4303 13.6819C94.5908 13.6819 95.5967 13.9479 96.4481 14.48C97.2994 14.9908 97.9497 15.7026 98.399 16.6154C98.8631 17.5288 99.0951 18.5734 99.0951 19.7493C99.0951 19.9817 99.0715 20.1827 99.0242 20.3524H89.6685C89.7158 21.2498 89.9325 22.0083 90.3185 22.6279C90.7052 23.2469 91.1929 23.7109 91.7818 24.0201C92.3848 24.3299 93.0114 24.4848 93.6618 24.4848C95.1788 24.4848 96.3473 23.773 97.1673 22.3494L98.8389 23.1617C98.3281 24.1212 97.6316 24.8797 96.7496 25.4372C95.8829 25.9941 94.8306 26.2726 93.5926 26.2726L93.5935 26.2664ZM97.0059 18.7215C96.9751 18.2261 96.8362 17.731 96.5891 17.2362C96.3408 16.7407 95.9461 16.3228 95.4052 15.9822C94.8731 15.6417 94.208 15.4714 93.4099 15.4714C92.4817 15.4714 91.6925 15.7729 91.0422 16.376C90.4078 16.9642 89.9898 17.7458 89.7882 18.7207H97.0085L97.0059 18.7215ZM101.381 14.0552H103.261V15.9592H103.354C103.587 15.3089 104.035 14.775 104.701 14.3576C105.366 13.9243 106.063 13.7076 106.79 13.7076C107.331 13.7076 107.795 13.785 108.182 13.9399V16.0753C107.687 15.827 107.13 15.7029 106.511 15.7029C105.937 15.7029 105.411 15.8655 104.932 16.1906C104.452 16.5158 104.068 16.9568 103.779 17.5137C103.501 18.0553 103.362 18.6465 103.362 19.2873V25.9028H101.389V14.0641L101.381 14.0552Z" fill="#0D47A1"/>
<defs>
<linearGradient id="paint0_linear_22_829" x1="17.1426" y1="30.9623" x2="17.958" y2="31.759" gradientUnits="userSpaceOnUse">
<stop offset="0.2" stop-opacity="0.15"/>
<stop offset="0.85" stop-color="#616161" stop-opacity="0.01"/>
</linearGradient>
<linearGradient id="paint1_linear_22_829" x1="14.2842" y1="30.9635" x2="22.7679" y2="30.9635" gradientUnits="userSpaceOnUse">
<stop offset="0.2" stop-opacity="0.55"/>
<stop offset="0.85" stop-color="#616161" stop-opacity="0.01"/>
</linearGradient>
<clipPath id="clip0_22_829">
<rect width="30" height="38" fill="white" transform="translate(0 0.272461)"/>
</clipPath>
</defs>
</svg>
