<svg width="153" height="54" viewBox="0 0 153 54" fill="none" xmlns="http://www.w3.org/2000/svg">
<g clip-path="url(#clip0_40_135)">
<path d="M17.6358 53.0761C16.3583 53.0761 15.152 52.5138 14.3358 51.4944L1.91674 36.2044C1.10055 35.185 0.781289 33.8846 1.10055 32.619L5.536 13.5329C5.8198 12.2674 6.67144 11.248 7.84256 10.6858L25.7973 2.17935C26.3651 1.89843 27.0038 1.75775 27.6426 1.75775C28.2813 1.75775 28.9198 1.89821 29.4876 2.17956L47.4426 10.6506C48.6134 11.2129 49.4651 12.2323 49.7489 13.4978L54.1843 32.5839C54.4684 33.8493 54.1843 35.1498 53.3684 36.1692L40.9489 51.4593C40.1327 52.4434 38.9264 53.041 37.6489 53.041L17.6362 53.0761H17.6358Z" fill="#326DE6"/>
<path d="M27.6064 2.63644C28.1033 2.63644 28.6 2.74178 29.0613 2.95269L47.0162 11.4238C47.9388 11.8807 48.6484 12.7243 48.8613 13.7086L53.2968 32.7947C53.5451 33.8141 53.2968 34.8687 52.6226 35.6769L40.2033 50.9672C39.5646 51.7755 38.5709 52.2324 37.5421 52.2324H17.6355C16.6064 52.2324 15.6129 51.7755 14.9742 50.9672L2.55496 35.6769C1.91623 34.8687 1.66765 33.8141 1.88078 32.7947L6.31623 13.7086C6.56459 12.6892 7.23877 11.8456 8.16131 11.4238L26.1164 2.91778C26.5777 2.74199 27.1099 2.63665 27.6066 2.63665L27.6064 2.63644ZM27.6064 0.984314C26.8613 0.984314 26.1162 1.1601 25.4064 1.47635L7.45168 9.98277C6.0322 10.6506 5.03877 11.8807 4.68385 13.3921L0.248395 32.4785C-0.106312 33.9899 0.248395 35.5365 1.24205 36.7668L13.6613 52.0568C14.6195 53.2518 16.0742 53.9197 17.6 53.9197H37.5064C39.0322 53.9197 40.4871 53.2518 41.4451 52.0568L53.8646 36.7666C54.858 35.5716 55.213 33.9899 54.858 32.4783L50.4226 13.3921C50.0679 11.8807 49.0742 10.6506 47.655 9.98277L29.7709 1.47614C29.0968 1.1601 28.3517 0.984314 27.6064 0.984314Z" fill="white"/>
<path d="M45.5971 31.2833C45.5616 31.2833 45.5616 31.2833 45.5971 31.2833H45.5616C45.5262 31.2833 45.4907 31.2833 45.4907 31.2482C45.4198 31.2482 45.3489 31.2131 45.2778 31.2131C45.0294 31.178 44.8165 31.1428 44.6036 31.1428C44.4971 31.1428 44.3907 31.1428 44.2487 31.1075H44.2132C43.4682 31.0373 42.8649 30.9671 42.2971 30.7913C42.0487 30.6857 41.9778 30.5452 41.9067 30.4046C41.9067 30.3695 41.8712 30.3695 41.8712 30.3343L41.41 30.1939C41.6279 28.5404 41.5438 26.8615 41.1616 25.2375C40.7742 23.6 40.1018 22.0419 39.1745 20.6329L39.5294 20.3167V20.2465C39.5294 20.0707 39.5649 19.8949 39.7067 19.7191C40.1325 19.3324 40.6649 19.0162 41.3036 18.6295C41.41 18.5592 41.5163 18.5241 41.6229 18.4537C41.8358 18.3483 42.0133 18.243 42.2262 18.1023C42.2616 18.0672 42.3325 18.0321 42.4036 17.9618C42.4391 17.9265 42.4745 17.9265 42.4745 17.8914C42.9712 17.4696 43.0778 16.7666 42.7229 16.3095C42.5454 16.0635 42.2262 15.923 41.9067 15.923C41.6231 15.923 41.3745 16.0284 41.1262 16.2042L41.0553 16.2744C40.9844 16.3095 40.9487 16.38 40.8778 16.4151C40.7003 16.5909 40.5583 16.7313 40.4165 16.9071C40.3456 16.9773 40.2747 17.0829 40.1682 17.1531C39.6712 17.6805 39.21 18.1023 38.7487 18.4186C38.6424 18.4888 38.536 18.5241 38.4294 18.5241C38.3585 18.5241 38.2874 18.5241 38.2165 18.4888H38.1456L37.7196 18.7701C37.2583 18.2781 36.7616 17.8563 36.2649 17.4345C34.126 15.7783 31.5519 14.7657 28.8487 14.5169L28.8133 14.06L28.7424 13.9898C28.6358 13.8842 28.494 13.7789 28.4583 13.5328C28.4229 12.9704 28.494 12.3377 28.5649 11.6347V11.5996C28.5649 11.494 28.6004 11.3536 28.6358 11.248C28.6713 11.0373 28.7067 10.8262 28.7424 10.5802V10.2639C28.7424 9.63122 28.2454 9.10406 27.6424 9.10406C27.3583 9.10406 27.0745 9.24453 26.8616 9.45543C26.6489 9.66634 26.5424 9.94747 26.5424 10.2639V10.5451C26.5424 10.7911 26.5778 11.002 26.6487 11.2129C26.6842 11.3185 26.6842 11.4238 26.7196 11.5645V11.5996C26.7905 12.3025 26.8971 12.9352 26.8262 13.4977C26.7907 13.7438 26.6487 13.8491 26.5424 13.9547L26.4715 14.0249L26.4358 14.4818C25.7971 14.552 25.1583 14.6223 24.5196 14.7629C21.7874 15.3605 19.3745 16.7315 17.494 18.6997L17.1391 18.4537H17.0682C16.9973 18.4537 16.9262 18.4888 16.8553 18.4888C16.7487 18.4888 16.6424 18.4537 16.5358 18.3834C16.0745 18.0672 15.6133 17.6101 15.1166 17.0829C15.0457 17.0127 14.9748 16.9071 14.8682 16.8369C14.7262 16.6611 14.5842 16.5204 14.4067 16.3448C14.3713 16.3095 14.3004 16.2746 14.2295 16.2042C14.194 16.169 14.1586 16.169 14.1586 16.1339C13.9387 15.954 13.663 15.8547 13.3778 15.8526C13.0584 15.8526 12.7391 15.9933 12.5616 16.2393C12.2067 16.6962 12.3133 17.3991 12.81 17.821C12.8454 17.821 12.8454 17.8563 12.8809 17.8563C12.9518 17.8914 12.9875 17.9616 13.0584 17.9967C13.2713 18.1372 13.4487 18.2428 13.6616 18.3483C13.7682 18.3834 13.8745 18.4537 13.9811 18.5241C14.6196 18.9106 15.152 19.2271 15.5778 19.6138C15.7553 19.7893 15.7553 19.9651 15.7553 20.1409V20.2111L16.11 20.5276C16.0391 20.6329 15.9682 20.7034 15.9325 20.8087C14.1584 23.5856 13.4842 26.8545 13.9454 30.0883L13.4842 30.2288C13.4842 30.2641 13.4487 30.2641 13.4487 30.299C13.3778 30.4397 13.2713 30.5804 13.0584 30.6857C12.5262 30.8615 11.8875 30.9319 11.1424 31.0022H11.1067C11.0004 31.0022 10.8584 31.0022 10.752 31.0373C10.5391 31.0373 10.3262 31.0724 10.0778 31.1075C10.0069 31.1075 9.93603 31.1428 9.86492 31.1428C9.82947 31.1428 9.79402 31.1428 9.75836 31.178C9.11963 31.3184 8.72925 31.916 8.83582 32.4783C8.94238 32.9705 9.40365 33.287 9.97127 33.287C10.0778 33.287 10.1487 33.287 10.2553 33.2517C10.2907 33.2517 10.3262 33.2517 10.3262 33.2166C10.3971 33.2166 10.468 33.1814 10.5389 33.1814C10.7875 33.1112 10.9649 33.041 11.1778 32.9354C11.2842 32.9003 11.3905 32.8299 11.4971 32.795H11.5325C12.2067 32.5487 12.81 32.3378 13.3778 32.2676H13.4487C13.6616 32.2676 13.8036 32.3729 13.91 32.4434C13.9454 32.4434 13.9454 32.4785 13.9809 32.4785L14.4778 32.4083C15.3295 35.0091 16.9616 37.3291 19.1262 39.0163C19.6229 39.4028 20.1196 39.7193 20.652 40.0357L20.4391 40.4925C20.4391 40.5278 20.4745 40.5278 20.4745 40.5627C20.5454 40.7034 20.6163 40.8791 20.5454 41.1252C20.3327 41.6525 20.0133 42.1797 19.6229 42.7773V42.8124C19.552 42.918 19.4811 42.9882 19.4102 43.0935C19.2682 43.2693 19.1616 43.4451 19.0196 43.656C18.9842 43.6911 18.9487 43.7614 18.9133 43.8318C18.9133 43.8669 18.8778 43.902 18.8778 43.902C18.594 44.4996 18.8069 45.1675 19.3391 45.4135C19.4809 45.4837 19.6229 45.519 19.7649 45.519C20.1907 45.519 20.6165 45.2377 20.8295 44.851C20.8295 44.8159 20.8649 44.7808 20.8649 44.7808C20.9004 44.7105 20.9358 44.6403 20.9713 44.605C21.0778 44.359 21.1133 44.1832 21.1842 43.9723L21.2907 43.656C21.5391 42.9531 21.7165 42.3906 22.0358 41.8986C22.1776 41.6876 22.3553 41.6525 22.4971 41.5821C22.5325 41.5821 22.5325 41.5821 22.568 41.547L22.8165 41.09C24.3778 41.6876 26.0811 42.0039 27.7842 42.0039C28.8133 42.0039 29.8778 41.8986 30.8715 41.6525C31.4967 41.514 32.1129 41.3379 32.7165 41.1252L32.9292 41.5119C32.9649 41.5119 32.9649 41.5119 33.0004 41.547C33.1778 41.5821 33.3196 41.6525 33.4616 41.8634C33.7454 42.3555 33.9583 42.9531 34.2067 43.6209V43.656L34.3133 43.9723C34.3842 44.1832 34.4196 44.3941 34.526 44.605C34.5616 44.6752 34.5971 44.7105 34.6325 44.7808C34.6325 44.8159 34.6682 44.851 34.6682 44.851C34.8809 45.2728 35.3067 45.519 35.7325 45.519C35.8745 45.519 36.0165 45.4837 36.1583 45.4135C36.4067 45.273 36.6196 45.0619 36.6907 44.7808C36.7616 44.4996 36.7616 44.1832 36.6198 43.902C36.6198 43.8669 36.5842 43.8669 36.5842 43.8318C36.5487 43.7616 36.5133 43.6913 36.4778 43.656C36.3712 43.4451 36.2294 43.2693 36.0874 43.0935C36.0165 42.9882 35.9456 42.918 35.8747 42.8126V42.7773C35.4842 42.1797 35.1292 41.6525 34.952 41.1252C34.8811 40.8791 34.952 40.7387 34.9874 40.5629C34.9874 40.5278 35.0229 40.5278 35.0229 40.4927L34.8454 40.0709C36.7262 38.9812 38.3229 37.4344 39.5294 35.5365C40.1682 34.5522 40.6649 33.4626 41.0196 32.3729L41.4454 32.4432C41.4811 32.4432 41.4811 32.4081 41.5163 32.4081C41.6583 32.3378 41.7649 32.2325 41.9778 32.2325H42.0487C42.6165 32.3027 43.2196 32.5134 43.894 32.7596H43.9294C44.0358 32.7948 44.1421 32.865 44.2487 32.9001C44.4616 33.0057 44.6391 33.0759 44.8874 33.1463C44.9583 33.1463 45.0292 33.1814 45.1003 33.1814C45.1358 33.1814 45.1712 33.1814 45.2067 33.2166C45.3132 33.2517 45.3841 33.2517 45.4907 33.2517C46.0229 33.2517 46.4841 32.9003 46.6262 32.4434C46.6262 32.0216 46.2358 31.4591 45.5971 31.2835V31.2833ZM29.168 29.561L27.6067 30.2992L26.0454 29.561L25.6553 27.909L26.7196 26.5734H28.4583L29.5229 27.909L29.1682 29.561H29.168ZM38.4294 25.9056C38.7047 27.0679 38.7886 28.2666 38.6778 29.4554L33.2487 27.909C32.752 27.7686 32.4682 27.2763 32.5745 26.7843C32.61 26.6436 32.6811 26.5029 32.7874 26.3976L37.0811 22.5662C37.6842 23.5505 38.1454 24.6752 38.4294 25.9053V25.9056ZM35.3778 20.4574L30.7295 23.7263C30.3391 23.9723 29.8067 23.9019 29.4874 23.5154C29.3811 23.4098 29.3456 23.2691 29.31 23.1287L28.9907 17.3991C31.4073 17.6748 33.6585 18.7527 35.3778 20.4574ZM25.0874 17.5747C25.4778 17.5045 25.8325 17.4343 26.2229 17.364L25.9036 22.9878C25.8682 23.4798 25.4778 23.9016 24.9454 23.9016C24.8036 23.9016 24.6262 23.8665 24.5196 23.7963L19.8004 20.4574C21.2553 19.0162 23.0649 18.0319 25.0874 17.5749V17.5747ZM18.0971 22.566L22.3196 26.2918C22.71 26.6083 22.7454 27.2057 22.4262 27.5924C22.3196 27.7328 22.1778 27.8384 22.0004 27.8737L16.5004 29.4554C16.2875 27.0652 16.8196 24.6399 18.0971 22.566ZM17.1389 32.0916L22.7811 31.1424C23.2424 31.1073 23.6682 31.4238 23.7745 31.8807C23.81 32.0914 23.81 32.2674 23.7391 32.4432L21.5745 37.61C19.5874 36.3446 17.9907 34.4113 17.1391 32.0916H17.1389ZM30.0907 39.0864C29.2745 39.2621 28.4583 39.3675 27.6067 39.3675C26.3649 39.3675 25.1583 39.1568 24.0231 38.8052L26.8262 33.7788C27.11 33.4624 27.5713 33.3219 27.9616 33.5328C28.1273 33.6334 28.2719 33.7646 28.3874 33.9193L31.1196 38.8052C30.8004 38.9106 30.4454 38.981 30.0905 39.0864H30.0907ZM37.01 34.2006C36.1229 35.6065 34.9518 36.7313 33.6036 37.61L31.3682 32.3023C31.2616 31.8807 31.4391 31.4238 31.8649 31.2127C32.0067 31.1424 32.1842 31.1073 32.3616 31.1073L38.0391 32.0565C37.8262 32.8297 37.4712 33.5328 37.01 34.2006Z" fill="white"/>
</g>
<path d="M63.5747 28.716L64.361 27.8365C64.6311 27.5306 64.8932 27.2284 65.1473 26.9297L65.8669 26.0775C66.0908 25.808 66.2836 25.5731 66.4453 25.3728H69.5051C68.8938 26.0921 68.2986 26.7777 67.7193 27.4296C67.1383 28.0815 66.5021 28.7552 65.8109 29.4508C66.1902 29.8081 66.5463 30.1904 66.8771 30.5952C67.2449 31.0377 67.6002 31.4929 67.9432 31.9609C68.2861 32.4289 68.6024 32.9023 68.892 33.3812C69.1799 33.8546 69.4216 34.2862 69.617 34.6759H66.6585C66.4808 34.3663 66.2711 34.0258 66.0295 33.6543C65.7878 33.2811 65.5391 32.9151 65.2832 32.5563C65.0167 32.1922 64.7377 31.8343 64.4463 31.4829C64.1808 31.1681 63.8892 30.8775 63.5747 30.6143V34.695H61V21.3741L63.5747 20.948V28.7188V28.716ZM78.5805 34.3645C78.024 34.5205 77.4588 34.6418 76.888 34.7278C76.1685 34.8424 75.4413 34.8991 74.7131 34.8971C74.0568 34.917 73.4028 34.8085 72.7861 34.5775C72.3115 34.3929 71.8917 34.0852 71.568 33.6844C71.2596 33.2828 71.0412 32.8165 70.9284 32.3187C70.797 31.7441 70.7335 31.1553 70.7391 30.5652V25.3756H73.3138V30.2374C73.3138 31.0878 73.4231 31.7014 73.6417 32.0783C73.8602 32.4553 74.2689 32.6437 74.8677 32.6437C75.0454 32.6437 75.2409 32.6346 75.4541 32.6164C75.6673 32.5982 75.8512 32.5773 76.0058 32.5536V25.3701H78.5805V34.3645ZM89.4497 30.0271C89.4589 30.7139 89.3506 31.397 89.1299 32.0456C88.9327 32.6209 88.6173 33.1462 88.205 33.5861C87.7866 34.0215 87.2797 34.3572 86.7204 34.5693C86.0785 34.8089 85.3992 34.9255 84.7161 34.9135C84.4052 34.9135 84.08 34.8989 83.7406 34.8698C83.403 34.8407 83.0689 34.8024 82.7384 34.7551C82.4097 34.7077 82.0961 34.6513 81.7976 34.5857C81.4991 34.5202 81.2325 34.4519 80.998 34.3809V21.3714L83.5727 20.9453V25.5886C83.8618 25.4586 84.1626 25.358 84.4709 25.2882C84.8002 25.2153 85.1362 25.1796 85.4731 25.1817C86.0609 25.1694 86.6445 25.2867 87.1842 25.5258C87.6693 25.7479 88.0959 26.0849 88.4289 26.5091C88.7777 26.9639 89.0358 27.4846 89.1885 28.0414C89.3683 28.687 89.4563 29.3558 89.4497 30.0271ZM86.8244 29.9561C86.8244 28.2572 86.214 27.4077 84.9933 27.4077C84.7278 27.4079 84.4635 27.4437 84.207 27.5142C83.984 27.5715 83.771 27.6636 83.5754 27.7874V32.5755C83.6997 32.5991 83.8597 32.6201 84.0551 32.6383C84.2506 32.6565 84.4638 32.6656 84.6948 32.6656C85.0006 32.6872 85.3068 32.6306 85.5859 32.501C85.865 32.3713 86.1084 32.1726 86.294 31.9227C86.6725 31.3427 86.8576 30.6528 86.8217 29.9561H86.8244ZM91.001 30.0981C90.9855 29.3574 91.1113 28.6207 91.3715 27.9294C91.5924 27.3516 91.9241 26.825 92.347 26.3807C92.7435 25.9772 93.2172 25.6619 93.7383 25.4548C94.2519 25.244 94.8001 25.1356 95.3535 25.1352C96.6435 25.1352 97.6625 25.5395 98.4106 26.3479C99.1569 27.1564 99.53 28.3455 99.53 29.9151C99.53 30.0681 99.5247 30.2365 99.514 30.4204C99.5034 30.6025 99.4918 30.7646 99.4794 30.9066H93.6423C93.6651 31.1649 93.7437 31.4149 93.8723 31.6383C94.0009 31.8617 94.1763 32.0531 94.3859 32.1985C94.9102 32.5422 95.5262 32.7093 96.1477 32.6765C96.6146 32.6768 97.0804 32.6319 97.539 32.5427C97.9211 32.476 98.2947 32.3661 98.6531 32.2149L98.9996 34.3563C98.8218 34.4428 98.6372 34.5141 98.4479 34.5693C98.1955 34.6455 97.9393 34.7075 97.6803 34.7551C97.396 34.8097 97.0939 34.8552 96.7741 34.8916C96.4527 34.9266 96.1297 34.9439 95.8066 34.9435C95.0792 34.9597 94.3556 34.8336 93.6743 34.5721C93.1065 34.3493 92.5933 34.0016 92.171 33.5533C91.7704 33.1158 91.4699 32.5924 91.2915 32.021C91.0937 31.4013 90.9947 30.7529 90.9983 30.1008L91.001 30.0981ZM97.0459 29.0875C97.0348 28.8651 96.9972 28.645 96.934 28.432C96.8735 28.2256 96.7739 28.0335 96.6408 27.8666C96.5028 27.6971 96.3323 27.5585 96.1397 27.4596C95.905 27.3464 95.6474 27.2921 95.3881 27.3012C95.1324 27.2943 94.8785 27.3456 94.6445 27.4514C94.4465 27.5453 94.2702 27.6812 94.1274 27.8502C93.9866 28.0201 93.8781 28.2156 93.8076 28.4265C93.7329 28.6422 93.6776 28.8643 93.6423 29.0902H97.0459V29.0875ZM106.993 27.7082C106.762 27.6499 106.495 27.588 106.193 27.5224C105.863 27.4554 105.528 27.4224 105.191 27.4241C104.998 27.4264 104.805 27.441 104.613 27.4678C104.441 27.4873 104.271 27.5202 104.104 27.5661V34.6677H101.529V25.8645C102.061 25.6798 102.602 25.5247 103.15 25.4002C103.838 25.2461 104.542 25.1719 105.247 25.1789C105.386 25.1789 105.553 25.188 105.748 25.2062C105.944 25.2244 106.139 25.2481 106.335 25.2773C106.53 25.3064 106.726 25.3428 106.921 25.3865C107.092 25.4204 107.26 25.4707 107.422 25.5367L106.993 27.7082ZM108.805 25.6924C109.362 25.5367 109.927 25.4154 110.498 25.3291C111.218 25.2144 111.946 25.1578 112.675 25.1598C113.333 25.1399 113.988 25.2455 114.608 25.4712C115.081 25.6497 115.501 25.952 115.826 26.3479C116.133 26.7421 116.352 27.201 116.466 27.6918C116.597 28.2599 116.661 28.8423 116.655 29.4262V34.6868H114.077V29.743C114.077 28.8927 113.968 28.2918 113.75 27.9403C113.531 27.5871 113.122 27.4104 112.524 27.4104C112.346 27.4104 112.15 27.4196 111.937 27.4378C111.724 27.456 111.54 27.4769 111.385 27.5006V34.6841H108.811V25.6924H108.805ZM118.547 30.0981C118.532 29.3574 118.658 28.6207 118.918 27.9294C119.139 27.3516 119.47 26.825 119.893 26.3807C120.287 25.9785 120.757 25.6633 121.274 25.4548C121.788 25.2441 122.336 25.1356 122.889 25.1352C124.179 25.1352 125.198 25.5395 125.946 26.3479C126.692 27.1564 127.066 28.3455 127.066 29.9151C127.066 30.0681 127.059 30.2365 127.047 30.4204C127.034 30.6025 127.023 30.7646 127.012 30.9066H121.175C121.198 31.1649 121.277 31.4149 121.405 31.6383C121.534 31.8617 121.709 32.0531 121.919 32.1985C122.443 32.5422 123.059 32.7093 123.681 32.6765C124.147 32.6767 124.613 32.6319 125.072 32.5427C125.454 32.476 125.828 32.3661 126.186 32.2149L126.533 34.3563C126.355 34.4428 126.17 34.5141 125.981 34.5693C125.728 34.6455 125.472 34.7075 125.213 34.7551C124.929 34.8097 124.627 34.8552 124.307 34.8916C123.986 34.9266 123.663 34.9439 123.339 34.9435C122.612 34.9597 121.888 34.8336 121.207 34.5721C120.639 34.3493 120.126 34.0016 119.704 33.5533C119.304 33.1129 119.005 32.5866 118.83 32.0128C118.635 31.3952 118.539 30.7497 118.545 30.1008L118.547 30.0981ZM124.592 29.0875C124.581 28.8651 124.543 28.645 124.48 28.432C124.42 28.2256 124.32 28.0335 124.187 27.8666C124.049 27.6971 123.878 27.5585 123.686 27.4596C123.451 27.3464 123.194 27.2921 122.934 27.3012C122.679 27.2942 122.425 27.3455 122.191 27.4514C121.993 27.5453 121.816 27.6812 121.674 27.8502C121.533 28.0201 121.424 28.2156 121.354 28.4265C121.279 28.6421 121.224 28.8643 121.189 29.0902H124.592V29.0875ZM128.977 23.0512L131.551 22.6251V25.3565H134.643V27.5416H131.551V30.8192C131.53 31.2797 131.629 31.7378 131.837 32.1466C132.027 32.4744 132.409 32.6383 132.983 32.6383C133.27 32.6375 133.556 32.611 133.838 32.5591C134.111 32.5113 134.379 32.4372 134.638 32.3378L135 34.3918C134.663 34.5301 134.317 34.6424 133.963 34.7278C133.504 34.8307 133.034 34.8784 132.564 34.8698C131.97 34.8885 131.378 34.7893 130.821 34.5775C130.391 34.4046 130.01 34.1227 129.715 33.7581C129.429 33.3886 129.23 32.9555 129.137 32.4935C129.023 31.9552 128.967 31.4055 128.971 30.8547V23.0512H128.977ZM136.013 30.0981C135.998 29.3574 136.124 28.6207 136.384 27.9294C136.604 27.3516 136.936 26.825 137.359 26.3807C137.756 25.9772 138.229 25.662 138.75 25.4548C139.264 25.2441 139.812 25.1356 140.366 25.1352C141.656 25.1352 142.675 25.5395 143.423 26.3479C144.169 27.1564 144.542 28.3428 144.542 29.9069C144.542 30.0599 144.536 30.2283 144.523 30.4122C144.511 30.5943 144.499 30.7564 144.489 30.8984H138.652C138.675 31.157 138.754 31.407 138.883 31.6305C139.012 31.8539 139.188 32.0452 139.398 32.1903C139.922 32.534 140.538 32.7011 141.16 32.6683C141.627 32.6685 142.092 32.6237 142.551 32.5345C142.933 32.4678 143.307 32.3579 143.665 32.2067L144.012 34.3481C143.834 34.4346 143.649 34.5059 143.46 34.5612C143.208 34.6373 142.951 34.6993 142.692 34.7469C142.408 34.8015 142.106 34.847 141.786 34.8835C141.465 34.9184 141.142 34.9357 140.819 34.9353C140.091 34.9515 139.368 34.8254 138.686 34.5639C138.119 34.3412 137.605 33.9934 137.183 33.5451C136.779 33.1087 136.475 32.5852 136.293 32.0128C136.1 31.3951 136.004 30.7495 136.01 30.1008L136.013 30.0981ZM142.063 29.0875C142.052 28.8651 142.015 28.645 141.951 28.432C141.891 28.2256 141.791 28.0335 141.658 27.8666C141.52 27.6971 141.35 27.5585 141.157 27.4596C140.922 27.3464 140.665 27.2921 140.406 27.3012C140.15 27.2942 139.896 27.3455 139.662 27.4514C139.459 27.5428 139.278 27.6779 139.132 27.8475C138.991 28.0174 138.882 28.2129 138.812 28.4238C138.737 28.6394 138.682 28.8616 138.646 29.0875H142.063ZM149.135 32.7885C149.474 32.8098 149.815 32.7615 150.137 32.6465C150.234 32.5969 150.314 32.518 150.367 32.4204C150.419 32.3228 150.441 32.211 150.43 32.1002C150.419 31.9829 150.378 31.8706 150.311 31.7748C150.244 31.6789 150.153 31.6027 150.049 31.5539C149.68 31.3373 149.292 31.1545 148.892 31.0077C148.518 30.8675 148.152 30.7079 147.794 30.5297C147.486 30.3788 147.204 30.1787 146.957 29.937C146.726 29.7046 146.544 29.4256 146.424 29.1175C146.289 28.7503 146.225 28.3599 146.235 27.9676C146.22 27.5699 146.298 27.1744 146.463 26.8141C146.628 26.4539 146.875 26.1394 147.183 25.8973C147.816 25.3874 148.685 25.1325 149.79 25.1325C150.327 25.13 150.862 25.1803 151.389 25.2827C151.801 25.3569 152.206 25.4665 152.599 25.6105L152.152 27.6645C151.831 27.5557 151.506 27.4645 151.176 27.3913C150.787 27.3051 150.39 27.2639 149.993 27.2684C149.186 27.2684 148.783 27.4988 148.783 27.9595C148.782 28.053 148.799 28.1458 148.833 28.2326C148.881 28.3295 148.952 28.4116 149.041 28.4702C149.175 28.5651 149.317 28.6482 149.465 28.7188C149.643 28.8098 149.87 28.9081 150.147 29.0138C150.628 29.1901 151.096 29.4018 151.547 29.6474C151.871 29.8219 152.166 30.0498 152.418 30.3221C152.624 30.5521 152.777 30.8265 152.866 31.1251C152.958 31.4582 153.002 31.8033 152.997 32.1494C153.018 32.5566 152.937 32.9626 152.76 33.3278C152.583 33.6931 152.316 34.0051 151.986 34.2334C151.311 34.7032 150.359 34.9399 149.129 34.9435C148.452 34.9578 147.776 34.8862 147.117 34.7305C146.738 34.6396 146.365 34.521 146.003 34.3754L146.435 32.234C146.871 32.4106 147.321 32.5495 147.781 32.6492C148.226 32.7437 148.68 32.7904 149.135 32.7885Z" fill="#326DE6"/>
<defs>
<clipPath id="clip0_40_135">
<rect width="55" height="53" fill="white" transform="translate(0 0.945312)"/>
</clipPath>
</defs>
</svg>
