<svg width="88" height="54" viewBox="0 0 88 54" fill="none" xmlns="http://www.w3.org/2000/svg">
<path d="M20.7642 14.1022H37.3618V15.4186H22.2857V25.3255H36.4629V26.6417H22.2857V37.5186H37.5348V38.8348H20.7642V14.1022ZM38.8489 14.1022H40.6123L48.427 24.979L56.4145 14.102L67.2789 0.286194L49.4297 26.1222L58.6276 38.8348H56.7949L48.427 27.2653L40.0244 38.8348H38.2264L47.4934 26.1221L38.8489 14.1022ZM59.2845 15.4186V14.102H78.199V15.4184H69.4851V38.8346H67.9637V15.4186H59.2845ZM0 14.102H1.9018L28.1265 53.2587L17.2893 38.8346L1.59053 15.9727L1.52144 38.835H0L0 14.102ZM78.0457 37.121C77.7348 37.121 77.5017 36.8809 77.5017 36.5702C77.5017 36.2598 77.7348 36.0193 78.0457 36.0193C78.3602 36.0193 78.5897 36.2596 78.5897 36.5702C78.5897 36.8808 78.3602 37.121 78.0457 37.121ZM79.5407 35.6719H80.3548C80.3658 36.1118 80.6878 36.4076 81.1614 36.4076C81.6906 36.4076 81.9904 36.0896 81.9904 35.4944V31.7232H82.8193V35.498C82.8193 36.5702 82.1977 37.1877 81.1688 37.1877C80.2029 37.1877 79.5407 36.5887 79.5407 35.6717V35.6719ZM83.9035 35.6238H84.7251C84.7954 36.1303 85.2913 36.4518 86.0056 36.4518C86.6716 36.4518 87.16 36.108 87.16 35.6348C87.16 35.2282 86.8491 34.9842 86.1424 34.8178L85.454 34.6515C84.4881 34.4258 84.0479 33.96 84.0479 33.1762C84.0479 32.2261 84.825 31.5938 85.9906 31.5938C87.0748 31.5938 87.8668 32.226 87.9149 33.1245H87.1081C87.0305 32.6328 86.6011 32.3258 85.9794 32.3258C85.3246 32.3258 84.888 32.6401 84.888 33.1207C84.888 33.5014 85.169 33.7197 85.8648 33.8823L86.4531 34.0265C87.5485 34.2817 88 34.7254 88 35.5276C88 36.548 87.2082 37.1877 85.9427 37.1877C84.7584 37.1877 83.9627 36.5775 83.9035 35.6237V35.6238Z" fill="black"/>
</svg>
