<svg width="151" height="39" viewBox="0 0 151 39" fill="none" xmlns="http://www.w3.org/2000/svg">
<g clip-path="url(#clip0_40_136)">
<path d="M19.0001 0.373169C8.5071 0.373169 0 8.8452 0 19.2967C0 29.7478 8.5071 38.2204 19.0001 38.2204C29.4932 38.2204 38 29.7478 38 19.2967C38 8.84505 29.4929 0.373169 19.0001 0.373169ZM19.0001 35.7906C16.0148 35.7906 13.5942 33.8043 13.5942 31.3547H24.4061C24.4061 33.8039 21.9857 35.7906 19.0001 35.7906ZM27.9291 29.8857H10.0703V26.6602H27.9294V29.8856H27.9291V29.8857ZM27.865 25.0002H10.1212C10.0621 24.9325 10.0019 24.8657 9.94487 24.7969C8.11686 22.5861 7.68624 21.432 7.26824 20.2558C7.26112 20.217 9.48486 20.7082 11.0617 21.0615C11.0617 21.0615 11.8731 21.2485 13.0594 21.4639C11.9204 20.1342 11.244 18.4438 11.244 16.7158C11.244 12.9224 14.1652 9.60763 13.1113 6.92841C14.137 7.01149 15.234 9.08441 15.3082 12.3254C16.3986 10.8245 16.8549 8.0838 16.8549 6.40341C16.8549 4.66344 18.0061 2.64227 19.1575 2.57323C18.131 4.25806 19.4232 5.70234 20.5721 9.28533C21.0029 10.6311 20.9479 12.8961 21.2804 14.3324C21.3909 11.3492 21.9058 6.99641 23.806 5.49373C22.9677 7.38613 23.9301 9.75429 24.5882 10.8927C25.6501 12.7295 26.2938 14.121 26.2938 16.7529C26.2938 18.5176 25.6396 20.1789 24.5363 21.4777C25.7909 21.2432 26.6573 21.0318 26.6573 21.0318L30.7319 20.2401C30.7322 20.2398 30.1401 22.6649 27.865 25.0002Z" fill="#DA4E31"/>
</g>
<path d="M44 12.2701C44.9109 12.1146 46.1039 11.983 47.6213 11.983C49.4863 11.983 50.8527 12.4257 51.719 13.2236C52.5 13.9329 52.9987 15.018 52.9987 16.3482C52.9987 17.7 52.6088 18.7646 51.8712 19.5386C50.8527 20.6248 49.2487 21.1775 47.4035 21.1775C46.8392 21.1775 46.3193 21.1536 45.885 21.0579V27.0392H44.0117L44 12.2701ZM45.8733 19.4716C46.2854 19.5829 46.8064 19.6272 47.4351 19.6272C49.7123 19.6272 51.0997 18.4752 51.0997 16.4571C51.0997 14.4629 49.7123 13.5107 47.6517 13.5107C46.8275 13.5107 46.1999 13.5777 45.8721 13.6662L45.8733 19.4716ZM55.1143 19.6487L55.0277 16.3027H56.6973L56.7839 18.4297H56.8495C57.3271 16.9894 58.4979 16.0802 59.7764 16.0802C59.972 16.0802 60.123 16.1042 60.2974 16.1245V17.9632C60.1019 17.9189 59.9076 17.9189 59.6465 17.9189C58.3024 17.9189 57.3482 18.9381 57.0871 20.4011C57.0421 20.702 57.0202 21.006 57.0216 21.3103V27.0284H55.1132V19.6499L55.1143 19.6487ZM71.4984 21.5627C71.4984 25.5295 68.788 27.2569 66.272 27.2569C63.4527 27.2569 61.2411 25.13 61.2411 21.7397C61.2411 18.1725 63.5616 16.0671 66.4465 16.0671C69.4613 16.0671 71.4996 18.3041 71.4996 21.5627H71.4984ZM63.1928 21.674C63.1928 24.0234 64.4807 25.7951 66.3586 25.7951C68.1804 25.7951 69.5467 24.0449 69.5467 21.6297C69.5467 19.8114 68.6569 17.5301 66.402 17.5301C64.1681 17.5301 63.194 19.6571 63.194 21.674H63.1928ZM73.9079 19.1905L73.8213 16.2884H75.4908L75.5775 18.0385H75.643C76.2284 17.0193 77.2049 16.0647 78.9611 16.0647C80.3707 16.0647 81.4549 16.9499 81.9115 18.2144H81.9548C82.2467 17.6647 82.6541 17.188 83.1478 16.8183C83.7765 16.3315 84.4357 16.0647 85.4461 16.0647C86.8557 16.0647 88.9163 16.9954 88.9163 20.7301V27.0224H87.0513V20.9741C87.0513 18.8926 86.2902 17.6725 84.7741 17.6725C83.6677 17.6725 82.8422 18.4919 82.4969 19.4226C82.3991 19.7381 82.3478 20.0667 82.3447 20.3975V27.0224H80.4784V20.5985C80.4784 18.8926 79.7408 17.6737 78.289 17.6737C77.1182 17.6737 76.2284 18.6486 75.924 19.6236C75.8151 19.8891 75.7718 20.2456 75.7718 20.577V27.0368H73.9068V19.2132L73.9079 19.1905ZM93.0586 22.0077C93.1019 24.6443 94.7281 25.7305 96.6588 25.7305C98.0251 25.7305 98.8833 25.4864 99.5647 25.1766L99.9112 26.5726C99.2392 26.8837 98.0684 27.2593 96.3989 27.2593C93.1675 27.2593 91.238 25.0654 91.238 21.8307C91.238 18.596 93.1031 16.0695 96.1612 16.0695C99.6092 16.0695 100.499 19.1271 100.499 21.0998C100.505 21.4042 100.483 21.7086 100.433 22.0089L93.0586 22.0077ZM98.655 20.6117C98.6784 19.3915 98.1562 17.4655 96.009 17.4655C94.0573 17.4655 93.2342 19.2599 93.082 20.6117H98.655ZM105.159 13.7212V16.2932H107.891V17.7765H105.159V23.5605C105.159 24.8764 105.528 25.642 106.591 25.642C107.112 25.642 107.415 25.5977 107.697 25.5223L107.784 27.0057C107.415 27.1253 106.829 27.2713 106.092 27.2713C105.202 27.2713 104.488 26.9602 104.031 26.4518C103.51 25.8537 103.294 24.9003 103.294 23.637V17.7753H101.67V16.292H103.309V14.311L105.159 13.7212ZM110.041 11.2725H111.949V17.9871H111.993C112.315 17.403 112.787 16.9202 113.359 16.591C113.953 16.242 114.626 16.0584 115.311 16.0587C116.72 16.0587 118.975 16.9439 118.975 20.6236V27.0045H117.067V20.8545C117.067 19.1259 116.438 17.6844 114.637 17.6844C113.401 17.6844 112.448 18.5697 112.078 19.5984C111.97 19.8855 111.961 20.175 111.961 20.5291V26.9889H110.053V11.2844L110.041 11.2725ZM123.14 21.9958C123.183 24.6323 124.809 25.7185 126.74 25.7185C128.106 25.7185 128.964 25.4745 129.646 25.1647L129.992 26.5607C129.32 26.8717 128.15 27.2473 126.48 27.2473C123.249 27.2473 121.329 25.0534 121.329 21.8187C121.329 18.584 123.194 16.0575 126.252 16.0575C129.7 16.0575 130.59 19.1152 130.59 21.0878C130.596 21.3923 130.574 21.6968 130.524 21.9969L123.14 21.9958ZM128.736 20.5997C128.76 19.3795 128.237 17.4535 126.09 17.4535C124.138 17.4535 123.315 19.2479 123.163 20.5997H128.736ZM141.725 24.0808L141.812 27.0284H140.119L140.01 25.2783H139.955C139.477 26.142 138.351 27.2725 136.485 27.2725C134.836 27.2725 132.863 26.319 132.863 22.5747V16.3039H134.772V22.2195C134.772 24.2579 135.4 25.6527 137.113 25.6527C138.393 25.6527 139.282 24.7436 139.63 23.8583C139.75 23.5401 139.809 23.2014 139.804 22.8606V16.3015H141.712L141.725 24.0808ZM144.632 25.0546C145.217 25.4087 146.215 25.8082 147.169 25.8082C148.535 25.8082 149.185 25.1216 149.185 24.2124C149.185 23.2817 148.643 22.7949 147.253 22.2625C145.345 21.5531 144.444 20.5124 144.444 19.2264C144.444 17.4978 145.831 16.0802 148.065 16.0802C149.128 16.0802 150.06 16.3673 150.624 16.7454L150.156 18.1629C149.744 17.8974 148.985 17.5205 148.009 17.5205C146.881 17.5205 146.274 18.1857 146.274 18.9836C146.274 19.8688 146.88 20.2684 148.246 20.8222C150.046 21.5089 151 22.4396 151 24.0354C151 25.941 149.548 27.2701 147.097 27.2701C145.947 27.2701 144.872 26.959 144.146 26.5164L144.632 25.0546Z" fill="#363636"/>
<defs>
<clipPath id="clip0_40_136">
<rect width="38" height="38" fill="white" transform="translate(0 0.272461)"/>
</clipPath>
</defs>
</svg>
