<svg width="166" height="39" viewBox="0 0 166 39" fill="none" xmlns="http://www.w3.org/2000/svg">
<path d="M21.3455 23.0323C23.4418 23.0323 25.1412 21.3329 25.1412 19.2366C25.1412 17.1403 23.4418 15.4409 21.3455 15.4409C19.2492 15.4409 17.5498 17.1403 17.5498 19.2366C17.5498 21.3329 19.2492 23.0323 21.3455 23.0323Z" fill="#61DAFB"/>
<path fill-rule="evenodd" clip-rule="evenodd" d="M21.3462 11.519C26.4424 11.519 31.1767 12.2503 34.7463 13.4792C39.0473 14.9599 41.6916 17.2043 41.6916 19.2365C41.6916 21.3543 38.8891 23.7386 34.2705 25.2689C30.7787 26.4257 26.1838 27.0297 21.3462 27.0297C16.3862 27.0297 11.6895 26.4628 8.15834 25.2562C3.69083 23.7292 1 21.314 1 19.2365C1 17.2207 3.52483 14.9937 7.76528 13.5153C11.3482 12.2661 16.1994 11.519 21.3455 11.519H21.3462Z" stroke="#61DAFB" stroke-width="1.66272"/>
<path fill-rule="evenodd" clip-rule="evenodd" d="M14.6283 15.4003C17.1743 10.9856 20.1728 7.24972 23.0207 4.77135C26.4519 1.78529 29.7172 0.615864 31.4777 1.63102C33.3123 2.68899 33.9777 6.30796 32.996 11.0733C32.2545 14.6761 30.4814 18.9581 28.0646 23.1489C25.5867 27.4455 22.7494 31.231 19.9403 33.6864C16.3858 36.7937 12.9492 37.9181 11.1496 36.8803C9.40333 35.874 8.73554 32.5736 9.57326 28.1616C10.2811 24.4337 12.0574 19.8581 14.6275 15.4002L14.6283 15.4003Z" stroke="#61DAFB" stroke-width="1.66272"/>
<path fill-rule="evenodd" clip-rule="evenodd" d="M14.6338 23.16C12.0806 18.7502 10.3423 14.2858 9.61666 10.5808C8.74322 6.11681 9.36077 2.70372 11.1196 1.68561C12.9524 0.624536 16.4201 1.8554 20.0583 5.08584C22.809 7.5282 25.6336 11.2021 28.0574 15.3889C30.5425 19.6814 32.4049 24.0302 33.1295 27.6901C34.0463 32.3216 33.3043 35.8604 31.5063 36.9012C29.7618 37.9111 26.5694 36.8418 23.1654 33.9125C20.2893 31.4376 17.2122 27.6135 14.6338 23.1599V23.16Z" stroke="#61DAFB" stroke-width="1.66272"/>
<path d="M51.3314 27.2725V13.1725H57.1714C58.6914 13.1725 59.8647 13.5391 60.6914 14.2725C61.5181 14.9925 61.9314 16.0058 61.9314 17.3125C61.9314 18.3658 61.6514 19.2325 61.0914 19.9125C60.5314 20.5791 59.7381 21.0258 58.7114 21.2525C59.3514 21.4658 59.8914 21.9791 60.3314 22.7925L62.7714 27.2725H60.4914L58.0514 22.7725C57.7714 22.2525 57.4447 21.9058 57.0714 21.7325C56.7114 21.5458 56.2447 21.4525 55.6714 21.4525H53.4114V27.2725H51.3314ZM53.4114 19.8925H56.8314C58.8847 19.8925 59.9114 19.0458 59.9114 17.3525C59.9114 15.6725 58.8847 14.8325 56.8314 14.8325H53.4114V19.8925ZM68.9922 27.4525C67.3922 27.4525 66.1322 27.0058 65.2122 26.1125C64.2922 25.2058 63.8322 23.9725 63.8322 22.4125C63.8322 21.4125 64.0322 20.5325 64.4322 19.7725C64.8455 18.9991 65.4122 18.3991 66.1322 17.9725C66.8522 17.5458 67.6789 17.3325 68.6122 17.3325C69.9589 17.3325 71.0189 17.7658 71.7922 18.6325C72.5655 19.4858 72.9522 20.6658 72.9522 22.1725V22.8525H65.7922C65.9389 24.8791 67.0122 25.8925 69.0122 25.8925C69.5722 25.8925 70.1189 25.8058 70.6522 25.6325C71.1989 25.4591 71.7122 25.1725 72.1922 24.7725L72.7922 26.1725C72.3522 26.5725 71.7855 26.8858 71.0922 27.1125C70.3989 27.3391 69.6989 27.4525 68.9922 27.4525ZM68.6922 18.7525C67.8522 18.7525 67.1855 19.0125 66.6922 19.5325C66.1989 20.0525 65.8989 20.7458 65.7922 21.6125H71.2522C71.2122 20.7058 70.9722 20.0058 70.5322 19.5125C70.0922 19.0058 69.4789 18.7525 68.6922 18.7525ZM78.2744 27.4525C77.5944 27.4525 76.9877 27.3191 76.4544 27.0525C75.921 26.7858 75.4944 26.4258 75.1744 25.9725C74.8677 25.5191 74.7144 25.0058 74.7144 24.4325C74.7144 23.7125 74.8944 23.1458 75.2544 22.7325C75.6277 22.3191 76.2344 22.0191 77.0744 21.8325C77.9277 21.6458 79.0744 21.5525 80.5144 21.5525H81.1944V21.0325C81.1944 20.2725 81.0344 19.7258 80.7144 19.3925C80.3944 19.0591 79.8677 18.8925 79.1344 18.8925C78.5744 18.8925 78.0144 18.9791 77.4544 19.1525C76.8944 19.3125 76.321 19.5725 75.7344 19.9325L75.1144 18.5125C75.621 18.1525 76.2544 17.8658 77.0144 17.6525C77.7744 17.4391 78.501 17.3325 79.1944 17.3325C80.5277 17.3325 81.5144 17.6525 82.1544 18.2925C82.7944 18.9191 83.1144 19.9058 83.1144 21.2525V27.2725H81.2144V25.6525C80.9744 26.2125 80.601 26.6525 80.0944 26.9725C79.5877 27.2925 78.981 27.4525 78.2744 27.4525ZM78.6744 26.0125C79.3944 26.0125 79.9944 25.7591 80.4744 25.2525C80.9544 24.7458 81.1944 24.1058 81.1944 23.3325V22.7925H80.5344C79.561 22.7925 78.7944 22.8391 78.2344 22.9325C77.6877 23.0258 77.2944 23.1858 77.0544 23.4125C76.8277 23.6258 76.7144 23.9258 76.7144 24.3125C76.7144 24.8191 76.8877 25.2325 77.2344 25.5525C77.581 25.8591 78.061 26.0125 78.6744 26.0125ZM90.1966 27.4525C89.1966 27.4525 88.3299 27.2458 87.5966 26.8325C86.8766 26.4058 86.3166 25.8125 85.9166 25.0525C85.5166 24.2791 85.3166 23.3725 85.3166 22.3325C85.3166 20.7858 85.7566 19.5658 86.6366 18.6725C87.5166 17.7791 88.7032 17.3325 90.1966 17.3325C90.8099 17.3325 91.4166 17.4391 92.0166 17.6525C92.6166 17.8658 93.1099 18.1591 93.4966 18.5325L92.8566 19.9525C92.4832 19.6058 92.0699 19.3525 91.6166 19.1925C91.1766 19.0191 90.7566 18.9325 90.3566 18.9325C89.4099 18.9325 88.6766 19.2325 88.1566 19.8325C87.6499 20.4191 87.3966 21.2591 87.3966 22.3525C87.3966 23.4458 87.6499 24.3058 88.1566 24.9325C88.6766 25.5458 89.4099 25.8525 90.3566 25.8525C90.7566 25.8525 91.1766 25.7725 91.6166 25.6125C92.0699 25.4391 92.4832 25.1791 92.8566 24.8325L93.4966 26.2725C93.1099 26.6325 92.6099 26.9191 91.9966 27.1325C91.3966 27.3458 90.7966 27.4525 90.1966 27.4525ZM99.412 27.4525C98.1854 27.4525 97.272 27.1391 96.672 26.5125C96.072 25.8858 95.772 24.9791 95.772 23.7925V19.0725H93.872V17.5125H95.772V14.5725H97.792V17.5125H100.812V19.0725H97.792V23.6325C97.792 24.3391 97.9387 24.8725 98.232 25.2325C98.5387 25.5925 99.032 25.7725 99.712 25.7725C99.9254 25.7725 100.132 25.7525 100.332 25.7125C100.532 25.6591 100.732 25.5991 100.932 25.5325L101.252 27.0525C101.052 27.1725 100.772 27.2658 100.412 27.3325C100.065 27.4125 99.732 27.4525 99.412 27.4525ZM108.031 27.2725V13.1725H109.611L117.691 23.8325V13.1725H119.611V27.2725H118.071L109.951 16.5725V27.2725H108.031ZM125.794 27.4525C125.114 27.4525 124.507 27.3191 123.974 27.0525C123.441 26.7858 123.014 26.4258 122.694 25.9725C122.387 25.5191 122.234 25.0058 122.234 24.4325C122.234 23.7125 122.414 23.1458 122.774 22.7325C123.147 22.3191 123.754 22.0191 124.594 21.8325C125.447 21.6458 126.594 21.5525 128.034 21.5525H128.714V21.0325C128.714 20.2725 128.554 19.7258 128.234 19.3925C127.914 19.0591 127.387 18.8925 126.654 18.8925C126.094 18.8925 125.534 18.9791 124.974 19.1525C124.414 19.3125 123.841 19.5725 123.254 19.9325L122.634 18.5125C123.141 18.1525 123.774 17.8658 124.534 17.6525C125.294 17.4391 126.021 17.3325 126.714 17.3325C128.047 17.3325 129.034 17.6525 129.674 18.2925C130.314 18.9191 130.634 19.9058 130.634 21.2525V27.2725H128.734V25.6525C128.494 26.2125 128.121 26.6525 127.614 26.9725C127.107 27.2925 126.501 27.4525 125.794 27.4525ZM126.194 26.0125C126.914 26.0125 127.514 25.7591 127.994 25.2525C128.474 24.7458 128.714 24.1058 128.714 23.3325V22.7925H128.054C127.081 22.7925 126.314 22.8391 125.754 22.9325C125.207 23.0258 124.814 23.1858 124.574 23.4125C124.347 23.6258 124.234 23.9258 124.234 24.3125C124.234 24.8191 124.407 25.2325 124.754 25.5525C125.101 25.8591 125.581 26.0125 126.194 26.0125ZM137.576 27.4525C136.349 27.4525 135.436 27.1391 134.836 26.5125C134.236 25.8858 133.936 24.9791 133.936 23.7925V19.0725H132.036V17.5125H133.936V14.5725H135.956V17.5125H138.976V19.0725H135.956V23.6325C135.956 24.3391 136.103 24.8725 136.396 25.2325C136.703 25.5925 137.196 25.7725 137.876 25.7725C138.089 25.7725 138.296 25.7525 138.496 25.7125C138.696 25.6591 138.896 25.5991 139.096 25.5325L139.416 27.0525C139.216 27.1725 138.936 27.2658 138.576 27.3325C138.229 27.4125 137.896 27.4525 137.576 27.4525ZM140.541 15.2525V13.1525H142.901V15.2525H140.541ZM140.721 27.2725V17.5125H142.741V27.2725H140.721ZM148.444 27.2725L144.244 17.5125H146.424L149.404 24.9325L152.464 17.5125H154.524L150.264 27.2725H148.444ZM160.379 27.4525C158.779 27.4525 157.519 27.0058 156.599 26.1125C155.679 25.2058 155.219 23.9725 155.219 22.4125C155.219 21.4125 155.419 20.5325 155.819 19.7725C156.232 18.9991 156.799 18.3991 157.519 17.9725C158.239 17.5458 159.066 17.3325 159.999 17.3325C161.346 17.3325 162.406 17.7658 163.179 18.6325C163.952 19.4858 164.339 20.6658 164.339 22.1725V22.8525H157.179C157.326 24.8791 158.399 25.8925 160.399 25.8925C160.959 25.8925 161.506 25.8058 162.039 25.6325C162.586 25.4591 163.099 25.1725 163.579 24.7725L164.179 26.1725C163.739 26.5725 163.172 26.8858 162.479 27.1125C161.786 27.3391 161.086 27.4525 160.379 27.4525ZM160.079 18.7525C159.239 18.7525 158.572 19.0125 158.079 19.5325C157.586 20.0525 157.286 20.7458 157.179 21.6125H162.639C162.599 20.7058 162.359 20.0058 161.919 19.5125C161.479 19.0058 160.866 18.7525 160.079 18.7525Z" fill="#61DAFB"/>
</svg>
