<svg width="104" height="52" viewBox="0 0 104 52" fill="none" xmlns="http://www.w3.org/2000/svg">
<g clip-path="url(#clip0_39_459)">
<path d="M50.6516 25.1472L48.5106 23.8218C48.4925 23.6138 48.4722 23.4059 48.4496 23.1983L50.2896 21.482C50.3816 21.3965 50.4501 21.2889 50.4887 21.1694C50.5272 21.0498 50.5345 20.9224 50.5097 20.7993C50.4856 20.6761 50.4302 20.5611 50.3489 20.4654C50.2677 20.3697 50.1632 20.2965 50.0455 20.2526L47.6934 19.3731C47.6343 19.17 47.5729 18.9676 47.5091 18.7659L48.9763 16.7281C49.0498 16.6262 49.0961 16.5072 49.1106 16.3825C49.1252 16.2577 49.1076 16.1313 49.0596 16.0152C49.0115 15.8992 48.9346 15.7973 48.8361 15.7193C48.7376 15.6414 48.6208 15.5899 48.4968 15.5698L46.0165 15.1664C45.9201 14.9783 45.8197 14.7931 45.7185 14.6094L46.7606 12.3217C46.8131 12.2076 46.8354 12.0819 46.8253 11.9567C46.8153 11.8314 46.7732 11.7109 46.7032 11.6065C46.6338 11.5019 46.5386 11.4168 46.4269 11.3596C46.3151 11.3023 46.1905 11.2747 46.0649 11.2794L43.5476 11.3671C43.4176 11.2042 43.285 11.0435 43.15 10.8848L43.7285 8.43279C43.7575 8.3105 43.7546 8.18284 43.7202 8.06197C43.6858 7.9411 43.6211 7.83105 43.5321 7.7423C43.4433 7.65346 43.3333 7.58878 43.2126 7.5544C43.0918 7.52002 42.9642 7.51708 42.842 7.54587L40.3906 8.12381C40.2315 7.98888 40.0704 7.85632 39.9073 7.72617L39.9954 5.20904C40.0001 5.08355 39.9725 4.95895 39.9153 4.84716C39.8581 4.73537 39.7732 4.64012 39.6686 4.57054C39.5643 4.50066 39.4437 4.45867 39.3186 4.44855C39.1934 4.43844 39.0677 4.46055 38.9534 4.51277L36.6664 5.55548C36.4819 5.45366 36.2962 5.35404 36.1094 5.25665L35.705 2.77598C35.6847 2.65211 35.6332 2.53546 35.5552 2.43708C35.4773 2.33871 35.3755 2.26187 35.2596 2.21384C35.1436 2.16582 35.0173 2.1482 34.8926 2.16266C34.7679 2.17712 34.649 2.22317 34.5471 2.29646L32.5079 3.7637C32.3073 3.69995 32.1055 3.6384 31.9019 3.58002L31.0223 1.22745C30.9786 1.10959 30.9053 1.00492 30.8096 0.923448C30.7139 0.841973 30.5988 0.786412 30.4755 0.762075C30.3524 0.73786 30.2252 0.745382 30.1059 0.783931C29.9866 0.82248 29.879 0.890786 29.7934 0.982411L28.0771 2.82379C27.8695 2.80053 27.6617 2.78021 27.4535 2.76283L26.1281 0.621227C26.0621 0.514512 25.9699 0.426437 25.8602 0.365357C25.7506 0.304277 25.6272 0.272217 25.5017 0.272217C25.3762 0.272217 25.2528 0.304277 25.1431 0.365357C25.0335 0.426437 24.9413 0.514512 24.8752 0.621227L23.5498 2.76283C23.3415 2.78018 23.1334 2.8005 22.9257 2.82379L21.209 0.982411C21.1235 0.890447 21.0158 0.821905 20.8963 0.783308C20.7767 0.74471 20.6493 0.737342 20.5261 0.761902C20.403 0.786463 20.2881 0.842136 20.1925 0.923625C20.0969 1.00511 20.0238 1.10971 19.98 1.22745L19.1007 3.58002C18.8969 3.6384 18.6953 3.70035 18.4941 3.7637L16.4553 2.29646C16.3534 2.22283 16.2344 2.17657 16.1096 2.1621C15.9847 2.14762 15.8583 2.16542 15.7423 2.21378C15.6264 2.26192 15.5247 2.3388 15.4468 2.43717C15.3689 2.53554 15.3173 2.65215 15.297 2.77598L14.8926 5.25665C14.7053 5.35367 14.5203 5.45348 14.3356 5.55548L12.0484 4.51257C11.9342 4.46032 11.8085 4.43821 11.6834 4.44836C11.5583 4.45851 11.4378 4.50058 11.3336 4.57054C11.2289 4.64008 11.1439 4.7353 11.0867 4.84709C11.0294 4.95889 11.0018 5.08351 11.0064 5.20904L11.0941 7.72617C10.9312 7.85656 10.7701 7.98912 10.6108 8.12381L8.1594 7.54607C8.03712 7.51742 7.90955 7.5204 7.78873 7.55473C7.66792 7.58906 7.55785 7.65362 7.46891 7.7423C7.37994 7.83105 7.31517 7.9411 7.28079 8.06197C7.2464 8.18284 7.24354 8.3105 7.27248 8.43279L7.85001 10.8848C7.71594 11.0436 7.58346 11.2043 7.45337 11.3671L4.93604 11.2794C4.81068 11.2755 4.68636 11.3034 4.57473 11.3606C4.4631 11.4177 4.36779 11.5023 4.29775 11.6063C4.22789 11.7107 4.18589 11.8312 4.17575 11.9564C4.1656 12.0816 4.18764 12.2073 4.23977 12.3215L5.28248 14.6094C5.18108 14.7931 5.08087 14.9783 4.98366 15.1664L2.50358 15.5698C2.37965 15.59 2.26293 15.6416 2.1645 15.7195C2.06607 15.7975 1.98919 15.8993 1.94116 16.0153C1.89312 16.1314 1.87553 16.2577 1.89004 16.3825C1.90455 16.5072 1.95068 16.6262 2.02406 16.7281L3.49131 18.7661C3.42756 18.9673 3.3656 19.1693 3.30703 19.3731L0.954656 20.2526C0.837178 20.2968 0.732904 20.3702 0.651703 20.4658C0.570503 20.5615 0.515061 20.6763 0.490626 20.7994C0.466191 20.9225 0.473571 21.0498 0.512066 21.1693C0.550562 21.2887 0.6189 21.3964 0.710613 21.482L2.5508 23.1981C2.52789 23.4053 2.50757 23.6139 2.49004 23.8218L0.348633 25.1472C0.241934 25.2133 0.153894 25.3055 0.0928758 25.4152C0.0318575 25.5249 -0.000113251 25.6483 3.0143e-07 25.7738C3.0143e-07 26.0296 0.132082 26.2665 0.348832 26.3999L2.49004 27.7253C2.50757 27.9339 2.52789 28.1421 2.5508 28.3491L0.710414 30.0658C0.618538 30.1513 0.550054 30.2589 0.511467 30.3784C0.47288 30.4979 0.465471 30.6252 0.489942 30.7483C0.514413 30.8715 0.569952 30.9863 0.651286 31.0819C0.73262 31.1776 0.837049 31.2508 0.954656 31.2947L3.30703 32.1743C3.3656 32.3779 3.42756 32.5801 3.49131 32.7813L2.02406 34.8195C1.95054 34.9214 1.90431 35.0404 1.88977 35.1652C1.87522 35.29 1.89285 35.4164 1.94097 35.5324C1.98909 35.6485 2.06611 35.7503 2.16469 35.8282C2.26327 35.9061 2.38014 35.9574 2.50418 35.9774L4.98386 36.3808C5.08087 36.5689 5.18028 36.7541 5.28268 36.9386L4.23977 39.2256C4.18755 39.3399 4.16545 39.4656 4.1756 39.5908C4.18575 39.716 4.2278 39.8365 4.29775 39.9408C4.36729 40.0454 4.46249 40.1303 4.57425 40.1876C4.686 40.2448 4.81057 40.2724 4.93604 40.2678L7.45218 40.1797C7.58346 40.3433 7.71554 40.5036 7.85001 40.663L7.27248 43.1154C7.24356 43.2375 7.24644 43.3649 7.28083 43.4855C7.31522 43.6062 7.37997 43.716 7.46891 43.8045C7.5576 43.8935 7.66767 43.9583 7.78858 43.9926C7.90948 44.0269 8.03717 44.0295 8.1594 44.0003L10.6108 43.423C10.7702 43.5584 10.9315 43.6899 11.0943 43.8194L11.0066 46.3373C11.0021 46.4628 11.0298 46.5873 11.0869 46.6991C11.1441 46.8109 11.229 46.9061 11.3334 46.9759C11.4378 47.0456 11.5583 47.0874 11.6834 47.0974C11.8086 47.1074 11.9342 47.0853 12.0484 47.033L14.3356 45.9909C14.5197 46.0932 14.7054 46.1928 14.8926 46.2895L15.297 48.7688C15.317 48.8928 15.3684 49.0097 15.4463 49.1082C15.5243 49.2067 15.6262 49.2836 15.7423 49.3316C15.8583 49.3797 15.9847 49.3973 16.1094 49.3829C16.2342 49.3685 16.3532 49.3226 16.4553 49.2493L18.4931 47.7811C18.6943 47.8448 18.8965 47.9072 19.1001 47.9658L19.9796 50.3173C20.0234 50.435 20.0967 50.5395 20.1924 50.6208C20.2881 50.7021 20.4031 50.7575 20.5263 50.7817C20.6494 50.8066 20.7768 50.7993 20.8963 50.7607C21.0158 50.7222 21.1233 50.6535 21.2086 50.5614L22.9253 48.721C23.1325 48.7449 23.3409 48.7648 23.5494 48.7834L24.8748 50.9246C24.941 51.0311 25.0332 51.119 25.1427 51.18C25.2523 51.241 25.3756 51.2731 25.501 51.2732C25.6265 51.2732 25.7498 51.2411 25.8595 51.1801C25.9691 51.1191 26.0614 51.0312 26.1275 50.9246L27.4529 48.7834C27.6615 48.7648 27.8697 48.7449 28.0767 48.721L29.793 50.5614C29.8783 50.6534 29.9858 50.722 30.1053 50.7606C30.2247 50.7992 30.352 50.8065 30.4751 50.7817C30.5983 50.7574 30.7132 50.702 30.8089 50.6207C30.9046 50.5394 30.9779 50.435 31.0217 50.3173L31.9013 47.9658C32.1049 47.9072 32.3073 47.8448 32.5085 47.7811L34.5467 49.2493C34.6487 49.3226 34.7677 49.3687 34.8924 49.3831C35.0172 49.3975 35.1435 49.3798 35.2595 49.3316C35.3755 49.2835 35.4773 49.2065 35.5552 49.108C35.633 49.0095 35.6845 48.8928 35.7046 48.7688L36.109 46.2895C36.2961 46.1925 36.4811 46.0917 36.6658 45.9907L38.953 47.033C39.0672 47.0854 39.1929 47.1077 39.3181 47.0978C39.4433 47.0879 39.5639 47.046 39.6684 46.9763C39.7728 46.9065 39.8577 46.8112 39.9149 46.6994C39.972 46.5875 39.9996 46.4629 39.995 46.3373L39.9073 43.8196C40.0703 43.69 40.2312 43.5577 40.39 43.423L42.8416 44.0003C43.0906 44.0589 43.3516 43.9864 43.5315 43.8045C43.6204 43.716 43.6852 43.6062 43.7196 43.4855C43.754 43.3649 43.7568 43.2375 43.7279 43.1154L43.1506 40.663C43.285 40.5036 43.4175 40.3433 43.547 40.1797L46.0644 40.2678C46.1898 40.2725 46.3144 40.2449 46.4262 40.1877C46.5379 40.1305 46.6331 40.0456 46.7026 39.941C46.7727 39.8367 46.8148 39.7161 46.8249 39.5908C46.835 39.4655 46.8127 39.3397 46.7602 39.2254L45.7179 36.9388C45.8197 36.7541 45.9197 36.5689 46.0161 36.381L48.4964 35.9774C48.6204 35.9575 48.7372 35.9061 48.8357 35.8281C48.9341 35.7501 49.0109 35.6481 49.0586 35.5319C49.1067 35.416 49.1243 35.2897 49.1099 35.165C49.0954 35.0403 49.0493 34.9214 48.9759 34.8195L47.5087 32.7815C47.572 32.5801 47.634 32.3779 47.693 32.1743L50.0449 31.2947C50.1627 31.2509 50.2672 31.1777 50.3485 31.0819C50.4298 30.9862 50.4852 30.8712 50.5093 30.7479C50.5341 30.6248 50.5269 30.4975 50.4883 30.378C50.4497 30.2586 50.3811 30.1511 50.289 30.0658L48.4492 28.3491C48.4715 28.1419 48.492 27.9335 48.51 27.7255L50.6512 26.3999C50.7579 26.334 50.846 26.2419 50.9071 26.1323C50.9681 26.0227 51.0001 25.8993 51 25.7738C51 25.5186 50.8685 25.2813 50.6516 25.1472ZM36.3214 42.9088C35.5038 42.7325 34.9838 41.9266 35.1593 41.1065C35.3342 40.2873 36.1395 39.7659 36.9569 39.9422C37.7745 40.1173 38.2952 40.9246 38.1199 41.7432C37.9446 42.562 37.1386 43.0839 36.3214 42.9088ZM35.5938 37.9883C35.4164 37.9502 35.2332 37.9475 35.0548 37.9804C34.8763 38.0132 34.7061 38.0808 34.5538 38.1795C34.4015 38.2781 34.2702 38.4059 34.1673 38.5553C34.0644 38.7048 33.992 38.8731 33.9542 39.0505L33.194 42.598C30.8482 43.6626 28.2434 44.2541 25.5 44.2541C22.6938 44.2541 20.0322 43.6334 17.6448 42.5233L16.885 38.976C16.7252 38.2295 15.9913 37.754 15.2458 37.9142L12.1141 38.5867C11.5321 37.9877 10.9911 37.3501 10.4948 36.6782H25.7331C25.9054 36.6782 26.0204 36.6469 26.0204 36.49V31.0997C26.0204 30.9429 25.9054 30.9116 25.7329 30.9116H21.2766V27.495H26.0967C26.5365 27.495 28.4492 27.6205 29.0606 30.0654C29.2523 30.8172 29.6726 33.2628 29.9603 34.0458C30.2468 34.9239 31.4132 36.678 32.6563 36.678H40.2496C40.3358 36.678 40.4279 36.6683 40.5249 36.6507C39.998 37.3662 39.4209 38.0433 38.7978 38.6768L35.594 37.9883H35.5938ZM14.5185 42.8347C13.7007 43.0112 12.8956 42.4898 12.7197 41.6707C12.5448 40.8501 13.0648 40.0446 13.8824 39.8683C14.7002 39.6934 15.5056 40.2148 15.6809 41.0337C15.8558 41.8525 15.3355 42.6594 14.5183 42.8347H14.5185ZM8.73773 19.3946C9.077 20.16 8.73176 21.0571 7.96735 21.3958C7.20295 21.7354 6.30826 21.3898 5.96919 20.6238C5.62992 19.8578 5.97497 18.9623 6.73957 18.6226C6.92143 18.542 7.1174 18.498 7.31628 18.4931C7.51517 18.4882 7.71306 18.5226 7.89864 18.5943C8.08422 18.666 8.25385 18.7735 8.39783 18.9108C8.54181 19.0481 8.65731 19.2124 8.73773 19.3944V19.3946ZM6.9611 23.6061L10.2235 22.1564C10.5584 22.0074 10.8205 21.7315 10.9521 21.3895C11.0838 21.0474 11.0742 20.667 10.9256 20.3319L10.2538 18.8127H12.8962V30.7236H7.56493C7.09235 29.0599 6.85326 27.3387 6.85452 25.6092C6.85452 24.9323 6.89098 24.2633 6.9611 23.6059V23.6061ZM21.2774 22.4492V18.9384H27.5699C27.895 18.9384 29.8649 19.3141 29.8649 20.7871C29.8649 22.0101 28.354 22.4486 27.1115 22.4486H21.2774V22.4492ZM44.1461 25.6092C44.1461 26.075 44.1289 26.536 44.0949 26.9934H42.1818C41.9903 26.9934 41.9132 27.1193 41.9132 27.3068V28.1853C41.9132 30.2532 40.7472 30.7031 39.7254 30.8176C38.7524 30.9272 37.6735 30.4102 37.5406 29.8147C36.9664 26.5862 36.01 25.8967 34.4995 24.7052C36.3742 23.5148 38.3245 21.7587 38.3245 19.408C38.3245 16.8699 36.5845 15.2712 35.3984 14.4872C33.7345 13.3904 31.8921 13.1704 31.3951 13.1704H11.6103C14.2931 10.1762 17.9293 8.05508 22.0418 7.2833L24.3738 9.72971C24.4989 9.86103 24.6487 9.96638 24.8146 10.0397C24.9805 10.1131 25.1592 10.153 25.3405 10.1572C25.5219 10.1613 25.7023 10.1297 25.8713 10.0641C26.0404 9.99847 26.1949 9.90014 26.326 9.77473L28.9353 7.27892C34.4029 8.29693 39.0321 11.7004 41.6999 16.3699L39.9135 20.4046C39.6051 21.1029 39.9198 21.9195 40.6161 22.2289L44.0554 23.7565C44.1148 24.3671 44.1461 24.9839 44.1461 25.6092ZM24.3748 5.20206C24.979 4.62333 25.9375 4.64624 26.516 5.25127C27.0934 5.85809 27.0714 6.81753 26.4658 7.39586C25.8616 7.97479 24.9031 7.95228 24.3246 7.34606C24.0474 7.05486 23.897 6.66561 23.9064 6.26368C23.9158 5.86175 24.0843 5.47996 24.3748 5.20206ZM42.1019 19.4681C42.1823 19.2862 42.2977 19.1219 42.4417 18.9846C42.5856 18.8473 42.7552 18.7398 42.9408 18.6681C43.1264 18.5965 43.3242 18.5621 43.5231 18.567C43.7219 18.572 43.9179 18.616 44.0997 18.6967C44.8643 19.0358 45.2093 19.9325 44.87 20.6979C44.7897 20.8799 44.6742 21.0443 44.5303 21.1817C44.3863 21.319 44.2167 21.4266 44.0311 21.4983C43.8455 21.5701 43.6475 21.6044 43.4486 21.5996C43.2497 21.5947 43.0537 21.5506 42.8719 21.4699C42.1083 21.1306 41.7632 20.2347 42.1019 19.4681Z" fill="black"/>
</g>
<path d="M63.64 32.2725V18.1725H69.48C71 18.1725 72.1733 18.5391 73 19.2725C73.8267 19.9925 74.24 21.0058 74.24 22.3125C74.24 23.3658 73.96 24.2325 73.4 24.9125C72.84 25.5791 72.0467 26.0258 71.02 26.2525C71.66 26.4658 72.2 26.9791 72.64 27.7925L75.08 32.2725H72.8L70.36 27.7725C70.08 27.2525 69.7533 26.9058 69.38 26.7325C69.02 26.5458 68.5533 26.4525 67.98 26.4525H65.72V32.2725H63.64ZM65.72 24.8925H69.14C71.1933 24.8925 72.22 24.0458 72.22 22.3525C72.22 20.6725 71.1933 19.8325 69.14 19.8325H65.72V24.8925ZM80.4352 32.4525C78.0752 32.4525 76.8952 31.1391 76.8952 28.5125V22.5125H78.9152V28.5325C78.9152 29.3191 79.0752 29.8991 79.3952 30.2725C79.7152 30.6458 80.2218 30.8325 80.9152 30.8325C81.6752 30.8325 82.2885 30.5791 82.7552 30.0725C83.2352 29.5658 83.4752 28.8858 83.4752 28.0325V22.5125H85.4952V32.2725H83.5352V30.7125C83.2152 31.2858 82.7885 31.7191 82.2552 32.0125C81.7218 32.3058 81.1152 32.4525 80.4352 32.4525ZM91.7619 32.4525C90.9619 32.4525 90.2152 32.3525 89.5219 32.1525C88.8285 31.9391 88.2485 31.6458 87.7819 31.2725L88.3619 29.9125C88.8552 30.2591 89.3952 30.5258 89.9819 30.7125C90.5819 30.8991 91.1819 30.9925 91.7819 30.9925C92.4885 30.9925 93.0219 30.8658 93.3819 30.6125C93.7419 30.3591 93.9219 30.0191 93.9219 29.5925C93.9219 29.2458 93.8019 28.9791 93.5619 28.7925C93.3219 28.5925 92.9619 28.4391 92.4819 28.3325L90.5819 27.9525C88.9019 27.6058 88.0619 26.7391 88.0619 25.3525C88.0619 24.4325 88.4285 23.6991 89.1619 23.1525C89.8952 22.6058 90.8552 22.3325 92.0419 22.3325C92.7219 22.3325 93.3685 22.4325 93.9819 22.6325C94.6085 22.8325 95.1285 23.1325 95.5419 23.5325L94.9619 24.8925C94.5619 24.5458 94.1019 24.2791 93.5819 24.0925C93.0619 23.9058 92.5485 23.8125 92.0419 23.8125C91.3485 23.8125 90.8219 23.9458 90.4619 24.2125C90.1019 24.4658 89.9219 24.8125 89.9219 25.2525C89.9219 25.9191 90.3619 26.3458 91.2419 26.5325L93.1419 26.9125C94.0085 27.0858 94.6619 27.3791 95.1019 27.7925C95.5552 28.2058 95.7819 28.7658 95.7819 29.4725C95.7819 30.4058 95.4152 31.1391 94.6819 31.6725C93.9485 32.1925 92.9752 32.4525 91.7619 32.4525ZM102.092 32.4525C100.865 32.4525 99.9517 32.1391 99.3517 31.5125C98.7517 30.8858 98.4517 29.9791 98.4517 28.7925V24.0725H96.5517V22.5125H98.4517V19.5725H100.472V22.5125H103.492V24.0725H100.472V28.6325C100.472 29.3391 100.618 29.8725 100.912 30.2325C101.218 30.5925 101.712 30.7725 102.392 30.7725C102.605 30.7725 102.812 30.7525 103.012 30.7125C103.212 30.6591 103.412 30.5991 103.612 30.5325L103.932 32.0525C103.732 32.1725 103.452 32.2658 103.092 32.3325C102.745 32.4125 102.412 32.4525 102.092 32.4525Z" fill="black"/>
<defs>
<clipPath id="clip0_39_459">
<rect width="51" height="51" fill="white" transform="translate(0 0.272461)"/>
</clipPath>
</defs>
</svg>
