<svg width="105" height="30" viewBox="0 0 105 30" fill="none" xmlns="http://www.w3.org/2000/svg">
<path d="M30.1155 0.272461L30.2636 22.5802H33.6292V0.272461H30.1155ZM71.7729 0.272461V22.5891H75.8228C75.8228 22.5891 75.8565 14.536 75.9014 14.5449C75.9462 14.5449 81.9393 22.8947 81.9931 22.8657C82.0537 22.8501 85.5854 21.5875 85.5854 21.5518C85.5854 21.525 79.5654 13.8757 79.5654 13.8668C79.5654 13.8489 84.6138 8.26308 84.5689 8.21846C84.4298 8.08908 81.6947 6.91346 81.6162 6.95585C81.5803 6.98261 75.8228 13.1953 75.8228 13.1953V0.272461H71.7729ZM4.68045 7.07631C3.22426 7.38192 1.85782 8.30769 1.29688 9.37846C1.04242 9.89572 0.911646 10.4644 0.914759 11.0402C0.917873 11.616 1.05479 12.1833 1.31483 12.6978C1.67383 13.3872 2.71717 14.3464 4.33716 15.4774C6.09176 16.7155 6.75591 17.3334 6.92419 17.9178C7.17774 18.7812 6.79181 19.5909 5.95041 19.9925C5.53083 20.1932 5.3446 20.2178 4.59967 20.1843C3.62813 20.1397 2.96174 19.8943 1.97225 19.1894C1.65588 18.973 1.36644 18.8146 1.33054 18.8503C1.29688 18.886 0.980516 19.3567 0.630492 19.8965L0 20.8625L0.235593 21.0454C0.376949 21.1413 0.796529 21.3956 1.18245 21.612C3.84802 23.0843 7.79028 22.8501 9.78945 21.0989C10.312 20.6536 10.7106 20.0822 10.9472 19.4396C11.1837 18.797 11.2502 18.1048 11.1402 17.4293C10.9472 16.131 10.227 15.2788 7.96529 13.6482C6.18825 12.3677 5.34684 11.6628 5.15388 11.288C4.77693 10.5541 5.03945 9.84915 5.83598 9.43869C6.23985 9.23123 6.40589 9.21339 7.20466 9.24685C7.98324 9.27362 8.22108 9.33607 8.86952 9.63946L9.62342 10.0053L10.209 9.09069C10.5344 8.58654 10.77 8.14038 10.7453 8.098C10.6398 7.94184 9.40353 7.42654 8.63168 7.228C7.60629 6.95585 5.62507 6.87777 4.68045 7.07854V7.07631ZM22.4801 9.04831C24.2526 9.87369 25.1972 12.4614 24.8136 15.4082C24.6789 16.4545 24.3042 17.7171 23.9542 18.3015C23.6019 18.9038 22.9198 19.5575 22.3746 19.8095C21.3761 20.278 19.8953 20.0973 18.9574 19.3902C17.6605 18.4064 16.9492 15.9927 17.2207 13.4831C17.4765 11.1832 18.3089 9.72646 19.7629 9.055C20.5168 8.707 21.7374 8.707 22.4801 9.04831ZM20.8668 6.48515C19.8078 6.72161 18.9664 7.19231 18.0554 8.05339L17.2297 8.83861V6.96477H13.4355V29.2725H17.2297V20.1754L17.9589 20.8803C19.2895 22.1786 20.8511 22.7028 22.673 22.4485C23.8645 22.2835 24.7059 21.9801 25.5921 21.3867C28.0827 19.7315 29.4581 16.4277 29.0812 12.9767C28.7222 9.70192 27.0304 7.43546 24.302 6.57439C23.6019 6.34685 21.6925 6.30223 20.8691 6.48515H20.8668ZM36.4519 6.96477C36.4519 6.96477 36.5753 18.7544 36.6538 19.0957C36.959 20.394 37.8363 21.6298 38.819 22.163C39.721 22.6493 40.448 22.7988 41.8077 22.7988C43.744 22.7898 44.9175 22.3281 46.3558 21.0119L47.0917 20.3494V22.5802H51.0003L50.9487 6.96477H47.0917C47.0917 6.96477 47.1433 16.6642 47.0917 17.0032C46.8628 18.364 45.8038 19.4794 44.7245 19.8363C44.0851 20.0527 42.9632 20.2267 42.2878 20.1218C41.5968 20.0103 40.43 19.2518 40.3605 18.1186V7.01608L36.4519 6.96477ZM68.9503 22.5802C68.9503 22.5802 68.8268 10.7905 68.7483 10.4492C68.4432 9.15092 67.5659 7.91508 66.5831 7.38192C65.6811 6.89562 64.9541 6.74615 63.5944 6.74615C61.6581 6.75508 60.4846 7.21684 59.0464 8.533L58.3104 9.19554V6.96477H54.4018L54.4534 22.5802H58.3104C58.3104 22.5802 58.2588 12.8808 58.3104 12.5417C58.5393 11.1809 59.5983 10.0655 60.6776 9.70861C61.317 9.49223 62.1584 9.32715 63.1143 9.42307C64.0679 9.52569 65.1112 10.389 65.0416 11.4263V22.5288L68.9503 22.5802Z" fill="#212121"/>
<path fill-rule="evenodd" clip-rule="evenodd" d="M89.1221 5.93097V9.32609L102.46 13.8529L89.1221 19.7423V22.9066L104.683 16.1163V11.5895L89.1221 5.93097Z" fill="#77B539"/>
</svg>
