<svg width="247" height="180" viewBox="0 0 247 180" fill="none" xmlns="http://www.w3.org/2000/svg">
<rect width="247" height="32" rx="5" fill="white" fill-opacity="0.46"/>
<rect y="41" width="247" height="139" rx="5" fill="white" fill-opacity="0.46"/>
<mask id="mask0_64_367" style="mask-type:alpha" maskUnits="userSpaceOnUse" x="10" y="7" width="18" height="18">
<path fill-rule="evenodd" clip-rule="evenodd" d="M10 7H27.0422V24.0424H10V7Z" fill="white"/>
</mask>
<g mask="url(#mask0_64_367)">
<path fill-rule="evenodd" clip-rule="evenodd" d="M18.5216 8.3125C14.5465 8.3125 11.3125 11.5456 11.3125 15.5208C11.3125 19.4959 14.5465 22.7299 18.5216 22.7299C22.4959 22.7299 25.7299 19.4959 25.7299 15.5208C25.7299 11.5456 22.4959 8.3125 18.5216 8.3125ZM18.5216 24.0424C13.8229 24.0424 10 20.2195 10 15.5208C10 10.822 13.8229 7 18.5216 7C23.2204 7 27.0424 10.822 27.0424 15.5208C27.0424 20.2195 23.2204 24.0424 18.5216 24.0424Z" fill="black" fill-opacity="0.25"/>
</g>
<mask id="mask1_64_367" style="mask-type:alpha" maskUnits="userSpaceOnUse" x="23" y="20" width="5" height="6">
<path fill-rule="evenodd" clip-rule="evenodd" d="M23.335 20.7437H27.731V25.1316H23.335V20.7437Z" fill="white"/>
</mask>
<g mask="url(#mask1_64_367)">
<path fill-rule="evenodd" clip-rule="evenodd" d="M27.0749 25.1316C26.9078 25.1316 26.7398 25.0677 26.6112 24.9399L23.5277 21.8652C23.2713 21.6088 23.2704 21.1932 23.5268 20.9368C23.7823 20.6787 24.1979 20.6804 24.4552 20.9351L27.5387 24.0107C27.7951 24.2671 27.7959 24.6818 27.5396 24.9382C27.4118 25.0677 27.2429 25.1316 27.0749 25.1316Z" fill="black" fill-opacity="0.25"/>
</g>
<path d="M39.738 19V12.655H42.366C43.05 12.655 43.578 12.826 43.95 13.168C44.322 13.504 44.508 13.978 44.508 14.59C44.508 15.208 44.322 15.688 43.95 16.03C43.578 16.366 43.05 16.534 42.366 16.534H40.674V19H39.738ZM40.674 15.787H42.231C43.143 15.787 43.599 15.388 43.599 14.59C43.599 13.798 43.143 13.402 42.231 13.402H40.674V15.787ZM45.881 20.62L46.664 18.883L44.828 14.608H45.8L47.15 17.947L48.518 14.608H49.454L46.835 20.62H45.881ZM52.0842 19.081C51.5322 19.081 51.1212 18.94 50.8512 18.658C50.5812 18.376 50.4462 17.968 50.4462 17.434V15.31H49.5912V14.608H50.4462V13.285H51.3552V14.608H52.7142V15.31H51.3552V17.362C51.3552 17.68 51.4212 17.92 51.5532 18.082C51.6912 18.244 51.9132 18.325 52.2192 18.325C52.3152 18.325 52.4082 18.316 52.4982 18.298C52.5882 18.274 52.6782 18.247 52.7682 18.217L52.9122 18.901C52.8222 18.955 52.6962 18.997 52.5342 19.027C52.3782 19.063 52.2282 19.081 52.0842 19.081ZM53.4994 19V12.655H54.4084V15.292C54.5584 15.04 54.7594 14.851 55.0114 14.725C55.2694 14.593 55.5574 14.527 55.8754 14.527C56.9134 14.527 57.4324 15.115 57.4324 16.291V19H56.5234V16.345C56.5234 15.967 56.4484 15.691 56.2984 15.517C56.1544 15.343 55.9264 15.256 55.6144 15.256C55.2484 15.256 54.9544 15.373 54.7324 15.607C54.5164 15.835 54.4084 16.138 54.4084 16.516V19H53.4994ZM60.5929 19.081C60.1489 19.081 59.7649 18.988 59.4409 18.802C59.1169 18.616 58.8649 18.355 58.6849 18.019C58.5109 17.677 58.4239 17.272 58.4239 16.804C58.4239 16.336 58.5109 15.934 58.6849 15.598C58.8649 15.256 59.1169 14.992 59.4409 14.806C59.7649 14.62 60.1489 14.527 60.5929 14.527C61.0249 14.527 61.4029 14.62 61.7269 14.806C62.0509 14.992 62.3029 15.256 62.4829 15.598C62.6629 15.934 62.7529 16.336 62.7529 16.804C62.7529 17.272 62.6629 17.677 62.4829 18.019C62.3029 18.355 62.0509 18.616 61.7269 18.802C61.4029 18.988 61.0249 19.081 60.5929 19.081ZM60.5929 18.379C60.9649 18.379 61.2649 18.244 61.4929 17.974C61.7209 17.704 61.8349 17.314 61.8349 16.804C61.8349 16.294 61.7209 15.907 61.4929 15.643C61.2649 15.373 60.9649 15.238 60.5929 15.238C60.2149 15.238 59.9119 15.373 59.6839 15.643C59.4559 15.907 59.3419 16.294 59.3419 16.804C59.3419 17.314 59.4559 17.704 59.6839 17.974C59.9119 18.244 60.2149 18.379 60.5929 18.379ZM63.7738 19V14.608H64.6558V15.337C64.8058 15.073 65.0098 14.872 65.2678 14.734C65.5318 14.596 65.8258 14.527 66.1498 14.527C67.1878 14.527 67.7068 15.115 67.7068 16.291V19H66.7978V16.345C66.7978 15.967 66.7228 15.691 66.5728 15.517C66.4288 15.343 66.2008 15.256 65.8888 15.256C65.5228 15.256 65.2288 15.373 65.0068 15.607C64.7908 15.835 64.6828 16.138 64.6828 16.516V19H63.7738ZM71.4226 19V12.655H75.5266V13.411H72.3226V15.4H75.3376V16.156H72.3226V18.244H75.5266V19H71.4226ZM76.0384 19L77.8654 16.732L76.1554 14.608H77.2174L78.3964 16.111L79.5754 14.608H80.6374L78.9184 16.741L80.7544 19H79.6744L78.3874 17.38L77.1094 19H76.0384ZM81.431 20.62V14.608H82.322V15.355C82.448 15.103 82.64 14.902 82.898 14.752C83.156 14.602 83.453 14.527 83.789 14.527C84.179 14.527 84.518 14.62 84.806 14.806C85.1 14.992 85.325 15.256 85.481 15.598C85.643 15.934 85.724 16.336 85.724 16.804C85.724 17.272 85.643 17.677 85.481 18.019C85.325 18.361 85.1 18.625 84.806 18.811C84.518 18.991 84.179 19.081 83.789 19.081C83.465 19.081 83.174 19.012 82.916 18.874C82.664 18.73 82.472 18.535 82.34 18.289V20.62H81.431ZM83.564 18.379C83.942 18.379 84.242 18.244 84.464 17.974C84.692 17.704 84.806 17.314 84.806 16.804C84.806 16.294 84.692 15.907 84.464 15.643C84.242 15.373 83.942 15.238 83.564 15.238C83.186 15.238 82.883 15.373 82.655 15.643C82.433 15.907 82.322 16.294 82.322 16.804C82.322 17.314 82.433 17.704 82.655 17.974C82.883 18.244 83.186 18.379 83.564 18.379ZM88.8094 19.081C88.0894 19.081 87.5224 18.88 87.1084 18.478C86.6944 18.07 86.4874 17.515 86.4874 16.813C86.4874 16.363 86.5774 15.967 86.7574 15.625C86.9434 15.277 87.1984 15.007 87.5224 14.815C87.8464 14.623 88.2184 14.527 88.6384 14.527C89.2444 14.527 89.7214 14.722 90.0694 15.112C90.4174 15.496 90.5914 16.027 90.5914 16.705V17.011H87.3694C87.4354 17.923 87.9184 18.379 88.8184 18.379C89.0704 18.379 89.3164 18.34 89.5564 18.262C89.8024 18.184 90.0334 18.055 90.2494 17.875L90.5194 18.505C90.3214 18.685 90.0664 18.826 89.7544 18.928C89.4424 19.03 89.1274 19.081 88.8094 19.081ZM88.6744 15.166C88.2964 15.166 87.9964 15.283 87.7744 15.517C87.5524 15.751 87.4174 16.063 87.3694 16.453H89.8264C89.8084 16.045 89.7004 15.73 89.5024 15.508C89.3044 15.28 89.0284 15.166 88.6744 15.166ZM91.5824 19V14.608H92.4644V15.391C92.6924 14.869 93.1664 14.578 93.8864 14.518L94.1834 14.5L94.2464 15.274L93.6974 15.328C92.8994 15.406 92.5004 15.817 92.5004 16.561V19H91.5824ZM97.0579 19.081C96.5059 19.081 96.0949 18.94 95.8249 18.658C95.5549 18.376 95.4199 17.968 95.4199 17.434V15.31H94.5649V14.608H95.4199V13.285H96.3289V14.608H97.6879V15.31H96.3289V17.362C96.3289 17.68 96.3949 17.92 96.5269 18.082C96.6649 18.244 96.8869 18.325 97.1929 18.325C97.2889 18.325 97.3819 18.316 97.4719 18.298C97.5619 18.274 97.6519 18.247 97.7419 18.217L97.8859 18.901C97.7959 18.955 97.6699 18.997 97.5079 19.027C97.3519 19.063 97.2019 19.081 97.0579 19.081ZM100.012 19.081C99.652 19.081 99.316 19.036 99.004 18.946C98.692 18.85 98.431 18.718 98.221 18.55L98.482 17.938C98.704 18.094 98.947 18.214 99.211 18.298C99.481 18.382 99.751 18.424 100.021 18.424C100.339 18.424 100.579 18.367 100.741 18.253C100.903 18.139 100.984 17.986 100.984 17.794C100.984 17.638 100.93 17.518 100.822 17.434C100.714 17.344 100.552 17.275 100.336 17.227L99.481 17.056C98.725 16.9 98.347 16.51 98.347 15.886C98.347 15.472 98.512 15.142 98.842 14.896C99.172 14.65 99.604 14.527 100.138 14.527C100.444 14.527 100.735 14.572 101.011 14.662C101.293 14.752 101.527 14.887 101.713 15.067L101.452 15.679C101.272 15.523 101.065 15.403 100.831 15.319C100.597 15.235 100.366 15.193 100.138 15.193C99.826 15.193 99.589 15.253 99.427 15.373C99.265 15.487 99.184 15.643 99.184 15.841C99.184 16.141 99.382 16.333 99.778 16.417L100.633 16.588C101.023 16.666 101.317 16.798 101.515 16.984C101.719 17.17 101.821 17.422 101.821 17.74C101.821 18.16 101.656 18.49 101.326 18.73C100.996 18.964 100.558 19.081 100.012 19.081ZM105.296 19V12.655H107.924C108.608 12.655 109.136 12.82 109.508 13.15C109.88 13.474 110.066 13.93 110.066 14.518C110.066 14.992 109.94 15.382 109.688 15.688C109.436 15.988 109.079 16.189 108.617 16.291C108.905 16.387 109.148 16.618 109.346 16.984L110.444 19H109.418L108.32 16.975C108.194 16.741 108.047 16.585 107.879 16.507C107.717 16.423 107.507 16.381 107.249 16.381H106.232V19H105.296ZM106.232 15.679H107.771C108.695 15.679 109.157 15.298 109.157 14.536C109.157 13.78 108.695 13.402 107.771 13.402H106.232V15.679ZM113.243 19.081C112.523 19.081 111.956 18.88 111.542 18.478C111.128 18.07 110.921 17.515 110.921 16.813C110.921 16.363 111.011 15.967 111.191 15.625C111.377 15.277 111.632 15.007 111.956 14.815C112.28 14.623 112.652 14.527 113.072 14.527C113.678 14.527 114.155 14.722 114.503 15.112C114.851 15.496 115.025 16.027 115.025 16.705V17.011H111.803C111.869 17.923 112.352 18.379 113.252 18.379C113.504 18.379 113.75 18.34 113.99 18.262C114.236 18.184 114.467 18.055 114.683 17.875L114.953 18.505C114.755 18.685 114.5 18.826 114.188 18.928C113.876 19.03 113.561 19.081 113.243 19.081ZM113.108 15.166C112.73 15.166 112.43 15.283 112.208 15.517C111.986 15.751 111.851 16.063 111.803 16.453H114.26C114.242 16.045 114.134 15.73 113.936 15.508C113.738 15.28 113.462 15.166 113.108 15.166ZM119.148 20.62V18.28C119.022 18.526 118.83 18.721 118.572 18.865C118.314 19.009 118.02 19.081 117.69 19.081C117.3 19.081 116.961 18.991 116.673 18.811C116.385 18.625 116.16 18.361 115.998 18.019C115.836 17.677 115.755 17.272 115.755 16.804C115.755 16.336 115.836 15.934 115.998 15.598C116.16 15.256 116.385 14.992 116.673 14.806C116.967 14.62 117.306 14.527 117.69 14.527C118.026 14.527 118.323 14.605 118.581 14.761C118.845 14.911 119.04 15.115 119.166 15.373V14.608H120.057V20.62H119.148ZM117.924 18.379C118.296 18.379 118.596 18.244 118.824 17.974C119.052 17.704 119.166 17.314 119.166 16.804C119.166 16.294 119.052 15.907 118.824 15.643C118.596 15.373 118.296 15.238 117.924 15.238C117.546 15.238 117.243 15.373 117.015 15.643C116.787 15.907 116.673 16.294 116.673 16.804C116.673 17.314 116.787 17.704 117.015 17.974C117.243 18.244 117.546 18.379 117.924 18.379ZM122.899 19.081C121.837 19.081 121.306 18.49 121.306 17.308V14.608H122.215V17.317C122.215 17.671 122.287 17.932 122.431 18.1C122.575 18.268 122.803 18.352 123.115 18.352C123.457 18.352 123.733 18.238 123.943 18.01C124.159 17.782 124.267 17.476 124.267 17.092V14.608H125.176V19H124.294V18.298C124.15 18.556 123.958 18.751 123.718 18.883C123.478 19.015 123.205 19.081 122.899 19.081ZM126.376 13.591V12.646H127.438V13.591H126.376ZM126.457 19V14.608H127.366V19H126.457ZM128.646 19V14.608H129.528V15.391C129.756 14.869 130.23 14.578 130.95 14.518L131.247 14.5L131.31 15.274L130.761 15.328C129.963 15.406 129.564 15.817 129.564 16.561V19H128.646ZM134.003 19.081C133.283 19.081 132.716 18.88 132.302 18.478C131.888 18.07 131.681 17.515 131.681 16.813C131.681 16.363 131.771 15.967 131.951 15.625C132.137 15.277 132.392 15.007 132.716 14.815C133.04 14.623 133.412 14.527 133.832 14.527C134.438 14.527 134.915 14.722 135.263 15.112C135.611 15.496 135.785 16.027 135.785 16.705V17.011H132.563C132.629 17.923 133.112 18.379 134.012 18.379C134.264 18.379 134.51 18.34 134.75 18.262C134.996 18.184 135.227 18.055 135.443 17.875L135.713 18.505C135.515 18.685 135.26 18.826 134.948 18.928C134.636 19.03 134.321 19.081 134.003 19.081ZM133.868 15.166C133.49 15.166 133.19 15.283 132.968 15.517C132.746 15.751 132.611 16.063 132.563 16.453H135.02C135.002 16.045 134.894 15.73 134.696 15.508C134.498 15.28 134.222 15.166 133.868 15.166ZM138.45 19.081C138.066 19.081 137.727 18.991 137.433 18.811C137.145 18.625 136.92 18.361 136.758 18.019C136.596 17.677 136.515 17.272 136.515 16.804C136.515 16.336 136.596 15.934 136.758 15.598C136.92 15.256 137.145 14.992 137.433 14.806C137.721 14.62 138.06 14.527 138.45 14.527C138.78 14.527 139.074 14.599 139.332 14.743C139.59 14.887 139.782 15.082 139.908 15.328V12.655H140.817V19H139.926V18.235C139.8 18.499 139.605 18.706 139.341 18.856C139.083 19.006 138.786 19.081 138.45 19.081ZM138.684 18.379C139.056 18.379 139.356 18.244 139.584 17.974C139.812 17.704 139.926 17.314 139.926 16.804C139.926 16.294 139.812 15.907 139.584 15.643C139.356 15.373 139.056 15.238 138.684 15.238C138.306 15.238 138.003 15.373 137.775 15.643C137.547 15.907 137.433 16.294 137.433 16.804C137.433 17.314 137.547 17.704 137.775 17.974C138.003 18.244 138.306 18.379 138.684 18.379Z" fill="#130F26" fill-opacity="0.66"/>
<path d="M17.941 61V59.875H15.493C17.05 58.741 17.896 57.85 17.896 56.824C17.896 55.627 16.879 54.907 15.601 54.907C14.764 54.907 13.873 55.213 13.288 55.888L14.017 56.734C14.422 56.311 14.944 56.041 15.628 56.041C16.123 56.041 16.6 56.302 16.6 56.824C16.6 57.562 15.88 58.183 13.423 60.001V61H17.941ZM20.9435 61.108C22.3835 61.108 23.3105 60.379 23.3105 59.344C23.3105 58.444 22.5185 57.967 21.9065 57.904C22.5725 57.787 23.2205 57.292 23.2205 56.536C23.2205 55.537 22.3565 54.907 20.9525 54.907C19.8995 54.907 19.1435 55.312 18.6575 55.861L19.2965 56.662C19.7195 56.257 20.2415 56.041 20.8175 56.041C21.4475 56.041 21.9335 56.275 21.9335 56.752C21.9335 57.193 21.4925 57.391 20.8265 57.391C20.6015 57.391 20.1875 57.391 20.0795 57.382V58.534C20.1695 58.525 20.5745 58.516 20.8265 58.516C21.6635 58.516 22.0325 58.732 22.0325 59.209C22.0325 59.659 21.6275 59.974 20.8985 59.974C20.3135 59.974 19.6565 59.722 19.2425 59.29L18.5765 60.145C19.0175 60.685 19.8365 61.108 20.9435 61.108ZM29.4194 61.108C29.9414 61.108 30.4184 61 30.8414 60.811L31.3274 61.369L32.2184 60.64L31.7774 60.127C32.2724 59.587 32.5604 58.849 32.5604 58.003C32.5604 56.194 31.2374 54.898 29.4194 54.898C27.6104 54.898 26.2874 56.194 26.2874 58.003C26.2874 59.812 27.6104 61.108 29.4194 61.108ZM29.4194 59.974C28.3124 59.974 27.6014 59.119 27.6014 58.003C27.6014 56.878 28.3124 56.032 29.4194 56.032C30.5264 56.032 31.2464 56.878 31.2464 58.003C31.2464 58.435 31.1384 58.831 30.9404 59.155L30.2744 58.372L29.3924 59.101L30.0494 59.875C29.8514 59.938 29.6444 59.974 29.4194 59.974ZM37.5073 61V56.653H36.3643V59.596C36.1663 59.848 35.8153 60.091 35.3743 60.091C34.8883 60.091 34.5733 59.893 34.5733 59.29V56.653H33.4303V59.74C33.4303 60.586 33.8803 61.108 34.8343 61.108C35.5453 61.108 36.0673 60.784 36.3643 60.451V61H37.5073ZM42.3952 61V58.192C42.3952 56.941 41.4862 56.545 40.4962 56.545C39.8122 56.545 39.1282 56.761 38.5972 57.229L39.0292 57.994C39.3982 57.652 39.8302 57.481 40.2982 57.481C40.8742 57.481 41.2522 57.769 41.2522 58.21V58.795C40.9642 58.453 40.4512 58.264 39.8752 58.264C39.1822 58.264 38.3632 58.651 38.3632 59.668C38.3632 60.64 39.1822 61.108 39.8752 61.108C40.4422 61.108 40.9552 60.901 41.2522 60.55V61H42.3952ZM40.3342 60.334C39.8842 60.334 39.5152 60.1 39.5152 59.695C39.5152 59.272 39.8842 59.038 40.3342 59.038C40.7032 59.038 41.0632 59.164 41.2522 59.416V59.956C41.0632 60.208 40.7032 60.334 40.3342 60.334ZM44.6719 61V54.997H43.5289V61H44.6719ZM46.3723 56.185C46.7503 56.185 47.0563 55.879 47.0563 55.501C47.0563 55.123 46.7503 54.826 46.3723 54.826C46.0033 54.826 45.6883 55.123 45.6883 55.501C45.6883 55.879 46.0033 56.185 46.3723 56.185ZM46.9483 61V56.653H45.8053V61H46.9483ZM49.4856 61V57.652H50.3676V56.653H49.4856V56.419C49.4856 56.023 49.7016 55.807 50.0256 55.807C50.1786 55.807 50.3046 55.852 50.3946 55.915L50.6286 55.087C50.4216 54.979 50.1246 54.907 49.8006 54.907C48.9456 54.907 48.3336 55.474 48.3336 56.419V56.653H47.6136V57.652H48.3336V61H49.4856ZM51.5916 56.185C51.9696 56.185 52.2756 55.879 52.2756 55.501C52.2756 55.123 51.9696 54.826 51.5916 54.826C51.2226 54.826 50.9076 55.123 50.9076 55.501C50.9076 55.879 51.2226 56.185 51.5916 56.185ZM52.1676 61V56.653H51.0246V61H52.1676ZM55.3454 61.108C56.0204 61.108 56.7044 60.901 57.1364 60.505L56.6324 59.767C56.3534 60.037 55.8404 60.199 55.4714 60.199C54.7334 60.199 54.2924 59.74 54.2204 59.191H57.4514V58.939C57.4514 57.517 56.5694 56.545 55.2734 56.545C53.9504 56.545 53.0234 57.562 53.0234 58.822C53.0234 60.217 54.0224 61.108 55.3454 61.108ZM56.3444 58.417H54.2024C54.2564 57.985 54.5624 57.454 55.2734 57.454C56.0294 57.454 56.3174 58.003 56.3444 58.417ZM62.417 61V54.997H61.265V57.211C60.923 56.77 60.437 56.545 59.924 56.545C58.817 56.545 57.998 57.409 57.998 58.831C57.998 60.28 58.826 61.108 59.924 61.108C60.446 61.108 60.923 60.874 61.265 60.442V61H62.417ZM60.275 60.091C59.627 60.091 59.177 59.578 59.177 58.831C59.177 58.075 59.627 57.562 60.275 57.562C60.662 57.562 61.076 57.769 61.265 58.057V59.596C61.076 59.884 60.662 60.091 60.275 60.091Z" fill="#FF4509"/>
<path d="M71.4781 61L69.1651 54.997H67.5631L65.2411 61H66.6991L67.0771 59.983H69.6511L70.0201 61H71.4781ZM69.3001 58.858H67.4281L68.3641 56.275L69.3001 58.858ZM73.7875 62.764C74.8585 62.764 76.1365 62.359 76.1365 60.703V56.653H74.9845V57.211C74.6335 56.77 74.1655 56.545 73.6435 56.545C72.5455 56.545 71.7265 57.337 71.7265 58.759C71.7265 60.208 72.5545 60.973 73.6435 60.973C74.1745 60.973 74.6425 60.721 74.9845 60.289V60.73C74.9845 61.585 74.3365 61.828 73.7875 61.828C73.2385 61.828 72.7795 61.675 72.4285 61.288L71.9155 62.116C72.4645 62.593 73.0405 62.764 73.7875 62.764ZM74.0035 59.956C73.3555 59.956 72.9055 59.506 72.9055 58.759C72.9055 58.012 73.3555 57.562 74.0035 57.562C74.3815 57.562 74.7955 57.769 74.9845 58.057V59.461C74.7955 59.74 74.3815 59.956 74.0035 59.956ZM79.3131 61.108C79.9881 61.108 80.6721 60.901 81.1041 60.505L80.6001 59.767C80.3211 60.037 79.8081 60.199 79.4391 60.199C78.7011 60.199 78.2601 59.74 78.1881 59.191H81.4191V58.939C81.4191 57.517 80.5371 56.545 79.2411 56.545C77.9181 56.545 76.9911 57.562 76.9911 58.822C76.9911 60.217 77.9901 61.108 79.3131 61.108ZM80.3121 58.417H78.1701C78.2241 57.985 78.5301 57.454 79.2411 57.454C79.9971 57.454 80.2851 58.003 80.3121 58.417ZM86.3217 61V57.931C86.3217 57.085 85.8627 56.545 84.9087 56.545C84.1977 56.545 83.6667 56.887 83.3877 57.22V56.653H82.2447V61H83.3877V58.075C83.5767 57.814 83.9277 57.562 84.3777 57.562C84.8637 57.562 85.1787 57.769 85.1787 58.372V61H86.3217ZM89.4816 61.108C90.3726 61.108 90.9126 60.721 91.2006 60.316L90.4536 59.623C90.2466 59.911 89.9316 60.091 89.5356 60.091C88.8426 60.091 88.3566 59.578 88.3566 58.822C88.3566 58.066 88.8426 57.562 89.5356 57.562C89.9316 57.562 90.2466 57.724 90.4536 58.03L91.2006 57.328C90.9126 56.932 90.3726 56.545 89.4816 56.545C88.1406 56.545 87.1776 57.49 87.1776 58.822C87.1776 60.163 88.1406 61.108 89.4816 61.108ZM92.5149 56.185C92.8929 56.185 93.1989 55.879 93.1989 55.501C93.1989 55.123 92.8929 54.826 92.5149 54.826C92.1459 54.826 91.8309 55.123 91.8309 55.501C91.8309 55.879 92.1459 56.185 92.5149 56.185ZM93.0909 61V56.653H91.9479V61H93.0909ZM96.2672 61.108C96.9422 61.108 97.6262 60.901 98.0582 60.505L97.5542 59.767C97.2752 60.037 96.7622 60.199 96.3932 60.199C95.6552 60.199 95.2142 59.74 95.1422 59.191H98.3732V58.939C98.3732 57.517 97.4912 56.545 96.1952 56.545C94.8722 56.545 93.9452 57.562 93.9452 58.822C93.9452 60.217 94.9442 61.108 96.2672 61.108ZM97.2662 58.417H95.1242C95.1782 57.985 95.4842 57.454 96.1952 57.454C96.9512 57.454 97.2392 58.003 97.2662 58.417ZM100.765 61.108C101.971 61.108 102.646 60.505 102.646 59.713C102.646 57.958 100.072 58.498 100.072 57.85C100.072 57.607 100.342 57.418 100.756 57.418C101.287 57.418 101.782 57.643 102.043 57.922L102.502 57.139C102.07 56.797 101.485 56.545 100.747 56.545C99.6038 56.545 98.9648 57.184 98.9648 57.913C98.9648 59.623 101.548 59.038 101.548 59.758C101.548 60.028 101.314 60.226 100.819 60.226C100.279 60.226 99.6308 59.929 99.3158 59.632L98.8208 60.433C99.2798 60.856 100.009 61.108 100.765 61.108ZM107.357 61.108C108.563 61.108 109.238 60.505 109.238 59.713C109.238 57.958 106.664 58.498 106.664 57.85C106.664 57.607 106.934 57.418 107.348 57.418C107.879 57.418 108.374 57.643 108.635 57.922L109.094 57.139C108.662 56.797 108.077 56.545 107.339 56.545C106.196 56.545 105.557 57.184 105.557 57.913C105.557 59.623 108.14 59.038 108.14 59.758C108.14 60.028 107.906 60.226 107.411 60.226C106.871 60.226 106.223 59.929 105.908 59.632L105.413 60.433C105.872 60.856 106.601 61.108 107.357 61.108ZM114.166 61V57.913C114.166 57.067 113.707 56.545 112.753 56.545C112.042 56.545 111.502 56.887 111.223 57.22V54.997H110.08V61H111.223V58.075C111.421 57.814 111.772 57.562 112.213 57.562C112.708 57.562 113.023 57.751 113.023 58.354V61H114.166ZM117.316 61.108C118.756 61.108 119.62 60.064 119.62 58.822C119.62 57.589 118.756 56.545 117.316 56.545C115.885 56.545 115.021 57.589 115.021 58.822C115.021 60.064 115.885 61.108 117.316 61.108ZM117.316 60.091C116.605 60.091 116.209 59.506 116.209 58.822C116.209 58.147 116.605 57.562 117.316 57.562C118.027 57.562 118.432 58.147 118.432 58.822C118.432 59.506 118.027 60.091 117.316 60.091ZM125.499 61L126.822 56.653H125.634L124.824 59.578L123.87 56.653H122.853L121.899 59.578L121.089 56.653H119.901L121.224 61H122.448L123.366 58.039L124.284 61H125.499ZM129.428 61.108C130.103 61.108 130.787 60.901 131.219 60.505L130.715 59.767C130.436 60.037 129.923 60.199 129.554 60.199C128.816 60.199 128.375 59.74 128.303 59.191H131.534V58.939C131.534 57.517 130.652 56.545 129.356 56.545C128.033 56.545 127.106 57.562 127.106 58.822C127.106 60.217 128.105 61.108 129.428 61.108ZM130.427 58.417H128.285C128.339 57.985 128.645 57.454 129.356 57.454C130.112 57.454 130.4 58.003 130.427 58.417ZM136.5 61V54.997H135.348V57.211C135.006 56.77 134.52 56.545 134.007 56.545C132.9 56.545 132.081 57.409 132.081 58.831C132.081 60.28 132.909 61.108 134.007 61.108C134.529 61.108 135.006 60.874 135.348 60.442V61H136.5ZM134.358 60.091C133.71 60.091 133.26 59.578 133.26 58.831C133.26 58.075 133.71 57.562 134.358 57.562C134.745 57.562 135.159 57.769 135.348 58.057V59.596C135.159 59.884 134.745 60.091 134.358 60.091ZM141.241 61V54.997H139.963V61H141.241ZM146.483 61V57.931C146.483 57.085 146.024 56.545 145.07 56.545C144.359 56.545 143.828 56.887 143.549 57.22V56.653H142.406V61H143.549V58.075C143.738 57.814 144.089 57.562 144.539 57.562C145.025 57.562 145.34 57.769 145.34 58.372V61H146.483ZM149.076 61.108C149.553 61.108 149.859 60.982 150.03 60.829L149.787 59.965C149.724 60.028 149.562 60.091 149.391 60.091C149.139 60.091 148.995 59.884 148.995 59.614V57.652H149.877V56.653H148.995V55.465H147.843V56.653H147.123V57.652H147.843V59.92C147.843 60.694 148.275 61.108 149.076 61.108ZM152.702 61.108C153.377 61.108 154.061 60.901 154.493 60.505L153.989 59.767C153.71 60.037 153.197 60.199 152.828 60.199C152.09 60.199 151.649 59.74 151.577 59.191H154.808V58.939C154.808 57.517 153.926 56.545 152.63 56.545C151.307 56.545 150.38 57.562 150.38 58.822C150.38 60.217 151.379 61.108 152.702 61.108ZM153.701 58.417H151.559C151.613 57.985 151.919 57.454 152.63 57.454C153.386 57.454 153.674 58.003 153.701 58.417ZM156.776 61V58.129C156.965 57.85 157.469 57.634 157.847 57.634C157.973 57.634 158.081 57.643 158.162 57.661V56.545C157.622 56.545 157.082 56.86 156.776 57.247V56.653H155.633V61H156.776ZM160.92 61.108C161.595 61.108 162.279 60.901 162.711 60.505L162.207 59.767C161.928 60.037 161.415 60.199 161.046 60.199C160.308 60.199 159.867 59.74 159.795 59.191H163.026V58.939C163.026 57.517 162.144 56.545 160.848 56.545C159.525 56.545 158.598 57.562 158.598 58.822C158.598 60.217 159.597 61.108 160.92 61.108ZM161.919 58.417H159.777C159.831 57.985 160.137 57.454 160.848 57.454C161.604 57.454 161.892 58.003 161.919 58.417ZM165.417 61.108C166.623 61.108 167.298 60.505 167.298 59.713C167.298 57.958 164.724 58.498 164.724 57.85C164.724 57.607 164.994 57.418 165.408 57.418C165.939 57.418 166.434 57.643 166.695 57.922L167.154 57.139C166.722 56.797 166.137 56.545 165.399 56.545C164.256 56.545 163.617 57.184 163.617 57.913C163.617 59.623 166.2 59.038 166.2 59.758C166.2 60.028 165.966 60.226 165.471 60.226C164.931 60.226 164.283 59.929 163.968 59.632L163.473 60.433C163.932 60.856 164.661 61.108 165.417 61.108ZM169.598 61.108C170.075 61.108 170.381 60.982 170.552 60.829L170.309 59.965C170.246 60.028 170.084 60.091 169.913 60.091C169.661 60.091 169.517 59.884 169.517 59.614V57.652H170.399V56.653H169.517V55.465H168.365V56.653H167.645V57.652H168.365V59.92C168.365 60.694 168.797 61.108 169.598 61.108Z" fill="#130F26" fill-opacity="0.66"/>
<path d="M36.1206 97.9996L33.1806 89.5396H33.9486L36.4806 96.9076L39.0366 89.5396H39.6606L42.2166 96.9556L44.7726 89.5396H45.5166L42.5766 97.9996H41.8806L39.3486 90.6556L36.7926 97.9996H36.1206ZM48.1006 97.9996L45.9886 92.1796H46.7686L48.4846 97.1356L50.2726 92.1796H50.9926L52.7446 97.1476L54.4966 92.1796H55.2526L53.1286 97.9996H52.3726L50.6206 93.1276L48.8566 97.9996H48.1006ZM58.267 98.0956C57.875 98.0956 57.523 98.0196 57.211 97.8676C56.907 97.7156 56.663 97.5076 56.479 97.2436C56.303 96.9796 56.215 96.6836 56.215 96.3556C56.215 95.9236 56.323 95.5876 56.539 95.3476C56.755 95.0996 57.119 94.9236 57.631 94.8196C58.143 94.7156 58.847 94.6636 59.743 94.6636H60.115V94.2316C60.115 93.6956 60.007 93.3076 59.791 93.0676C59.575 92.8196 59.231 92.6956 58.759 92.6956C58.407 92.6956 58.067 92.7476 57.739 92.8516C57.419 92.9556 57.087 93.1196 56.743 93.3436L56.455 92.7796C56.759 92.5636 57.119 92.3916 57.535 92.2636C57.951 92.1356 58.355 92.0716 58.747 92.0716C59.451 92.0716 59.971 92.2516 60.307 92.6116C60.651 92.9716 60.823 93.5236 60.823 94.2676V97.9996H60.127V96.9556C59.967 97.3156 59.723 97.5956 59.395 97.7956C59.075 97.9956 58.699 98.0956 58.267 98.0956ZM58.363 97.5076C58.707 97.5076 59.007 97.4276 59.263 97.2676C59.527 97.0996 59.735 96.8716 59.887 96.5836C60.039 96.2956 60.115 95.9676 60.115 95.5996V95.2036H59.755C59.035 95.2036 58.471 95.2356 58.063 95.2996C57.663 95.3636 57.383 95.4756 57.223 95.6356C57.063 95.7956 56.983 96.0156 56.983 96.2956C56.983 96.6556 57.107 96.9476 57.355 97.1716C57.603 97.3956 57.939 97.5076 58.363 97.5076ZM64.4285 98.0956C63.8845 98.0956 63.4645 97.9316 63.1685 97.6036C62.8805 97.2676 62.7365 96.7876 62.7365 96.1636V89.5396H63.4685V96.0796C63.4685 96.9996 63.8285 97.4596 64.5485 97.4596C64.7485 97.4596 64.9325 97.4356 65.1005 97.3876L65.0765 98.0236C64.8445 98.0716 64.6285 98.0956 64.4285 98.0956ZM67.8504 98.0956C67.3064 98.0956 66.8864 97.9316 66.5904 97.6036C66.3024 97.2676 66.1584 96.7876 66.1584 96.1636V89.5396H66.8904V96.0796C66.8904 96.9996 67.2504 97.4596 67.9704 97.4596C68.1704 97.4596 68.3544 97.4356 68.5224 97.3876L68.4984 98.0236C68.2664 98.0716 68.0504 98.0956 67.8504 98.0956ZM70.1953 100.16L71.1553 97.9756L68.6833 92.1796H69.4993L71.5513 97.1956L73.6273 92.1796H74.4193L70.9873 100.16H70.1953Z" fill="#130F26"/>
<path d="M18.1855 84.1718H19.4387L24.2926 92.5775L24.9191 93.6644L25.5468 94.7502L28.2159 99.3736L37.6206 83.0858H32.2812L32.9078 82H39.5002L28.2148 101.545L24.9188 95.8354L24.2923 94.7496L23.6646 93.6627L18.1855 84.1718Z" fill="black" fill-opacity="0.25"/>
<path d="M12.2197 83.0857H31.0279L30.4013 84.1715L25.5474 92.5782L24.9197 91.4913L29.1457 84.1715H14.1014L21.6235 97.2017L23.6661 93.6629L24.2937 94.7498L21.6235 99.3732L12.2197 83.0857Z" fill="#130F26" style="mix-blend-mode:multiply"/>
<path d="M221.649 96.3927C221.493 96.2374 221.479 95.9943 221.606 95.823L221.649 95.774L225.422 92L221.649 88.226C221.493 88.0707 221.479 87.8276 221.606 87.6564L221.649 87.6073C221.804 87.452 222.047 87.4378 222.218 87.5649L222.267 87.6073L226.351 91.6906C226.506 91.8459 226.52 92.089 226.393 92.2603L226.351 92.3093L222.267 96.3927C222.097 96.5635 221.82 96.5635 221.649 96.3927Z" fill="black"/>
<path d="M39.0802 125V117.95H41.3502C42.4702 117.95 43.3335 118.25 43.9402 118.85C44.5535 119.45 44.8602 120.323 44.8602 121.47C44.8602 122.617 44.5535 123.493 43.9402 124.1C43.3335 124.7 42.4702 125 41.3502 125H39.0802ZM39.6902 124.46H41.3002C43.2335 124.46 44.2002 123.463 44.2002 121.47C44.2002 119.483 43.2335 118.49 41.3002 118.49H39.6902V124.46ZM46.1941 118.87V118.1H47.0141V118.87H46.1941ZM46.2941 125V120.15H46.9041V125H46.2941ZM50.6209 126.88C49.7743 126.88 49.0709 126.657 48.5109 126.21L48.7409 125.75C49.0476 125.97 49.3443 126.127 49.6309 126.22C49.9176 126.32 50.2409 126.37 50.6009 126.37C51.0876 126.37 51.4576 126.237 51.7109 125.97C51.9643 125.703 52.0909 125.317 52.0909 124.81V123.87C51.9509 124.19 51.7276 124.44 51.4209 124.62C51.1209 124.8 50.7776 124.89 50.3909 124.89C49.9376 124.89 49.5476 124.79 49.2209 124.59C48.9009 124.383 48.6509 124.1 48.4709 123.74C48.2976 123.373 48.2109 122.95 48.2109 122.47C48.2109 121.99 48.2976 121.57 48.4709 121.21C48.6509 120.85 48.9009 120.57 49.2209 120.37C49.5476 120.163 49.9376 120.06 50.3909 120.06C50.7776 120.06 51.1209 120.15 51.4209 120.33C51.7209 120.51 51.9409 120.757 52.0809 121.07V120.15H52.6809V124.72C52.6809 126.16 51.9943 126.88 50.6209 126.88ZM50.4609 124.37C50.9609 124.37 51.3576 124.2 51.6509 123.86C51.9443 123.513 52.0909 123.05 52.0909 122.47C52.0909 121.89 51.9443 121.43 51.6509 121.09C51.3576 120.75 50.9609 120.58 50.4609 120.58C49.9543 120.58 49.5543 120.75 49.2609 121.09C48.9743 121.43 48.8309 121.89 48.8309 122.47C48.8309 123.05 48.9743 123.513 49.2609 123.86C49.5543 124.2 49.9543 124.37 50.4609 124.37ZM54.1922 118.87V118.1H55.0122V118.87H54.1922ZM54.2922 125V120.15H54.9022V125H54.2922ZM58.369 125V118.5H55.739V117.95H61.619V118.5H58.989V125H58.369ZM61.6848 125V120.15H62.2848V121.03C62.4248 120.723 62.6281 120.49 62.8948 120.33C63.1614 120.17 63.5014 120.077 63.9148 120.05L64.1648 120.03L64.2248 120.56L63.7948 120.61C63.3214 120.65 62.9548 120.807 62.6948 121.08C62.4348 121.347 62.3048 121.707 62.3048 122.16V125H61.6848ZM66.5539 125.08C66.2272 125.08 65.9339 125.017 65.6739 124.89C65.4206 124.763 65.2172 124.59 65.0639 124.37C64.9172 124.15 64.8439 123.903 64.8439 123.63C64.8439 123.27 64.9339 122.99 65.1139 122.79C65.2939 122.583 65.5972 122.437 66.0239 122.35C66.4506 122.263 67.0372 122.22 67.7839 122.22H68.0939V121.86C68.0939 121.413 68.0039 121.09 67.8239 120.89C67.6439 120.683 67.3572 120.58 66.9639 120.58C66.6706 120.58 66.3872 120.623 66.1139 120.71C65.8472 120.797 65.5706 120.933 65.2839 121.12L65.0439 120.65C65.2972 120.47 65.5972 120.327 65.9439 120.22C66.2906 120.113 66.6272 120.06 66.9539 120.06C67.5406 120.06 67.9739 120.21 68.2539 120.51C68.5406 120.81 68.6839 121.27 68.6839 121.89V125H68.1039V124.13C67.9706 124.43 67.7672 124.663 67.4939 124.83C67.2272 124.997 66.9139 125.08 66.5539 125.08ZM66.6339 124.59C66.9206 124.59 67.1706 124.523 67.3839 124.39C67.6039 124.25 67.7772 124.06 67.9039 123.82C68.0306 123.58 68.0939 123.307 68.0939 123V122.67H67.7939C67.1939 122.67 66.7239 122.697 66.3839 122.75C66.0506 122.803 65.8172 122.897 65.6839 123.03C65.5506 123.163 65.4839 123.347 65.4839 123.58C65.4839 123.88 65.5872 124.123 65.7939 124.31C66.0006 124.497 66.2806 124.59 66.6339 124.59ZM70.2785 125V120.15H70.8785V121.02C71.0385 120.7 71.2685 120.46 71.5685 120.3C71.8685 120.14 72.2018 120.06 72.5685 120.06C73.7218 120.06 74.2985 120.687 74.2985 121.94V125H73.6885V121.99C73.6885 121.51 73.5918 121.157 73.3985 120.93C73.2052 120.703 72.8985 120.59 72.4785 120.59C71.9985 120.59 71.6118 120.74 71.3185 121.04C71.0318 121.333 70.8885 121.73 70.8885 122.23V125H70.2785ZM77.8542 125.08C77.3809 125.08 76.9742 124.977 76.6342 124.77C76.2942 124.557 76.0309 124.26 75.8442 123.88C75.6642 123.493 75.5742 123.047 75.5742 122.54C75.5742 121.773 75.7742 121.17 76.1742 120.73C76.5809 120.283 77.1409 120.06 77.8542 120.06C78.1476 120.06 78.4376 120.117 78.7242 120.23C79.0109 120.343 79.2509 120.5 79.4442 120.7L79.2042 121.16C78.9976 120.96 78.7776 120.817 78.5442 120.73C78.3109 120.637 78.0876 120.59 77.8742 120.59C77.3342 120.59 76.9176 120.76 76.6242 121.1C76.3376 121.44 76.1942 121.923 76.1942 122.55C76.1942 123.177 76.3376 123.67 76.6242 124.03C76.9176 124.383 77.3342 124.56 77.8742 124.56C78.0876 124.56 78.3109 124.517 78.5442 124.43C78.7776 124.337 78.9976 124.19 79.2042 123.99L79.4442 124.45C79.2509 124.643 79.0076 124.797 78.7142 124.91C78.4276 125.023 78.1409 125.08 77.8542 125.08ZM82.4764 125.08C81.7297 125.08 81.1397 124.86 80.7064 124.42C80.2797 123.973 80.0664 123.363 80.0664 122.59C80.0664 122.09 80.1631 121.65 80.3564 121.27C80.5497 120.89 80.8164 120.593 81.1564 120.38C81.5031 120.167 81.8997 120.06 82.3464 120.06C82.9931 120.06 83.4964 120.27 83.8564 120.69C84.2164 121.11 84.3964 121.687 84.3964 122.42V122.7H80.6664C80.6864 123.3 80.8497 123.763 81.1564 124.09C81.4697 124.41 81.9031 124.57 82.4564 124.57C82.7564 124.57 83.0364 124.523 83.2964 124.43C83.5631 124.337 83.8231 124.18 84.0764 123.96L84.3164 124.42C84.1031 124.627 83.8297 124.79 83.4964 124.91C83.1631 125.023 82.8231 125.08 82.4764 125.08ZM82.3564 120.55C81.8497 120.55 81.4531 120.71 81.1664 121.03C80.8864 121.343 80.7231 121.75 80.6764 122.25H83.8464C83.8331 121.717 83.6997 121.3 83.4464 121C83.1931 120.7 82.8297 120.55 82.3564 120.55Z" fill="#130F26"/>
<g clip-path="url(#clip0_64_367)">
<path d="M20.1353 122.67H22.0219C25.7813 122.67 25.0709 123.19 25.0709 119.194V116.922C25.0716 116.577 25.2049 116.246 25.4416 116.002C25.6783 115.757 25.9992 115.62 26.3339 115.619H30.7376C31.0723 115.62 31.3932 115.757 31.6299 116.002C31.8666 116.246 31.9998 116.577 32.0005 116.922V121.466C31.9999 121.811 31.8666 122.143 31.6299 122.387C31.3932 122.631 31.0724 122.769 30.7376 122.769H28.5358C24.664 122.769 25.1715 122.039 25.1715 125.921V127.868C25.1708 128.213 25.0375 128.544 24.8008 128.788C24.5641 129.033 24.2433 129.17 23.9085 129.171H20.4184C20.0836 129.172 19.7627 129.309 19.5259 129.553C19.2892 129.798 19.1558 130.129 19.1551 130.474V134.697C19.1545 135.042 19.0212 135.374 18.7845 135.618C18.5478 135.862 18.227 136 17.8922 136H13.4888C13.154 136 12.8331 135.862 12.5964 135.618C12.3596 135.373 12.2263 135.042 12.2256 134.697V130.153C12.2263 129.808 12.3596 129.477 12.5963 129.232C12.8331 128.988 13.154 128.851 13.4888 128.85H17.6092C17.944 128.849 18.2649 128.712 18.5016 128.467C18.7383 128.223 18.8716 127.892 18.8724 127.547V123.974C18.8729 123.629 19.0062 123.297 19.2429 123.053C19.4796 122.809 19.8005 122.671 20.1353 122.671V122.67Z" fill="#00AEDE"/>
<path d="M13.2632 115.052H15.1497C18.9089 115.052 18.1988 115.572 18.1988 111.576V109.304C18.1994 108.958 18.3327 108.627 18.5695 108.383C18.8062 108.138 19.1271 108.001 19.4619 108H23.8652C24.2 108.001 24.5209 108.138 24.7576 108.383C24.9944 108.627 25.1277 108.958 25.1283 109.304V113.847C25.1276 114.193 24.9943 114.524 24.7576 114.768C24.5209 115.013 24.2 115.15 23.8652 115.151H21.6635C17.7918 115.151 18.2995 114.42 18.2995 118.302V120.249C18.2988 120.595 18.1654 120.926 17.9287 121.17C17.692 121.414 17.3711 121.552 17.0363 121.552H13.263C12.9282 121.552 12.6074 121.414 12.3706 121.17C12.1339 120.926 12.0007 120.595 12 120.249V116.355C12.0007 116.01 12.1339 115.679 12.3706 115.434C12.6073 115.19 12.9282 115.052 13.263 115.052H13.2632Z" fill="#00AEDE"/>
</g>
<path d="M220.649 126.393C220.493 126.237 220.479 125.994 220.606 125.823L220.649 125.774L224.422 122L220.649 118.226C220.493 118.071 220.479 117.828 220.606 117.656L220.649 117.607C220.804 117.452 221.047 117.438 221.218 117.565L221.267 117.607L225.351 121.691C225.506 121.846 225.52 122.089 225.393 122.26L225.351 122.309L221.267 126.393C221.097 126.564 220.82 126.564 220.649 126.393Z" fill="black"/>
<path d="M220.649 159.393C220.493 159.237 220.479 158.994 220.606 158.823L220.649 158.774L224.422 155L220.649 151.226C220.493 151.071 220.479 150.828 220.606 150.656L220.649 150.607C220.804 150.452 221.047 150.438 221.218 150.565L221.267 150.607L225.351 154.691C225.506 154.846 225.52 155.089 225.393 155.26L225.351 155.309L221.267 159.393C221.097 159.564 220.82 159.564 220.649 159.393Z" fill="black"/>
<path d="M40.0011 158V150.95H42.6611C43.4144 150.95 43.9877 151.13 44.3811 151.49C44.7811 151.85 44.9811 152.363 44.9811 153.03C44.9811 153.69 44.7811 154.203 44.3811 154.57C43.9877 154.93 43.4144 155.11 42.6611 155.11H40.6111V158H40.0011ZM40.6111 154.57H42.6111C43.7777 154.57 44.3611 154.057 44.3611 153.03C44.3611 151.997 43.7777 151.48 42.6111 151.48H40.6111V154.57ZM46.712 159.8L47.512 157.98L45.452 153.15H46.132L47.842 157.33L49.572 153.15H50.232L47.372 159.8H46.712ZM51.1799 158V153.15H51.7799V154.03C51.9199 153.723 52.1232 153.49 52.3899 153.33C52.6565 153.17 52.9965 153.077 53.4099 153.05L53.6599 153.03L53.7199 153.56L53.2899 153.61C52.8165 153.65 52.4499 153.807 52.1899 154.08C51.9299 154.347 51.7999 154.707 51.7999 155.16V158H51.1799ZM56.4693 158.08C56.0159 158.08 55.6226 157.98 55.2893 157.78C54.9559 157.573 54.6959 157.283 54.5093 156.91C54.3293 156.53 54.2393 156.083 54.2393 155.57C54.2393 155.063 54.3293 154.623 54.5093 154.25C54.6959 153.87 54.9559 153.577 55.2893 153.37C55.6226 153.163 56.0159 153.06 56.4693 153.06C56.9293 153.06 57.3259 153.163 57.6593 153.37C57.9926 153.577 58.2493 153.87 58.4293 154.25C58.6159 154.623 58.7093 155.063 58.7093 155.57C58.7093 156.083 58.6159 156.53 58.4293 156.91C58.2493 157.283 57.9926 157.573 57.6593 157.78C57.3259 157.98 56.9293 158.08 56.4693 158.08ZM56.4693 157.57C56.9626 157.57 57.3559 157.397 57.6493 157.05C57.9426 156.697 58.0893 156.203 58.0893 155.57C58.0893 154.937 57.9426 154.447 57.6493 154.1C57.3559 153.753 56.9626 153.58 56.4693 153.58C55.9759 153.58 55.5826 153.753 55.2893 154.1C55.0026 154.447 54.8593 154.937 54.8593 155.57C54.8593 156.203 55.0026 156.697 55.2893 157.05C55.5826 157.397 55.9759 157.57 56.4693 157.57ZM61.7892 158.08C61.2492 158.08 60.8425 157.933 60.5692 157.64C60.3025 157.347 60.1692 156.927 60.1692 156.38V153.64H59.2092V153.15H60.1692V151.65H60.7792V153.15H62.3492V153.64H60.7792V156.3C60.7792 156.707 60.8625 157.017 61.0292 157.23C61.1958 157.443 61.4725 157.55 61.8592 157.55C61.9725 157.55 62.0825 157.537 62.1892 157.51C62.2958 157.483 62.3892 157.453 62.4692 157.42L62.5892 157.9C62.5158 157.947 62.3992 157.987 62.2392 158.02C62.0792 158.06 61.9292 158.08 61.7892 158.08ZM65.37 158.08C64.6233 158.08 64.0333 157.86 63.6 157.42C63.1733 156.973 62.96 156.363 62.96 155.59C62.96 155.09 63.0566 154.65 63.25 154.27C63.4433 153.89 63.71 153.593 64.05 153.38C64.3966 153.167 64.7933 153.06 65.24 153.06C65.8866 153.06 66.39 153.27 66.75 153.69C67.11 154.11 67.29 154.687 67.29 155.42V155.7H63.56C63.58 156.3 63.7433 156.763 64.05 157.09C64.3633 157.41 64.7966 157.57 65.35 157.57C65.65 157.57 65.93 157.523 66.19 157.43C66.4566 157.337 66.7166 157.18 66.97 156.96L67.21 157.42C66.9966 157.627 66.7233 157.79 66.39 157.91C66.0566 158.023 65.7166 158.08 65.37 158.08ZM65.25 153.55C64.7433 153.55 64.3466 153.71 64.06 154.03C63.78 154.343 63.6166 154.75 63.57 155.25H66.74C66.7266 154.717 66.5933 154.3 66.34 154C66.0866 153.7 65.7233 153.55 65.25 153.55ZM70.5134 158.08C70.0401 158.08 69.6334 157.977 69.2934 157.77C68.9534 157.557 68.6901 157.26 68.5034 156.88C68.3234 156.493 68.2334 156.047 68.2334 155.54C68.2334 154.773 68.4334 154.17 68.8334 153.73C69.2401 153.283 69.8001 153.06 70.5134 153.06C70.8067 153.06 71.0967 153.117 71.3834 153.23C71.6701 153.343 71.9101 153.5 72.1034 153.7L71.8634 154.16C71.6567 153.96 71.4367 153.817 71.2034 153.73C70.9701 153.637 70.7467 153.59 70.5334 153.59C69.9934 153.59 69.5767 153.76 69.2834 154.1C68.9967 154.44 68.8534 154.923 68.8534 155.55C68.8534 156.177 68.9967 156.67 69.2834 157.03C69.5767 157.383 69.9934 157.56 70.5334 157.56C70.7467 157.56 70.9701 157.517 71.2034 157.43C71.4367 157.337 71.6567 157.19 71.8634 156.99L72.1034 157.45C71.9101 157.643 71.6667 157.797 71.3734 157.91C71.0867 158.023 70.8001 158.08 70.5134 158.08ZM73.1232 158V150.95H73.7332V153.99C73.8999 153.683 74.1299 153.453 74.4232 153.3C74.7232 153.14 75.0532 153.06 75.4132 153.06C76.5666 153.06 77.1432 153.687 77.1432 154.94V158H76.5332V154.99C76.5332 154.51 76.4366 154.157 76.2432 153.93C76.0499 153.703 75.7432 153.59 75.3232 153.59C74.8432 153.59 74.4566 153.74 74.1632 154.04C73.8766 154.333 73.7332 154.73 73.7332 155.23V158H73.1232Z" fill="#FF4509"/>
<g clip-path="url(#clip1_64_367)">
<path d="M23.1091 146.551L20.0602 148.233L16.122 150.407V163.653L11.999 161.377V154.754V148.132L17.9991 144.82L23.1091 142V146.551Z" fill="#FEB692"/>
<path d="M35.1102 161.868L30.0001 164.689L24.0001 168L20.2461 165.928V161.377L24.0001 163.449L27.9388 161.276L30.9873 159.593L35.1102 161.868Z" fill="#FA742B"/>
<path d="M24.8896 142L29.9997 144.82L35.9997 148.132V160.395L31.877 158.119V150.407L27.9383 148.233L24.8896 146.551V142Z" fill="#FEB692"/>
<path d="M23.9995 150.618L25.8732 151.652L27.7471 152.686V156.823L25.8732 157.857L23.9995 158.891L22.1256 157.857L20.252 156.823V152.686L22.1256 151.652L23.9995 150.618Z" fill="#FA742B"/>
</g>
<line x1="7" y1="70.5" x2="234" y2="70.5" stroke="black" stroke-opacity="0.04"/>
<line x1="240" y1="88" x2="240" y2="161" stroke="black" stroke-opacity="0.06" stroke-width="2" stroke-linecap="round"/>
<circle cx="240" cy="95" r="4" fill="#FEB692"/>
<defs>
<clipPath id="clip0_64_367">
<rect width="20" height="28" fill="white" transform="translate(12 108)"/>
</clipPath>
<clipPath id="clip1_64_367">
<rect width="24" height="26" fill="white" transform="translate(12 142)"/>
</clipPath>
</defs>
</svg>
