<svg width="141" height="21" viewBox="0 0 141 21" fill="none" xmlns="http://www.w3.org/2000/svg">
<path fill-rule="evenodd" clip-rule="evenodd" d="M66.7247 5.64686C66.7247 8.4703 66.4427 17.2227 66.4427 17.2227C66.4427 18.9164 67.0068 19.669 68.607 19.669V20.4216H62.3018V19.669C63.9013 19.669 64.7482 18.9164 64.7482 17.2227L65.313 2.91769C64.8424 1.78799 64.3719 1.41169 63.1487 1.31821V0.659886H67.9479L73.03 14.0237L78.2063 0.659886H82.5349V1.31821C81.3117 1.31821 80.6534 1.88306 80.6534 3.20051L81.2183 17.0349C81.2183 19.1058 81.5946 19.6698 83.2891 19.6698V20.4224H76.0427V19.6698C77.4537 19.6698 78.1136 19.1992 78.0185 17.0349C78.0185 17.0349 77.7357 7.3414 77.6422 5.64766L74.1612 15.2469C73.6384 16.5992 73.1982 17.9821 72.843 19.3878L71.7149 19.4821C71.4321 18.4466 70.6795 16.5651 70.6795 16.5651C70.6795 16.5651 67.7594 8.37603 66.7247 5.64686ZM60.7958 20.5159C60.4195 20.4216 60.0432 20.4216 59.6661 20.4216C58.9135 20.4216 57.5953 20.7979 55.9958 20.7979C49.8783 20.7979 45.3611 17.1276 45.3611 10.3518C45.3611 4.61143 49.5963 0.188516 56.0893 0.188516C57.5945 0.188516 59.289 0.471338 60.7008 1.03539C60.9828 0.752564 61.077 0.564812 61.3591 0.282788H61.9239C61.8296 1.31821 61.4533 4.70571 61.4533 4.70571H60.8885C60.5122 2.72994 59.4768 1.41169 56.1828 1.41169C52.2304 1.41169 48.6544 4.51716 48.6544 10.2583C48.6544 16.7521 52.3247 19.5747 56.3713 19.5747C59.007 19.5747 60.6065 18.0695 61.6419 16.1872L62.301 16.4701L60.7958 20.5159ZM43.0083 4.32941H42.35C42.2557 2.54139 41.6908 1.97654 40.2791 1.97654H37.5499V16.7521C37.5499 19.1984 38.0205 19.669 39.6208 19.669V20.4216H32.5622V19.669C34.1624 19.669 34.633 19.1984 34.633 16.657V1.97654H31.9038C30.1158 1.97654 29.833 2.44711 29.3624 4.32941H28.7041L29.1747 0.0942383L29.6453 0.188516C29.833 0.65909 30.2101 0.659088 31.339 0.659088H40.4677C42.1622 0.659088 42.5385 0.659087 42.9148 0.0942383H43.4797L43.0083 4.32941Z" fill="white"/>
<path fill-rule="evenodd" clip-rule="evenodd" d="M23.0565 20.8922C21.7391 20.8922 20.7037 20.7044 19.9511 20.4216C19.1985 20.2339 18.6336 19.951 18.3516 19.7633C17.9753 20.1396 17.6925 20.6102 17.6925 20.6102L17.1276 20.4224L17.5982 15.9995L18.2573 16.0938C18.6336 18.1638 20.0453 19.6698 22.9631 19.6698C25.2217 19.6698 26.7277 17.7883 26.7277 15.7175C26.7277 14.0237 26.0685 13.1761 23.8099 11.4823C23.0573 11.0117 22.3982 10.6354 21.8334 10.1649C19.7633 8.84822 18.4451 7.34223 18.4451 4.89508C18.4451 2.07164 20.7979 0.189348 23.9034 0.189348C25.6914 0.189348 26.8211 0.754197 27.1974 0.941947L27.8558 0.189348L28.3263 0.283619L27.8558 4.33023L27.1974 4.23596C27.1974 2.35447 26.0677 1.5068 24.1854 1.5068C22.3974 1.5068 21.08 2.44794 21.08 4.23596C21.08 5.83623 22.3031 6.87085 23.7149 7.8128C24.4675 8.28337 25.0323 8.65967 25.5964 9.03597C28.8904 11.388 29.643 12.894 29.643 15.1526C29.6446 18.4458 27.1032 20.8922 23.0565 20.8922ZM12.3284 4.32944H11.5758C11.5758 2.63489 10.8232 1.97657 9.31721 1.97657H5.08204V9.41147H7.81121C9.22293 9.41147 9.50576 8.65887 9.69351 7.4349H10.3518V12.7055H9.69351C9.50576 11.2938 9.22293 10.7289 7.71694 10.7289H5.08204V17.0349C5.08204 19.387 5.64689 19.6698 7.15289 19.6698V20.4224H0V19.6698C1.78802 19.6698 2.07005 19.1992 2.07005 17.0349V3.19974C2.07005 1.88229 1.5052 1.31745 0 1.31745V0.65912H9.78698C11.4807 0.65912 11.857 0.564848 12.1399 0H12.799L12.3284 4.32944ZM113.873 5.45833V16.7513C113.873 19.1976 114.437 19.6682 115.943 19.6682V20.4208H104.839V19.6682C105.687 19.6682 106.438 19.3854 106.438 18.8213C106.438 18.4442 106.345 17.7859 106.156 17.1268L105.308 14.3976H99.0978C99.0027 14.7747 97.8746 17.8794 97.8746 18.7271C97.8746 19.4797 98.7223 19.6682 99.2856 19.6682V20.4208H94.1092V19.6682C95.0504 19.6682 95.8038 19.5739 96.4621 17.5982L101.262 2.25779C100.979 1.59947 100.604 1.41092 99.9455 1.31664V0.658322H104.181L109.261 16.7513C109.732 18.445 110.202 19.2927 110.956 19.6682C112.085 19.2919 112.368 18.9156 112.368 16.7513V3.19974C111.52 2.07004 111.425 1.31745 109.826 1.31745V0.65912H114.626L122.531 14.1164V3.85886C122.531 1.78802 122.062 1.31745 120.461 1.31745V0.65912H131.001V1.31745C130.343 1.31745 129.778 1.60027 129.778 2.25859C129.778 2.72916 129.966 3.19974 130.154 3.76459L133.166 10.2583L136.084 3.95314C136.554 3.10626 136.649 2.63569 136.649 2.16512C136.649 1.60027 136.271 1.31745 135.425 1.31745V0.65912H140.412V1.31745C139.189 1.31745 138.435 2.44714 137.872 3.76379L134.013 11.6693V16.8456C134.013 19.105 134.578 19.669 136.084 19.669V20.4216H128.931V19.669C130.437 19.669 131.002 19.105 131.002 16.8456V12.4227L126.86 3.67032C126.108 1.97657 125.825 1.60027 125.354 1.31745C124.413 1.69375 124.131 2.35287 124.131 3.85886V18.3516C124.131 18.3516 124.226 19.4813 124.319 20.7979L123.096 20.8922L113.873 5.45833ZM102.11 4.51719L99.4741 13.0818H104.932L102.11 4.51719Z" fill="white"/>
<path fill-rule="evenodd" clip-rule="evenodd" d="M90.4394 13.0818H89.0285V17.1276C89.0285 19.1985 89.5918 19.669 91.1928 19.669V20.4216H83.9464V19.669C85.4524 19.669 86.0173 19.105 86.0173 17.0341V3.76459C86.0173 1.69454 85.4524 1.31824 83.9464 1.31824V0.659912H89.4048C94.6746 0.659912 97.7793 2.25939 97.7793 6.58804C97.7801 11.1052 94.0163 13.0818 90.4394 13.0818ZM89.4983 1.97656H89.0285V11.6693H89.8746C92.9817 11.6693 94.5811 10.2576 94.5811 6.68151C94.5811 3.10546 93.1686 1.97656 89.4983 1.97656ZM57.5951 16.657C54.0191 16.657 51.5719 14.1156 51.5719 10.4461C51.5719 6.96433 54.1133 4.23516 57.5951 4.23516C60.9834 4.23516 63.524 6.87006 63.524 10.4461C63.5248 13.9279 60.8891 16.657 57.5951 16.657ZM57.5951 5.36406C55.1488 5.36406 54.3011 7.71693 54.3011 10.4461C54.3011 12.9875 55.0545 15.5281 57.5951 15.5281C60.0422 15.5281 60.7948 12.9867 60.7948 10.3518C60.7956 7.81121 59.8545 5.36406 57.5951 5.36406ZM16.1878 15.5281V14.869C17.1289 14.869 17.3175 14.587 17.3175 14.305C17.3175 13.9279 17.2232 13.6458 17.1289 13.3638C17.1289 13.3638 16.9404 12.6104 16.7526 12.0464H13.0823L12.706 13.2696C12.6125 13.5524 12.5182 13.8344 12.5182 14.2107C12.5182 14.5878 12.8945 14.869 13.4594 14.869V15.5281H9.78906V14.869C10.7302 14.869 11.1065 14.587 11.4828 13.5524L14.3063 5.08204C14.212 4.70494 13.9292 4.42291 13.3651 4.42291V3.76379H16.3755C17.4025 6.77833 18.4376 9.79007 19.481 12.799C19.9516 14.3984 20.4221 14.869 21.1747 14.869V15.5281H16.1878ZM14.8695 6.39949L13.4578 11.011H16.3755L14.8695 6.39949Z" fill="white"/>
</svg>
