<svg width="139" height="21" viewBox="0 0 139 21" fill="none" xmlns="http://www.w3.org/2000/svg">
<g clip-path="url(#clip0_62_155)">
<path d="M29.1517 1.95769C28.5579 2.3825 27.9225 3.05135 27.5569 3.58643C27.1405 3.064 26.4309 2.43853 25.8896 2.06795C26.4237 1.65038 27.2347 0.820656 27.5569 0.365116C27.8791 0.81704 28.6647 1.5835 29.1517 1.95769Z" fill="white"/>
<path d="M38.8163 6.15155C38.7294 7.25424 37.884 8.36597 36.7074 8.36597C35.6104 8.36597 34.9334 7.92128 34.5623 7.14035L34.4157 7.23074V14.6477C35.042 14.9821 36.0195 15.5696 36.5608 15.9294L37.7338 14.7218L37.9166 14.8827L35.1108 17.7949C33.8671 16.8965 32.1511 15.8571 31.0957 15.36V15.3039C31.5917 14.9966 31.7745 14.5158 31.7745 13.3462V8.27379C33.6988 7.52541 35.2212 6.46066 36.3037 5.50981C36.5155 5.8587 37.0025 6.29617 37.6234 6.29617C38.1393 6.29617 38.543 6.18048 38.7439 6.03948L38.8163 6.15155Z" fill="white"/>
<path d="M30.8394 15.3798L28.4933 17.813C27.8851 17.2978 26.7935 16.5838 25.8721 16.074V16.0161C26.2197 15.8715 26.4568 15.3039 26.4568 14.5899V7.90863L25.615 7.32294L24.9362 8.01709L24.7715 7.8544L27.0632 5.45739C27.6099 5.90751 28.7196 6.65409 29.6482 7.15844V7.1946C29.2717 7.42056 29.0979 8.14725 29.0979 8.98783V15.3798L29.9777 15.9294L30.6565 15.2117L30.8394 15.3798Z" fill="white"/>
<path d="M25.4498 15.4124L23.12 17.813C22.6439 17.4442 21.6881 16.8007 21.0491 16.459V8.40214C20.5441 8.17256 19.8544 7.67002 19.5647 7.39525L18.7393 8.25571V15.36L19.8942 16.0161V16.074L18.189 17.813C17.5409 17.2634 16.4222 16.5458 15.5479 16.0939V16.0559C15.8592 15.7631 16.0801 15.2479 16.0801 14.2627V2.17643C16.0801 1.26174 15.9153 0.986965 15.7325 0.676041L15.8592 0.621813C16.2629 0.970697 16.5145 1.26535 16.6123 1.88358H16.6503C17.2404 0.900194 17.9736 0.254848 19.4 0.0722713L19.4362 0.146387C19.038 0.63085 18.7393 1.16051 18.7393 1.97578V7.90863L21.0129 5.50981C21.7823 6.15154 23.0838 7.15843 24.2206 7.74412V7.79656C23.9093 8.12918 23.7264 8.76728 23.7264 9.86998V15.4124L24.5881 15.9637L25.2851 15.2515L25.4498 15.4124Z" fill="white"/>
<path d="M11.3679 17.0808H11.167V3.47791H11.3679V17.0808Z" fill="white"/>
<path d="M15.0719 15.049C13.8844 16.4301 11.6434 18.6934 8.1786 18.6934C3.46296 18.6934 0 15.4937 0 10.0327C0 5.01995 4.13998 2.24151 6.82093 1.20751L7.04178 1.31778C4.51289 2.9917 3.15341 5.01813 3.15341 8.54856C3.15341 11.6632 4.27213 13.8813 5.95926 15.1774L6.52767 14.7923V6.99213C6.52767 5.58394 6.27242 4.59513 5.84883 4.24986V4.13598C7.92154 3.16887 10.0667 1.64679 11.5529 0.291016C12.0108 0.826094 12.5792 1.06108 13.2943 1.06108C14.0727 1.06108 14.5958 0.786316 14.9434 0.531431L15.0719 0.639889C15.0031 2.23247 14.156 3.71479 12.1575 3.71479C10.9102 3.71479 10.2314 3.2954 9.60868 2.57956L9.51635 2.59762V13.1455C8.54064 13.6915 6.94765 14.7815 6.18011 15.36C7.32237 16.1481 8.98777 16.2927 10.6912 16.2927C12.2842 16.2927 13.698 15.6709 14.9814 14.7761L15.0719 15.049Z" fill="white"/>
<path d="M63.6207 16.1101V8.53047C63.0016 8.14723 62.0024 7.36812 61.6059 7.04816L61.3127 7.21265V14.7923C61.7381 15.0418 62.5599 15.6709 63.3311 16.2746L63.6207 16.1101ZM66.8881 7.79655C66.5189 7.96285 66.3016 8.47442 66.3016 9.52108V14.9749C65.2119 15.4521 62.7246 16.8386 61.4774 17.8311C60.1758 16.882 59.497 16.3668 58.0488 15.5787V15.5262C58.4163 15.3039 58.6553 14.7001 58.6553 13.7493V8.36596C60.3225 7.56154 62.1363 6.4245 63.4216 5.49173C64.247 6.0955 65.8799 7.21265 66.8881 7.74411V7.79655Z" fill="white"/>
<path d="M53.5197 15.5263V8.45821C52.6254 7.90687 51.8524 7.34287 51.485 7.02833L51.2098 7.19464V14.7381C51.6588 14.9948 52.6127 15.6818 53.0436 16.0017L53.5197 15.5263ZM57.2777 16.9526C57.2777 17.6666 56.2604 18.4168 55.1706 19.2935C53.7441 20.4487 53.0074 21 53.0074 21C52.2996 20.6005 51.8923 20.4866 50.8442 20.4866C49.5209 20.4866 48.7714 20.624 47.8374 21L47.7812 20.9801C48.5343 19.5792 50.0296 18.4168 52.1258 18.4168C53.0617 18.4168 54.1189 18.8055 54.8049 19.261C54.9878 19.1453 55.5743 18.7169 55.5743 18.4005C55.5743 17.4642 53.8455 17.5527 53.5577 15.8372L51.5773 17.8311C50.7066 17.1442 48.9416 16.0198 48.0003 15.5263V15.4522C48.4058 15.1937 48.5705 14.8448 48.5705 13.95V8.36602C50.5111 7.34467 52.2887 6.32152 53.3749 5.49179C54.2257 6.1986 55.8748 7.24705 56.7835 7.74417V7.7966C56.3635 8.0551 56.2151 8.45821 56.2151 9.92244V14.3531C56.2151 15.8372 57.2777 15.7251 57.2777 16.9526Z" fill="white"/>
<path d="M43.1048 15.8553V10.9636C41.51 11.1534 40.6121 12.2832 40.6121 13.6951C40.6121 14.7706 41.3815 15.8715 42.5563 16.2367L43.1048 15.8553ZM43.1048 10.7286V8.54855C42.4513 8.17255 41.3326 7.39524 40.833 6.99212L40.5397 7.17652C40.6302 8.46721 40.8094 10.1556 41.6747 11.0233C41.9897 10.9148 42.7283 10.772 43.1048 10.7286ZM47.7082 15.4341L45.3604 17.7949C44.7883 17.3195 43.6696 16.5331 43.0324 16.2222H43.0143C42.216 16.788 41.5716 17.2671 40.795 17.813C39.4029 17.3556 38.2842 16.1047 38.2842 14.6477C38.2842 12.6846 39.8681 11.6741 41.3272 11.1498V11.1299C40.0709 10.5226 39.0427 9.37106 38.7603 7.98094L42.7935 5.49174C43.5845 6.16602 45.3984 7.34282 46.4067 7.90863V7.96286C45.9107 8.29367 45.784 8.6986 45.784 9.73983V15.2678L46.8466 15.9475L47.5254 15.2515L47.7082 15.4341Z" fill="white"/>
<path d="M130.805 15.4521L128.457 17.8311C127.869 17.3683 126.917 16.7555 126.387 16.459V8.34788C125.995 8.11107 125.393 7.65192 125.139 7.43138L124.039 8.54853V15.3798C124.399 15.5353 124.918 15.8516 125.175 16.0378V16.0939L123.472 17.8311C122.851 17.3122 121.747 16.6073 120.811 16.1101V16.0559C121.197 15.8372 121.381 15.3798 121.381 14.3332V8.38404L120.118 7.37716L119.437 8.07312L119.271 7.90862L121.618 5.5098C122.029 5.94726 123.202 6.89992 124.039 7.4133V8.12916L126.531 5.5098C127.395 6.18768 128.787 7.07707 129.594 7.56154V7.61757C129.154 7.85438 129.026 8.44008 129.026 9.48312V15.3798L129.942 15.9836L130.639 15.2858L130.805 15.4521Z" fill="white"/>
<path d="M120.335 15.3979L118.005 17.813C117.379 17.3014 116.331 16.6 115.714 16.2565V15.4124L113.056 17.8311C111.992 16.9525 111.094 16.3831 110.142 15.9113V15.8552C110.632 15.5895 110.746 15.1032 110.746 13.9499V7.94657L109.903 7.35727L109.188 8.09119L109.005 7.9267L111.333 5.5098C111.782 5.89664 112.752 6.58719 113.387 6.88365V15.1593C113.661 15.3129 114.191 15.6709 114.633 16.0161L115.695 15.0291C115.695 15.0291 115.694 9.8302 115.695 7.9267C115.408 7.70254 114.863 7.4133 114.595 7.28496V7.23073C115.056 6.84027 115.911 6.01414 116.3 5.5098C116.95 6.03222 118.257 6.82581 118.925 7.19458V7.23073C118.518 7.41873 118.355 7.85439 118.355 8.80343V15.2677L119.53 15.9294L120.188 15.2515L120.335 15.3979Z" fill="white"/>
<path d="M97.8575 1.9759C97.3163 2.3519 96.5885 3.15452 96.2609 3.60645C96.002 3.28829 95.3268 2.57606 94.6299 2.05002C95.0951 1.67221 95.8988 0.846083 96.2609 0.312813C96.6302 0.781006 97.4158 1.60171 97.8575 1.9759Z" fill="white"/>
<path d="M99.5804 15.3979L97.2325 17.8311C96.5319 17.2707 95.3571 16.4916 94.5914 16.0939V16.0378C94.9951 15.7793 95.1616 15.2677 95.1616 14.4995V7.94657L94.2999 7.3428L93.6392 8.01707L93.4727 7.85439L95.7662 5.47365C96.4089 6.09188 97.6832 6.83304 98.3512 7.1765V7.21265C97.9747 7.4368 97.8009 7.79653 97.8009 8.77088V15.3979L98.7169 15.9474L99.4156 15.2316L99.5804 15.3979Z" fill="white"/>
<path d="M93.6396 6.24012C93.5563 7.19277 92.7037 8.422 91.6411 8.422C90.8645 8.422 90.2671 8.07312 89.8635 7.50369L89.5883 7.78027V14.9026C90.2345 15.2081 91.0799 15.7142 91.4383 15.9474L92.1172 15.2515L92.3018 15.4124L89.9196 17.8311C88.8135 16.9959 87.311 16.0469 86.4168 15.5985V15.5787C86.8078 15.4395 86.9671 15.1195 86.9671 14.485V8.36596L85.7923 7.3428L85.1333 8.05504L84.9668 7.88873L87.2223 5.5098C87.8957 6.25095 89.0253 7.10961 89.5521 7.48742L91.4221 5.52969C91.7732 5.96172 92.157 6.3323 92.8159 6.3323C93.0712 6.3323 93.3463 6.26 93.5491 6.16962L93.6396 6.24012Z" fill="white"/>
<path d="M86.4889 0.509855C86.2282 2.53628 85.3937 4.34037 83.2432 4.34037C82.9879 4.34037 82.51 4.30241 82.3453 4.28433V16.2929C83.6469 16.1103 85.2362 15.4794 85.8662 14.975L85.9585 15.2118C84.9756 16.6182 82.2693 18.7676 78.9167 18.7676C74.679 18.7676 71.3989 15.9801 71.3989 11.4771C71.3989 7.59964 74.6048 4.80314 76.6974 4.06379L76.8802 4.1361C75.4194 5.46476 74.3875 7.27425 74.3875 10.125C74.3875 12.5021 75.3596 14.0784 76.844 15.2516L77.5029 14.8304V8.93372C77.5029 7.69003 77.398 6.77713 76.6793 6.51502V6.42464C77.6369 6.02876 79.4055 5.15745 80.4934 4.48499V13.1601C79.525 13.6916 77.8921 14.8015 77.0649 15.4342C78.0189 16.094 79.4109 16.423 80.8591 16.423C81.3569 16.423 81.5868 16.3977 82.1444 16.3127V4.26264C79.5051 4.04391 76.692 2.95024 74.5342 2.95024C73.019 2.95024 71.8768 3.56848 71.8768 4.72179C71.8768 5.41956 72.4253 5.71964 72.7746 5.87691L72.4814 6.03961C71.8369 5.74857 71.0332 5.04898 71.0332 3.56848C71.0332 1.41371 72.7692 8.96454e-05 75.1026 8.96454e-05C78.3302 8.96454e-05 81.366 1.70113 84.2153 1.70113C85.095 1.70113 85.9096 1.23655 86.3242 0.383316L86.4889 0.509855Z" fill="white"/>
<path d="M136.542 10.2695C136.165 9.7362 134.978 7.97007 134.453 7.14034L134.27 7.28496V11.7879L136.542 10.2695ZM139 9.00589C137.472 9.94047 135.655 11.1408 134.27 12.1368V14.7218C134.882 14.9948 135.934 15.6437 136.415 15.9637L137.661 14.6821L137.825 14.8303L134.913 17.8311C134.008 17.1785 132.237 16.0523 130.986 15.3798V15.3256C131.388 15.2117 131.613 14.6278 131.613 13.3462V8.36596C133.334 7.59588 134.929 6.53658 136.212 5.49173L139 9.00589Z" fill="white"/>
<path d="M105.54 16.0939V8.422L104.09 7.43139L103.229 8.2557V14.7761L105.191 16.2746L105.54 16.0939ZM108.784 7.81642C108.335 8.00261 108.218 8.56662 108.218 9.86996V15.0147C107.079 15.4124 104.566 16.7157 103.393 17.8311C102.51 17.2164 101.102 16.2529 99.9629 15.5787V15.5262C100.495 15.2316 100.569 14.7381 100.569 13.2522V2.2686C100.569 1.4461 100.423 1.02492 100.238 0.695915L100.35 0.639866C100.736 0.968866 100.993 1.35391 101.102 1.88357H101.14C101.73 0.901987 102.465 0.271109 103.887 0.0903378L103.907 0.198795C103.511 0.686872 103.229 1.12071 103.229 2.06795V7.90862L105.484 5.5098C106.163 6.11718 107.91 7.22169 108.784 7.76219V7.81642Z" fill="white"/>
</g>
<defs>
<clipPath id="clip0_62_155">
<rect width="139" height="21" fill="white"/>
</clipPath>
</defs>
</svg>
