<svg width="143" height="30" viewBox="0 0 143 30" fill="none" xmlns="http://www.w3.org/2000/svg">
<path d="M50.4492 17.2852V13.9219C50.4492 13.4609 50.3594 13.0273 50.1797 12.6211C50.0078 12.207 49.7695 11.8477 49.4648 11.543C49.1602 11.2383 48.8008 11 48.3867 10.8281C47.9805 10.6484 47.5469 10.5586 47.0859 10.5586C46.625 10.5586 46.1875 10.6484 45.7734 10.8281C45.3672 11 45.0117 11.2383 44.707 11.543C44.4023 11.8477 44.1602 12.207 43.9805 12.6211C43.8086 13.0273 43.7227 13.4609 43.7227 13.9219V17.2852H50.4492ZM53.8125 24H50.4492V20.6367H43.7227V24H40.3711V13.9219C40.3711 12.9922 40.5469 12.1211 40.8984 11.3086C41.25 10.4883 41.7266 9.77344 42.3281 9.16406C42.9375 8.55469 43.6484 8.07422 44.4609 7.72266C45.2812 7.37109 46.1562 7.19531 47.0859 7.19531C48.0156 7.19531 48.8867 7.37109 49.6992 7.72266C50.5195 8.07422 51.2344 8.55469 51.8438 9.16406C52.4531 9.77344 52.9336 10.4883 53.2852 11.3086C53.6367 12.1211 53.8125 12.9922 53.8125 13.9219V24ZM69.8672 17.2852C69.8672 18.2148 69.6914 19.0898 69.3398 19.9102C68.9883 20.7227 68.5078 21.4336 67.8984 22.043C67.2891 22.6445 66.5742 23.1211 65.7539 23.4727C64.9414 23.8242 64.0703 24 63.1406 24C62.2109 24 61.3359 23.8242 60.5156 23.4727C59.7031 23.1211 58.9922 22.6445 58.3828 22.043C57.7812 21.4336 57.3047 20.7227 56.9531 19.9102C56.6016 19.0898 56.4258 18.2148 56.4258 17.2852V7.19531H59.7773V17.2852C59.7773 17.7461 59.8633 18.1797 60.0352 18.5859C60.2148 18.9922 60.457 19.3477 60.7617 19.6523C61.0664 19.957 61.4219 20.1992 61.8281 20.3789C62.2422 20.5508 62.6797 20.6367 63.1406 20.6367C63.6016 20.6367 64.0352 20.5508 64.4414 20.3789C64.8555 20.1992 65.2148 19.957 65.5195 19.6523C65.8242 19.3477 66.0625 18.9922 66.2344 18.5859C66.4141 18.1797 66.5039 17.7461 66.5039 17.2852V7.19531H69.8672V17.2852ZM86.1562 22.3008C85.375 22.9648 84.5039 23.4766 83.543 23.8359C82.582 24.1875 81.582 24.3633 80.543 24.3633C79.7461 24.3633 78.9766 24.2578 78.2344 24.0469C77.5 23.8438 76.8125 23.5547 76.1719 23.1797C75.5312 22.7969 74.9453 22.3438 74.4141 21.8203C73.8828 21.2891 73.4297 20.7031 73.0547 20.0625C72.6797 19.4141 72.3867 18.7188 72.1758 17.9766C71.9727 17.2344 71.8711 16.4648 71.8711 15.668C71.8711 14.8711 71.9727 14.1055 72.1758 13.3711C72.3867 12.6367 72.6797 11.9492 73.0547 11.3086C73.4297 10.6602 73.8828 10.0742 74.4141 9.55078C74.9453 9.01953 75.5312 8.56641 76.1719 8.19141C76.8125 7.81641 77.5 7.52734 78.2344 7.32422C78.9766 7.11328 79.7461 7.00781 80.543 7.00781C81.582 7.00781 82.582 7.1875 83.543 7.54688C84.5039 7.89844 85.375 8.40625 86.1562 9.07031L84.3984 12C83.8906 11.4844 83.3047 11.082 82.6406 10.793C81.9766 10.4961 81.2773 10.3477 80.543 10.3477C79.8086 10.3477 79.1172 10.4883 78.4688 10.7695C77.8281 11.0508 77.2656 11.4336 76.7812 11.918C76.2969 12.3945 75.9141 12.957 75.6328 13.6055C75.3516 14.2461 75.2109 14.9336 75.2109 15.668C75.2109 16.4102 75.3516 17.1055 75.6328 17.7539C75.9141 18.4023 76.2969 18.9688 76.7812 19.4531C77.2656 19.9375 77.8281 20.3203 78.4688 20.6016C79.1172 20.8828 79.8086 21.0234 80.543 21.0234C80.9648 21.0234 81.375 20.9727 81.7734 20.8711C82.1719 20.7695 82.5508 20.6289 82.9102 20.4492V15.668H86.1562V22.3008ZM105.422 24H102.07V12C102.07 11.7656 102.023 11.5469 101.93 11.3438C101.844 11.1406 101.723 10.9648 101.566 10.8164C101.418 10.6602 101.242 10.5391 101.039 10.4531C100.836 10.3672 100.617 10.3242 100.383 10.3242C100.148 10.3242 99.9297 10.3672 99.7266 10.4531C99.5234 10.5391 99.3438 10.6602 99.1875 10.8164C99.0391 10.9648 98.9219 11.1406 98.8359 11.3438C98.75 11.5469 98.707 11.7656 98.707 12V24H95.3438V12C95.3438 11.7656 95.3008 11.5469 95.2148 11.3438C95.1289 11.1406 95.0078 10.9648 94.8516 10.8164C94.7031 10.6602 94.5273 10.5391 94.3242 10.4531C94.1211 10.3672 93.9023 10.3242 93.668 10.3242C93.4336 10.3242 93.2148 10.3672 93.0117 10.4531C92.8086 10.5391 92.6289 10.6602 92.4727 10.8164C92.3242 10.9648 92.207 11.1406 92.1211 11.3438C92.0352 11.5469 91.9922 11.7656 91.9922 12V24H88.6289V12C88.6289 11.3047 88.7578 10.6523 89.0156 10.043C89.2812 9.42578 89.6406 8.89062 90.0938 8.4375C90.5547 7.97656 91.0898 7.61719 91.6992 7.35938C92.3164 7.09375 92.9727 6.96094 93.668 6.96094C94.293 6.96094 94.8945 7.07422 95.4727 7.30078C96.0508 7.51953 96.5703 7.83984 97.0312 8.26172C97.4922 7.83984 98.0078 7.51953 98.5781 7.30078C99.1562 7.07422 99.7578 6.96094 100.383 6.96094C101.078 6.96094 101.73 7.09375 102.34 7.35938C102.957 7.61719 103.492 7.97656 103.945 8.4375C104.406 8.89062 104.766 9.42578 105.023 10.043C105.289 10.6523 105.422 11.3047 105.422 12V24ZM121.875 24H118.277L111.797 12.9375V24H108.434V7.19531H112.031L118.512 18.2695V7.19531H121.875V24ZM132.059 24H128.707V10.5586H123.656V7.19531H137.098V10.5586H132.059V24ZM141.047 22.8047C141.047 23.0859 140.996 23.3516 140.895 23.6016C140.793 23.8438 140.652 24.0547 140.473 24.2344C140.293 24.4141 140.082 24.5547 139.84 24.6562C139.598 24.7656 139.336 24.8203 139.055 24.8203C138.781 24.8203 138.52 24.7656 138.27 24.6562C138.027 24.5547 137.812 24.4141 137.625 24.2344C137.445 24.0547 137.301 23.8438 137.191 23.6016C137.09 23.3516 137.039 23.0859 137.039 22.8047C137.039 22.5312 137.09 22.2734 137.191 22.0312C137.301 21.7891 137.445 21.5781 137.625 21.3984C137.812 21.2188 138.027 21.0781 138.27 20.9766C138.52 20.8672 138.781 20.8125 139.055 20.8125C139.336 20.8125 139.598 20.8672 139.84 20.9766C140.082 21.0781 140.293 21.2188 140.473 21.3984C140.652 21.5781 140.793 21.7891 140.895 22.0312C140.996 22.2734 141.047 22.5312 141.047 22.8047Z" fill="#363636"/>
<circle cx="15" cy="15" r="15" fill="#FF4509" fill-opacity="0.08"/>
<path d="M22.436 28.0271C20.4722 29.1481 18.2804 29.8105 16.0245 29.965C13.7686 30.1194 11.507 29.7618 9.40881 28.919C7.3106 28.0762 5.43008 26.7699 3.90789 25.0978C2.38571 23.4257 1.26124 21.4311 0.618584 19.2632C-0.0240708 17.0953 -0.168284 14.8101 0.196729 12.5786C0.561743 10.3471 1.42654 8.22697 2.72644 6.37679C4.02634 4.52662 5.72772 2.99427 7.70333 1.89433C9.67894 0.794395 11.8777 0.155341 14.1351 0.0249575L15 15L22.436 28.0271Z" fill="#FF4509" fill-opacity="0.06"/>
<g clip-path="url(#clip0_22_430)">
<path d="M9.79733 21.533C9.40884 21.533 9.08833 21.4298 8.85003 21.2221C8.40275 20.832 8.26656 20.1002 8.45619 19.1059L8.4602 19.0849L13.9328 14.8651C14.3526 14.5323 14.725 14.1329 15.0378 13.68L18.0943 9.25545C18.7003 8.37828 19.576 7.65929 20.088 7.61857C20.2205 7.60796 20.325 7.64246 20.3977 7.72112C21.0137 8.38642 20.8926 9.83386 20.0652 11.6922C18.4687 15.2785 14.7225 19.4395 11.7141 20.9677C10.9744 21.3435 10.3235 21.533 9.79733 21.533ZM8.54939 19.1491C8.37378 20.0895 8.49897 20.7766 8.91185 21.1367C9.44192 21.599 10.4223 21.5039 11.6724 20.8687C14.663 19.3497 18.388 15.2116 19.976 11.6444C20.7834 9.83072 20.9117 8.42916 20.328 7.79862C20.2766 7.74305 20.1984 7.71897 20.0952 7.7272C19.6083 7.76591 18.7641 8.46611 18.1734 9.32121L15.117 13.7459C14.7979 14.2076 14.4181 14.6147 13.9899 14.954L8.54939 19.1491Z" fill="#FF3E00"/>
<path d="M9.52787 21.5981C9.06513 21.5981 8.69238 21.4689 8.43118 21.2103C7.96939 20.7532 7.87303 19.929 8.15248 18.8267L8.15763 18.8065L13.944 14.8064C14.3561 14.5215 14.7917 14.0956 15.1391 13.6381L18.5355 9.16459C19.2082 8.27856 20.1323 7.58927 20.6522 7.59923C20.7865 7.60138 20.8883 7.64954 20.9546 7.74236C21.5137 8.52429 21.2778 10.0758 20.3076 11.9989C18.4324 15.7158 14.37 19.8317 11.2517 21.1739C10.595 21.4565 10.0121 21.5981 9.52787 21.5981ZM8.24303 18.8761C7.9807 19.9258 8.06844 20.7046 8.4976 21.1294C9.00295 21.6296 9.96812 21.6094 11.2155 21.0725C14.3154 19.7382 18.3551 15.6442 20.2206 11.9462C21.1706 10.0632 21.4097 8.55549 20.8765 7.80964C20.8295 7.74398 20.7535 7.70984 20.6506 7.70815C20.1657 7.70256 19.2674 8.37068 18.6117 9.23435L15.2154 13.7078L15.1773 13.6729L15.2154 13.7078C14.8617 14.1737 14.4175 14.6078 13.9968 14.8986L8.24303 18.8761Z" fill="#FF3E00"/>
<path d="M9.27808 21.6482C8.73022 21.6482 8.30296 21.4857 8.01419 21.1619C7.53981 20.63 7.49063 19.7074 7.87193 18.4941L7.87796 18.4744L13.9597 14.7447C14.3928 14.4791 14.8607 14.0633 15.2432 13.6037L18.9821 9.11273C19.7181 8.22862 20.6969 7.58035 21.2105 7.63671C21.3481 7.65183 21.4479 7.71468 21.5074 7.82347C22.0006 8.72542 21.6425 10.3777 20.5247 12.3566C18.3616 16.1861 13.9877 20.2205 10.7745 21.3498C10.2079 21.5489 9.70621 21.6482 9.27808 21.6482ZM7.95965 18.5492C7.59803 19.7112 7.64133 20.5881 8.08514 21.0857C8.56456 21.6233 9.50875 21.6803 10.7442 21.246C13.9381 20.1235 18.2878 16.1099 20.4402 12.2992C21.5377 10.3562 21.8957 8.74523 21.4222 7.87947C21.3797 7.80181 21.3052 7.75659 21.2006 7.74508C20.7167 7.69172 19.7726 8.32461 19.0553 9.1862L15.3164 13.6771L15.2798 13.6404L15.3164 13.6771C14.927 14.1449 14.4501 14.5687 14.008 14.8398L7.95965 18.5492Z" fill="#FF3E00"/>
<path d="M9.0691 21.6723C8.41293 21.6723 7.91487 21.471 7.6018 21.0727C7.11774 20.4568 7.1238 19.4305 7.61932 18.1047L7.6265 18.0855L13.9809 14.6792C14.4334 14.4366 14.9325 14.0349 15.3501 13.577L19.4315 9.10269C20.2396 8.21702 21.2407 7.62845 21.7595 7.73325C21.8997 7.76159 22.0007 7.84264 22.052 7.96757C22.4705 8.99264 21.9826 10.7415 20.7132 12.7658C18.2542 16.6876 13.5763 20.6013 10.2854 21.4903C9.83545 21.6118 9.42839 21.6722 9.0691 21.6723ZM7.70405 18.1652C7.23066 19.4413 7.22119 20.4217 7.67691 21.0016C8.13553 21.585 9.02936 21.7174 10.2615 21.3845C13.5324 20.501 18.1843 16.607 20.6313 12.7042C21.8806 10.7119 22.3653 9.0018 21.9612 8.0122C21.9236 7.92011 21.8497 7.86232 21.7414 7.84042C21.2596 7.74317 20.2756 8.33127 19.5017 9.17973L15.4203 13.6541L15.3852 13.6156L15.4203 13.6541C14.9952 14.1201 14.4865 14.5294 14.0245 14.777L7.70405 18.1652Z" fill="#FF3E00"/>
<path d="M8.90689 21.6795C8.11645 21.6795 7.53234 21.4295 7.19463 20.9396C6.70532 20.2298 6.77552 19.0948 7.39753 17.6574L7.40567 17.6386L14.0064 14.6105C14.4764 14.395 15.0054 14.0118 15.4579 13.5595L15.4913 13.5998L15.4579 13.5595L19.8792 9.13879C20.7407 8.27733 21.7783 7.7414 22.2934 7.89266C22.4398 7.93567 22.5395 8.0349 22.5816 8.17982C22.9163 9.33041 22.2916 11.1707 20.8677 13.2287C18.1066 17.2195 13.1353 20.9712 9.78586 21.5919C9.4956 21.6478 9.20159 21.6771 8.90689 21.6795ZM7.47909 17.7229C6.8901 19.0927 6.81701 20.2112 7.27381 20.8739C7.70288 21.4964 8.56563 21.7075 9.7693 21.4845C13.0974 20.8678 18.0407 17.1347 20.7886 13.1629C22.1927 11.1335 22.8118 9.32912 22.487 8.21293C22.4552 8.10377 22.3815 8.03123 22.2677 7.99792C21.7913 7.858 20.7711 8.39443 19.946 9.21933L15.5247 13.64C15.0642 14.1004 14.5248 14.4908 14.0447 14.711L7.47909 17.7229Z" fill="#FF3E00"/>
<path d="M8.80429 21.6734C7.84669 21.6734 7.15753 21.3611 6.79615 20.758C6.31501 19.9549 6.46282 18.6736 7.21228 17.1499L7.22133 17.1312L14.0376 14.5384C14.5227 14.3539 15.08 13.9941 15.5666 13.5514L20.3225 9.22409C21.2309 8.3974 22.3001 7.9214 22.8086 8.11702C22.8801 8.14105 22.9443 8.18598 22.9943 8.24699C23.0444 8.308 23.0783 8.38279 23.0925 8.46335C23.3339 9.74137 22.5659 11.6666 20.9852 13.7455C17.9176 17.7798 12.6666 21.3256 9.28024 21.6497C9.11497 21.6655 8.95632 21.6734 8.80429 21.6734ZM7.29047 17.2203C6.56715 18.6987 6.42088 19.9334 6.87916 20.6982C7.27645 21.3614 8.10391 21.6529 9.27144 21.5412C12.6354 21.2193 17.8559 17.6909 20.909 13.6757C22.4701 11.6225 23.2307 9.73078 22.9955 8.48545C22.9847 8.4233 22.9585 8.36562 22.9198 8.31876C22.881 8.27189 22.8313 8.23765 22.7759 8.2198C22.2973 8.03595 21.2698 8.50358 20.3859 9.30787L15.6301 13.6352C15.1347 14.086 14.5662 14.4527 14.0703 14.6413L7.29047 17.2203Z" fill="#FF3E00"/>
<path d="M8.77307 21.6599H8.77138C7.60721 21.6596 6.79023 21.2667 6.40877 20.5239C5.93737 19.6058 6.17145 18.2058 7.06793 16.5817L7.07821 16.5631L14.0749 14.4639C14.5726 14.3146 15.1562 13.9831 15.676 13.5543L20.7573 9.36271C21.7208 8.56794 22.7901 8.1671 23.3003 8.40976C23.3772 8.44322 23.4441 8.49964 23.4934 8.57262C23.5426 8.64561 23.5723 8.73226 23.579 8.82277C23.7177 10.2292 22.8 12.2319 21.0613 14.3173C17.6854 18.3664 12.1734 21.6599 8.77307 21.6599ZM7.14265 16.6567C6.27396 18.2376 6.04399 19.5915 6.49531 20.4704C6.85807 21.177 7.64514 21.5507 8.77138 21.551H8.77307C12.1492 21.551 17.6282 18.2736 20.9881 14.2438C22.7076 12.1814 23.6159 10.2098 23.4802 8.83452C23.4754 8.76315 23.4522 8.69475 23.4134 8.63725C23.3745 8.57975 23.3216 8.53552 23.2608 8.50969C22.7889 8.28525 21.7385 8.68957 20.817 9.44974L15.7356 13.6412L15.7057 13.5977L15.7356 13.6412C15.2062 14.0779 14.6105 14.416 14.1012 14.5688L7.14265 16.6567Z" fill="#FF3E00"/>
<path d="M8.83137 21.6467C8.63528 21.6467 8.44584 21.6372 8.26303 21.6182C7.14595 21.5012 6.3755 21.0216 6.03478 20.2312C5.58458 19.1863 5.91619 17.6664 6.96863 15.9516L6.98006 15.933L14.1175 14.3868C14.6249 14.2769 15.2322 13.9787 15.7838 13.5686L21.1791 9.55805C22.1746 8.81808 23.2611 8.48806 23.7628 8.77326C23.9367 8.87213 24.0306 9.041 24.0344 9.2617C24.0609 10.7968 22.9881 12.8681 21.0914 14.9444C17.6048 18.7609 12.266 21.6463 8.83137 21.6467ZM7.03964 16.0311C6.01663 17.705 5.69168 19.1796 6.12467 20.1847C6.44944 20.9385 7.19206 21.3967 8.27247 21.5098C11.6337 21.8618 17.3538 18.8819 21.0213 14.8673C22.8991 12.8118 23.9612 10.7694 23.9352 9.26381C23.9322 9.08298 23.8587 8.95046 23.7172 8.86998C23.2536 8.60638 22.1863 8.94087 21.2348 9.64822L15.8397 13.6587L15.8118 13.6136L15.8397 13.6587C15.2774 14.0767 14.6568 14.381 14.1369 14.4936L7.03964 16.0311Z" fill="#FF3E00"/>
<path d="M8.98598 21.6431C8.5747 21.6464 8.16412 21.6051 7.7602 21.52C6.69381 21.2855 5.97417 20.716 5.67907 19.8732C5.26471 18.6899 5.70569 17.0513 6.92061 15.2592L6.93334 15.2403L14.1674 14.3078C14.6811 14.2416 15.3094 13.9819 15.8912 13.5953L21.5844 9.81335C22.6197 9.12562 23.6919 8.87723 24.1923 9.2097C24.378 9.33312 24.4685 9.53152 24.454 9.78348C24.3586 11.4465 23.126 13.5761 21.0723 15.6264C17.5301 19.1628 12.4293 21.6431 8.98598 21.6431ZM6.98749 15.343C5.80314 17.0968 5.37133 18.691 5.77172 19.8341C6.05398 20.6403 6.74835 21.1864 7.77986 21.4132C11.1006 22.1436 17.0336 19.5114 21.0056 15.5459C23.0403 13.5146 24.2611 11.4116 24.355 9.77677C24.3671 9.56506 24.2951 9.4055 24.1409 9.30299C23.6785 8.99579 22.6251 9.24956 21.6359 9.90666L15.9427 13.6885C15.3491 14.0828 14.7063 14.348 14.179 14.4159L6.98749 15.343Z" fill="#FF3E00"/>
<path d="M9.25222 21.6607C8.5172 21.6607 7.84712 21.5641 7.26645 21.3612C6.25301 21.007 5.58842 20.3431 5.34455 19.4413C4.98438 18.1096 5.54657 16.3563 6.92721 14.5044L6.94144 14.4853L14.2232 14.2272C14.7397 14.2089 15.3857 13.9932 15.9958 13.6351L21.9678 10.1318C23.018 9.51561 24.093 9.34671 24.582 9.72093C24.7808 9.87309 24.8666 10.1048 24.8303 10.3912C24.6032 12.1802 23.2067 14.3568 20.9986 16.3628C17.4649 19.5734 12.667 21.6607 9.25222 21.6607ZM6.98978 14.5925C5.64082 16.4085 5.09043 18.1186 5.43971 19.4104C5.67378 20.276 6.31587 20.9147 7.29657 21.2575C10.5458 22.3931 16.6641 20.1597 20.9355 16.279C23.1245 14.29 24.5085 12.1386 24.7321 10.3762C24.7634 10.1296 24.6938 9.93918 24.5253 9.81027C24.073 9.46414 23.017 9.63969 22.0146 10.2278L16.0426 13.7313L16.019 13.6832L16.0424 13.7312C15.4195 14.0967 14.7575 14.3171 14.2263 14.3359L6.98978 14.5925Z" fill="#FF3E00"/>
<path d="M9.64399 21.714C8.54877 21.714 7.57208 21.5288 6.78722 21.138C5.82789 20.6603 5.22316 19.8953 5.03791 18.9261C4.7536 17.4383 5.44831 15.5781 6.994 13.688L7.01001 13.6685L14.286 14.146C14.8013 14.18 15.4614 14.0134 16.0972 13.6895L22.3247 10.5164C23.3809 9.97829 24.4511 9.89288 24.9275 10.3086C25.1403 10.4943 25.2199 10.7638 25.1575 11.0879C24.7896 12.9998 23.2258 15.2104 20.8675 17.1527C17.4129 19.9976 12.9793 21.714 9.64399 21.714ZM7.05207 13.7803C5.5391 15.6371 4.85856 17.4558 5.13524 18.9037C5.31368 19.8377 5.89923 20.576 6.82846 21.0389C9.97355 22.6056 16.245 20.8233 20.808 17.0656C23.1473 15.139 24.6972 12.9521 25.0604 11.0654C25.1152 10.7804 25.0497 10.5545 24.8656 10.3939C24.4176 10.0028 23.3899 10.0939 22.3665 10.6153L16.1389 13.7883C15.4888 14.1196 14.811 14.2895 14.28 14.2547L7.05207 13.7803Z" fill="#FF3E00"/>
<path d="M10.1665 21.8198C8.64338 21.8198 7.30845 21.5066 6.32717 20.8468C5.42306 20.2388 4.88327 19.3637 4.76616 18.3163C4.58223 16.6693 5.41983 14.7143 7.12503 12.8114L7.14312 12.7913L14.3551 14.0649C14.8651 14.155 15.5353 14.0435 16.1938 13.7591L22.6497 10.9706C23.7196 10.5084 24.7535 10.5099 25.2223 10.9743C25.4498 11.1996 25.5208 11.5115 25.4279 11.8762C24.9097 13.9072 23.1768 16.1372 20.6736 17.9949C17.3748 20.4425 13.3588 21.8196 10.1665 21.8198ZM7.17789 12.9078C5.50631 14.7802 4.68505 16.6952 4.86473 18.303C4.97801 19.3164 5.50164 20.1639 6.37901 20.7539C9.38726 22.7768 15.7744 21.4985 20.6179 17.9044C23.1021 16.0611 24.8202 13.8531 25.3321 11.8467C25.4144 11.5245 25.3532 11.2507 25.1557 11.055C24.7142 10.6177 23.7217 10.6244 22.6859 11.0717L16.23 13.8602C15.5554 14.1516 14.8662 14.2653 14.3392 14.1722L7.17789 12.9078Z" fill="#FF3E00"/>
<path d="M10.8114 21.9953C8.79696 21.9953 7.04756 21.5035 5.89152 20.4832C5.04364 19.7348 4.5761 18.7376 4.53953 17.5994C4.48148 15.7959 5.47066 13.7631 7.32481 11.8755L7.34504 11.8549L14.4301 13.9839C14.9305 14.1342 15.6061 14.0831 16.2839 13.8439L22.9369 11.4953C24.0116 11.1159 25.0023 11.2031 25.4608 11.7174C25.7031 11.9892 25.763 12.3486 25.6342 12.7567C24.9569 14.9008 23.0538 17.1348 20.4129 18.8858C17.3456 20.9196 13.7894 21.9951 10.8114 21.9953ZM7.37212 11.9759C5.5524 13.8358 4.58192 15.8306 4.63873 17.5956C4.67428 18.7013 5.129 19.6704 5.9537 20.3983C8.78888 22.9006 15.2521 22.1804 20.3616 18.7927C22.983 17.0546 24.8706 14.8416 25.5403 12.7209C25.6561 12.3544 25.6041 12.0337 25.3898 11.7935C24.964 11.3158 23.9905 11.2377 22.9673 11.5988L16.3143 13.9474C15.6186 14.1931 14.9222 14.2446 14.4039 14.0888L7.37212 11.9759Z" fill="#FF3E00"/>
<path d="M11.5539 22.2585C8.99666 22.2585 6.78011 21.5234 5.48745 20.0443C4.69837 19.1414 4.31272 18.0073 4.37218 16.7643C4.46544 14.8141 5.61144 12.7255 7.59898 10.883L7.62184 10.8618L14.5127 13.9044C14.9985 14.1188 15.6749 14.1338 16.3684 13.9453L23.1826 12.0936C24.2372 11.8071 25.2014 11.9819 25.6394 12.5392C25.892 12.8607 25.9388 13.2841 25.7709 13.7314C24.9262 15.9819 22.8532 18.2026 20.0835 19.824C17.3168 21.4436 14.2465 22.2585 11.5539 22.2585ZM7.64017 10.9872C5.68784 12.8049 4.56283 14.8575 4.47117 16.7701C4.41319 17.9822 4.78934 19.0884 5.55897 19.9689C8.18412 22.9724 14.6786 22.8644 20.0366 19.7278C22.7865 18.118 24.8429 15.9171 25.679 13.6898C25.8341 13.2763 25.7943 12.9031 25.5641 12.6101C25.1504 12.0837 24.2251 11.9223 23.2064 12.1991L16.3923 14.0506L16.3803 13.9977L16.3923 14.0506C15.6788 14.2445 14.9802 14.2279 14.4756 14.005L7.64017 10.9872Z" fill="#FF3E00"/>
<path d="M12.3477 22.6252C9.21566 22.6252 6.49279 21.5652 5.11914 19.5275C3.23822 16.7374 4.37589 12.8429 7.9502 9.83661L7.97592 9.81494L14.6005 13.8266C15.0669 14.109 15.7387 14.1953 16.4438 14.0635L23.3792 12.7666C24.4216 12.5715 25.3306 12.8295 25.751 13.4393C26.0157 13.8232 26.0435 14.3066 25.8288 14.8005C24.8091 17.1488 22.5678 19.3375 19.6798 20.8053C17.2702 22.03 14.6941 22.6251 12.3477 22.6252ZM7.98484 9.94471C4.47717 12.909 3.3572 16.7308 5.19896 19.4627C6.34001 21.1554 8.47578 22.2186 11.2129 22.4567C13.9564 22.6953 16.9484 22.0736 19.6381 20.7066C22.5056 19.2492 24.7292 17.0795 25.7393 14.7537C25.9399 14.2918 25.9166 13.8599 25.6719 13.505C25.2799 12.9364 24.3864 12.6887 23.3959 12.874L16.4605 14.1709L16.4521 14.1172L16.4605 14.1709C15.7335 14.3068 15.0382 14.2161 14.5526 13.922L7.98484 9.94471Z" fill="#FF3E00"/>
<path d="M13.139 23.1062C9.42378 23.1062 6.17609 21.6203 4.79421 18.9298C3.1441 15.7168 4.58655 11.6218 8.38371 8.7398L8.41272 8.71777L14.695 13.7515C15.1367 14.1054 15.7982 14.2686 16.5105 14.1991L16.5149 14.2534L16.5105 14.1991L23.5225 13.5156C24.5301 13.4174 25.4003 13.763 25.7926 14.4178C26.0659 14.8738 26.0694 15.4228 25.8024 15.9637C24.6002 18.3999 22.1938 20.5366 19.2002 21.8259C17.1865 22.6931 15.0978 23.1061 13.139 23.1062ZM8.41118 8.85144C4.68008 11.6985 3.26127 15.7232 4.88068 18.8763C5.88316 20.8282 7.9263 22.2017 10.6337 22.7438C13.3473 23.2871 16.3764 22.925 19.1638 21.7245C22.136 20.4444 24.5238 18.3258 25.7152 15.9119C25.9639 15.4079 25.9618 14.8985 25.7096 14.4776C25.3373 13.8564 24.5026 13.5294 23.5312 13.6242L16.5193 14.3076C15.7836 14.3793 15.0973 14.2087 14.6365 13.8394L8.41118 8.85144Z" fill="#FF3E00"/>
<path d="M13.9021 23.7045C12.5575 23.7045 11.2404 23.5032 10.0057 23.0991C7.32262 22.2213 5.37385 20.499 4.51813 18.2496C3.13113 14.6028 4.89293 10.322 8.90257 7.59729L8.93507 7.5752L14.7948 13.68C15.2064 14.1089 15.851 14.3492 16.5663 14.3531V14.4075V14.3531L23.6059 14.3417H23.6111C24.5767 14.3417 25.3991 14.7758 25.7587 15.4755C26.0353 16.0138 26.0087 16.6335 25.6837 17.2205C24.2927 19.7331 21.7257 21.7964 18.6408 22.8814C17.1095 23.4226 15.511 23.7002 13.9021 23.7045ZM8.92229 7.71217C4.97877 10.4086 3.24583 14.6222 4.6098 18.2077C5.45373 20.4264 7.38015 22.1265 10.0342 22.9949C12.6932 23.8648 15.739 23.7877 18.6107 22.7777C21.6729 21.7006 24.2201 19.6545 25.5989 17.1639C25.9043 16.6121 25.9304 16.0315 25.6722 15.529C25.3303 14.8635 24.5408 14.4506 23.6111 14.4506H23.606L16.5664 14.462H16.5613C15.8239 14.462 15.1554 14.206 14.7264 13.759L8.92229 7.71217Z" fill="#FF3E00"/>
<path d="M14.5254 24.4336C12.7226 24.4336 10.964 24.0542 9.37803 23.3051C6.77517 22.0758 4.97098 20.0092 4.29765 17.4859C3.20644 13.3967 5.30129 8.94754 9.51052 6.41486L9.5467 6.39307L14.8998 13.6134C15.2758 14.1206 15.8992 14.4533 16.6101 14.5264L23.6238 15.2456C24.5618 15.3418 25.3175 15.8534 25.6456 16.6142C25.9135 17.2356 25.8481 17.9483 25.4658 18.5694C23.8807 21.1453 21.1594 23.1127 17.9999 23.967C16.8631 24.2755 15.6965 24.4322 14.5254 24.4336ZM9.52203 6.53226C5.37912 9.04343 3.31824 13.4281 4.39296 17.4553C5.05778 19.9469 6.84216 21.9888 9.41728 23.2051C11.9965 24.4232 15.0362 24.6562 17.9762 23.8611C21.1122 23.0132 23.812 21.0621 25.3836 18.5084C25.7511 17.9113 25.8123 17.255 25.5559 16.6606C25.243 15.9349 24.5173 15.4466 23.6147 15.354L16.6009 14.6346C15.8636 14.559 15.2155 14.2118 14.8229 13.682L9.52203 6.53226Z" fill="#FF3E00"/>
<path d="M15.0192 25.2839C12.7777 25.2839 10.6046 24.6618 8.73548 23.462C6.24081 21.8607 4.60809 19.4366 4.13811 16.6362C3.37634 12.0982 5.81629 7.50099 10.2094 5.19679L10.2494 5.17578L15.0088 13.551C15.3435 14.1398 15.9378 14.5648 16.6398 14.7176L23.5697 16.2253C24.4605 16.4192 25.1626 17.0205 25.4478 17.834C25.7008 18.5556 25.589 19.3474 25.1411 20.0063C23.3574 22.6307 20.49 24.4781 17.2741 25.0749C16.5291 25.2136 15.7748 25.2835 15.0192 25.2839ZM10.2122 5.31613C5.88519 7.60571 3.48465 12.1413 4.23568 16.6165C4.70036 19.3851 6.31619 21.783 8.7855 23.3679C11.2575 24.9545 14.2661 25.5226 17.2575 24.9675C20.4485 24.3754 23.2929 22.5433 25.0615 19.9412C25.4885 19.3127 25.5956 18.559 25.3551 17.873C25.0822 17.0946 24.4075 16.5186 23.5504 16.3321L16.6205 14.8243C15.8917 14.6657 15.2736 14.2226 14.9245 13.6085L10.2122 5.31613Z" fill="#FF3E00"/>
<path d="M15.369 26.2521C12.7093 26.2521 10.1562 25.3173 8.08335 23.5652C5.72623 21.5728 4.29306 18.7798 4.04732 15.7007C3.64931 10.7107 6.44467 5.98892 11.003 3.9507L11.0467 3.93115L11.0667 3.97806L15.1226 13.4943C15.4093 14.1672 15.9679 14.6898 16.655 14.9281L23.4389 17.281C24.2815 17.5733 24.9256 18.2681 25.1617 19.1396C25.3862 19.9684 25.2195 20.8392 24.7041 21.5287C22.7187 24.1848 19.7151 25.8875 16.4635 26.1995C16.0973 26.2347 15.7324 26.2522 15.369 26.2521ZM10.997 4.07117C6.50497 6.10175 3.75334 10.7651 4.14622 15.6911C4.38937 18.7396 5.80909 21.5053 8.14398 23.4789C10.48 25.4537 13.432 26.3812 16.4547 26.091C19.6799 25.7815 22.6588 24.0934 24.6273 21.4596C25.1214 20.7985 25.2816 19.9642 25.0665 19.1706C24.8398 18.3337 24.2201 17.6661 23.4089 17.3848L16.625 15.0319C15.9115 14.7845 15.3312 14.2408 15.0326 13.5404L10.997 4.07117Z" fill="#FF3E00"/>
<path d="M15.5659 27.3332C12.5055 27.3332 9.61451 26.0107 7.42561 23.6094C5.23671 21.2081 4.03125 18.0366 4.03125 14.679C4.0297 12.0278 4.78792 9.44313 6.1987 7.29056C7.60948 5.13799 9.60141 3.52645 11.8928 2.68384L11.9398 2.6665L15.24 13.444C15.3559 13.8207 15.5412 14.1673 15.7844 14.4622C16.0276 14.7571 16.3235 14.9939 16.6537 15.1579L23.2248 18.4107C23.6195 18.6036 23.9665 18.897 24.2371 19.2665C24.5077 19.6361 24.6941 20.0711 24.7807 20.5355C24.871 20.9922 24.8607 21.466 24.7506 21.9176C24.6406 22.3691 24.4339 22.7853 24.1478 23.1316C23.0652 24.4521 21.7419 25.5084 20.2635 26.2322C18.7852 26.9559 17.1848 27.331 15.5659 27.3332ZM11.8774 2.80454C9.61707 3.6477 7.65432 5.24647 6.26484 7.37628C4.87536 9.50608 4.12897 12.0599 4.13051 14.679C4.13051 18.0073 5.32566 21.1515 7.49581 23.5322C9.66595 25.913 12.532 27.2242 15.5659 27.2242C17.1708 27.2221 18.7575 26.8502 20.2231 26.1327C21.6887 25.4151 23.0006 24.3679 24.0739 23.0588C24.3495 22.7252 24.5485 22.3242 24.6545 21.8893C24.7605 21.4543 24.7704 20.9979 24.6834 20.5579C24.6 20.1103 24.4204 19.691 24.1596 19.3348C23.8988 18.9787 23.5643 18.6959 23.184 18.5099L16.6129 15.2572C16.2703 15.087 15.9632 14.8412 15.7108 14.5353C15.4585 14.2293 15.2662 13.8696 15.1459 13.4787L11.8774 2.80454Z" fill="#FF3E00"/>
</g>
<defs>
<clipPath id="clip0_22_430">
<rect width="22" height="24.6667" fill="white" transform="translate(4 2.6665)"/>
</clipPath>
</defs>
</svg>
