<svg width="693" height="360" viewBox="0 0 693 360" fill="none" xmlns="http://www.w3.org/2000/svg">
<path d="M26.908 63V27.844H39.556V17.644H2.496V27.844H15.212V63H26.908ZM87.351 63V17.644H75.655V34.576H56.819V17.644H45.123V63H56.819V44.776H75.655V63H87.351ZM128.777 63V53.14H107.221V44.98H128.301V35.052H107.221V27.504H128.777V17.644H95.5253V63H128.777ZM152.967 44.64C152.967 55.792 159.495 63.816 174.047 63.816C188.599 63.816 195.059 55.86 195.059 44.572V17.644H183.159V44.232C183.159 49.604 180.303 53.48 174.047 53.48C167.723 53.48 164.867 49.604 164.867 44.232V17.644H152.967V44.64ZM233.156 63V52.8H214.932V17.644H203.236V63H233.156ZM254.283 63V27.844H266.931V17.644H229.871V27.844H242.587V63H254.283ZM284.194 63V17.644H272.498V63H284.194ZM343.829 63V17.644H327.577L318.057 43.348L308.605 17.644H292.353V63H304.049V32.4L315.473 63H320.641L332.133 32.4V63H343.829ZM396.05 63L378.914 17.644H364.226L347.158 63H359.874L362.186 56.132H381.022L383.334 63H396.05ZM377.962 46.272H365.246L371.57 27.844L377.962 46.272ZM417.045 63V27.844H429.693V17.644H392.633V27.844H405.349V63H417.045ZM468.512 63V53.14H446.956V44.98H468.036V35.052H446.956V27.504H468.512V17.644H435.26V63H468.512ZM1.816 139.608C6.372 143.96 12.764 146.816 21.944 146.816C34.116 146.816 40.848 140.764 40.848 131.652C40.848 121.384 30.512 119.208 23.032 117.644C18 116.692 15.212 115.876 15.212 113.496C15.212 111.524 16.708 109.96 20.584 109.96C24.596 109.96 29.56 111.524 33.368 114.652L39.76 106.288C34.932 102.14 28.608 99.964 21.332 99.964C9.704 99.964 3.244 106.56 3.244 114.176C3.244 124.92 13.716 126.824 21.196 128.32C26.024 129.34 28.948 130.36 28.948 132.944C28.948 135.12 26.5 136.82 22.488 136.82C16.3 136.82 11.268 134.1 8.004 130.836L1.816 139.608ZM44.0063 123.356C44.0063 137.16 54.4103 146.816 68.2823 146.816C82.1543 146.816 92.4903 137.16 92.4903 123.356C92.4903 109.552 82.1543 99.896 68.2823 99.896C54.4103 99.896 44.0063 109.552 44.0063 123.356ZM80.5903 123.356C80.5903 130.7 75.7623 136.48 68.2823 136.48C60.7343 136.48 55.9063 130.7 55.9063 123.356C55.9063 115.944 60.7343 110.232 68.2823 110.232C75.7623 110.232 80.5903 115.944 80.5903 123.356ZM128.301 146V135.8H110.077V100.644H98.3808V146H128.301ZM132.846 127.64C132.846 138.792 139.374 146.816 153.926 146.816C168.478 146.816 174.938 138.86 174.938 127.572V100.644H163.038V127.232C163.038 132.604 160.182 136.48 153.926 136.48C147.602 136.48 144.746 132.604 144.746 127.232V100.644H132.846V127.64ZM204.943 146V110.844H217.591V100.644H180.531V110.844H193.247V146H204.943ZM234.854 146V100.644H223.158V146H234.854ZM240.702 123.356C240.702 137.16 251.106 146.816 264.978 146.816C278.85 146.816 289.186 137.16 289.186 123.356C289.186 109.552 278.85 99.896 264.978 99.896C251.106 99.896 240.702 109.552 240.702 123.356ZM277.286 123.356C277.286 130.7 272.458 136.48 264.978 136.48C257.43 136.48 252.602 130.7 252.602 123.356C252.602 115.944 257.43 110.232 264.978 110.232C272.458 110.232 277.286 115.944 277.286 123.356ZM337.236 146V100.644H325.472V126.756L307.112 100.644H295.076V146H306.772V118.596L325.948 146H337.236ZM26.908 229V193.844H39.556V183.644H2.496V193.844H15.212V229H26.908ZM78.375 229V219.14H56.819V210.98H77.899V201.052H56.819V193.504H78.375V183.644H45.123V229H78.375ZM107.062 229.816C118.35 229.816 124.266 223.492 127.19 217.644L117.126 212.884C115.63 216.488 111.754 219.48 107.062 219.48C99.9899 219.48 94.7539 213.768 94.7539 206.356C94.7539 198.944 99.9899 193.232 107.062 193.232C111.754 193.232 115.63 196.224 117.126 199.828L127.19 195.068C124.198 189.084 118.35 182.896 107.062 182.896C93.4619 182.896 82.8539 192.348 82.8539 206.356C82.8539 220.296 93.4619 229.816 107.062 229.816ZM174.476 229V183.644H162.78V200.576H143.944V183.644H132.248V229H143.944V210.776H162.78V229H174.476ZM383.499 312L366.363 266.644H351.675L334.607 312H347.323L349.635 305.132H368.471L370.783 312H383.499ZM365.411 295.272H352.695L359.019 276.844L365.411 295.272ZM404.494 312V276.844H417.142V266.644H380.082V276.844H392.798V312H404.494ZM434.405 312V266.644H422.709V312H434.405ZM440.252 289.356C440.252 303.16 450.656 312.816 464.528 312.816C478.4 312.816 488.736 303.16 488.736 289.356C488.736 275.552 478.4 265.896 464.528 265.896C450.656 265.896 440.252 275.552 440.252 289.356ZM476.836 289.356C476.836 296.7 472.008 302.48 464.528 302.48C456.98 302.48 452.152 296.7 452.152 289.356C452.152 281.944 456.98 276.232 464.528 276.232C472.008 276.232 476.836 281.944 476.836 289.356ZM536.787 312V266.644H525.023V292.756L506.663 266.644H494.627V312H506.323V284.596L525.499 312H536.787Z" fill="#171717"/>
<path d="M374.506 146V127.98H395.586V118.052H374.506V110.504H396.062V100.644H362.81V146H374.506ZM400.077 123.356C400.077 137.16 410.481 146.816 424.353 146.816C438.225 146.816 448.561 137.16 448.561 123.356C448.561 109.552 438.225 99.896 424.353 99.896C410.481 99.896 400.077 109.552 400.077 123.356ZM436.661 123.356C436.661 130.7 431.833 136.48 424.353 136.48C416.805 136.48 411.977 130.7 411.977 123.356C411.977 115.944 416.805 110.232 424.353 110.232C431.833 110.232 436.661 115.944 436.661 123.356ZM493.143 146L483.895 129.34C488.111 127.844 492.939 123.628 492.939 115.74C492.939 107.308 487.227 100.644 477.163 100.644H454.451V146H466.147V130.632H472.131L479.747 146H493.143ZM481.039 115.604C481.039 118.732 478.455 120.704 475.395 120.704H466.147V110.504H475.395C478.455 110.504 481.039 112.476 481.039 115.604Z" fill="#171717" fill-opacity="0.59"/>
<path d="M221.877 229V193.844H234.525V183.644H197.465V193.844H210.181V229H221.877ZM273.344 229V219.14H251.788V210.98H272.868V201.052H251.788V193.504H273.344V183.644H240.092V229H273.344ZM324.199 229L307.063 183.644H292.375L275.307 229H288.023L290.335 222.132H309.171L311.483 229H324.199ZM306.111 212.272H293.395L299.719 193.844L306.111 212.272ZM379.025 229V183.644H362.773L353.253 209.348L343.801 183.644H327.549V229H339.245V198.4L350.669 229H355.837L367.329 198.4V229H379.025ZM49.144 312L32.008 266.644H17.32L0.252 312H12.968L15.28 305.132H34.116L36.428 312H49.144ZM31.056 295.272H18.34L24.664 276.844L31.056 295.272ZM49.9706 293.64C49.9706 304.792 56.4986 312.816 71.0506 312.816C85.6026 312.816 92.0626 304.86 92.0626 293.572V266.644H80.1626V293.232C80.1626 298.604 77.3066 302.48 71.0506 302.48C64.7266 302.48 61.8706 298.604 61.8706 293.232V266.644H49.9706V293.64ZM97.9282 289.356C97.9282 303.772 108.944 312.816 122.476 312.816C131.044 312.816 137.64 309.348 142.536 303.976V286.228H120.64V295.952H131.044V299.76C129.208 301.256 126.012 302.48 122.476 302.48C115.064 302.48 109.828 296.768 109.828 289.356C109.828 281.944 115.064 276.232 122.476 276.232C126.76 276.232 130.228 278.612 132.064 281.604L141.856 276.436C138.524 270.792 132.404 265.896 122.476 265.896C108.944 265.896 97.9282 274.94 97.9282 289.356ZM200.857 312V266.644H184.605L175.085 292.348L165.633 266.644H149.381V312H161.077V281.4L172.501 312H177.669L189.161 281.4V312H200.857ZM242.266 312V302.14H220.71V293.98H241.79V284.052H220.71V276.504H242.266V266.644H209.014V312H242.266ZM291.217 312V266.644H279.453V292.756L261.093 266.644H249.057V312H260.753V284.596L279.929 312H291.217ZM321.221 312V276.844H333.869V266.644H296.809V276.844H309.525V312H321.221Z" fill="#171717" fill-opacity="0.85"/>
<mask id="mask0_1436_4681" style="mask-type:alpha" maskUnits="userSpaceOnUse" x="0" y="17" width="537" height="296">
<path d="M26.908 63V27.844H39.556V17.644H2.496V27.844H15.212V63H26.908ZM87.351 63V17.644H75.655V34.576H56.819V17.644H45.123V63H56.819V44.776H75.655V63H87.351ZM128.777 63V53.14H107.221V44.98H128.301V35.052H107.221V27.504H128.777V17.644H95.5253V63H128.777ZM152.967 44.64C152.967 55.792 159.495 63.816 174.047 63.816C188.599 63.816 195.059 55.86 195.059 44.572V17.644H183.159V44.232C183.159 49.604 180.303 53.48 174.047 53.48C167.723 53.48 164.867 49.604 164.867 44.232V17.644H152.967V44.64ZM233.156 63V52.8H214.932V17.644H203.236V63H233.156ZM254.283 63V27.844H266.931V17.644H229.871V27.844H242.587V63H254.283ZM284.194 63V17.644H272.498V63H284.194ZM343.829 63V17.644H327.577L318.057 43.348L308.605 17.644H292.353V63H304.049V32.4L315.473 63H320.641L332.133 32.4V63H343.829ZM396.05 63L378.914 17.644H364.226L347.158 63H359.874L362.186 56.132H381.022L383.334 63H396.05ZM377.962 46.272H365.246L371.57 27.844L377.962 46.272ZM417.045 63V27.844H429.693V17.644H392.633V27.844H405.349V63H417.045ZM468.512 63V53.14H446.956V44.98H468.036V35.052H446.956V27.504H468.512V17.644H435.26V63H468.512ZM1.816 139.608C6.372 143.96 12.764 146.816 21.944 146.816C34.116 146.816 40.848 140.764 40.848 131.652C40.848 121.384 30.512 119.208 23.032 117.644C18 116.692 15.212 115.876 15.212 113.496C15.212 111.524 16.708 109.96 20.584 109.96C24.596 109.96 29.56 111.524 33.368 114.652L39.76 106.288C34.932 102.14 28.608 99.964 21.332 99.964C9.704 99.964 3.244 106.56 3.244 114.176C3.244 124.92 13.716 126.824 21.196 128.32C26.024 129.34 28.948 130.36 28.948 132.944C28.948 135.12 26.5 136.82 22.488 136.82C16.3 136.82 11.268 134.1 8.004 130.836L1.816 139.608ZM44.0063 123.356C44.0063 137.16 54.4103 146.816 68.2823 146.816C82.1543 146.816 92.4903 137.16 92.4903 123.356C92.4903 109.552 82.1543 99.896 68.2823 99.896C54.4103 99.896 44.0063 109.552 44.0063 123.356ZM80.5903 123.356C80.5903 130.7 75.7623 136.48 68.2823 136.48C60.7343 136.48 55.9063 130.7 55.9063 123.356C55.9063 115.944 60.7343 110.232 68.2823 110.232C75.7623 110.232 80.5903 115.944 80.5903 123.356ZM128.301 146V135.8H110.077V100.644H98.3808V146H128.301ZM132.846 127.64C132.846 138.792 139.374 146.816 153.926 146.816C168.478 146.816 174.938 138.86 174.938 127.572V100.644H163.038V127.232C163.038 132.604 160.182 136.48 153.926 136.48C147.602 136.48 144.746 132.604 144.746 127.232V100.644H132.846V127.64ZM204.943 146V110.844H217.591V100.644H180.531V110.844H193.247V146H204.943ZM234.854 146V100.644H223.158V146H234.854ZM240.702 123.356C240.702 137.16 251.106 146.816 264.978 146.816C278.85 146.816 289.186 137.16 289.186 123.356C289.186 109.552 278.85 99.896 264.978 99.896C251.106 99.896 240.702 109.552 240.702 123.356ZM277.286 123.356C277.286 130.7 272.458 136.48 264.978 136.48C257.43 136.48 252.602 130.7 252.602 123.356C252.602 115.944 257.43 110.232 264.978 110.232C272.458 110.232 277.286 115.944 277.286 123.356ZM337.236 146V100.644H325.472V126.756L307.112 100.644H295.076V146H306.772V118.596L325.948 146H337.236ZM383.499 312L366.363 266.644H351.675L334.607 312H347.323L349.635 305.132H368.471L370.783 312H383.499ZM365.411 295.272H352.695L359.019 276.844L365.411 295.272ZM404.494 312V276.844H417.142V266.644H380.082V276.844H392.798V312H404.494ZM434.405 312V266.644H422.709V312H434.405ZM440.252 289.356C440.252 303.16 450.656 312.816 464.528 312.816C478.4 312.816 488.736 303.16 488.736 289.356C488.736 275.552 478.4 265.896 464.528 265.896C450.656 265.896 440.252 275.552 440.252 289.356ZM476.836 289.356C476.836 296.7 472.008 302.48 464.528 302.48C456.98 302.48 452.152 296.7 452.152 289.356C452.152 281.944 456.98 276.232 464.528 276.232C472.008 276.232 476.836 281.944 476.836 289.356ZM536.787 312V266.644H525.023V292.756L506.663 266.644H494.627V312H506.323V284.596L525.499 312H536.787Z" fill="#171717"/>
<path d="M374.506 146V127.98H395.586V118.052H374.506V110.504H396.062V100.644H362.81V146H374.506ZM400.077 123.356C400.077 137.16 410.481 146.816 424.353 146.816C438.225 146.816 448.561 137.16 448.561 123.356C448.561 109.552 438.225 99.896 424.353 99.896C410.481 99.896 400.077 109.552 400.077 123.356ZM436.661 123.356C436.661 130.7 431.833 136.48 424.353 136.48C416.805 136.48 411.977 130.7 411.977 123.356C411.977 115.944 416.805 110.232 424.353 110.232C431.833 110.232 436.661 115.944 436.661 123.356ZM493.143 146L483.895 129.34C488.111 127.844 492.939 123.628 492.939 115.74C492.939 107.308 487.227 100.644 477.163 100.644H454.451V146H466.147V130.632H472.131L479.747 146H493.143ZM481.039 115.604C481.039 118.732 478.455 120.704 475.395 120.704H466.147V110.504H475.395C478.455 110.504 481.039 112.476 481.039 115.604Z" fill="#171717" fill-opacity="0.59"/>
<path d="M26.908 229V193.844H39.556V183.644H2.496V193.844H15.212V229H26.908ZM78.375 229V219.14H56.819V210.98H77.899V201.052H56.819V193.504H78.375V183.644H45.123V229H78.375ZM107.062 229.816C118.35 229.816 124.266 223.492 127.19 217.644L117.126 212.884C115.63 216.488 111.754 219.48 107.062 219.48C99.9899 219.48 94.7539 213.768 94.7539 206.356C94.7539 198.944 99.9899 193.232 107.062 193.232C111.754 193.232 115.63 196.224 117.126 199.828L127.19 195.068C124.198 189.084 118.35 182.896 107.062 182.896C93.4619 182.896 82.8539 192.348 82.8539 206.356C82.8539 220.296 93.4619 229.816 107.062 229.816ZM174.476 229V183.644H162.78V200.576H143.944V183.644H132.248V229H143.944V210.776H162.78V229H174.476ZM221.877 229V193.844H234.525V183.644H197.465V193.844H210.181V229H221.877ZM273.344 229V219.14H251.788V210.98H272.868V201.052H251.788V193.504H273.344V183.644H240.092V229H273.344ZM324.199 229L307.063 183.644H292.375L275.307 229H288.023L290.335 222.132H309.171L311.483 229H324.199ZM306.111 212.272H293.395L299.719 193.844L306.111 212.272ZM379.025 229V183.644H362.773L353.253 209.348L343.801 183.644H327.549V229H339.245V198.4L350.669 229H355.837L367.329 198.4V229H379.025ZM49.144 312L32.008 266.644H17.32L0.252 312H12.968L15.28 305.132H34.116L36.428 312H49.144ZM31.056 295.272H18.34L24.664 276.844L31.056 295.272ZM49.9706 293.64C49.9706 304.792 56.4986 312.816 71.0506 312.816C85.6026 312.816 92.0626 304.86 92.0626 293.572V266.644H80.1626V293.232C80.1626 298.604 77.3066 302.48 71.0506 302.48C64.7266 302.48 61.8706 298.604 61.8706 293.232V266.644H49.9706V293.64ZM97.9282 289.356C97.9282 303.772 108.944 312.816 122.476 312.816C131.044 312.816 137.64 309.348 142.536 303.976V286.228H120.64V295.952H131.044V299.76C129.208 301.256 126.012 302.48 122.476 302.48C115.064 302.48 109.828 296.768 109.828 289.356C109.828 281.944 115.064 276.232 122.476 276.232C126.76 276.232 130.228 278.612 132.064 281.604L141.856 276.436C138.524 270.792 132.404 265.896 122.476 265.896C108.944 265.896 97.9282 274.94 97.9282 289.356ZM200.857 312V266.644H184.605L175.085 292.348L165.633 266.644H149.381V312H161.077V281.4L172.501 312H177.669L189.161 281.4V312H200.857ZM242.266 312V302.14H220.71V293.98H241.79V284.052H220.71V276.504H242.266V266.644H209.014V312H242.266ZM291.217 312V266.644H279.453V292.756L261.093 266.644H249.057V312H260.753V284.596L279.929 312H291.217ZM321.221 312V276.844H333.869V266.644H296.809V276.844H309.525V312H321.221Z" fill="#171717" fill-opacity="0.85"/>
</mask>
<g mask="url(#mask0_1436_4681)">
<g filter="url(#filter0_f_1436_4681)">
<circle cx="425.279" cy="-32.7205" r="164.279" fill="url(#paint0_linear_1436_4681)"/>
</g>
<g filter="url(#filter1_f_1436_4681)">
<circle cx="97.2795" cy="340.72" r="164.279" fill="url(#paint1_linear_1436_4681)"/>
</g>
<g filter="url(#filter2_f_1436_4681)">
<circle cx="388.568" cy="294.042" r="75.6265" fill="url(#paint2_linear_1436_4681)"/>
</g>
<g filter="url(#filter3_f_1436_4681)">
<circle cx="36.127" cy="-0.0209579" r="103.127" fill="url(#paint3_linear_1436_4681)"/>
</g>
</g>
<mask id="mask1_1436_4681" style="mask-type:alpha" maskUnits="userSpaceOnUse" x="0" y="17" width="537" height="296">
<path d="M26.908 63V27.844H39.556V17.644H2.496V27.844H15.212V63H26.908ZM87.351 63V17.644H75.655V34.576H56.819V17.644H45.123V63H56.819V44.776H75.655V63H87.351ZM128.777 63V53.14H107.221V44.98H128.301V35.052H107.221V27.504H128.777V17.644H95.5253V63H128.777ZM152.967 44.64C152.967 55.792 159.495 63.816 174.047 63.816C188.599 63.816 195.059 55.86 195.059 44.572V17.644H183.159V44.232C183.159 49.604 180.303 53.48 174.047 53.48C167.723 53.48 164.867 49.604 164.867 44.232V17.644H152.967V44.64ZM233.156 63V52.8H214.932V17.644H203.236V63H233.156ZM254.283 63V27.844H266.931V17.644H229.871V27.844H242.587V63H254.283ZM284.194 63V17.644H272.498V63H284.194ZM343.829 63V17.644H327.577L318.057 43.348L308.605 17.644H292.353V63H304.049V32.4L315.473 63H320.641L332.133 32.4V63H343.829ZM396.05 63L378.914 17.644H364.226L347.158 63H359.874L362.186 56.132H381.022L383.334 63H396.05ZM377.962 46.272H365.246L371.57 27.844L377.962 46.272ZM417.045 63V27.844H429.693V17.644H392.633V27.844H405.349V63H417.045ZM468.512 63V53.14H446.956V44.98H468.036V35.052H446.956V27.504H468.512V17.644H435.26V63H468.512ZM1.816 139.608C6.372 143.96 12.764 146.816 21.944 146.816C34.116 146.816 40.848 140.764 40.848 131.652C40.848 121.384 30.512 119.208 23.032 117.644C18 116.692 15.212 115.876 15.212 113.496C15.212 111.524 16.708 109.96 20.584 109.96C24.596 109.96 29.56 111.524 33.368 114.652L39.76 106.288C34.932 102.14 28.608 99.964 21.332 99.964C9.704 99.964 3.244 106.56 3.244 114.176C3.244 124.92 13.716 126.824 21.196 128.32C26.024 129.34 28.948 130.36 28.948 132.944C28.948 135.12 26.5 136.82 22.488 136.82C16.3 136.82 11.268 134.1 8.004 130.836L1.816 139.608ZM44.0063 123.356C44.0063 137.16 54.4103 146.816 68.2823 146.816C82.1543 146.816 92.4903 137.16 92.4903 123.356C92.4903 109.552 82.1543 99.896 68.2823 99.896C54.4103 99.896 44.0063 109.552 44.0063 123.356ZM80.5903 123.356C80.5903 130.7 75.7623 136.48 68.2823 136.48C60.7343 136.48 55.9063 130.7 55.9063 123.356C55.9063 115.944 60.7343 110.232 68.2823 110.232C75.7623 110.232 80.5903 115.944 80.5903 123.356ZM128.301 146V135.8H110.077V100.644H98.3808V146H128.301ZM132.846 127.64C132.846 138.792 139.374 146.816 153.926 146.816C168.478 146.816 174.938 138.86 174.938 127.572V100.644H163.038V127.232C163.038 132.604 160.182 136.48 153.926 136.48C147.602 136.48 144.746 132.604 144.746 127.232V100.644H132.846V127.64ZM204.943 146V110.844H217.591V100.644H180.531V110.844H193.247V146H204.943ZM234.854 146V100.644H223.158V146H234.854ZM240.702 123.356C240.702 137.16 251.106 146.816 264.978 146.816C278.85 146.816 289.186 137.16 289.186 123.356C289.186 109.552 278.85 99.896 264.978 99.896C251.106 99.896 240.702 109.552 240.702 123.356ZM277.286 123.356C277.286 130.7 272.458 136.48 264.978 136.48C257.43 136.48 252.602 130.7 252.602 123.356C252.602 115.944 257.43 110.232 264.978 110.232C272.458 110.232 277.286 115.944 277.286 123.356ZM337.236 146V100.644H325.472V126.756L307.112 100.644H295.076V146H306.772V118.596L325.948 146H337.236ZM26.908 229V193.844H39.556V183.644H2.496V193.844H15.212V229H26.908ZM78.375 229V219.14H56.819V210.98H77.899V201.052H56.819V193.504H78.375V183.644H45.123V229H78.375ZM107.062 229.816C118.35 229.816 124.266 223.492 127.19 217.644L117.126 212.884C115.63 216.488 111.754 219.48 107.062 219.48C99.9899 219.48 94.7539 213.768 94.7539 206.356C94.7539 198.944 99.9899 193.232 107.062 193.232C111.754 193.232 115.63 196.224 117.126 199.828L127.19 195.068C124.198 189.084 118.35 182.896 107.062 182.896C93.4619 182.896 82.8539 192.348 82.8539 206.356C82.8539 220.296 93.4619 229.816 107.062 229.816ZM174.476 229V183.644H162.78V200.576H143.944V183.644H132.248V229H143.944V210.776H162.78V229H174.476ZM221.877 229V193.844H234.525V183.644H197.465V193.844H210.181V229H221.877ZM273.344 229V219.14H251.788V210.98H272.868V201.052H251.788V193.504H273.344V183.644H240.092V229H273.344ZM324.199 229L307.063 183.644H292.375L275.307 229H288.023L290.335 222.132H309.171L311.483 229H324.199ZM306.111 212.272H293.395L299.719 193.844L306.111 212.272ZM379.025 229V183.644H362.773L353.253 209.348L343.801 183.644H327.549V229H339.245V198.4L350.669 229H355.837L367.329 198.4V229H379.025ZM383.499 312L366.363 266.644H351.675L334.607 312H347.323L349.635 305.132H368.471L370.783 312H383.499ZM365.411 295.272H352.695L359.019 276.844L365.411 295.272ZM404.494 312V276.844H417.142V266.644H380.082V276.844H392.798V312H404.494ZM434.405 312V266.644H422.709V312H434.405ZM440.252 289.356C440.252 303.16 450.656 312.816 464.528 312.816C478.4 312.816 488.736 303.16 488.736 289.356C488.736 275.552 478.4 265.896 464.528 265.896C450.656 265.896 440.252 275.552 440.252 289.356ZM476.836 289.356C476.836 296.7 472.008 302.48 464.528 302.48C456.98 302.48 452.152 296.7 452.152 289.356C452.152 281.944 456.98 276.232 464.528 276.232C472.008 276.232 476.836 281.944 476.836 289.356ZM536.787 312V266.644H525.023V292.756L506.663 266.644H494.627V312H506.323V284.596L525.499 312H536.787Z" fill="#171717"/>
<path d="M374.506 146V127.98H395.586V118.052H374.506V110.504H396.062V100.644H362.81V146H374.506ZM400.077 123.356C400.077 137.16 410.481 146.816 424.353 146.816C438.225 146.816 448.561 137.16 448.561 123.356C448.561 109.552 438.225 99.896 424.353 99.896C410.481 99.896 400.077 109.552 400.077 123.356ZM436.661 123.356C436.661 130.7 431.833 136.48 424.353 136.48C416.805 136.48 411.977 130.7 411.977 123.356C411.977 115.944 416.805 110.232 424.353 110.232C431.833 110.232 436.661 115.944 436.661 123.356ZM493.143 146L483.895 129.34C488.111 127.844 492.939 123.628 492.939 115.74C492.939 107.308 487.227 100.644 477.163 100.644H454.451V146H466.147V130.632H472.131L479.747 146H493.143ZM481.039 115.604C481.039 118.732 478.455 120.704 475.395 120.704H466.147V110.504H475.395C478.455 110.504 481.039 112.476 481.039 115.604Z" fill="#171717" fill-opacity="0.59"/>
<path d="M49.144 312L32.008 266.644H17.32L0.252 312H12.968L15.28 305.132H34.116L36.428 312H49.144ZM31.056 295.272H18.34L24.664 276.844L31.056 295.272ZM49.9706 293.64C49.9706 304.792 56.4986 312.816 71.0506 312.816C85.6026 312.816 92.0626 304.86 92.0626 293.572V266.644H80.1626V293.232C80.1626 298.604 77.3066 302.48 71.0506 302.48C64.7266 302.48 61.8706 298.604 61.8706 293.232V266.644H49.9706V293.64ZM97.9282 289.356C97.9282 303.772 108.944 312.816 122.476 312.816C131.044 312.816 137.64 309.348 142.536 303.976V286.228H120.64V295.952H131.044V299.76C129.208 301.256 126.012 302.48 122.476 302.48C115.064 302.48 109.828 296.768 109.828 289.356C109.828 281.944 115.064 276.232 122.476 276.232C126.76 276.232 130.228 278.612 132.064 281.604L141.856 276.436C138.524 270.792 132.404 265.896 122.476 265.896C108.944 265.896 97.9282 274.94 97.9282 289.356ZM200.857 312V266.644H184.605L175.085 292.348L165.633 266.644H149.381V312H161.077V281.4L172.501 312H177.669L189.161 281.4V312H200.857ZM242.266 312V302.14H220.71V293.98H241.79V284.052H220.71V276.504H242.266V266.644H209.014V312H242.266ZM291.217 312V266.644H279.453V292.756L261.093 266.644H249.057V312H260.753V284.596L279.929 312H291.217ZM321.221 312V276.844H333.869V266.644H296.809V276.844H309.525V312H321.221Z" fill="#171717" fill-opacity="0.85"/>
</mask>
<g mask="url(#mask1_1436_4681)">
<g filter="url(#filter4_f_1436_4681)">
<circle cx="82" cy="88" r="122" fill="#FF3E00" fill-opacity="0.83"/>
</g>
<g filter="url(#filter5_f_1436_4681)">
<circle cx="532" cy="337" r="58" fill="#FDEB71" fill-opacity="0.6"/>
</g>
</g>
<circle cx="397.5" cy="359.5" r="0.5" fill="#C4C4C4"/>
<circle cx="397.5" cy="359.5" r="0.5" fill="#C4C4C4"/>
<circle cx="397.5" cy="359.5" r="0.5" fill="#C4C4C4"/>
<circle cx="397.5" cy="359.5" r="0.5" fill="#C4C4C4"/>
<circle cx="397.5" cy="359.5" r="0.5" fill="#C4C4C4"/>
<circle cx="397.5" cy="359.5" r="0.5" fill="#C4C4C4"/>
<circle cx="397.5" cy="359.5" r="0.5" fill="#C4C4C4"/>
<circle cx="397.5" cy="359.5" r="0.5" fill="#C4C4C4"/>
<circle cx="397.5" cy="359.5" r="0.5" fill="#C4C4C4"/>
<circle cx="397.5" cy="359.5" r="0.5" fill="#C4C4C4"/>
<circle cx="397.5" cy="359.5" r="0.5" fill="#C4C4C4"/>
<circle cx="397.5" cy="359.5" r="0.5" fill="#C4C4C4"/>
<circle cx="397.5" cy="359.5" r="0.5" fill="#C4C4C4"/>
<circle cx="397.5" cy="359.5" r="0.5" fill="#C4C4C4"/>
<circle cx="397.5" cy="359.5" r="0.5" fill="#C4C4C4"/>
<circle cx="397.5" cy="359.5" r="0.5" fill="#C4C4C4"/>
<circle cx="397.5" cy="359.5" r="0.5" fill="#C4C4C4"/>
<circle cx="397.5" cy="359.5" r="0.5" fill="#C4C4C4"/>
<circle cx="397.5" cy="359.5" r="0.5" fill="#C4C4C4"/>
<circle cx="397.5" cy="359.5" r="0.5" fill="#C4C4C4"/>
<circle cx="397.5" cy="359.5" r="0.5" fill="#C4C4C4"/>
<circle cx="397.5" cy="359.5" r="0.5" fill="#C4C4C4"/>
<circle cx="397.5" cy="359.5" r="0.5" fill="#C4C4C4"/>
<circle cx="397.5" cy="359.5" r="0.5" fill="#C4C4C4"/>
<circle cx="397.5" cy="359.5" r="0.5" fill="#C4C4C4"/>
<circle cx="397.5" cy="359.5" r="0.5" fill="#C4C4C4"/>
<circle cx="397.5" cy="359.5" r="0.5" fill="#C4C4C4"/>
<circle cx="397.5" cy="359.5" r="0.5" fill="#C4C4C4"/>
<circle cx="397.5" cy="359.5" r="0.5" fill="#C4C4C4"/>
<circle cx="397.5" cy="359.5" r="0.5" fill="#C4C4C4"/>
<circle cx="397.5" cy="359.5" r="0.5" fill="#C4C4C4"/>
<circle cx="397.5" cy="359.5" r="0.5" fill="#C4C4C4"/>
<circle cx="397.5" cy="359.5" r="0.5" fill="#C4C4C4"/>
<circle cx="397.5" cy="359.5" r="0.5" fill="#C4C4C4"/>
<circle cx="397.5" cy="359.5" r="0.5" fill="#C4C4C4"/>
<circle cx="397.5" cy="359.5" r="0.5" fill="#C4C4C4"/>
<circle cx="397.5" cy="359.5" r="0.5" fill="#C4C4C4"/>
<circle cx="397.5" cy="359.5" r="0.5" fill="#C4C4C4"/>
<circle cx="397.5" cy="359.5" r="0.5" fill="#C4C4C4"/>
<circle cx="397.5" cy="359.5" r="0.5" fill="#C4C4C4"/>
<circle cx="397.5" cy="359.5" r="0.5" fill="#C4C4C4"/>
<circle cx="397.5" cy="359.5" r="0.5" fill="#C4C4C4"/>
<circle cx="397.5" cy="359.5" r="0.5" fill="#C4C4C4"/>
<circle cx="397.5" cy="359.5" r="0.5" fill="#C4C4C4"/>
<circle cx="397.5" cy="359.5" r="0.5" fill="#C4C4C4"/>
<circle cx="397.5" cy="359.5" r="0.5" fill="#C4C4C4"/>
<circle cx="397.5" cy="359.5" r="0.5" fill="#C4C4C4"/>
<circle cx="397.5" cy="359.5" r="0.5" fill="#C4C4C4"/>
<circle cx="397.5" cy="359.5" r="0.5" fill="#C4C4C4"/>
<circle cx="397.5" cy="359.5" r="0.5" fill="#C4C4C4"/>
<circle cx="397.5" cy="359.5" r="0.5" fill="#C4C4C4"/>
<circle cx="397.5" cy="359.5" r="0.5" fill="#C4C4C4"/>
<circle cx="397.5" cy="359.5" r="0.5" fill="#C4C4C4"/>
<circle cx="397.5" cy="359.5" r="0.5" fill="#C4C4C4"/>
<circle cx="397.5" cy="359.5" r="0.5" fill="#C4C4C4"/>
<circle cx="397.5" cy="359.5" r="0.5" fill="#C4C4C4"/>
<circle cx="397.5" cy="359.5" r="0.5" fill="#C4C4C4"/>
<circle cx="397.5" cy="359.5" r="0.5" fill="#C4C4C4"/>
<circle cx="397.5" cy="359.5" r="0.5" fill="#C4C4C4"/>
<circle cx="397.5" cy="359.5" r="0.5" fill="#C4C4C4"/>
<circle cx="397.5" cy="359.5" r="0.5" fill="#C4C4C4"/>
<circle cx="397.5" cy="359.5" r="0.5" fill="#C4C4C4"/>
<circle cx="397.5" cy="359.5" r="0.5" fill="#C4C4C4"/>
<circle cx="397.5" cy="359.5" r="0.5" fill="#C4C4C4"/>
<circle cx="397.5" cy="359.5" r="0.5" fill="#C4C4C4"/>
<circle cx="397.5" cy="359.5" r="0.5" fill="#C4C4C4"/>
<circle cx="397.5" cy="359.5" r="0.5" fill="#C4C4C4"/>
<circle cx="397.5" cy="359.5" r="0.5" fill="#C4C4C4"/>
<circle cx="397.5" cy="359.5" r="0.5" fill="#C4C4C4"/>
<circle cx="397.5" cy="359.5" r="0.5" fill="#C4C4C4"/>
<circle cx="397.5" cy="359.5" r="0.5" fill="#C4C4C4"/>
<circle cx="397.5" cy="359.5" r="0.5" fill="#C4C4C4"/>
<circle cx="397.5" cy="359.5" r="0.5" fill="#C4C4C4"/>
<circle cx="397.5" cy="359.5" r="0.5" fill="#C4C4C4"/>
<circle cx="397.5" cy="359.5" r="0.5" fill="#C4C4C4"/>
<circle cx="397.5" cy="359.5" r="0.5" fill="#C4C4C4"/>
<circle cx="397.5" cy="359.5" r="0.5" fill="#C4C4C4"/>
<circle cx="397.5" cy="359.5" r="0.5" fill="#C4C4C4"/>
<circle cx="397.5" cy="359.5" r="0.5" fill="#C4C4C4"/>
<circle cx="397.5" cy="359.5" r="0.5" fill="#C4C4C4"/>
<circle cx="397.5" cy="359.5" r="0.5" fill="#C4C4C4"/>
<circle cx="397.5" cy="359.5" r="0.5" fill="#C4C4C4"/>
<circle cx="397.5" cy="359.5" r="0.5" fill="#C4C4C4"/>
<circle cx="397.5" cy="359.5" r="0.5" fill="#C4C4C4"/>
<circle cx="397.5" cy="359.5" r="0.5" fill="#C4C4C4"/>
<circle cx="397.5" cy="359.5" r="0.5" fill="#C4C4C4"/>
<circle cx="397.5" cy="359.5" r="0.5" fill="#C4C4C4"/>
<circle cx="397.5" cy="359.5" r="0.5" fill="#C4C4C4"/>
<circle cx="397.5" cy="359.5" r="0.5" fill="#C4C4C4"/>
<circle cx="397.5" cy="359.5" r="0.5" fill="#C4C4C4"/>
<circle cx="397.5" cy="359.5" r="0.5" fill="#C4C4C4"/>
<circle cx="397.5" cy="359.5" r="0.5" fill="#C4C4C4"/>
<circle cx="397.5" cy="359.5" r="0.5" fill="#C4C4C4"/>
<circle cx="397.5" cy="359.5" r="0.5" fill="#C4C4C4"/>
<circle cx="397.5" cy="359.5" r="0.5" fill="#C4C4C4"/>
<circle cx="397.5" cy="359.5" r="0.5" fill="#C4C4C4"/>
<circle cx="397.5" cy="359.5" r="0.5" fill="#C4C4C4"/>
<circle cx="397.5" cy="359.5" r="0.5" fill="#C4C4C4"/>
<circle cx="397.5" cy="359.5" r="0.5" fill="#C4C4C4"/>
<circle cx="397.5" cy="359.5" r="0.5" fill="#C4C4C4"/>
<circle cx="397.5" cy="359.5" r="0.5" fill="#C4C4C4"/>
<circle cx="397.5" cy="359.5" r="0.5" fill="#C4C4C4"/>
<circle cx="397.5" cy="359.5" r="0.5" fill="#C4C4C4"/>
<circle cx="397.5" cy="359.5" r="0.5" fill="#C4C4C4"/>
<circle cx="397.5" cy="359.5" r="0.5" fill="#C4C4C4"/>
<defs>
<filter id="filter0_f_1436_4681" x="221" y="-237" width="408.559" height="408.559" filterUnits="userSpaceOnUse" color-interpolation-filters="sRGB">
<feFlood flood-opacity="0" result="BackgroundImageFix"/>
<feBlend mode="normal" in="SourceGraphic" in2="BackgroundImageFix" result="shape"/>
<feGaussianBlur stdDeviation="20" result="effect1_foregroundBlur_1436_4681"/>
</filter>
<filter id="filter1_f_1436_4681" x="-167" y="76.4409" width="528.559" height="528.559" filterUnits="userSpaceOnUse" color-interpolation-filters="sRGB">
<feFlood flood-opacity="0" result="BackgroundImageFix"/>
<feBlend mode="normal" in="SourceGraphic" in2="BackgroundImageFix" result="shape"/>
<feGaussianBlur stdDeviation="50" result="effect1_foregroundBlur_1436_4681"/>
</filter>
<filter id="filter2_f_1436_4681" x="-87.0586" y="-181.584" width="951.253" height="951.253" filterUnits="userSpaceOnUse" color-interpolation-filters="sRGB">
<feFlood flood-opacity="0" result="BackgroundImageFix"/>
<feBlend mode="normal" in="SourceGraphic" in2="BackgroundImageFix" result="shape"/>
<feGaussianBlur stdDeviation="200" result="effect1_foregroundBlur_1436_4681"/>
</filter>
<filter id="filter3_f_1436_4681" x="-467" y="-503.148" width="1006.25" height="1006.25" filterUnits="userSpaceOnUse" color-interpolation-filters="sRGB">
<feFlood flood-opacity="0" result="BackgroundImageFix"/>
<feBlend mode="normal" in="SourceGraphic" in2="BackgroundImageFix" result="shape"/>
<feGaussianBlur stdDeviation="200" result="effect1_foregroundBlur_1436_4681"/>
</filter>
<filter id="filter4_f_1436_4681" x="-52" y="-46" width="268" height="268" filterUnits="userSpaceOnUse" color-interpolation-filters="sRGB">
<feFlood flood-opacity="0" result="BackgroundImageFix"/>
<feBlend mode="normal" in="SourceGraphic" in2="BackgroundImageFix" result="shape"/>
<feGaussianBlur stdDeviation="6" result="effect1_foregroundBlur_1436_4681"/>
</filter>
<filter id="filter5_f_1436_4681" x="434" y="239" width="196" height="196" filterUnits="userSpaceOnUse" color-interpolation-filters="sRGB">
<feFlood flood-opacity="0" result="BackgroundImageFix"/>
<feBlend mode="normal" in="SourceGraphic" in2="BackgroundImageFix" result="shape"/>
<feGaussianBlur stdDeviation="20" result="effect1_foregroundBlur_1436_4681"/>
</filter>
<linearGradient id="paint0_linear_1436_4681" x1="261" y1="-197" x2="589.559" y2="131.559" gradientUnits="userSpaceOnUse">
<stop stop-color="#F8D800"/>
<stop offset="1" stop-color="#DE4313"/>
</linearGradient>
<linearGradient id="paint1_linear_1436_4681" x1="-67" y1="176.441" x2="261.559" y2="505" gradientUnits="userSpaceOnUse">
<stop stop-color="#FEB692"/>
<stop offset="1" stop-color="#EA5455"/>
</linearGradient>
<linearGradient id="paint2_linear_1436_4681" x1="312.941" y1="218.416" x2="464.194" y2="369.668" gradientUnits="userSpaceOnUse">
<stop stop-color="#FFE985"/>
<stop offset="1" stop-color="#FA742B"/>
</linearGradient>
<linearGradient id="paint3_linear_1436_4681" x1="-67" y1="-103.148" x2="139.254" y2="103.106" gradientUnits="userSpaceOnUse">
<stop stop-color="#FDEB71"/>
<stop offset="1" stop-color="#F8D800"/>
</linearGradient>
</defs>
</svg>
