<svg width="598" height="129" viewBox="0 0 598 129" fill="none" xmlns="http://www.w3.org/2000/svg">
<path d="M4.37013 13H5.95413V33.88H30.6261V13H32.2101V49H30.6261V35.272H5.95413V49H4.37013V13ZM49.5516 48.232C51.2156 48.232 52.7996 47.8 54.3036 46.936C55.8076 46.072 57.0556 44.888 58.0476 43.384V45.832C56.8636 47.144 55.5676 48.104 54.1596 48.712C52.7516 49.288 51.1516 49.576 49.3596 49.576C47.3756 49.576 45.5036 49.048 43.7436 47.992C42.0156 46.936 40.6236 45.528 39.5676 43.768C38.5436 42.008 38.0316 40.136 38.0316 38.152C38.0316 36.008 38.5436 34.088 39.5676 32.392C40.5916 30.664 41.9836 29.32 43.7436 28.36C45.5356 27.4 47.5196 26.92 49.6956 26.92C53.0236 26.92 55.8556 28.232 58.1916 30.856L43.1196 45.736C44.1756 46.6 45.1996 47.24 46.1916 47.656C47.1836 48.04 48.3036 48.232 49.5516 48.232ZM39.5676 38.008C39.5676 40.664 40.4476 42.936 42.2076 44.824L56.2716 30.856C55.2156 29.928 54.1916 29.272 53.1996 28.888C52.2076 28.472 51.0236 28.264 49.6476 28.264C47.6956 28.264 45.9516 28.696 44.4156 29.56C42.9116 30.392 41.7276 31.544 40.8636 33.016C39.9996 34.488 39.5676 36.152 39.5676 38.008ZM62.9928 27.4H64.5288V32.392C65.1688 30.824 66.0968 29.592 67.3128 28.696C68.5608 27.8 69.9688 27.352 71.5368 27.352C72.5288 27.352 73.5368 27.56 74.5608 27.976V29.752C73.6328 29.048 72.5928 28.696 71.4408 28.696C70.2888 28.696 69.1688 29.048 68.0808 29.752C67.0248 30.456 66.1608 31.4 65.4888 32.584C64.8488 33.768 64.5288 35.032 64.5288 36.376V49H62.9928V27.4ZM87.4266 48.232C89.0906 48.232 90.6746 47.8 92.1786 46.936C93.6826 46.072 94.9306 44.888 95.9226 43.384V45.832C94.7386 47.144 93.4426 48.104 92.0346 48.712C90.6266 49.288 89.0266 49.576 87.2346 49.576C85.2506 49.576 83.3786 49.048 81.6186 47.992C79.8906 46.936 78.4986 45.528 77.4426 43.768C76.4186 42.008 75.9066 40.136 75.9066 38.152C75.9066 36.008 76.4186 34.088 77.4426 32.392C78.4666 30.664 79.8586 29.32 81.6186 28.36C83.4106 27.4 85.3946 26.92 87.5706 26.92C90.8986 26.92 93.7306 28.232 96.0666 30.856L80.9946 45.736C82.0506 46.6 83.0746 47.24 84.0666 47.656C85.0586 48.04 86.1786 48.232 87.4266 48.232ZM77.4426 38.008C77.4426 40.664 78.3226 42.936 80.0826 44.824L94.1466 30.856C93.0906 29.928 92.0666 29.272 91.0746 28.888C90.0826 28.472 88.8986 28.264 87.5226 28.264C85.5706 28.264 83.8266 28.696 82.2906 29.56C80.7866 30.392 79.6026 31.544 78.7386 33.016C77.8746 34.488 77.4426 36.152 77.4426 38.008ZM98.1063 20.056C99.9943 19.192 100.938 17.72 100.938 15.64V10.12H102.666V15.64C102.666 17.144 102.25 18.44 101.418 19.528C100.586 20.584 99.4823 21.32 98.1063 21.736V20.056ZM115.709 49.528C114.173 49.528 112.813 49.272 111.629 48.76C110.445 48.216 109.597 47.528 109.085 46.696V44.152C109.693 45.528 110.525 46.552 111.581 47.224C112.637 47.864 113.981 48.184 115.613 48.184C117.181 48.184 118.445 47.704 119.405 46.744C120.365 45.752 120.845 44.488 120.845 42.952C120.845 41.64 120.573 40.632 120.029 39.928C119.485 39.192 118.605 38.456 117.389 37.72L115.565 36.664C114.253 35.864 113.261 35.24 112.589 34.792C111.949 34.312 111.437 33.784 111.053 33.208C110.669 32.6 110.477 31.896 110.477 31.096C110.477 29.816 110.925 28.792 111.821 28.024C112.717 27.256 113.885 26.872 115.325 26.872C117.085 26.872 118.557 27.272 119.741 28.072V30.184C118.749 28.872 117.325 28.216 115.469 28.216C114.445 28.216 113.613 28.472 112.973 28.984C112.333 29.496 112.013 30.152 112.013 30.952C112.013 31.656 112.205 32.28 112.589 32.824C112.973 33.336 113.501 33.816 114.173 34.264C114.877 34.712 116.029 35.384 117.629 36.28C119.261 37.208 120.461 38.168 121.229 39.16C121.997 40.12 122.381 41.384 122.381 42.952C122.381 44.936 121.725 46.536 120.413 47.752C119.133 48.936 117.565 49.528 115.709 49.528ZM155.136 49.528L150.24 39.064L145.296 49.528L134.928 27.4H136.512L145.344 46.168L149.52 37.384L144.912 27.496H146.448L150.288 35.848L154.224 27.4H155.76L151.056 37.432L155.136 46.216L163.824 27.448H165.36L155.136 49.528ZM168.602 13H170.138V31.864C170.81 30.424 171.946 29.24 173.546 28.312C175.178 27.352 176.826 26.872 178.49 26.872C181.53 26.872 183.866 27.704 185.498 29.368C187.162 31.032 187.994 33.384 187.994 36.424V49H186.458V36.424C186.458 33.8 185.754 31.784 184.346 30.376C182.97 28.936 181.018 28.216 178.49 28.216C176.954 28.216 175.546 28.584 174.266 29.32C172.986 30.024 171.978 31.016 171.242 32.296C170.506 33.544 170.138 34.92 170.138 36.424V49H168.602V13ZM204.231 49.528C202.183 49.528 200.279 49.016 198.519 47.992C196.759 46.968 195.367 45.592 194.343 43.864C193.319 42.104 192.807 40.216 192.807 38.2C192.807 36.184 193.319 34.312 194.343 32.584C195.367 30.824 196.759 29.432 198.519 28.408C200.279 27.384 202.183 26.872 204.231 26.872C206.311 26.872 208.279 27.432 210.135 28.552C211.991 29.64 213.287 31.064 214.023 32.824V27.4H215.559V49H214.023V43.624C213.159 45.416 211.815 46.856 209.991 47.944C208.199 49 206.279 49.528 204.231 49.528ZM204.327 48.184C206.087 48.184 207.719 47.736 209.223 46.84C210.727 45.912 211.911 44.696 212.775 43.192C213.671 41.656 214.119 39.992 214.119 38.2C214.119 36.44 213.671 34.792 212.775 33.256C211.879 31.72 210.679 30.504 209.175 29.608C207.671 28.68 206.039 28.216 204.279 28.216C202.519 28.216 200.871 28.68 199.335 29.608C197.831 30.536 196.615 31.768 195.687 33.304C194.791 34.84 194.343 36.488 194.343 38.248C194.343 40.008 194.791 41.656 195.687 43.192C196.615 44.696 197.847 45.912 199.383 46.84C200.919 47.736 202.567 48.184 204.327 48.184ZM229.346 49.288C226.978 49.288 225.01 48.568 223.442 47.128C221.906 45.688 221.138 43.704 221.138 41.176V18.712H222.674V27.4H229.298V28.744H222.674V41.176C222.674 43.288 223.298 44.952 224.546 46.168C225.826 47.352 227.426 47.944 229.346 47.944V49.288ZM254.202 49.768C252.026 49.768 250.058 49.24 248.298 48.184C246.538 47.096 245.162 45.672 244.17 43.912C243.178 42.12 242.682 40.184 242.682 38.104C242.682 36.056 243.178 34.152 244.17 32.392C245.194 30.632 246.57 29.24 248.298 28.216C250.058 27.16 252.01 26.632 254.154 26.632C256.266 26.632 258.186 27.16 259.914 28.216C261.674 29.24 263.05 30.632 264.042 32.392C265.034 34.152 265.53 36.056 265.53 38.104C265.53 40.248 265.05 42.216 264.09 44.008C263.13 45.768 261.786 47.176 260.058 48.232C258.362 49.256 256.41 49.768 254.202 49.768ZM254.202 48.424C256.026 48.424 257.69 47.96 259.194 47.032C260.698 46.104 261.866 44.872 262.698 43.336C263.562 41.768 263.994 40.056 263.994 38.2C263.994 36.376 263.562 34.68 262.698 33.112C261.834 31.544 260.65 30.296 259.146 29.368C257.642 28.44 255.978 27.976 254.154 27.976C252.33 27.976 250.65 28.456 249.114 29.416C247.61 30.344 246.41 31.592 245.514 33.16C244.65 34.728 244.218 36.424 244.218 38.248C244.218 40.072 244.65 41.768 245.514 43.336C246.41 44.872 247.61 46.104 249.114 47.032C250.65 47.96 252.346 48.424 254.202 48.424ZM279.825 49.528C276.785 49.528 274.433 48.696 272.769 47.032C271.137 45.368 270.321 43.016 270.321 39.976V27.4H271.857V39.976C271.857 42.6 272.545 44.632 273.921 46.072C275.329 47.48 277.297 48.184 279.825 48.184C281.361 48.184 282.769 47.848 284.049 47.176C285.329 46.472 286.337 45.496 287.073 44.248C287.809 43 288.177 41.576 288.177 39.976V27.4H289.713V49H288.177V44.968C287.441 46.312 286.337 47.416 284.865 48.28C283.393 49.112 281.713 49.528 279.825 49.528ZM295.774 27.4H297.31V32.392C297.95 30.824 298.878 29.592 300.094 28.696C301.342 27.8 302.75 27.352 304.318 27.352C305.31 27.352 306.318 27.56 307.342 27.976V29.752C306.414 29.048 305.374 28.696 304.222 28.696C303.07 28.696 301.95 29.048 300.862 29.752C299.806 30.456 298.942 31.4 298.27 32.584C297.63 33.768 297.31 35.032 297.31 36.376V49H295.774V27.4ZM332.208 48.232C333.872 48.232 335.456 47.8 336.96 46.936C338.464 46.072 339.712 44.888 340.704 43.384V45.832C339.52 47.144 338.224 48.104 336.816 48.712C335.408 49.288 333.808 49.576 332.016 49.576C330.032 49.576 328.16 49.048 326.4 47.992C324.672 46.936 323.28 45.528 322.224 43.768C321.2 42.008 320.688 40.136 320.688 38.152C320.688 36.008 321.2 34.088 322.224 32.392C323.248 30.664 324.64 29.32 326.4 28.36C328.192 27.4 330.176 26.92 332.352 26.92C335.68 26.92 338.512 28.232 340.848 30.856L325.776 45.736C326.832 46.6 327.856 47.24 328.848 47.656C329.84 48.04 330.96 48.232 332.208 48.232ZM322.224 38.008C322.224 40.664 323.104 42.936 324.864 44.824L338.928 30.856C337.872 29.928 336.848 29.272 335.856 28.888C334.864 28.472 333.68 28.264 332.304 28.264C330.352 28.264 328.608 28.696 327.072 29.56C325.568 30.392 324.384 31.544 323.52 33.016C322.656 34.488 322.224 36.152 322.224 38.008ZM359.928 49L352.056 37.144L344.28 49H342.744L351.144 36.232L345.288 27.4H347.064L352.008 34.888L356.904 27.4H358.44L352.92 35.8L361.704 49H359.928ZM367.443 22.456C366.995 22.456 366.595 22.296 366.243 21.976C365.923 21.656 365.763 21.256 365.763 20.776C365.763 20.328 365.923 19.944 366.243 19.624C366.595 19.304 366.995 19.144 367.443 19.144C367.891 19.144 368.275 19.304 368.595 19.624C368.947 19.944 369.123 20.328 369.123 20.776C369.123 21.256 368.947 21.656 368.595 21.976C368.275 22.296 367.891 22.456 367.443 22.456ZM366.675 27.4H368.211V49H366.675V27.4ZM380.6 49.528C379.064 49.528 377.704 49.272 376.52 48.76C375.336 48.216 374.488 47.528 373.976 46.696V44.152C374.584 45.528 375.416 46.552 376.472 47.224C377.528 47.864 378.872 48.184 380.504 48.184C382.072 48.184 383.336 47.704 384.296 46.744C385.256 45.752 385.736 44.488 385.736 42.952C385.736 41.64 385.464 40.632 384.92 39.928C384.376 39.192 383.496 38.456 382.28 37.72L380.456 36.664C379.144 35.864 378.152 35.24 377.48 34.792C376.84 34.312 376.328 33.784 375.944 33.208C375.56 32.6 375.368 31.896 375.368 31.096C375.368 29.816 375.816 28.792 376.712 28.024C377.608 27.256 378.776 26.872 380.216 26.872C381.976 26.872 383.448 27.272 384.632 28.072V30.184C383.64 28.872 382.216 28.216 380.36 28.216C379.336 28.216 378.504 28.472 377.864 28.984C377.224 29.496 376.904 30.152 376.904 30.952C376.904 31.656 377.096 32.28 377.48 32.824C377.864 33.336 378.392 33.816 379.064 34.264C379.768 34.712 380.92 35.384 382.52 36.28C384.152 37.208 385.352 38.168 386.12 39.16C386.888 40.12 387.272 41.384 387.272 42.952C387.272 44.936 386.616 46.536 385.304 47.752C384.024 48.936 382.456 49.528 380.6 49.528ZM399.783 49.288C397.415 49.288 395.447 48.568 393.879 47.128C392.343 45.688 391.575 43.704 391.575 41.176V18.712H393.111V27.4H399.735V28.744H393.111V41.176C393.111 43.288 393.735 44.952 394.983 46.168C396.263 47.352 397.863 47.944 399.783 47.944V49.288ZM405.693 22.456C405.245 22.456 404.845 22.296 404.493 21.976C404.173 21.656 404.013 21.256 404.013 20.776C404.013 20.328 404.173 19.944 404.493 19.624C404.845 19.304 405.245 19.144 405.693 19.144C406.141 19.144 406.525 19.304 406.845 19.624C407.197 19.944 407.373 20.328 407.373 20.776C407.373 21.256 407.197 21.656 406.845 21.976C406.525 22.296 406.141 22.456 405.693 22.456ZM404.925 27.4H406.461V49H404.925V27.4ZM413.618 27.4H415.154V32.2C415.858 30.6 417.058 29.32 418.754 28.36C420.45 27.368 422.322 26.872 424.37 26.872C427.026 26.872 429.122 27.72 430.658 29.416C432.226 31.08 433.01 33.416 433.01 36.424V49H431.474V36.424C431.474 33.832 430.834 31.816 429.554 30.376C428.306 28.936 426.546 28.216 424.274 28.216C422.61 28.216 421.074 28.6 419.666 29.368C418.29 30.104 417.186 31.128 416.354 32.44C415.554 33.752 415.154 35.24 415.154 36.904V49H413.618V27.4ZM449.487 58.984C447.663 58.984 445.887 58.568 444.159 57.736C442.431 56.904 441.087 55.816 440.127 54.472V52.264C440.959 53.8 442.255 55.08 444.015 56.104C445.807 57.128 447.631 57.64 449.487 57.64C452.559 57.64 454.927 56.728 456.591 54.904C458.255 53.112 459.087 50.472 459.087 46.984V43.768C458.223 45.496 456.863 46.904 455.007 47.992C453.183 49.048 451.263 49.576 449.247 49.576C447.199 49.576 445.295 49.064 443.535 48.04C441.775 47.016 440.383 45.64 439.359 43.912C438.335 42.152 437.823 40.264 437.823 38.248C437.823 36.232 438.335 34.36 439.359 32.632C440.383 30.872 441.775 29.48 443.535 28.456C445.295 27.432 447.199 26.92 449.247 26.92C451.359 26.92 453.311 27.448 455.103 28.504C456.895 29.56 458.223 30.984 459.087 32.776V27.4H460.623V46.984C460.623 50.92 459.663 53.896 457.743 55.912C455.855 57.96 453.103 58.984 449.487 58.984ZM449.343 48.232C451.103 48.232 452.735 47.784 454.239 46.888C455.743 45.96 456.927 44.744 457.791 43.24C458.687 41.704 459.135 40.04 459.135 38.248C459.135 36.456 458.687 34.808 457.791 33.304C456.927 31.768 455.743 30.552 454.239 29.656C452.735 28.728 451.103 28.264 449.343 28.264C447.551 28.264 445.887 28.728 444.351 29.656C442.847 30.552 441.631 31.768 440.703 33.304C439.807 34.808 439.359 36.456 439.359 38.248C439.359 40.04 439.807 41.704 440.703 43.24C441.631 44.744 442.847 45.96 444.351 46.888C445.887 47.784 447.551 48.232 449.343 48.232ZM487.403 49.624C485.323 49.624 483.403 49.128 481.643 48.136C479.915 47.144 478.539 45.784 477.515 44.056C476.491 42.328 475.979 40.376 475.979 38.2C475.979 36.184 476.491 34.328 477.515 32.632C478.539 30.904 479.931 29.528 481.691 28.504C483.483 27.48 485.451 26.968 487.595 26.968C489.387 26.968 490.923 27.256 492.203 27.832C493.483 28.408 494.731 29.304 495.947 30.52V33.112C494.891 31.544 493.707 30.36 492.395 29.56C491.115 28.728 489.515 28.312 487.595 28.312C485.835 28.312 484.171 28.776 482.603 29.704C481.067 30.6 479.835 31.816 478.907 33.352C477.979 34.888 477.515 36.536 477.515 38.296C477.515 40.216 477.963 41.944 478.859 43.48C479.755 44.984 480.955 46.168 482.459 47.032C483.995 47.864 485.643 48.28 487.403 48.28C490.987 48.28 493.835 46.664 495.947 43.432V46.024C494.795 47.24 493.515 48.152 492.107 48.76C490.731 49.336 489.163 49.624 487.403 49.624ZM508.404 49.432C506.9 49.432 505.524 49.096 504.276 48.424C503.028 47.72 502.036 46.744 501.3 45.496C500.564 44.248 500.196 42.856 500.196 41.32V13H501.732V41.32C501.732 42.6 502.02 43.752 502.596 44.776C503.204 45.8 504.02 46.616 505.044 47.224C506.068 47.8 507.188 48.088 508.404 48.088V49.432ZM515.24 22.456C514.792 22.456 514.392 22.296 514.04 21.976C513.72 21.656 513.56 21.256 513.56 20.776C513.56 20.328 513.72 19.944 514.04 19.624C514.392 19.304 514.792 19.144 515.24 19.144C515.688 19.144 516.072 19.304 516.392 19.624C516.744 19.944 516.92 20.328 516.92 20.776C516.92 21.256 516.744 21.656 516.392 21.976C516.072 22.296 515.688 22.456 515.24 22.456ZM514.472 27.4H516.008V49H514.472V27.4ZM533.677 48.232C535.341 48.232 536.925 47.8 538.429 46.936C539.933 46.072 541.181 44.888 542.173 43.384V45.832C540.989 47.144 539.693 48.104 538.285 48.712C536.877 49.288 535.277 49.576 533.485 49.576C531.501 49.576 529.629 49.048 527.869 47.992C526.141 46.936 524.749 45.528 523.693 43.768C522.669 42.008 522.157 40.136 522.157 38.152C522.157 36.008 522.669 34.088 523.693 32.392C524.717 30.664 526.109 29.32 527.869 28.36C529.661 27.4 531.645 26.92 533.821 26.92C537.149 26.92 539.981 28.232 542.317 30.856L527.245 45.736C528.301 46.6 529.325 47.24 530.317 47.656C531.309 48.04 532.429 48.232 533.677 48.232ZM523.693 38.008C523.693 40.664 524.573 42.936 526.333 44.824L540.397 30.856C539.341 29.928 538.317 29.272 537.325 28.888C536.333 28.472 535.149 28.264 533.773 28.264C531.821 28.264 530.077 28.696 528.541 29.56C527.037 30.392 525.853 31.544 524.989 33.016C524.125 34.488 523.693 36.152 523.693 38.008ZM547.118 27.4H548.654V32.2C549.358 30.6 550.558 29.32 552.254 28.36C553.95 27.368 555.822 26.872 557.87 26.872C560.526 26.872 562.622 27.72 564.158 29.416C565.726 31.08 566.51 33.416 566.51 36.424V49H564.974V36.424C564.974 33.832 564.334 31.816 563.054 30.376C561.806 28.936 560.046 28.216 557.774 28.216C556.11 28.216 554.574 28.6 553.166 29.368C551.79 30.104 550.686 31.128 549.854 32.44C549.054 33.752 548.654 35.24 548.654 36.904V49H547.118V27.4ZM580.299 49.288C577.931 49.288 575.963 48.568 574.395 47.128C572.859 45.688 572.091 43.704 572.091 41.176V18.712H573.627V27.4H580.251V28.744H573.627V41.176C573.627 43.288 574.251 44.952 575.499 46.168C576.779 47.352 578.379 47.944 580.299 47.944V49.288ZM589.569 49.528C588.033 49.528 586.673 49.272 585.489 48.76C584.305 48.216 583.457 47.528 582.945 46.696V44.152C583.553 45.528 584.385 46.552 585.441 47.224C586.497 47.864 587.841 48.184 589.473 48.184C591.041 48.184 592.305 47.704 593.265 46.744C594.225 45.752 594.705 44.488 594.705 42.952C594.705 41.64 594.433 40.632 593.889 39.928C593.345 39.192 592.465 38.456 591.249 37.72L589.425 36.664C588.113 35.864 587.121 35.24 586.449 34.792C585.809 34.312 585.297 33.784 584.913 33.208C584.529 32.6 584.337 31.896 584.337 31.096C584.337 29.816 584.785 28.792 585.681 28.024C586.577 27.256 587.745 26.872 589.185 26.872C590.945 26.872 592.417 27.272 593.601 28.072V30.184C592.609 28.872 591.185 28.216 589.329 28.216C588.305 28.216 587.473 28.472 586.833 28.984C586.193 29.496 585.873 30.152 585.873 30.952C585.873 31.656 586.065 32.28 586.449 32.824C586.833 33.336 587.361 33.816 588.033 34.264C588.737 34.712 589.889 35.384 591.489 36.28C593.121 37.208 594.321 38.168 595.089 39.16C595.857 40.12 596.241 41.384 596.241 42.952C596.241 44.936 595.585 46.536 594.273 47.752C592.993 48.936 591.425 49.528 589.569 49.528ZM76.1148 112V95.632C76.1148 90.592 73.5708 88.24 68.7228 88.24C65.2188 88.24 62.0508 90.256 60.4188 92.176V79.984H56.8188V112H60.4188V95.056C61.8108 93.184 64.4988 91.456 67.2828 91.456C70.4028 91.456 72.5148 92.656 72.5148 96.736V112H76.1148ZM101.399 112V96.064C101.399 90.448 97.3191 88.24 92.4231 88.24C88.6311 88.24 85.6551 89.488 83.1591 92.08L84.8391 94.576C86.9031 92.368 89.1591 91.36 91.9431 91.36C95.3031 91.36 97.7991 93.136 97.7991 96.256V100.432C95.9271 98.272 93.2871 97.264 90.1191 97.264C86.1831 97.264 82.0071 99.712 82.0071 104.896C82.0071 109.936 86.1831 112.576 90.1191 112.576C93.2391 112.576 95.8791 111.472 97.7991 109.36V112H101.399ZM91.4151 109.984C88.0551 109.984 85.7031 107.872 85.7031 104.944C85.7031 101.968 88.0551 99.856 91.4151 99.856C93.9591 99.856 96.4071 100.816 97.7991 102.736V107.104C96.4071 109.024 93.9591 109.984 91.4151 109.984ZM118.744 112L128.392 88.816H124.456L116.776 107.824L109.048 88.816H105.16L114.808 112H118.744ZM142.611 112.576C146.403 112.576 149.523 111.328 151.827 109.024L150.099 106.672C148.275 108.544 145.587 109.6 142.947 109.6C137.955 109.6 134.883 105.952 134.595 101.584H153.363V100.672C153.363 93.712 149.235 88.24 142.227 88.24C135.603 88.24 130.803 93.664 130.803 100.384C130.803 107.632 135.747 112.576 142.611 112.576ZM149.811 98.944H134.595C134.787 95.392 137.235 91.216 142.179 91.216C147.459 91.216 149.763 95.488 149.811 98.944ZM178.913 112.576C184.913 112.576 188.033 109.456 188.033 105.568C188.033 96.544 173.681 99.904 173.681 94.816C173.681 92.752 175.649 91.168 178.817 91.168C181.793 91.168 184.337 92.416 185.729 94.096L187.409 91.6C185.537 89.728 182.753 88.24 178.817 88.24C173.297 88.24 170.177 91.312 170.177 94.912C170.177 103.504 184.529 100.048 184.529 105.664C184.529 107.968 182.609 109.648 179.057 109.648C175.889 109.648 172.961 108.112 171.425 106.336L169.553 108.928C171.905 111.424 175.121 112.576 178.913 112.576ZM211.977 112V96.064C211.977 90.448 207.897 88.24 203.001 88.24C199.209 88.24 196.233 89.488 193.737 92.08L195.417 94.576C197.481 92.368 199.737 91.36 202.521 91.36C205.881 91.36 208.377 93.136 208.377 96.256V100.432C206.505 98.272 203.865 97.264 200.697 97.264C196.761 97.264 192.585 99.712 192.585 104.896C192.585 109.936 196.761 112.576 200.697 112.576C203.817 112.576 206.457 111.472 208.377 109.36V112H211.977ZM201.993 109.984C198.633 109.984 196.281 107.872 196.281 104.944C196.281 101.968 198.633 99.856 201.993 99.856C204.537 99.856 206.985 100.816 208.377 102.736V107.104C206.985 109.024 204.537 109.984 201.993 109.984ZM220.97 85.504C222.314 85.504 223.418 84.448 223.418 83.104C223.418 81.76 222.314 80.656 220.97 80.656C219.674 80.656 218.57 81.76 218.57 83.104C218.57 84.448 219.674 85.504 220.97 85.504ZM222.794 112V88.816H219.194V112H222.794ZM250.375 112V79.984H246.775V92.32C244.903 89.776 242.071 88.24 238.951 88.24C232.855 88.24 228.631 93.04 228.631 100.432C228.631 107.968 232.903 112.576 238.951 112.576C242.215 112.576 245.047 110.896 246.775 108.544V112H250.375ZM239.815 109.36C235.159 109.36 232.375 105.568 232.375 100.432C232.375 95.296 235.159 91.456 239.815 91.456C242.695 91.456 245.479 93.184 246.775 95.2V105.712C245.479 107.728 242.695 109.36 239.815 109.36ZM288.055 112V96.064C288.055 90.448 283.975 88.24 279.079 88.24C275.287 88.24 272.311 89.488 269.815 92.08L271.495 94.576C273.559 92.368 275.815 91.36 278.599 91.36C281.959 91.36 284.455 93.136 284.455 96.256V100.432C282.583 98.272 279.943 97.264 276.775 97.264C272.839 97.264 268.663 99.712 268.663 104.896C268.663 109.936 272.839 112.576 276.775 112.576C279.895 112.576 282.535 111.472 284.455 109.36V112H288.055ZM278.071 109.984C274.711 109.984 272.359 107.872 272.359 104.944C272.359 101.968 274.711 99.856 278.071 99.856C280.615 99.856 283.063 100.816 284.455 102.736V107.104C283.063 109.024 280.615 109.984 278.071 109.984ZM298.872 105.712V95.2C300.12 93.184 302.952 91.456 305.784 91.456C310.488 91.456 313.272 95.296 313.272 100.432C313.272 105.568 310.488 109.36 305.784 109.36C302.952 109.36 300.12 107.728 298.872 105.712ZM298.872 112V108.544C300.6 110.896 303.432 112.576 306.696 112.576C312.744 112.576 317.016 107.968 317.016 100.432C317.016 93.04 312.744 88.24 306.696 88.24C303.528 88.24 300.744 89.776 298.872 92.32V79.984H295.272V112H298.872ZM333.009 112.576C340.065 112.576 344.481 107.104 344.481 100.384C344.481 93.664 340.065 88.24 333.009 88.24C325.953 88.24 321.537 93.664 321.537 100.384C321.537 107.104 325.953 112.576 333.009 112.576ZM333.009 109.36C328.065 109.36 325.281 105.136 325.281 100.384C325.281 95.68 328.065 91.456 333.009 91.456C337.953 91.456 340.689 95.68 340.689 100.384C340.689 105.136 337.953 109.36 333.009 109.36ZM369.598 112V88.816H365.998V105.856C364.654 107.728 361.966 109.36 359.134 109.36C356.014 109.36 353.95 108.16 353.95 104.08V88.816H350.35V105.184C350.35 110.224 352.894 112.576 357.742 112.576C361.198 112.576 364.222 110.752 365.998 108.736V112H369.598ZM382.644 112.576C384.756 112.576 386.052 111.952 386.964 111.088L385.908 108.4C385.428 108.928 384.468 109.36 383.46 109.36C381.876 109.36 381.108 108.112 381.108 106.384V91.984H385.812V88.816H381.108V82.48H377.508V88.816H373.668V91.984H377.508V107.152C377.508 110.608 379.236 112.576 382.644 112.576Z" fill="#363636"/>
<path d="M430.824 112L417.912 79.984H412.968L400.104 112H404.664L407.496 104.896H423.432L426.264 112H430.824ZM422.232 101.344H408.648L415.464 84.112L422.232 101.344ZM446.8 112.576C455.488 112.576 459.856 107.488 459.856 99.52V79.984H455.872V99.472C455.872 105.328 452.704 109.024 446.8 109.024C440.896 109.024 437.728 105.328 437.728 99.472V79.984H433.744V99.568C433.744 107.44 438.112 112.576 446.8 112.576ZM482.521 112.624C487.753 112.624 492.121 110.416 495.097 107.104V95.536H480.121V99.088H491.113V105.616C489.529 107.2 486.361 109.072 482.521 109.072C475.513 109.072 470.185 103.6 470.185 96.016C470.185 88.384 475.513 83.008 482.521 83.008C486.361 83.008 489.769 84.832 491.785 87.424L494.953 85.456C492.121 81.952 488.185 79.456 482.521 79.456C473.401 79.456 466.057 86.08 466.057 96.016C466.057 105.952 473.401 112.624 482.521 112.624ZM532.916 112V79.984H527.204L517.22 104.08L507.284 79.984H501.572V112H505.556V85.648L516.404 112H518.036L528.932 85.648V112H532.916ZM566.881 112V79.984H562.897V104.992L544.465 79.984H540.385V112H544.369V86.464L563.041 112H566.881ZM586.273 112V83.536H596.449V79.984H572.161V83.536H582.289V112H586.273Z" fill="#363636" fill-opacity="0.9"/>
<mask id="mask0_381_724" style="mask-type:alpha" maskUnits="userSpaceOnUse" x="4" y="10" width="593" height="103">
<path d="M4.37013 13H5.95413V33.88H30.6261V13H32.2101V49H30.6261V35.272H5.95413V49H4.37013V13ZM49.5516 48.232C51.2156 48.232 52.7996 47.8 54.3036 46.936C55.8076 46.072 57.0556 44.888 58.0476 43.384V45.832C56.8636 47.144 55.5676 48.104 54.1596 48.712C52.7516 49.288 51.1516 49.576 49.3596 49.576C47.3756 49.576 45.5036 49.048 43.7436 47.992C42.0156 46.936 40.6236 45.528 39.5676 43.768C38.5436 42.008 38.0316 40.136 38.0316 38.152C38.0316 36.008 38.5436 34.088 39.5676 32.392C40.5916 30.664 41.9836 29.32 43.7436 28.36C45.5356 27.4 47.5196 26.92 49.6956 26.92C53.0236 26.92 55.8556 28.232 58.1916 30.856L43.1196 45.736C44.1756 46.6 45.1996 47.24 46.1916 47.656C47.1836 48.04 48.3036 48.232 49.5516 48.232ZM39.5676 38.008C39.5676 40.664 40.4476 42.936 42.2076 44.824L56.2716 30.856C55.2156 29.928 54.1916 29.272 53.1996 28.888C52.2076 28.472 51.0236 28.264 49.6476 28.264C47.6956 28.264 45.9516 28.696 44.4156 29.56C42.9116 30.392 41.7276 31.544 40.8636 33.016C39.9996 34.488 39.5676 36.152 39.5676 38.008ZM62.9928 27.4H64.5288V32.392C65.1688 30.824 66.0968 29.592 67.3128 28.696C68.5608 27.8 69.9688 27.352 71.5368 27.352C72.5288 27.352 73.5368 27.56 74.5608 27.976V29.752C73.6328 29.048 72.5928 28.696 71.4408 28.696C70.2888 28.696 69.1688 29.048 68.0808 29.752C67.0248 30.456 66.1608 31.4 65.4888 32.584C64.8488 33.768 64.5288 35.032 64.5288 36.376V49H62.9928V27.4ZM87.4266 48.232C89.0906 48.232 90.6746 47.8 92.1786 46.936C93.6826 46.072 94.9306 44.888 95.9226 43.384V45.832C94.7386 47.144 93.4426 48.104 92.0346 48.712C90.6266 49.288 89.0266 49.576 87.2346 49.576C85.2506 49.576 83.3786 49.048 81.6186 47.992C79.8906 46.936 78.4986 45.528 77.4426 43.768C76.4186 42.008 75.9066 40.136 75.9066 38.152C75.9066 36.008 76.4186 34.088 77.4426 32.392C78.4666 30.664 79.8586 29.32 81.6186 28.36C83.4106 27.4 85.3946 26.92 87.5706 26.92C90.8986 26.92 93.7306 28.232 96.0666 30.856L80.9946 45.736C82.0506 46.6 83.0746 47.24 84.0666 47.656C85.0586 48.04 86.1786 48.232 87.4266 48.232ZM77.4426 38.008C77.4426 40.664 78.3226 42.936 80.0826 44.824L94.1466 30.856C93.0906 29.928 92.0666 29.272 91.0746 28.888C90.0826 28.472 88.8986 28.264 87.5226 28.264C85.5706 28.264 83.8266 28.696 82.2906 29.56C80.7866 30.392 79.6026 31.544 78.7386 33.016C77.8746 34.488 77.4426 36.152 77.4426 38.008ZM98.1063 20.056C99.9943 19.192 100.938 17.72 100.938 15.64V10.12H102.666V15.64C102.666 17.144 102.25 18.44 101.418 19.528C100.586 20.584 99.4823 21.32 98.1063 21.736V20.056ZM115.709 49.528C114.173 49.528 112.813 49.272 111.629 48.76C110.445 48.216 109.597 47.528 109.085 46.696V44.152C109.693 45.528 110.525 46.552 111.581 47.224C112.637 47.864 113.981 48.184 115.613 48.184C117.181 48.184 118.445 47.704 119.405 46.744C120.365 45.752 120.845 44.488 120.845 42.952C120.845 41.64 120.573 40.632 120.029 39.928C119.485 39.192 118.605 38.456 117.389 37.72L115.565 36.664C114.253 35.864 113.261 35.24 112.589 34.792C111.949 34.312 111.437 33.784 111.053 33.208C110.669 32.6 110.477 31.896 110.477 31.096C110.477 29.816 110.925 28.792 111.821 28.024C112.717 27.256 113.885 26.872 115.325 26.872C117.085 26.872 118.557 27.272 119.741 28.072V30.184C118.749 28.872 117.325 28.216 115.469 28.216C114.445 28.216 113.613 28.472 112.973 28.984C112.333 29.496 112.013 30.152 112.013 30.952C112.013 31.656 112.205 32.28 112.589 32.824C112.973 33.336 113.501 33.816 114.173 34.264C114.877 34.712 116.029 35.384 117.629 36.28C119.261 37.208 120.461 38.168 121.229 39.16C121.997 40.12 122.381 41.384 122.381 42.952C122.381 44.936 121.725 46.536 120.413 47.752C119.133 48.936 117.565 49.528 115.709 49.528ZM155.136 49.528L150.24 39.064L145.296 49.528L134.928 27.4H136.512L145.344 46.168L149.52 37.384L144.912 27.496H146.448L150.288 35.848L154.224 27.4H155.76L151.056 37.432L155.136 46.216L163.824 27.448H165.36L155.136 49.528ZM168.602 13H170.138V31.864C170.81 30.424 171.946 29.24 173.546 28.312C175.178 27.352 176.826 26.872 178.49 26.872C181.53 26.872 183.866 27.704 185.498 29.368C187.162 31.032 187.994 33.384 187.994 36.424V49H186.458V36.424C186.458 33.8 185.754 31.784 184.346 30.376C182.97 28.936 181.018 28.216 178.49 28.216C176.954 28.216 175.546 28.584 174.266 29.32C172.986 30.024 171.978 31.016 171.242 32.296C170.506 33.544 170.138 34.92 170.138 36.424V49H168.602V13ZM204.231 49.528C202.183 49.528 200.279 49.016 198.519 47.992C196.759 46.968 195.367 45.592 194.343 43.864C193.319 42.104 192.807 40.216 192.807 38.2C192.807 36.184 193.319 34.312 194.343 32.584C195.367 30.824 196.759 29.432 198.519 28.408C200.279 27.384 202.183 26.872 204.231 26.872C206.311 26.872 208.279 27.432 210.135 28.552C211.991 29.64 213.287 31.064 214.023 32.824V27.4H215.559V49H214.023V43.624C213.159 45.416 211.815 46.856 209.991 47.944C208.199 49 206.279 49.528 204.231 49.528ZM204.327 48.184C206.087 48.184 207.719 47.736 209.223 46.84C210.727 45.912 211.911 44.696 212.775 43.192C213.671 41.656 214.119 39.992 214.119 38.2C214.119 36.44 213.671 34.792 212.775 33.256C211.879 31.72 210.679 30.504 209.175 29.608C207.671 28.68 206.039 28.216 204.279 28.216C202.519 28.216 200.871 28.68 199.335 29.608C197.831 30.536 196.615 31.768 195.687 33.304C194.791 34.84 194.343 36.488 194.343 38.248C194.343 40.008 194.791 41.656 195.687 43.192C196.615 44.696 197.847 45.912 199.383 46.84C200.919 47.736 202.567 48.184 204.327 48.184ZM229.346 49.288C226.978 49.288 225.01 48.568 223.442 47.128C221.906 45.688 221.138 43.704 221.138 41.176V18.712H222.674V27.4H229.298V28.744H222.674V41.176C222.674 43.288 223.298 44.952 224.546 46.168C225.826 47.352 227.426 47.944 229.346 47.944V49.288ZM254.202 49.768C252.026 49.768 250.058 49.24 248.298 48.184C246.538 47.096 245.162 45.672 244.17 43.912C243.178 42.12 242.682 40.184 242.682 38.104C242.682 36.056 243.178 34.152 244.17 32.392C245.194 30.632 246.57 29.24 248.298 28.216C250.058 27.16 252.01 26.632 254.154 26.632C256.266 26.632 258.186 27.16 259.914 28.216C261.674 29.24 263.05 30.632 264.042 32.392C265.034 34.152 265.53 36.056 265.53 38.104C265.53 40.248 265.05 42.216 264.09 44.008C263.13 45.768 261.786 47.176 260.058 48.232C258.362 49.256 256.41 49.768 254.202 49.768ZM254.202 48.424C256.026 48.424 257.69 47.96 259.194 47.032C260.698 46.104 261.866 44.872 262.698 43.336C263.562 41.768 263.994 40.056 263.994 38.2C263.994 36.376 263.562 34.68 262.698 33.112C261.834 31.544 260.65 30.296 259.146 29.368C257.642 28.44 255.978 27.976 254.154 27.976C252.33 27.976 250.65 28.456 249.114 29.416C247.61 30.344 246.41 31.592 245.514 33.16C244.65 34.728 244.218 36.424 244.218 38.248C244.218 40.072 244.65 41.768 245.514 43.336C246.41 44.872 247.61 46.104 249.114 47.032C250.65 47.96 252.346 48.424 254.202 48.424ZM279.825 49.528C276.785 49.528 274.433 48.696 272.769 47.032C271.137 45.368 270.321 43.016 270.321 39.976V27.4H271.857V39.976C271.857 42.6 272.545 44.632 273.921 46.072C275.329 47.48 277.297 48.184 279.825 48.184C281.361 48.184 282.769 47.848 284.049 47.176C285.329 46.472 286.337 45.496 287.073 44.248C287.809 43 288.177 41.576 288.177 39.976V27.4H289.713V49H288.177V44.968C287.441 46.312 286.337 47.416 284.865 48.28C283.393 49.112 281.713 49.528 279.825 49.528ZM295.774 27.4H297.31V32.392C297.95 30.824 298.878 29.592 300.094 28.696C301.342 27.8 302.75 27.352 304.318 27.352C305.31 27.352 306.318 27.56 307.342 27.976V29.752C306.414 29.048 305.374 28.696 304.222 28.696C303.07 28.696 301.95 29.048 300.862 29.752C299.806 30.456 298.942 31.4 298.27 32.584C297.63 33.768 297.31 35.032 297.31 36.376V49H295.774V27.4ZM332.208 48.232C333.872 48.232 335.456 47.8 336.96 46.936C338.464 46.072 339.712 44.888 340.704 43.384V45.832C339.52 47.144 338.224 48.104 336.816 48.712C335.408 49.288 333.808 49.576 332.016 49.576C330.032 49.576 328.16 49.048 326.4 47.992C324.672 46.936 323.28 45.528 322.224 43.768C321.2 42.008 320.688 40.136 320.688 38.152C320.688 36.008 321.2 34.088 322.224 32.392C323.248 30.664 324.64 29.32 326.4 28.36C328.192 27.4 330.176 26.92 332.352 26.92C335.68 26.92 338.512 28.232 340.848 30.856L325.776 45.736C326.832 46.6 327.856 47.24 328.848 47.656C329.84 48.04 330.96 48.232 332.208 48.232ZM322.224 38.008C322.224 40.664 323.104 42.936 324.864 44.824L338.928 30.856C337.872 29.928 336.848 29.272 335.856 28.888C334.864 28.472 333.68 28.264 332.304 28.264C330.352 28.264 328.608 28.696 327.072 29.56C325.568 30.392 324.384 31.544 323.52 33.016C322.656 34.488 322.224 36.152 322.224 38.008ZM359.928 49L352.056 37.144L344.28 49H342.744L351.144 36.232L345.288 27.4H347.064L352.008 34.888L356.904 27.4H358.44L352.92 35.8L361.704 49H359.928ZM367.443 22.456C366.995 22.456 366.595 22.296 366.243 21.976C365.923 21.656 365.763 21.256 365.763 20.776C365.763 20.328 365.923 19.944 366.243 19.624C366.595 19.304 366.995 19.144 367.443 19.144C367.891 19.144 368.275 19.304 368.595 19.624C368.947 19.944 369.123 20.328 369.123 20.776C369.123 21.256 368.947 21.656 368.595 21.976C368.275 22.296 367.891 22.456 367.443 22.456ZM366.675 27.4H368.211V49H366.675V27.4ZM380.6 49.528C379.064 49.528 377.704 49.272 376.52 48.76C375.336 48.216 374.488 47.528 373.976 46.696V44.152C374.584 45.528 375.416 46.552 376.472 47.224C377.528 47.864 378.872 48.184 380.504 48.184C382.072 48.184 383.336 47.704 384.296 46.744C385.256 45.752 385.736 44.488 385.736 42.952C385.736 41.64 385.464 40.632 384.92 39.928C384.376 39.192 383.496 38.456 382.28 37.72L380.456 36.664C379.144 35.864 378.152 35.24 377.48 34.792C376.84 34.312 376.328 33.784 375.944 33.208C375.56 32.6 375.368 31.896 375.368 31.096C375.368 29.816 375.816 28.792 376.712 28.024C377.608 27.256 378.776 26.872 380.216 26.872C381.976 26.872 383.448 27.272 384.632 28.072V30.184C383.64 28.872 382.216 28.216 380.36 28.216C379.336 28.216 378.504 28.472 377.864 28.984C377.224 29.496 376.904 30.152 376.904 30.952C376.904 31.656 377.096 32.28 377.48 32.824C377.864 33.336 378.392 33.816 379.064 34.264C379.768 34.712 380.92 35.384 382.52 36.28C384.152 37.208 385.352 38.168 386.12 39.16C386.888 40.12 387.272 41.384 387.272 42.952C387.272 44.936 386.616 46.536 385.304 47.752C384.024 48.936 382.456 49.528 380.6 49.528ZM399.783 49.288C397.415 49.288 395.447 48.568 393.879 47.128C392.343 45.688 391.575 43.704 391.575 41.176V18.712H393.111V27.4H399.735V28.744H393.111V41.176C393.111 43.288 393.735 44.952 394.983 46.168C396.263 47.352 397.863 47.944 399.783 47.944V49.288ZM405.693 22.456C405.245 22.456 404.845 22.296 404.493 21.976C404.173 21.656 404.013 21.256 404.013 20.776C404.013 20.328 404.173 19.944 404.493 19.624C404.845 19.304 405.245 19.144 405.693 19.144C406.141 19.144 406.525 19.304 406.845 19.624C407.197 19.944 407.373 20.328 407.373 20.776C407.373 21.256 407.197 21.656 406.845 21.976C406.525 22.296 406.141 22.456 405.693 22.456ZM404.925 27.4H406.461V49H404.925V27.4ZM413.618 27.4H415.154V32.2C415.858 30.6 417.058 29.32 418.754 28.36C420.45 27.368 422.322 26.872 424.37 26.872C427.026 26.872 429.122 27.72 430.658 29.416C432.226 31.08 433.01 33.416 433.01 36.424V49H431.474V36.424C431.474 33.832 430.834 31.816 429.554 30.376C428.306 28.936 426.546 28.216 424.274 28.216C422.61 28.216 421.074 28.6 419.666 29.368C418.29 30.104 417.186 31.128 416.354 32.44C415.554 33.752 415.154 35.24 415.154 36.904V49H413.618V27.4ZM449.487 58.984C447.663 58.984 445.887 58.568 444.159 57.736C442.431 56.904 441.087 55.816 440.127 54.472V52.264C440.959 53.8 442.255 55.08 444.015 56.104C445.807 57.128 447.631 57.64 449.487 57.64C452.559 57.64 454.927 56.728 456.591 54.904C458.255 53.112 459.087 50.472 459.087 46.984V43.768C458.223 45.496 456.863 46.904 455.007 47.992C453.183 49.048 451.263 49.576 449.247 49.576C447.199 49.576 445.295 49.064 443.535 48.04C441.775 47.016 440.383 45.64 439.359 43.912C438.335 42.152 437.823 40.264 437.823 38.248C437.823 36.232 438.335 34.36 439.359 32.632C440.383 30.872 441.775 29.48 443.535 28.456C445.295 27.432 447.199 26.92 449.247 26.92C451.359 26.92 453.311 27.448 455.103 28.504C456.895 29.56 458.223 30.984 459.087 32.776V27.4H460.623V46.984C460.623 50.92 459.663 53.896 457.743 55.912C455.855 57.96 453.103 58.984 449.487 58.984ZM449.343 48.232C451.103 48.232 452.735 47.784 454.239 46.888C455.743 45.96 456.927 44.744 457.791 43.24C458.687 41.704 459.135 40.04 459.135 38.248C459.135 36.456 458.687 34.808 457.791 33.304C456.927 31.768 455.743 30.552 454.239 29.656C452.735 28.728 451.103 28.264 449.343 28.264C447.551 28.264 445.887 28.728 444.351 29.656C442.847 30.552 441.631 31.768 440.703 33.304C439.807 34.808 439.359 36.456 439.359 38.248C439.359 40.04 439.807 41.704 440.703 43.24C441.631 44.744 442.847 45.96 444.351 46.888C445.887 47.784 447.551 48.232 449.343 48.232ZM487.403 49.624C485.323 49.624 483.403 49.128 481.643 48.136C479.915 47.144 478.539 45.784 477.515 44.056C476.491 42.328 475.979 40.376 475.979 38.2C475.979 36.184 476.491 34.328 477.515 32.632C478.539 30.904 479.931 29.528 481.691 28.504C483.483 27.48 485.451 26.968 487.595 26.968C489.387 26.968 490.923 27.256 492.203 27.832C493.483 28.408 494.731 29.304 495.947 30.52V33.112C494.891 31.544 493.707 30.36 492.395 29.56C491.115 28.728 489.515 28.312 487.595 28.312C485.835 28.312 484.171 28.776 482.603 29.704C481.067 30.6 479.835 31.816 478.907 33.352C477.979 34.888 477.515 36.536 477.515 38.296C477.515 40.216 477.963 41.944 478.859 43.48C479.755 44.984 480.955 46.168 482.459 47.032C483.995 47.864 485.643 48.28 487.403 48.28C490.987 48.28 493.835 46.664 495.947 43.432V46.024C494.795 47.24 493.515 48.152 492.107 48.76C490.731 49.336 489.163 49.624 487.403 49.624ZM508.404 49.432C506.9 49.432 505.524 49.096 504.276 48.424C503.028 47.72 502.036 46.744 501.3 45.496C500.564 44.248 500.196 42.856 500.196 41.32V13H501.732V41.32C501.732 42.6 502.02 43.752 502.596 44.776C503.204 45.8 504.02 46.616 505.044 47.224C506.068 47.8 507.188 48.088 508.404 48.088V49.432ZM515.24 22.456C514.792 22.456 514.392 22.296 514.04 21.976C513.72 21.656 513.56 21.256 513.56 20.776C513.56 20.328 513.72 19.944 514.04 19.624C514.392 19.304 514.792 19.144 515.24 19.144C515.688 19.144 516.072 19.304 516.392 19.624C516.744 19.944 516.92 20.328 516.92 20.776C516.92 21.256 516.744 21.656 516.392 21.976C516.072 22.296 515.688 22.456 515.24 22.456ZM514.472 27.4H516.008V49H514.472V27.4ZM533.677 48.232C535.341 48.232 536.925 47.8 538.429 46.936C539.933 46.072 541.181 44.888 542.173 43.384V45.832C540.989 47.144 539.693 48.104 538.285 48.712C536.877 49.288 535.277 49.576 533.485 49.576C531.501 49.576 529.629 49.048 527.869 47.992C526.141 46.936 524.749 45.528 523.693 43.768C522.669 42.008 522.157 40.136 522.157 38.152C522.157 36.008 522.669 34.088 523.693 32.392C524.717 30.664 526.109 29.32 527.869 28.36C529.661 27.4 531.645 26.92 533.821 26.92C537.149 26.92 539.981 28.232 542.317 30.856L527.245 45.736C528.301 46.6 529.325 47.24 530.317 47.656C531.309 48.04 532.429 48.232 533.677 48.232ZM523.693 38.008C523.693 40.664 524.573 42.936 526.333 44.824L540.397 30.856C539.341 29.928 538.317 29.272 537.325 28.888C536.333 28.472 535.149 28.264 533.773 28.264C531.821 28.264 530.077 28.696 528.541 29.56C527.037 30.392 525.853 31.544 524.989 33.016C524.125 34.488 523.693 36.152 523.693 38.008ZM547.118 27.4H548.654V32.2C549.358 30.6 550.558 29.32 552.254 28.36C553.95 27.368 555.822 26.872 557.87 26.872C560.526 26.872 562.622 27.72 564.158 29.416C565.726 31.08 566.51 33.416 566.51 36.424V49H564.974V36.424C564.974 33.832 564.334 31.816 563.054 30.376C561.806 28.936 560.046 28.216 557.774 28.216C556.11 28.216 554.574 28.6 553.166 29.368C551.79 30.104 550.686 31.128 549.854 32.44C549.054 33.752 548.654 35.24 548.654 36.904V49H547.118V27.4ZM580.299 49.288C577.931 49.288 575.963 48.568 574.395 47.128C572.859 45.688 572.091 43.704 572.091 41.176V18.712H573.627V27.4H580.251V28.744H573.627V41.176C573.627 43.288 574.251 44.952 575.499 46.168C576.779 47.352 578.379 47.944 580.299 47.944V49.288ZM589.569 49.528C588.033 49.528 586.673 49.272 585.489 48.76C584.305 48.216 583.457 47.528 582.945 46.696V44.152C583.553 45.528 584.385 46.552 585.441 47.224C586.497 47.864 587.841 48.184 589.473 48.184C591.041 48.184 592.305 47.704 593.265 46.744C594.225 45.752 594.705 44.488 594.705 42.952C594.705 41.64 594.433 40.632 593.889 39.928C593.345 39.192 592.465 38.456 591.249 37.72L589.425 36.664C588.113 35.864 587.121 35.24 586.449 34.792C585.809 34.312 585.297 33.784 584.913 33.208C584.529 32.6 584.337 31.896 584.337 31.096C584.337 29.816 584.785 28.792 585.681 28.024C586.577 27.256 587.745 26.872 589.185 26.872C590.945 26.872 592.417 27.272 593.601 28.072V30.184C592.609 28.872 591.185 28.216 589.329 28.216C588.305 28.216 587.473 28.472 586.833 28.984C586.193 29.496 585.873 30.152 585.873 30.952C585.873 31.656 586.065 32.28 586.449 32.824C586.833 33.336 587.361 33.816 588.033 34.264C588.737 34.712 589.889 35.384 591.489 36.28C593.121 37.208 594.321 38.168 595.089 39.16C595.857 40.12 596.241 41.384 596.241 42.952C596.241 44.936 595.585 46.536 594.273 47.752C592.993 48.936 591.425 49.528 589.569 49.528ZM76.1148 112V95.632C76.1148 90.592 73.5708 88.24 68.7228 88.24C65.2188 88.24 62.0508 90.256 60.4188 92.176V79.984H56.8188V112H60.4188V95.056C61.8108 93.184 64.4988 91.456 67.2828 91.456C70.4028 91.456 72.5148 92.656 72.5148 96.736V112H76.1148ZM101.399 112V96.064C101.399 90.448 97.3191 88.24 92.4231 88.24C88.6311 88.24 85.6551 89.488 83.1591 92.08L84.8391 94.576C86.9031 92.368 89.1591 91.36 91.9431 91.36C95.3031 91.36 97.7991 93.136 97.7991 96.256V100.432C95.9271 98.272 93.2871 97.264 90.1191 97.264C86.1831 97.264 82.0071 99.712 82.0071 104.896C82.0071 109.936 86.1831 112.576 90.1191 112.576C93.2391 112.576 95.8791 111.472 97.7991 109.36V112H101.399ZM91.4151 109.984C88.0551 109.984 85.7031 107.872 85.7031 104.944C85.7031 101.968 88.0551 99.856 91.4151 99.856C93.9591 99.856 96.4071 100.816 97.7991 102.736V107.104C96.4071 109.024 93.9591 109.984 91.4151 109.984ZM118.744 112L128.392 88.816H124.456L116.776 107.824L109.048 88.816H105.16L114.808 112H118.744ZM142.611 112.576C146.403 112.576 149.523 111.328 151.827 109.024L150.099 106.672C148.275 108.544 145.587 109.6 142.947 109.6C137.955 109.6 134.883 105.952 134.595 101.584H153.363V100.672C153.363 93.712 149.235 88.24 142.227 88.24C135.603 88.24 130.803 93.664 130.803 100.384C130.803 107.632 135.747 112.576 142.611 112.576ZM149.811 98.944H134.595C134.787 95.392 137.235 91.216 142.179 91.216C147.459 91.216 149.763 95.488 149.811 98.944ZM178.913 112.576C184.913 112.576 188.033 109.456 188.033 105.568C188.033 96.544 173.681 99.904 173.681 94.816C173.681 92.752 175.649 91.168 178.817 91.168C181.793 91.168 184.337 92.416 185.729 94.096L187.409 91.6C185.537 89.728 182.753 88.24 178.817 88.24C173.297 88.24 170.177 91.312 170.177 94.912C170.177 103.504 184.529 100.048 184.529 105.664C184.529 107.968 182.609 109.648 179.057 109.648C175.889 109.648 172.961 108.112 171.425 106.336L169.553 108.928C171.905 111.424 175.121 112.576 178.913 112.576ZM211.977 112V96.064C211.977 90.448 207.897 88.24 203.001 88.24C199.209 88.24 196.233 89.488 193.737 92.08L195.417 94.576C197.481 92.368 199.737 91.36 202.521 91.36C205.881 91.36 208.377 93.136 208.377 96.256V100.432C206.505 98.272 203.865 97.264 200.697 97.264C196.761 97.264 192.585 99.712 192.585 104.896C192.585 109.936 196.761 112.576 200.697 112.576C203.817 112.576 206.457 111.472 208.377 109.36V112H211.977ZM201.993 109.984C198.633 109.984 196.281 107.872 196.281 104.944C196.281 101.968 198.633 99.856 201.993 99.856C204.537 99.856 206.985 100.816 208.377 102.736V107.104C206.985 109.024 204.537 109.984 201.993 109.984ZM220.97 85.504C222.314 85.504 223.418 84.448 223.418 83.104C223.418 81.76 222.314 80.656 220.97 80.656C219.674 80.656 218.57 81.76 218.57 83.104C218.57 84.448 219.674 85.504 220.97 85.504ZM222.794 112V88.816H219.194V112H222.794ZM250.375 112V79.984H246.775V92.32C244.903 89.776 242.071 88.24 238.951 88.24C232.855 88.24 228.631 93.04 228.631 100.432C228.631 107.968 232.903 112.576 238.951 112.576C242.215 112.576 245.047 110.896 246.775 108.544V112H250.375ZM239.815 109.36C235.159 109.36 232.375 105.568 232.375 100.432C232.375 95.296 235.159 91.456 239.815 91.456C242.695 91.456 245.479 93.184 246.775 95.2V105.712C245.479 107.728 242.695 109.36 239.815 109.36ZM288.055 112V96.064C288.055 90.448 283.975 88.24 279.079 88.24C275.287 88.24 272.311 89.488 269.815 92.08L271.495 94.576C273.559 92.368 275.815 91.36 278.599 91.36C281.959 91.36 284.455 93.136 284.455 96.256V100.432C282.583 98.272 279.943 97.264 276.775 97.264C272.839 97.264 268.663 99.712 268.663 104.896C268.663 109.936 272.839 112.576 276.775 112.576C279.895 112.576 282.535 111.472 284.455 109.36V112H288.055ZM278.071 109.984C274.711 109.984 272.359 107.872 272.359 104.944C272.359 101.968 274.711 99.856 278.071 99.856C280.615 99.856 283.063 100.816 284.455 102.736V107.104C283.063 109.024 280.615 109.984 278.071 109.984ZM298.872 105.712V95.2C300.12 93.184 302.952 91.456 305.784 91.456C310.488 91.456 313.272 95.296 313.272 100.432C313.272 105.568 310.488 109.36 305.784 109.36C302.952 109.36 300.12 107.728 298.872 105.712ZM298.872 112V108.544C300.6 110.896 303.432 112.576 306.696 112.576C312.744 112.576 317.016 107.968 317.016 100.432C317.016 93.04 312.744 88.24 306.696 88.24C303.528 88.24 300.744 89.776 298.872 92.32V79.984H295.272V112H298.872ZM333.009 112.576C340.065 112.576 344.481 107.104 344.481 100.384C344.481 93.664 340.065 88.24 333.009 88.24C325.953 88.24 321.537 93.664 321.537 100.384C321.537 107.104 325.953 112.576 333.009 112.576ZM333.009 109.36C328.065 109.36 325.281 105.136 325.281 100.384C325.281 95.68 328.065 91.456 333.009 91.456C337.953 91.456 340.689 95.68 340.689 100.384C340.689 105.136 337.953 109.36 333.009 109.36ZM369.598 112V88.816H365.998V105.856C364.654 107.728 361.966 109.36 359.134 109.36C356.014 109.36 353.95 108.16 353.95 104.08V88.816H350.35V105.184C350.35 110.224 352.894 112.576 357.742 112.576C361.198 112.576 364.222 110.752 365.998 108.736V112H369.598ZM382.644 112.576C384.756 112.576 386.052 111.952 386.964 111.088L385.908 108.4C385.428 108.928 384.468 109.36 383.46 109.36C381.876 109.36 381.108 108.112 381.108 106.384V91.984H385.812V88.816H381.108V82.48H377.508V88.816H373.668V91.984H377.508V107.152C377.508 110.608 379.236 112.576 382.644 112.576ZM430.824 112L417.912 79.984H412.968L400.104 112H404.664L407.496 104.896H423.432L426.264 112H430.824ZM422.232 101.344H408.648L415.464 84.112L422.232 101.344ZM446.8 112.576C455.488 112.576 459.856 107.488 459.856 99.52V79.984H455.872V99.472C455.872 105.328 452.704 109.024 446.8 109.024C440.896 109.024 437.728 105.328 437.728 99.472V79.984H433.744V99.568C433.744 107.44 438.112 112.576 446.8 112.576ZM482.521 112.624C487.753 112.624 492.121 110.416 495.097 107.104V95.536H480.121V99.088H491.113V105.616C489.529 107.2 486.361 109.072 482.521 109.072C475.513 109.072 470.185 103.6 470.185 96.016C470.185 88.384 475.513 83.008 482.521 83.008C486.361 83.008 489.769 84.832 491.785 87.424L494.953 85.456C492.121 81.952 488.185 79.456 482.521 79.456C473.401 79.456 466.057 86.08 466.057 96.016C466.057 105.952 473.401 112.624 482.521 112.624ZM532.916 112V79.984H527.204L517.22 104.08L507.284 79.984H501.572V112H505.556V85.648L516.404 112H518.036L528.932 85.648V112H532.916ZM566.881 112V79.984H562.897V104.992L544.465 79.984H540.385V112H544.369V86.464L563.041 112H566.881ZM586.273 112V83.536H596.449V79.984H572.161V83.536H582.289V112H586.273Z" fill="#363636"/>
</mask>
<g mask="url(#mask0_381_724)">
<circle cx="492.5" cy="99.5" r="60.5" fill="url(#paint0_angular_381_724)"/>
</g>
<defs>
<radialGradient id="paint0_angular_381_724" cx="0" cy="0" r="1" gradientUnits="userSpaceOnUse" gradientTransform="translate(492.5 99.5) rotate(162.209) scale(70.3651)">
<stop stop-color="#FF4509"/>
<stop offset="1" stop-color="#FFE985"/>
</radialGradient>
</defs>
</svg>
