<svg width="191" height="88" viewBox="0 0 191 88" fill="none" xmlns="http://www.w3.org/2000/svg">
<path d="M34.056 66C43.704 66 48.24 59.664 48.24 52.968C48.24 46.776 44.28 42.024 39.096 41.232C43.776 40.224 47.304 36.192 47.304 30.216C47.304 24.6 42.984 17.976 33.048 17.976H3.888V66H34.056ZM29.664 35.688H18.432V30.072H29.664C31.176 30.072 32.544 31.152 32.544 32.808C32.544 34.536 31.176 35.688 29.664 35.688ZM30.096 53.904H18.432V47.784H30.096C32.184 47.784 33.48 49.152 33.48 50.88C33.48 52.68 32.184 53.904 30.096 53.904ZM66.7631 66V17.976H53.8031V66H66.7631ZM91.1188 66.864C103.503 66.864 110.703 58.296 110.703 48.576C110.703 38.856 103.503 30.36 91.1188 30.36C78.8068 30.36 71.6068 38.856 71.6068 48.576C71.6068 58.296 78.8068 66.864 91.1188 66.864ZM91.1188 55.416C87.1588 55.416 84.9268 52.464 84.9268 48.576C84.9268 44.76 87.1588 41.808 91.1188 41.808C95.1508 41.808 97.3828 44.76 97.3828 48.576C97.3828 52.464 95.1508 55.416 91.1188 55.416ZM130.154 80.112C138.794 80.112 151.178 77.304 151.178 62.256V31.224H138.218V34.896C135.41 31.584 132.026 30.36 128.426 30.36C119.858 30.36 113.162 36.12 113.162 47.712C113.162 59.592 120.074 65.064 128.426 65.064C132.026 65.064 135.266 63.768 138.218 60.384V62.256C138.218 68.376 133.178 69.528 130.154 69.528C126.41 69.528 122.45 68.376 119.786 65.712L114.313 74.928C118.85 78.528 124.178 80.112 130.154 80.112ZM132.89 53.616C129.362 53.616 126.41 51.96 126.41 47.712C126.41 43.464 129.362 41.808 132.89 41.808C134.546 41.808 136.994 42.6 138.218 44.04V51.384C136.994 52.824 134.546 53.616 132.89 53.616ZM172.47 66.864C182.766 66.864 188.958 61.824 188.958 54.912C188.958 40.44 169.23 44.04 169.23 41.16C169.23 40.368 170.598 39.648 172.47 39.648C176.502 39.648 180.534 41.448 182.694 43.248L187.446 34.824C183.414 32.16 178.23 30.36 172.398 30.36C162.318 30.36 156.846 35.976 156.846 42.24C156.846 56.64 176.574 52.392 176.574 55.704C176.574 56.568 175.782 57.216 173.118 57.216C169.23 57.216 163.326 54.984 160.59 52.824L155.406 61.536C159.15 64.632 166.062 66.864 172.47 66.864Z" fill="#363636" fill-opacity="0.87"/>
<mask id="mask0_374_726" style="mask-type:alpha" maskUnits="userSpaceOnUse" x="3" y="17" width="186" height="64">
<path d="M34.056 66C43.704 66 48.24 59.664 48.24 52.968C48.24 46.776 44.28 42.024 39.096 41.232C43.776 40.224 47.304 36.192 47.304 30.216C47.304 24.6 42.984 17.976 33.048 17.976H3.888V66H34.056ZM29.664 35.688H18.432V30.072H29.664C31.176 30.072 32.544 31.152 32.544 32.808C32.544 34.536 31.176 35.688 29.664 35.688ZM30.096 53.904H18.432V47.784H30.096C32.184 47.784 33.48 49.152 33.48 50.88C33.48 52.68 32.184 53.904 30.096 53.904ZM66.7631 66V17.976H53.8031V66H66.7631ZM91.1188 66.864C103.503 66.864 110.703 58.296 110.703 48.576C110.703 38.856 103.503 30.36 91.1188 30.36C78.8068 30.36 71.6068 38.856 71.6068 48.576C71.6068 58.296 78.8068 66.864 91.1188 66.864ZM91.1188 55.416C87.1588 55.416 84.9268 52.464 84.9268 48.576C84.9268 44.76 87.1588 41.808 91.1188 41.808C95.1508 41.808 97.3828 44.76 97.3828 48.576C97.3828 52.464 95.1508 55.416 91.1188 55.416ZM130.154 80.112C138.794 80.112 151.178 77.304 151.178 62.256V31.224H138.218V34.896C135.41 31.584 132.026 30.36 128.426 30.36C119.858 30.36 113.162 36.12 113.162 47.712C113.162 59.592 120.074 65.064 128.426 65.064C132.026 65.064 135.266 63.768 138.218 60.384V62.256C138.218 68.376 133.178 69.528 130.154 69.528C126.41 69.528 122.45 68.376 119.786 65.712L114.313 74.928C118.85 78.528 124.178 80.112 130.154 80.112ZM132.89 53.616C129.362 53.616 126.41 51.96 126.41 47.712C126.41 43.464 129.362 41.808 132.89 41.808C134.546 41.808 136.994 42.6 138.218 44.04V51.384C136.994 52.824 134.546 53.616 132.89 53.616ZM172.47 66.864C182.766 66.864 188.958 61.824 188.958 54.912C188.958 40.44 169.23 44.04 169.23 41.16C169.23 40.368 170.598 39.648 172.47 39.648C176.502 39.648 180.534 41.448 182.694 43.248L187.446 34.824C183.414 32.16 178.23 30.36 172.398 30.36C162.318 30.36 156.846 35.976 156.846 42.24C156.846 56.64 176.574 52.392 176.574 55.704C176.574 56.568 175.782 57.216 173.118 57.216C169.23 57.216 163.326 54.984 160.59 52.824L155.406 61.536C159.15 64.632 166.062 66.864 172.47 66.864Z" fill="#363636" fill-opacity="0.87"/>
</mask>
<g mask="url(#mask0_374_726)">
<circle cx="130.5" cy="43.5" r="60.5" fill="url(#paint0_radial_374_726)"/>
</g>
<defs>
<radialGradient id="paint0_radial_374_726" cx="0" cy="0" r="1" gradientUnits="userSpaceOnUse" gradientTransform="translate(130.5 43.5) rotate(90) scale(60.5)">
<stop stop-color="#FF4509"/>
<stop offset="1" stop-color="#FFE985"/>
</radialGradient>
</defs>
</svg>
