<svg width="223" height="45" viewBox="0 0 223 45" fill="none" xmlns="http://www.w3.org/2000/svg">
<path d="M18.3089 26.2544C18.1749 17.6978 3.75109 21.2003 3.75109 14.6387C3.75109 12.5106 5.80526 10.7815 9.06514 10.7815C12.7716 10.7815 14.7811 12.821 14.9597 15.5254H18.0856C17.8177 10.8702 14.3792 8.12145 9.15445 8.12145C4.01903 8.12145 0.580525 11.0919 0.580525 14.683C0.580525 23.7717 15.2276 20.2692 15.2276 26.2544C15.2276 28.5599 13.2628 30.4219 9.77963 30.4219C5.80463 30.4219 3.48316 28.5155 3.21522 25.8554H0C0.402532 30.2889 4.28696 33.0377 9.82429 33.0377C14.8704 33.0377 18.3089 30.1559 18.3089 26.2544ZM45.3257 8.47613H42.1998V21.643C42.1998 27.5395 39.0298 30.377 34.4743 30.377C30.0087 30.377 27.0614 27.6282 27.0614 22.2637V8.47613H23.9802V22.619C23.9802 29.7126 28.3565 33.082 33.8938 33.082C37.5109 33.082 40.7261 31.486 42.1998 28.4269V32.683H45.3257V8.47613ZM55.5519 13.7963V8.47613H52.4706V44.1214H55.5512V27.3628C56.9809 30.3776 60.3747 33.0377 65.2422 33.0377C71.8966 33.0377 76.8527 28.1165 76.8527 20.5352C76.8527 12.954 71.8966 8.12145 65.2422 8.12145C60.3747 8.12145 56.9809 10.7372 55.5512 13.7963H55.5519ZM73.6822 20.5352C73.6822 26.6535 69.7524 30.3333 64.617 30.3333C59.6602 30.3333 55.5519 26.6091 55.5519 20.5796C55.5519 14.55 59.6602 10.8259 64.617 10.8259C69.7524 10.8259 73.6822 14.3727 73.6822 20.5352V20.5352ZM93.0181 10.7815C97.5284 10.7815 101.637 13.619 101.503 19.2495H84.3549C84.7121 13.619 88.5972 10.7815 93.0181 10.7815ZM104.316 25.0131H101.012C100.119 28.2495 97.3057 30.4219 93.1527 30.4219C88.5978 30.4219 84.6235 27.4515 84.3555 21.7766H104.585C104.661 20.9662 104.691 20.152 104.674 19.3382C104.674 13.1756 100.298 8.12145 93.1527 8.12145C86.1418 8.12145 81.185 12.8653 81.185 20.5796C81.185 28.2495 86.2311 33.0377 93.1527 33.0377C99.27 33.0377 103.2 29.5796 104.316 25.0131ZM113.515 19.1609C113.515 13.087 116.954 11.2692 121.017 11.2692H121.866V8.03278C117.668 8.03278 114.855 9.80617 113.515 12.7766V8.47613H110.389V32.683H113.516L113.515 19.1609Z" fill="#3B3B3B"/>
<path d="M133.912 11.5714V0H126.276V32.8079H133.912V29.3498C135.296 31.5228 137.931 33.1626 141.593 33.1626C147.711 33.1626 152.578 28.197 152.578 20.3941C152.578 12.5911 147.755 7.71429 141.593 7.71429C138.02 7.71429 135.296 9.35406 133.912 11.5714ZM144.808 20.3941C144.808 24.3399 142.218 26.5567 139.315 26.5567C136.457 26.5567 133.867 24.3836 133.867 20.4384C133.867 16.4932 136.457 14.3202 139.315 14.3202C142.218 14.3202 144.808 16.4477 144.808 20.3941ZM156.597 32.8079H164.233V0H156.597V32.8079ZM194.153 20.4384C194.153 12.5911 188.526 7.71429 181.202 7.71429C173.924 7.71429 168.252 12.5911 168.252 20.4384C168.252 28.2857 173.79 33.1626 181.113 33.1626C188.437 33.1626 194.153 28.2857 194.153 20.4384ZM176.022 20.4384C176.022 16.2266 178.434 14.2759 181.202 14.2759C183.882 14.2759 186.383 16.2266 186.383 20.4384C186.383 24.6059 183.837 26.601 181.113 26.601C178.344 26.601 176.022 24.6059 176.022 20.4384V20.4384ZM196.698 20.3941C196.698 28.197 201.566 33.1626 207.683 33.1626C211.345 33.1626 213.98 31.4335 215.364 29.2611V32.7635C215.364 36.931 213.087 38.4384 210.184 38.4384C207.549 38.4384 205.674 37.2414 205.183 35.3787H197.635C198.305 41.2752 203.128 44.9994 210.541 44.9994C219.16 44.9994 223 39.3688 223 32.7629V8.06897H215.364V11.5714C214.024 9.35468 211.345 7.71429 207.683 7.71429C201.566 7.71429 196.698 12.5911 196.698 20.3941ZM215.364 20.4384C215.364 24.3849 212.819 26.5567 209.916 26.5567C207.058 26.5567 204.468 24.3399 204.468 20.3941C204.468 16.4483 207.058 14.3202 209.916 14.3202C212.819 14.3202 215.364 16.4926 215.364 20.4384Z" fill="#63BD51"/>
</svg>
