<svg width="281" height="68" viewBox="0 0 281 68" fill="none" xmlns="http://www.w3.org/2000/svg">
<ellipse cx="34.0531" cy="33.8714" rx="34.0531" ry="33.8714" fill="#FF4509" fill-opacity="0.08"/>
<path d="M50.9343 63.2879C46.4761 65.8191 41.5003 67.3149 36.379 67.6637C31.2576 68.0124 26.1233 67.205 21.3599 65.3018C16.5965 63.3986 12.3274 60.4488 8.87172 56.6731C5.41604 52.8974 2.86327 48.3935 1.40431 43.4981C-0.0546457 38.6027 -0.382039 33.4426 0.446616 28.4037C1.27527 23.3647 3.23853 18.5773 6.18958 14.3994C9.14062 10.2215 13.0031 6.76133 17.4881 4.27757C21.9732 1.79382 26.9647 0.350775 32.0895 0.0563564L34.0531 33.8714L50.9343 63.2879Z" fill="#FF4509" fill-opacity="0.06"/>
<g clip-path="url(#clip0_1646_5279)">
<path d="M22.2422 48.6233C21.3603 48.6233 20.6326 48.3902 20.0916 47.9212C19.0762 47.0403 18.767 45.3879 19.1975 43.1428L19.2066 43.0953L31.6306 33.5665C32.5836 32.815 33.4291 31.9132 34.1392 30.8906L41.0781 20.8994C42.4537 18.9187 44.4417 17.2952 45.6042 17.2032C45.905 17.1792 46.1421 17.2571 46.3071 17.4348C47.7057 18.9371 47.4306 22.2055 45.5524 26.4019C41.9279 34.4999 33.4232 43.8959 26.5937 47.3468C24.9143 48.1954 23.4368 48.6233 22.2422 48.6233ZM19.4091 43.2402C19.0105 45.3638 19.2947 46.9152 20.232 47.7284C21.4354 48.7724 23.661 48.5575 26.4989 47.1233C33.2882 43.6931 41.7448 34.3489 45.3499 26.2938C47.1828 22.1984 47.474 19.0336 46.149 17.6098C46.0322 17.4843 45.8547 17.4299 45.6205 17.4485C44.5151 17.5359 42.5987 19.117 41.2577 21.0479L34.3189 31.0393C33.5945 32.0818 32.7322 33.0012 31.7603 33.7673L19.4091 43.2402Z" fill="#FF3E00"/>
<path d="M21.6308 48.7708C20.5802 48.7708 19.734 48.4791 19.141 47.8951C18.0927 46.863 17.8739 45.0019 18.5083 42.5128L18.52 42.4671L31.6562 33.4346C32.5919 32.7911 33.5808 31.8295 34.3694 30.7963L42.0799 20.6948C43.6071 18.694 45.705 17.1375 46.8852 17.16C47.1902 17.1649 47.4212 17.2736 47.5719 17.4832C48.841 19.2489 48.3055 22.7523 46.1029 27.095C41.8459 35.488 32.6234 44.782 25.5443 47.813C24.0535 48.451 22.7302 48.7708 21.6308 48.7708ZM18.7139 42.6244C18.1184 44.9946 18.3176 46.7532 19.2918 47.7125C20.4391 48.842 22.6302 48.7964 25.462 47.584C32.4995 44.571 41.6704 35.3263 45.9055 26.976C48.0622 22.724 48.605 19.3194 47.3945 17.6352C47.2878 17.4869 47.1153 17.4098 46.8817 17.406C45.7808 17.3934 43.7415 18.902 42.253 20.8523L34.5425 30.9537L34.456 30.8749L34.5425 30.9537C33.7395 32.0058 32.7312 32.9859 31.7762 33.6427L18.7139 42.6244Z" fill="#FF3E00"/>
<path d="M21.0633 48.8834C19.8195 48.8834 18.8495 48.5165 18.194 47.7854C17.117 46.5841 17.0054 44.501 17.871 41.7611L17.8847 41.7167L31.6914 33.2947C32.6747 32.6949 33.7369 31.7561 34.6054 30.7182L43.0934 20.5771C44.7642 18.5807 46.9862 17.1169 48.1524 17.2442C48.4646 17.2783 48.6913 17.4202 48.8264 17.6659C49.9461 19.7026 49.1329 23.4335 46.5954 27.9021C41.6846 36.5495 31.755 45.6594 24.4604 48.2095C23.1742 48.6591 22.0352 48.8834 21.0633 48.8834ZM18.0702 41.8855C17.2492 44.5094 17.3475 46.4896 18.3551 47.6133C19.4434 48.8272 21.5869 48.9558 24.3916 47.9753C31.6425 45.4405 41.5171 36.3775 46.4036 27.7726C48.8952 23.385 49.7078 19.7473 48.6329 17.7923C48.5365 17.617 48.3672 17.5148 48.1298 17.4889C47.0313 17.3684 44.888 18.7975 43.2596 20.743L34.7716 30.884L34.6883 30.8011L34.7716 30.884C33.8875 31.9402 32.8049 32.8972 31.8012 33.5093L18.0702 41.8855Z" fill="#FF3E00"/>
<path d="M20.5876 48.9379C19.098 48.9379 17.9673 48.4834 17.2566 47.584C16.1576 46.1933 16.1714 43.8758 17.2963 40.882L17.3126 40.8387L31.7385 33.1469C32.7657 32.5991 33.8987 31.692 34.8468 30.6581L44.1125 20.5546C45.947 18.5547 48.2196 17.2257 49.3974 17.4623C49.7157 17.5263 49.945 17.7093 50.0614 17.9914C51.0115 20.3061 49.9039 24.2553 47.0221 28.8263C41.4398 37.682 30.82 46.5195 23.3488 48.527C22.3274 48.8014 21.4033 48.9378 20.5876 48.9379ZM17.4887 41.0185C16.414 43.9001 16.3925 46.114 17.4271 47.4234C18.4682 48.7408 20.4974 49.0399 23.2947 48.2882C30.7202 46.2931 41.2809 37.5001 46.8363 28.6871C49.6723 24.1885 50.7727 20.3268 49.8554 18.0922C49.77 17.8842 49.6021 17.7537 49.3564 17.7043C48.2626 17.4847 46.0287 18.8127 44.2719 20.7286L35.0062 30.832L34.9265 30.7451L35.0062 30.832C34.041 31.8843 32.8861 32.8086 31.8373 33.3678L17.4887 41.0185Z" fill="#FF3E00"/>
<path d="M20.2208 48.9538C18.4263 48.9538 17.1002 48.3892 16.3336 47.283C15.2228 45.6801 15.3821 43.1173 16.7942 39.8715L16.8127 39.829L31.7978 32.9914C32.8646 32.5046 34.0655 31.6394 35.0928 30.6181L35.1686 30.709L35.0928 30.6181L45.1301 20.6357C47.0859 18.6904 49.4414 17.4802 50.6108 17.8218C50.9433 17.9189 51.1696 18.143 51.2652 18.4702C52.025 21.0684 50.6067 25.2239 47.3743 29.8711C41.1059 38.8828 29.8201 47.3544 22.2162 48.7559C21.5572 48.8823 20.8898 48.9485 20.2208 48.9538ZM16.9794 40.0195C15.6422 43.1125 15.4763 45.6383 16.5133 47.1346C17.4874 48.5402 19.446 49.0169 22.1786 48.5135C29.7341 47.1208 40.9563 38.6913 47.1946 29.7225C50.3822 25.1399 51.7878 21.0655 51.0504 18.545C50.9782 18.2985 50.8108 18.1347 50.5525 18.0595C49.471 17.7435 47.1549 18.9548 45.2818 20.8176L35.2445 30.7999C34.1991 31.8395 32.9745 32.7211 31.8847 33.2182L16.9794 40.0195Z" fill="#FF3E00"/>
<path d="M19.9879 48.9403C17.814 48.9403 16.2494 48.2353 15.429 46.8735C14.3367 45.06 14.6723 42.1666 16.3737 38.7259L16.3943 38.6838L31.8686 32.8289C32.9698 32.4122 34.2351 31.5998 35.3398 30.6001L46.1365 20.8287C48.1988 18.9619 50.6262 17.8871 51.7805 18.3288C51.9429 18.3831 52.0887 18.4846 52.2022 18.6223C52.3158 18.7601 52.3929 18.929 52.4252 19.1109C52.9732 21.9968 51.2295 26.3442 47.6412 31.0384C40.677 40.1483 28.7562 48.1551 21.0684 48.8868C20.6932 48.9225 20.333 48.9404 19.9879 48.9403ZM16.5512 38.885C14.9091 42.2233 14.5771 45.0113 15.6175 46.7384C16.5194 48.236 18.3979 48.8941 21.0484 48.6419C28.6852 47.9151 40.537 39.9476 47.4681 30.8808C51.0121 26.2446 52.7388 21.9729 52.2049 19.1608C52.1804 19.0204 52.1209 18.8902 52.033 18.7844C51.945 18.6785 51.832 18.6012 51.7064 18.5609C50.6198 18.1458 48.2872 19.2017 46.2806 21.0179L35.4838 30.7895C34.3592 31.8073 33.0686 32.6354 31.9428 33.0614L16.5512 38.885Z" fill="#FF3E00"/>
<path d="M19.9172 48.91H19.9134C17.2705 48.9092 15.4158 48.0221 14.5498 46.3447C13.4796 44.2715 14.011 41.1102 16.0462 37.4429L16.0696 37.4009L31.9535 32.6608C33.0834 32.3236 34.4082 31.575 35.5883 30.6067L47.1239 21.1418C49.3112 19.3471 51.7387 18.442 52.8969 18.9899C53.0716 19.0655 53.2235 19.1929 53.3353 19.3577C53.4471 19.5225 53.5144 19.7182 53.5296 19.9225C53.8445 23.0984 51.7613 27.6206 47.8139 32.3296C40.1501 41.4729 27.6367 48.91 19.9172 48.91ZM16.2158 37.6122C14.2437 41.1822 13.7217 44.2393 14.7462 46.224C15.5698 47.8195 17.3566 48.6633 19.9134 48.6641H19.9172C27.5818 48.6641 40.0202 41.2633 47.6478 32.1637C51.5514 27.5067 53.6136 23.0547 53.3055 19.9491C53.2945 19.7879 53.2419 19.6334 53.1537 19.5036C53.0655 19.3738 52.9454 19.2739 52.8073 19.2156C51.7361 18.7088 49.3514 19.6217 47.2594 21.3383L35.7236 30.803L35.6558 30.7048L35.7236 30.803C34.5218 31.789 33.1693 32.5526 32.0131 32.8976L16.2158 37.6122Z" fill="#FF3E00"/>
<path d="M20.0504 48.88C19.6053 48.88 19.1752 48.8585 18.7602 48.8156C16.2242 48.5515 14.4751 47.4686 13.7016 45.6837C12.6796 43.3242 13.4324 39.8921 15.8216 36.02L15.8476 35.9779L32.0511 32.4865C33.2029 32.2383 34.5816 31.5649 35.834 30.6389L48.0822 21.5827C50.3422 19.9118 52.809 19.1666 53.9479 19.8106C54.3426 20.0339 54.5559 20.4152 54.5645 20.9135C54.6245 24.3799 52.1892 29.057 47.8831 33.7456C39.968 42.3635 27.8476 48.8792 20.0504 48.88ZM15.9828 36.1994C13.6604 39.9793 12.9227 43.3091 13.9057 45.5787C14.643 47.2808 16.3288 48.3154 18.7816 48.5708C26.4123 49.3658 39.398 42.6369 47.7241 33.5715C51.987 28.93 54.3981 24.318 54.3391 20.9183C54.3323 20.51 54.1655 20.2107 53.8442 20.029C52.7918 19.4338 50.3689 20.1891 48.2087 21.7863L35.9607 30.8424L35.8975 30.7406L35.9607 30.8424C34.6843 31.7862 33.2754 32.4734 32.0951 32.7277L15.9828 36.1994Z" fill="#FF3E00"/>
<path d="M20.4006 48.8718C19.4669 48.8793 18.5348 48.7862 17.6179 48.594C15.1969 48.0643 13.5632 46.7785 12.8933 44.8753C11.9526 42.2033 12.9537 38.5031 15.7118 34.4564L15.7407 34.4139L32.1635 32.308C33.3297 32.1586 34.7562 31.5721 36.077 30.6993L49.0017 22.1592C51.3521 20.6063 53.7861 20.0454 54.9222 20.7961C55.3437 21.0748 55.5491 21.5228 55.5163 22.0918C55.2995 25.8469 52.5013 30.6559 47.839 35.2857C39.7975 43.2712 28.2178 48.8718 20.4006 48.8718ZM15.8637 34.6456C13.1749 38.6058 12.1947 42.2058 13.1036 44.7871C13.7444 46.6076 15.3208 47.8406 17.6625 48.3529C25.2012 50.002 38.6703 44.0583 47.6876 35.1038C52.3068 30.517 55.0782 25.7683 55.2915 22.0766C55.3188 21.5986 55.1554 21.2383 54.8054 21.0068C53.7557 20.3131 51.3642 20.8861 49.1186 22.3699L36.1938 30.9097C34.8463 31.8001 33.3868 32.3988 32.1899 32.5523L15.8637 34.6456Z" fill="#FF3E00"/>
<path d="M21.005 48.912C19.3364 48.912 17.8152 48.6939 16.4969 48.2358C14.1962 47.4359 12.6875 45.9368 12.1338 43.9005C11.3162 40.8932 12.5925 36.9341 15.7268 32.7523L15.7591 32.7091L32.2902 32.1265C33.4626 32.0852 34.9293 31.5979 36.3143 30.7895L49.872 22.8785C52.2561 21.4872 54.6966 21.1058 55.8067 21.9508C56.258 22.2944 56.4529 22.8177 56.3704 23.4644C55.855 27.5041 52.6846 32.419 47.6718 36.9488C39.6494 44.1987 28.7572 48.912 21.005 48.912ZM15.8688 32.9513C12.8064 37.052 11.5569 40.9137 12.3499 43.8305C12.8813 45.7852 14.3389 47.2275 16.5653 48.0014C23.9418 50.5658 37.8314 45.5225 47.5284 36.7595C52.498 32.2683 55.6399 27.4101 56.1475 23.4305C56.2187 22.8737 56.0606 22.4437 55.6781 22.1526C54.6513 21.371 52.254 21.7674 49.9782 23.0954L36.4205 31.0067L36.3671 30.898L36.4202 31.0063C35.006 31.8316 33.5032 32.3294 32.2973 32.3719L15.8688 32.9513Z" fill="#FF3E00"/>
<path d="M21.8941 49.0325C19.4078 49.0325 17.1905 48.6143 15.4087 47.7319C13.2308 46.653 11.8579 44.9256 11.4374 42.737C10.7919 39.3775 12.3691 35.177 15.8781 30.9091L15.9145 30.8649L32.4325 31.9432C33.6022 32.02 35.1009 31.6439 36.5442 30.9124L50.6819 23.7473C53.0798 22.5321 55.5094 22.3393 56.5907 23.278C57.074 23.6974 57.2547 24.306 57.1129 25.0377C56.2778 29.355 52.7277 34.3468 47.3737 38.7326C39.5311 45.1566 29.4659 49.0325 21.8941 49.0325ZM16.0099 31.1174C12.5752 35.3103 11.0302 39.4171 11.6583 42.6865C12.0634 44.7955 13.3928 46.4628 15.5023 47.508C22.6423 51.0458 36.8798 47.0212 47.2387 38.536C52.5495 34.1855 56.0679 29.2473 56.8925 24.9869C57.0169 24.3434 56.8682 23.8332 56.4504 23.4706C55.4331 22.5875 53.1001 22.7931 50.7769 23.9705L36.6389 31.1355C35.163 31.8836 33.6244 32.2674 32.4189 32.1887L16.0099 31.1174Z" fill="#FF3E00"/>
<path d="M23.0801 49.2705C19.6224 49.2705 16.5918 48.5633 14.3641 47.0733C12.3116 45.7004 11.0862 43.7244 10.8203 41.3592C10.4028 37.6402 12.3043 33.2256 16.1754 28.9286L16.2165 28.8834L32.5892 31.7591C33.747 31.9626 35.2685 31.7108 36.7633 31.0686L51.4196 24.7719C53.8484 23.7284 56.1957 23.7318 57.2599 24.7803C57.7764 25.2891 57.9376 25.9933 57.7267 26.8169C56.5502 31.4031 52.6163 36.4387 46.9335 40.6334C39.4446 46.1604 30.3273 49.27 23.0801 49.2705ZM16.2954 29.1463C12.5006 33.3744 10.6362 37.6987 11.0441 41.3292C11.3013 43.6175 12.49 45.5313 14.4818 46.8636C21.3112 51.4314 35.8113 48.545 46.807 40.4293C52.4466 36.2668 56.3471 31.281 57.5092 26.7502C57.6959 26.0227 57.5572 25.4045 57.1087 24.9625C56.1063 23.975 53.8532 23.9903 51.5019 25.0004L36.8455 31.297C35.3141 31.9549 33.7495 32.2117 32.5531 32.0016L16.2954 29.1463Z" fill="#FF3E00"/>
<path d="M24.5447 49.667C19.9715 49.667 16 48.5563 13.3756 46.2523C11.4507 44.5625 10.3893 42.3108 10.3063 39.7406C10.1745 35.668 12.4201 31.0777 16.6294 26.8153L16.6754 26.7688L32.7599 31.5764C33.8958 31.9159 35.4296 31.8005 36.9685 31.2602L52.0721 25.957C54.5118 25.1002 56.761 25.2972 57.8019 26.4585C58.3518 27.0722 58.488 27.8837 58.1954 28.8053C56.6579 33.6468 52.3375 38.6915 46.342 42.6454C39.3787 47.2378 31.3053 49.6665 24.5447 49.667ZM16.7368 27.0422C12.6057 31.242 10.4025 35.7465 10.5315 39.732C10.6122 42.2286 11.6445 44.4171 13.5167 46.0607C19.9532 51.7111 34.6261 50.0848 46.2255 42.435C52.1767 38.5103 56.4619 33.5131 57.9823 28.7244C58.2451 27.8969 58.127 27.1727 57.6406 26.6302C56.674 25.5517 54.4639 25.3753 52.141 26.1907L37.0375 31.4939C35.458 32.0487 33.8771 32.165 32.7003 31.8132L16.7368 27.0422Z" fill="#FF3E00"/>
<path d="M26.2297 50.2614C20.4242 50.2614 15.3921 48.6015 12.4576 45.2614C10.6662 43.2227 9.79068 40.6616 9.92566 37.8549C10.1374 33.4511 12.739 28.7348 17.2512 24.5744L17.303 24.5265L32.9467 31.3968C34.0495 31.8811 35.5851 31.9148 37.1594 31.4892L52.6291 27.3079C55.0233 26.6609 57.2122 27.0558 58.2066 28.3141C58.7801 29.0401 58.8862 29.9962 58.505 31.0063C56.5875 36.0881 51.8814 41.1026 45.5935 44.764C39.3126 48.4212 32.3424 50.2613 26.2297 50.2614ZM17.3447 24.8096C12.9125 28.9141 10.3585 33.5491 10.1504 37.8679C10.0188 40.6049 10.8727 43.1028 12.6199 45.0912C18.5795 51.8734 33.3234 51.6294 45.4871 44.5466C51.7299 40.9116 56.3983 35.9419 58.2964 30.9124C58.6486 29.9787 58.5583 29.1359 58.0356 28.4744C57.0964 27.2856 54.9958 26.9212 52.6831 27.5462L37.2139 31.7271L37.1865 31.6076L37.2139 31.7271C35.594 32.1649 34.0081 32.1273 32.8626 31.6242L17.3447 24.8096Z" fill="#FF3E00"/>
<path d="M28.0328 51.089C20.9223 51.089 14.7408 48.6955 11.6224 44.0942C7.3523 37.7938 9.93506 28.9998 18.0495 22.2113L18.1078 22.1624L33.1471 31.2211C34.2059 31.8588 35.7309 32.0537 37.3317 31.756L53.0765 28.8275C55.443 28.3868 57.5065 28.9694 58.4609 30.3464C59.0619 31.2134 59.1249 32.305 58.6376 33.4203C56.3225 38.7229 51.2344 43.6651 44.6781 46.9796C39.2078 49.7452 33.3594 51.0888 28.0328 51.089ZM18.1281 22.4554C10.165 29.1491 7.62241 37.779 11.8036 43.948C14.394 47.7702 19.2426 50.171 25.4565 50.7085C31.6848 51.2474 38.4772 49.8436 44.5833 46.7566C51.0931 43.4657 56.1413 38.5663 58.4343 33.3145C58.8897 32.2714 58.8369 31.2964 58.2813 30.4947C57.3914 29.2108 55.363 28.6517 53.1144 29.0699L37.3695 31.9984L37.3506 31.8772L37.3695 31.9984C35.7192 32.3053 34.1406 32.1005 33.0383 31.4364L18.1281 22.4554Z" fill="#FF3E00"/>
<path d="M29.8286 52.1759C21.3942 52.1759 14.0212 48.8208 10.8841 42.7452C7.13802 35.4901 10.4127 26.2431 19.033 19.7353L19.0989 19.6855L33.361 31.0521C34.3637 31.8513 35.8655 32.2198 37.4824 32.0629L37.4924 32.1854L37.4824 32.0629L53.4012 30.5195C55.6887 30.2977 57.6641 31.0782 58.5546 32.5566C59.1752 33.5864 59.1831 34.8262 58.5771 36.0476C55.8478 41.5488 50.3847 46.3736 43.5886 49.285C39.0171 51.2432 34.2754 52.1758 29.8286 52.1759ZM19.0954 19.9874C10.625 26.4164 7.40402 35.5045 11.0804 42.6245C13.3562 47.032 17.9946 50.1335 24.141 51.3577C30.3013 52.5845 37.1781 51.7669 43.506 49.056C50.2535 46.1654 55.6743 41.3815 58.3789 35.9305C58.9435 34.7925 58.9389 33.6423 58.3663 32.6918C57.5212 31.2892 55.6262 30.5507 53.421 30.7647L37.5024 32.3079C35.8322 32.4699 34.2742 32.0845 33.228 31.2507L19.0954 19.9874Z" fill="#FF3E00"/>
<path d="M31.5601 53.5272C28.5076 53.5272 25.5175 53.0728 22.7144 52.1603C16.6233 50.178 12.1992 46.2889 10.2566 41.2095C7.10778 32.9749 11.1074 23.3085 20.2101 17.1557L20.2839 17.1058L33.5868 30.8911C34.5211 31.8595 35.9845 32.4021 37.6083 32.4109V32.5338V32.4109L53.5897 32.3852H53.6014C55.7936 32.3852 57.6606 33.3656 58.477 34.9455C59.1049 36.161 59.0444 37.5603 58.3067 38.8857C55.1488 44.5595 49.3212 49.2187 42.318 51.6687C38.8415 52.8907 35.2125 53.5176 31.5601 53.5272ZM20.2549 17.4151C11.3023 23.504 7.36817 33.0187 10.4647 41.115C12.3805 46.1251 16.7539 49.964 22.7791 51.9249C28.8157 53.8893 35.7302 53.7153 42.2496 51.4346C49.2014 49.0023 54.984 44.3819 58.1142 38.758C58.8076 37.512 58.8667 36.2009 58.2807 35.0663C57.5045 33.5636 55.7122 32.6312 53.6016 32.6312H53.59L37.6086 32.6569H37.597C35.923 32.6569 34.4054 32.0787 33.4315 31.0695L20.2549 17.4151Z" fill="#FF3E00"/>
<path d="M32.9747 55.1726C28.882 55.1726 24.8896 54.3158 21.2891 52.6244C15.38 49.8485 11.2842 45.1819 9.75556 39.4842C7.27829 30.2502 12.034 20.2037 21.5898 14.4846L21.672 14.4354L33.8247 30.7396C34.6783 31.8848 36.0935 32.6362 37.7073 32.8012L53.63 34.4254C55.7592 34.6426 57.475 35.7978 58.2198 37.5156C58.828 38.919 58.6794 40.5283 57.8117 41.9308C54.213 47.7474 48.0353 52.1898 40.8624 54.1191C38.2817 54.8157 35.6332 55.1694 32.9747 55.1726ZM21.616 14.7497C12.2107 20.4202 7.53211 30.3212 9.97194 39.4151C11.4812 45.0412 15.5321 49.6521 21.3782 52.3985C27.2335 55.1491 34.1343 55.6752 40.8086 53.8799C47.9279 51.9651 54.0572 47.5595 57.625 41.7929C58.4592 40.4446 58.5982 38.9628 58.0161 37.6204C57.3059 35.9818 55.6583 34.8791 53.6093 34.67L37.6864 33.0456C36.0127 32.8748 34.5414 32.0909 33.6499 30.8944L21.616 14.7497Z" fill="#FF3E00"/>
<path d="M34.0969 57.0932C29.0083 57.0932 24.0749 55.6884 19.8316 52.9793C14.1681 49.3634 10.4616 43.8896 9.39459 37.5659C7.66523 27.3188 13.2044 16.9378 23.1776 11.7347L23.2685 11.6873L34.0733 30.5993C34.8331 31.9288 36.1823 32.8886 37.7759 33.2335L53.5083 36.6382C55.5306 37.0759 57.1244 38.4338 57.7719 40.2707C58.3462 41.9002 58.0924 43.6881 57.0757 45.176C53.0263 51.1021 46.5167 55.2737 39.216 56.6214C37.5247 56.9344 35.8124 57.0923 34.0969 57.0932ZM23.184 12.0042C13.3608 17.1743 7.91111 27.416 9.6161 37.5214C10.671 43.7733 14.3393 49.1878 19.9451 52.7668C25.557 56.3495 32.3871 57.6323 39.1784 56.3787C46.4224 55.0417 52.8798 50.9047 56.8949 45.0289C57.8644 43.6097 58.1075 41.9079 57.5615 40.3589C56.942 38.6012 55.4103 37.3004 53.4645 36.8793L37.7322 33.4746C36.0777 33.1165 34.6744 32.1159 33.882 30.7292L23.184 12.0042Z" fill="#FF3E00"/>
<path d="M34.8914 59.2795C28.8532 59.2795 23.0572 57.1687 18.3514 53.2122C13.0002 48.7132 9.74666 42.4064 9.18878 35.4534C8.28522 24.1857 14.6312 13.5233 24.9796 8.92085L25.0788 8.87671L25.1243 8.98262L34.3319 30.4711C34.9829 31.9906 36.2509 33.1707 37.8108 33.7088L53.2116 39.0219C55.1246 39.6819 56.5867 41.2508 57.1227 43.2188C57.6324 45.0903 57.2538 47.0566 56.0839 48.6135C51.5767 54.6114 44.7579 58.4561 37.376 59.1608C36.5446 59.2402 35.7164 59.2797 34.8914 59.2795ZM24.9659 9.19289C14.7681 13.7781 8.52138 24.3084 9.4133 35.4319C9.9653 42.3155 13.1883 48.5608 18.489 53.0173C23.7923 57.4766 30.4939 59.5711 37.356 58.9158C44.678 58.2168 51.4406 54.405 55.9095 48.4576C57.0312 46.9647 57.3949 45.0809 56.9066 43.2888C56.3919 41.399 54.9851 39.8915 53.1435 39.2563L37.7428 33.9433C36.1229 33.3845 34.8054 32.1568 34.1276 30.5753L24.9659 9.19289Z" fill="#FF3E00"/>
<path d="M35.3374 61.7206C28.3895 61.7206 21.8265 58.7344 16.8573 53.312C11.888 47.8896 9.15137 40.7282 9.15137 33.1463C9.14784 27.1596 10.8692 21.3233 14.0719 16.4626C17.2747 11.6019 21.7968 7.96283 26.9987 6.06014L27.1054 6.021L34.5975 30.3575C34.8607 31.2083 35.2814 31.991 35.8335 32.6568C36.3856 33.3226 37.0574 33.8573 37.807 34.2278L52.7247 41.5729C53.6207 42.0084 54.4085 42.6709 55.0228 43.5054C55.6371 44.3398 56.0602 45.3221 56.2568 46.3708C56.4618 47.4022 56.4385 48.4721 56.1886 49.4917C55.9387 50.5113 55.4695 51.4511 54.82 52.2332C52.3623 55.2149 49.3581 57.6001 46.002 59.2345C42.6459 60.8688 39.0126 61.7158 35.3374 61.7206ZM26.9637 6.33269C21.8323 8.23663 17.3765 11.8468 14.2221 16.6561C11.0677 21.4654 9.3732 27.2322 9.37672 33.1463C9.37672 40.6621 12.0899 47.7619 17.0166 53.1378C21.9433 58.5137 28.4497 61.4747 35.3374 61.4747C38.9809 61.4698 42.5829 60.6301 45.9102 59.0098C49.2374 57.3895 52.2157 55.0248 54.6523 52.0688C55.2779 51.3154 55.7297 50.41 55.9704 49.4278C56.2111 48.4456 56.2336 47.415 56.036 46.4214C55.8465 45.4107 55.4388 44.464 54.8468 43.6597C54.2548 42.8554 53.4955 42.2168 52.6319 41.797L37.7143 34.4519C36.9364 34.0676 36.2393 33.5127 35.6664 32.8218C35.0935 32.1309 34.6569 31.3187 34.3839 30.4359L26.9637 6.33269Z" fill="#FF3E00"/>
</g>
<path d="M93.8984 37.5703V30.8438C93.8984 29.9219 93.7188 29.0547 93.3594 28.2422C93.0156 27.4141 92.5391 26.6953 91.9297 26.0859C91.3203 25.4766 90.6016 25 89.7734 24.6562C88.9609 24.2969 88.0938 24.1172 87.1719 24.1172C86.25 24.1172 85.375 24.2969 84.5469 24.6562C83.7344 25 83.0234 25.4766 82.4141 26.0859C81.8047 26.6953 81.3203 27.4141 80.9609 28.2422C80.6172 29.0547 80.4453 29.9219 80.4453 30.8438V37.5703H93.8984ZM100.625 51H93.8984V44.2734H80.4453V51H73.7422V30.8438C73.7422 28.9844 74.0938 27.2422 74.7969 25.6172C75.5 23.9766 76.4531 22.5469 77.6562 21.3281C78.875 20.1094 80.2969 19.1484 81.9219 18.4453C83.5625 17.7422 85.3125 17.3906 87.1719 17.3906C89.0312 17.3906 90.7734 17.7422 92.3984 18.4453C94.0391 19.1484 95.4688 20.1094 96.6875 21.3281C97.9062 22.5469 98.8672 23.9766 99.5703 25.6172C100.273 27.2422 100.625 28.9844 100.625 30.8438V51ZM132.734 37.5703C132.734 39.4297 132.383 41.1797 131.68 42.8203C130.977 44.4453 130.016 45.8672 128.797 47.0859C127.578 48.2891 126.148 49.2422 124.508 49.9453C122.883 50.6484 121.141 51 119.281 51C117.422 51 115.672 50.6484 114.031 49.9453C112.406 49.2422 110.984 48.2891 109.766 47.0859C108.562 45.8672 107.609 44.4453 106.906 42.8203C106.203 41.1797 105.852 39.4297 105.852 37.5703V17.3906H112.555V37.5703C112.555 38.4922 112.727 39.3594 113.07 40.1719C113.43 40.9844 113.914 41.6953 114.523 42.3047C115.133 42.9141 115.844 43.3984 116.656 43.7578C117.484 44.1016 118.359 44.2734 119.281 44.2734C120.203 44.2734 121.07 44.1016 121.883 43.7578C122.711 43.3984 123.43 42.9141 124.039 42.3047C124.648 41.6953 125.125 40.9844 125.469 40.1719C125.828 39.3594 126.008 38.4922 126.008 37.5703V17.3906H132.734V37.5703ZM165.312 47.6016C163.75 48.9297 162.008 49.9531 160.086 50.6719C158.164 51.375 156.164 51.7266 154.086 51.7266C152.492 51.7266 150.953 51.5156 149.469 51.0938C148 50.6875 146.625 50.1094 145.344 49.3594C144.062 48.5938 142.891 47.6875 141.828 46.6406C140.766 45.5781 139.859 44.4062 139.109 43.125C138.359 41.8281 137.773 40.4375 137.352 38.9531C136.945 37.4688 136.742 35.9297 136.742 34.3359C136.742 32.7422 136.945 31.2109 137.352 29.7422C137.773 28.2734 138.359 26.8984 139.109 25.6172C139.859 24.3203 140.766 23.1484 141.828 22.1016C142.891 21.0391 144.062 20.1328 145.344 19.3828C146.625 18.6328 148 18.0547 149.469 17.6484C150.953 17.2266 152.492 17.0156 154.086 17.0156C156.164 17.0156 158.164 17.375 160.086 18.0938C162.008 18.7969 163.75 19.8125 165.312 21.1406L161.797 27C160.781 25.9688 159.609 25.1641 158.281 24.5859C156.953 23.9922 155.555 23.6953 154.086 23.6953C152.617 23.6953 151.234 23.9766 149.938 24.5391C148.656 25.1016 147.531 25.8672 146.562 26.8359C145.594 27.7891 144.828 28.9141 144.266 30.2109C143.703 31.4922 143.422 32.8672 143.422 34.3359C143.422 35.8203 143.703 37.2109 144.266 38.5078C144.828 39.8047 145.594 40.9375 146.562 41.9062C147.531 42.875 148.656 43.6406 149.938 44.2031C151.234 44.7656 152.617 45.0469 154.086 45.0469C154.93 45.0469 155.75 44.9453 156.547 44.7422C157.344 44.5391 158.102 44.2578 158.82 43.8984V34.3359H165.312V47.6016ZM203.844 51H197.141V27C197.141 26.5312 197.047 26.0938 196.859 25.6875C196.688 25.2812 196.445 24.9297 196.133 24.6328C195.836 24.3203 195.484 24.0781 195.078 23.9062C194.672 23.7344 194.234 23.6484 193.766 23.6484C193.297 23.6484 192.859 23.7344 192.453 23.9062C192.047 24.0781 191.688 24.3203 191.375 24.6328C191.078 24.9297 190.844 25.2812 190.672 25.6875C190.5 26.0938 190.414 26.5312 190.414 27V51H183.688V27C183.688 26.5312 183.602 26.0938 183.43 25.6875C183.258 25.2812 183.016 24.9297 182.703 24.6328C182.406 24.3203 182.055 24.0781 181.648 23.9062C181.242 23.7344 180.805 23.6484 180.336 23.6484C179.867 23.6484 179.43 23.7344 179.023 23.9062C178.617 24.0781 178.258 24.3203 177.945 24.6328C177.648 24.9297 177.414 25.2812 177.242 25.6875C177.07 26.0938 176.984 26.5312 176.984 27V51H170.258V27C170.258 25.6094 170.516 24.3047 171.031 23.0859C171.562 21.8516 172.281 20.7812 173.188 19.875C174.109 18.9531 175.18 18.2344 176.398 17.7188C177.633 17.1875 178.945 16.9219 180.336 16.9219C181.586 16.9219 182.789 17.1484 183.945 17.6016C185.102 18.0391 186.141 18.6797 187.062 19.5234C187.984 18.6797 189.016 18.0391 190.156 17.6016C191.312 17.1484 192.516 16.9219 193.766 16.9219C195.156 16.9219 196.461 17.1875 197.68 17.7188C198.914 18.2344 199.984 18.9531 200.891 19.875C201.812 20.7812 202.531 21.8516 203.047 23.0859C203.578 24.3047 203.844 25.6094 203.844 27V51ZM236.75 51H229.555L216.594 28.875V51H209.867V17.3906H217.062L230.023 39.5391V17.3906H236.75V51ZM257.117 51H250.414V24.1172H240.312V17.3906H267.195V24.1172H257.117V51ZM275.094 48.6094C275.094 49.1719 274.992 49.7031 274.789 50.2031C274.586 50.6875 274.305 51.1094 273.945 51.4688C273.586 51.8281 273.164 52.1094 272.68 52.3125C272.195 52.5312 271.672 52.6406 271.109 52.6406C270.562 52.6406 270.039 52.5312 269.539 52.3125C269.055 52.1094 268.625 51.8281 268.25 51.4688C267.891 51.1094 267.602 50.6875 267.383 50.2031C267.18 49.7031 267.078 49.1719 267.078 48.6094C267.078 48.0625 267.18 47.5469 267.383 47.0625C267.602 46.5781 267.891 46.1562 268.25 45.7969C268.625 45.4375 269.055 45.1562 269.539 44.9531C270.039 44.7344 270.562 44.625 271.109 44.625C271.672 44.625 272.195 44.7344 272.68 44.9531C273.164 45.1562 273.586 45.4375 273.945 45.7969C274.305 46.1562 274.586 46.5781 274.789 47.0625C274.992 47.5469 275.094 48.0625 275.094 48.6094Z" fill="#FFFDFD"/>
<defs>
<clipPath id="clip0_1646_5279">
<rect width="49.9445" height="55.6996" fill="white" transform="translate(9.08105 6.021)"/>
</clipPath>
</defs>
</svg>
