<svg width="143" height="45" viewBox="0 0 143 45" fill="none" xmlns="http://www.w3.org/2000/svg">
<path d="M65.541 16.4043V13.6016C65.541 13.2174 65.4661 12.8561 65.3164 12.5176C65.1732 12.1725 64.9746 11.873 64.7207 11.6191C64.4668 11.3652 64.1673 11.1667 63.8223 11.0234C63.4837 10.8737 63.1224 10.7988 62.7383 10.7988C62.3542 10.7988 61.9896 10.8737 61.6445 11.0234C61.306 11.1667 61.0098 11.3652 60.7559 11.6191C60.502 11.873 60.3001 12.1725 60.1504 12.5176C60.0072 12.8561 59.9355 13.2174 59.9355 13.6016V16.4043H65.541ZM68.3438 22H65.541V19.1973H59.9355V22H57.1426V13.6016C57.1426 12.8268 57.2891 12.1009 57.582 11.4238C57.875 10.7402 58.2721 10.1445 58.7734 9.63672C59.2812 9.12891 59.8737 8.72852 60.5508 8.43555C61.2344 8.14258 61.9635 7.99609 62.7383 7.99609C63.513 7.99609 64.2389 8.14258 64.916 8.43555C65.5996 8.72852 66.1953 9.12891 66.7031 9.63672C67.2109 10.1445 67.6113 10.7402 67.9043 11.4238C68.1973 12.1009 68.3438 12.8268 68.3438 13.6016V22ZM81.7227 16.4043C81.7227 17.179 81.5762 17.9082 81.2832 18.5918C80.9902 19.2689 80.5898 19.8613 80.082 20.3691C79.5742 20.8704 78.9785 21.2676 78.2949 21.5605C77.6178 21.8535 76.8919 22 76.1172 22C75.3424 22 74.6133 21.8535 73.9297 21.5605C73.2526 21.2676 72.6602 20.8704 72.1523 20.3691C71.651 19.8613 71.2539 19.2689 70.9609 18.5918C70.668 17.9082 70.5215 17.179 70.5215 16.4043V7.99609H73.3145V16.4043C73.3145 16.7884 73.3861 17.1497 73.5293 17.4883C73.679 17.8268 73.8809 18.123 74.1348 18.377C74.3887 18.6309 74.6849 18.8327 75.0234 18.9824C75.3685 19.1257 75.7331 19.1973 76.1172 19.1973C76.5013 19.1973 76.8626 19.1257 77.2012 18.9824C77.5462 18.8327 77.8457 18.6309 78.0996 18.377C78.3535 18.123 78.5521 17.8268 78.6953 17.4883C78.8451 17.1497 78.9199 16.7884 78.9199 16.4043V7.99609H81.7227V16.4043ZM95.2969 20.584C94.6458 21.1374 93.9199 21.5638 93.1191 21.8633C92.3184 22.1562 91.485 22.3027 90.6191 22.3027C89.9551 22.3027 89.3138 22.2148 88.6953 22.0391C88.0833 21.8698 87.5104 21.6289 86.9766 21.3164C86.4427 20.9974 85.9544 20.6198 85.5117 20.1836C85.069 19.7409 84.6914 19.2526 84.3789 18.7188C84.0664 18.1784 83.8223 17.599 83.6465 16.9805C83.4772 16.362 83.3926 15.7207 83.3926 15.0566C83.3926 14.3926 83.4772 13.7546 83.6465 13.1426C83.8223 12.5306 84.0664 11.9577 84.3789 11.4238C84.6914 10.8835 85.069 10.3952 85.5117 9.95898C85.9544 9.51628 86.4427 9.13867 86.9766 8.82617C87.5104 8.51367 88.0833 8.27279 88.6953 8.10352C89.3138 7.92773 89.9551 7.83984 90.6191 7.83984C91.485 7.83984 92.3184 7.98958 93.1191 8.28906C93.9199 8.58203 94.6458 9.00521 95.2969 9.55859L93.832 12C93.4089 11.5703 92.9206 11.235 92.3672 10.9941C91.8138 10.7467 91.2311 10.623 90.6191 10.623C90.0072 10.623 89.431 10.7402 88.8906 10.9746C88.3568 11.209 87.888 11.528 87.4844 11.9316C87.0807 12.3288 86.7617 12.7975 86.5273 13.3379C86.293 13.8717 86.1758 14.4447 86.1758 15.0566C86.1758 15.6751 86.293 16.2546 86.5273 16.7949C86.7617 17.3353 87.0807 17.8073 87.4844 18.2109C87.888 18.6146 88.3568 18.9336 88.8906 19.168C89.431 19.4023 90.0072 19.5195 90.6191 19.5195C90.9707 19.5195 91.3125 19.4772 91.6445 19.3926C91.9766 19.3079 92.2923 19.1908 92.5918 19.041V15.0566H95.2969V20.584ZM111.352 22H108.559V12C108.559 11.8047 108.52 11.6224 108.441 11.4531C108.37 11.2839 108.269 11.1374 108.139 11.0137C108.015 10.8835 107.868 10.7826 107.699 10.7109C107.53 10.6393 107.348 10.6035 107.152 10.6035C106.957 10.6035 106.775 10.6393 106.605 10.7109C106.436 10.7826 106.286 10.8835 106.156 11.0137C106.033 11.1374 105.935 11.2839 105.863 11.4531C105.792 11.6224 105.756 11.8047 105.756 12V22H102.953V12C102.953 11.8047 102.917 11.6224 102.846 11.4531C102.774 11.2839 102.673 11.1374 102.543 11.0137C102.419 10.8835 102.273 10.7826 102.104 10.7109C101.934 10.6393 101.752 10.6035 101.557 10.6035C101.361 10.6035 101.179 10.6393 101.01 10.7109C100.84 10.7826 100.691 10.8835 100.561 11.0137C100.437 11.1374 100.339 11.2839 100.268 11.4531C100.196 11.6224 100.16 11.8047 100.16 12V22H97.3574V12C97.3574 11.4206 97.4648 10.877 97.6797 10.3691C97.901 9.85482 98.2005 9.40885 98.5781 9.03125C98.9622 8.64714 99.4082 8.34766 99.916 8.13281C100.43 7.91146 100.977 7.80078 101.557 7.80078C102.077 7.80078 102.579 7.89518 103.061 8.08398C103.542 8.26628 103.975 8.5332 104.359 8.88477C104.743 8.5332 105.173 8.26628 105.648 8.08398C106.13 7.89518 106.632 7.80078 107.152 7.80078C107.732 7.80078 108.275 7.91146 108.783 8.13281C109.298 8.34766 109.743 8.64714 110.121 9.03125C110.505 9.40885 110.805 9.85482 111.02 10.3691C111.241 10.877 111.352 11.4206 111.352 12V22ZM125.062 22H122.064L116.664 12.7812V22H113.861V7.99609H116.859L122.26 17.2246V7.99609H125.062V22ZM133.549 22H130.756V10.7988H126.547V7.99609H137.748V10.7988H133.549V22ZM141.039 21.0039C141.039 21.2383 140.997 21.4596 140.912 21.668C140.827 21.8698 140.71 22.0456 140.561 22.1953C140.411 22.3451 140.235 22.4622 140.033 22.5469C139.831 22.638 139.613 22.6836 139.379 22.6836C139.151 22.6836 138.933 22.638 138.725 22.5469C138.523 22.4622 138.344 22.3451 138.188 22.1953C138.038 22.0456 137.917 21.8698 137.826 21.668C137.742 21.4596 137.699 21.2383 137.699 21.0039C137.699 20.776 137.742 20.5612 137.826 20.3594C137.917 20.1576 138.038 19.9818 138.188 19.832C138.344 19.6823 138.523 19.5651 138.725 19.4805C138.933 19.3893 139.151 19.3438 139.379 19.3438C139.613 19.3438 139.831 19.3893 140.033 19.4805C140.235 19.5651 140.411 19.6823 140.561 19.832C140.71 19.9818 140.827 20.1576 140.912 20.3594C140.997 20.5612 141.039 20.776 141.039 21.0039Z" fill="#363636"/>
<circle cx="22.5" cy="22.5" r="22.5" fill="#FF4509" fill-opacity="0.08"/>
<path d="M33.654 42.0407C30.7083 43.7221 27.4206 44.7158 24.0368 44.9475C20.653 45.1791 17.2605 44.6428 14.1132 43.3785C10.9659 42.1142 8.14512 40.1548 5.86184 37.6467C3.57856 35.1386 1.89186 32.1467 0.927877 28.8948C-0.0361063 25.6429 -0.252426 22.2152 0.295094 18.8679C0.842614 15.5206 2.13981 12.3404 4.08966 9.56519C6.03952 6.78992 8.59158 4.4914 11.555 2.8415C14.5184 1.19159 17.8165 0.233012 21.2026 0.0374363L22.5 22.5L33.654 42.0407Z" fill="#FF4509" fill-opacity="0.06"/>
<g clip-path="url(#clip0_1646_5128)">
<path d="M14.696 32.2993C14.1133 32.2993 13.6325 32.1444 13.275 31.8329C12.6041 31.2477 12.3998 30.1501 12.6843 28.6587L12.6903 28.6272L20.8992 22.2974C21.5289 21.7981 22.0875 21.1991 22.5568 20.5198L27.1415 13.8829C28.0504 12.5672 29.3639 11.4887 30.1321 11.4276C30.3308 11.4117 30.4875 11.4634 30.5965 11.5814C31.5206 12.5794 31.3388 14.7505 30.0978 17.5381C27.703 22.9174 22.0837 29.159 17.5712 31.4513C16.4616 32.015 15.4853 32.2992 14.696 32.2993ZM12.8241 28.7234C12.5607 30.134 12.7485 31.1646 13.3678 31.7048C14.1629 32.3983 15.6334 32.2555 17.5086 31.3029C21.9945 29.0242 27.582 22.8171 29.964 17.4663C31.1751 14.7458 31.3675 12.6435 30.492 11.6977C30.4148 11.6143 30.2975 11.5782 30.1428 11.5906C29.4124 11.6486 28.1462 12.6989 27.2602 13.9816L22.6754 20.6186C22.1968 21.3111 21.6271 21.9219 20.9849 22.4308L12.8241 28.7234Z" fill="#FF3E00"/>
<path d="M14.2918 32.3971C13.5977 32.3971 13.0386 32.2034 12.6468 31.8154C11.9541 31.1299 11.8095 29.8935 12.2287 28.2401L12.2365 28.2097L20.916 22.2096C21.5342 21.7822 22.1876 21.1434 22.7087 20.4571L27.8032 13.7469C28.8123 12.4178 30.1984 11.3839 30.9783 11.3988C31.1798 11.4021 31.3324 11.4743 31.4319 11.6135C32.2705 12.7864 31.9167 15.1136 30.4613 17.9984C27.6486 23.5737 21.555 29.7475 16.8776 31.7609C15.8926 32.1847 15.0182 32.3971 14.2918 32.3971ZM12.3645 28.3142C11.9711 29.8887 12.1027 31.0569 12.7464 31.6942C13.5044 32.4444 14.9522 32.4142 16.8232 31.6088C21.4731 29.6073 27.5326 23.4662 30.331 17.9194C31.756 15.0948 32.1146 12.8332 31.3148 11.7145C31.2443 11.616 31.1303 11.5648 30.976 11.5622C30.2485 11.5538 28.9011 12.556 27.9176 13.8515L22.8231 20.5616L22.7659 20.5093L22.8231 20.5616C22.2925 21.2606 21.6263 21.9116 20.9952 22.3479L12.3645 28.3142Z" fill="#FF3E00"/>
<path d="M13.9176 32.472C13.0958 32.472 12.4549 32.2283 12.0218 31.7426C11.3102 30.9447 11.2364 29.5609 11.8084 27.7409L11.8174 27.7114L20.94 22.1169C21.5897 21.7184 22.2915 21.0947 22.8653 20.4053L28.4736 13.6689C29.5776 12.3427 31.0458 11.3703 31.8163 11.4548C32.0226 11.4775 32.1724 11.5718 32.2617 11.735C33.0015 13.0879 32.4642 15.5663 30.7875 18.5346C27.5428 24.2789 20.982 30.3304 16.1622 32.0244C15.3124 32.3231 14.5598 32.472 13.9176 32.472ZM11.94 27.8235C11.3975 29.5665 11.4625 30.8819 12.1282 31.6284C12.8473 32.4347 14.2636 32.5202 16.1168 31.8688C20.9077 30.185 27.4322 24.1647 30.6608 18.4486C32.3071 15.534 32.844 13.1176 32.1338 11.819C32.0701 11.7025 31.9582 11.6346 31.8014 11.6174C31.0755 11.5373 29.6594 12.4867 28.5835 13.7791L22.9751 20.5155L22.9201 20.4604L22.9751 20.5155C22.391 21.2171 21.6757 21.8528 21.0125 22.2594L11.94 27.8235Z" fill="#FF3E00"/>
<path d="M13.6032 32.5082C12.6189 32.5082 11.8718 32.2063 11.4022 31.6088C10.6761 30.685 10.6852 29.1455 11.4285 27.1568L11.4393 27.128L20.9709 22.0185C21.6496 21.6546 22.3982 21.0521 23.0247 20.3653L29.1468 13.6538C30.3589 12.3253 31.8605 11.4424 32.6387 11.5996C32.8491 11.6421 33.0006 11.7637 33.0774 11.9511C33.7052 13.4887 32.9734 16.1121 31.0693 19.1485C27.3809 25.0311 20.364 30.9017 15.4276 32.2352C14.7527 32.4175 14.1421 32.5081 13.6032 32.5082ZM11.5556 27.2475C10.8455 29.1617 10.8313 30.6323 11.5149 31.5021C12.2028 32.3773 13.5436 32.5759 15.3918 32.0766C20.2981 30.7513 27.2759 24.9103 30.9465 19.056C32.8204 16.0677 33.5475 13.5025 32.9413 12.0181C32.8849 11.8799 32.774 11.7932 32.6116 11.7604C31.8889 11.6145 30.4129 12.4967 29.2521 13.7693L23.13 20.4808L23.0773 20.4231L23.13 20.4808C22.4922 21.1799 21.7292 21.7938 21.0362 22.1653L11.5556 27.2475Z" fill="#FF3E00"/>
<path d="M13.3603 32.5188C12.1747 32.5188 11.2985 32.1437 10.792 31.4089C10.058 30.3442 10.1633 28.6417 11.0963 26.4856L11.1085 26.4574L21.0097 21.9153C21.7146 21.5919 22.508 21.0172 23.1868 20.3388L23.2369 20.3991L23.1868 20.3388L29.8188 13.7077C31.1111 12.4155 32.6674 11.6116 33.4401 11.8385C33.6597 11.903 33.8093 12.0519 33.8724 12.2692C34.3745 13.9951 33.4373 16.7555 31.3016 19.8426C27.1599 25.8288 19.7029 31.4563 14.6788 32.3874C14.2434 32.4713 13.8024 32.5152 13.3603 32.5188ZM11.2186 26.5839C10.3351 28.6386 10.2255 30.3164 10.9107 31.3104C11.5543 32.2441 12.8484 32.5607 14.654 32.2263C19.6461 31.3012 27.061 25.7016 31.1829 19.7438C33.289 16.6997 34.2177 13.9932 33.7305 12.3189C33.6828 12.1552 33.5722 12.0464 33.4016 11.9964C32.687 11.7865 31.1566 12.5912 29.919 13.8285L23.287 20.4595C22.5963 21.1502 21.7872 21.7357 21.0671 22.066L11.2186 26.5839Z" fill="#FF3E00"/>
<path d="M13.2059 32.5098C11.7695 32.5098 10.7358 32.0415 10.1937 31.1368C9.47203 29.9322 9.69374 28.0101 10.8179 25.7246L10.8315 25.6966L21.0559 21.8073C21.7835 21.5306 22.6195 20.9909 23.3494 20.3268L30.4832 13.8359C31.8458 12.5958 33.4497 11.8819 34.2124 12.1753C34.3197 12.2113 34.416 12.2787 34.491 12.3702C34.5661 12.4618 34.617 12.5739 34.6383 12.6948C35.0004 14.6118 33.8483 17.4997 31.4774 20.6179C26.8759 26.6695 18.9995 31.9882 13.9199 32.4743C13.672 32.498 13.434 32.5098 13.2059 32.5098ZM10.9352 25.8302C9.85023 28.0478 9.63083 29.8999 10.3183 31.0471C10.9142 32.0419 12.1554 32.4791 13.9067 32.3116C18.9526 31.8287 26.7834 26.5361 31.363 20.5133C33.7047 17.4335 34.8456 14.5959 34.4928 12.7279C34.4766 12.6347 34.4373 12.5482 34.3792 12.4779C34.3211 12.4076 34.2464 12.3562 34.1634 12.3295C33.4455 12.0537 31.9042 12.7551 30.5784 13.9616L23.4446 20.4526C22.7015 21.1288 21.8488 21.6788 21.1049 21.9618L10.9352 25.8302Z" fill="#FF3E00"/>
<path d="M13.1591 32.4896H13.1566C11.4103 32.4891 10.1849 31.8998 9.61267 30.7855C8.90557 29.4084 9.25668 27.3084 10.6014 24.8723L10.6168 24.8444L21.1119 21.6957C21.8585 21.4716 22.7338 20.9744 23.5135 20.3312L31.1355 14.0438C32.5807 12.8517 34.1847 12.2504 34.9499 12.6144C35.0653 12.6646 35.1657 12.7492 35.2395 12.8587C35.3134 12.9682 35.3579 13.0981 35.368 13.2339C35.576 15.3435 34.1996 18.3476 31.5914 21.4757C26.5276 27.5493 18.2596 32.4896 13.1591 32.4896ZM10.7135 24.9848C9.41046 27.3562 9.0655 29.387 9.74248 30.7054C10.2866 31.7652 11.4672 32.3258 13.1566 32.3263H13.1591C18.2233 32.3263 26.4418 27.4101 31.4816 21.3655C34.0609 18.2719 35.4234 15.3145 35.2198 13.2515C35.2126 13.1445 35.1778 13.0419 35.1196 12.9556C35.0613 12.8694 34.982 12.803 34.8907 12.7643C34.1829 12.4276 32.6073 13.0341 31.225 14.1744L23.6029 20.4616L23.5581 20.3963L23.6029 20.4616C22.8088 21.1165 21.9152 21.6238 21.1513 21.853L10.7135 24.9848Z" fill="#FF3E00"/>
<path d="M13.2475 32.4698C12.9534 32.4698 12.6692 32.4555 12.395 32.427C10.7194 32.2516 9.56374 31.5322 9.05266 30.3466C8.37736 28.7792 8.87478 26.4993 10.4534 23.9272L10.4706 23.8992L21.1768 21.5799C21.9378 21.415 22.8488 20.9677 23.6763 20.3526L31.7691 14.3368C33.2624 13.2269 34.8922 12.7318 35.6448 13.1596C35.9055 13.308 36.0464 13.5613 36.0521 13.8923C36.0918 16.1949 34.4827 19.3018 31.6375 22.4163C26.4077 28.141 18.3994 32.4692 13.2475 32.4698ZM10.5599 24.0464C9.02543 26.5573 8.53801 28.7691 9.18749 30.2768C9.67464 31.4075 10.7886 32.0948 12.4092 32.2644C17.451 32.7925 26.0311 28.3226 31.5325 22.3007C34.3491 19.2174 35.9422 16.1538 35.9032 13.8955C35.8987 13.6242 35.7885 13.4255 35.5762 13.3047C34.8809 12.9093 33.28 13.4111 31.8527 14.4721L23.76 20.4878L23.7182 20.4202L23.76 20.4878C22.9166 21.1148 21.9857 21.5712 21.2059 21.7402L10.5599 24.0464Z" fill="#FF3E00"/>
<path d="M13.479 32.4644C12.862 32.4693 12.2462 32.4075 11.6403 32.2798C10.0407 31.9279 8.96125 31.0738 8.5186 29.8095C7.89707 28.0346 8.55854 25.5767 10.3809 22.8885L10.4 22.8603L21.2511 21.4614C22.0217 21.3622 22.9642 20.9726 23.8369 20.3927L32.3766 14.7198C33.9296 13.6882 35.5378 13.3156 36.2885 13.8143C36.567 13.9994 36.7027 14.297 36.681 14.675C36.5378 17.1694 34.6889 20.364 31.6084 23.4394C26.2951 28.744 18.644 32.4644 13.479 32.4644ZM10.4812 23.0142C8.70471 25.6449 8.057 28.0363 8.65759 29.751C9.08097 30.9603 10.1225 31.7793 11.6698 32.1196C16.6509 33.2151 25.5504 29.2669 31.5084 23.3186C34.5605 20.2717 36.3916 17.1172 36.5325 14.6649C36.5506 14.3474 36.4426 14.108 36.2114 13.9542C35.5178 13.4934 33.9376 13.8741 32.4539 14.8598L23.914 20.5325C23.0237 21.124 22.0594 21.5217 21.2685 21.6236L10.4812 23.0142Z" fill="#FF3E00"/>
<path d="M13.8783 32.4911C12.7758 32.4911 11.7707 32.3462 10.8997 32.0419C9.37951 31.5106 8.38263 30.5147 8.01682 29.162C7.47657 27.1644 8.31985 24.5344 10.3908 21.7566L10.4122 21.7279L21.3348 21.3409C22.1095 21.3134 23.0785 20.9897 23.9936 20.4527L32.9517 15.1976C34.5269 14.2734 36.1395 14.0201 36.873 14.5814C37.1712 14.8096 37.2999 15.1573 37.2454 15.5868C36.9049 18.2703 34.8101 21.5352 31.4979 24.5442C26.1973 29.3601 19.0004 32.4911 13.8783 32.4911ZM10.4847 21.8888C8.46124 24.6127 7.63564 27.178 8.15956 29.1156C8.51067 30.414 9.47381 31.3721 10.9449 31.8862C15.8188 33.5896 24.9961 30.2395 31.4032 24.4184C34.6868 21.4351 36.7627 18.2078 37.0981 15.5643C37.1451 15.1944 37.0407 14.9088 36.788 14.7154C36.1096 14.1962 34.5256 14.4595 33.0219 15.3417L24.0638 20.597L24.0286 20.5248L24.0637 20.5968C23.1292 21.145 22.1363 21.4756 21.3395 21.5039L10.4847 21.8888Z" fill="#FF3E00"/>
<path d="M14.4655 32.571C12.8227 32.571 11.3576 32.2932 10.1803 31.7071C8.74135 30.9904 7.83425 29.8429 7.55637 28.3891C7.12991 26.1574 8.17197 23.3671 10.4905 20.5321L10.5145 20.5027L21.4285 21.219C22.2014 21.27 23.1917 21.0202 24.1453 20.5343L33.4865 15.7747C35.0709 14.9674 36.6762 14.8393 37.3907 15.4629C37.71 15.7415 37.8294 16.1457 37.7357 16.6318C37.1839 19.4997 34.8382 22.8157 31.3007 25.729C26.1188 29.9964 19.4684 32.571 14.4655 32.571ZM10.5776 20.6705C8.30815 23.4557 7.28735 26.1837 7.70237 28.3555C7.97003 29.7565 8.84836 30.864 10.2422 31.5583C14.9598 33.9084 24.367 31.2349 31.2115 25.5984C34.7205 22.7085 37.0452 19.4282 37.5901 16.5981C37.6723 16.1706 37.5741 15.8317 37.298 15.5908C36.6258 15.0042 35.0843 15.1408 33.5493 15.9229L24.2079 20.6825C23.2327 21.1794 22.216 21.4343 21.4195 21.3821L10.5776 20.6705Z" fill="#FF3E00"/>
<path d="M15.2492 32.7292C12.9646 32.7292 10.9622 32.2595 9.49027 31.2697C8.1341 30.3577 7.32442 29.0451 7.14875 27.4739C6.87286 25.0035 8.12926 22.0709 10.6871 19.2166L10.7142 19.1865L21.5322 21.0968C22.2972 21.232 23.3025 21.0647 24.2902 20.6381L33.9741 16.4554C35.5788 15.7622 37.1298 15.7644 37.833 16.4609C38.1742 16.7989 38.2807 17.2667 38.1414 17.8138C37.364 20.8603 34.7648 24.2054 31.0099 26.9918C26.0618 30.6633 20.0377 32.7289 15.2492 32.7292ZM10.7663 19.3612C8.25898 22.1698 7.02709 25.0424 7.29661 27.454C7.46653 28.9741 8.25196 30.2453 9.56802 31.1304C14.0804 34.1647 23.6612 32.2473 30.9263 26.8562C34.6526 24.0912 37.2298 20.7792 37.9977 17.7695C38.121 17.2862 38.0294 16.8756 37.7331 16.582C37.0707 15.926 35.582 15.9361 34.0284 16.6071L24.3445 20.7899C23.3326 21.2269 22.2988 21.3974 21.5083 21.2579L10.7663 19.3612Z" fill="#FF3E00"/>
<path d="M16.2181 32.9925C13.1964 32.9925 10.5723 32.2548 8.83826 30.7243C7.56644 29.6018 6.86513 28.106 6.81027 26.3987C6.7232 23.6934 8.20696 20.6441 10.9882 17.8127L11.0185 17.7818L21.6462 20.9754C22.3967 21.2009 23.4101 21.1242 24.4269 20.7653L34.4063 17.2425C36.0183 16.6734 37.5045 16.8042 38.1922 17.5757C38.5556 17.9833 38.6455 18.5224 38.4522 19.1346C37.4363 22.3507 34.5817 25.7018 30.6203 28.3283C26.0194 31.3789 20.685 32.9922 16.2181 32.9925ZM11.0592 17.9634C8.32958 20.7532 6.87386 23.7455 6.95907 26.3929C7.01239 28.0514 7.69448 29.5052 8.93152 30.5969C13.1843 34.3504 22.8792 33.2701 30.5433 28.1885C34.4754 25.5814 37.3068 22.2618 38.3114 19.0809C38.4851 18.5312 38.407 18.0501 38.0857 17.6897C37.447 16.9733 35.9867 16.8561 34.4519 17.3978L24.4725 20.9206C23.4288 21.2891 22.3843 21.3664 21.6068 21.1327L11.0592 17.9634Z" fill="#FF3E00"/>
<path d="M17.3304 33.3873C13.4945 33.3873 10.1697 32.2847 8.23069 30.066C7.04706 28.7117 6.46859 27.0104 6.55778 25.146C6.69767 22.2206 8.41667 19.0877 11.398 16.324L11.4323 16.2922L21.7686 20.856C22.4972 21.1778 23.5118 21.2001 24.5521 20.9174L34.7733 18.1398C36.3553 17.7101 37.8016 17.9724 38.4586 18.8083C38.8376 19.2905 38.9077 19.9257 38.6558 20.5966C37.3888 23.9723 34.2793 27.3033 30.1247 29.7355C25.9747 32.165 21.3693 33.3873 17.3304 33.3873ZM11.4598 16.4803C8.53128 19.2068 6.84376 22.2858 6.70627 25.1546C6.61929 26.9728 7.18352 28.632 8.33797 29.9529C12.2757 34.4582 22.0175 34.2961 30.0544 29.5912C34.1792 27.1765 37.2638 23.8752 38.518 20.5342C38.7506 19.914 38.691 19.3542 38.3456 18.9147C37.7251 18.1251 36.3371 17.883 34.8091 18.2982L24.588 21.0755L24.5699 20.9961L24.588 21.0755C23.5177 21.3663 22.4698 21.3413 21.713 21.0071L11.4598 16.4803Z" fill="#FF3E00"/>
<path d="M18.5221 33.9373C13.824 33.9373 9.73967 32.3473 7.6792 29.2908C4.85782 25.1056 6.56433 19.2639 11.9258 14.7544L11.9644 14.7219L21.9013 20.7394C22.6009 21.1631 23.6085 21.2925 24.6662 21.0947L35.0693 19.1494C36.6329 18.8567 37.9964 19.2437 38.627 20.1584C39.0241 20.7344 39.0657 21.4595 38.7437 22.2003C37.2141 25.7227 33.8522 29.0057 29.5202 31.2075C25.9058 33.0446 22.0416 33.9371 18.5221 33.9373ZM11.9778 14.9166C6.71625 19.363 5.03629 25.0957 7.79892 29.1936C9.5105 31.7326 12.7142 33.3275 16.8199 33.6845C20.9351 34.0425 25.4231 33.1099 29.4576 31.0593C33.7588 28.8733 37.0944 25.6187 38.6094 22.13C38.9103 21.4371 38.8754 20.7894 38.5083 20.2569C37.9203 19.4041 36.5801 19.0326 35.0944 19.3104L24.6912 21.2558L24.6787 21.1753L24.6912 21.2558C23.6008 21.4597 22.5577 21.3236 21.8294 20.8825L11.9778 14.9166Z" fill="#FF3E00"/>
<path d="M19.7086 34.6593C14.1357 34.6593 9.26413 32.4305 7.19131 28.3946C4.71615 23.5752 6.87983 17.4327 12.5756 13.1097L12.6191 13.0767L22.0425 20.6272C22.705 21.1581 23.6974 21.4029 24.7657 21.2987L24.7723 21.38L24.7657 21.2987L35.2838 20.2734C36.7952 20.1261 38.1004 20.6446 38.6888 21.6266C39.0988 22.3107 39.1041 23.1343 38.7037 23.9456C36.9003 27.5999 33.2907 30.8049 28.8003 32.7389C25.7798 34.0397 22.6467 34.6592 19.7086 34.6593ZM12.6168 13.2772C7.02012 17.5478 4.8919 23.5848 7.32103 28.3145C8.82473 31.2423 11.8895 33.3025 15.9506 34.1157C20.0209 34.9307 24.5647 34.3876 28.7457 32.5868C33.204 30.6666 36.7857 27.4888 38.5727 23.8678C38.9458 23.1119 38.9427 22.3478 38.5644 21.7164C38.006 20.7847 36.7539 20.2941 35.2968 20.4363L24.7789 21.4614C23.6753 21.569 22.6459 21.313 21.9547 20.7591L12.6168 13.2772Z" fill="#FF3E00"/>
<path d="M20.8527 35.5567C18.8358 35.5567 16.8601 35.2548 15.008 34.6487C10.9834 33.3319 8.06029 30.7485 6.77671 27.3743C4.69621 21.9043 7.3389 15.4831 13.3534 11.3959L13.4021 11.3628L22.1918 20.52C22.8091 21.1633 23.776 21.5237 24.8489 21.5296V21.6113V21.5296L35.4084 21.5125H35.4161C36.8646 21.5125 38.0982 22.1638 38.6376 23.2133C39.0524 24.0207 39.0125 24.9502 38.5251 25.8307C36.4385 29.5997 32.588 32.6947 27.9608 34.3221C25.6637 35.1339 23.2659 35.5503 20.8527 35.5567ZM13.3829 11.5683C7.46766 15.6129 4.86826 21.9333 6.91421 27.3116C8.1801 30.6396 11.0697 33.1897 15.0508 34.4923C19.0394 35.7972 23.608 35.6816 27.9156 34.1666C32.5089 32.5509 36.3296 29.4817 38.3978 25.7458C38.856 24.9181 38.8951 24.0472 38.5079 23.2935C37.995 22.2953 36.8108 21.676 35.4162 21.676H35.4086L24.8491 21.693H24.8415C23.7354 21.693 22.7327 21.3089 22.0892 20.6386L13.3829 11.5683Z" fill="#FF3E00"/>
<path d="M21.7871 36.6499C19.083 36.6499 16.4451 36.0807 14.0661 34.9572C10.1618 33.1132 7.45549 30.0133 6.44549 26.2284C4.80868 20.0945 7.95097 13.4208 14.2648 9.62181L14.3191 9.58911L22.3488 20.4196C22.9128 21.1803 23.8478 21.6794 24.9141 21.789L35.4348 22.868C36.8417 23.0123 37.9753 23.7796 38.4674 24.9207C38.8693 25.853 38.7711 26.922 38.1978 27.8537C35.82 31.7175 31.7382 34.6685 26.9988 35.9501C25.2936 36.4128 23.5437 36.6478 21.7871 36.6499ZM14.2821 9.7979C8.0677 13.5647 4.97639 20.1417 6.58846 26.1825C7.5857 29.9198 10.2623 32.9827 14.1249 34.8071C17.9937 36.6343 22.5533 36.9837 26.9633 35.7912C31.6673 34.5192 35.7171 31.5927 38.0744 27.762C38.6256 26.8664 38.7175 25.8821 38.3329 24.9904C37.8636 23.9019 36.775 23.1694 35.4211 23.0305L24.9003 21.9514C23.7945 21.838 22.8223 21.3172 22.2333 20.5225L14.2821 9.7979Z" fill="#FF3E00"/>
<path d="M22.5288 37.9256C19.1666 37.9256 15.9069 36.9924 13.1032 35.1928C9.36121 32.7908 6.91214 29.1547 6.20717 24.954C5.06452 18.1471 8.72444 11.2512 15.3141 7.79494L15.3741 7.76343L22.5132 20.3263C23.0152 21.2095 23.9067 21.847 24.9597 22.0761L35.3546 24.3378C36.6908 24.6285 37.7439 25.5305 38.1717 26.7508C38.5511 27.8332 38.3834 29.0209 37.7117 30.0093C35.0361 33.9458 30.735 36.7169 25.9112 37.6121C24.7937 37.8201 23.6623 37.9249 22.5288 37.9256ZM15.3183 7.97395C8.82779 11.4083 5.22698 18.2117 6.35352 24.9245C7.05054 29.0774 9.47428 32.6742 13.1783 35.0516C16.8862 37.4316 21.3991 38.2837 25.8863 37.451C30.6727 36.5628 34.9393 33.8147 37.5922 29.9115C38.2328 28.9688 38.3934 27.8383 38.0326 26.8093C37.6233 25.6417 36.6113 24.7777 35.3256 24.4979L24.9308 22.2362C23.8376 21.9984 22.9104 21.3337 22.3868 20.4125L15.3183 7.97395Z" fill="#FF3E00"/>
<path d="M23.0535 39.3779C19.064 39.3779 15.2343 37.9758 12.125 35.3475C8.58934 32.359 6.4396 28.1695 6.07099 23.5508C5.47397 16.0659 9.667 8.98313 16.5045 5.92581L16.5701 5.89648L16.6001 5.96684L22.6839 20.2412C23.114 21.2505 23.9518 22.0344 24.9825 22.3919L35.1584 25.9212C36.4223 26.3596 37.3884 27.4019 37.7425 28.7092C38.0793 29.9523 37.8292 31.2585 37.0561 32.2927C34.0781 36.277 29.5727 38.8309 24.6952 39.2991C24.1459 39.3518 23.5987 39.3781 23.0535 39.3779ZM16.4954 6.10651C9.75746 9.15238 5.63001 16.1474 6.21933 23.5365C6.58406 28.1091 8.71363 32.2577 12.216 35.2181C15.72 38.1803 20.148 39.5716 24.682 39.1363C29.5199 38.672 33.9882 36.1399 36.9409 32.1891C37.6821 31.1975 37.9224 29.9461 37.5997 28.7556C37.2597 27.5003 36.3301 26.4989 35.1133 26.0769L24.9376 22.5476C23.8673 22.1765 22.9967 21.3609 22.5489 20.3103L16.4954 6.10651Z" fill="#FF3E00"/>
<path d="M23.3489 40.9995C18.7582 40.9995 14.4218 39.0158 11.1384 35.4138C7.85506 31.8119 6.04688 27.0547 6.04688 22.0182C6.04455 18.0414 7.18188 14.1645 9.29805 10.9356C11.4142 7.70675 14.4021 5.28943 17.8392 4.02551L17.9097 3.99951L22.86 20.1657C23.0339 20.7309 23.3118 21.2508 23.6766 21.6931C24.0415 22.1353 24.4853 22.4906 24.9806 22.7366L34.8372 27.6158C35.4292 27.9051 35.9498 28.3452 36.3557 28.8995C36.7616 29.4538 37.0411 30.1064 37.171 30.8029C37.3065 31.4881 37.291 32.1988 37.1259 32.8761C36.9608 33.5534 36.6508 34.1777 36.2217 34.6972C34.5978 36.6779 32.6128 38.2623 30.3953 39.348C28.1778 40.4337 25.7772 40.9963 23.3489 40.9995ZM17.8161 4.20657C14.4256 5.47131 11.4815 7.86947 9.39725 11.0642C7.31304 14.2589 6.19345 18.0896 6.19577 22.0182C6.19577 27.0108 7.98849 31.727 11.2437 35.2981C14.4989 38.8692 18.7979 40.8361 23.3489 40.8361C25.7563 40.8329 28.1362 40.2751 30.3346 39.1988C32.5331 38.1224 34.5009 36.5516 36.1108 34.588C36.5242 34.0875 36.8228 33.4861 36.9818 32.8337C37.1408 32.1812 37.1557 31.4966 37.0251 30.8366C36.8999 30.1652 36.6306 29.5363 36.2394 29.002C35.8482 28.4678 35.3465 28.0436 34.7759 27.7647L24.9194 22.8855C24.4054 22.6302 23.9448 22.2616 23.5663 21.8027C23.1877 21.3437 22.8993 20.8042 22.7189 20.2178L17.8161 4.20657Z" fill="#FF3E00"/>
</g>
<path d="M67.328 39L63.296 28.328H59.84L55.824 39H58.944L59.472 37.464H63.68L64.208 39H67.328ZM62.928 35.064H60.208L61.568 31.048L62.928 35.064ZM71.2682 42.136C73.1883 42.136 75.6843 41.464 75.6843 38.312V31.272H73.2363V32.184C72.6123 31.416 71.8123 31.08 70.9483 31.08C69.0123 31.08 67.5403 32.424 67.5403 34.968C67.5403 37.576 69.0603 38.872 70.9483 38.872C71.8283 38.872 72.5963 38.504 73.2363 37.752V38.344C73.2363 39.784 72.0843 40.12 71.2682 40.12C70.3723 40.12 69.5082 39.864 68.9163 39.224L67.8443 40.984C68.8363 41.8 69.9403 42.136 71.2682 42.136ZM71.7643 36.696C70.7883 36.696 70.0683 36.104 70.0683 34.968C70.0683 33.848 70.7883 33.256 71.7643 33.256C72.2763 33.256 72.9323 33.528 73.2363 33.944V36.008C72.9323 36.424 72.2763 36.696 71.7643 36.696ZM81.2018 39.192C82.3858 39.192 83.6658 38.856 84.4338 38.168L83.3938 36.632C82.9618 37.048 82.0178 37.288 81.4738 37.288C80.3538 37.288 79.6818 36.632 79.5378 35.912H85.0417V35.384C85.0417 32.76 83.3778 31.08 81.0898 31.08C78.6738 31.08 76.9778 32.888 76.9778 35.128C76.9778 37.64 78.8178 39.192 81.2018 39.192ZM82.6898 34.312H79.5058C79.6018 33.752 80.0178 32.984 81.0898 32.984C82.2258 32.984 82.6258 33.768 82.6898 34.312ZM93.9514 39V33.528C93.9514 32.104 93.1514 31.08 91.3914 31.08C90.0954 31.08 89.1834 31.672 88.7194 32.216V31.272H86.2554V39H88.7194V34.008C89.0074 33.656 89.4874 33.256 90.2234 33.256C90.9914 33.256 91.4874 33.592 91.4874 34.536V39H93.9514ZM99.4518 39.192C101.116 39.192 102.156 38.44 102.62 37.768L101.02 36.264C100.716 36.696 100.22 37.016 99.5638 37.016C98.5398 37.016 97.7558 36.296 97.7558 35.128C97.7558 33.96 98.5398 33.256 99.5638 33.256C100.22 33.256 100.716 33.544 101.02 33.992L102.62 32.504C102.156 31.816 101.116 31.08 99.4518 31.08C97.0358 31.08 95.2278 32.712 95.2278 35.128C95.2278 37.56 97.0358 39.192 99.4518 39.192ZM103.58 42.008C103.836 42.088 104.412 42.136 104.636 42.136C106.108 42.104 107.276 41.736 107.9 40.104L111.388 31.272H108.78L107.02 36.168L105.276 31.272H102.684L105.756 39.112L105.58 39.528C105.452 39.848 105.1 39.96 104.54 39.96C104.348 39.96 104.108 39.912 103.932 39.816L103.58 42.008Z" fill="#FF4509"/>
<defs>
<clipPath id="clip0_1646_5128">
<rect width="33" height="37" fill="white" transform="translate(6 3.99951)"/>
</clipPath>
</defs>
</svg>
