<svg width="101" height="153" viewBox="0 0 101 153" fill="none" xmlns="http://www.w3.org/2000/svg">
<path fill-rule="evenodd" clip-rule="evenodd" d="M12.151 13.4043C3.80234 27.4718 4.50272 44.602 11.1812 61.0214C21.1642 85.5529 44.4628 108.494 70.358 117.23C70.8958 117.404 71.6077 117.216 71.944 116.811C72.2895 116.396 72.1333 115.923 71.594 115.741C46.1025 107.138 23.2234 84.5137 13.4014 60.353C6.86967 44.3072 6.08559 27.5757 14.255 13.8259C14.5165 13.3899 14.2528 12.9474 13.6699 12.8287C13.0995 12.7151 12.4125 12.9682 12.151 13.4043Z" fill="black"/>
<path fill-rule="evenodd" clip-rule="evenodd" d="M94.2825 133.864C79.7732 128.214 68.084 122.112 49.6687 120.961C49.0469 120.928 48.4208 121.254 48.2762 121.705C48.1192 122.15 48.4982 122.545 49.1091 122.58C69.371 123.848 81.3325 131.247 98.1406 137.27C99.0509 137.592 99.663 137.145 99.7984 137.031C100.002 136.864 100.258 136.561 100.061 136.167C100.022 136.09 99.9127 135.949 99.7163 135.772C99.328 135.442 98.4471 134.826 98.0978 134.518C97.1013 133.622 96.1469 132.71 95.1504 131.815C92.3012 129.255 89.505 126.676 87.014 123.924C77.6697 113.642 69.9258 105.288 74.4863 91.6501C74.6418 91.1974 74.2643 90.8099 73.6409 90.7696C73.03 90.7345 72.4055 91.068 72.2594 91.511C67.5356 105.618 75.3625 114.313 85.0204 124.95C87.5518 127.732 90.3792 130.351 93.2564 132.936C93.6057 133.244 93.9441 133.554 94.2825 133.864Z" fill="black"/>
</svg>
