<svg width="44" height="28" viewBox="0 0 44 28" fill="none" xmlns="http://www.w3.org/2000/svg">
<path d="M43 14.5C43.2761 14.5 43.5 14.2761 43.5 14C43.5 13.7239 43.2761 13.5 43 13.5V14.5ZM11.6464 13.6464C11.4512 13.8417 11.4512 14.1583 11.6464 14.3536L14.8284 17.5355C15.0237 17.7308 15.3403 17.7308 15.5355 17.5355C15.7308 17.3403 15.7308 17.0237 15.5355 16.8284L12.7071 14L15.5355 11.1716C15.7308 10.9763 15.7308 10.6597 15.5355 10.4645C15.3403 10.2692 15.0237 10.2692 14.8284 10.4645L11.6464 13.6464ZM43 13.5L12 13.5V14.5L43 14.5V13.5Z" fill="black"/>
<circle cx="14" cy="14" r="13.5" stroke="black"/>
</svg>
