<svg width="258" height="68" viewBox="0 0 258 68" fill="none" xmlns="http://www.w3.org/2000/svg">
<path fill-rule="evenodd" clip-rule="evenodd" d="M251.044 61.9714C235.042 46.7888 211.27 36.589 184.813 30.2115C144.857 20.5809 98.7699 19.6613 63.674 23.6264C41.6159 26.1168 28.612 32.8696 8.41058 38.5454C7.59223 38.775 6.59046 38.4955 6.17308 37.9204C5.75539 37.3481 6.08003 36.693 6.89805 36.4662C27.3358 30.7238 40.5218 23.935 62.8375 21.4144C98.4226 17.3944 145.154 18.3443 185.671 28.1087C212.858 34.6617 237.249 45.1855 253.695 60.788C254.249 61.3136 254.107 62.0034 253.375 62.3303C252.643 62.6572 251.598 62.497 251.044 61.9714Z" fill="black"/>
<path fill-rule="evenodd" clip-rule="evenodd" d="M2.09376 37.1218C2.16417 37.0987 2.63847 36.9518 3.01172 36.7991C4.56583 36.1724 7.11297 34.8983 10.1671 33.1533C20.4007 27.2908 36.2872 16.1363 38.9352 5.76472C39.0881 5.16643 39.9462 4.81141 40.8516 4.96999C41.757 5.12856 42.3694 5.73983 42.2165 6.33812C39.4614 17.1296 23.0989 28.8177 12.4487 34.9155C11.0213 35.7315 9.69799 36.4518 8.52375 37.0535C13.2082 36.9493 17.868 36.7634 22.5321 36.5411C35.958 35.898 48.027 37.2364 61.2124 40.5615C62.0938 40.7823 62.6084 41.4333 62.3564 42.0091C62.1085 42.5854 61.1861 42.8738 60.305 42.6502C47.6135 39.4514 35.9927 38.1578 23.0696 38.7758C16.9745 39.0654 10.878 39.2927 4.73986 39.3657C4.129 39.3731 2.53961 39.3802 2.31344 39.3575C1.02333 39.2289 0.784912 38.4962 0.744152 38.3334C0.723452 38.2549 0.551209 37.2754 2.09376 37.1218ZM2.98638 39.3261C2.9436 39.3298 2.90047 39.3362 2.85351 39.3394C2.89179 39.3381 2.93491 39.3316 2.98638 39.3261Z" fill="black"/>
</svg>
