<svg width="283" height="166" viewBox="0 0 283 166" fill="none" xmlns="http://www.w3.org/2000/svg">
<path fill-rule="evenodd" clip-rule="evenodd" d="M261.942 158.074C250.765 134.959 229.2 114.808 203.202 98.0925C163.939 72.85 114.559 55.4338 75.0827 47.5284C50.272 42.5578 33.5234 45.6958 9.43797 45.0422C8.4624 45.0153 7.49329 44.3388 7.27365 43.5302C7.05256 42.7248 7.66607 42.0877 8.64015 42.1177C33.0075 42.7788 49.967 39.6641 75.0679 44.6914C115.094 52.7073 165.158 70.3872 204.972 95.9825C231.688 113.158 253.792 133.901 265.279 157.656C265.667 158.456 265.236 159.198 264.315 159.313C263.393 159.429 262.33 158.874 261.942 158.074Z" fill="black"/>
<path fill-rule="evenodd" clip-rule="evenodd" d="M3.1911 41.1652C3.27639 41.1636 3.84736 41.1633 4.3116 41.1204C6.2408 40.9525 9.50194 40.3936 13.4994 39.4739C26.9001 36.3748 48.5277 29.2055 55.5506 18.2358C55.9559 17.6031 57.0247 17.5 57.9384 18.0035C58.8521 18.507 59.2677 19.4263 58.8624 20.0591C51.5552 31.473 29.1996 39.086 15.2547 42.3075C13.3862 42.7378 11.6685 43.0952 10.1594 43.3693C15.2579 44.9125 20.3626 46.3532 25.4864 47.7536C40.2373 51.7811 52.7278 57.6024 65.6257 66.1012C66.4884 66.6676 66.7825 67.5978 66.2792 68.1695C65.7803 68.7433 64.6687 68.747 63.8074 68.1775C51.392 59.9991 39.3674 54.3884 25.1693 50.5105C18.4737 48.6794 11.8016 46.7763 5.14643 44.6811C4.4841 44.4727 2.76558 43.9167 2.53055 43.8103C1.18955 43.2048 1.22642 42.2787 1.24776 42.0774C1.25697 41.9798 1.46433 40.7939 3.1911 41.1652ZM3.26954 44.0132C3.22191 44.0022 3.17276 43.9943 3.12079 43.9813C3.16265 43.9933 3.21179 44.0012 3.26954 44.0132Z" fill="black"/>
</svg>
