<svg width="189" height="41" viewBox="0 0 189 41" fill="none" xmlns="http://www.w3.org/2000/svg">
<path fill-rule="evenodd" clip-rule="evenodd" d="M3.11594 22.9029C16.6924 15.1437 35.1521 11.6397 55.0089 10.9703C84.9969 9.95973 118.178 15.4105 142.8 22.5908C158.276 27.1027 166.668 33.1942 180.372 39.5309C180.927 39.7874 181.684 39.7373 182.063 39.4187C182.441 39.1019 182.299 38.6338 181.744 38.3792C167.88 31.9683 159.362 25.8295 143.706 21.2642C118.74 13.984 85.093 8.46833 54.6843 9.49217C34.2797 10.1798 15.3308 13.8128 1.37817 21.7865C0.907906 22.055 0.914427 22.5216 1.39421 22.8299C1.874 23.1383 2.64568 23.1714 3.11594 22.9029Z" fill="black"/>
<path fill-rule="evenodd" clip-rule="evenodd" d="M185.099 39.4354C185.051 39.4112 184.732 39.2535 184.485 39.1054C183.457 38.4945 181.806 37.3328 179.857 35.7989C173.329 30.649 163.477 21.3209 163.013 14.2384C162.986 13.8298 162.419 13.4867 161.748 13.4708C161.077 13.455 160.553 13.7716 160.58 14.1802C161.064 21.5494 171.182 31.2865 177.977 36.6438C178.888 37.361 179.738 38.0024 180.497 38.5473C177.151 37.8649 173.835 37.1326 170.521 36.3762C160.981 34.1967 152.14 33.4821 142.223 33.911C141.561 33.9387 141.102 34.2939 141.203 34.7009C141.301 35.1077 141.922 35.416 142.585 35.3864C152.13 34.9747 160.643 35.6597 169.826 37.7568C174.158 38.7447 178.498 39.6924 182.891 40.5453C183.328 40.6302 184.467 40.8434 184.632 40.8583C185.575 40.9442 185.847 40.4996 185.899 40.3993C185.925 40.351 186.184 39.7376 185.099 39.4354ZM184.154 40.7497C184.184 40.7576 184.214 40.7675 184.247 40.7757C184.22 40.7698 184.19 40.76 184.154 40.7497Z" fill="black"/>
</svg>
