<svg width="229" height="179" viewBox="0 0 229 179" fill="none" xmlns="http://www.w3.org/2000/svg">
<g clip-path="url(#clip0_1493_4833)">
<path fill-rule="evenodd" clip-rule="evenodd" d="M76.1508 26.4044C67.8021 40.4719 68.5025 57.6021 75.181 74.0216C85.1639 98.553 108.463 121.494 134.358 130.23C134.896 130.405 135.607 130.216 135.944 129.811C136.289 129.396 136.133 128.923 135.594 128.741C110.102 120.138 87.2231 97.5138 77.4011 73.3531C70.8694 57.3073 70.0853 40.5758 78.2548 26.826C78.5162 26.39 78.2525 25.9475 77.6696 25.8288C77.0992 25.7152 76.4122 25.9683 76.1508 26.4044Z" fill="white"/>
<path fill-rule="evenodd" clip-rule="evenodd" d="M158.283 146.864C143.773 141.214 132.084 135.112 113.669 133.961C113.047 133.928 112.421 134.254 112.276 134.705C112.119 135.15 112.498 135.545 113.109 135.58C133.371 136.848 145.333 144.247 162.141 150.27C163.051 150.592 163.663 150.145 163.798 150.031C164.002 149.864 164.258 149.561 164.061 149.167C164.022 149.09 163.913 148.949 163.716 148.772C163.328 148.442 162.447 147.826 162.098 147.518C161.101 146.622 160.147 145.71 159.15 144.815C156.301 142.255 153.505 139.676 151.014 136.924C141.67 126.642 133.926 118.288 138.486 104.65C138.642 104.197 138.264 103.81 137.641 103.77C137.03 103.735 136.405 104.068 136.259 104.511C131.536 118.618 139.362 127.313 149.02 137.95C151.552 140.732 154.379 143.351 157.256 145.936C157.606 146.244 157.944 146.554 158.283 146.864Z" fill="white"/>
</g>
<defs>
<clipPath id="clip0_1493_4833">
<rect width="204.449" height="139.67" fill="white" transform="translate(0 42.0166) rotate(-11.8594)"/>
</clipPath>
</defs>
</svg>
