<svg width="53" height="61" viewBox="0 0 53 61" fill="none" xmlns="http://www.w3.org/2000/svg">
<path fill-rule="evenodd" clip-rule="evenodd" d="M44.5914 1.39429H47.7227L47.6243 1.98671H47.0373C46.7438 1.98671 46.5483 1.91736 46.5483 1.91736V2.99796C46.5483 3.38098 46.4503 3.76489 46.4503 4.14791C46.4503 4.53138 46.3524 4.91484 46.3524 5.12425H45.5699V4.14791C45.5699 3.76489 45.6678 3.38098 45.6678 2.99796C45.6678 2.57959 45.765 2.09187 45.765 1.91736H45.3739H44.9821C44.7865 1.91736 44.591 1.98671 44.591 1.98671V1.39429H44.5914ZM48.1133 1.39429H49.1893C49.1893 1.60325 49.2872 1.81266 49.2872 1.91691C49.2872 2.09142 49.4828 2.40464 49.5807 2.7881C49.5807 2.89281 49.6787 3.17157 49.6787 3.38053C49.7758 3.764 49.9722 4.14746 49.9722 4.14746C49.9722 3.9385 50.1677 3.65974 50.2657 3.27627C50.3628 2.99751 50.5592 2.57914 50.6567 2.30038C50.7547 1.98627 50.9502 1.60325 50.9502 1.39429H52.1246V2.57914C52.1246 2.99751 52.0266 3.55504 52.0266 3.9385V5.1238H51.2441V4.35687V3.38053C51.2441 3.06687 51.3421 2.7881 51.3421 2.57869V2.19612L50.2661 5.12425H49.4828C49.4828 4.91484 49.2872 4.53182 49.2872 4.25261C49.1893 3.76489 48.9938 3.38098 48.9938 3.27672C48.9938 3.06776 48.7982 2.68429 48.7003 2.30083V3.27672C48.7003 3.55548 48.6023 3.93895 48.6023 4.25261V5.12425H47.8198C47.8198 4.74079 47.9178 4.25261 47.9178 3.83469C47.9178 3.48613 48.0149 2.99796 48.0149 2.57959C48.0153 2.19612 48.1133 1.81266 48.1133 1.39429ZM10.4765 60.7547H8.38901L7.57386 57.6181H3.72502L2.90987 60.7547H0.887695L4.44263 46.8819H6.72563L10.4765 60.7547ZM6.98647 55.3522L5.617 50.1241L4.34466 55.3522H6.98647ZM17.9778 60.7547H16.2165V59.326C15.923 59.9533 15.5315 60.3721 15.1727 60.5462C14.8143 60.7551 14.4225 60.9999 14.031 60.9999C13.3134 60.9999 12.5962 60.4764 12.0741 59.6052C11.4872 58.8038 11.2263 57.41 11.2263 55.7714C11.2263 54.0988 11.4876 52.6339 11.9766 51.7627C12.4983 50.9264 13.2485 50.4038 14.1294 50.4038C14.8143 50.4038 15.5319 50.9264 16.1512 51.8674V46.8823H17.9778V60.7547ZM13.0203 55.5271C13.0203 56.5724 13.151 57.5133 13.3138 57.9322C13.6077 58.5595 14.0314 58.9774 14.5209 58.9774C14.9772 58.9774 15.336 58.6637 15.6295 58.2807C15.923 57.7572 16.1512 56.886 16.1512 55.8408C16.1512 54.7248 15.9883 53.7843 15.6948 53.2608C15.4336 52.7381 14.9772 52.3896 14.5209 52.3896C14.1294 52.3896 13.7706 52.7381 13.4445 53.157C13.1505 53.6796 13.0203 54.481 13.0203 55.5271ZM19.4779 55.5271C19.4779 54.7248 19.5755 53.8536 19.8694 53.0522C20.1955 52.216 20.6196 51.5886 21.1413 51.1698C21.6956 50.717 22.3806 50.4033 23.0333 50.4033C24.0444 50.4033 24.9901 50.926 25.6098 51.8669C26.2947 52.9122 26.6535 54.3069 26.6535 55.771C26.6535 57.235 26.2947 58.5595 25.6098 59.5009C24.8922 60.4764 24.0444 60.9999 23.0333 60.9999C22.4136 60.9999 21.794 60.7551 21.207 60.3726C20.62 59.9538 20.1959 59.3264 19.8698 58.5599C19.5763 57.7577 19.4783 56.7124 19.4783 55.6663V55.5271H19.4779ZM21.3042 55.771C21.3042 56.8171 21.4021 57.6185 21.6956 58.1411C22.0218 58.6638 22.5112 58.9774 22.968 58.9774C23.3916 58.9774 23.8811 58.6638 24.1746 58.1411C24.5007 57.6185 24.6962 56.8171 24.6962 55.771C24.6962 54.7248 24.5007 53.8536 24.1746 53.331C23.8811 52.7386 23.3916 52.3896 22.968 52.3896C22.5112 52.3896 22.0548 52.7381 21.7936 53.2608C21.5001 53.8532 21.3042 54.7248 21.3042 55.771ZM28.0883 60.7547V46.8819H29.9141V51.8669C30.4366 50.9255 31.1865 50.4033 31.9036 50.4033C32.7514 50.4033 33.4695 50.926 34.0238 51.7622C34.5781 52.6334 34.9047 53.9583 34.9047 55.6663C34.9047 57.3397 34.5785 58.8038 34.0238 59.6052C33.4368 60.4764 32.7196 60.9999 32.0016 60.9999C31.6106 60.9999 31.1865 60.7551 30.8272 60.5462C30.4362 60.3721 30.0774 59.8495 29.881 59.326V60.7547H28.0883ZM29.9141 55.5271C29.9141 56.5724 30.0778 57.5133 30.2403 57.9322C30.5337 58.5595 31.0236 58.9774 31.5452 58.9774C32.0016 58.9774 32.3604 58.6637 32.6212 58.2807C32.9147 57.8619 33.0776 56.886 33.0776 55.8408C33.0776 54.7248 32.9147 53.7843 32.6212 53.2608C32.3604 52.7381 31.9032 52.3896 31.4469 52.3896C31.0232 52.3896 30.6644 52.7381 30.3709 53.157C30.0778 53.6796 29.9141 54.481 29.9141 55.5271ZM40.4487 57.6185L42.2754 57.9322C42.079 58.9774 41.6226 59.8495 41.1667 60.2325C40.6451 60.6513 39.927 60.9999 39.1772 60.9999C38.0686 60.9999 37.0897 60.3726 36.535 59.3264C36.0786 58.4552 35.8823 57.235 35.8823 55.8412C35.8823 54.2026 36.1431 52.8088 36.7301 51.8674C37.317 50.926 38.1653 50.4038 39.0784 50.4038C40.0891 50.4038 40.905 50.9264 41.4598 51.8674C42.079 52.9126 42.4378 54.4814 42.4378 56.4685H37.7098C37.7098 57.3397 37.8077 57.9322 38.1343 58.385C38.4269 58.8038 38.7862 58.9774 39.1776 58.9774C39.5038 58.9774 39.7972 58.9085 39.9275 58.6638C40.0899 58.4548 40.2863 58.0369 40.4487 57.6185ZM40.6124 54.8295C40.6124 54.0979 40.3516 53.4357 40.1552 53.0518C39.8944 52.633 39.5033 52.3896 39.1445 52.3896C38.72 52.3896 38.3294 52.7381 38.1339 53.157C37.8077 53.5749 37.7093 54.2022 37.7093 54.8295H40.6124Z" fill="black"/>
<path fill-rule="evenodd" clip-rule="evenodd" d="M0.5625 0H16.2174L0.5625 40.7478V0ZM26.8822 0H42.7327V40.2243L26.8822 0ZM21.7292 15.5808L30.3723 40.0157H25.0233L21.3378 32.2779H15.4672L21.7292 15.5808Z" fill="#CC2229"/>
</svg>
