<svg width="66" height="50" viewBox="0 0 66 50" fill="none" xmlns="http://www.w3.org/2000/svg">
<g clip-path="url(#clip0_40_186)">
<path d="M12.4416 49.8903V46.572C12.4416 45.3027 11.6696 44.4715 10.3442 44.4715C9.68155 44.4715 8.96097 44.6905 8.46558 45.4122C8.07955 44.8065 7.52625 44.4715 6.6963 44.4715C6.143 44.4715 5.5897 44.639 5.15221 45.2447V44.581H3.99414V49.8903H5.15221V46.9586C5.15221 46.0179 5.64761 45.5733 6.41965 45.5733C7.1917 45.5733 7.57772 46.0694 7.57772 46.9586V49.8903H8.73579V46.9586C8.73579 46.0179 9.28909 45.5733 10.0032 45.5733C10.7753 45.5733 11.1613 46.0694 11.1613 46.9586V49.8903H12.4416ZM29.6196 44.581H27.741V42.9766H26.5829V44.581H25.5342V45.6313H26.5829V48.0668C26.5829 49.2846 27.0783 49.9999 28.4037 49.9999C28.8991 49.9999 29.4524 49.8323 29.8384 49.6133L29.5038 48.6145C29.1693 48.8336 28.7833 48.8916 28.5066 48.8916C27.9533 48.8916 27.7346 48.5565 27.7346 48.0089V45.6313H29.6132V44.581H29.6196ZM39.4504 44.465C38.7877 44.465 38.3438 44.8001 38.0671 45.2382V44.5746H36.909V49.8839H38.0671V46.8942C38.0671 46.0114 38.4531 45.5088 39.1737 45.5088C39.3925 45.5088 39.6691 45.5668 39.8943 45.6184L40.2288 44.5101C39.9972 44.465 39.6691 44.465 39.4504 44.465ZM24.5949 45.0191C24.0416 44.6325 23.2696 44.465 22.4396 44.465C21.1143 44.465 20.2328 45.1287 20.2328 46.1789C20.2328 47.0617 20.8955 47.5643 22.0536 47.7254L22.6069 47.7833C23.2117 47.8929 23.5462 48.0604 23.5462 48.3375C23.5462 48.7241 23.1023 49.0011 22.3302 49.0011C21.5582 49.0011 20.947 48.7241 20.561 48.447L20.0077 49.3297C20.6124 49.7743 21.4424 49.9934 22.2723 49.9934C23.8164 49.9934 24.7043 49.2718 24.7043 48.2795C24.7043 47.3387 23.9837 46.8426 22.8835 46.6751L22.3302 46.6171C21.8348 46.5591 21.4488 46.4496 21.4488 46.121C21.4488 45.7344 21.8348 45.5153 22.446 45.5153C23.1087 45.5153 23.7714 45.7923 24.1059 45.9599L24.5949 45.0191ZM55.406 44.465C54.7433 44.465 54.2994 44.8001 54.0227 45.2382V44.5746H52.8647V49.8839H54.0227V46.8942C54.0227 46.0114 54.4088 45.5088 55.1293 45.5088C55.3481 45.5088 55.6247 45.5668 55.8499 45.6184L56.1845 44.523C55.9593 44.465 55.6312 44.465 55.406 44.465ZM40.6084 47.2357C40.6084 48.84 41.715 49.9999 43.4264 49.9999C44.1984 49.9999 44.7518 49.8323 45.305 49.3942L44.7517 48.4534C44.3078 48.7885 43.8703 48.9496 43.3685 48.9496C42.4292 48.9496 41.7665 48.2859 41.7665 47.2357C41.7665 46.2369 42.4292 45.5733 43.3685 45.5217C43.8639 45.5217 44.3078 45.6893 44.7517 46.0179L45.305 45.0771C44.7518 44.6325 44.1984 44.4715 43.4264 44.4715C41.715 44.465 40.6084 45.6313 40.6084 47.2357ZM51.3206 47.2357V44.581H50.1625V45.2447C49.7765 44.7485 49.2232 44.4715 48.5026 44.4715C47.01 44.4715 45.8519 45.6313 45.8519 47.2357C45.8519 48.84 47.01 49.9999 48.5026 49.9999C49.2747 49.9999 49.828 49.7228 50.1625 49.2266V49.8903H51.3206V47.2357ZM47.0679 47.2357C47.0679 46.2949 47.6727 45.5217 48.6699 45.5217C49.6092 45.5217 50.2719 46.2434 50.2719 47.2357C50.2719 48.1764 49.6092 48.9496 48.6699 48.9496C47.6791 48.8916 47.0679 48.1699 47.0679 47.2357ZM33.2097 44.465C31.6656 44.465 30.559 45.5733 30.559 47.2292C30.559 48.8916 31.6656 49.9934 33.2676 49.9934C34.0396 49.9934 34.8117 49.7743 35.4229 49.2718L34.8696 48.4406C34.4256 48.7756 33.8723 48.9947 33.3255 48.9947C32.6049 48.9947 31.8907 48.6596 31.7235 47.7254H35.6416C35.6416 47.5578 35.6416 47.4483 35.6416 47.2808C35.6931 45.5733 34.6958 44.465 33.2097 44.465ZM33.2097 45.4637C33.9302 45.4637 34.4256 45.9083 34.535 46.7331H31.7749C31.8843 46.0179 32.3797 45.4637 33.2097 45.4637ZM61.9812 47.2357V42.4805H60.8232V45.2447C60.4372 44.7485 59.8839 44.4715 59.1633 44.4715C57.6707 44.4715 56.5126 45.6313 56.5126 47.2357C56.5126 48.84 57.6707 49.9999 59.1633 49.9999C59.9353 49.9999 60.4886 49.7228 60.8232 49.2266V49.8903H61.9812V47.2357ZM57.7286 47.2357C57.7286 46.2949 58.3333 45.5217 59.3306 45.5217C60.2699 45.5217 60.9326 46.2434 60.9326 47.2357C60.9326 48.1764 60.2699 48.9496 59.3306 48.9496C58.3333 48.8916 57.7286 48.1699 57.7286 47.2357ZM18.959 47.2357V44.581H17.8009V45.2447C17.4149 44.7485 16.8616 44.4715 16.141 44.4715C14.6484 44.4715 13.4903 45.6313 13.4903 47.2357C13.4903 48.84 14.6484 49.9999 16.141 49.9999C16.913 49.9999 17.4663 49.7228 17.8009 49.2266V49.8903H18.959V47.2357ZM14.6548 47.2357C14.6548 46.2949 15.2596 45.5217 16.2568 45.5217C17.1961 45.5217 17.8588 46.2434 17.8588 47.2357C17.8588 48.1764 17.1961 48.9496 16.2568 48.9496C15.2596 48.8916 14.6548 48.1699 14.6548 47.2357Z" fill="black" fill-opacity="0.25"/>
<path d="M41.6058 4.25903H24.209V35.5606H41.6058V4.25903Z" fill="#FF5A00"/>
<path d="M25.3668 19.9098C25.3668 13.5503 28.3521 7.90593 32.9329 4.25902C29.5616 1.60438 25.3089 0 20.6702 0C9.68144 0 0.790039 8.90464 0.790039 19.9098C0.790039 30.915 9.68144 39.8196 20.6702 39.8196C25.3089 39.8196 29.5616 38.2152 32.9329 35.5606C28.3457 31.9652 25.3668 26.2693 25.3668 19.9098Z" fill="#EB001B"/>
<path d="M65.0755 19.9098C65.0755 30.915 56.1841 39.8196 45.1953 39.8196C40.5566 39.8196 36.3039 38.2152 32.9326 35.5606C37.5713 31.9072 40.4987 26.2693 40.4987 19.9098C40.4987 13.5503 37.5134 7.90593 32.9326 4.25902C36.2975 1.60438 40.5501 0 45.1888 0C56.1841 0 65.0755 8.96263 65.0755 19.9098Z" fill="#F79E1B"/>
</g>
<defs>
<clipPath id="clip0_40_186">
<rect width="64.2857" height="50" fill="white" transform="translate(0.790039)"/>
</clipPath>
</defs>
</svg>
