<svg width="51" height="50" viewBox="0 0 51 50" fill="none" xmlns="http://www.w3.org/2000/svg">
<path d="M25.79 0C11.9674 0 0.790039 11.1773 0.790039 25C0.790039 38.8226 11.9674 50 25.79 50C39.6127 50 50.79 38.8226 50.79 25C50.79 11.2519 39.7617 0 25.79 0Z" fill="#171717" fill-opacity="0.04"/>
<path d="M32.9811 8L25.916 31.432L25.8805 31.4675L25.8095 31.432L18.7444 8L9.62012 38H11.3243C11.3243 38 12.4604 32.7811 14.342 29.6568C15.3716 27.9527 16.9337 26.5681 19.0284 26.6036C20.5195 26.6391 21.7976 27.4556 23.3953 29.6923C23.7503 30.1894 24.1763 31.0059 24.6024 31.787C25.2769 33.1006 25.845 34.4497 25.845 34.4497C25.845 34.4497 27.3361 31.0414 28.2947 29.6923C29.8923 27.4556 31.1704 26.6391 32.6615 26.6036C34.7562 26.568 36.3538 27.9527 37.3479 29.6568C39.2296 32.7811 40.3657 38 40.3657 38H42.0698L32.9811 8Z" fill="#363636"/>
</svg>
