<svg width="50" height="50" viewBox="0 0 50 50" fill="none" xmlns="http://www.w3.org/2000/svg">
<path d="M24.732 49.804C24.4845 49.804 24.238 49.7995 23.992 49.7924L29.0811 35.806H36.0848C37.3141 35.806 38.6635 34.861 39.084 33.7064L44.6053 18.5409C45.5085 16.058 44.0864 14.0266 41.4443 14.0266H31.7281L23.5756 36.4287H23.5726L18.9509 49.1279C7.98593 46.5211 -0.169922 36.6644 -0.169922 24.9021C-0.169922 13.4788 7.52213 3.853 18.0088 0.919297L13.24 14.0266H13.2386L5.3107 35.806L10.5883 35.8065L17.3304 17.2994H21.2967L14.5546 35.8065L19.8303 35.8074L26.1132 18.5409C27.017 16.058 25.5947 14.0266 22.9551 14.0266H18.5188L23.6128 0.0261701C23.9842 0.00968409 24.3569 0 24.732 0C38.485 0 49.634 11.1489 49.634 24.9021C49.634 38.6549 38.485 49.804 24.732 49.804ZM39.7991 17.2861H35.8338L30.2808 32.5222H34.2462L39.7991 17.2861Z" fill="#FEB692"/>
</svg>
