<svg width="80" height="19" viewBox="0 0 80 19" fill="none" xmlns="http://www.w3.org/2000/svg">
<path d="M51.9156 6.91901C50.5662 5.66791 48.9383 5.05644 47.0556 5.05644C45.199 5.05644 43.5703 5.66862 42.2203 6.91901C40.8717 8.14336 40.1857 9.8462 40.1857 12.0275C40.1857 14.2102 40.8717 15.9124 42.2203 17.1635C43.5696 18.3871 45.199 19 47.0556 19C48.9383 19 50.5662 18.3871 51.9156 17.1635C53.2902 15.9124 53.9756 14.2102 53.9756 12.0282C53.9756 9.8462 53.2889 8.14266 51.9156 6.91901ZM44.5123 14.821C43.801 14.1033 43.4423 13.1717 43.4423 12.0275C43.4423 10.8841 43.7976 9.95245 44.5123 9.26076C45.2236 8.54303 46.065 8.19684 47.0543 8.19684C48.0456 8.19684 48.9116 8.54303 49.6236 9.26076C50.3602 9.95245 50.7182 10.8841 50.7182 12.0282C50.7182 13.1724 50.3629 14.104 49.6236 14.8217C48.9123 15.5134 48.0463 15.8589 47.0543 15.8589C46.065 15.8589 45.2256 15.5134 44.5123 14.8217V14.821ZM58.7868 18.6257V0.367306H55.5809V18.6257H58.7868ZM69.1348 5.42867V12.7136C69.1348 14.4692 68.2274 15.6323 66.5001 15.6323C64.7441 15.6323 63.8608 14.4699 63.8608 12.7136V5.42867H60.6495V13.2723C60.6495 16.3113 62.4815 18.9979 66.5001 18.9979H66.5248C70.5194 18.9979 72.3481 16.2522 72.3481 13.2723V5.42867H69.1348ZM36.773 5.42867L33.5677 14.3686L30.3617 5.42867H26.9524L32.0677 18.6264H35.071L40.1857 5.42867H36.773ZM26.9691 11.6553C26.9691 9.73924 26.3844 8.1701 25.2391 6.91901C24.0931 5.66791 22.6191 5.05644 20.8125 5.05644C18.9558 5.05644 17.3779 5.72209 16.0792 7.02526C14.8059 8.32983 14.1719 9.97848 14.1719 12.0282C14.1719 14.0773 14.8072 15.7534 16.0545 17.0565C17.3279 18.3611 18.8545 18.9993 20.6605 18.9993C23.4351 18.9993 25.3938 17.7222 26.5871 15.1412L24.1965 13.7043C23.4091 15.3269 22.2631 16.1256 20.7112 16.1256C18.8032 16.1256 17.4545 14.8485 17.2512 12.8262H26.9678V11.6553H26.9691ZM20.7092 7.6107C22.5151 7.6107 23.7125 8.67462 24.0165 10.3782H17.2492C17.7339 8.80901 19.0552 7.6107 20.7092 7.6107ZM14.1719 18.6264L9.87125 10.7504C12.5926 9.7125 13.9412 7.90341 13.9412 5.26894C13.9439 2.04903 11.4999 0 7.60794 0H0V18.6257H3.35864V11.0684H6.20928L10.3299 18.6257L14.1719 18.6264ZM7.6066 3.08692C9.59125 3.08692 10.5839 3.9116 10.5839 5.53422C10.5839 7.15684 9.59059 7.98152 7.6066 7.98152H3.35931V3.08762L7.6066 3.08692ZM77.7827 18.9979C75.7194 18.9979 74.0461 17.2479 74.0461 15.087V1.86327H77.2514V5.4336H80V8.14758H77.2514V14.8717C77.2514 15.505 77.742 16.0179 78.3487 16.0179H80V18.9972L77.7827 18.9979Z" fill="black"/>
</svg>
