<svg width="163" height="51" viewBox="0 0 163 51" fill="none" xmlns="http://www.w3.org/2000/svg">
<path d="M84.8725 31.1591C84.6479 31.1591 84.4059 31.1024 84.2376 30.8752L77.0325 21.4136V31.0647H75.3897V19.1805C75.3897 18.7074 75.7817 18.3292 76.2301 18.3292C76.4912 18.3292 76.715 18.4045 76.8829 18.6317L84.0693 28.0742V18.4616H85.7118V30.326C85.7118 30.8181 85.3197 31.1587 84.8721 31.1587L84.8725 31.1591ZM98.4617 31.2725C96.8197 31.2725 95.1018 30.9314 93.4967 30.3264L93.8887 28.9636C95.3633 29.437 96.9684 29.7776 98.4617 29.7776C100.534 29.7776 101.616 29.0393 101.616 27.9989C101.616 27.0528 100.776 26.5794 97.8831 25.2169C94.9899 23.8545 93.8518 22.9846 93.8518 21.2812C93.8518 19.1432 95.4939 18.2725 98.5922 18.2725C99.8803 18.2725 101.859 18.5373 102.998 18.8783L102.737 20.2784C101.485 19.9759 99.918 19.7677 98.6295 19.7677C96.4462 19.7677 95.5502 20.1836 95.5502 21.2245C95.5502 22.2463 96.203 22.6812 99.2645 24.1008C102.494 25.5956 103.315 26.3526 103.315 27.9041C103.315 30.1563 101.187 31.2725 98.4617 31.2725ZM111.099 18.462H112.797V31.0639H111.099V18.462ZM127.246 25.3498H123.027V29.6266H127.246C128.682 29.6266 129.56 28.7182 129.56 27.4497C129.56 26.2578 128.646 25.3498 127.246 25.3498ZM126.424 19.8997H123.027V23.9307H126.424C127.786 23.9307 128.776 23.0599 128.776 21.849C128.776 20.6571 127.917 19.8997 126.424 19.8997ZM127.264 31.0643H122.187C122.075 31.0659 121.963 31.045 121.858 31.0029C121.754 30.9607 121.659 30.8982 121.579 30.8189C121.499 30.7396 121.435 30.6452 121.392 30.5412C121.349 30.4371 121.327 30.3256 121.328 30.213V19.3129C121.328 18.8585 121.702 18.4616 122.187 18.4616H126.387C128.963 18.4616 130.493 19.7292 130.493 21.7161C130.493 22.7946 129.858 23.7978 128.888 24.3843C130.326 24.8196 131.295 26.0115 131.295 27.4497C131.295 29.4552 129.634 31.0639 127.264 31.0639V31.0643ZM139.453 31.0643C138.987 31.0643 138.613 30.667 138.613 30.213V18.462H140.311V29.5318H147.068V31.0643H139.453ZM158.647 31.2725C155.175 31.2725 153.085 29.9858 153.085 27.3934C153.085 26.1634 153.776 24.9901 155.12 24.4414C154.037 23.7602 153.477 22.7951 153.477 21.7356C153.477 19.389 155.288 18.2725 158.685 18.2725C159.824 18.2725 161.428 18.4049 162.773 18.7078L162.586 20.1079C161.168 19.8807 159.842 19.7487 158.554 19.7487C156.351 19.7487 155.175 20.3541 155.175 21.8113C155.175 22.966 156.258 23.874 157.695 23.874H160.607C161.018 23.874 161.335 24.1955 161.335 24.5928C161.335 25.0092 161.018 25.3308 160.607 25.3308H157.472C155.829 25.3308 154.784 26.144 154.784 27.3934C154.784 29.2289 156.482 29.7772 158.61 29.7772C159.768 29.7772 161.335 29.6266 162.604 29.3236L162.847 30.7046C161.634 31.0457 160.047 31.2725 158.647 31.2725ZM62.75 20.8255L65.7248 28.2683L61.2323 24.6802L62.75 20.8255ZM68.0345 29.9829L63.4591 18.8196C63.329 18.4976 63.0674 18.3271 62.75 18.3271C62.5926 18.3241 62.4382 18.3699 62.3079 18.4581C62.1776 18.5462 62.0778 18.6725 62.0222 18.8196L57 31.0643H58.7175L60.7059 26.0161L66.6383 30.8747C66.877 31.0705 67.049 31.1587 67.2732 31.1587C67.7208 31.1587 68.1133 30.8185 68.1133 30.3268C68.1133 30.2465 68.0851 30.1199 68.0345 29.9833V29.9829Z" fill="#1A1918"/>
<path d="M50 25.2726C50 39.0802 38.8078 50.2725 24.9999 50.2725C11.1934 50.2725 0 39.0802 0 25.2726C0 11.4659 11.1934 0.272461 24.9999 0.272461C38.8076 0.272461 50 11.4659 50 25.2726Z" fill="#1A1918"/>
<path d="M25.4186 16.7238L31.8425 32.965L22.1392 25.1354L25.4186 16.724V16.7238ZM36.8307 36.7064L26.9493 12.3469C26.6671 11.6444 26.1032 11.2725 25.4186 11.2725C24.7326 11.2725 24.1276 11.6444 23.8454 12.3469L13 39.0661H16.71L21.0033 28.0497L33.8158 38.6525C34.3309 39.0793 34.7027 39.2725 35.1859 39.2725C36.1539 39.2725 37 38.5289 37 37.4563C37 37.2817 36.9397 37.0044 36.8307 36.7064Z" fill="white"/>
</svg>
