<svg width="89" height="33" viewBox="0 0 89 33" fill="none" xmlns="http://www.w3.org/2000/svg">
<path d="M56.24 23.4525C54.7067 23.4525 53.4133 23.1658 52.36 22.5925C51.3067 22.0058 50.5067 21.1725 49.96 20.0925C49.4267 19.0125 49.16 17.7258 49.16 16.2325C49.16 14.7525 49.4333 13.4725 49.98 12.3925C50.5267 11.2991 51.32 10.4591 52.36 9.87246C53.4 9.28579 54.6467 8.99246 56.1 8.99246C57.1 8.99246 58.0267 9.13913 58.88 9.43246C59.7333 9.72579 60.4467 10.1458 61.02 10.6925L60.28 12.3125C59.64 11.7791 58.9867 11.3991 58.32 11.1725C57.6533 10.9325 56.9133 10.8125 56.1 10.8125C54.54 10.8125 53.3533 11.2858 52.54 12.2325C51.7267 13.1658 51.32 14.4991 51.32 16.2325C51.32 18.0058 51.7333 19.3525 52.56 20.2725C53.4 21.1925 54.6533 21.6525 56.32 21.6525C57.3333 21.6525 58.34 21.4858 59.34 21.1525V17.3725H55.9V15.8125H61.08V22.4525C60.48 22.7458 59.7333 22.9858 58.84 23.1725C57.96 23.3591 57.0933 23.4525 56.24 23.4525ZM70.5889 23.4525C69.1622 23.4525 67.9422 23.1591 66.9289 22.5725C65.9156 21.9858 65.1356 21.1525 64.5889 20.0725C64.0556 18.9791 63.7889 17.6925 63.7889 16.2125C63.7889 14.7325 64.0556 13.4525 64.5889 12.3725C65.1356 11.2925 65.9156 10.4591 66.9289 9.87246C67.9422 9.28579 69.1622 8.99246 70.5889 8.99246C71.5489 8.99246 72.4422 9.14579 73.2689 9.45246C74.1089 9.74579 74.8089 10.1725 75.3689 10.7325L74.6489 12.3925C74.0356 11.8458 73.4022 11.4525 72.7489 11.2125C72.1089 10.9591 71.4089 10.8325 70.6489 10.8325C69.1289 10.8325 67.9689 11.2991 67.1689 12.2325C66.3689 13.1658 65.9689 14.4925 65.9689 16.2125C65.9689 17.9325 66.3689 19.2658 67.1689 20.2125C67.9689 21.1458 69.1289 21.6125 70.6489 21.6125C71.4089 21.6125 72.1089 21.4925 72.7489 21.2525C73.4022 20.9991 74.0356 20.5991 74.6489 20.0525L75.3689 21.7125C74.8089 22.2591 74.1089 22.6858 73.2689 22.9925C72.4422 23.2991 71.5489 23.4525 70.5889 23.4525ZM77.7845 23.2725V9.17246H83.6245C85.1445 9.17246 86.3179 9.55246 87.1445 10.3125C87.9712 11.0591 88.3845 12.1125 88.3845 13.4725C88.3845 14.8458 87.9712 15.9125 87.1445 16.6725C86.3179 17.4191 85.1445 17.7925 83.6245 17.7925H79.8645V23.2725H77.7845ZM79.8645 16.1325H83.3245C85.3512 16.1325 86.3645 15.2458 86.3645 13.4725C86.3645 11.7125 85.3512 10.8325 83.3245 10.8325H79.8645V16.1325Z" fill="#130F26"/>
<g clip-path="url(#clip0_39_359)">
<path d="M25.381 9.08461H26.6016L30.079 5.62776L30.25 4.16102C23.7798 -1.51594 13.9026 -0.904245 8.19192 5.52776C6.60413 7.31452 5.45227 9.43963 4.8252 11.7398C5.2125 11.5814 5.64173 11.5564 6.0458 11.6664L12.9989 10.5264C12.9989 10.5264 13.3527 9.94466 13.5354 9.98133C16.6289 6.60448 21.8349 6.21113 25.4062 9.08461H25.381Z" fill="#EA4335"/>
<path d="M35.0326 11.7397C34.2329 8.81458 32.5931 6.18444 30.3112 4.17267L25.4321 9.02292C27.4927 10.6963 28.6664 13.2181 28.6161 15.8633V16.725C31.0154 16.725 32.9586 18.6584 32.9586 21.0419C32.9586 23.427 31.0137 25.3588 28.6161 25.3588H19.9293L19.0625 26.2322V31.4108L19.9293 32.2725H28.6161C33.5957 32.3108 38.0137 29.1023 39.4925 24.3754C40.968 19.6468 39.1572 14.5132 35.0326 11.7397Z" fill="#4285F4"/>
<path d="M11.2308 32.2241H19.9175V25.3121H11.2308C10.6121 25.3121 10.0001 25.1804 9.43677 24.9238L8.21617 25.2988L4.71531 28.7556L4.41016 29.969C6.37352 31.4424 8.76946 32.2341 11.2308 32.2241Z" fill="#34A853"/>
<path d="M11.2304 9.79968C6.40501 9.82802 2.13121 12.8998 0.592034 17.4451C-0.947138 21.9903 0.587004 27.0072 4.41146 29.9307L9.44982 24.9221C7.26345 23.9404 6.29267 21.3836 7.28022 19.2102C8.26777 17.0367 10.8398 16.0717 13.0261 17.0534C13.9885 17.4867 14.7598 18.2534 15.1957 19.2102L20.2341 14.2016C18.0896 11.4164 14.7581 9.78802 11.2304 9.79968Z" fill="#FBBC05"/>
</g>
<defs>
<clipPath id="clip0_39_359">
<rect width="40" height="32" fill="white" transform="translate(0 0.272461)"/>
</clipPath>
</defs>
</svg>
