<svg width="123" height="36" viewBox="0 0 123 36" fill="none" xmlns="http://www.w3.org/2000/svg">
<g clip-path="url(#clip0_39_328)">
<path d="M113.161 12.7303C112.862 12.7303 112.571 12.7923 112.314 12.9386L104.173 17.6624C103.646 17.9675 103.326 18.5434 103.326 19.1563V28.5867C103.326 29.1991 103.646 29.7743 104.173 30.0801L106.299 31.3133C107.332 31.8248 107.713 31.8169 108.183 31.8169C109.712 31.8169 110.586 30.8844 110.586 29.264V19.955C110.586 19.8235 110.472 19.7293 110.344 19.7293H109.324C109.193 19.7293 109.082 19.8235 109.082 19.955V29.264C109.082 29.9821 108.337 30.7046 107.129 30.0975L104.917 28.795C104.838 28.7523 104.778 28.6768 104.778 28.5867V19.156C104.778 19.0667 104.837 18.9757 104.917 18.9303L113.04 14.2242C113.077 14.2026 113.119 14.1913 113.161 14.1913C113.204 14.1913 113.245 14.2026 113.282 14.2242L121.406 18.9306C121.483 18.9774 121.544 19.0641 121.544 19.1565V28.587C121.544 28.677 121.499 28.7692 121.423 28.8126L113.282 33.5191C113.212 33.5608 113.116 33.5608 113.04 33.5191L110.949 32.2687C110.917 32.2514 110.881 32.2423 110.845 32.2423C110.809 32.2423 110.773 32.2514 110.741 32.2687C110.164 32.5975 110.056 32.6356 109.514 32.8244C109.381 32.8712 109.178 32.9439 109.583 33.172L112.314 34.7868C112.572 34.9361 112.864 35.014 113.161 35.0127C113.458 35.0146 113.751 34.9367 114.008 34.787L122.149 30.0804C122.676 29.7726 122.996 29.1993 122.996 28.587V19.1563C122.996 18.5437 122.676 17.9687 122.149 17.6629L114.008 12.9391C113.753 12.7926 113.46 12.7305 113.161 12.7305L113.161 12.7303Z" fill="#83CD29"/>
<path d="M115.339 19.4689C113.02 19.4689 111.64 20.4602 111.64 22.1088C111.64 23.897 113.01 24.3884 115.235 24.6095C117.897 24.8714 118.104 25.2642 118.104 25.7906C118.104 26.7038 117.38 27.0931 115.667 27.0931C113.516 27.0931 113.043 26.5534 112.884 25.478C112.866 25.3626 112.777 25.2695 112.66 25.2695H111.605C111.475 25.2695 111.363 25.382 111.363 25.5128C111.363 26.8894 112.108 28.5172 115.667 28.5172C118.243 28.5172 119.729 27.5013 119.729 25.7211C119.729 23.9566 118.529 23.4828 116.03 23.1509C113.505 22.8151 113.264 22.6507 113.264 22.0567C113.264 21.5662 113.469 20.9102 115.339 20.9102C117.009 20.9102 117.627 21.2722 117.88 22.4041C117.902 22.5103 117.995 22.595 118.104 22.595H119.159C119.224 22.595 119.287 22.5549 119.331 22.5081C119.376 22.4581 119.407 22.4019 119.401 22.3345C119.237 20.3856 117.944 19.4689 115.339 19.4689Z" fill="#83CD29"/>
<path d="M65.3002 0.364919C65.2092 0.36498 65.1198 0.388856 65.0408 0.434195C64.9622 0.480364 64.897 0.546292 64.8516 0.625484C64.8061 0.704676 64.782 0.7944 64.7815 0.885816V14.1718C64.7815 14.3022 64.7212 14.419 64.6088 14.4844C64.5537 14.5167 64.4911 14.5337 64.4273 14.5337C64.3636 14.5337 64.3009 14.5167 64.2458 14.4844L62.0852 13.2341C61.9276 13.1424 61.7487 13.0942 61.5667 13.0942C61.3846 13.0942 61.2057 13.1424 61.0481 13.2341L52.4231 18.2357C52.1007 18.4228 51.9046 18.7822 51.9046 19.1563V29.1598C51.9046 29.5335 52.1009 29.8757 52.4231 30.0628L61.0481 35.0647C61.2056 35.1565 61.3845 35.2049 61.5667 35.2049C61.7488 35.2049 61.9277 35.1565 62.0852 35.0647L70.7102 30.0628C70.8681 29.9715 70.9993 29.8399 71.0903 29.6813C71.1814 29.5228 71.2292 29.3429 71.2289 29.1598V4.22047C71.2286 4.03312 71.1789 3.84918 71.0848 3.68744C70.9907 3.5257 70.8555 3.39195 70.6932 3.29985L65.5594 0.416816C65.4789 0.371678 65.3896 0.363712 65.3002 0.364919ZM9.81629 12.852C9.65197 12.8585 9.49726 12.8874 9.34976 12.9734L0.724479 17.9752C0.566482 18.0664 0.435304 18.198 0.344257 18.3566C0.253209 18.5152 0.20553 18.6952 0.206059 18.8782L0.223356 32.3035C0.223356 32.4901 0.319208 32.6637 0.482566 32.7549C0.560883 32.8022 0.650529 32.8272 0.741896 32.8272C0.833263 32.8272 0.922908 32.8022 1.00123 32.7549L6.11744 29.8026C6.44151 29.609 6.65316 29.2725 6.65316 28.8993V22.6298C6.65316 22.2556 6.84895 21.9124 7.17182 21.7265L9.34952 20.4588C9.50697 20.3668 9.68605 20.3188 9.86818 20.3198C10.0459 20.3198 10.2285 20.3644 10.3866 20.4588L12.5645 21.7265C12.7227 21.8176 12.854 21.9492 12.9451 22.1079C13.0362 22.2665 13.0838 22.4466 13.0832 22.6298V28.8991C13.0832 29.2723 13.297 29.6112 13.6189 29.8023L18.7351 32.7549C18.8134 32.8022 18.9031 32.8272 18.9945 32.8272C19.0858 32.8272 19.1755 32.8022 19.2538 32.7549C19.3326 32.7091 19.3981 32.6432 19.4436 32.5639C19.4892 32.4847 19.5132 32.3948 19.5132 32.3033L19.5301 18.8782C19.5311 18.6951 19.4836 18.5149 19.3925 18.3562C19.3014 18.1975 19.17 18.0661 19.0116 17.9752L10.3866 12.9734C10.2408 12.8874 10.0856 12.8587 9.92007 12.852H9.81629ZM87.3208 12.9734C87.1406 12.9734 86.9641 13.0192 86.8024 13.1124L78.1773 18.1143C78.0194 18.2056 77.8883 18.3371 77.7972 18.4957C77.7061 18.6543 77.6583 18.8342 77.6587 19.0173V29.0208C77.6587 29.3971 77.8696 29.7379 78.1944 29.924L86.7505 34.8216C87.0664 35.0026 87.4522 35.0164 87.7703 34.8385L92.9557 31.9383C93.1202 31.8466 93.2315 31.6752 93.2322 31.4869C93.2331 31.3953 93.2095 31.305 93.1639 31.2256C93.1183 31.1462 93.0524 31.0805 92.973 31.0353L84.2961 26.0334C84.1337 25.9403 84.0195 25.7518 84.0195 25.5644V22.4386C84.0195 22.2515 84.1349 22.0801 84.2961 21.987L86.9924 20.4238C87.0712 20.378 87.1607 20.3538 87.2517 20.3538C87.3428 20.3538 87.4323 20.378 87.5111 20.4238L90.2072 21.987C90.2862 22.0326 90.3518 22.0983 90.3973 22.1776C90.4429 22.2569 90.4668 22.3468 90.4666 22.4383V24.9045C90.4664 24.996 90.4902 25.086 90.5358 25.1653C90.5813 25.2445 90.6469 25.3103 90.7258 25.3559C90.8875 25.4498 91.0831 25.45 91.2443 25.3559L96.4126 22.3346C96.5703 22.2429 96.7012 22.1112 96.7922 21.9527C96.8833 21.7941 96.9312 21.6143 96.9313 21.4313V19.0175C96.9313 18.6446 96.7343 18.3016 96.4126 18.1143L87.8395 13.1124C87.6819 13.0208 87.5029 12.9729 87.3208 12.9736V12.9734ZM61.5319 20.4414C61.5771 20.4414 61.6299 20.4525 61.6703 20.4759L64.6261 22.1953C64.7064 22.2419 64.7645 22.328 64.7645 22.421V25.8597C64.7645 25.9531 64.7068 26.039 64.6261 26.0856L61.6703 27.8049C61.6308 27.8276 61.5862 27.8395 61.5407 27.8395C61.4952 27.8395 61.4506 27.8276 61.4111 27.8049L58.4555 26.0856C58.375 26.0388 58.3172 25.9531 58.3172 25.8597V22.421C58.3172 22.3278 58.3753 22.2423 58.4555 22.1953L61.4111 20.4762C61.4474 20.4535 61.4894 20.4415 61.5322 20.4417V20.4414H61.5319Z" fill="#404137"/>
<path d="M35.7256 12.9212C35.5459 12.9212 35.3681 12.9671 35.2072 13.0602L26.5821 18.0447C26.2595 18.2313 26.0635 18.5915 26.0635 18.9651V28.9686C26.0635 29.3427 26.2597 29.6845 26.5821 29.8718L35.2072 34.8735C35.3647 34.9654 35.5436 35.0138 35.7257 35.0138C35.9079 35.0138 36.0868 34.9654 36.2443 34.8735L44.8693 29.8718C45.0272 29.7805 45.1583 29.6488 45.2493 29.4902C45.3404 29.3316 45.3881 29.1517 45.3877 28.9686V18.9651C45.3877 18.591 45.1917 18.2313 44.8693 18.0447L36.2443 13.0602C36.0866 12.9687 35.9077 12.9208 35.7256 12.9212ZM87.3031 21.8481C87.2688 21.8481 87.2306 21.8481 87.1996 21.8655L85.5403 22.838C85.5093 22.8553 85.4835 22.8805 85.4652 22.911C85.447 22.9415 85.4371 22.9763 85.4365 23.0118V24.9221C85.4365 24.994 85.4778 25.0599 85.5403 25.0959L87.1996 26.051C87.2618 26.0873 87.3281 26.0873 87.3896 26.051L89.0489 25.0957C89.0797 25.0783 89.1055 25.0532 89.1237 25.0227C89.1419 24.9923 89.1519 24.9576 89.1527 24.9221V23.0116C89.1519 22.9761 89.1419 22.9414 89.1237 22.911C89.1055 22.8806 89.0797 22.8554 89.0489 22.838L87.3896 21.8653C87.3589 21.8472 87.3377 21.8484 87.3031 21.8484V21.8481Z" fill="#83CD29"/>
</g>
<defs>
<clipPath id="clip0_39_328">
<rect width="123" height="35" fill="white" transform="translate(0 0.272461)"/>
</clipPath>
</defs>
</svg>
