<svg width="126" height="17" viewBox="0 0 126 17" fill="none" xmlns="http://www.w3.org/2000/svg">
<path fill-rule="evenodd" clip-rule="evenodd" d="M90.3872 0.463516H87.8196V16.1832H99.8824L101.517 13.615H90.3872V0.463516ZM55.1769 1.24183L45.7607 16.1839H48.874L51.7144 11.6702H57.7846L59.3801 9.10269H53.3099L56.6175 3.92736L64.361 16.1846H67.4736L57.979 1.20228C57.3951 0.229557 55.8385 0.229556 55.1769 1.24183ZM73.4259 3.02705H84.2237L85.8158 0.460836L73.3468 0.468211C69.0088 0.468211 66.1536 3.98501 66.1536 8.32304C66.1536 12.6624 69.0095 16.1792 73.3468 16.1792L83.8945 16.1665L85.5457 13.6197H73.4252C70.5004 13.6197 68.7902 11.2486 68.7902 8.32304C68.7909 5.39817 70.501 3.02705 73.4259 3.02705ZM18.3228 0.468211H7.19383C2.85581 0.468211 0 3.98502 0 8.32371C0 12.6624 2.85581 16.1792 7.19383 16.1792H18.3228C22.6608 16.1792 25.5166 12.6624 25.5166 8.32371C25.5166 3.98502 22.6608 0.468211 18.3228 0.468211ZM18.3228 13.6197H7.19383C4.26897 13.6197 2.55884 11.2486 2.55884 8.32371C2.55884 5.39885 4.26897 3.02705 7.19383 3.02705H18.3228C21.2477 3.02705 22.9578 5.39885 22.9578 8.32371C22.9578 11.2486 21.2477 13.6197 18.3228 13.6197ZM108.857 3.02705H119.655L121.248 0.460836L108.779 0.468211C104.44 0.468211 101.584 3.98501 101.584 8.32304C101.584 12.6624 104.44 16.1792 108.779 16.1792L119.325 16.1665L120.977 13.6197H108.856C106.359 13.6197 104.761 11.8935 104.343 9.5686H117.942L119.576 7.00038H104.343C104.788 4.72444 106.395 3.02705 108.857 3.02705ZM40.1517 9.79653C41.3886 9.79653 42.5748 9.30517 43.4495 8.43053C44.3241 7.55589 44.8155 6.36963 44.8155 5.13271C44.8155 3.89578 44.3241 2.70952 43.4495 1.83488C42.5748 0.960248 41.3886 0.468881 40.1517 0.468881L27.0578 0.463516V16.1832H29.9371V3.02772H40.1517C40.7099 3.02772 41.2454 3.24949 41.6401 3.64426C42.0349 4.03902 42.2566 4.57443 42.2566 5.13271C42.2566 5.69098 42.0349 6.2264 41.6401 6.62116C41.2454 7.01592 40.7099 7.2377 40.1517 7.2377H31.961L41.2008 16.1658H44.9181L38.3034 9.80256L40.1517 9.79653ZM124.002 0.272461C123.23 0.272461 122.577 0.866415 122.577 1.67154C122.577 2.48404 123.23 3.07866 124.002 3.07866C124.767 3.07866 125.42 2.48471 125.42 1.67154C125.42 0.865745 124.766 0.272461 124.002 0.272461ZM124.002 2.84403C123.36 2.84403 122.859 2.34661 122.859 1.67087C122.859 1.00652 123.36 0.505752 124.002 0.505752C124.637 0.505752 125.137 1.0072 125.137 1.67087C125.137 2.34661 124.637 2.84403 124.002 2.84403Z" fill="#CF402D"/>
</svg>
