<svg width="120" height="44" viewBox="0 0 120 44" fill="none" xmlns="http://www.w3.org/2000/svg">
<path d="M48.2852 21.7774C48.2852 18.5787 44.2795 15.5474 38.138 13.6675C39.5553 7.40796 38.9254 2.42787 36.1499 0.833459C35.5102 0.45946 34.7622 0.282303 33.9453 0.282303V2.47708C34.398 2.47708 34.7622 2.56566 35.0673 2.73298C36.4058 3.50066 36.9865 6.42375 36.5338 10.1834C36.4255 11.1086 36.2483 12.0829 36.0318 13.077C34.1028 12.6046 31.9966 12.2404 29.7821 12.0042C28.4534 10.1834 27.0755 8.52996 25.6878 7.08317C28.8963 4.10103 31.908 2.46724 33.9551 2.46724V0.272461C31.2486 0.272461 27.7054 2.20151 24.1229 5.54781C20.5404 2.22119 16.9973 0.311829 14.2907 0.311829V2.50661C16.328 2.50661 19.3495 4.13055 22.558 7.09301C21.1801 8.5398 19.8022 10.1834 18.4932 12.0042C16.2689 12.2404 14.1627 12.6046 12.2337 13.0868C12.0073 12.1026 11.84 11.1479 11.7219 10.2326C11.2593 6.47296 11.8302 3.54987 13.1588 2.77235C13.4541 2.59519 13.8379 2.51645 14.2907 2.51645V0.321671C13.464 0.321671 12.716 0.498828 12.0664 0.872827C9.30075 2.46724 8.6807 7.43749 10.1078 13.6774C3.98604 15.567 0 18.5886 0 21.7774C0 24.9761 4.00572 28.0074 10.1472 29.8872C8.72991 36.1468 9.35981 41.1269 12.1353 42.7213C12.775 43.0953 13.523 43.2725 14.3497 43.2725C17.0563 43.2725 20.5994 41.3434 24.182 37.9971C27.7645 41.3237 31.3076 43.2331 34.0142 43.2331C34.8409 43.2331 35.5889 43.0559 36.2385 42.6819C39.0041 41.0875 39.6242 36.1173 38.1971 29.8774C44.2991 27.9976 48.2852 24.9662 48.2852 21.7774ZM35.4708 15.2127C35.1067 16.4823 34.6539 17.7913 34.1421 19.1003C33.7386 18.313 33.3154 17.5256 32.8528 16.7382C32.4001 15.9509 31.9178 15.1832 31.4356 14.4352C32.8331 14.6419 34.1815 14.8978 35.4708 15.2127ZM30.9631 25.6945C30.1955 27.0232 29.4081 28.283 28.5912 29.4542C27.1247 29.5821 25.6386 29.651 24.1426 29.651C22.6564 29.651 21.1703 29.5821 19.7137 29.464C18.8968 28.2928 18.0996 27.0429 17.3319 25.7241C16.5839 24.4347 15.9048 23.1257 15.2847 21.8069C15.8949 20.4881 16.5839 19.1692 17.322 17.8799C18.0897 16.5512 18.8771 15.2915 19.694 14.1203C21.1604 13.9923 22.6466 13.9234 24.1426 13.9234C25.6287 13.9234 27.1149 13.9923 28.5715 14.1104C29.3884 15.2816 30.1856 16.5316 30.9533 17.8504C31.7013 19.1397 32.3804 20.4487 33.0005 21.7675C32.3804 23.0864 31.7013 24.4052 30.9631 25.6945ZM34.1421 24.4151C34.6736 25.7339 35.1263 27.0527 35.5003 28.3322C34.211 28.6471 32.8528 28.9129 31.4454 29.1196C31.9277 28.3617 32.4099 27.5842 32.8627 26.787C33.3154 25.9996 33.7386 25.2024 34.1421 24.4151ZM24.1623 34.9165C23.247 33.9717 22.3317 32.9186 21.4262 31.7671C22.312 31.8064 23.2174 31.836 24.1328 31.836C25.0579 31.836 25.9732 31.8163 26.8688 31.7671C25.9831 32.9186 25.0678 33.9717 24.1623 34.9165ZM16.8398 29.1196C15.4422 28.9129 14.0938 28.657 12.8045 28.342C13.1687 27.0724 13.6214 25.7634 14.1332 24.4544C14.5367 25.2418 14.9599 26.0292 15.4225 26.8165C15.8851 27.6039 16.3575 28.3716 16.8398 29.1196ZM24.1131 8.63822C25.0284 9.58306 25.9437 10.6362 26.8492 11.7877C25.9634 11.7483 25.0579 11.7188 24.1426 11.7188C23.2174 11.7188 22.3021 11.7385 21.4065 11.7877C22.2923 10.6362 23.2076 9.58306 24.1131 8.63822ZM16.8299 14.4352C16.3477 15.193 15.8654 15.9706 15.4127 16.7678C14.9599 17.5551 14.5367 18.3425 14.1332 19.1299C13.6017 17.811 13.149 16.4922 12.775 15.2127C14.0643 14.9076 15.4225 14.6419 16.8299 14.4352ZM7.92287 26.7575C4.43877 25.2713 2.18494 23.3226 2.18494 21.7774C2.18494 20.2322 4.43877 18.2736 7.92287 16.7973C8.76929 16.4331 9.69444 16.1083 10.6491 15.8032C11.2101 17.7323 11.9483 19.7401 12.8636 21.7971C11.9581 23.8442 11.2298 25.8422 10.6786 27.7614C9.70428 27.4563 8.77913 27.1216 7.92287 26.7575ZM13.2179 40.8218C11.8794 40.0541 11.2987 37.131 11.7514 33.3713C11.8597 32.4462 12.0369 31.4718 12.2534 30.4778C14.1824 30.9502 16.2886 31.3143 18.5031 31.5506C19.8318 33.3713 21.2097 35.0248 22.5974 36.4716C19.3889 39.4537 16.3772 41.0875 14.3301 41.0875C13.8872 41.0777 13.5132 40.9891 13.2179 40.8218ZM36.5633 33.3221C37.0259 37.0818 36.455 40.0049 35.1263 40.7824C34.8311 40.9596 34.4472 41.0383 33.9945 41.0383C31.9572 41.0383 28.9357 39.4144 25.7272 36.4519C27.1051 35.0051 28.4829 33.3615 29.7919 31.5407C32.0163 31.3045 34.1225 30.9403 36.0515 30.4581C36.2779 31.4521 36.455 32.4068 36.5633 33.3221ZM40.3525 26.7575C39.5061 27.1216 38.5809 27.4464 37.6262 27.7515C37.0652 25.8225 36.3271 23.8147 35.4118 21.7577C36.3172 19.7105 37.0455 17.7126 37.5967 15.7934C38.5711 16.0985 39.4962 16.4331 40.3623 16.7973C43.8464 18.2834 46.1002 20.2322 46.1002 21.7774C46.0904 23.3226 43.8366 25.2812 40.3525 26.7575Z" fill="#61DAFB"/>
<path d="M24.1326 26.2753C26.6167 26.2753 28.6304 24.2616 28.6304 21.7775C28.6304 19.2934 26.6167 17.2797 24.1326 17.2797C21.6485 17.2797 19.6348 19.2934 19.6348 21.7775C19.6348 24.2616 21.6485 26.2753 24.1326 26.2753Z" fill="#61DAFB"/>
<path fill-rule="evenodd" clip-rule="evenodd" d="M72.1424 29.9711L67.6256 23.1656C69.9084 22.9647 71.9653 21.3151 71.9653 18.3015C71.9653 15.235 69.7832 13.2725 66.7222 13.2725H60V29.9584H62.0824V23.3284H65.4191L69.6836 29.9584L72.1424 29.9711ZM66.473 21.515H62.0835V15.1356H66.473C68.4558 15.1356 69.8098 16.4362 69.8098 18.3131C69.8098 20.19 68.4547 21.5171 66.473 21.5171V21.515ZM79.8941 30.2703C81.8769 30.2703 83.5065 29.62 84.711 28.4199L83.8076 27.1933C82.8534 28.1693 81.4496 28.7191 80.0701 28.7191C77.4618 28.7191 75.8555 26.8179 75.7049 24.5424H85.5126V24.0665C85.5126 20.4396 83.3549 17.5867 79.6916 17.5867C76.2298 17.5867 73.7222 20.4142 73.7222 23.9164C73.7222 27.6945 76.3061 30.2608 79.8931 30.2608L79.8941 30.2703ZM83.6581 23.1645H75.706C75.8067 21.3141 77.0844 19.1358 79.6693 19.1358C82.4293 19.1358 83.6327 21.3627 83.6581 23.1645ZM98.008 29.97V21.6641C98.008 18.7372 95.8769 17.5856 93.3173 17.5856C91.3346 17.5856 89.7802 18.2359 88.4761 19.5873L89.354 20.8879C90.4323 19.7375 91.6124 19.2119 93.0671 19.2119C94.8229 19.2119 96.1281 20.1372 96.1281 21.7635V23.9396C95.1495 22.8135 93.7701 22.2879 92.1139 22.2879C90.057 22.2879 87.8728 23.5642 87.8728 26.2659C87.8728 28.8925 90.0548 30.2693 92.1139 30.2693C93.7446 30.2693 95.1251 29.6941 96.1281 28.5933V29.9679L98.008 29.97ZM92.7914 28.919C91.0356 28.919 89.8057 27.8193 89.8057 26.2924C89.8057 24.7411 91.0356 23.6404 92.7914 23.6404C94.121 23.6404 95.3997 24.1405 96.1281 25.1419V27.4185C95.4008 28.4188 94.121 28.92 92.7914 28.92V28.919ZM107.105 30.2703C109.313 30.2703 110.617 29.3694 111.546 28.1693L110.291 27.0188C109.489 28.0942 108.46 28.5944 107.217 28.5944C104.633 28.5944 103.028 26.5927 103.028 23.9164C103.028 21.2401 104.634 19.2638 107.217 19.2638C108.471 19.2638 109.499 19.7396 110.291 20.8393L111.546 19.6888C110.618 18.4876 109.313 17.5878 107.105 17.5878C103.493 17.5878 101.06 20.3402 101.06 23.9174C101.06 27.52 103.493 30.2619 107.105 30.2619V30.2703ZM117.242 30.2703C118.344 30.2703 119.023 29.9447 119.5 29.4953L118.949 28.0942C118.697 28.3691 118.206 28.5944 117.669 28.5944C116.842 28.5944 116.439 27.944 116.439 27.0431V19.5376H118.899V17.887H116.439V14.5847H114.557V17.887H112.55V19.5387H114.557V27.4449C114.557 29.2468 115.46 30.2725 117.242 30.2725V30.2703Z" fill="#61DAFB"/>
</svg>
