<svg width="115" height="51" viewBox="0 0 115 51" fill="none" xmlns="http://www.w3.org/2000/svg">
<g clip-path="url(#clip0_317_723)">
<path opacity="0.45" d="M24.6873 0.00109863L16.4546 14.5733H0L8.22638 0.00109863H24.6873Z" fill="black"/>
<path opacity="0.6" d="M16.4548 14.5733H32.9139L24.6882 0.00109863H8.22656L16.4548 14.5733Z" fill="black"/>
<path opacity="0.8" d="M8.22638 29.1393L16.4546 14.5734L8.22638 0.00109863L0 14.5734L8.22638 29.1393Z" fill="black"/>
<path opacity="0.45" d="M8.30664 50.999L16.5393 36.4267H32.9997L24.767 50.999H8.30664Z" fill="black"/>
<path opacity="0.6" d="M16.5401 36.4267H0.0810547L8.30743 50.999H24.7677L16.5401 36.4267Z" fill="black"/>
<path opacity="0.8" d="M24.7677 21.8594L16.54 36.4267L24.7677 50.9989L33.0004 36.4267L24.7677 21.8594Z" fill="black"/>
</g>
<path d="M51.34 31.18C50.2333 31.18 49.22 31.04 48.3 30.76C47.38 30.4667 46.6 30.06 45.96 29.54L46.62 27.9C47.2867 28.4067 48 28.7867 48.76 29.04C49.52 29.2933 50.38 29.42 51.34 29.42C52.4733 29.42 53.3067 29.22 53.84 28.82C54.3867 28.4067 54.66 27.8733 54.66 27.22C54.66 26.6867 54.4667 26.2667 54.08 25.96C53.6933 25.64 53.0467 25.3867 52.14 25.2L50 24.76C48.7333 24.4933 47.7867 24.0533 47.16 23.44C46.5467 22.8267 46.24 22 46.24 20.96C46.24 20.12 46.46 19.38 46.9 18.74C47.3533 18.1 47.98 17.6067 48.78 17.26C49.58 16.9 50.5 16.72 51.54 16.72C52.5 16.72 53.3867 16.8667 54.2 17.16C55.0267 17.44 55.7267 17.8533 56.3 18.4L55.62 19.98C54.4867 18.98 53.12 18.48 51.52 18.48C50.5333 18.48 49.7467 18.7 49.16 19.14C48.5867 19.58 48.3 20.1667 48.3 20.9C48.3 21.46 48.48 21.9067 48.84 22.24C49.2 22.5733 49.8 22.8267 50.64 23L52.76 23.44C54.0933 23.72 55.0867 24.1533 55.74 24.74C56.3933 25.3133 56.72 26.0933 56.72 27.08C56.72 27.9067 56.5 28.6267 56.06 29.24C55.62 29.8533 55 30.3333 54.2 30.68C53.4 31.0133 52.4467 31.18 51.34 31.18ZM63.1014 31.18C62.1147 31.18 61.2614 30.9733 60.5414 30.56C59.8214 30.1467 59.2614 29.5667 58.8614 28.82C58.4747 28.06 58.2814 27.16 58.2814 26.12C58.2814 25.08 58.4747 24.1867 58.8614 23.44C59.2614 22.68 59.8214 22.0933 60.5414 21.68C61.2614 21.2667 62.1147 21.06 63.1014 21.06C64.0614 21.06 64.9014 21.2667 65.6214 21.68C66.3414 22.0933 66.9014 22.68 67.3014 23.44C67.7014 24.1867 67.9014 25.08 67.9014 26.12C67.9014 27.16 67.7014 28.06 67.3014 28.82C66.9014 29.5667 66.3414 30.1467 65.6214 30.56C64.9014 30.9733 64.0614 31.18 63.1014 31.18ZM63.1014 29.62C63.9281 29.62 64.5947 29.32 65.1014 28.72C65.6081 28.12 65.8614 27.2533 65.8614 26.12C65.8614 24.9867 65.6081 24.1267 65.1014 23.54C64.5947 22.94 63.9281 22.64 63.1014 22.64C62.2614 22.64 61.5881 22.94 61.0814 23.54C60.5747 24.1267 60.3214 24.9867 60.3214 26.12C60.3214 27.2533 60.5747 28.12 61.0814 28.72C61.5881 29.32 62.2614 29.62 63.1014 29.62ZM73.35 31.18C72.2833 31.18 71.4833 30.88 70.95 30.28C70.43 29.68 70.17 28.8 70.17 27.64V16.9H72.19V27.52C72.19 28.84 72.73 29.5 73.81 29.5C73.97 29.5 74.1167 29.4933 74.25 29.48C74.3967 29.4667 74.5433 29.44 74.69 29.4L74.65 31.02C74.1967 31.1267 73.7633 31.18 73.35 31.18ZM76.1033 18.98V16.88H78.4633V18.98H76.1033ZM76.2833 31V21.24H78.3033V31H76.2833ZM84.8666 31.18C84.0132 31.18 83.2599 30.98 82.6066 30.58C81.9666 30.1667 81.4666 29.58 81.1066 28.82C80.7466 28.06 80.5666 27.16 80.5666 26.12C80.5666 25.08 80.7466 24.1867 81.1066 23.44C81.4666 22.68 81.9666 22.0933 82.6066 21.68C83.2466 21.2667 83.9999 21.06 84.8666 21.06C85.5999 21.06 86.2532 21.22 86.8266 21.54C87.3999 21.86 87.8266 22.2933 88.1066 22.84V16.9H90.1266V31H88.1466V29.3C87.8666 29.8867 87.4332 30.3467 86.8466 30.68C86.2732 31.0133 85.6132 31.18 84.8666 31.18ZM85.3866 29.62C86.2132 29.62 86.8799 29.32 87.3866 28.72C87.8932 28.12 88.1466 27.2533 88.1466 26.12C88.1466 24.9867 87.8932 24.1267 87.3866 23.54C86.8799 22.94 86.2132 22.64 85.3866 22.64C84.5466 22.64 83.8732 22.94 83.3666 23.54C82.8599 24.1267 82.6066 24.9867 82.6066 26.12C82.6066 27.2533 82.8599 28.12 83.3666 28.72C83.8732 29.32 84.5466 29.62 85.3866 29.62ZM92.783 18.98V16.88H95.143V18.98H92.783ZM92.963 31V21.24H94.983V31H92.963ZM101.986 31.18C100.76 31.18 99.8463 30.8667 99.2463 30.24C98.6463 29.6133 98.3463 28.7067 98.3463 27.52V22.8H96.4463V21.24H98.3463V18.3H100.366V21.24H103.386V22.8H100.366V27.36C100.366 28.0667 100.513 28.6 100.806 28.96C101.113 29.32 101.606 29.5 102.286 29.5C102.5 29.5 102.706 29.48 102.906 29.44C103.106 29.3867 103.306 29.3267 103.506 29.26L103.826 30.78C103.626 30.9 103.346 30.9933 102.986 31.06C102.64 31.14 102.306 31.18 101.986 31.18ZM106.268 34.6L108.008 30.74L103.928 21.24H106.088L109.088 28.66L112.128 21.24H114.208L108.388 34.6H106.268Z" fill="black"/>
<defs>
<clipPath id="clip0_317_723">
<rect width="33" height="51" fill="white"/>
</clipPath>
</defs>
</svg>
