<svg width="20" height="6" viewBox="0 0 20 6" fill="none" xmlns="http://www.w3.org/2000/svg">
<path d="M17.1891 1.83716e-08C15.6368 -0.000175577 14.3783 1.25843 14.3783 2.81092C14.3783 4.36324 15.6368 5.62167 17.1891 5.62167C18.7416 5.62167 20 4.36324 20 2.81092C19.9982 1.25913 18.7409 0.00175561 17.1891 1.83716e-08ZM17.1891 4.50105C16.2558 4.50105 15.4989 3.74421 15.4989 2.81092C15.4989 1.87746 16.2558 1.12079 17.1891 1.12079C18.1225 1.12079 18.8792 1.87728 18.8792 2.81092C18.8782 3.74386 18.122 4.49965 17.1891 4.50105Z" fill="#292929"/>
<path d="M10.0002 0C8.44769 0 7.18909 1.25843 7.18909 2.81092C7.18909 4.36324 8.44769 5.62167 10.0002 5.62167C11.5525 5.62167 12.8109 4.36324 12.8109 2.81092C12.8109 1.25843 11.5525 0 10.0002 0ZM10.0002 4.50105C9.06654 4.50105 8.3097 3.74421 8.3097 2.81092C8.3097 1.87728 9.06654 1.12079 10.0002 1.12079C10.9335 1.12079 11.6901 1.87728 11.6901 2.81092C11.6901 3.74421 10.9335 4.50105 10.0002 4.50105Z" fill="#292929"/>
<path d="M2.81092 0C1.25843 0 0 1.25843 0 2.81092C0 4.36324 1.25843 5.62167 2.81092 5.62167C4.36324 5.62167 5.62166 4.36324 5.62166 2.81092C5.61991 1.25913 4.36253 0.0017556 2.81092 0ZM2.81092 4.50105C1.87746 4.50105 1.12079 3.74421 1.12079 2.81092C1.12079 1.87728 1.87746 1.12079 2.81092 1.12079C3.74438 1.12079 4.50088 1.87728 4.50088 2.81092C4.50088 3.74421 3.74421 4.50105 2.81092 4.50105Z" fill="#292929"/>
</svg>
