<svg width="12" height="12" viewBox="0 0 12 12" fill="none" xmlns="http://www.w3.org/2000/svg">
<path d="M11.5043 0.506238C11.2125 0.206764 10.7807 0.0951947 10.378 0.212636L0.988324 2.94314C0.563483 3.06117 0.26236 3.39998 0.181243 3.8304C0.0983758 4.26846 0.387828 4.82454 0.765983 5.05707L3.70193 6.86155C4.00306 7.04652 4.39172 7.00013 4.6409 6.74881L8.00286 3.36592C8.1721 3.18976 8.45221 3.18976 8.62145 3.36592C8.79068 3.53621 8.79068 3.8122 8.62145 3.98836L5.25365 7.37183C5.00388 7.62257 4.9572 8.01306 5.14102 8.31606L6.93493 11.2814C7.14501 11.6338 7.50683 11.8334 7.90366 11.8334C7.95034 11.8334 8.00286 11.8334 8.04955 11.8275C8.50473 11.7688 8.86655 11.4576 9.00077 11.0172L11.7844 1.63954C11.907 1.24024 11.7961 0.805712 11.5043 0.506238Z" fill="#FF4509"/>
</svg>
