<svg width="77" height="115" viewBox="0 0 77 115" fill="none" xmlns="http://www.w3.org/2000/svg">
<path d="M25.2189 98.2256C25.162 98.2749 25.1142 98.3369 25.0784 98.4079C25.0425 98.4789 25.0195 98.5573 25.0105 98.6385C25.0016 98.7196 25.007 98.8017 25.0263 98.8798C25.0457 98.9578 25.0787 99.0303 25.1232 99.0926L34.1134 111.708L-0.000192287 114.067L7.08133 77.078L14.9833 85.8807C15.0797 85.9881 15.209 86.0472 15.3439 86.0454C15.4788 86.0436 15.6086 85.9811 15.706 85.8712C44.3047 53.6805 47.086 6.33946 47.3239 0.329275L76.0068 1.97168C60.103 67.1927 25.5662 97.9222 25.2189 98.2256Z" fill="#FF4509" fill-opacity="0.6"/>
</svg>
