<svg width="10" height="12" viewBox="0 0 10 12" fill="none" xmlns="http://www.w3.org/2000/svg">
<path fill-rule="evenodd" clip-rule="evenodd" d="M0.0419922 5.01877C0.0419922 2.33552 2.28426 0.166748 4.9965 0.166748C7.7164 0.166748 9.95866 2.33552 9.95866 5.01877C9.95866 6.3709 9.46692 7.6262 8.65754 8.69017C7.76463 9.8638 6.66408 10.8864 5.42531 11.689C5.14179 11.8745 4.88592 11.8885 4.57476 11.689C3.32892 10.8864 2.22838 9.8638 1.34312 8.69017C0.533149 7.6262 0.0419922 6.3709 0.0419922 5.01877ZM3.36363 5.16985C3.36363 6.06874 4.09713 6.77572 4.9965 6.77572C5.89647 6.77572 6.63703 6.06874 6.63703 5.16985C6.63703 4.27796 5.89647 3.53657 4.9965 3.53657C4.09713 3.53657 3.36363 4.27796 3.36363 5.16985Z" fill="#FF4509"/>
</svg>
