<svg width="37" height="34" viewBox="0 0 37 34" fill="none" xmlns="http://www.w3.org/2000/svg">
<path d="M31.9167 12.8395H24.1458C23.7463 11.5259 22.9352 10.3756 21.8321 9.55807C20.729 8.74059 19.3924 8.29929 18.0194 8.29929C16.6464 8.29929 15.3098 8.74059 14.2067 9.55807C13.1036 10.3756 12.2924 11.5259 11.8929 12.8395H4.08566C3.0024 12.8406 1.96382 13.2714 1.19784 14.0374C0.431867 14.8033 0.00107094 15.8419 0 16.9252V29.9305C0.00534301 31.011 0.438024 32.0454 1.20354 32.8079C1.96906 33.5704 3.0052 33.9989 4.08566 34H31.9167C32.9999 33.9989 34.0385 33.5681 34.8045 32.8022C35.5705 32.0362 36.0013 30.9976 36.0023 29.9143V16.9252C36.0013 15.8419 35.5705 14.8033 34.8045 14.0374C34.0385 13.2714 32.9999 12.8406 31.9167 12.8395ZM18.0012 9.51031C19.1491 9.50689 20.2658 9.88415 21.1764 10.583C22.0871 11.2819 22.7404 12.263 23.034 13.3728C23.3276 14.4825 23.245 15.6583 22.7992 16.7161C22.3533 17.7739 21.5693 18.6541 20.5699 19.2188C19.688 19.2835 18.7657 19.324 17.8394 19.324C17.0303 19.324 16.2213 19.2916 15.4729 19.2431C14.4765 18.6801 13.6941 17.8035 13.2475 16.7497C12.8009 15.696 12.7152 14.5241 13.0036 13.4166C13.292 12.309 13.9385 11.3279 14.8423 10.6258C15.7461 9.92372 16.8567 9.54008 18.0012 9.53458V9.51031ZM34.7888 29.9305C34.7835 30.6891 34.4786 31.4149 33.9407 31.9498C33.4028 32.4847 32.6753 32.7854 31.9167 32.7864H4.08566C3.32426 32.7854 2.59435 32.4824 2.05596 31.944C1.51757 31.4056 1.21463 30.6757 1.21356 29.9143V16.9252C1.21463 16.1638 1.51757 15.4339 2.05596 14.8955C2.59435 14.3571 3.32426 14.0541 4.08566 14.0531H11.6462C11.5541 14.9523 11.6532 15.8608 11.9369 16.719C12.2206 17.5771 12.6826 18.3656 13.2926 19.0327C11.6764 18.8442 10.073 18.5591 8.49089 18.1792C8.33762 18.145 8.17708 18.1717 8.04302 18.2534C7.90895 18.3352 7.81181 18.4657 7.772 18.6176C7.73219 18.7695 7.75282 18.9309 7.82955 19.068C7.90628 19.205 8.03314 19.3069 8.18346 19.3523C11.3519 20.113 14.5971 20.5079 17.8555 20.5295C21.2051 20.493 24.5411 20.0984 27.8068 19.3523C27.9552 19.3072 28.0807 19.207 28.1575 19.0723C28.2343 18.9376 28.2566 18.7786 28.2199 18.6279C28.1831 18.4772 28.0901 18.3463 27.9598 18.2621C27.8296 18.1779 27.672 18.1468 27.5195 18.1751C25.9516 18.5271 24.3665 18.7971 22.7705 18.9842C23.3708 18.3191 23.8249 17.5356 24.1037 16.6841C24.3824 15.8327 24.4794 14.9322 24.3886 14.0409H31.9167C32.6781 14.042 33.408 14.345 33.9464 14.8833C34.4848 15.4217 34.7877 16.1516 34.7888 16.913V29.9305Z" fill="white"/>
<path d="M29.016 8.948C29.9007 8.948 30.7655 8.68571 31.5012 8.19428C32.2369 7.70285 32.8103 7.00434 33.149 6.18706C33.4878 5.36978 33.5766 4.47041 33.4043 3.60265C33.232 2.73489 32.8063 1.9377 32.181 1.31184C31.5557 0.685975 30.7589 0.259549 29.8913 0.0864624C29.0237 -0.0866244 28.1243 0.00139894 27.3067 0.339405C26.4891 0.677411 25.7901 1.25023 25.298 1.98544C24.8059 2.72065 24.5428 3.58526 24.542 4.46996C24.542 5.65691 25.0132 6.7953 25.8522 7.63498C26.6911 8.47466 27.829 8.94693 29.016 8.948ZM29.016 1.21761C29.6612 1.21761 30.2919 1.40904 30.8282 1.76766C31.3646 2.12628 31.7825 2.63597 32.029 3.23221C32.2755 3.82845 32.3396 4.48443 32.2132 5.11711C32.0867 5.74979 31.7754 6.33073 31.3186 6.78639C30.8618 7.24204 30.2801 7.55193 29.6471 7.67682C29.0141 7.80171 28.3583 7.73599 27.7627 7.48797C27.167 7.23995 26.6584 6.8208 26.3011 6.28356C25.9438 5.74632 25.754 5.11515 25.7556 4.46996C25.762 3.60945 26.1083 2.78636 26.7191 2.18015C27.3298 1.57394 28.1555 1.23377 29.016 1.23379V1.21761Z" fill="white"/>
<path d="M23.7047 22.8028C21.7663 23.0675 19.8116 23.1946 17.8553 23.1831C15.9996 23.2051 14.145 23.0793 12.3093 22.8069C12.1484 22.7784 11.9828 22.8151 11.8489 22.9088C11.715 23.0025 11.6238 23.1455 11.5953 23.3064C11.5669 23.4674 11.6036 23.633 11.6973 23.7669C11.7909 23.9008 11.934 23.992 12.0949 24.0204C14.0008 24.312 15.9274 24.4473 17.8553 24.4249C19.8756 24.4356 21.894 24.3004 23.8948 24.0204C24.0557 23.9952 24.2 23.9071 24.296 23.7755C24.392 23.6438 24.4317 23.4795 24.4065 23.3186C24.3813 23.1576 24.2932 23.0133 24.1616 22.9174C24.0299 22.8214 23.8656 22.7816 23.7047 22.8069V22.8028Z" fill="white"/>
<path d="M17.7946 15.7966C17.3012 15.7929 16.8164 15.6679 16.3828 15.4325L16.1279 16.4276C16.578 16.654 17.0725 16.7783 17.5761 16.7917V17.6007H18.4054V16.731C19.3843 16.5611 19.9183 15.922 19.9183 15.1574C19.9183 14.3929 19.5138 13.9439 18.4984 13.5677C17.7743 13.2966 17.479 13.1186 17.479 12.8355C17.479 12.5523 17.657 12.3581 18.2112 12.3581C18.6321 12.3625 19.0466 12.4606 19.4248 12.6454L19.6715 11.6826C19.2904 11.5073 18.8774 11.4123 18.458 11.4035V10.6592H17.5963V11.4682C16.6862 11.6462 16.1603 12.2327 16.1603 12.9811C16.1603 13.7902 16.7833 14.2311 17.6934 14.5385C18.3245 14.7529 18.5955 14.943 18.5955 15.2788C18.5955 15.6145 18.28 15.7966 17.7946 15.7966Z" fill="white"/>
</svg>
