<svg width="18" height="16" viewBox="0 0 18 16" fill="none" xmlns="http://www.w3.org/2000/svg">
<path d="M0.519531 1.85859C0.519531 1.31985 0.706924 0.87541 1.08169 0.525253C1.45646 0.175079 1.94368 0 2.54331 0C3.13225 0 3.60874 0.17238 3.97281 0.517172C4.34758 0.872727 4.53498 1.33602 4.53498 1.90707C4.53498 2.42424 4.35295 2.85521 3.98887 3.2C3.61411 3.55556 3.12154 3.73333 2.51119 3.73333H2.49513C1.90619 3.73333 1.4297 3.55556 1.06563 3.2C0.701559 2.84444 0.519531 2.3973 0.519531 1.85859ZM0.728334 16V5.20404H4.29405V16H0.728334ZM6.26965 16H9.83536V9.97172C9.83536 9.5946 9.8782 9.30369 9.96385 9.09899C10.1138 8.73265 10.3413 8.42288 10.6465 8.1697C10.9517 7.91649 11.3345 7.7899 11.7949 7.7899C12.9942 7.7899 13.5938 8.60336 13.5938 10.2303V16H17.1595V9.8101C17.1595 8.21548 16.7848 7.00606 16.0352 6.18182C15.2857 5.35758 14.2952 4.94545 13.0638 4.94545C11.6825 4.94545 10.6063 5.54343 9.83536 6.73939V6.77172H9.8193L9.83536 6.73939V5.20404H6.26965C6.29106 5.54882 6.30177 6.62086 6.30177 8.4202C6.30177 10.2195 6.29106 12.7461 6.26965 16Z" fill="white"/>
</svg>
