<svg width="690" height="253" viewBox="0 0 690 253" fill="none" xmlns="http://www.w3.org/2000/svg">
<path d="M3.08239 54V13.2727H12.9261V29.6193H28.9744V13.2727H38.7983V54H28.9744V37.6335H12.9261V54H3.08239ZM54.8168 13.2727V54H44.973V13.2727H54.8168ZM60.9964 54V13.2727H77.8203C80.8696 13.2727 83.5012 13.8229 85.7152 14.9233C87.9425 16.0104 89.6593 17.5748 90.8658 19.6165C92.0722 21.6449 92.6754 24.0511 92.6754 26.8352C92.6754 29.6591 92.0589 32.0587 90.826 34.0341C89.593 35.9962 87.843 37.4943 85.576 38.5284C83.309 39.5492 80.6243 40.0597 77.522 40.0597H66.8828V32.304H75.6925C77.1773 32.304 78.4169 32.1117 79.4112 31.7273C80.4188 31.3295 81.1811 30.733 81.6982 29.9375C82.2152 29.1288 82.4737 28.0947 82.4737 26.8352C82.4737 25.5758 82.2152 24.535 81.6982 23.7131C81.1811 22.8778 80.4188 22.2547 79.4112 21.8438C78.4036 21.4195 77.1641 21.2074 75.6925 21.2074H70.8402V54H60.9964ZM83.9254 35.3864L94.0675 54H83.3288L73.3857 35.3864H83.9254ZM98.0746 54V13.2727H126.472V21.267H107.918V29.6193H125.021V37.6335H107.918V46.0057H126.472V54H98.0746ZM153.478 54H142.898L156.64 13.2727H169.745L183.487 54H172.907L163.342 23.5341H163.023L153.478 54ZM152.066 37.9716H174.18V45.4489H152.066V37.9716ZM193.34 54.5767C191.908 54.5767 190.682 54.0729 189.661 53.0653C188.654 52.0578 188.156 50.8381 188.17 49.4062C188.156 48.0009 188.654 46.8011 189.661 45.8068C190.682 44.7992 191.908 44.2955 193.34 44.2955C194.692 44.2955 195.886 44.7992 196.92 45.8068C197.967 46.8011 198.497 48.0009 198.511 49.4062C198.497 50.3608 198.246 51.2292 197.755 52.0114C197.278 52.7936 196.648 53.4167 195.866 53.8807C195.097 54.3447 194.255 54.5767 193.34 54.5767ZM214.778 13.2727V54H204.934V13.2727H214.778ZM226.426 54.5767C224.994 54.5767 223.768 54.0729 222.747 53.0653C221.74 52.0578 221.242 50.8381 221.256 49.4062C221.242 48.0009 221.74 46.8011 222.747 45.8068C223.768 44.7992 224.994 44.2955 226.426 44.2955C227.778 44.2955 228.972 44.7992 230.006 45.8068C231.053 46.8011 231.583 48.0009 231.597 49.4062C231.583 50.3608 231.331 51.2292 230.841 52.0114C230.364 52.7936 229.734 53.4167 228.952 53.8807C228.183 54.3447 227.341 54.5767 226.426 54.5767ZM247.481 54V13.2727H275.879V21.267H257.325V29.6193H274.427V37.6335H257.325V46.0057H275.879V54H247.481ZM316.705 13.2727V54H308.353L292.146 30.4943H291.887V54H282.043V13.2727H290.515L306.543 36.7386H306.881V13.2727H316.705ZM349.622 26.5767C349.397 25.7415 349.065 25.0057 348.628 24.3693C348.19 23.7197 347.653 23.1695 347.017 22.7188C346.381 22.268 345.652 21.9299 344.83 21.7045C344.008 21.4659 343.106 21.3466 342.125 21.3466C340.15 21.3466 338.439 21.8239 336.994 22.7784C335.562 23.733 334.455 25.125 333.673 26.9545C332.891 28.7708 332.5 30.9782 332.5 33.5767C332.5 36.1884 332.878 38.4157 333.634 40.2585C334.389 42.1013 335.483 43.5066 336.915 44.4744C338.347 45.4422 340.083 45.9261 342.125 45.9261C343.928 45.9261 345.453 45.6345 346.699 45.0511C347.958 44.4545 348.913 43.6127 349.562 42.5256C350.212 41.4384 350.537 40.1591 350.537 38.6875L352.366 38.9062H342.463V31.7273H360.023V37.1165C360.023 40.7623 359.247 43.8845 357.696 46.483C356.158 49.0814 354.037 51.0767 351.332 52.4688C348.641 53.8608 345.545 54.5568 342.045 54.5568C338.161 54.5568 334.747 53.715 331.804 52.0312C328.861 50.3475 326.567 47.9479 324.923 44.8324C323.279 41.7036 322.457 37.9915 322.457 33.696C322.457 30.3551 322.955 27.392 323.949 24.8068C324.943 22.2083 326.329 20.0076 328.105 18.2045C329.895 16.4015 331.963 15.036 334.31 14.108C336.67 13.1799 339.208 12.7159 341.926 12.7159C344.286 12.7159 346.48 13.054 348.509 13.7301C350.55 14.4062 352.353 15.3608 353.918 16.5938C355.495 17.8267 356.775 19.2917 357.756 20.9886C358.737 22.6856 359.347 24.5483 359.585 26.5767H349.622ZM375.668 13.2727V54H365.825V13.2727H375.668ZM416.51 13.2727V54H408.158L391.95 30.4943H391.692V54H381.848V13.2727H390.32L406.348 36.7386H406.686V13.2727H416.51ZM422.7 54V13.2727H451.097V21.267H432.543V29.6193H449.646V37.6335H432.543V46.0057H451.097V54H422.7ZM457.262 54V13.2727H485.66V21.267H467.106V29.6193H484.208V37.6335H467.106V46.0057H485.66V54H457.262ZM491.825 54V13.2727H508.648C511.698 13.2727 514.329 13.8229 516.543 14.9233C518.771 16.0104 520.487 17.5748 521.694 19.6165C522.9 21.6449 523.504 24.0511 523.504 26.8352C523.504 29.6591 522.887 32.0587 521.654 34.0341C520.421 35.9962 518.671 37.4943 516.404 38.5284C514.137 39.5492 511.452 40.0597 508.35 40.0597H497.711V32.304H506.521C508.005 32.304 509.245 32.1117 510.239 31.7273C511.247 31.3295 512.009 30.733 512.526 29.9375C513.043 29.1288 513.302 28.0947 513.302 26.8352C513.302 25.5758 513.043 24.535 512.526 23.7131C512.009 22.8778 511.247 22.2547 510.239 21.8438C509.232 21.4195 507.992 21.2074 506.521 21.2074H501.668V54H491.825ZM514.754 35.3864L524.896 54H514.157L504.214 35.3864H514.754ZM550.917 25.483C550.784 24.0246 550.194 22.8911 549.147 22.0824C548.113 21.2604 546.635 20.8494 544.712 20.8494C543.44 20.8494 542.379 21.0152 541.531 21.3466C540.682 21.678 540.046 22.1354 539.621 22.7188C539.197 23.2888 538.978 23.9451 538.965 24.6875C538.939 25.2973 539.058 25.8343 539.323 26.2983C539.602 26.7623 539.999 27.1733 540.516 27.5312C541.047 27.8759 541.683 28.1809 542.425 28.446C543.168 28.7112 544.003 28.9432 544.931 29.142L548.431 29.9375C550.446 30.375 552.223 30.9583 553.761 31.6875C555.312 32.4167 556.611 33.285 557.658 34.2926C558.719 35.3002 559.521 36.4602 560.065 37.7727C560.608 39.0852 560.887 40.5568 560.9 42.1875C560.887 44.7595 560.237 46.9669 558.951 48.8097C557.665 50.6525 555.816 52.0644 553.403 53.0455C551.003 54.0265 548.106 54.517 544.712 54.517C541.305 54.517 538.335 54.0066 535.803 52.9858C533.271 51.965 531.302 50.4138 529.897 48.3324C528.492 46.2509 527.769 43.6193 527.729 40.4375H537.156C537.235 41.75 537.586 42.8438 538.21 43.7188C538.833 44.5938 539.688 45.2566 540.775 45.7074C541.875 46.1581 543.148 46.3835 544.593 46.3835C545.919 46.3835 547.046 46.2045 547.974 45.8466C548.915 45.4886 549.638 44.9915 550.141 44.3551C550.645 43.7187 550.904 42.9896 550.917 42.1676C550.904 41.3987 550.665 40.7424 550.201 40.1989C549.737 39.642 549.021 39.1648 548.053 38.767C547.099 38.3561 545.879 37.9782 544.394 37.6335L540.138 36.6392C536.612 35.8305 533.835 34.5246 531.806 32.7216C529.778 30.9053 528.77 28.4527 528.783 25.3636C528.77 22.8447 529.446 20.6373 530.812 18.7415C532.177 16.8456 534.067 15.3674 536.479 14.3068C538.892 13.2462 541.643 12.7159 544.732 12.7159C547.888 12.7159 550.625 13.2528 552.945 14.3267C555.279 15.3873 557.088 16.8788 558.374 18.8011C559.66 20.7235 560.317 22.9508 560.343 25.483H550.917ZM1.75 89.267V81.2727H36.1733V89.267H23.8239V122H14.1193V89.267H1.75ZM77.5618 101.636C77.5618 106.117 76.7 109.916 74.9766 113.031C73.2531 116.147 70.9197 118.513 67.9766 120.131C65.0466 121.748 61.7588 122.557 58.1129 122.557C54.4538 122.557 51.1593 121.741 48.2294 120.111C45.2995 118.48 42.9728 116.114 41.2493 113.011C39.5391 109.896 38.6839 106.104 38.6839 101.636C38.6839 97.1553 39.5391 93.357 41.2493 90.2415C42.9728 87.1259 45.2995 84.7595 48.2294 83.142C51.1593 81.5246 54.4538 80.7159 58.1129 80.7159C61.7588 80.7159 65.0466 81.5246 67.9766 83.142C70.9197 84.7595 73.2531 87.1259 74.9766 90.2415C76.7 93.357 77.5618 97.1553 77.5618 101.636ZM67.4993 101.636C67.4993 98.9848 67.1215 96.7443 66.3658 94.9148C65.6233 93.0852 64.5495 91.6998 63.1442 90.7585C61.7521 89.8172 60.075 89.3466 58.1129 89.3466C56.1641 89.3466 54.487 89.8172 53.0817 90.7585C51.6764 91.6998 50.5959 93.0852 49.8402 94.9148C49.0978 96.7443 48.7266 98.9848 48.7266 101.636C48.7266 104.288 49.0978 106.528 49.8402 108.358C50.5959 110.187 51.6764 111.573 53.0817 112.514C54.487 113.455 56.1641 113.926 58.1129 113.926C60.075 113.926 61.7521 113.455 63.1442 112.514C64.5495 111.573 65.6233 110.187 66.3658 108.358C67.1215 106.528 67.4993 104.288 67.4993 101.636ZM95.3402 122V81.2727H112.323C115.372 81.2727 117.924 81.7036 119.979 82.5653C122.048 83.4271 123.599 84.6335 124.633 86.1847C125.68 87.7358 126.204 89.5322 126.204 91.5739C126.204 93.125 125.879 94.5104 125.229 95.7301C124.58 96.9366 123.685 97.9375 122.545 98.733C121.405 99.5284 120.085 100.085 118.587 100.403V100.801C120.231 100.881 121.749 101.325 123.141 102.134C124.547 102.942 125.674 104.069 126.522 105.514C127.371 106.946 127.795 108.643 127.795 110.605C127.795 112.793 127.238 114.748 126.124 116.472C125.011 118.182 123.4 119.534 121.292 120.528C119.184 121.509 116.625 122 113.616 122H95.3402ZM105.184 114.065H111.269C113.404 114.065 114.975 113.661 115.982 112.852C117.003 112.044 117.513 110.917 117.513 109.472C117.513 108.424 117.268 107.523 116.778 106.767C116.287 105.998 115.591 105.408 114.69 104.997C113.788 104.573 112.708 104.361 111.448 104.361H105.184V114.065ZM105.184 98.017H110.633C111.707 98.017 112.661 97.8381 113.496 97.4801C114.332 97.1222 114.981 96.6051 115.445 95.929C115.923 95.2528 116.161 94.4375 116.161 93.483C116.161 92.1174 115.677 91.0436 114.71 90.2614C113.742 89.4792 112.436 89.0881 110.792 89.0881H105.184V98.017ZM157.167 81.2727H166.991V107.543C166.991 110.579 166.268 113.223 164.823 115.477C163.378 117.718 161.363 119.455 158.778 120.688C156.192 121.907 153.19 122.517 149.769 122.517C146.309 122.517 143.286 121.907 140.701 120.688C138.116 119.455 136.107 117.718 134.675 115.477C133.244 113.223 132.528 110.579 132.528 107.543V81.2727H142.371V106.688C142.371 108.093 142.676 109.346 143.286 110.446C143.909 111.546 144.778 112.408 145.891 113.031C147.005 113.654 148.298 113.966 149.769 113.966C151.241 113.966 152.527 113.654 153.627 113.031C154.741 112.408 155.609 111.546 156.232 110.446C156.855 109.346 157.167 108.093 157.167 106.688V81.2727ZM183.004 81.2727V122H173.161V81.2727H183.004ZM189.184 122V81.2727H199.028V114.006H215.971V122H189.184ZM236.121 122H221.067V81.2727H236.101C240.25 81.2727 243.823 82.0881 246.82 83.7188C249.829 85.3362 252.149 87.6695 253.78 90.7188C255.411 93.7547 256.226 97.3873 256.226 101.616C256.226 105.859 255.411 109.505 253.78 112.554C252.162 115.603 249.849 117.943 246.839 119.574C243.83 121.191 240.257 122 236.121 122ZM230.911 113.608H235.743C238.023 113.608 239.952 113.223 241.53 112.455C243.121 111.672 244.321 110.406 245.129 108.656C245.951 106.893 246.362 104.546 246.362 101.616C246.362 98.6866 245.951 96.3532 245.129 94.6165C244.307 92.8665 243.094 91.607 241.49 90.8381C239.899 90.0559 237.937 89.6648 235.604 89.6648H230.911V113.608ZM312.445 101.636C312.445 106.117 311.583 109.916 309.859 113.031C308.136 116.147 305.803 118.513 302.859 120.131C299.929 121.748 296.642 122.557 292.996 122.557C289.337 122.557 286.042 121.741 283.112 120.111C280.182 118.48 277.856 116.114 276.132 113.011C274.422 109.896 273.567 106.104 273.567 101.636C273.567 97.1553 274.422 93.357 276.132 90.2415C277.856 87.1259 280.182 84.7595 283.112 83.142C286.042 81.5246 289.337 80.7159 292.996 80.7159C296.642 80.7159 299.929 81.5246 302.859 83.142C305.803 84.7595 308.136 87.1259 309.859 90.2415C311.583 93.357 312.445 97.1553 312.445 101.636ZM302.382 101.636C302.382 98.9848 302.004 96.7443 301.249 94.9148C300.506 93.0852 299.432 91.6998 298.027 90.7585C296.635 89.8172 294.958 89.3466 292.996 89.3466C291.047 89.3466 289.37 89.8172 287.964 90.7585C286.559 91.6998 285.479 93.0852 284.723 94.9148C283.981 96.7443 283.609 98.9848 283.609 101.636C283.609 104.288 283.981 106.528 284.723 108.358C285.479 110.187 286.559 111.573 287.964 112.514C289.37 113.455 291.047 113.926 292.996 113.926C294.958 113.926 296.635 113.455 298.027 112.514C299.432 111.573 300.506 110.187 301.249 108.358C302.004 106.528 302.382 104.288 302.382 101.636ZM342.831 81.2727H352.655V107.543C352.655 110.579 351.932 113.223 350.487 115.477C349.042 117.718 347.027 119.455 344.442 120.688C341.857 121.907 338.854 122.517 335.433 122.517C331.973 122.517 328.95 121.907 326.365 120.688C323.78 119.455 321.771 117.718 320.339 115.477C318.908 113.223 318.192 110.579 318.192 107.543V81.2727H328.036V106.688C328.036 108.093 328.34 109.346 328.95 110.446C329.573 111.546 330.442 112.408 331.555 113.031C332.669 113.654 333.962 113.966 335.433 113.966C336.905 113.966 338.191 113.654 339.291 113.031C340.405 112.408 341.273 111.546 341.896 110.446C342.519 109.346 342.831 108.093 342.831 106.688V81.2727ZM357.492 89.267V81.2727H391.915V89.267H379.566V122H369.862V89.267H357.492ZM406.726 81.2727H417.723L426.334 98.3153H426.692L435.303 81.2727H446.3L431.405 108.398V122H421.621V108.398L406.726 81.2727ZM486.187 101.636C486.187 106.117 485.325 109.916 483.602 113.031C481.878 116.147 479.545 118.513 476.602 120.131C473.672 121.748 470.384 122.557 466.738 122.557C463.079 122.557 459.784 121.741 456.854 120.111C453.924 118.48 451.598 116.114 449.874 113.011C448.164 109.896 447.309 106.104 447.309 101.636C447.309 97.1553 448.164 93.357 449.874 90.2415C451.598 87.1259 453.924 84.7595 456.854 83.142C459.784 81.5246 463.079 80.7159 466.738 80.7159C470.384 80.7159 473.672 81.5246 476.602 83.142C479.545 84.7595 481.878 87.1259 483.602 90.2415C485.325 93.357 486.187 97.1553 486.187 101.636ZM476.124 101.636C476.124 98.9848 475.746 96.7443 474.991 94.9148C474.248 93.0852 473.174 91.6998 471.769 90.7585C470.377 89.8172 468.7 89.3466 466.738 89.3466C464.789 89.3466 463.112 89.8172 461.707 90.7585C460.301 91.6998 459.221 93.0852 458.465 94.9148C457.723 96.7443 457.352 98.9848 457.352 101.636C457.352 104.288 457.723 106.528 458.465 108.358C459.221 110.187 460.301 111.573 461.707 112.514C463.112 113.455 464.789 113.926 466.738 113.926C468.7 113.926 470.377 113.455 471.769 112.514C473.174 111.573 474.248 110.187 474.991 108.358C475.746 106.528 476.124 104.288 476.124 101.636ZM516.573 81.2727H526.397V107.543C526.397 110.579 525.674 113.223 524.229 115.477C522.784 117.718 520.769 119.455 518.184 120.688C515.599 121.907 512.596 122.517 509.175 122.517C505.715 122.517 502.692 121.907 500.107 120.688C497.522 119.455 495.513 117.718 494.082 115.477C492.65 113.223 491.934 110.579 491.934 107.543V81.2727H501.778V106.688C501.778 108.093 502.083 109.346 502.692 110.446C503.316 111.546 504.184 112.408 505.298 113.031C506.411 113.654 507.704 113.966 509.175 113.966C510.647 113.966 511.933 113.654 513.033 113.031C514.147 112.408 515.015 111.546 515.638 110.446C516.262 109.346 516.573 108.093 516.573 106.688V81.2727ZM532.567 122V81.2727H549.391C552.44 81.2727 555.071 81.8229 557.286 82.9233C559.513 84.0104 561.23 85.5748 562.436 87.6165C563.643 89.6449 564.246 92.0511 564.246 94.8352C564.246 97.6591 563.629 100.059 562.396 102.034C561.163 103.996 559.413 105.494 557.146 106.528C554.879 107.549 552.195 108.06 549.092 108.06H538.453V100.304H547.263C548.748 100.304 549.987 100.112 550.982 99.7273C551.989 99.3295 552.751 98.733 553.268 97.9375C553.786 97.1288 554.044 96.0947 554.044 94.8352C554.044 93.5758 553.786 92.535 553.268 91.7131C552.751 90.8778 551.989 90.2547 550.982 89.8438C549.974 89.4195 548.734 89.2074 547.263 89.2074H542.411V122H532.567ZM555.496 103.386L565.638 122H554.899L544.956 103.386H555.496ZM11.892 190H1.3125L15.054 149.273H28.1591L41.9006 190H31.321L21.7557 159.534H21.4375L11.892 190ZM10.4801 173.972H32.5938V181.449H10.4801V173.972ZM51.7543 190.577C50.3224 190.577 49.0961 190.073 48.0753 189.065C47.0677 188.058 46.5705 186.838 46.5838 185.406C46.5705 184.001 47.0677 182.801 48.0753 181.807C49.0961 180.799 50.3224 180.295 51.7543 180.295C53.1065 180.295 54.2997 180.799 55.3338 181.807C56.3812 182.801 56.9115 184.001 56.9247 185.406C56.9115 186.361 56.6596 187.229 56.169 188.011C55.6918 188.794 55.062 189.417 54.2798 189.881C53.5109 190.345 52.669 190.577 51.7543 190.577ZM73.1918 149.273V190H63.348V149.273H73.1918ZM84.8402 190.577C83.4084 190.577 82.1821 190.073 81.1612 189.065C80.1536 188.058 79.6565 186.838 79.6697 185.406C79.6565 184.001 80.1536 182.801 81.1612 181.807C82.1821 180.799 83.4084 180.295 84.8402 180.295C86.1925 180.295 87.3857 180.799 88.4197 181.807C89.4671 182.801 89.9974 184.001 90.0107 185.406C89.9974 186.361 89.7455 187.229 89.255 188.011C88.7777 188.794 88.148 189.417 87.3658 189.881C86.5968 190.345 85.755 190.577 84.8402 190.577ZM105.895 190V149.273H122.719C125.768 149.273 128.4 149.869 130.614 151.062C132.841 152.242 134.558 153.893 135.764 156.014C136.971 158.122 137.574 160.575 137.574 163.372C137.574 166.183 136.957 168.642 135.724 170.75C134.505 172.845 132.761 174.469 130.494 175.622C128.227 176.776 125.536 177.352 122.42 177.352H112.04V169.597H120.591C122.076 169.597 123.315 169.338 124.31 168.821C125.317 168.304 126.08 167.581 126.597 166.653C127.114 165.712 127.372 164.618 127.372 163.372C127.372 162.113 127.114 161.026 126.597 160.111C126.08 159.183 125.317 158.467 124.31 157.963C123.302 157.459 122.063 157.207 120.591 157.207H115.739V190H105.895ZM142.426 190V149.273H159.25C162.299 149.273 164.931 149.823 167.145 150.923C169.372 152.01 171.089 153.575 172.295 155.616C173.502 157.645 174.105 160.051 174.105 162.835C174.105 165.659 173.489 168.059 172.256 170.034C171.023 171.996 169.273 173.494 167.006 174.528C164.739 175.549 162.054 176.06 158.952 176.06H148.312V168.304H157.122C158.607 168.304 159.847 168.112 160.841 167.727C161.848 167.33 162.611 166.733 163.128 165.938C163.645 165.129 163.903 164.095 163.903 162.835C163.903 161.576 163.645 160.535 163.128 159.713C162.611 158.878 161.848 158.255 160.841 157.844C159.833 157.42 158.594 157.207 157.122 157.207H152.27V190H142.426ZM165.355 171.386L175.497 190H164.759L154.815 171.386H165.355ZM217.945 169.636C217.945 174.117 217.083 177.916 215.359 181.031C213.636 184.147 211.303 186.513 208.359 188.131C205.429 189.748 202.142 190.557 198.496 190.557C194.837 190.557 191.542 189.741 188.612 188.111C185.682 186.48 183.356 184.114 181.632 181.011C179.922 177.896 179.067 174.104 179.067 169.636C179.067 165.155 179.922 161.357 181.632 158.241C183.356 155.126 185.682 152.759 188.612 151.142C191.542 149.525 194.837 148.716 198.496 148.716C202.142 148.716 205.429 149.525 208.359 151.142C211.303 152.759 213.636 155.126 215.359 158.241C217.083 161.357 217.945 165.155 217.945 169.636ZM207.882 169.636C207.882 166.985 207.504 164.744 206.749 162.915C206.006 161.085 204.932 159.7 203.527 158.759C202.135 157.817 200.458 157.347 198.496 157.347C196.547 157.347 194.87 157.817 193.464 158.759C192.059 159.7 190.979 161.085 190.223 162.915C189.481 164.744 189.109 166.985 189.109 169.636C189.109 172.288 189.481 174.528 190.223 176.358C190.979 178.187 192.059 179.573 193.464 180.514C194.87 181.455 196.547 181.926 198.496 181.926C200.458 181.926 202.135 181.455 203.527 180.514C204.932 179.573 206.006 178.187 206.749 176.358C207.504 174.528 207.882 172.288 207.882 169.636ZM238.746 190H223.692V149.273H238.726C242.875 149.273 246.448 150.088 249.445 151.719C252.454 153.336 254.774 155.67 256.405 158.719C258.036 161.755 258.851 165.387 258.851 169.616C258.851 173.859 258.036 177.505 256.405 180.554C254.787 183.603 252.474 185.943 249.464 187.574C246.455 189.191 242.882 190 238.746 190ZM233.536 181.608H238.368C240.648 181.608 242.577 181.223 244.155 180.455C245.746 179.672 246.946 178.406 247.754 176.656C248.576 174.893 248.987 172.546 248.987 169.616C248.987 166.687 248.576 164.353 247.754 162.616C246.932 160.866 245.719 159.607 244.115 158.838C242.524 158.056 240.562 157.665 238.229 157.665H233.536V181.608ZM289.237 149.273H299.061V175.543C299.061 178.579 298.339 181.223 296.893 183.477C295.448 185.718 293.433 187.455 290.848 188.688C288.263 189.907 285.26 190.517 281.839 190.517C278.379 190.517 275.357 189.907 272.771 188.688C270.186 187.455 268.178 185.718 266.746 183.477C265.314 181.223 264.598 178.579 264.598 175.543V149.273H274.442V174.688C274.442 176.093 274.747 177.346 275.357 178.446C275.98 179.546 276.848 180.408 277.962 181.031C279.075 181.654 280.368 181.966 281.839 181.966C283.311 181.966 284.597 181.654 285.697 181.031C286.811 180.408 287.679 179.546 288.303 178.446C288.926 177.346 289.237 176.093 289.237 174.688V149.273ZM342.2 164.028H332.256C332.124 163.008 331.852 162.086 331.441 161.264C331.03 160.442 330.487 159.74 329.81 159.156C329.134 158.573 328.332 158.129 327.404 157.824C326.489 157.506 325.475 157.347 324.362 157.347C322.386 157.347 320.683 157.83 319.251 158.798C317.832 159.766 316.738 161.165 315.969 162.994C315.214 164.824 314.836 167.038 314.836 169.636C314.836 172.341 315.22 174.608 315.989 176.438C316.772 178.254 317.865 179.626 319.271 180.554C320.689 181.469 322.366 181.926 324.302 181.926C325.389 181.926 326.377 181.787 327.265 181.509C328.166 181.23 328.955 180.826 329.631 180.295C330.321 179.752 330.884 179.096 331.322 178.327C331.772 177.545 332.084 176.663 332.256 175.682L342.2 175.741C342.027 177.545 341.504 179.321 340.629 181.071C339.767 182.821 338.58 184.419 337.069 185.864C335.558 187.295 333.715 188.436 331.54 189.284C329.379 190.133 326.9 190.557 324.103 190.557C320.417 190.557 317.116 189.748 314.2 188.131C311.296 186.5 309.003 184.127 307.319 181.011C305.635 177.896 304.793 174.104 304.793 169.636C304.793 165.155 305.648 161.357 307.359 158.241C309.069 155.126 311.382 152.759 314.299 151.142C317.216 149.525 320.484 148.716 324.103 148.716C326.569 148.716 328.849 149.061 330.944 149.75C333.039 150.426 334.881 151.42 336.472 152.733C338.063 154.032 339.356 155.63 340.35 157.526C341.344 159.421 341.961 161.589 342.2 164.028ZM346.5 157.267V149.273H380.923V157.267H368.574V190H358.869V157.267H346.5Z" fill="#171717"/>
<mask id="mask0_2020_656" style="mask-type:alpha" maskUnits="userSpaceOnUse" x="1" y="12" width="565" height="179">
<path d="M3.08239 54V13.2727H12.9261V29.6193H28.9744V13.2727H38.7983V54H28.9744V37.6335H12.9261V54H3.08239ZM54.8168 13.2727V54H44.973V13.2727H54.8168ZM60.9964 54V13.2727H77.8203C80.8696 13.2727 83.5012 13.8229 85.7152 14.9233C87.9425 16.0104 89.6593 17.5748 90.8658 19.6165C92.0722 21.6449 92.6754 24.0511 92.6754 26.8352C92.6754 29.6591 92.0589 32.0587 90.826 34.0341C89.593 35.9962 87.843 37.4943 85.576 38.5284C83.309 39.5492 80.6243 40.0597 77.522 40.0597H66.8828V32.304H75.6925C77.1773 32.304 78.4169 32.1117 79.4112 31.7273C80.4188 31.3295 81.1811 30.733 81.6982 29.9375C82.2152 29.1288 82.4737 28.0947 82.4737 26.8352C82.4737 25.5758 82.2152 24.535 81.6982 23.7131C81.1811 22.8778 80.4188 22.2547 79.4112 21.8438C78.4036 21.4195 77.1641 21.2074 75.6925 21.2074H70.8402V54H60.9964ZM83.9254 35.3864L94.0675 54H83.3288L73.3857 35.3864H83.9254ZM98.0746 54V13.2727H126.472V21.267H107.918V29.6193H125.021V37.6335H107.918V46.0057H126.472V54H98.0746ZM153.478 54H142.898L156.64 13.2727H169.745L183.487 54H172.907L163.342 23.5341H163.023L153.478 54ZM152.066 37.9716H174.18V45.4489H152.066V37.9716ZM193.34 54.5767C191.908 54.5767 190.682 54.0729 189.661 53.0653C188.654 52.0578 188.156 50.8381 188.17 49.4062C188.156 48.0009 188.654 46.8011 189.661 45.8068C190.682 44.7992 191.908 44.2955 193.34 44.2955C194.692 44.2955 195.886 44.7992 196.92 45.8068C197.967 46.8011 198.497 48.0009 198.511 49.4062C198.497 50.3608 198.246 51.2292 197.755 52.0114C197.278 52.7936 196.648 53.4167 195.866 53.8807C195.097 54.3447 194.255 54.5767 193.34 54.5767ZM214.778 13.2727V54H204.934V13.2727H214.778ZM226.426 54.5767C224.994 54.5767 223.768 54.0729 222.747 53.0653C221.74 52.0578 221.242 50.8381 221.256 49.4062C221.242 48.0009 221.74 46.8011 222.747 45.8068C223.768 44.7992 224.994 44.2955 226.426 44.2955C227.778 44.2955 228.972 44.7992 230.006 45.8068C231.053 46.8011 231.583 48.0009 231.597 49.4062C231.583 50.3608 231.331 51.2292 230.841 52.0114C230.364 52.7936 229.734 53.4167 228.952 53.8807C228.183 54.3447 227.341 54.5767 226.426 54.5767ZM247.481 54V13.2727H275.879V21.267H257.325V29.6193H274.427V37.6335H257.325V46.0057H275.879V54H247.481ZM316.705 13.2727V54H308.353L292.146 30.4943H291.887V54H282.043V13.2727H290.515L306.543 36.7386H306.881V13.2727H316.705ZM349.622 26.5767C349.397 25.7415 349.065 25.0057 348.628 24.3693C348.19 23.7197 347.653 23.1695 347.017 22.7188C346.381 22.268 345.652 21.9299 344.83 21.7045C344.008 21.4659 343.106 21.3466 342.125 21.3466C340.15 21.3466 338.439 21.8239 336.994 22.7784C335.562 23.733 334.455 25.125 333.673 26.9545C332.891 28.7708 332.5 30.9782 332.5 33.5767C332.5 36.1884 332.878 38.4157 333.634 40.2585C334.389 42.1013 335.483 43.5066 336.915 44.4744C338.347 45.4422 340.083 45.9261 342.125 45.9261C343.928 45.9261 345.453 45.6345 346.699 45.0511C347.958 44.4545 348.913 43.6127 349.562 42.5256C350.212 41.4384 350.537 40.1591 350.537 38.6875L352.366 38.9062H342.463V31.7273H360.023V37.1165C360.023 40.7623 359.247 43.8845 357.696 46.483C356.158 49.0814 354.037 51.0767 351.332 52.4688C348.641 53.8608 345.545 54.5568 342.045 54.5568C338.161 54.5568 334.747 53.715 331.804 52.0312C328.861 50.3475 326.567 47.9479 324.923 44.8324C323.279 41.7036 322.457 37.9915 322.457 33.696C322.457 30.3551 322.955 27.392 323.949 24.8068C324.943 22.2083 326.329 20.0076 328.105 18.2045C329.895 16.4015 331.963 15.036 334.31 14.108C336.67 13.1799 339.208 12.7159 341.926 12.7159C344.286 12.7159 346.48 13.054 348.509 13.7301C350.55 14.4062 352.353 15.3608 353.918 16.5938C355.495 17.8267 356.775 19.2917 357.756 20.9886C358.737 22.6856 359.347 24.5483 359.585 26.5767H349.622ZM375.668 13.2727V54H365.825V13.2727H375.668ZM416.51 13.2727V54H408.158L391.95 30.4943H391.692V54H381.848V13.2727H390.32L406.348 36.7386H406.686V13.2727H416.51ZM422.7 54V13.2727H451.097V21.267H432.543V29.6193H449.646V37.6335H432.543V46.0057H451.097V54H422.7ZM457.262 54V13.2727H485.66V21.267H467.106V29.6193H484.208V37.6335H467.106V46.0057H485.66V54H457.262ZM491.825 54V13.2727H508.648C511.698 13.2727 514.329 13.8229 516.543 14.9233C518.771 16.0104 520.487 17.5748 521.694 19.6165C522.9 21.6449 523.504 24.0511 523.504 26.8352C523.504 29.6591 522.887 32.0587 521.654 34.0341C520.421 35.9962 518.671 37.4943 516.404 38.5284C514.137 39.5492 511.452 40.0597 508.35 40.0597H497.711V32.304H506.521C508.005 32.304 509.245 32.1117 510.239 31.7273C511.247 31.3295 512.009 30.733 512.526 29.9375C513.043 29.1288 513.302 28.0947 513.302 26.8352C513.302 25.5758 513.043 24.535 512.526 23.7131C512.009 22.8778 511.247 22.2547 510.239 21.8438C509.232 21.4195 507.992 21.2074 506.521 21.2074H501.668V54H491.825ZM514.754 35.3864L524.896 54H514.157L504.214 35.3864H514.754ZM550.917 25.483C550.784 24.0246 550.194 22.8911 549.147 22.0824C548.113 21.2604 546.635 20.8494 544.712 20.8494C543.44 20.8494 542.379 21.0152 541.531 21.3466C540.682 21.678 540.046 22.1354 539.621 22.7188C539.197 23.2888 538.978 23.9451 538.965 24.6875C538.939 25.2973 539.058 25.8343 539.323 26.2983C539.602 26.7623 539.999 27.1733 540.516 27.5312C541.047 27.8759 541.683 28.1809 542.425 28.446C543.168 28.7112 544.003 28.9432 544.931 29.142L548.431 29.9375C550.446 30.375 552.223 30.9583 553.761 31.6875C555.312 32.4167 556.611 33.285 557.658 34.2926C558.719 35.3002 559.521 36.4602 560.065 37.7727C560.608 39.0852 560.887 40.5568 560.9 42.1875C560.887 44.7595 560.237 46.9669 558.951 48.8097C557.665 50.6525 555.816 52.0644 553.403 53.0455C551.003 54.0265 548.106 54.517 544.712 54.517C541.305 54.517 538.335 54.0066 535.803 52.9858C533.271 51.965 531.302 50.4138 529.897 48.3324C528.492 46.2509 527.769 43.6193 527.729 40.4375H537.156C537.235 41.75 537.586 42.8438 538.21 43.7188C538.833 44.5938 539.688 45.2566 540.775 45.7074C541.875 46.1581 543.148 46.3835 544.593 46.3835C545.919 46.3835 547.046 46.2045 547.974 45.8466C548.915 45.4886 549.638 44.9915 550.141 44.3551C550.645 43.7187 550.904 42.9896 550.917 42.1676C550.904 41.3987 550.665 40.7424 550.201 40.1989C549.737 39.642 549.021 39.1648 548.053 38.767C547.099 38.3561 545.879 37.9782 544.394 37.6335L540.138 36.6392C536.612 35.8305 533.835 34.5246 531.806 32.7216C529.778 30.9053 528.77 28.4527 528.783 25.3636C528.77 22.8447 529.446 20.6373 530.812 18.7415C532.177 16.8456 534.067 15.3674 536.479 14.3068C538.892 13.2462 541.643 12.7159 544.732 12.7159C547.888 12.7159 550.625 13.2528 552.945 14.3267C555.279 15.3873 557.088 16.8788 558.374 18.8011C559.66 20.7235 560.317 22.9508 560.343 25.483H550.917ZM1.75 89.267V81.2727H36.1733V89.267H23.8239V122H14.1193V89.267H1.75ZM77.5618 101.636C77.5618 106.117 76.7 109.916 74.9766 113.031C73.2531 116.147 70.9197 118.513 67.9766 120.131C65.0466 121.748 61.7588 122.557 58.1129 122.557C54.4538 122.557 51.1593 121.741 48.2294 120.111C45.2995 118.48 42.9728 116.114 41.2493 113.011C39.5391 109.896 38.6839 106.104 38.6839 101.636C38.6839 97.1553 39.5391 93.357 41.2493 90.2415C42.9728 87.1259 45.2995 84.7595 48.2294 83.142C51.1593 81.5246 54.4538 80.7159 58.1129 80.7159C61.7588 80.7159 65.0466 81.5246 67.9766 83.142C70.9197 84.7595 73.2531 87.1259 74.9766 90.2415C76.7 93.357 77.5618 97.1553 77.5618 101.636ZM67.4993 101.636C67.4993 98.9848 67.1215 96.7443 66.3658 94.9148C65.6233 93.0852 64.5495 91.6998 63.1442 90.7585C61.7521 89.8172 60.075 89.3466 58.1129 89.3466C56.1641 89.3466 54.487 89.8172 53.0817 90.7585C51.6764 91.6998 50.5959 93.0852 49.8402 94.9148C49.0978 96.7443 48.7266 98.9848 48.7266 101.636C48.7266 104.288 49.0978 106.528 49.8402 108.358C50.5959 110.187 51.6764 111.573 53.0817 112.514C54.487 113.455 56.1641 113.926 58.1129 113.926C60.075 113.926 61.7521 113.455 63.1442 112.514C64.5495 111.573 65.6233 110.187 66.3658 108.358C67.1215 106.528 67.4993 104.288 67.4993 101.636ZM95.3402 122V81.2727H112.323C115.372 81.2727 117.924 81.7036 119.979 82.5653C122.048 83.4271 123.599 84.6335 124.633 86.1847C125.68 87.7358 126.204 89.5322 126.204 91.5739C126.204 93.125 125.879 94.5104 125.229 95.7301C124.58 96.9366 123.685 97.9375 122.545 98.733C121.405 99.5284 120.085 100.085 118.587 100.403V100.801C120.231 100.881 121.749 101.325 123.141 102.134C124.547 102.942 125.674 104.069 126.522 105.514C127.371 106.946 127.795 108.643 127.795 110.605C127.795 112.793 127.238 114.748 126.124 116.472C125.011 118.182 123.4 119.534 121.292 120.528C119.184 121.509 116.625 122 113.616 122H95.3402ZM105.184 114.065H111.269C113.404 114.065 114.975 113.661 115.982 112.852C117.003 112.044 117.513 110.917 117.513 109.472C117.513 108.424 117.268 107.523 116.778 106.767C116.287 105.998 115.591 105.408 114.69 104.997C113.788 104.573 112.708 104.361 111.448 104.361H105.184V114.065ZM105.184 98.017H110.633C111.707 98.017 112.661 97.8381 113.496 97.4801C114.332 97.1222 114.981 96.6051 115.445 95.929C115.923 95.2528 116.161 94.4375 116.161 93.483C116.161 92.1174 115.677 91.0436 114.71 90.2614C113.742 89.4792 112.436 89.0881 110.792 89.0881H105.184V98.017ZM157.167 81.2727H166.991V107.543C166.991 110.579 166.268 113.223 164.823 115.477C163.378 117.718 161.363 119.455 158.778 120.688C156.192 121.907 153.19 122.517 149.769 122.517C146.309 122.517 143.286 121.907 140.701 120.688C138.116 119.455 136.107 117.718 134.675 115.477C133.244 113.223 132.528 110.579 132.528 107.543V81.2727H142.371V106.688C142.371 108.093 142.676 109.346 143.286 110.446C143.909 111.546 144.778 112.408 145.891 113.031C147.005 113.654 148.298 113.966 149.769 113.966C151.241 113.966 152.527 113.654 153.627 113.031C154.741 112.408 155.609 111.546 156.232 110.446C156.855 109.346 157.167 108.093 157.167 106.688V81.2727ZM183.004 81.2727V122H173.161V81.2727H183.004ZM189.184 122V81.2727H199.028V114.006H215.971V122H189.184ZM236.121 122H221.067V81.2727H236.101C240.25 81.2727 243.823 82.0881 246.82 83.7188C249.829 85.3362 252.149 87.6695 253.78 90.7188C255.411 93.7547 256.226 97.3873 256.226 101.616C256.226 105.859 255.411 109.505 253.78 112.554C252.162 115.603 249.849 117.943 246.839 119.574C243.83 121.191 240.257 122 236.121 122ZM230.911 113.608H235.743C238.023 113.608 239.952 113.223 241.53 112.455C243.121 111.672 244.321 110.406 245.129 108.656C245.951 106.893 246.362 104.546 246.362 101.616C246.362 98.6866 245.951 96.3532 245.129 94.6165C244.307 92.8665 243.094 91.607 241.49 90.8381C239.899 90.0559 237.937 89.6648 235.604 89.6648H230.911V113.608ZM312.445 101.636C312.445 106.117 311.583 109.916 309.859 113.031C308.136 116.147 305.803 118.513 302.859 120.131C299.929 121.748 296.642 122.557 292.996 122.557C289.337 122.557 286.042 121.741 283.112 120.111C280.182 118.48 277.856 116.114 276.132 113.011C274.422 109.896 273.567 106.104 273.567 101.636C273.567 97.1553 274.422 93.357 276.132 90.2415C277.856 87.1259 280.182 84.7595 283.112 83.142C286.042 81.5246 289.337 80.7159 292.996 80.7159C296.642 80.7159 299.929 81.5246 302.859 83.142C305.803 84.7595 308.136 87.1259 309.859 90.2415C311.583 93.357 312.445 97.1553 312.445 101.636ZM302.382 101.636C302.382 98.9848 302.004 96.7443 301.249 94.9148C300.506 93.0852 299.432 91.6998 298.027 90.7585C296.635 89.8172 294.958 89.3466 292.996 89.3466C291.047 89.3466 289.37 89.8172 287.964 90.7585C286.559 91.6998 285.479 93.0852 284.723 94.9148C283.981 96.7443 283.609 98.9848 283.609 101.636C283.609 104.288 283.981 106.528 284.723 108.358C285.479 110.187 286.559 111.573 287.964 112.514C289.37 113.455 291.047 113.926 292.996 113.926C294.958 113.926 296.635 113.455 298.027 112.514C299.432 111.573 300.506 110.187 301.249 108.358C302.004 106.528 302.382 104.288 302.382 101.636ZM342.831 81.2727H352.655V107.543C352.655 110.579 351.932 113.223 350.487 115.477C349.042 117.718 347.027 119.455 344.442 120.688C341.857 121.907 338.854 122.517 335.433 122.517C331.973 122.517 328.95 121.907 326.365 120.688C323.78 119.455 321.771 117.718 320.339 115.477C318.908 113.223 318.192 110.579 318.192 107.543V81.2727H328.036V106.688C328.036 108.093 328.34 109.346 328.95 110.446C329.573 111.546 330.442 112.408 331.555 113.031C332.669 113.654 333.962 113.966 335.433 113.966C336.905 113.966 338.191 113.654 339.291 113.031C340.405 112.408 341.273 111.546 341.896 110.446C342.519 109.346 342.831 108.093 342.831 106.688V81.2727ZM357.492 89.267V81.2727H391.915V89.267H379.566V122H369.862V89.267H357.492ZM406.726 81.2727H417.723L426.334 98.3153H426.692L435.303 81.2727H446.3L431.405 108.398V122H421.621V108.398L406.726 81.2727ZM486.187 101.636C486.187 106.117 485.325 109.916 483.602 113.031C481.878 116.147 479.545 118.513 476.602 120.131C473.672 121.748 470.384 122.557 466.738 122.557C463.079 122.557 459.784 121.741 456.854 120.111C453.924 118.48 451.598 116.114 449.874 113.011C448.164 109.896 447.309 106.104 447.309 101.636C447.309 97.1553 448.164 93.357 449.874 90.2415C451.598 87.1259 453.924 84.7595 456.854 83.142C459.784 81.5246 463.079 80.7159 466.738 80.7159C470.384 80.7159 473.672 81.5246 476.602 83.142C479.545 84.7595 481.878 87.1259 483.602 90.2415C485.325 93.357 486.187 97.1553 486.187 101.636ZM476.124 101.636C476.124 98.9848 475.746 96.7443 474.991 94.9148C474.248 93.0852 473.174 91.6998 471.769 90.7585C470.377 89.8172 468.7 89.3466 466.738 89.3466C464.789 89.3466 463.112 89.8172 461.707 90.7585C460.301 91.6998 459.221 93.0852 458.465 94.9148C457.723 96.7443 457.352 98.9848 457.352 101.636C457.352 104.288 457.723 106.528 458.465 108.358C459.221 110.187 460.301 111.573 461.707 112.514C463.112 113.455 464.789 113.926 466.738 113.926C468.7 113.926 470.377 113.455 471.769 112.514C473.174 111.573 474.248 110.187 474.991 108.358C475.746 106.528 476.124 104.288 476.124 101.636ZM516.573 81.2727H526.397V107.543C526.397 110.579 525.674 113.223 524.229 115.477C522.784 117.718 520.769 119.455 518.184 120.688C515.599 121.907 512.596 122.517 509.175 122.517C505.715 122.517 502.692 121.907 500.107 120.688C497.522 119.455 495.513 117.718 494.082 115.477C492.65 113.223 491.934 110.579 491.934 107.543V81.2727H501.778V106.688C501.778 108.093 502.083 109.346 502.692 110.446C503.316 111.546 504.184 112.408 505.298 113.031C506.411 113.654 507.704 113.966 509.175 113.966C510.647 113.966 511.933 113.654 513.033 113.031C514.147 112.408 515.015 111.546 515.638 110.446C516.262 109.346 516.573 108.093 516.573 106.688V81.2727ZM532.567 122V81.2727H549.391C552.44 81.2727 555.071 81.8229 557.286 82.9233C559.513 84.0104 561.23 85.5748 562.436 87.6165C563.643 89.6449 564.246 92.0511 564.246 94.8352C564.246 97.6591 563.629 100.059 562.396 102.034C561.163 103.996 559.413 105.494 557.146 106.528C554.879 107.549 552.195 108.06 549.092 108.06H538.453V100.304H547.263C548.748 100.304 549.987 100.112 550.982 99.7273C551.989 99.3295 552.751 98.733 553.268 97.9375C553.786 97.1288 554.044 96.0947 554.044 94.8352C554.044 93.5758 553.786 92.535 553.268 91.7131C552.751 90.8778 551.989 90.2547 550.982 89.8438C549.974 89.4195 548.734 89.2074 547.263 89.2074H542.411V122H532.567ZM555.496 103.386L565.638 122H554.899L544.956 103.386H555.496ZM11.892 190H1.3125L15.054 149.273H28.1591L41.9006 190H31.321L21.7557 159.534H21.4375L11.892 190ZM10.4801 173.972H32.5938V181.449H10.4801V173.972ZM51.7543 190.577C50.3224 190.577 49.0961 190.073 48.0753 189.065C47.0677 188.058 46.5705 186.838 46.5838 185.406C46.5705 184.001 47.0677 182.801 48.0753 181.807C49.0961 180.799 50.3224 180.295 51.7543 180.295C53.1065 180.295 54.2997 180.799 55.3338 181.807C56.3812 182.801 56.9115 184.001 56.9247 185.406C56.9115 186.361 56.6596 187.229 56.169 188.011C55.6918 188.794 55.062 189.417 54.2798 189.881C53.5109 190.345 52.669 190.577 51.7543 190.577ZM73.1918 149.273V190H63.348V149.273H73.1918ZM84.8402 190.577C83.4084 190.577 82.1821 190.073 81.1612 189.065C80.1536 188.058 79.6565 186.838 79.6697 185.406C79.6565 184.001 80.1536 182.801 81.1612 181.807C82.1821 180.799 83.4084 180.295 84.8402 180.295C86.1925 180.295 87.3857 180.799 88.4197 181.807C89.4671 182.801 89.9974 184.001 90.0107 185.406C89.9974 186.361 89.7455 187.229 89.255 188.011C88.7777 188.794 88.148 189.417 87.3658 189.881C86.5968 190.345 85.755 190.577 84.8402 190.577ZM105.895 190V149.273H122.719C125.768 149.273 128.4 149.869 130.614 151.062C132.841 152.242 134.558 153.893 135.764 156.014C136.971 158.122 137.574 160.575 137.574 163.372C137.574 166.183 136.957 168.642 135.724 170.75C134.505 172.845 132.761 174.469 130.494 175.622C128.227 176.776 125.536 177.352 122.42 177.352H112.04V169.597H120.591C122.076 169.597 123.315 169.338 124.31 168.821C125.317 168.304 126.08 167.581 126.597 166.653C127.114 165.712 127.372 164.618 127.372 163.372C127.372 162.113 127.114 161.026 126.597 160.111C126.08 159.183 125.317 158.467 124.31 157.963C123.302 157.459 122.063 157.207 120.591 157.207H115.739V190H105.895ZM142.426 190V149.273H159.25C162.299 149.273 164.931 149.823 167.145 150.923C169.372 152.01 171.089 153.575 172.295 155.616C173.502 157.645 174.105 160.051 174.105 162.835C174.105 165.659 173.489 168.059 172.256 170.034C171.023 171.996 169.273 173.494 167.006 174.528C164.739 175.549 162.054 176.06 158.952 176.06H148.312V168.304H157.122C158.607 168.304 159.847 168.112 160.841 167.727C161.848 167.33 162.611 166.733 163.128 165.938C163.645 165.129 163.903 164.095 163.903 162.835C163.903 161.576 163.645 160.535 163.128 159.713C162.611 158.878 161.848 158.255 160.841 157.844C159.833 157.42 158.594 157.207 157.122 157.207H152.27V190H142.426ZM165.355 171.386L175.497 190H164.759L154.815 171.386H165.355ZM217.945 169.636C217.945 174.117 217.083 177.916 215.359 181.031C213.636 184.147 211.303 186.513 208.359 188.131C205.429 189.748 202.142 190.557 198.496 190.557C194.837 190.557 191.542 189.741 188.612 188.111C185.682 186.48 183.356 184.114 181.632 181.011C179.922 177.896 179.067 174.104 179.067 169.636C179.067 165.155 179.922 161.357 181.632 158.241C183.356 155.126 185.682 152.759 188.612 151.142C191.542 149.525 194.837 148.716 198.496 148.716C202.142 148.716 205.429 149.525 208.359 151.142C211.303 152.759 213.636 155.126 215.359 158.241C217.083 161.357 217.945 165.155 217.945 169.636ZM207.882 169.636C207.882 166.985 207.504 164.744 206.749 162.915C206.006 161.085 204.932 159.7 203.527 158.759C202.135 157.817 200.458 157.347 198.496 157.347C196.547 157.347 194.87 157.817 193.464 158.759C192.059 159.7 190.979 161.085 190.223 162.915C189.481 164.744 189.109 166.985 189.109 169.636C189.109 172.288 189.481 174.528 190.223 176.358C190.979 178.187 192.059 179.573 193.464 180.514C194.87 181.455 196.547 181.926 198.496 181.926C200.458 181.926 202.135 181.455 203.527 180.514C204.932 179.573 206.006 178.187 206.749 176.358C207.504 174.528 207.882 172.288 207.882 169.636ZM238.746 190H223.692V149.273H238.726C242.875 149.273 246.448 150.088 249.445 151.719C252.454 153.336 254.774 155.67 256.405 158.719C258.036 161.755 258.851 165.387 258.851 169.616C258.851 173.859 258.036 177.505 256.405 180.554C254.787 183.603 252.474 185.943 249.464 187.574C246.455 189.191 242.882 190 238.746 190ZM233.536 181.608H238.368C240.648 181.608 242.577 181.223 244.155 180.455C245.746 179.672 246.946 178.406 247.754 176.656C248.576 174.893 248.987 172.546 248.987 169.616C248.987 166.687 248.576 164.353 247.754 162.616C246.932 160.866 245.719 159.607 244.115 158.838C242.524 158.056 240.562 157.665 238.229 157.665H233.536V181.608ZM289.237 149.273H299.061V175.543C299.061 178.579 298.339 181.223 296.893 183.477C295.448 185.718 293.433 187.455 290.848 188.688C288.263 189.907 285.26 190.517 281.839 190.517C278.379 190.517 275.357 189.907 272.771 188.688C270.186 187.455 268.178 185.718 266.746 183.477C265.314 181.223 264.598 178.579 264.598 175.543V149.273H274.442V174.688C274.442 176.093 274.747 177.346 275.357 178.446C275.98 179.546 276.848 180.408 277.962 181.031C279.075 181.654 280.368 181.966 281.839 181.966C283.311 181.966 284.597 181.654 285.697 181.031C286.811 180.408 287.679 179.546 288.303 178.446C288.926 177.346 289.237 176.093 289.237 174.688V149.273ZM342.2 164.028H332.256C332.124 163.008 331.852 162.086 331.441 161.264C331.03 160.442 330.487 159.74 329.81 159.156C329.134 158.573 328.332 158.129 327.404 157.824C326.489 157.506 325.475 157.347 324.362 157.347C322.386 157.347 320.683 157.83 319.251 158.798C317.832 159.766 316.738 161.165 315.969 162.994C315.214 164.824 314.836 167.038 314.836 169.636C314.836 172.341 315.22 174.608 315.989 176.438C316.772 178.254 317.865 179.626 319.271 180.554C320.689 181.469 322.366 181.926 324.302 181.926C325.389 181.926 326.377 181.787 327.265 181.509C328.166 181.23 328.955 180.826 329.631 180.295C330.321 179.752 330.884 179.096 331.322 178.327C331.772 177.545 332.084 176.663 332.256 175.682L342.2 175.741C342.027 177.545 341.504 179.321 340.629 181.071C339.767 182.821 338.58 184.419 337.069 185.864C335.558 187.295 333.715 188.436 331.54 189.284C329.379 190.133 326.9 190.557 324.103 190.557C320.417 190.557 317.116 189.748 314.2 188.131C311.296 186.5 309.003 184.127 307.319 181.011C305.635 177.896 304.793 174.104 304.793 169.636C304.793 165.155 305.648 161.357 307.359 158.241C309.069 155.126 311.382 152.759 314.299 151.142C317.216 149.525 320.484 148.716 324.103 148.716C326.569 148.716 328.849 149.061 330.944 149.75C333.039 150.426 334.881 151.42 336.472 152.733C338.063 154.032 339.356 155.63 340.35 157.526C341.344 159.421 341.961 161.589 342.2 164.028ZM346.5 157.267V149.273H380.923V157.267H368.574V190H358.869V157.267H346.5Z" fill="#171717"/>
</mask>
<g mask="url(#mask0_2020_656)">
<g filter="url(#filter0_f_2020_656)">
<ellipse cx="425.513" cy="-22.9953" rx="164.757" ry="115.452" fill="url(#paint0_linear_2020_656)"/>
</g>
<g filter="url(#filter1_f_2020_656)">
<ellipse cx="96.5598" cy="239.451" rx="164.757" ry="115.452" fill="url(#paint1_linear_2020_656)"/>
</g>
<g filter="url(#filter2_f_2020_656)">
<ellipse cx="388.695" cy="206.646" rx="75.8463" ry="53.1486" fill="url(#paint2_linear_2020_656)"/>
</g>
<g filter="url(#filter3_f_2020_656)">
<ellipse cx="35.2295" cy="-0.014389" rx="103.427" ry="72.4754" fill="url(#paint3_linear_2020_656)"/>
</g>
</g>
<mask id="mask1_2020_656" style="mask-type:alpha" maskUnits="userSpaceOnUse" x="1" y="12" width="565" height="179">
<path d="M3.08239 54V13.2727H12.9261V29.6193H28.9744V13.2727H38.7983V54H28.9744V37.6335H12.9261V54H3.08239ZM54.8168 13.2727V54H44.973V13.2727H54.8168ZM60.9964 54V13.2727H77.8203C80.8696 13.2727 83.5012 13.8229 85.7152 14.9233C87.9425 16.0104 89.6593 17.5748 90.8658 19.6165C92.0722 21.6449 92.6754 24.0511 92.6754 26.8352C92.6754 29.6591 92.0589 32.0587 90.826 34.0341C89.593 35.9962 87.843 37.4943 85.576 38.5284C83.309 39.5492 80.6243 40.0597 77.522 40.0597H66.8828V32.304H75.6925C77.1773 32.304 78.4169 32.1117 79.4112 31.7273C80.4188 31.3295 81.1811 30.733 81.6982 29.9375C82.2152 29.1288 82.4737 28.0947 82.4737 26.8352C82.4737 25.5758 82.2152 24.535 81.6982 23.7131C81.1811 22.8778 80.4188 22.2547 79.4112 21.8438C78.4036 21.4195 77.1641 21.2074 75.6925 21.2074H70.8402V54H60.9964ZM83.9254 35.3864L94.0675 54H83.3288L73.3857 35.3864H83.9254ZM98.0746 54V13.2727H126.472V21.267H107.918V29.6193H125.021V37.6335H107.918V46.0057H126.472V54H98.0746ZM153.478 54H142.898L156.64 13.2727H169.745L183.487 54H172.907L163.342 23.5341H163.023L153.478 54ZM152.066 37.9716H174.18V45.4489H152.066V37.9716ZM193.34 54.5767C191.908 54.5767 190.682 54.0729 189.661 53.0653C188.654 52.0578 188.156 50.8381 188.17 49.4062C188.156 48.0009 188.654 46.8011 189.661 45.8068C190.682 44.7992 191.908 44.2955 193.34 44.2955C194.692 44.2955 195.886 44.7992 196.92 45.8068C197.967 46.8011 198.497 48.0009 198.511 49.4062C198.497 50.3608 198.246 51.2292 197.755 52.0114C197.278 52.7936 196.648 53.4167 195.866 53.8807C195.097 54.3447 194.255 54.5767 193.34 54.5767ZM214.778 13.2727V54H204.934V13.2727H214.778ZM226.426 54.5767C224.994 54.5767 223.768 54.0729 222.747 53.0653C221.74 52.0578 221.242 50.8381 221.256 49.4062C221.242 48.0009 221.74 46.8011 222.747 45.8068C223.768 44.7992 224.994 44.2955 226.426 44.2955C227.778 44.2955 228.972 44.7992 230.006 45.8068C231.053 46.8011 231.583 48.0009 231.597 49.4062C231.583 50.3608 231.331 51.2292 230.841 52.0114C230.364 52.7936 229.734 53.4167 228.952 53.8807C228.183 54.3447 227.341 54.5767 226.426 54.5767ZM247.481 54V13.2727H275.879V21.267H257.325V29.6193H274.427V37.6335H257.325V46.0057H275.879V54H247.481ZM316.705 13.2727V54H308.353L292.146 30.4943H291.887V54H282.043V13.2727H290.515L306.543 36.7386H306.881V13.2727H316.705ZM349.622 26.5767C349.397 25.7415 349.065 25.0057 348.628 24.3693C348.19 23.7197 347.653 23.1695 347.017 22.7188C346.381 22.268 345.652 21.9299 344.83 21.7045C344.008 21.4659 343.106 21.3466 342.125 21.3466C340.15 21.3466 338.439 21.8239 336.994 22.7784C335.562 23.733 334.455 25.125 333.673 26.9545C332.891 28.7708 332.5 30.9782 332.5 33.5767C332.5 36.1884 332.878 38.4157 333.634 40.2585C334.389 42.1013 335.483 43.5066 336.915 44.4744C338.347 45.4422 340.083 45.9261 342.125 45.9261C343.928 45.9261 345.453 45.6345 346.699 45.0511C347.958 44.4545 348.913 43.6127 349.562 42.5256C350.212 41.4384 350.537 40.1591 350.537 38.6875L352.366 38.9062H342.463V31.7273H360.023V37.1165C360.023 40.7623 359.247 43.8845 357.696 46.483C356.158 49.0814 354.037 51.0767 351.332 52.4688C348.641 53.8608 345.545 54.5568 342.045 54.5568C338.161 54.5568 334.747 53.715 331.804 52.0312C328.861 50.3475 326.567 47.9479 324.923 44.8324C323.279 41.7036 322.457 37.9915 322.457 33.696C322.457 30.3551 322.955 27.392 323.949 24.8068C324.943 22.2083 326.329 20.0076 328.105 18.2045C329.895 16.4015 331.963 15.036 334.31 14.108C336.67 13.1799 339.208 12.7159 341.926 12.7159C344.286 12.7159 346.48 13.054 348.509 13.7301C350.55 14.4062 352.353 15.3608 353.918 16.5938C355.495 17.8267 356.775 19.2917 357.756 20.9886C358.737 22.6856 359.347 24.5483 359.585 26.5767H349.622ZM375.668 13.2727V54H365.825V13.2727H375.668ZM416.51 13.2727V54H408.158L391.95 30.4943H391.692V54H381.848V13.2727H390.32L406.348 36.7386H406.686V13.2727H416.51ZM422.7 54V13.2727H451.097V21.267H432.543V29.6193H449.646V37.6335H432.543V46.0057H451.097V54H422.7ZM457.262 54V13.2727H485.66V21.267H467.106V29.6193H484.208V37.6335H467.106V46.0057H485.66V54H457.262ZM491.825 54V13.2727H508.648C511.698 13.2727 514.329 13.8229 516.543 14.9233C518.771 16.0104 520.487 17.5748 521.694 19.6165C522.9 21.6449 523.504 24.0511 523.504 26.8352C523.504 29.6591 522.887 32.0587 521.654 34.0341C520.421 35.9962 518.671 37.4943 516.404 38.5284C514.137 39.5492 511.452 40.0597 508.35 40.0597H497.711V32.304H506.521C508.005 32.304 509.245 32.1117 510.239 31.7273C511.247 31.3295 512.009 30.733 512.526 29.9375C513.043 29.1288 513.302 28.0947 513.302 26.8352C513.302 25.5758 513.043 24.535 512.526 23.7131C512.009 22.8778 511.247 22.2547 510.239 21.8438C509.232 21.4195 507.992 21.2074 506.521 21.2074H501.668V54H491.825ZM514.754 35.3864L524.896 54H514.157L504.214 35.3864H514.754ZM550.917 25.483C550.784 24.0246 550.194 22.8911 549.147 22.0824C548.113 21.2604 546.635 20.8494 544.712 20.8494C543.44 20.8494 542.379 21.0152 541.531 21.3466C540.682 21.678 540.046 22.1354 539.621 22.7188C539.197 23.2888 538.978 23.9451 538.965 24.6875C538.939 25.2973 539.058 25.8343 539.323 26.2983C539.602 26.7623 539.999 27.1733 540.516 27.5312C541.047 27.8759 541.683 28.1809 542.425 28.446C543.168 28.7112 544.003 28.9432 544.931 29.142L548.431 29.9375C550.446 30.375 552.223 30.9583 553.761 31.6875C555.312 32.4167 556.611 33.285 557.658 34.2926C558.719 35.3002 559.521 36.4602 560.065 37.7727C560.608 39.0852 560.887 40.5568 560.9 42.1875C560.887 44.7595 560.237 46.9669 558.951 48.8097C557.665 50.6525 555.816 52.0644 553.403 53.0455C551.003 54.0265 548.106 54.517 544.712 54.517C541.305 54.517 538.335 54.0066 535.803 52.9858C533.271 51.965 531.302 50.4138 529.897 48.3324C528.492 46.2509 527.769 43.6193 527.729 40.4375H537.156C537.235 41.75 537.586 42.8438 538.21 43.7188C538.833 44.5938 539.688 45.2566 540.775 45.7074C541.875 46.1581 543.148 46.3835 544.593 46.3835C545.919 46.3835 547.046 46.2045 547.974 45.8466C548.915 45.4886 549.638 44.9915 550.141 44.3551C550.645 43.7187 550.904 42.9896 550.917 42.1676C550.904 41.3987 550.665 40.7424 550.201 40.1989C549.737 39.642 549.021 39.1648 548.053 38.767C547.099 38.3561 545.879 37.9782 544.394 37.6335L540.138 36.6392C536.612 35.8305 533.835 34.5246 531.806 32.7216C529.778 30.9053 528.77 28.4527 528.783 25.3636C528.77 22.8447 529.446 20.6373 530.812 18.7415C532.177 16.8456 534.067 15.3674 536.479 14.3068C538.892 13.2462 541.643 12.7159 544.732 12.7159C547.888 12.7159 550.625 13.2528 552.945 14.3267C555.279 15.3873 557.088 16.8788 558.374 18.8011C559.66 20.7235 560.317 22.9508 560.343 25.483H550.917ZM1.75 89.267V81.2727H36.1733V89.267H23.8239V122H14.1193V89.267H1.75ZM77.5618 101.636C77.5618 106.117 76.7 109.916 74.9766 113.031C73.2531 116.147 70.9197 118.513 67.9766 120.131C65.0466 121.748 61.7588 122.557 58.1129 122.557C54.4538 122.557 51.1593 121.741 48.2294 120.111C45.2995 118.48 42.9728 116.114 41.2493 113.011C39.5391 109.896 38.6839 106.104 38.6839 101.636C38.6839 97.1553 39.5391 93.357 41.2493 90.2415C42.9728 87.1259 45.2995 84.7595 48.2294 83.142C51.1593 81.5246 54.4538 80.7159 58.1129 80.7159C61.7588 80.7159 65.0466 81.5246 67.9766 83.142C70.9197 84.7595 73.2531 87.1259 74.9766 90.2415C76.7 93.357 77.5618 97.1553 77.5618 101.636ZM67.4993 101.636C67.4993 98.9848 67.1215 96.7443 66.3658 94.9148C65.6233 93.0852 64.5495 91.6998 63.1442 90.7585C61.7521 89.8172 60.075 89.3466 58.1129 89.3466C56.1641 89.3466 54.487 89.8172 53.0817 90.7585C51.6764 91.6998 50.5959 93.0852 49.8402 94.9148C49.0978 96.7443 48.7266 98.9848 48.7266 101.636C48.7266 104.288 49.0978 106.528 49.8402 108.358C50.5959 110.187 51.6764 111.573 53.0817 112.514C54.487 113.455 56.1641 113.926 58.1129 113.926C60.075 113.926 61.7521 113.455 63.1442 112.514C64.5495 111.573 65.6233 110.187 66.3658 108.358C67.1215 106.528 67.4993 104.288 67.4993 101.636ZM95.3402 122V81.2727H112.323C115.372 81.2727 117.924 81.7036 119.979 82.5653C122.048 83.4271 123.599 84.6335 124.633 86.1847C125.68 87.7358 126.204 89.5322 126.204 91.5739C126.204 93.125 125.879 94.5104 125.229 95.7301C124.58 96.9366 123.685 97.9375 122.545 98.733C121.405 99.5284 120.085 100.085 118.587 100.403V100.801C120.231 100.881 121.749 101.325 123.141 102.134C124.547 102.942 125.674 104.069 126.522 105.514C127.371 106.946 127.795 108.643 127.795 110.605C127.795 112.793 127.238 114.748 126.124 116.472C125.011 118.182 123.4 119.534 121.292 120.528C119.184 121.509 116.625 122 113.616 122H95.3402ZM105.184 114.065H111.269C113.404 114.065 114.975 113.661 115.982 112.852C117.003 112.044 117.513 110.917 117.513 109.472C117.513 108.424 117.268 107.523 116.778 106.767C116.287 105.998 115.591 105.408 114.69 104.997C113.788 104.573 112.708 104.361 111.448 104.361H105.184V114.065ZM105.184 98.017H110.633C111.707 98.017 112.661 97.8381 113.496 97.4801C114.332 97.1222 114.981 96.6051 115.445 95.929C115.923 95.2528 116.161 94.4375 116.161 93.483C116.161 92.1174 115.677 91.0436 114.71 90.2614C113.742 89.4792 112.436 89.0881 110.792 89.0881H105.184V98.017ZM157.167 81.2727H166.991V107.543C166.991 110.579 166.268 113.223 164.823 115.477C163.378 117.718 161.363 119.455 158.778 120.688C156.192 121.907 153.19 122.517 149.769 122.517C146.309 122.517 143.286 121.907 140.701 120.688C138.116 119.455 136.107 117.718 134.675 115.477C133.244 113.223 132.528 110.579 132.528 107.543V81.2727H142.371V106.688C142.371 108.093 142.676 109.346 143.286 110.446C143.909 111.546 144.778 112.408 145.891 113.031C147.005 113.654 148.298 113.966 149.769 113.966C151.241 113.966 152.527 113.654 153.627 113.031C154.741 112.408 155.609 111.546 156.232 110.446C156.855 109.346 157.167 108.093 157.167 106.688V81.2727ZM183.004 81.2727V122H173.161V81.2727H183.004ZM189.184 122V81.2727H199.028V114.006H215.971V122H189.184ZM236.121 122H221.067V81.2727H236.101C240.25 81.2727 243.823 82.0881 246.82 83.7188C249.829 85.3362 252.149 87.6695 253.78 90.7188C255.411 93.7547 256.226 97.3873 256.226 101.616C256.226 105.859 255.411 109.505 253.78 112.554C252.162 115.603 249.849 117.943 246.839 119.574C243.83 121.191 240.257 122 236.121 122ZM230.911 113.608H235.743C238.023 113.608 239.952 113.223 241.53 112.455C243.121 111.672 244.321 110.406 245.129 108.656C245.951 106.893 246.362 104.546 246.362 101.616C246.362 98.6866 245.951 96.3532 245.129 94.6165C244.307 92.8665 243.094 91.607 241.49 90.8381C239.899 90.0559 237.937 89.6648 235.604 89.6648H230.911V113.608ZM312.445 101.636C312.445 106.117 311.583 109.916 309.859 113.031C308.136 116.147 305.803 118.513 302.859 120.131C299.929 121.748 296.642 122.557 292.996 122.557C289.337 122.557 286.042 121.741 283.112 120.111C280.182 118.48 277.856 116.114 276.132 113.011C274.422 109.896 273.567 106.104 273.567 101.636C273.567 97.1553 274.422 93.357 276.132 90.2415C277.856 87.1259 280.182 84.7595 283.112 83.142C286.042 81.5246 289.337 80.7159 292.996 80.7159C296.642 80.7159 299.929 81.5246 302.859 83.142C305.803 84.7595 308.136 87.1259 309.859 90.2415C311.583 93.357 312.445 97.1553 312.445 101.636ZM302.382 101.636C302.382 98.9848 302.004 96.7443 301.249 94.9148C300.506 93.0852 299.432 91.6998 298.027 90.7585C296.635 89.8172 294.958 89.3466 292.996 89.3466C291.047 89.3466 289.37 89.8172 287.964 90.7585C286.559 91.6998 285.479 93.0852 284.723 94.9148C283.981 96.7443 283.609 98.9848 283.609 101.636C283.609 104.288 283.981 106.528 284.723 108.358C285.479 110.187 286.559 111.573 287.964 112.514C289.37 113.455 291.047 113.926 292.996 113.926C294.958 113.926 296.635 113.455 298.027 112.514C299.432 111.573 300.506 110.187 301.249 108.358C302.004 106.528 302.382 104.288 302.382 101.636ZM342.831 81.2727H352.655V107.543C352.655 110.579 351.932 113.223 350.487 115.477C349.042 117.718 347.027 119.455 344.442 120.688C341.857 121.907 338.854 122.517 335.433 122.517C331.973 122.517 328.95 121.907 326.365 120.688C323.78 119.455 321.771 117.718 320.339 115.477C318.908 113.223 318.192 110.579 318.192 107.543V81.2727H328.036V106.688C328.036 108.093 328.34 109.346 328.95 110.446C329.573 111.546 330.442 112.408 331.555 113.031C332.669 113.654 333.962 113.966 335.433 113.966C336.905 113.966 338.191 113.654 339.291 113.031C340.405 112.408 341.273 111.546 341.896 110.446C342.519 109.346 342.831 108.093 342.831 106.688V81.2727ZM357.492 89.267V81.2727H391.915V89.267H379.566V122H369.862V89.267H357.492ZM406.726 81.2727H417.723L426.334 98.3153H426.692L435.303 81.2727H446.3L431.405 108.398V122H421.621V108.398L406.726 81.2727ZM486.187 101.636C486.187 106.117 485.325 109.916 483.602 113.031C481.878 116.147 479.545 118.513 476.602 120.131C473.672 121.748 470.384 122.557 466.738 122.557C463.079 122.557 459.784 121.741 456.854 120.111C453.924 118.48 451.598 116.114 449.874 113.011C448.164 109.896 447.309 106.104 447.309 101.636C447.309 97.1553 448.164 93.357 449.874 90.2415C451.598 87.1259 453.924 84.7595 456.854 83.142C459.784 81.5246 463.079 80.7159 466.738 80.7159C470.384 80.7159 473.672 81.5246 476.602 83.142C479.545 84.7595 481.878 87.1259 483.602 90.2415C485.325 93.357 486.187 97.1553 486.187 101.636ZM476.124 101.636C476.124 98.9848 475.746 96.7443 474.991 94.9148C474.248 93.0852 473.174 91.6998 471.769 90.7585C470.377 89.8172 468.7 89.3466 466.738 89.3466C464.789 89.3466 463.112 89.8172 461.707 90.7585C460.301 91.6998 459.221 93.0852 458.465 94.9148C457.723 96.7443 457.352 98.9848 457.352 101.636C457.352 104.288 457.723 106.528 458.465 108.358C459.221 110.187 460.301 111.573 461.707 112.514C463.112 113.455 464.789 113.926 466.738 113.926C468.7 113.926 470.377 113.455 471.769 112.514C473.174 111.573 474.248 110.187 474.991 108.358C475.746 106.528 476.124 104.288 476.124 101.636ZM516.573 81.2727H526.397V107.543C526.397 110.579 525.674 113.223 524.229 115.477C522.784 117.718 520.769 119.455 518.184 120.688C515.599 121.907 512.596 122.517 509.175 122.517C505.715 122.517 502.692 121.907 500.107 120.688C497.522 119.455 495.513 117.718 494.082 115.477C492.65 113.223 491.934 110.579 491.934 107.543V81.2727H501.778V106.688C501.778 108.093 502.083 109.346 502.692 110.446C503.316 111.546 504.184 112.408 505.298 113.031C506.411 113.654 507.704 113.966 509.175 113.966C510.647 113.966 511.933 113.654 513.033 113.031C514.147 112.408 515.015 111.546 515.638 110.446C516.262 109.346 516.573 108.093 516.573 106.688V81.2727ZM532.567 122V81.2727H549.391C552.44 81.2727 555.071 81.8229 557.286 82.9233C559.513 84.0104 561.23 85.5748 562.436 87.6165C563.643 89.6449 564.246 92.0511 564.246 94.8352C564.246 97.6591 563.629 100.059 562.396 102.034C561.163 103.996 559.413 105.494 557.146 106.528C554.879 107.549 552.195 108.06 549.092 108.06H538.453V100.304H547.263C548.748 100.304 549.987 100.112 550.982 99.7273C551.989 99.3295 552.751 98.733 553.268 97.9375C553.786 97.1288 554.044 96.0947 554.044 94.8352C554.044 93.5758 553.786 92.535 553.268 91.7131C552.751 90.8778 551.989 90.2547 550.982 89.8438C549.974 89.4195 548.734 89.2074 547.263 89.2074H542.411V122H532.567ZM555.496 103.386L565.638 122H554.899L544.956 103.386H555.496ZM11.892 190H1.3125L15.054 149.273H28.1591L41.9006 190H31.321L21.7557 159.534H21.4375L11.892 190ZM10.4801 173.972H32.5938V181.449H10.4801V173.972ZM51.7543 190.577C50.3224 190.577 49.0961 190.073 48.0753 189.065C47.0677 188.058 46.5705 186.838 46.5838 185.406C46.5705 184.001 47.0677 182.801 48.0753 181.807C49.0961 180.799 50.3224 180.295 51.7543 180.295C53.1065 180.295 54.2997 180.799 55.3338 181.807C56.3812 182.801 56.9115 184.001 56.9247 185.406C56.9115 186.361 56.6596 187.229 56.169 188.011C55.6918 188.794 55.062 189.417 54.2798 189.881C53.5109 190.345 52.669 190.577 51.7543 190.577ZM73.1918 149.273V190H63.348V149.273H73.1918ZM84.8402 190.577C83.4084 190.577 82.1821 190.073 81.1612 189.065C80.1536 188.058 79.6565 186.838 79.6697 185.406C79.6565 184.001 80.1536 182.801 81.1612 181.807C82.1821 180.799 83.4084 180.295 84.8402 180.295C86.1925 180.295 87.3857 180.799 88.4197 181.807C89.4671 182.801 89.9974 184.001 90.0107 185.406C89.9974 186.361 89.7455 187.229 89.255 188.011C88.7777 188.794 88.148 189.417 87.3658 189.881C86.5968 190.345 85.755 190.577 84.8402 190.577ZM105.895 190V149.273H122.719C125.768 149.273 128.4 149.869 130.614 151.062C132.841 152.242 134.558 153.893 135.764 156.014C136.971 158.122 137.574 160.575 137.574 163.372C137.574 166.183 136.957 168.642 135.724 170.75C134.505 172.845 132.761 174.469 130.494 175.622C128.227 176.776 125.536 177.352 122.42 177.352H112.04V169.597H120.591C122.076 169.597 123.315 169.338 124.31 168.821C125.317 168.304 126.08 167.581 126.597 166.653C127.114 165.712 127.372 164.618 127.372 163.372C127.372 162.113 127.114 161.026 126.597 160.111C126.08 159.183 125.317 158.467 124.31 157.963C123.302 157.459 122.063 157.207 120.591 157.207H115.739V190H105.895ZM142.426 190V149.273H159.25C162.299 149.273 164.931 149.823 167.145 150.923C169.372 152.01 171.089 153.575 172.295 155.616C173.502 157.645 174.105 160.051 174.105 162.835C174.105 165.659 173.489 168.059 172.256 170.034C171.023 171.996 169.273 173.494 167.006 174.528C164.739 175.549 162.054 176.06 158.952 176.06H148.312V168.304H157.122C158.607 168.304 159.847 168.112 160.841 167.727C161.848 167.33 162.611 166.733 163.128 165.938C163.645 165.129 163.903 164.095 163.903 162.835C163.903 161.576 163.645 160.535 163.128 159.713C162.611 158.878 161.848 158.255 160.841 157.844C159.833 157.42 158.594 157.207 157.122 157.207H152.27V190H142.426ZM165.355 171.386L175.497 190H164.759L154.815 171.386H165.355ZM217.945 169.636C217.945 174.117 217.083 177.916 215.359 181.031C213.636 184.147 211.303 186.513 208.359 188.131C205.429 189.748 202.142 190.557 198.496 190.557C194.837 190.557 191.542 189.741 188.612 188.111C185.682 186.48 183.356 184.114 181.632 181.011C179.922 177.896 179.067 174.104 179.067 169.636C179.067 165.155 179.922 161.357 181.632 158.241C183.356 155.126 185.682 152.759 188.612 151.142C191.542 149.525 194.837 148.716 198.496 148.716C202.142 148.716 205.429 149.525 208.359 151.142C211.303 152.759 213.636 155.126 215.359 158.241C217.083 161.357 217.945 165.155 217.945 169.636ZM207.882 169.636C207.882 166.985 207.504 164.744 206.749 162.915C206.006 161.085 204.932 159.7 203.527 158.759C202.135 157.817 200.458 157.347 198.496 157.347C196.547 157.347 194.87 157.817 193.464 158.759C192.059 159.7 190.979 161.085 190.223 162.915C189.481 164.744 189.109 166.985 189.109 169.636C189.109 172.288 189.481 174.528 190.223 176.358C190.979 178.187 192.059 179.573 193.464 180.514C194.87 181.455 196.547 181.926 198.496 181.926C200.458 181.926 202.135 181.455 203.527 180.514C204.932 179.573 206.006 178.187 206.749 176.358C207.504 174.528 207.882 172.288 207.882 169.636ZM238.746 190H223.692V149.273H238.726C242.875 149.273 246.448 150.088 249.445 151.719C252.454 153.336 254.774 155.67 256.405 158.719C258.036 161.755 258.851 165.387 258.851 169.616C258.851 173.859 258.036 177.505 256.405 180.554C254.787 183.603 252.474 185.943 249.464 187.574C246.455 189.191 242.882 190 238.746 190ZM233.536 181.608H238.368C240.648 181.608 242.577 181.223 244.155 180.455C245.746 179.672 246.946 178.406 247.754 176.656C248.576 174.893 248.987 172.546 248.987 169.616C248.987 166.687 248.576 164.353 247.754 162.616C246.932 160.866 245.719 159.607 244.115 158.838C242.524 158.056 240.562 157.665 238.229 157.665H233.536V181.608ZM289.237 149.273H299.061V175.543C299.061 178.579 298.339 181.223 296.893 183.477C295.448 185.718 293.433 187.455 290.848 188.688C288.263 189.907 285.26 190.517 281.839 190.517C278.379 190.517 275.357 189.907 272.771 188.688C270.186 187.455 268.178 185.718 266.746 183.477C265.314 181.223 264.598 178.579 264.598 175.543V149.273H274.442V174.688C274.442 176.093 274.747 177.346 275.357 178.446C275.98 179.546 276.848 180.408 277.962 181.031C279.075 181.654 280.368 181.966 281.839 181.966C283.311 181.966 284.597 181.654 285.697 181.031C286.811 180.408 287.679 179.546 288.303 178.446C288.926 177.346 289.237 176.093 289.237 174.688V149.273ZM342.2 164.028H332.256C332.124 163.008 331.852 162.086 331.441 161.264C331.03 160.442 330.487 159.74 329.81 159.156C329.134 158.573 328.332 158.129 327.404 157.824C326.489 157.506 325.475 157.347 324.362 157.347C322.386 157.347 320.683 157.83 319.251 158.798C317.832 159.766 316.738 161.165 315.969 162.994C315.214 164.824 314.836 167.038 314.836 169.636C314.836 172.341 315.22 174.608 315.989 176.438C316.772 178.254 317.865 179.626 319.271 180.554C320.689 181.469 322.366 181.926 324.302 181.926C325.389 181.926 326.377 181.787 327.265 181.509C328.166 181.23 328.955 180.826 329.631 180.295C330.321 179.752 330.884 179.096 331.322 178.327C331.772 177.545 332.084 176.663 332.256 175.682L342.2 175.741C342.027 177.545 341.504 179.321 340.629 181.071C339.767 182.821 338.58 184.419 337.069 185.864C335.558 187.295 333.715 188.436 331.54 189.284C329.379 190.133 326.9 190.557 324.103 190.557C320.417 190.557 317.116 189.748 314.2 188.131C311.296 186.5 309.003 184.127 307.319 181.011C305.635 177.896 304.793 174.104 304.793 169.636C304.793 165.155 305.648 161.357 307.359 158.241C309.069 155.126 311.382 152.759 314.299 151.142C317.216 149.525 320.484 148.716 324.103 148.716C326.569 148.716 328.849 149.061 330.944 149.75C333.039 150.426 334.881 151.42 336.472 152.733C338.063 154.032 339.356 155.63 340.35 157.526C341.344 159.421 341.961 161.589 342.2 164.028ZM346.5 157.267V149.273H380.923V157.267H368.574V190H358.869V157.267H346.5Z" fill="#171717"/>
</mask>
<g mask="url(#mask1_2020_656)">
<g filter="url(#filter4_f_2020_656)">
<ellipse cx="80.275" cy="80.1166" rx="121.945" ry="104.011" fill="#FF3E00" fill-opacity="0.83"/>
</g>
<g filter="url(#filter5_f_2020_656)">
<ellipse cx="477.362" cy="198.535" rx="113.366" ry="79.0625" fill="#FDEB71" fill-opacity="0.6"/>
</g>
</g>
<ellipse cx="485.941" cy="252.649" rx="0.612789" ry="0.351389" fill="#C4C4C4"/>
<ellipse cx="485.941" cy="252.649" rx="0.612789" ry="0.351389" fill="#C4C4C4"/>
<ellipse cx="485.941" cy="252.649" rx="0.612789" ry="0.351389" fill="#C4C4C4"/>
<ellipse cx="485.941" cy="252.649" rx="0.612789" ry="0.351389" fill="#C4C4C4"/>
<ellipse cx="485.941" cy="252.649" rx="0.612789" ry="0.351389" fill="#C4C4C4"/>
<ellipse cx="485.941" cy="252.649" rx="0.612789" ry="0.351389" fill="#C4C4C4"/>
<ellipse cx="485.941" cy="252.649" rx="0.612789" ry="0.351389" fill="#C4C4C4"/>
<ellipse cx="485.941" cy="252.649" rx="0.612789" ry="0.351389" fill="#C4C4C4"/>
<ellipse cx="485.941" cy="252.649" rx="0.612789" ry="0.351389" fill="#C4C4C4"/>
<ellipse cx="485.941" cy="252.649" rx="0.612789" ry="0.351389" fill="#C4C4C4"/>
<ellipse cx="485.941" cy="252.649" rx="0.612789" ry="0.351389" fill="#C4C4C4"/>
<ellipse cx="485.941" cy="252.649" rx="0.612789" ry="0.351389" fill="#C4C4C4"/>
<ellipse cx="485.941" cy="252.649" rx="0.612789" ry="0.351389" fill="#C4C4C4"/>
<ellipse cx="485.941" cy="252.649" rx="0.612789" ry="0.351389" fill="#C4C4C4"/>
<ellipse cx="485.941" cy="252.649" rx="0.612789" ry="0.351389" fill="#C4C4C4"/>
<ellipse cx="485.941" cy="252.649" rx="0.612789" ry="0.351389" fill="#C4C4C4"/>
<ellipse cx="485.941" cy="252.649" rx="0.612789" ry="0.351389" fill="#C4C4C4"/>
<ellipse cx="485.941" cy="252.649" rx="0.612789" ry="0.351389" fill="#C4C4C4"/>
<ellipse cx="485.941" cy="252.649" rx="0.612789" ry="0.351389" fill="#C4C4C4"/>
<ellipse cx="485.941" cy="252.649" rx="0.612789" ry="0.351389" fill="#C4C4C4"/>
<ellipse cx="485.941" cy="252.649" rx="0.612789" ry="0.351389" fill="#C4C4C4"/>
<ellipse cx="485.941" cy="252.649" rx="0.612789" ry="0.351389" fill="#C4C4C4"/>
<ellipse cx="485.941" cy="252.649" rx="0.612789" ry="0.351389" fill="#C4C4C4"/>
<ellipse cx="485.941" cy="252.649" rx="0.612789" ry="0.351389" fill="#C4C4C4"/>
<ellipse cx="485.941" cy="252.649" rx="0.612789" ry="0.351389" fill="#C4C4C4"/>
<ellipse cx="485.941" cy="252.649" rx="0.612789" ry="0.351389" fill="#C4C4C4"/>
<ellipse cx="485.941" cy="252.649" rx="0.612789" ry="0.351389" fill="#C4C4C4"/>
<ellipse cx="485.941" cy="252.649" rx="0.612789" ry="0.351389" fill="#C4C4C4"/>
<ellipse cx="485.941" cy="252.649" rx="0.612789" ry="0.351389" fill="#C4C4C4"/>
<ellipse cx="485.941" cy="252.649" rx="0.612789" ry="0.351389" fill="#C4C4C4"/>
<ellipse cx="485.941" cy="252.649" rx="0.612789" ry="0.351389" fill="#C4C4C4"/>
<ellipse cx="485.941" cy="252.649" rx="0.612789" ry="0.351389" fill="#C4C4C4"/>
<ellipse cx="485.941" cy="252.649" rx="0.612789" ry="0.351389" fill="#C4C4C4"/>
<ellipse cx="485.941" cy="252.649" rx="0.612789" ry="0.351389" fill="#C4C4C4"/>
<ellipse cx="485.941" cy="252.649" rx="0.612789" ry="0.351389" fill="#C4C4C4"/>
<ellipse cx="485.941" cy="252.649" rx="0.612789" ry="0.351389" fill="#C4C4C4"/>
<ellipse cx="485.941" cy="252.649" rx="0.612789" ry="0.351389" fill="#C4C4C4"/>
<ellipse cx="485.941" cy="252.649" rx="0.612789" ry="0.351389" fill="#C4C4C4"/>
<ellipse cx="485.941" cy="252.649" rx="0.612789" ry="0.351389" fill="#C4C4C4"/>
<ellipse cx="485.941" cy="252.649" rx="0.612789" ry="0.351389" fill="#C4C4C4"/>
<ellipse cx="485.941" cy="252.649" rx="0.612789" ry="0.351389" fill="#C4C4C4"/>
<ellipse cx="485.941" cy="252.649" rx="0.612789" ry="0.351389" fill="#C4C4C4"/>
<ellipse cx="485.941" cy="252.649" rx="0.612789" ry="0.351389" fill="#C4C4C4"/>
<ellipse cx="485.941" cy="252.649" rx="0.612789" ry="0.351389" fill="#C4C4C4"/>
<ellipse cx="485.941" cy="252.649" rx="0.612789" ry="0.351389" fill="#C4C4C4"/>
<ellipse cx="485.941" cy="252.649" rx="0.612789" ry="0.351389" fill="#C4C4C4"/>
<ellipse cx="485.941" cy="252.649" rx="0.612789" ry="0.351389" fill="#C4C4C4"/>
<ellipse cx="485.941" cy="252.649" rx="0.612789" ry="0.351389" fill="#C4C4C4"/>
<ellipse cx="485.941" cy="252.649" rx="0.612789" ry="0.351389" fill="#C4C4C4"/>
<ellipse cx="485.941" cy="252.649" rx="0.612789" ry="0.351389" fill="#C4C4C4"/>
<ellipse cx="485.941" cy="252.649" rx="0.612789" ry="0.351389" fill="#C4C4C4"/>
<ellipse cx="485.941" cy="252.649" rx="0.612789" ry="0.351389" fill="#C4C4C4"/>
<ellipse cx="485.941" cy="252.649" rx="0.612789" ry="0.351389" fill="#C4C4C4"/>
<ellipse cx="485.941" cy="252.649" rx="0.612789" ry="0.351389" fill="#C4C4C4"/>
<ellipse cx="485.941" cy="252.649" rx="0.612789" ry="0.351389" fill="#C4C4C4"/>
<ellipse cx="485.941" cy="252.649" rx="0.612789" ry="0.351389" fill="#C4C4C4"/>
<ellipse cx="485.941" cy="252.649" rx="0.612789" ry="0.351389" fill="#C4C4C4"/>
<ellipse cx="485.941" cy="252.649" rx="0.612789" ry="0.351389" fill="#C4C4C4"/>
<ellipse cx="485.941" cy="252.649" rx="0.612789" ry="0.351389" fill="#C4C4C4"/>
<ellipse cx="485.941" cy="252.649" rx="0.612789" ry="0.351389" fill="#C4C4C4"/>
<ellipse cx="485.941" cy="252.649" rx="0.612789" ry="0.351389" fill="#C4C4C4"/>
<ellipse cx="485.941" cy="252.649" rx="0.612789" ry="0.351389" fill="#C4C4C4"/>
<ellipse cx="485.941" cy="252.649" rx="0.612789" ry="0.351389" fill="#C4C4C4"/>
<ellipse cx="485.941" cy="252.649" rx="0.612789" ry="0.351389" fill="#C4C4C4"/>
<ellipse cx="485.941" cy="252.649" rx="0.612789" ry="0.351389" fill="#C4C4C4"/>
<ellipse cx="485.941" cy="252.649" rx="0.612789" ry="0.351389" fill="#C4C4C4"/>
<ellipse cx="485.941" cy="252.649" rx="0.612789" ry="0.351389" fill="#C4C4C4"/>
<ellipse cx="485.941" cy="252.649" rx="0.612789" ry="0.351389" fill="#C4C4C4"/>
<ellipse cx="485.941" cy="252.649" rx="0.612789" ry="0.351389" fill="#C4C4C4"/>
<ellipse cx="485.941" cy="252.649" rx="0.612789" ry="0.351389" fill="#C4C4C4"/>
<ellipse cx="485.941" cy="252.649" rx="0.612789" ry="0.351389" fill="#C4C4C4"/>
<ellipse cx="485.941" cy="252.649" rx="0.612789" ry="0.351389" fill="#C4C4C4"/>
<ellipse cx="485.941" cy="252.649" rx="0.612789" ry="0.351389" fill="#C4C4C4"/>
<ellipse cx="485.941" cy="252.649" rx="0.612789" ry="0.351389" fill="#C4C4C4"/>
<ellipse cx="485.941" cy="252.649" rx="0.612789" ry="0.351389" fill="#C4C4C4"/>
<ellipse cx="485.941" cy="252.649" rx="0.612789" ry="0.351389" fill="#C4C4C4"/>
<ellipse cx="485.941" cy="252.649" rx="0.612789" ry="0.351389" fill="#C4C4C4"/>
<ellipse cx="485.941" cy="252.649" rx="0.612789" ry="0.351389" fill="#C4C4C4"/>
<ellipse cx="485.941" cy="252.649" rx="0.612789" ry="0.351389" fill="#C4C4C4"/>
<ellipse cx="485.941" cy="252.649" rx="0.612789" ry="0.351389" fill="#C4C4C4"/>
<ellipse cx="485.941" cy="252.649" rx="0.612789" ry="0.351389" fill="#C4C4C4"/>
<ellipse cx="485.941" cy="252.649" rx="0.612789" ry="0.351389" fill="#C4C4C4"/>
<ellipse cx="485.941" cy="252.649" rx="0.612789" ry="0.351389" fill="#C4C4C4"/>
<ellipse cx="485.941" cy="252.649" rx="0.612789" ry="0.351389" fill="#C4C4C4"/>
<ellipse cx="485.941" cy="252.649" rx="0.612789" ry="0.351389" fill="#C4C4C4"/>
<ellipse cx="485.941" cy="252.649" rx="0.612789" ry="0.351389" fill="#C4C4C4"/>
<ellipse cx="485.941" cy="252.649" rx="0.612789" ry="0.351389" fill="#C4C4C4"/>
<ellipse cx="485.941" cy="252.649" rx="0.612789" ry="0.351389" fill="#C4C4C4"/>
<ellipse cx="485.941" cy="252.649" rx="0.612789" ry="0.351389" fill="#C4C4C4"/>
<ellipse cx="485.941" cy="252.649" rx="0.612789" ry="0.351389" fill="#C4C4C4"/>
<ellipse cx="485.941" cy="252.649" rx="0.612789" ry="0.351389" fill="#C4C4C4"/>
<ellipse cx="485.941" cy="252.649" rx="0.612789" ry="0.351389" fill="#C4C4C4"/>
<ellipse cx="485.941" cy="252.649" rx="0.612789" ry="0.351389" fill="#C4C4C4"/>
<ellipse cx="485.941" cy="252.649" rx="0.612789" ry="0.351389" fill="#C4C4C4"/>
<ellipse cx="485.941" cy="252.649" rx="0.612789" ry="0.351389" fill="#C4C4C4"/>
<ellipse cx="485.941" cy="252.649" rx="0.612789" ry="0.351389" fill="#C4C4C4"/>
<ellipse cx="485.941" cy="252.649" rx="0.612789" ry="0.351389" fill="#C4C4C4"/>
<ellipse cx="485.941" cy="252.649" rx="0.612789" ry="0.351389" fill="#C4C4C4"/>
<ellipse cx="485.941" cy="252.649" rx="0.612789" ry="0.351389" fill="#C4C4C4"/>
<ellipse cx="485.941" cy="252.649" rx="0.612789" ry="0.351389" fill="#C4C4C4"/>
<ellipse cx="485.941" cy="252.649" rx="0.612789" ry="0.351389" fill="#C4C4C4"/>
<ellipse cx="485.941" cy="252.649" rx="0.612789" ry="0.351389" fill="#C4C4C4"/>
<ellipse cx="485.941" cy="252.649" rx="0.612789" ry="0.351389" fill="#C4C4C4"/>
<ellipse cx="485.941" cy="252.649" rx="0.612789" ry="0.351389" fill="#C4C4C4"/>
<ellipse cx="485.941" cy="252.649" rx="0.612789" ry="0.351389" fill="#C4C4C4"/>
<defs>
<filter id="filter0_f_2020_656" x="220.756" y="-178.447" width="409.514" height="310.904" filterUnits="userSpaceOnUse" color-interpolation-filters="sRGB">
<feFlood flood-opacity="0" result="BackgroundImageFix"/>
<feBlend mode="normal" in="SourceGraphic" in2="BackgroundImageFix" result="shape"/>
<feGaussianBlur stdDeviation="20" result="effect1_foregroundBlur_2020_656"/>
</filter>
<filter id="filter1_f_2020_656" x="-168.197" y="23.9985" width="529.514" height="430.904" filterUnits="userSpaceOnUse" color-interpolation-filters="sRGB">
<feFlood flood-opacity="0" result="BackgroundImageFix"/>
<feBlend mode="normal" in="SourceGraphic" in2="BackgroundImageFix" result="shape"/>
<feGaussianBlur stdDeviation="50" result="effect1_foregroundBlur_2020_656"/>
</filter>
<filter id="filter2_f_2020_656" x="-87.1514" y="-246.502" width="951.692" height="906.297" filterUnits="userSpaceOnUse" color-interpolation-filters="sRGB">
<feFlood flood-opacity="0" result="BackgroundImageFix"/>
<feBlend mode="normal" in="SourceGraphic" in2="BackgroundImageFix" result="shape"/>
<feGaussianBlur stdDeviation="200" result="effect1_foregroundBlur_2020_656"/>
</filter>
<filter id="filter3_f_2020_656" x="-468.197" y="-472.49" width="1006.85" height="944.951" filterUnits="userSpaceOnUse" color-interpolation-filters="sRGB">
<feFlood flood-opacity="0" result="BackgroundImageFix"/>
<feBlend mode="normal" in="SourceGraphic" in2="BackgroundImageFix" result="shape"/>
<feGaussianBlur stdDeviation="200" result="effect1_foregroundBlur_2020_656"/>
</filter>
<filter id="filter4_f_2020_656" x="-53.6699" y="-35.8945" width="267.89" height="232.022" filterUnits="userSpaceOnUse" color-interpolation-filters="sRGB">
<feFlood flood-opacity="0" result="BackgroundImageFix"/>
<feBlend mode="normal" in="SourceGraphic" in2="BackgroundImageFix" result="shape"/>
<feGaussianBlur stdDeviation="6" result="effect1_foregroundBlur_2020_656"/>
</filter>
<filter id="filter5_f_2020_656" x="323.996" y="79.4722" width="306.731" height="238.125" filterUnits="userSpaceOnUse" color-interpolation-filters="sRGB">
<feFlood flood-opacity="0" result="BackgroundImageFix"/>
<feBlend mode="normal" in="SourceGraphic" in2="BackgroundImageFix" result="shape"/>
<feGaussianBlur stdDeviation="20" result="effect1_foregroundBlur_2020_656"/>
</filter>
<linearGradient id="paint0_linear_2020_656" x1="260.756" y1="-138.447" x2="477.791" y2="171.275" gradientUnits="userSpaceOnUse">
<stop stop-color="#F8D800"/>
<stop offset="1" stop-color="#DE4313"/>
</linearGradient>
<linearGradient id="paint1_linear_2020_656" x1="-68.1973" y1="123.999" x2="148.838" y2="433.721" gradientUnits="userSpaceOnUse">
<stop stop-color="#FEB692"/>
<stop offset="1" stop-color="#EA5455"/>
</linearGradient>
<linearGradient id="paint2_linear_2020_656" x1="312.849" y1="153.498" x2="412.761" y2="296.079" gradientUnits="userSpaceOnUse">
<stop stop-color="#FFE985"/>
<stop offset="1" stop-color="#FA742B"/>
</linearGradient>
<linearGradient id="paint3_linear_2020_656" x1="-68.1973" y1="-72.4897" x2="68.0473" y2="121.94" gradientUnits="userSpaceOnUse">
<stop stop-color="#FDEB71"/>
<stop offset="1" stop-color="#F8D800"/>
</linearGradient>
</defs>
</svg>
