<svg width="317" height="111" viewBox="0 0 317 111" fill="none" xmlns="http://www.w3.org/2000/svg">
<path d="M80.4783 26V14.216H84.7503V9.992H71.3343V14.216H75.6303V26H80.4783ZM101.904 26V9.992H97.0558V15.656H91.3198V9.992H86.4718V26H91.3198V19.88H97.0558V26H101.904ZM116.639 26V21.776H109.343V20.024H116.471V15.8H109.343V14.216H116.639V9.992H104.495V26H116.639ZM132.829 26.288C138.229 26.288 140.725 23.384 140.725 19.4V9.992H135.805V19.256C135.805 20.792 134.797 22.016 132.829 22.016C130.837 22.016 129.829 20.792 129.829 19.256V9.992H124.909V19.424C124.909 23.384 127.429 26.288 132.829 26.288ZM154.228 26V21.776H148.156V9.992H143.308V26H154.228ZM162.064 26V14.216H166.336V9.992H152.92V14.216H157.216V26H162.064ZM172.906 26V9.992H168.058V26H172.906ZM194.495 26V9.992H187.799L184.991 17.672L182.183 9.992H175.487V26H180.335V16.376L183.911 26H186.071L189.647 16.376V26H194.495ZM213.273 26L207.369 9.992H201.273L195.369 26H200.865L201.441 24.128H207.201L207.777 26H213.273ZM205.905 19.904H202.737L204.321 14.744L205.905 19.904ZM220.986 26V14.216H225.258V9.992H211.842V14.216H216.138V26H220.986ZM239.124 26V21.776H231.828V20.024H238.956V15.8H231.828V14.216H239.124V9.992H226.98V26H239.124ZM9.81278 63.288C14.1088 63.288 16.7248 61.248 16.7248 57.72C16.7248 51.768 7.82078 53.064 7.82078 51.552C7.82078 51.144 8.08478 50.832 9.04478 50.832C10.5568 50.832 12.3568 51.36 13.7488 52.416L16.3408 48.984C14.5168 47.496 12.1648 46.752 9.54878 46.752C5.15678 46.752 2.90078 49.344 2.90078 52.056C2.90078 58.368 11.8288 56.808 11.8288 58.344C11.8288 58.968 10.9648 59.208 10.0528 59.208C7.89278 59.208 6.09278 58.296 4.89278 57.144L2.37278 60.744C4.07678 62.28 6.40478 63.288 9.81278 63.288ZM26.2115 63.288C31.1555 63.288 34.9715 59.928 34.9715 55.008C34.9715 50.088 31.1555 46.728 26.2115 46.728C21.2675 46.728 17.4515 50.088 17.4515 55.008C17.4515 59.928 21.2675 63.288 26.2115 63.288ZM26.2115 59.016C23.8835 59.016 22.3715 57.24 22.3715 55.008C22.3715 52.776 23.8835 51 26.2115 51C28.5395 51 30.0515 52.776 30.0515 55.008C30.0515 57.24 28.5395 59.016 26.2115 59.016ZM47.6105 63V58.776H41.5385V46.992H36.6905V63H47.6105ZM57.009 63.288C62.409 63.288 64.905 60.384 64.905 56.4V46.992H59.985V56.256C59.985 57.792 58.977 59.016 57.009 59.016C55.017 59.016 54.009 57.792 54.009 56.256V46.992H49.089V56.424C49.089 60.384 51.609 63.288 57.009 63.288ZM75.7674 63V51.216H80.0394V46.992H66.6234V51.216H70.9194V63H75.7674ZM86.6088 63V46.992H81.7608V63H86.6088ZM97.0865 63.288C102.031 63.288 105.847 59.928 105.847 55.008C105.847 50.088 102.031 46.728 97.0865 46.728C92.1425 46.728 88.3265 50.088 88.3265 55.008C88.3265 59.928 92.1425 63.288 97.0865 63.288ZM97.0865 59.016C94.7585 59.016 93.2465 57.24 93.2465 55.008C93.2465 52.776 94.7585 51 97.0865 51C99.4145 51 100.927 52.776 100.927 55.008C100.927 57.24 99.4145 59.016 97.0865 59.016ZM122.974 63V46.992H118.126V54.576L112.558 46.992H107.566V63H112.414V54.888L118.318 63H122.974ZM200.972 63L198.068 57.336C199.34 56.712 200.948 55.248 200.948 52.488C200.948 49.488 198.932 46.992 195.188 46.992H186.644V63H191.492V57.96H193.244L195.452 63H200.972ZM194.444 53.736H191.492V51.216H194.444C195.26 51.216 196.028 51.6 196.028 52.464C196.028 53.352 195.26 53.736 194.444 53.736ZM215.053 63V58.776H207.757V57.024H214.885V52.8H207.757V51.216H215.053V46.992H202.909V63H215.053ZM223.422 63.288C227.718 63.288 230.334 61.248 230.334 57.72C230.334 51.768 221.43 53.064 221.43 51.552C221.43 51.144 221.694 50.832 222.654 50.832C224.166 50.832 225.966 51.36 227.358 52.416L229.95 48.984C228.126 47.496 225.774 46.752 223.158 46.752C218.766 46.752 216.51 49.344 216.51 52.056C216.51 58.368 225.438 56.808 225.438 58.344C225.438 58.968 224.574 59.208 223.662 59.208C221.502 59.208 219.702 58.296 218.502 57.144L215.982 60.744C217.686 62.28 220.014 63.288 223.422 63.288ZM239.821 63.288C244.765 63.288 248.581 59.928 248.581 55.008C248.581 50.088 244.765 46.728 239.821 46.728C234.877 46.728 231.061 50.088 231.061 55.008C231.061 59.928 234.877 63.288 239.821 63.288ZM239.821 59.016C237.493 59.016 235.981 57.24 235.981 55.008C235.981 52.776 237.493 51 239.821 51C242.149 51 243.661 52.776 243.661 55.008C243.661 57.24 242.149 59.016 239.821 59.016ZM258.22 63.288C263.62 63.288 266.116 60.384 266.116 56.4V46.992H261.196V56.256C261.196 57.792 260.188 59.016 258.22 59.016C256.228 59.016 255.22 57.792 255.22 56.256V46.992H250.3V56.424C250.3 60.384 252.82 63.288 258.22 63.288ZM283.026 63L280.122 57.336C281.394 56.712 283.002 55.248 283.002 52.488C283.002 49.488 280.986 46.992 277.242 46.992H268.698V63H273.546V57.96H275.298L277.506 63H283.026ZM276.498 53.736H273.546V51.216H276.498C277.314 51.216 278.082 51.6 278.082 52.464C278.082 53.352 277.314 53.736 276.498 53.736ZM292.908 63.288C297.108 63.288 299.244 60.744 300.18 58.608L296.004 56.688C295.596 57.936 294.348 59.016 292.908 59.016C290.58 59.016 289.02 57.24 289.02 55.008C289.02 52.776 290.58 51 292.908 51C294.348 51 295.596 52.08 296.004 53.328L300.18 51.384C299.22 49.176 297.108 46.728 292.908 46.728C287.892 46.728 284.1 50.064 284.1 55.008C284.1 59.928 287.892 63.288 292.908 63.288ZM313.842 63V58.776H306.546V57.024H313.674V52.8H306.546V51.216H313.842V46.992H301.698V63H313.842ZM199.163 100L193.259 83.992H187.163L181.259 100H186.755L187.331 98.128H193.091L193.667 100H199.163ZM191.795 93.904H188.627L190.211 88.744L191.795 93.904ZM206.877 100V88.216H211.149V83.992H197.733V88.216H202.029V100H206.877ZM217.718 100V83.992H212.87V100H217.718ZM228.196 100.288C233.14 100.288 236.956 96.928 236.956 92.008C236.956 87.088 233.14 83.728 228.196 83.728C223.252 83.728 219.436 87.088 219.436 92.008C219.436 96.928 223.252 100.288 228.196 100.288ZM228.196 96.016C225.868 96.016 224.356 94.24 224.356 92.008C224.356 89.776 225.868 88 228.196 88C230.524 88 232.036 89.776 232.036 92.008C232.036 94.24 230.524 96.016 228.196 96.016ZM254.083 100V83.992H249.235V91.576L243.667 83.992H238.675V100H243.523V91.888L249.427 100H254.083Z" fill="#171717"/>
<path d="M136.531 63V57.024H143.659V52.8H136.531V51.216H143.827V46.992H131.683V63H136.531ZM153.782 63.288C158.726 63.288 162.542 59.928 162.542 55.008C162.542 50.088 158.726 46.728 153.782 46.728C148.838 46.728 145.022 50.088 145.022 55.008C145.022 59.928 148.838 63.288 153.782 63.288ZM153.782 59.016C151.454 59.016 149.942 57.24 149.942 55.008C149.942 52.776 151.454 51 153.782 51C156.11 51 157.622 52.776 157.622 55.008C157.622 57.24 156.11 59.016 153.782 59.016ZM178.589 63L175.685 57.336C176.957 56.712 178.565 55.248 178.565 52.488C178.565 49.488 176.549 46.992 172.805 46.992H164.261V63H169.109V57.96H170.861L173.069 63H178.589ZM172.061 53.736H169.109V51.216H172.061C172.877 51.216 173.645 51.6 173.645 52.464C173.645 53.352 172.877 53.736 172.061 53.736Z" fill="#171717" fill-opacity="0.59"/>
<path d="M79.0931 100L73.1891 83.992H67.0931L61.1891 100H66.6851L67.2611 98.128H73.0211L73.5971 100H79.0931ZM71.7251 93.904H68.5571L70.1411 88.744L71.7251 93.904ZM86.9152 100.288C92.3152 100.288 94.8112 97.384 94.8112 93.4V83.992H89.8912V93.256C89.8912 94.792 88.8832 96.016 86.9152 96.016C84.9232 96.016 83.9152 94.792 83.9152 93.256V83.992H78.9952V93.424C78.9952 97.384 81.5152 100.288 86.9152 100.288ZM105.338 100.288C108.482 100.288 110.882 99.016 112.658 97.048V90.496H104.858V94.72H107.834V95.296C107.33 95.68 106.25 96.016 105.338 96.016C103.01 96.016 101.45 94.24 101.45 92.008C101.45 89.776 103.01 88 105.338 88C106.778 88 107.834 89.008 108.29 89.992L112.37 87.904C111.362 85.84 109.154 83.728 105.338 83.728C100.49 83.728 96.5297 86.872 96.5297 92.008C96.5297 97.12 100.49 100.288 105.338 100.288ZM133.816 100V83.992H127.12L124.312 91.672L121.504 83.992H114.808V100H119.656V90.376L123.232 100H125.392L128.968 90.376V100H133.816ZM148.561 100V95.776H141.265V94.024H148.393V89.8H141.265V88.216H148.561V83.992H136.417V100H148.561ZM166.122 100V83.992H161.274V91.576L155.706 83.992H150.714V100H155.562V91.888L161.466 100H166.122ZM176.994 100V88.216H181.266V83.992H167.85V88.216H172.146V100H176.994Z" fill="#171717" fill-opacity="0.85"/>
<mask id="mask0_438_1017" style="mask-type:alpha" maskUnits="userSpaceOnUse" x="2" y="9" width="312" height="92">
<path d="M80.4783 26V14.216H84.7503V9.992H71.3343V14.216H75.6303V26H80.4783ZM101.904 26V9.992H97.0558V15.656H91.3198V9.992H86.4718V26H91.3198V19.88H97.0558V26H101.904ZM116.639 26V21.776H109.343V20.024H116.471V15.8H109.343V14.216H116.639V9.992H104.495V26H116.639ZM132.829 26.288C138.229 26.288 140.725 23.384 140.725 19.4V9.992H135.805V19.256C135.805 20.792 134.797 22.016 132.829 22.016C130.837 22.016 129.829 20.792 129.829 19.256V9.992H124.909V19.424C124.909 23.384 127.429 26.288 132.829 26.288ZM154.228 26V21.776H148.156V9.992H143.308V26H154.228ZM162.064 26V14.216H166.336V9.992H152.92V14.216H157.216V26H162.064ZM172.906 26V9.992H168.058V26H172.906ZM194.495 26V9.992H187.799L184.991 17.672L182.183 9.992H175.487V26H180.335V16.376L183.911 26H186.071L189.647 16.376V26H194.495ZM213.273 26L207.369 9.992H201.273L195.369 26H200.865L201.441 24.128H207.201L207.777 26H213.273ZM205.905 19.904H202.737L204.321 14.744L205.905 19.904ZM220.986 26V14.216H225.258V9.992H211.842V14.216H216.138V26H220.986ZM239.124 26V21.776H231.828V20.024H238.956V15.8H231.828V14.216H239.124V9.992H226.98V26H239.124ZM9.81278 63.288C14.1088 63.288 16.7248 61.248 16.7248 57.72C16.7248 51.768 7.82078 53.064 7.82078 51.552C7.82078 51.144 8.08478 50.832 9.04478 50.832C10.5568 50.832 12.3568 51.36 13.7488 52.416L16.3408 48.984C14.5168 47.496 12.1648 46.752 9.54878 46.752C5.15678 46.752 2.90078 49.344 2.90078 52.056C2.90078 58.368 11.8288 56.808 11.8288 58.344C11.8288 58.968 10.9648 59.208 10.0528 59.208C7.89278 59.208 6.09278 58.296 4.89278 57.144L2.37278 60.744C4.07678 62.28 6.40478 63.288 9.81278 63.288ZM26.2115 63.288C31.1555 63.288 34.9715 59.928 34.9715 55.008C34.9715 50.088 31.1555 46.728 26.2115 46.728C21.2675 46.728 17.4515 50.088 17.4515 55.008C17.4515 59.928 21.2675 63.288 26.2115 63.288ZM26.2115 59.016C23.8835 59.016 22.3715 57.24 22.3715 55.008C22.3715 52.776 23.8835 51 26.2115 51C28.5395 51 30.0515 52.776 30.0515 55.008C30.0515 57.24 28.5395 59.016 26.2115 59.016ZM47.6105 63V58.776H41.5385V46.992H36.6905V63H47.6105ZM57.009 63.288C62.409 63.288 64.905 60.384 64.905 56.4V46.992H59.985V56.256C59.985 57.792 58.977 59.016 57.009 59.016C55.017 59.016 54.009 57.792 54.009 56.256V46.992H49.089V56.424C49.089 60.384 51.609 63.288 57.009 63.288ZM75.7674 63V51.216H80.0394V46.992H66.6234V51.216H70.9194V63H75.7674ZM86.6088 63V46.992H81.7608V63H86.6088ZM97.0865 63.288C102.031 63.288 105.847 59.928 105.847 55.008C105.847 50.088 102.031 46.728 97.0865 46.728C92.1425 46.728 88.3265 50.088 88.3265 55.008C88.3265 59.928 92.1425 63.288 97.0865 63.288ZM97.0865 59.016C94.7585 59.016 93.2465 57.24 93.2465 55.008C93.2465 52.776 94.7585 51 97.0865 51C99.4145 51 100.927 52.776 100.927 55.008C100.927 57.24 99.4145 59.016 97.0865 59.016ZM122.974 63V46.992H118.126V54.576L112.558 46.992H107.566V63H112.414V54.888L118.318 63H122.974ZM200.972 63L198.068 57.336C199.34 56.712 200.948 55.248 200.948 52.488C200.948 49.488 198.932 46.992 195.188 46.992H186.644V63H191.492V57.96H193.244L195.452 63H200.972ZM194.444 53.736H191.492V51.216H194.444C195.26 51.216 196.028 51.6 196.028 52.464C196.028 53.352 195.26 53.736 194.444 53.736ZM215.053 63V58.776H207.757V57.024H214.885V52.8H207.757V51.216H215.053V46.992H202.909V63H215.053ZM223.422 63.288C227.718 63.288 230.334 61.248 230.334 57.72C230.334 51.768 221.43 53.064 221.43 51.552C221.43 51.144 221.694 50.832 222.654 50.832C224.166 50.832 225.966 51.36 227.358 52.416L229.95 48.984C228.126 47.496 225.774 46.752 223.158 46.752C218.766 46.752 216.51 49.344 216.51 52.056C216.51 58.368 225.438 56.808 225.438 58.344C225.438 58.968 224.574 59.208 223.662 59.208C221.502 59.208 219.702 58.296 218.502 57.144L215.982 60.744C217.686 62.28 220.014 63.288 223.422 63.288ZM239.821 63.288C244.765 63.288 248.581 59.928 248.581 55.008C248.581 50.088 244.765 46.728 239.821 46.728C234.877 46.728 231.061 50.088 231.061 55.008C231.061 59.928 234.877 63.288 239.821 63.288ZM239.821 59.016C237.493 59.016 235.981 57.24 235.981 55.008C235.981 52.776 237.493 51 239.821 51C242.149 51 243.661 52.776 243.661 55.008C243.661 57.24 242.149 59.016 239.821 59.016ZM258.22 63.288C263.62 63.288 266.116 60.384 266.116 56.4V46.992H261.196V56.256C261.196 57.792 260.188 59.016 258.22 59.016C256.228 59.016 255.22 57.792 255.22 56.256V46.992H250.3V56.424C250.3 60.384 252.82 63.288 258.22 63.288ZM283.026 63L280.122 57.336C281.394 56.712 283.002 55.248 283.002 52.488C283.002 49.488 280.986 46.992 277.242 46.992H268.698V63H273.546V57.96H275.298L277.506 63H283.026ZM276.498 53.736H273.546V51.216H276.498C277.314 51.216 278.082 51.6 278.082 52.464C278.082 53.352 277.314 53.736 276.498 53.736ZM292.908 63.288C297.108 63.288 299.244 60.744 300.18 58.608L296.004 56.688C295.596 57.936 294.348 59.016 292.908 59.016C290.58 59.016 289.02 57.24 289.02 55.008C289.02 52.776 290.58 51 292.908 51C294.348 51 295.596 52.08 296.004 53.328L300.18 51.384C299.22 49.176 297.108 46.728 292.908 46.728C287.892 46.728 284.1 50.064 284.1 55.008C284.1 59.928 287.892 63.288 292.908 63.288ZM313.842 63V58.776H306.546V57.024H313.674V52.8H306.546V51.216H313.842V46.992H301.698V63H313.842ZM199.163 100L193.259 83.992H187.163L181.259 100H186.755L187.331 98.128H193.091L193.667 100H199.163ZM191.795 93.904H188.627L190.211 88.744L191.795 93.904ZM206.877 100V88.216H211.149V83.992H197.733V88.216H202.029V100H206.877ZM217.718 100V83.992H212.87V100H217.718ZM228.196 100.288C233.14 100.288 236.956 96.928 236.956 92.008C236.956 87.088 233.14 83.728 228.196 83.728C223.252 83.728 219.436 87.088 219.436 92.008C219.436 96.928 223.252 100.288 228.196 100.288ZM228.196 96.016C225.868 96.016 224.356 94.24 224.356 92.008C224.356 89.776 225.868 88 228.196 88C230.524 88 232.036 89.776 232.036 92.008C232.036 94.24 230.524 96.016 228.196 96.016ZM254.083 100V83.992H249.235V91.576L243.667 83.992H238.675V100H243.523V91.888L249.427 100H254.083Z" fill="#171717"/>
<path d="M136.531 63V57.024H143.659V52.8H136.531V51.216H143.827V46.992H131.683V63H136.531ZM153.782 63.288C158.726 63.288 162.542 59.928 162.542 55.008C162.542 50.088 158.726 46.728 153.782 46.728C148.838 46.728 145.022 50.088 145.022 55.008C145.022 59.928 148.838 63.288 153.782 63.288ZM153.782 59.016C151.454 59.016 149.942 57.24 149.942 55.008C149.942 52.776 151.454 51 153.782 51C156.11 51 157.622 52.776 157.622 55.008C157.622 57.24 156.11 59.016 153.782 59.016ZM178.589 63L175.685 57.336C176.957 56.712 178.565 55.248 178.565 52.488C178.565 49.488 176.549 46.992 172.805 46.992H164.261V63H169.109V57.96H170.861L173.069 63H178.589ZM172.061 53.736H169.109V51.216H172.061C172.877 51.216 173.645 51.6 173.645 52.464C173.645 53.352 172.877 53.736 172.061 53.736Z" fill="#171717" fill-opacity="0.59"/>
<path d="M79.0931 100L73.1891 83.992H67.0931L61.1891 100H66.6851L67.2611 98.128H73.0211L73.5971 100H79.0931ZM71.7251 93.904H68.5571L70.1411 88.744L71.7251 93.904ZM86.9152 100.288C92.3152 100.288 94.8112 97.384 94.8112 93.4V83.992H89.8912V93.256C89.8912 94.792 88.8832 96.016 86.9152 96.016C84.9232 96.016 83.9152 94.792 83.9152 93.256V83.992H78.9952V93.424C78.9952 97.384 81.5152 100.288 86.9152 100.288ZM105.338 100.288C108.482 100.288 110.882 99.016 112.658 97.048V90.496H104.858V94.72H107.834V95.296C107.33 95.68 106.25 96.016 105.338 96.016C103.01 96.016 101.45 94.24 101.45 92.008C101.45 89.776 103.01 88 105.338 88C106.778 88 107.834 89.008 108.29 89.992L112.37 87.904C111.362 85.84 109.154 83.728 105.338 83.728C100.49 83.728 96.5297 86.872 96.5297 92.008C96.5297 97.12 100.49 100.288 105.338 100.288ZM133.816 100V83.992H127.12L124.312 91.672L121.504 83.992H114.808V100H119.656V90.376L123.232 100H125.392L128.968 90.376V100H133.816ZM148.561 100V95.776H141.265V94.024H148.393V89.8H141.265V88.216H148.561V83.992H136.417V100H148.561ZM166.122 100V83.992H161.274V91.576L155.706 83.992H150.714V100H155.562V91.888L161.466 100H166.122ZM176.994 100V88.216H181.266V83.992H167.85V88.216H172.146V100H176.994Z" fill="#171717" fill-opacity="0.85"/>
</mask>
<g mask="url(#mask0_438_1017)">
<g filter="url(#filter0_f_438_1017)">
<ellipse cx="56" cy="55" rx="56" ry="62" fill="#FF3E00" fill-opacity="0.83"/>
</g>
<g filter="url(#filter1_f_438_1017)">
<ellipse cx="314" cy="53" rx="65" ry="59" fill="#FDEB71" fill-opacity="0.6"/>
</g>
</g>
<mask id="mask1_438_1017" style="mask-type:alpha" maskUnits="userSpaceOnUse" x="2" y="9" width="312" height="92">
<path d="M80.4783 26V14.216H84.7503V9.992H71.3343V14.216H75.6303V26H80.4783ZM101.904 26V9.992H97.0558V15.656H91.3198V9.992H86.4718V26H91.3198V19.88H97.0558V26H101.904ZM116.639 26V21.776H109.343V20.024H116.471V15.8H109.343V14.216H116.639V9.992H104.495V26H116.639ZM132.829 26.288C138.229 26.288 140.725 23.384 140.725 19.4V9.992H135.805V19.256C135.805 20.792 134.797 22.016 132.829 22.016C130.837 22.016 129.829 20.792 129.829 19.256V9.992H124.909V19.424C124.909 23.384 127.429 26.288 132.829 26.288ZM154.228 26V21.776H148.156V9.992H143.308V26H154.228ZM162.064 26V14.216H166.336V9.992H152.92V14.216H157.216V26H162.064ZM172.906 26V9.992H168.058V26H172.906ZM194.495 26V9.992H187.799L184.991 17.672L182.183 9.992H175.487V26H180.335V16.376L183.911 26H186.071L189.647 16.376V26H194.495ZM213.273 26L207.369 9.992H201.273L195.369 26H200.865L201.441 24.128H207.201L207.777 26H213.273ZM205.905 19.904H202.737L204.321 14.744L205.905 19.904ZM220.986 26V14.216H225.258V9.992H211.842V14.216H216.138V26H220.986ZM239.124 26V21.776H231.828V20.024H238.956V15.8H231.828V14.216H239.124V9.992H226.98V26H239.124ZM9.81278 63.288C14.1088 63.288 16.7248 61.248 16.7248 57.72C16.7248 51.768 7.82078 53.064 7.82078 51.552C7.82078 51.144 8.08478 50.832 9.04478 50.832C10.5568 50.832 12.3568 51.36 13.7488 52.416L16.3408 48.984C14.5168 47.496 12.1648 46.752 9.54878 46.752C5.15678 46.752 2.90078 49.344 2.90078 52.056C2.90078 58.368 11.8288 56.808 11.8288 58.344C11.8288 58.968 10.9648 59.208 10.0528 59.208C7.89278 59.208 6.09278 58.296 4.89278 57.144L2.37278 60.744C4.07678 62.28 6.40478 63.288 9.81278 63.288ZM26.2115 63.288C31.1555 63.288 34.9715 59.928 34.9715 55.008C34.9715 50.088 31.1555 46.728 26.2115 46.728C21.2675 46.728 17.4515 50.088 17.4515 55.008C17.4515 59.928 21.2675 63.288 26.2115 63.288ZM26.2115 59.016C23.8835 59.016 22.3715 57.24 22.3715 55.008C22.3715 52.776 23.8835 51 26.2115 51C28.5395 51 30.0515 52.776 30.0515 55.008C30.0515 57.24 28.5395 59.016 26.2115 59.016ZM47.6105 63V58.776H41.5385V46.992H36.6905V63H47.6105ZM57.009 63.288C62.409 63.288 64.905 60.384 64.905 56.4V46.992H59.985V56.256C59.985 57.792 58.977 59.016 57.009 59.016C55.017 59.016 54.009 57.792 54.009 56.256V46.992H49.089V56.424C49.089 60.384 51.609 63.288 57.009 63.288ZM75.7674 63V51.216H80.0394V46.992H66.6234V51.216H70.9194V63H75.7674ZM86.6088 63V46.992H81.7608V63H86.6088ZM97.0865 63.288C102.031 63.288 105.847 59.928 105.847 55.008C105.847 50.088 102.031 46.728 97.0865 46.728C92.1425 46.728 88.3265 50.088 88.3265 55.008C88.3265 59.928 92.1425 63.288 97.0865 63.288ZM97.0865 59.016C94.7585 59.016 93.2465 57.24 93.2465 55.008C93.2465 52.776 94.7585 51 97.0865 51C99.4145 51 100.927 52.776 100.927 55.008C100.927 57.24 99.4145 59.016 97.0865 59.016ZM122.974 63V46.992H118.126V54.576L112.558 46.992H107.566V63H112.414V54.888L118.318 63H122.974ZM200.972 63L198.068 57.336C199.34 56.712 200.948 55.248 200.948 52.488C200.948 49.488 198.932 46.992 195.188 46.992H186.644V63H191.492V57.96H193.244L195.452 63H200.972ZM194.444 53.736H191.492V51.216H194.444C195.26 51.216 196.028 51.6 196.028 52.464C196.028 53.352 195.26 53.736 194.444 53.736ZM215.053 63V58.776H207.757V57.024H214.885V52.8H207.757V51.216H215.053V46.992H202.909V63H215.053ZM223.422 63.288C227.718 63.288 230.334 61.248 230.334 57.72C230.334 51.768 221.43 53.064 221.43 51.552C221.43 51.144 221.694 50.832 222.654 50.832C224.166 50.832 225.966 51.36 227.358 52.416L229.95 48.984C228.126 47.496 225.774 46.752 223.158 46.752C218.766 46.752 216.51 49.344 216.51 52.056C216.51 58.368 225.438 56.808 225.438 58.344C225.438 58.968 224.574 59.208 223.662 59.208C221.502 59.208 219.702 58.296 218.502 57.144L215.982 60.744C217.686 62.28 220.014 63.288 223.422 63.288ZM239.821 63.288C244.765 63.288 248.581 59.928 248.581 55.008C248.581 50.088 244.765 46.728 239.821 46.728C234.877 46.728 231.061 50.088 231.061 55.008C231.061 59.928 234.877 63.288 239.821 63.288ZM239.821 59.016C237.493 59.016 235.981 57.24 235.981 55.008C235.981 52.776 237.493 51 239.821 51C242.149 51 243.661 52.776 243.661 55.008C243.661 57.24 242.149 59.016 239.821 59.016ZM258.22 63.288C263.62 63.288 266.116 60.384 266.116 56.4V46.992H261.196V56.256C261.196 57.792 260.188 59.016 258.22 59.016C256.228 59.016 255.22 57.792 255.22 56.256V46.992H250.3V56.424C250.3 60.384 252.82 63.288 258.22 63.288ZM283.026 63L280.122 57.336C281.394 56.712 283.002 55.248 283.002 52.488C283.002 49.488 280.986 46.992 277.242 46.992H268.698V63H273.546V57.96H275.298L277.506 63H283.026ZM276.498 53.736H273.546V51.216H276.498C277.314 51.216 278.082 51.6 278.082 52.464C278.082 53.352 277.314 53.736 276.498 53.736ZM292.908 63.288C297.108 63.288 299.244 60.744 300.18 58.608L296.004 56.688C295.596 57.936 294.348 59.016 292.908 59.016C290.58 59.016 289.02 57.24 289.02 55.008C289.02 52.776 290.58 51 292.908 51C294.348 51 295.596 52.08 296.004 53.328L300.18 51.384C299.22 49.176 297.108 46.728 292.908 46.728C287.892 46.728 284.1 50.064 284.1 55.008C284.1 59.928 287.892 63.288 292.908 63.288ZM313.842 63V58.776H306.546V57.024H313.674V52.8H306.546V51.216H313.842V46.992H301.698V63H313.842ZM199.163 100L193.259 83.992H187.163L181.259 100H186.755L187.331 98.128H193.091L193.667 100H199.163ZM191.795 93.904H188.627L190.211 88.744L191.795 93.904ZM206.877 100V88.216H211.149V83.992H197.733V88.216H202.029V100H206.877ZM217.718 100V83.992H212.87V100H217.718ZM228.196 100.288C233.14 100.288 236.956 96.928 236.956 92.008C236.956 87.088 233.14 83.728 228.196 83.728C223.252 83.728 219.436 87.088 219.436 92.008C219.436 96.928 223.252 100.288 228.196 100.288ZM228.196 96.016C225.868 96.016 224.356 94.24 224.356 92.008C224.356 89.776 225.868 88 228.196 88C230.524 88 232.036 89.776 232.036 92.008C232.036 94.24 230.524 96.016 228.196 96.016ZM254.083 100V83.992H249.235V91.576L243.667 83.992H238.675V100H243.523V91.888L249.427 100H254.083Z" fill="#171717"/>
<path d="M136.531 63V57.024H143.659V52.8H136.531V51.216H143.827V46.992H131.683V63H136.531ZM153.782 63.288C158.726 63.288 162.542 59.928 162.542 55.008C162.542 50.088 158.726 46.728 153.782 46.728C148.838 46.728 145.022 50.088 145.022 55.008C145.022 59.928 148.838 63.288 153.782 63.288ZM153.782 59.016C151.454 59.016 149.942 57.24 149.942 55.008C149.942 52.776 151.454 51 153.782 51C156.11 51 157.622 52.776 157.622 55.008C157.622 57.24 156.11 59.016 153.782 59.016ZM178.589 63L175.685 57.336C176.957 56.712 178.565 55.248 178.565 52.488C178.565 49.488 176.549 46.992 172.805 46.992H164.261V63H169.109V57.96H170.861L173.069 63H178.589ZM172.061 53.736H169.109V51.216H172.061C172.877 51.216 173.645 51.6 173.645 52.464C173.645 53.352 172.877 53.736 172.061 53.736Z" fill="#171717" fill-opacity="0.59"/>
<path d="M79.0931 100L73.1891 83.992H67.0931L61.1891 100H66.6851L67.2611 98.128H73.0211L73.5971 100H79.0931ZM71.7251 93.904H68.5571L70.1411 88.744L71.7251 93.904ZM86.9152 100.288C92.3152 100.288 94.8112 97.384 94.8112 93.4V83.992H89.8912V93.256C89.8912 94.792 88.8832 96.016 86.9152 96.016C84.9232 96.016 83.9152 94.792 83.9152 93.256V83.992H78.9952V93.424C78.9952 97.384 81.5152 100.288 86.9152 100.288ZM105.338 100.288C108.482 100.288 110.882 99.016 112.658 97.048V90.496H104.858V94.72H107.834V95.296C107.33 95.68 106.25 96.016 105.338 96.016C103.01 96.016 101.45 94.24 101.45 92.008C101.45 89.776 103.01 88 105.338 88C106.778 88 107.834 89.008 108.29 89.992L112.37 87.904C111.362 85.84 109.154 83.728 105.338 83.728C100.49 83.728 96.5297 86.872 96.5297 92.008C96.5297 97.12 100.49 100.288 105.338 100.288ZM133.816 100V83.992H127.12L124.312 91.672L121.504 83.992H114.808V100H119.656V90.376L123.232 100H125.392L128.968 90.376V100H133.816ZM148.561 100V95.776H141.265V94.024H148.393V89.8H141.265V88.216H148.561V83.992H136.417V100H148.561ZM166.122 100V83.992H161.274V91.576L155.706 83.992H150.714V100H155.562V91.888L161.466 100H166.122ZM176.994 100V88.216H181.266V83.992H167.85V88.216H172.146V100H176.994Z" fill="#171717" fill-opacity="0.85"/>
</mask>
<g mask="url(#mask1_438_1017)">
<g filter="url(#filter2_f_438_1017)">
<circle cx="184.03" cy="43.059" r="43.059" fill="url(#paint0_linear_438_1017)"/>
</g>
<g filter="url(#filter3_f_438_1017)">
<circle cx="98.059" cy="140.941" r="43.059" fill="url(#paint1_linear_438_1017)"/>
</g>
<g filter="url(#filter4_f_438_1017)">
<circle cx="174.408" cy="128.706" r="19.8223" fill="url(#paint2_linear_438_1017)"/>
</g>
<g filter="url(#filter5_f_438_1017)">
<circle cx="82.0304" cy="51.6301" r="27.0304" fill="url(#paint3_linear_438_1017)"/>
</g>
</g>
<defs>
<filter id="filter0_f_438_1017" x="-12" y="-19" width="136" height="148" filterUnits="userSpaceOnUse" color-interpolation-filters="sRGB">
<feFlood flood-opacity="0" result="BackgroundImageFix"/>
<feBlend mode="normal" in="SourceGraphic" in2="BackgroundImageFix" result="shape"/>
<feGaussianBlur stdDeviation="6" result="effect1_foregroundBlur_438_1017"/>
</filter>
<filter id="filter1_f_438_1017" x="209" y="-46" width="210" height="198" filterUnits="userSpaceOnUse" color-interpolation-filters="sRGB">
<feFlood flood-opacity="0" result="BackgroundImageFix"/>
<feBlend mode="normal" in="SourceGraphic" in2="BackgroundImageFix" result="shape"/>
<feGaussianBlur stdDeviation="20" result="effect1_foregroundBlur_438_1017"/>
</filter>
<filter id="filter2_f_438_1017" x="100.971" y="-40" width="166.118" height="166.118" filterUnits="userSpaceOnUse" color-interpolation-filters="sRGB">
<feFlood flood-opacity="0" result="BackgroundImageFix"/>
<feBlend mode="normal" in="SourceGraphic" in2="BackgroundImageFix" result="shape"/>
<feGaussianBlur stdDeviation="20" result="effect1_foregroundBlur_438_1017"/>
</filter>
<filter id="filter3_f_438_1017" x="-45" y="-2.11816" width="286.118" height="286.118" filterUnits="userSpaceOnUse" color-interpolation-filters="sRGB">
<feFlood flood-opacity="0" result="BackgroundImageFix"/>
<feBlend mode="normal" in="SourceGraphic" in2="BackgroundImageFix" result="shape"/>
<feGaussianBlur stdDeviation="50" result="effect1_foregroundBlur_438_1017"/>
</filter>
<filter id="filter4_f_438_1017" x="-245.415" y="-291.116" width="839.645" height="839.645" filterUnits="userSpaceOnUse" color-interpolation-filters="sRGB">
<feFlood flood-opacity="0" result="BackgroundImageFix"/>
<feBlend mode="normal" in="SourceGraphic" in2="BackgroundImageFix" result="shape"/>
<feGaussianBlur stdDeviation="200" result="effect1_foregroundBlur_438_1017"/>
</filter>
<filter id="filter5_f_438_1017" x="-345" y="-375.4" width="854.061" height="854.061" filterUnits="userSpaceOnUse" color-interpolation-filters="sRGB">
<feFlood flood-opacity="0" result="BackgroundImageFix"/>
<feBlend mode="normal" in="SourceGraphic" in2="BackgroundImageFix" result="shape"/>
<feGaussianBlur stdDeviation="200" result="effect1_foregroundBlur_438_1017"/>
</filter>
<linearGradient id="paint0_linear_438_1017" x1="140.971" y1="0" x2="227.089" y2="86.118" gradientUnits="userSpaceOnUse">
<stop stop-color="#F8D800"/>
<stop offset="1" stop-color="#DE4313"/>
</linearGradient>
<linearGradient id="paint1_linear_438_1017" x1="55" y1="97.8818" x2="141.118" y2="184" gradientUnits="userSpaceOnUse">
<stop stop-color="#FEB692"/>
<stop offset="1" stop-color="#EA5455"/>
</linearGradient>
<linearGradient id="paint2_linear_438_1017" x1="154.585" y1="108.884" x2="194.23" y2="148.528" gradientUnits="userSpaceOnUse">
<stop stop-color="#FFE985"/>
<stop offset="1" stop-color="#FA742B"/>
</linearGradient>
<linearGradient id="paint3_linear_438_1017" x1="55" y1="24.5996" x2="109.061" y2="78.6605" gradientUnits="userSpaceOnUse">
<stop stop-color="#FDEB71"/>
<stop offset="1" stop-color="#F8D800"/>
</linearGradient>
</defs>
</svg>
