<svg width="14" height="14" viewBox="0 0 14 14" fill="none" xmlns="http://www.w3.org/2000/svg">
<path fill-rule="evenodd" clip-rule="evenodd" d="M6.24453 2.05282C5.8535 2.05282 5.52084 2.32455 5.42746 2.69079H8.56736C8.47398 2.32455 8.14131 2.05282 7.75028 2.05282H6.24453ZM9.45447 2.69079H10.61C11.8357 2.69079 12.8337 3.70091 12.8337 4.94141C12.8337 4.94141 12.7986 5.46656 12.787 6.19786C12.7858 6.25575 12.7578 6.31246 12.7117 6.34672C12.431 6.55406 12.1742 6.72537 12.1508 6.73718C11.182 7.38697 10.0562 7.84418 8.85684 8.07161C8.77863 8.08697 8.70159 8.04621 8.66191 7.9765C8.32574 7.39406 7.69776 7.01482 6.99741 7.01482C6.30173 7.01482 5.66791 7.38992 5.32182 7.97296C5.28155 8.04148 5.20568 8.08106 5.12806 8.06629C3.93863 7.83828 2.81282 7.38165 1.84983 6.74309L1.28955 6.35322C1.24286 6.32368 1.21368 6.27052 1.21368 6.21145C1.19617 5.91018 1.16699 4.94141 1.16699 4.94141C1.16699 3.70091 2.16499 2.69079 3.3906 2.69079H4.54035C4.65123 1.83426 5.36909 1.16675 6.24453 1.16675H7.75028C8.62572 1.16675 9.34358 1.83426 9.45447 2.69079ZM12.6352 7.47564L12.6119 7.48745C11.433 8.27901 10.0147 8.80474 8.52651 9.02331C8.3164 9.05284 8.1063 8.91698 8.04793 8.70432C7.91954 8.21994 7.50516 7.90095 7.00908 7.90095H7.00324H6.99157C6.49549 7.90095 6.08112 8.21994 5.95272 8.70432C5.89436 8.91698 5.68425 9.05284 5.47415 9.02331C3.9859 8.80474 2.56769 8.27901 1.38877 7.48745C1.38293 7.48154 1.32457 7.4461 1.27788 7.47564C1.22535 7.50517 1.22535 7.57606 1.22535 7.57606L1.26621 10.5887C1.26621 11.8292 2.25837 12.8334 3.48398 12.8334H10.5108C11.7364 12.8334 12.7286 11.8292 12.7286 10.5887L12.7753 7.57606C12.7753 7.57606 12.7753 7.50517 12.7228 7.47564C12.6936 7.45791 12.6586 7.46382 12.6352 7.47564ZM7.43513 9.95073C7.43513 10.1988 7.24253 10.3938 6.99741 10.3938C6.75812 10.3938 6.55969 10.1988 6.55969 9.95073V9.18871C6.55969 8.94652 6.75812 8.74567 6.99741 8.74567C7.24253 8.74567 7.43513 8.94652 7.43513 9.18871V9.95073Z" fill="#FF4509"/>
</svg>
