<svg width="87" height="132" viewBox="0 0 87 132" fill="none" xmlns="http://www.w3.org/2000/svg">
<path d="M69.7638 101.458C69.7724 101.534 69.797 101.611 69.836 101.684C69.875 101.757 69.9276 101.825 69.9907 101.883C70.0538 101.942 70.126 101.99 70.2029 102.024C70.2798 102.058 70.3598 102.078 70.4381 102.083L86.2575 103.054L68.4965 131.241L41.4705 102.231L53.4515 101.634C53.5976 101.626 53.7222 101.563 53.7988 101.456C53.8753 101.349 53.8979 101.208 53.8618 101.062C43.3277 58.2609 5.10146 26.0465 0.181773 22.0469L18.166 0.646973C63.8422 54.4737 69.7096 100.994 69.7638 101.458" fill="#FF4509" fill-opacity="0.6"/>
</svg>
