<svg width="12" height="12" viewBox="0 0 12 12" fill="none" xmlns="http://www.w3.org/2000/svg">
<path fill-rule="evenodd" clip-rule="evenodd" d="M7.29087 3.52807C7.29087 5.07027 6.02888 6.30615 4.4541 6.30615C2.8799 6.30615 1.61734 5.07027 1.61734 3.52807C1.61734 1.98588 2.8799 0.75 4.4541 0.75C6.02888 0.75 7.29087 1.98588 7.29087 3.52807ZM0.166992 9.4518C0.166992 8.02419 2.14188 7.66701 4.4541 7.66701C6.77888 7.66701 8.74121 8.03649 8.74121 9.46521C8.74121 10.8928 6.76632 11.25 4.4541 11.25C2.12933 11.25 0.166992 10.8805 0.166992 9.4518ZM8.43482 3.57844C8.43482 4.36379 8.19395 5.0966 7.77158 5.70531C7.72763 5.76792 7.76644 5.85232 7.84293 5.86574C7.94909 5.88306 8.05811 5.89368 8.16941 5.89592C9.27672 5.92443 10.2704 5.22628 10.545 4.17486C10.9519 2.61477 9.75788 1.214 8.23676 1.214C8.07181 1.214 7.9137 1.23077 7.75959 1.26151C7.73847 1.26598 7.71564 1.27605 7.70423 1.29393C7.68939 1.31685 7.70023 1.34648 7.71507 1.36604C8.17226 1.99376 8.43482 2.75787 8.43482 3.57844ZM10.2687 6.99301C11.013 7.13554 11.5022 7.42565 11.7048 7.84879C11.8766 8.19535 11.8766 8.59781 11.7048 8.94437C11.3949 9.59948 10.3949 9.81021 10.0062 9.86443C9.92569 9.87561 9.86119 9.80853 9.86976 9.72916C10.0684 7.91363 8.48904 7.05282 8.08037 6.85494C8.06324 6.84544 8.05925 6.83202 8.06096 6.82308C8.0621 6.81749 8.06952 6.80855 8.08265 6.80687C8.96679 6.7901 9.9177 6.90916 10.2687 6.99301Z" fill="#FF4509"/>
</svg>
