<svg width="12" height="12" viewBox="0 0 12 12" fill="none" xmlns="http://www.w3.org/2000/svg">
<path fill-rule="evenodd" clip-rule="evenodd" d="M8.57301 0.615108L8.57359 1.05239C10.1805 1.17833 11.2419 2.27328 11.2437 3.95244L11.25 8.86748C11.2523 10.6982 10.1021 11.8247 8.25855 11.8276L3.75527 11.8334C1.9232 11.8357 0.758643 10.6825 0.756339 8.84649L0.750004 3.98917C0.7477 2.29893 1.77172 1.2069 3.3786 1.05939L3.37802 0.622105C3.37745 0.365566 3.56751 0.17258 3.82092 0.17258C4.07434 0.171997 4.2644 0.3644 4.26497 0.620939L4.26555 1.02907L7.68664 1.0244L7.68606 0.616274C7.68549 0.359736 7.87555 0.167332 8.12896 0.166749C8.37662 0.166166 8.57244 0.35857 8.57301 0.615108ZM1.63753 4.16933L10.3573 4.15767V3.9536C10.3325 2.70006 9.70358 2.04239 8.57474 1.94444L8.57531 2.39338C8.57531 2.64409 8.38007 2.84291 8.13242 2.84291C7.879 2.84349 7.68836 2.64526 7.68836 2.39455L7.68779 1.92229L4.2667 1.92695L4.26727 2.39863C4.26727 2.64992 4.07779 2.84816 3.82438 2.84816C3.57096 2.84874 3.38032 2.65109 3.38032 2.3998L3.37975 1.95085C2.25666 2.06338 1.63522 2.72338 1.63695 3.988L1.63753 4.16933ZM7.88994 6.81925V6.82566C7.8957 7.09386 8.11456 7.29734 8.38007 7.29151C8.63924 7.2851 8.84601 7.06296 8.84025 6.79476C8.82815 6.53822 8.62024 6.32891 8.36164 6.3295C8.09671 6.33533 7.88937 6.55105 7.88994 6.81925ZM8.36567 9.43711C8.10074 9.43128 7.88706 9.2103 7.88649 8.9421C7.88073 8.67391 8.09325 8.45177 8.35818 8.44535H8.36394C8.63464 8.44535 8.85407 8.66633 8.85407 8.94036C8.85465 9.21438 8.63579 9.43652 8.36567 9.43711ZM5.51707 6.82858C5.52859 7.09678 5.74802 7.30609 6.01295 7.29443C6.27213 7.28218 6.47889 7.06063 6.46737 6.79243C6.46103 6.53006 6.24794 6.326 5.98876 6.32658C5.72383 6.33824 5.51649 6.56038 5.51707 6.82858ZM6.01526 9.41087C5.75032 9.42253 5.53147 9.21322 5.51937 8.94502C5.51937 8.67682 5.72613 8.45527 5.99107 8.44302C6.25024 8.44244 6.46391 8.6465 6.46967 8.90829C6.48177 9.17707 6.27443 9.39863 6.01526 9.41087ZM3.14419 6.84899C3.15571 7.11718 3.37514 7.32708 3.64007 7.31484C3.89925 7.30317 4.10601 7.08104 4.09392 6.81284C4.08816 6.55047 3.87506 6.3464 3.61531 6.34699C3.35038 6.35865 3.14361 6.58079 3.14419 6.84899ZM3.64238 9.41378C3.37745 9.42603 3.15859 9.21613 3.14649 8.94793C3.14592 8.67973 3.35326 8.4576 3.61819 8.44593C3.87736 8.44535 4.09104 8.64942 4.0968 8.91178C4.10889 9.17998 3.90213 9.40212 3.64238 9.41378Z" fill="#FF4509"/>
</svg>
