<svg width="12" height="16" viewBox="0 0 12 16" fill="none" xmlns="http://www.w3.org/2000/svg">
<path d="M9.75058 6.82805C10.4375 6.92994 10.9131 7.23567 11.1773 7.64334C11.4415 8.05096 11.6001 8.76437 11.6001 9.68154C11.6001 11.5159 11.0188 13.0446 9.85624 14.2166C8.69366 15.3886 7.21402 16 5.41735 16C4.73033 16 4.04336 15.8981 3.35639 15.6433C2.66942 15.3886 2.14099 15.0319 1.66538 14.6243C1.13695 14.1656 0.714218 13.6051 0.449978 13.0956C0.238613 12.5351 0.0800781 11.9745 0.0800781 11.414C0.0800781 10.8026 0.238613 10.293 0.502808 9.93634C0.767048 9.57966 1.24261 9.3758 1.82392 9.22298C1.71826 8.96818 1.61255 8.76433 1.55972 8.56051C1.50685 8.40764 1.45402 8.25482 1.45402 8.15289C1.45402 7.84715 1.61255 7.49047 1.98245 7.13379C2.35235 6.77711 2.66942 6.62424 2.98649 6.62424C3.14503 6.62424 3.25073 6.62424 3.40927 6.67518C3.5678 6.72612 3.72634 6.77707 3.9377 6.92994C3.4621 5.40128 2.98649 4.12739 2.72225 3.26116C2.45806 2.39493 2.35235 1.83443 2.35235 1.47771C2.35235 1.0191 2.45806 0.66242 2.72225 0.407666C2.93371 0.152826 3.30361 0 3.72638 0C4.41335 0 5.31169 1.52869 6.42143 4.63694C6.6328 5.14653 6.73846 5.55415 6.84416 5.85989C6.94987 5.65608 7.05553 5.29936 7.21406 4.89173C8.32372 1.83439 9.27493 0.305739 10.0148 0.305739C10.3847 0.305739 10.7017 0.407623 10.9659 0.66242C11.1773 0.917217 11.3358 1.2739 11.3358 1.68152C11.3358 1.98726 11.2302 2.59874 10.9659 3.46497C10.6489 4.33124 10.279 5.45223 9.75053 6.82805H9.75058ZM1.61251 11.3122C1.71821 11.414 1.87675 11.6179 2.03528 11.8727C2.51089 12.535 2.98649 12.8917 3.40927 12.8917C3.5678 12.8917 3.67346 12.8408 3.77917 12.7388C3.88483 12.6369 3.9377 12.535 3.9377 12.484C3.9377 12.3822 3.88483 12.1784 3.72634 11.9236C3.5678 11.6688 3.35644 11.3631 3.0922 11.0573C2.77513 10.7006 2.51089 10.3949 2.3524 10.242C2.14099 10.0892 1.9825 9.98728 1.87675 9.98728C1.61255 9.98728 1.34831 10.1401 1.13695 10.3949C0.925583 10.6497 0.819878 11.0063 0.819878 11.3631C0.819878 11.6688 0.872753 11.9745 1.03129 12.3822C1.18982 12.7388 1.40119 13.1465 1.71826 13.5032C2.19382 14.0127 2.7223 14.4713 3.40927 14.777C4.09624 15.0828 4.78321 15.2357 5.62867 15.2357C7.10831 15.2357 8.32372 14.7261 9.3278 13.6561C10.3318 12.586 10.8074 11.2611 10.8074 9.63056C10.8074 9.12101 10.7546 8.76433 10.7017 8.45854C10.6489 8.15285 10.4903 7.94904 10.3318 7.84711C10.0148 7.59231 9.43346 7.3885 8.53513 7.18469C7.63679 6.98088 6.68558 6.87895 5.73437 6.87895C5.47018 6.87895 5.25881 6.92989 5.15311 7.03182C5.0474 7.13375 4.99457 7.28662 4.99457 7.49043C4.99457 7.99998 5.25881 8.35666 5.84008 8.56047C6.42134 8.76433 7.37255 8.91715 8.64083 8.91715H9.11639C9.2221 8.91715 9.3278 8.96814 9.38063 9.01912C9.43346 9.12101 9.48634 9.22289 9.48634 9.3758C9.38059 9.47769 9.11644 9.63056 8.69366 9.78343C8.27089 9.9363 8.00669 10.0892 7.79533 10.242C7.31968 10.5478 6.94978 10.9554 6.68558 11.414C6.42134 11.8726 6.26281 12.2802 6.26281 12.6879C6.26281 12.9427 6.31568 13.1975 6.42134 13.5541C6.52709 13.9108 6.57988 14.1146 6.57988 14.1656V14.3694C6.26281 14.3694 5.99861 14.1656 5.78725 13.8089C5.57584 13.4522 5.52301 12.9936 5.52301 12.3822V12.2802C5.47018 12.3312 5.41735 12.3822 5.36447 12.3822C5.31164 12.3822 5.25881 12.4331 5.15311 12.4331H4.94174C4.88887 12.4331 4.83604 12.3822 4.73033 12.3822C4.73033 12.484 4.78321 12.535 4.78321 12.6369V12.8408C4.78321 13.0955 4.6775 13.3503 4.46614 13.5541C4.25477 13.7579 3.99053 13.8599 3.67346 13.8599C3.19786 13.8599 2.7223 13.6561 2.19386 13.1975C1.71821 12.7388 1.45406 12.3312 1.45406 11.8726C1.45406 11.7707 1.45406 11.7197 1.50685 11.6688C1.50685 11.414 1.55972 11.3631 1.61255 11.3121L1.61251 11.3122ZM5.04736 11.5669C5.15306 11.5669 5.3116 11.5159 5.41726 11.414C5.52301 11.3121 5.57579 11.1593 5.57579 11.0574C5.57579 10.9045 5.47013 10.5987 5.25877 10.0892C5.04736 9.57966 4.78312 9.07011 4.46609 8.6115C4.25473 8.25482 3.99049 7.94908 3.77912 7.79617C3.56776 7.59236 3.35635 7.54146 3.14498 7.54146C2.98645 7.54146 2.82791 7.64334 2.61655 7.84715C2.40518 8.05096 2.35231 8.20383 2.35231 8.40764C2.35231 8.56051 2.45801 8.8663 2.61655 9.22298C2.82791 9.57966 3.03928 9.93634 3.35635 10.344C3.67346 10.7516 3.99058 11.1083 4.3076 11.3631C4.62467 11.465 4.83604 11.5669 5.0474 11.5669L5.04736 11.5669ZM6.15706 6.26752L4.88882 2.85349C4.5718 1.98726 4.36039 1.37578 4.14902 1.12103C3.99049 0.866231 3.83195 0.713362 3.62059 0.713362C3.46205 0.713362 3.35635 0.764347 3.25069 0.866231C3.09215 1.0191 3.03928 1.17197 3.03928 1.37578C3.03928 1.73246 3.19781 2.293 3.46205 3.10829C3.72629 3.92358 4.14902 5.0446 4.6775 6.36944C4.73029 6.26752 4.78316 6.21657 4.88882 6.21657C4.99453 6.16563 5.10023 6.16563 5.20589 6.16563H5.47013C5.62867 6.21657 5.84003 6.21657 6.1571 6.26752H6.15706ZM7.42534 9.57961C7.10827 9.57961 6.79124 9.52867 6.47417 9.47773C6.1571 9.42679 5.89286 9.3758 5.62862 9.27392C5.73437 9.52867 5.84003 9.73253 5.94574 9.98728C6.0514 10.2421 6.10427 10.4459 6.1571 10.7006C6.31564 10.4968 6.527 10.293 6.73837 10.0892C7.00261 9.8854 7.21402 9.73253 7.42534 9.57966V9.57961ZM8.95781 6.6242C9.48629 5.29936 9.85619 4.17837 10.1733 3.3121C10.4375 2.44587 10.596 1.93632 10.596 1.73251C10.596 1.52865 10.5432 1.37582 10.4375 1.22291C10.3318 1.12103 10.2261 1.07009 10.0676 1.07009C9.85619 1.07009 9.64478 1.22291 9.43342 1.57964C9.22205 1.93632 8.95781 2.44587 8.69362 3.21021L7.53104 6.36944L8.95781 6.62424V6.6242Z" fill="white"/>
</svg>
